G75*
%MOIN*%
%OFA0B0*%
%FSLAX25Y25*%
%IPPOS*%
%LPD*%
%AMOC8*
5,1,8,0,0,1.08239X$1,22.5*
%
%ADD10C,0.02500*%
%ADD11OC8,0.06000*%
%ADD12R,0.07480X0.05118*%
%ADD13R,0.07480X0.07874*%
%ADD14C,0.07087*%
%ADD15C,0.07000*%
%ADD16C,0.12268*%
%ADD17C,0.05700*%
%ADD18R,0.07400X0.07400*%
%ADD19C,0.07400*%
%ADD20R,0.06000X0.06000*%
%ADD21OC8,0.16205*%
%ADD22OC8,0.13252*%
%ADD23OC8,0.14236*%
%ADD24C,0.01200*%
%ADD25OC8,0.11811*%
%ADD26C,0.02165*%
%ADD27C,0.01417*%
%ADD28C,0.01981*%
%ADD29C,0.03937*%
%ADD30C,0.00787*%
%ADD31C,0.00669*%
%ADD32R,0.02375X0.02375*%
%ADD33C,0.02953*%
%ADD34C,0.01969*%
%ADD35C,0.01181*%
%ADD36C,0.02178*%
%ADD37C,0.00800*%
%ADD38C,0.05906*%
%ADD39C,0.00630*%
%ADD40C,0.02375*%
D10*
X0482783Y0152703D02*
X0489050Y0152703D01*
X0491927Y0152703D02*
X0494433Y0141423D01*
X0496940Y0148943D01*
X0499447Y0141423D01*
X0501953Y0152703D01*
X0505332Y0152703D02*
X0507839Y0152703D01*
X0506586Y0152703D02*
X0506586Y0141423D01*
X0507839Y0141423D02*
X0505332Y0141423D01*
X0512942Y0148003D02*
X0516389Y0146123D01*
X0515135Y0141423D02*
X0514991Y0141425D01*
X0514847Y0141431D01*
X0514703Y0141441D01*
X0514559Y0141454D01*
X0514416Y0141472D01*
X0514274Y0141493D01*
X0514132Y0141519D01*
X0513991Y0141548D01*
X0513850Y0141581D01*
X0513711Y0141618D01*
X0513573Y0141659D01*
X0513436Y0141703D01*
X0513300Y0141751D01*
X0513165Y0141803D01*
X0513032Y0141858D01*
X0512901Y0141918D01*
X0512771Y0141980D01*
X0512643Y0142046D01*
X0512516Y0142116D01*
X0512392Y0142189D01*
X0512270Y0142265D01*
X0512150Y0142345D01*
X0512032Y0142428D01*
X0511916Y0142514D01*
X0511803Y0142603D01*
X0511692Y0142695D01*
X0511584Y0142790D01*
X0511478Y0142889D01*
X0511375Y0142990D01*
X0516389Y0146123D02*
X0516472Y0146072D01*
X0516553Y0146018D01*
X0516632Y0145960D01*
X0516709Y0145900D01*
X0516784Y0145836D01*
X0516856Y0145770D01*
X0516925Y0145701D01*
X0516992Y0145629D01*
X0517056Y0145555D01*
X0517117Y0145478D01*
X0517175Y0145400D01*
X0517230Y0145319D01*
X0517282Y0145235D01*
X0517330Y0145150D01*
X0517376Y0145064D01*
X0517418Y0144975D01*
X0517456Y0144885D01*
X0517491Y0144794D01*
X0517522Y0144701D01*
X0517550Y0144607D01*
X0517575Y0144512D01*
X0517595Y0144417D01*
X0517612Y0144320D01*
X0517625Y0144223D01*
X0517634Y0144126D01*
X0517640Y0144028D01*
X0517642Y0143930D01*
X0517640Y0143832D01*
X0517634Y0143733D01*
X0517625Y0143635D01*
X0517611Y0143538D01*
X0517594Y0143441D01*
X0517573Y0143345D01*
X0517548Y0143250D01*
X0517519Y0143155D01*
X0517487Y0143062D01*
X0517451Y0142971D01*
X0517412Y0142880D01*
X0517369Y0142792D01*
X0517322Y0142705D01*
X0517273Y0142620D01*
X0517219Y0142537D01*
X0517163Y0142456D01*
X0517104Y0142378D01*
X0517041Y0142302D01*
X0516976Y0142228D01*
X0516908Y0142157D01*
X0516837Y0142089D01*
X0516763Y0142024D01*
X0516687Y0141961D01*
X0516609Y0141902D01*
X0516528Y0141846D01*
X0516445Y0141792D01*
X0516360Y0141743D01*
X0516273Y0141696D01*
X0516185Y0141653D01*
X0516094Y0141614D01*
X0516003Y0141578D01*
X0515910Y0141546D01*
X0515816Y0141517D01*
X0515720Y0141492D01*
X0515624Y0141471D01*
X0515527Y0141454D01*
X0515430Y0141440D01*
X0515332Y0141431D01*
X0515233Y0141425D01*
X0515135Y0141423D01*
X0517016Y0151763D02*
X0516910Y0151840D01*
X0516801Y0151915D01*
X0516691Y0151986D01*
X0516578Y0152054D01*
X0516464Y0152119D01*
X0516348Y0152181D01*
X0516230Y0152240D01*
X0516111Y0152295D01*
X0515990Y0152347D01*
X0515868Y0152396D01*
X0515744Y0152441D01*
X0515620Y0152482D01*
X0515494Y0152520D01*
X0515367Y0152555D01*
X0515239Y0152586D01*
X0515111Y0152613D01*
X0514981Y0152637D01*
X0514851Y0152657D01*
X0514721Y0152674D01*
X0514590Y0152686D01*
X0514459Y0152696D01*
X0514327Y0152701D01*
X0514196Y0152703D01*
X0514098Y0152701D01*
X0513999Y0152695D01*
X0513901Y0152686D01*
X0513804Y0152672D01*
X0513707Y0152655D01*
X0513611Y0152634D01*
X0513515Y0152609D01*
X0513421Y0152580D01*
X0513328Y0152548D01*
X0513237Y0152512D01*
X0513146Y0152473D01*
X0513058Y0152430D01*
X0512971Y0152383D01*
X0512886Y0152334D01*
X0512803Y0152280D01*
X0512722Y0152224D01*
X0512644Y0152165D01*
X0512568Y0152102D01*
X0512494Y0152037D01*
X0512423Y0151969D01*
X0512355Y0151898D01*
X0512290Y0151824D01*
X0512227Y0151748D01*
X0512168Y0151670D01*
X0512112Y0151589D01*
X0512058Y0151506D01*
X0512009Y0151421D01*
X0511962Y0151334D01*
X0511919Y0151246D01*
X0511880Y0151155D01*
X0511844Y0151064D01*
X0511812Y0150971D01*
X0511783Y0150877D01*
X0511758Y0150781D01*
X0511737Y0150685D01*
X0511720Y0150588D01*
X0511706Y0150491D01*
X0511697Y0150393D01*
X0511691Y0150294D01*
X0511689Y0150196D01*
X0511691Y0150098D01*
X0511697Y0150000D01*
X0511706Y0149903D01*
X0511719Y0149806D01*
X0511736Y0149709D01*
X0511756Y0149614D01*
X0511781Y0149519D01*
X0511809Y0149425D01*
X0511840Y0149332D01*
X0511875Y0149241D01*
X0511913Y0149151D01*
X0511955Y0149062D01*
X0512001Y0148976D01*
X0512049Y0148891D01*
X0512101Y0148807D01*
X0512156Y0148726D01*
X0512214Y0148648D01*
X0512275Y0148571D01*
X0512339Y0148497D01*
X0512406Y0148425D01*
X0512475Y0148356D01*
X0512547Y0148290D01*
X0512622Y0148226D01*
X0512699Y0148166D01*
X0512778Y0148108D01*
X0512859Y0148054D01*
X0512942Y0148003D01*
X0520677Y0152703D02*
X0526943Y0152703D01*
X0523810Y0152703D02*
X0523810Y0141423D01*
X0530688Y0141423D02*
X0530688Y0152703D01*
X0535701Y0152703D01*
X0539668Y0152703D02*
X0542801Y0152703D01*
X0539668Y0152703D02*
X0539668Y0141423D01*
X0535701Y0141423D02*
X0530688Y0141423D01*
X0530688Y0147690D02*
X0534448Y0147690D01*
X0539668Y0146436D02*
X0542801Y0146436D01*
X0543428Y0146436D02*
X0545935Y0141423D01*
X0555470Y0141423D02*
X0558603Y0141423D01*
X0558715Y0141425D01*
X0558827Y0141431D01*
X0558938Y0141441D01*
X0559049Y0141455D01*
X0559159Y0141473D01*
X0559269Y0141495D01*
X0559378Y0141520D01*
X0559486Y0141550D01*
X0559592Y0141583D01*
X0559698Y0141621D01*
X0559802Y0141661D01*
X0559904Y0141706D01*
X0560005Y0141754D01*
X0560104Y0141806D01*
X0560202Y0141862D01*
X0560297Y0141920D01*
X0560390Y0141982D01*
X0560481Y0142048D01*
X0560569Y0142117D01*
X0560655Y0142188D01*
X0560738Y0142263D01*
X0560818Y0142341D01*
X0560896Y0142421D01*
X0560971Y0142504D01*
X0561042Y0142590D01*
X0561111Y0142678D01*
X0561177Y0142769D01*
X0561239Y0142862D01*
X0561297Y0142957D01*
X0561353Y0143055D01*
X0561405Y0143154D01*
X0561453Y0143255D01*
X0561498Y0143357D01*
X0561538Y0143461D01*
X0561576Y0143567D01*
X0561609Y0143673D01*
X0561639Y0143781D01*
X0561664Y0143890D01*
X0561686Y0144000D01*
X0561704Y0144110D01*
X0561718Y0144221D01*
X0561728Y0144332D01*
X0561734Y0144444D01*
X0561736Y0144556D01*
X0561734Y0144668D01*
X0561728Y0144780D01*
X0561718Y0144891D01*
X0561704Y0145002D01*
X0561686Y0145112D01*
X0561664Y0145222D01*
X0561639Y0145331D01*
X0561609Y0145439D01*
X0561576Y0145545D01*
X0561538Y0145651D01*
X0561498Y0145755D01*
X0561453Y0145857D01*
X0561405Y0145958D01*
X0561353Y0146057D01*
X0561297Y0146155D01*
X0561239Y0146250D01*
X0561177Y0146343D01*
X0561111Y0146434D01*
X0561042Y0146522D01*
X0560971Y0146608D01*
X0560896Y0146691D01*
X0560818Y0146771D01*
X0560738Y0146849D01*
X0560655Y0146924D01*
X0560569Y0146995D01*
X0560481Y0147064D01*
X0560390Y0147130D01*
X0560297Y0147192D01*
X0560202Y0147250D01*
X0560104Y0147306D01*
X0560005Y0147358D01*
X0559904Y0147406D01*
X0559802Y0147451D01*
X0559698Y0147491D01*
X0559592Y0147529D01*
X0559486Y0147562D01*
X0559378Y0147592D01*
X0559269Y0147617D01*
X0559159Y0147639D01*
X0559049Y0147657D01*
X0558938Y0147671D01*
X0558827Y0147681D01*
X0558715Y0147687D01*
X0558603Y0147689D01*
X0559230Y0147690D02*
X0556723Y0147690D01*
X0559230Y0147689D02*
X0559328Y0147691D01*
X0559427Y0147697D01*
X0559525Y0147706D01*
X0559622Y0147720D01*
X0559719Y0147737D01*
X0559815Y0147758D01*
X0559911Y0147783D01*
X0560005Y0147812D01*
X0560098Y0147844D01*
X0560189Y0147880D01*
X0560280Y0147919D01*
X0560368Y0147962D01*
X0560455Y0148009D01*
X0560540Y0148058D01*
X0560623Y0148112D01*
X0560704Y0148168D01*
X0560782Y0148227D01*
X0560858Y0148290D01*
X0560932Y0148355D01*
X0561003Y0148423D01*
X0561071Y0148494D01*
X0561136Y0148568D01*
X0561199Y0148644D01*
X0561258Y0148722D01*
X0561314Y0148803D01*
X0561368Y0148886D01*
X0561417Y0148971D01*
X0561464Y0149058D01*
X0561507Y0149146D01*
X0561546Y0149237D01*
X0561582Y0149328D01*
X0561614Y0149421D01*
X0561643Y0149515D01*
X0561668Y0149611D01*
X0561689Y0149707D01*
X0561706Y0149804D01*
X0561720Y0149901D01*
X0561729Y0149999D01*
X0561735Y0150098D01*
X0561737Y0150196D01*
X0561735Y0150294D01*
X0561729Y0150393D01*
X0561720Y0150491D01*
X0561706Y0150588D01*
X0561689Y0150685D01*
X0561668Y0150781D01*
X0561643Y0150877D01*
X0561614Y0150971D01*
X0561582Y0151064D01*
X0561546Y0151155D01*
X0561507Y0151246D01*
X0561464Y0151334D01*
X0561417Y0151421D01*
X0561368Y0151506D01*
X0561314Y0151589D01*
X0561258Y0151670D01*
X0561199Y0151748D01*
X0561136Y0151824D01*
X0561071Y0151898D01*
X0561003Y0151969D01*
X0560932Y0152037D01*
X0560858Y0152102D01*
X0560782Y0152165D01*
X0560704Y0152224D01*
X0560623Y0152280D01*
X0560540Y0152334D01*
X0560455Y0152383D01*
X0560368Y0152430D01*
X0560280Y0152473D01*
X0560189Y0152512D01*
X0560098Y0152548D01*
X0560005Y0152580D01*
X0559911Y0152609D01*
X0559815Y0152634D01*
X0559719Y0152655D01*
X0559622Y0152672D01*
X0559525Y0152686D01*
X0559427Y0152695D01*
X0559328Y0152701D01*
X0559230Y0152703D01*
X0555470Y0152703D01*
X0542801Y0152703D02*
X0542913Y0152701D01*
X0543025Y0152695D01*
X0543136Y0152685D01*
X0543247Y0152671D01*
X0543357Y0152653D01*
X0543467Y0152631D01*
X0543576Y0152606D01*
X0543684Y0152576D01*
X0543790Y0152543D01*
X0543896Y0152505D01*
X0544000Y0152465D01*
X0544102Y0152420D01*
X0544203Y0152372D01*
X0544302Y0152320D01*
X0544400Y0152264D01*
X0544495Y0152206D01*
X0544588Y0152144D01*
X0544679Y0152078D01*
X0544767Y0152009D01*
X0544853Y0151938D01*
X0544936Y0151863D01*
X0545016Y0151785D01*
X0545094Y0151705D01*
X0545169Y0151622D01*
X0545240Y0151536D01*
X0545309Y0151448D01*
X0545375Y0151357D01*
X0545437Y0151264D01*
X0545495Y0151169D01*
X0545551Y0151071D01*
X0545603Y0150972D01*
X0545651Y0150871D01*
X0545696Y0150769D01*
X0545736Y0150665D01*
X0545774Y0150559D01*
X0545807Y0150453D01*
X0545837Y0150345D01*
X0545862Y0150236D01*
X0545884Y0150126D01*
X0545902Y0150016D01*
X0545916Y0149905D01*
X0545926Y0149794D01*
X0545932Y0149682D01*
X0545934Y0149570D01*
X0545932Y0149458D01*
X0545926Y0149346D01*
X0545916Y0149235D01*
X0545902Y0149124D01*
X0545884Y0149014D01*
X0545862Y0148904D01*
X0545837Y0148795D01*
X0545807Y0148687D01*
X0545774Y0148581D01*
X0545736Y0148475D01*
X0545696Y0148371D01*
X0545651Y0148269D01*
X0545603Y0148168D01*
X0545551Y0148069D01*
X0545495Y0147971D01*
X0545437Y0147876D01*
X0545375Y0147783D01*
X0545309Y0147692D01*
X0545240Y0147604D01*
X0545169Y0147518D01*
X0545094Y0147435D01*
X0545016Y0147355D01*
X0544936Y0147277D01*
X0544853Y0147202D01*
X0544767Y0147131D01*
X0544679Y0147062D01*
X0544588Y0146996D01*
X0544495Y0146934D01*
X0544400Y0146876D01*
X0544302Y0146820D01*
X0544203Y0146768D01*
X0544102Y0146720D01*
X0544000Y0146675D01*
X0543896Y0146635D01*
X0543790Y0146597D01*
X0543684Y0146564D01*
X0543576Y0146534D01*
X0543467Y0146509D01*
X0543357Y0146487D01*
X0543247Y0146469D01*
X0543136Y0146455D01*
X0543025Y0146445D01*
X0542913Y0146439D01*
X0542801Y0146437D01*
X0485916Y0141423D02*
X0485916Y0152703D01*
D11*
X0287354Y0193031D03*
X0277354Y0193031D03*
X0267354Y0193031D03*
X0257354Y0193031D03*
X0247354Y0193031D03*
X0237354Y0193031D03*
X0227354Y0193031D03*
X0237354Y0243031D03*
X0247354Y0243031D03*
X0257354Y0243031D03*
X0267354Y0243031D03*
X0277354Y0243031D03*
X0287354Y0243031D03*
X0297354Y0243031D03*
X0297102Y0308480D03*
X0287102Y0308480D03*
X0277102Y0308480D03*
X0267102Y0308480D03*
X0603717Y0308480D03*
X0613717Y0308480D03*
X0623717Y0308480D03*
X0633717Y0308480D03*
D12*
X0153953Y0311512D03*
X0153953Y0301512D03*
X0122457Y0301512D03*
X0122457Y0311512D03*
D13*
X0142535Y0306512D03*
X0174031Y0306512D03*
D14*
X0299819Y0078165D03*
X0309661Y0078165D03*
X0319504Y0078165D03*
D15*
X0317535Y0135252D03*
X0309661Y0135252D03*
X0301787Y0135252D03*
X0293913Y0135252D03*
X0325409Y0135252D03*
D16*
X0331512Y0107693D03*
X0287811Y0107693D03*
D17*
X0143047Y0073323D03*
X0143047Y0083323D03*
X0143047Y0093323D03*
X0143047Y0103323D03*
X0143047Y0113323D03*
X0143047Y0123323D03*
X0143047Y0133323D03*
X0143047Y0143323D03*
X0143047Y0153323D03*
X0143047Y0163323D03*
X0143047Y0173323D03*
X0143047Y0183323D03*
X0143047Y0193323D03*
X0143047Y0203323D03*
X0173047Y0193323D03*
X0183047Y0193323D03*
X0203047Y0193323D03*
X0203047Y0203323D03*
X0203047Y0183323D03*
X0203047Y0173323D03*
X0203047Y0163323D03*
X0203047Y0153323D03*
X0183047Y0153323D03*
X0173047Y0153323D03*
X0173047Y0163323D03*
X0183047Y0163323D03*
X0183047Y0173323D03*
X0173047Y0173323D03*
X0173047Y0183323D03*
X0183047Y0183323D03*
X0183047Y0143323D03*
X0173047Y0143323D03*
X0173047Y0133323D03*
X0183047Y0133323D03*
X0193047Y0123323D03*
X0203047Y0123323D03*
X0203047Y0133323D03*
X0203047Y0143323D03*
X0203047Y0113323D03*
X0193047Y0113323D03*
X0203047Y0103323D03*
X0203047Y0093323D03*
X0203047Y0083323D03*
X0203047Y0073323D03*
D18*
X0116748Y0282890D03*
D19*
X0126748Y0282890D03*
X0136748Y0282890D03*
X0146748Y0282890D03*
X0156748Y0282890D03*
X0166748Y0282890D03*
X0176748Y0282890D03*
X0186748Y0282890D03*
X0196748Y0282890D03*
X0206748Y0282890D03*
X0216748Y0282890D03*
X0226748Y0282890D03*
X0236748Y0282890D03*
X0246748Y0282890D03*
X0256748Y0282890D03*
X0266748Y0282890D03*
D20*
X0227354Y0243031D03*
X0297354Y0193031D03*
D21*
X0333283Y0276984D03*
D22*
X0333283Y0300606D03*
D23*
X0315567Y0304528D03*
X0351000Y0304528D03*
D24*
X0084657Y0113968D02*
X0084057Y0113368D01*
X0084057Y0115356D01*
X0085462Y0116761D01*
X0087450Y0116761D01*
X0088855Y0115356D01*
X0088855Y0113368D01*
X0087450Y0111963D01*
X0085462Y0111963D01*
X0084057Y0113368D01*
X0084957Y0113741D01*
X0084957Y0114983D01*
X0085835Y0115861D01*
X0087077Y0115861D01*
X0087955Y0114983D01*
X0087955Y0113741D01*
X0087077Y0112863D01*
X0085835Y0112863D01*
X0084957Y0113741D01*
X0085857Y0114114D01*
X0085857Y0114610D01*
X0086208Y0114961D01*
X0086704Y0114961D01*
X0087055Y0114610D01*
X0087055Y0114114D01*
X0086704Y0113763D01*
X0086208Y0113763D01*
X0085857Y0114114D01*
X0091728Y0106897D02*
X0091128Y0106297D01*
X0091128Y0108285D01*
X0092533Y0109690D01*
X0094521Y0109690D01*
X0095926Y0108285D01*
X0095926Y0106297D01*
X0094521Y0104892D01*
X0092533Y0104892D01*
X0091128Y0106297D01*
X0092028Y0106670D01*
X0092028Y0107912D01*
X0092906Y0108790D01*
X0094148Y0108790D01*
X0095026Y0107912D01*
X0095026Y0106670D01*
X0094148Y0105792D01*
X0092906Y0105792D01*
X0092028Y0106670D01*
X0092928Y0107043D01*
X0092928Y0107539D01*
X0093279Y0107890D01*
X0093775Y0107890D01*
X0094126Y0107539D01*
X0094126Y0107043D01*
X0093775Y0106692D01*
X0093279Y0106692D01*
X0092928Y0107043D01*
X0098800Y0099826D02*
X0098200Y0099226D01*
X0098200Y0101214D01*
X0099605Y0102619D01*
X0101593Y0102619D01*
X0102998Y0101214D01*
X0102998Y0099226D01*
X0101593Y0097821D01*
X0099605Y0097821D01*
X0098200Y0099226D01*
X0099100Y0099599D01*
X0099100Y0100841D01*
X0099978Y0101719D01*
X0101220Y0101719D01*
X0102098Y0100841D01*
X0102098Y0099599D01*
X0101220Y0098721D01*
X0099978Y0098721D01*
X0099100Y0099599D01*
X0100000Y0099972D01*
X0100000Y0100468D01*
X0100351Y0100819D01*
X0100847Y0100819D01*
X0101198Y0100468D01*
X0101198Y0099972D01*
X0100847Y0099621D01*
X0100351Y0099621D01*
X0100000Y0099972D01*
X0105871Y0092755D02*
X0105271Y0092155D01*
X0105271Y0094143D01*
X0106676Y0095548D01*
X0108664Y0095548D01*
X0110069Y0094143D01*
X0110069Y0092155D01*
X0108664Y0090750D01*
X0106676Y0090750D01*
X0105271Y0092155D01*
X0106171Y0092528D01*
X0106171Y0093770D01*
X0107049Y0094648D01*
X0108291Y0094648D01*
X0109169Y0093770D01*
X0109169Y0092528D01*
X0108291Y0091650D01*
X0107049Y0091650D01*
X0106171Y0092528D01*
X0107071Y0092901D01*
X0107071Y0093397D01*
X0107422Y0093748D01*
X0107918Y0093748D01*
X0108269Y0093397D01*
X0108269Y0092901D01*
X0107918Y0092550D01*
X0107422Y0092550D01*
X0107071Y0092901D01*
X0375432Y0091011D02*
X0374832Y0091611D01*
X0376820Y0091611D01*
X0378225Y0090206D01*
X0378225Y0088218D01*
X0376820Y0086813D01*
X0374832Y0086813D01*
X0373427Y0088218D01*
X0373427Y0090206D01*
X0374832Y0091611D01*
X0375205Y0090711D01*
X0376447Y0090711D01*
X0377325Y0089833D01*
X0377325Y0088591D01*
X0376447Y0087713D01*
X0375205Y0087713D01*
X0374327Y0088591D01*
X0374327Y0089833D01*
X0375205Y0090711D01*
X0375578Y0089811D01*
X0376074Y0089811D01*
X0376425Y0089460D01*
X0376425Y0088964D01*
X0376074Y0088613D01*
X0375578Y0088613D01*
X0375227Y0088964D01*
X0375227Y0089460D01*
X0375578Y0089811D01*
X0382504Y0098082D02*
X0381904Y0098682D01*
X0383892Y0098682D01*
X0385297Y0097277D01*
X0385297Y0095289D01*
X0383892Y0093884D01*
X0381904Y0093884D01*
X0380499Y0095289D01*
X0380499Y0097277D01*
X0381904Y0098682D01*
X0382277Y0097782D01*
X0383519Y0097782D01*
X0384397Y0096904D01*
X0384397Y0095662D01*
X0383519Y0094784D01*
X0382277Y0094784D01*
X0381399Y0095662D01*
X0381399Y0096904D01*
X0382277Y0097782D01*
X0382650Y0096882D01*
X0383146Y0096882D01*
X0383497Y0096531D01*
X0383497Y0096035D01*
X0383146Y0095684D01*
X0382650Y0095684D01*
X0382299Y0096035D01*
X0382299Y0096531D01*
X0382650Y0096882D01*
X0389575Y0105153D02*
X0388975Y0105753D01*
X0390963Y0105753D01*
X0392368Y0104348D01*
X0392368Y0102360D01*
X0390963Y0100955D01*
X0388975Y0100955D01*
X0387570Y0102360D01*
X0387570Y0104348D01*
X0388975Y0105753D01*
X0389348Y0104853D01*
X0390590Y0104853D01*
X0391468Y0103975D01*
X0391468Y0102733D01*
X0390590Y0101855D01*
X0389348Y0101855D01*
X0388470Y0102733D01*
X0388470Y0103975D01*
X0389348Y0104853D01*
X0389721Y0103953D01*
X0390217Y0103953D01*
X0390568Y0103602D01*
X0390568Y0103106D01*
X0390217Y0102755D01*
X0389721Y0102755D01*
X0389370Y0103106D01*
X0389370Y0103602D01*
X0389721Y0103953D01*
X0396646Y0112224D02*
X0396046Y0112824D01*
X0398034Y0112824D01*
X0399439Y0111419D01*
X0399439Y0109431D01*
X0398034Y0108026D01*
X0396046Y0108026D01*
X0394641Y0109431D01*
X0394641Y0111419D01*
X0396046Y0112824D01*
X0396419Y0111924D01*
X0397661Y0111924D01*
X0398539Y0111046D01*
X0398539Y0109804D01*
X0397661Y0108926D01*
X0396419Y0108926D01*
X0395541Y0109804D01*
X0395541Y0111046D01*
X0396419Y0111924D01*
X0396792Y0111024D01*
X0397288Y0111024D01*
X0397639Y0110673D01*
X0397639Y0110177D01*
X0397288Y0109826D01*
X0396792Y0109826D01*
X0396441Y0110177D01*
X0396441Y0110673D01*
X0396792Y0111024D01*
D25*
X0288795Y0162417D03*
X0206118Y0232102D03*
X0410055Y0237614D03*
X0410449Y0260055D03*
D26*
X0512811Y0118717D02*
X0519898Y0101394D01*
X0503362Y0113205D01*
X0517535Y0093520D01*
X0512811Y0118717D01*
X0503362Y0113205D02*
X0493126Y0103756D01*
X0519898Y0101394D01*
X0517535Y0093520D01*
X0493126Y0103756D01*
D27*
X0493205Y0088323D02*
X0490843Y0088323D01*
X0490843Y0081394D01*
X0493205Y0081394D01*
X0493279Y0081396D01*
X0493353Y0081402D01*
X0493427Y0081411D01*
X0493500Y0081425D01*
X0493572Y0081442D01*
X0493643Y0081463D01*
X0493713Y0081488D01*
X0493781Y0081517D01*
X0493848Y0081548D01*
X0493914Y0081584D01*
X0493977Y0081623D01*
X0494038Y0081665D01*
X0494097Y0081710D01*
X0494153Y0081758D01*
X0494207Y0081809D01*
X0494258Y0081863D01*
X0494306Y0081919D01*
X0494351Y0081978D01*
X0494393Y0082039D01*
X0494432Y0082103D01*
X0494468Y0082168D01*
X0494499Y0082235D01*
X0494528Y0082303D01*
X0494553Y0082373D01*
X0494574Y0082444D01*
X0494591Y0082516D01*
X0494605Y0082589D01*
X0494614Y0082663D01*
X0494620Y0082737D01*
X0494622Y0082811D01*
X0494622Y0086906D01*
X0494620Y0086980D01*
X0494614Y0087054D01*
X0494605Y0087128D01*
X0494591Y0087201D01*
X0494574Y0087273D01*
X0494553Y0087344D01*
X0494528Y0087414D01*
X0494499Y0087482D01*
X0494468Y0087549D01*
X0494432Y0087615D01*
X0494393Y0087678D01*
X0494351Y0087739D01*
X0494306Y0087798D01*
X0494258Y0087854D01*
X0494207Y0087908D01*
X0494153Y0087959D01*
X0494097Y0088007D01*
X0494038Y0088052D01*
X0493977Y0088094D01*
X0493914Y0088133D01*
X0493848Y0088169D01*
X0493781Y0088200D01*
X0493713Y0088229D01*
X0493643Y0088254D01*
X0493572Y0088275D01*
X0493500Y0088292D01*
X0493427Y0088306D01*
X0493353Y0088315D01*
X0493279Y0088321D01*
X0493205Y0088323D01*
X0497220Y0086906D02*
X0497220Y0082811D01*
X0497221Y0082811D02*
X0497223Y0082737D01*
X0497229Y0082663D01*
X0497238Y0082589D01*
X0497252Y0082516D01*
X0497269Y0082444D01*
X0497290Y0082373D01*
X0497315Y0082303D01*
X0497344Y0082235D01*
X0497375Y0082168D01*
X0497411Y0082103D01*
X0497450Y0082039D01*
X0497492Y0081978D01*
X0497537Y0081919D01*
X0497585Y0081863D01*
X0497636Y0081809D01*
X0497690Y0081758D01*
X0497746Y0081710D01*
X0497805Y0081665D01*
X0497866Y0081623D01*
X0497930Y0081584D01*
X0497995Y0081548D01*
X0498062Y0081517D01*
X0498130Y0081488D01*
X0498200Y0081463D01*
X0498271Y0081442D01*
X0498343Y0081425D01*
X0498416Y0081411D01*
X0498490Y0081402D01*
X0498564Y0081396D01*
X0498638Y0081394D01*
X0500055Y0081394D01*
X0500101Y0081396D01*
X0500146Y0081402D01*
X0500190Y0081411D01*
X0500234Y0081424D01*
X0500276Y0081440D01*
X0500317Y0081460D01*
X0500356Y0081484D01*
X0500393Y0081510D01*
X0500428Y0081540D01*
X0500460Y0081572D01*
X0500490Y0081607D01*
X0500516Y0081644D01*
X0500540Y0081683D01*
X0500560Y0081724D01*
X0500576Y0081766D01*
X0500589Y0081810D01*
X0500598Y0081854D01*
X0500604Y0081899D01*
X0500606Y0081945D01*
X0501000Y0084858D02*
X0501000Y0086748D01*
X0501000Y0086906D02*
X0500998Y0086980D01*
X0500992Y0087054D01*
X0500983Y0087128D01*
X0500969Y0087201D01*
X0500952Y0087273D01*
X0500931Y0087344D01*
X0500906Y0087414D01*
X0500877Y0087482D01*
X0500846Y0087549D01*
X0500810Y0087615D01*
X0500771Y0087678D01*
X0500729Y0087739D01*
X0500684Y0087798D01*
X0500636Y0087854D01*
X0500585Y0087908D01*
X0500531Y0087959D01*
X0500475Y0088007D01*
X0500416Y0088052D01*
X0500355Y0088094D01*
X0500292Y0088133D01*
X0500226Y0088169D01*
X0500159Y0088200D01*
X0500091Y0088229D01*
X0500021Y0088254D01*
X0499950Y0088275D01*
X0499878Y0088292D01*
X0499805Y0088306D01*
X0499731Y0088315D01*
X0499657Y0088321D01*
X0499583Y0088323D01*
X0498638Y0088323D01*
X0498564Y0088321D01*
X0498490Y0088315D01*
X0498416Y0088306D01*
X0498343Y0088292D01*
X0498271Y0088275D01*
X0498200Y0088254D01*
X0498130Y0088229D01*
X0498062Y0088200D01*
X0497995Y0088169D01*
X0497930Y0088133D01*
X0497866Y0088094D01*
X0497805Y0088052D01*
X0497746Y0088007D01*
X0497690Y0087959D01*
X0497636Y0087908D01*
X0497585Y0087854D01*
X0497537Y0087798D01*
X0497492Y0087739D01*
X0497450Y0087678D01*
X0497411Y0087615D01*
X0497375Y0087549D01*
X0497344Y0087482D01*
X0497315Y0087414D01*
X0497290Y0087344D01*
X0497269Y0087273D01*
X0497252Y0087201D01*
X0497238Y0087128D01*
X0497229Y0087054D01*
X0497223Y0086980D01*
X0497221Y0086906D01*
X0497693Y0084858D02*
X0501000Y0084858D01*
X0503677Y0081394D02*
X0503677Y0088323D01*
X0506039Y0088323D01*
X0506113Y0088321D01*
X0506187Y0088315D01*
X0506261Y0088306D01*
X0506334Y0088292D01*
X0506406Y0088275D01*
X0506477Y0088254D01*
X0506547Y0088229D01*
X0506615Y0088200D01*
X0506682Y0088169D01*
X0506748Y0088133D01*
X0506811Y0088094D01*
X0506872Y0088052D01*
X0506931Y0088007D01*
X0506987Y0087959D01*
X0507041Y0087908D01*
X0507092Y0087854D01*
X0507140Y0087798D01*
X0507185Y0087739D01*
X0507227Y0087678D01*
X0507266Y0087615D01*
X0507302Y0087549D01*
X0507333Y0087482D01*
X0507362Y0087414D01*
X0507387Y0087344D01*
X0507408Y0087273D01*
X0507425Y0087201D01*
X0507439Y0087128D01*
X0507448Y0087054D01*
X0507454Y0086980D01*
X0507456Y0086906D01*
X0507457Y0086906D02*
X0507457Y0081394D01*
X0513126Y0082811D02*
X0513126Y0086906D01*
X0513128Y0086980D01*
X0513134Y0087054D01*
X0513143Y0087128D01*
X0513157Y0087201D01*
X0513174Y0087273D01*
X0513195Y0087344D01*
X0513220Y0087414D01*
X0513249Y0087482D01*
X0513280Y0087549D01*
X0513316Y0087615D01*
X0513355Y0087678D01*
X0513397Y0087739D01*
X0513442Y0087798D01*
X0513490Y0087854D01*
X0513541Y0087908D01*
X0513595Y0087959D01*
X0513651Y0088007D01*
X0513710Y0088052D01*
X0513771Y0088094D01*
X0513835Y0088133D01*
X0513900Y0088169D01*
X0513967Y0088200D01*
X0514035Y0088229D01*
X0514105Y0088254D01*
X0514176Y0088275D01*
X0514248Y0088292D01*
X0514321Y0088306D01*
X0514395Y0088315D01*
X0514469Y0088321D01*
X0514543Y0088323D01*
X0515488Y0088323D01*
X0515562Y0088321D01*
X0515636Y0088315D01*
X0515710Y0088306D01*
X0515783Y0088292D01*
X0515855Y0088275D01*
X0515926Y0088254D01*
X0515996Y0088229D01*
X0516064Y0088200D01*
X0516131Y0088169D01*
X0516197Y0088133D01*
X0516260Y0088094D01*
X0516321Y0088052D01*
X0516380Y0088007D01*
X0516436Y0087959D01*
X0516490Y0087908D01*
X0516541Y0087854D01*
X0516589Y0087798D01*
X0516634Y0087739D01*
X0516676Y0087678D01*
X0516715Y0087615D01*
X0516751Y0087549D01*
X0516782Y0087482D01*
X0516811Y0087414D01*
X0516836Y0087344D01*
X0516857Y0087273D01*
X0516874Y0087201D01*
X0516888Y0087128D01*
X0516897Y0087054D01*
X0516903Y0086980D01*
X0516905Y0086906D01*
X0516906Y0086748D02*
X0516906Y0084858D01*
X0513598Y0084858D01*
X0513126Y0082811D02*
X0513128Y0082737D01*
X0513134Y0082663D01*
X0513143Y0082589D01*
X0513157Y0082516D01*
X0513174Y0082444D01*
X0513195Y0082373D01*
X0513220Y0082303D01*
X0513249Y0082235D01*
X0513280Y0082168D01*
X0513316Y0082103D01*
X0513355Y0082039D01*
X0513397Y0081978D01*
X0513442Y0081919D01*
X0513490Y0081863D01*
X0513541Y0081809D01*
X0513595Y0081758D01*
X0513651Y0081710D01*
X0513710Y0081665D01*
X0513771Y0081623D01*
X0513835Y0081584D01*
X0513900Y0081548D01*
X0513967Y0081517D01*
X0514035Y0081488D01*
X0514105Y0081463D01*
X0514176Y0081442D01*
X0514248Y0081425D01*
X0514321Y0081411D01*
X0514395Y0081402D01*
X0514469Y0081396D01*
X0514543Y0081394D01*
X0515961Y0081394D01*
X0516007Y0081396D01*
X0516052Y0081402D01*
X0516096Y0081411D01*
X0516140Y0081424D01*
X0516182Y0081440D01*
X0516223Y0081460D01*
X0516262Y0081484D01*
X0516299Y0081510D01*
X0516334Y0081540D01*
X0516366Y0081572D01*
X0516396Y0081607D01*
X0516422Y0081644D01*
X0516446Y0081683D01*
X0516466Y0081724D01*
X0516482Y0081766D01*
X0516495Y0081810D01*
X0516504Y0081854D01*
X0516510Y0081899D01*
X0516512Y0081945D01*
X0519425Y0081394D02*
X0521787Y0081394D01*
X0521861Y0081396D01*
X0521935Y0081402D01*
X0522009Y0081411D01*
X0522082Y0081425D01*
X0522154Y0081442D01*
X0522225Y0081463D01*
X0522295Y0081488D01*
X0522363Y0081517D01*
X0522430Y0081548D01*
X0522496Y0081584D01*
X0522559Y0081623D01*
X0522620Y0081665D01*
X0522679Y0081710D01*
X0522735Y0081758D01*
X0522789Y0081809D01*
X0522840Y0081863D01*
X0522888Y0081919D01*
X0522933Y0081978D01*
X0522975Y0082039D01*
X0523014Y0082103D01*
X0523050Y0082168D01*
X0523081Y0082235D01*
X0523110Y0082303D01*
X0523135Y0082373D01*
X0523156Y0082444D01*
X0523173Y0082516D01*
X0523187Y0082589D01*
X0523196Y0082663D01*
X0523202Y0082737D01*
X0523204Y0082811D01*
X0523205Y0082811D02*
X0523205Y0086906D01*
X0523204Y0086906D02*
X0523202Y0086980D01*
X0523196Y0087054D01*
X0523187Y0087128D01*
X0523173Y0087201D01*
X0523156Y0087273D01*
X0523135Y0087344D01*
X0523110Y0087414D01*
X0523081Y0087482D01*
X0523050Y0087549D01*
X0523014Y0087615D01*
X0522975Y0087678D01*
X0522933Y0087739D01*
X0522888Y0087798D01*
X0522840Y0087854D01*
X0522789Y0087908D01*
X0522735Y0087959D01*
X0522679Y0088007D01*
X0522620Y0088052D01*
X0522559Y0088094D01*
X0522496Y0088133D01*
X0522430Y0088169D01*
X0522363Y0088200D01*
X0522295Y0088229D01*
X0522225Y0088254D01*
X0522154Y0088275D01*
X0522082Y0088292D01*
X0522009Y0088306D01*
X0521935Y0088315D01*
X0521861Y0088321D01*
X0521787Y0088323D01*
X0519425Y0088323D01*
X0519425Y0081394D01*
X0519425Y0081315D02*
X0519425Y0077220D01*
X0526039Y0081472D02*
X0526039Y0092654D01*
X0526591Y0088323D02*
X0528402Y0088323D01*
X0528476Y0088321D01*
X0528550Y0088315D01*
X0528624Y0088306D01*
X0528697Y0088292D01*
X0528769Y0088275D01*
X0528840Y0088254D01*
X0528910Y0088229D01*
X0528978Y0088200D01*
X0529045Y0088169D01*
X0529111Y0088133D01*
X0529174Y0088094D01*
X0529235Y0088052D01*
X0529294Y0088007D01*
X0529350Y0087959D01*
X0529404Y0087908D01*
X0529455Y0087854D01*
X0529503Y0087798D01*
X0529548Y0087739D01*
X0529590Y0087678D01*
X0529629Y0087615D01*
X0529665Y0087549D01*
X0529696Y0087482D01*
X0529725Y0087414D01*
X0529750Y0087344D01*
X0529771Y0087273D01*
X0529788Y0087201D01*
X0529802Y0087128D01*
X0529811Y0087054D01*
X0529817Y0086980D01*
X0529819Y0086906D01*
X0529898Y0081394D01*
X0534228Y0081472D02*
X0531630Y0089031D01*
X0536669Y0089031D02*
X0533362Y0078402D01*
X0533283Y0078244D02*
X0532732Y0077457D01*
X0532024Y0077299D01*
X0531630Y0077299D01*
X0538480Y0081787D02*
X0538480Y0081945D01*
X0538480Y0081787D02*
X0538638Y0081551D01*
X0539031Y0081315D01*
X0539346Y0081157D01*
X0539425Y0081157D02*
X0540370Y0081157D01*
X0540370Y0081158D02*
X0540444Y0081160D01*
X0540518Y0081166D01*
X0540592Y0081175D01*
X0540665Y0081189D01*
X0540737Y0081206D01*
X0540808Y0081227D01*
X0540878Y0081252D01*
X0540946Y0081281D01*
X0541013Y0081312D01*
X0541079Y0081348D01*
X0541142Y0081387D01*
X0541203Y0081429D01*
X0541262Y0081474D01*
X0541318Y0081522D01*
X0541372Y0081573D01*
X0541423Y0081627D01*
X0541471Y0081683D01*
X0541516Y0081742D01*
X0541558Y0081803D01*
X0541597Y0081867D01*
X0541633Y0081932D01*
X0541664Y0081999D01*
X0541693Y0082067D01*
X0541718Y0082137D01*
X0541739Y0082208D01*
X0541756Y0082280D01*
X0541770Y0082353D01*
X0541779Y0082427D01*
X0541785Y0082501D01*
X0541787Y0082575D01*
X0541787Y0082654D02*
X0541787Y0083047D01*
X0541709Y0083441D01*
X0541000Y0084150D01*
X0539740Y0085094D01*
X0539976Y0084937D02*
X0538717Y0085882D01*
X0538402Y0086354D01*
X0538323Y0086748D01*
X0538323Y0087142D01*
X0538323Y0087220D02*
X0538325Y0087294D01*
X0538331Y0087368D01*
X0538340Y0087442D01*
X0538354Y0087515D01*
X0538371Y0087587D01*
X0538392Y0087658D01*
X0538417Y0087728D01*
X0538446Y0087796D01*
X0538477Y0087863D01*
X0538513Y0087929D01*
X0538552Y0087992D01*
X0538594Y0088053D01*
X0538639Y0088112D01*
X0538687Y0088168D01*
X0538738Y0088222D01*
X0538792Y0088273D01*
X0538848Y0088321D01*
X0538907Y0088366D01*
X0538968Y0088408D01*
X0539032Y0088447D01*
X0539097Y0088483D01*
X0539164Y0088514D01*
X0539232Y0088543D01*
X0539302Y0088568D01*
X0539373Y0088589D01*
X0539445Y0088606D01*
X0539518Y0088620D01*
X0539592Y0088629D01*
X0539666Y0088635D01*
X0539740Y0088637D01*
X0539740Y0088638D02*
X0540685Y0088638D01*
X0540764Y0088638D02*
X0541079Y0088480D01*
X0541472Y0088244D01*
X0541630Y0088008D01*
X0541630Y0087850D01*
X0490843Y0081315D02*
X0490843Y0077220D01*
X0486591Y0081394D02*
X0486118Y0081394D01*
X0485882Y0081394D02*
X0485808Y0081396D01*
X0485734Y0081402D01*
X0485660Y0081411D01*
X0485587Y0081425D01*
X0485515Y0081442D01*
X0485444Y0081463D01*
X0485374Y0081488D01*
X0485306Y0081517D01*
X0485239Y0081548D01*
X0485174Y0081584D01*
X0485110Y0081623D01*
X0485049Y0081665D01*
X0484990Y0081710D01*
X0484934Y0081758D01*
X0484880Y0081809D01*
X0484829Y0081863D01*
X0484781Y0081919D01*
X0484736Y0081978D01*
X0484694Y0082039D01*
X0484655Y0082103D01*
X0484619Y0082168D01*
X0484588Y0082235D01*
X0484559Y0082303D01*
X0484534Y0082373D01*
X0484513Y0082444D01*
X0484496Y0082516D01*
X0484482Y0082589D01*
X0484473Y0082663D01*
X0484467Y0082737D01*
X0484465Y0082811D01*
X0484465Y0086906D01*
X0484467Y0086980D01*
X0484473Y0087054D01*
X0484482Y0087128D01*
X0484496Y0087201D01*
X0484513Y0087273D01*
X0484534Y0087344D01*
X0484559Y0087414D01*
X0484588Y0087482D01*
X0484619Y0087549D01*
X0484655Y0087615D01*
X0484694Y0087678D01*
X0484736Y0087739D01*
X0484781Y0087798D01*
X0484829Y0087854D01*
X0484880Y0087908D01*
X0484934Y0087959D01*
X0484990Y0088007D01*
X0485049Y0088052D01*
X0485110Y0088094D01*
X0485174Y0088133D01*
X0485239Y0088169D01*
X0485306Y0088200D01*
X0485374Y0088229D01*
X0485444Y0088254D01*
X0485515Y0088275D01*
X0485587Y0088292D01*
X0485660Y0088306D01*
X0485734Y0088315D01*
X0485808Y0088321D01*
X0485882Y0088323D01*
X0486000Y0088323D02*
X0486827Y0088323D01*
X0486787Y0088323D02*
X0486861Y0088321D01*
X0486935Y0088315D01*
X0487009Y0088306D01*
X0487082Y0088292D01*
X0487154Y0088275D01*
X0487225Y0088254D01*
X0487295Y0088229D01*
X0487363Y0088200D01*
X0487430Y0088169D01*
X0487496Y0088133D01*
X0487559Y0088094D01*
X0487620Y0088052D01*
X0487679Y0088007D01*
X0487735Y0087959D01*
X0487789Y0087908D01*
X0487840Y0087854D01*
X0487888Y0087798D01*
X0487933Y0087739D01*
X0487975Y0087678D01*
X0488014Y0087615D01*
X0488050Y0087549D01*
X0488081Y0087482D01*
X0488110Y0087414D01*
X0488135Y0087344D01*
X0488156Y0087273D01*
X0488173Y0087201D01*
X0488187Y0087128D01*
X0488196Y0087054D01*
X0488202Y0086980D01*
X0488204Y0086906D01*
X0488205Y0086906D02*
X0488205Y0082811D01*
X0488204Y0082811D02*
X0488202Y0082737D01*
X0488196Y0082663D01*
X0488187Y0082589D01*
X0488173Y0082516D01*
X0488156Y0082444D01*
X0488135Y0082373D01*
X0488110Y0082303D01*
X0488081Y0082235D01*
X0488050Y0082168D01*
X0488014Y0082103D01*
X0487975Y0082039D01*
X0487933Y0081978D01*
X0487888Y0081919D01*
X0487840Y0081863D01*
X0487789Y0081809D01*
X0487735Y0081758D01*
X0487679Y0081710D01*
X0487620Y0081665D01*
X0487559Y0081623D01*
X0487496Y0081584D01*
X0487430Y0081548D01*
X0487363Y0081517D01*
X0487295Y0081488D01*
X0487225Y0081463D01*
X0487154Y0081442D01*
X0487082Y0081425D01*
X0487009Y0081411D01*
X0486935Y0081402D01*
X0486861Y0081396D01*
X0486787Y0081394D01*
D28*
X0252181Y0124228D03*
X0248638Y0124228D03*
X0248638Y0127772D03*
X0252181Y0127772D03*
X0250213Y0131315D03*
X0248638Y0134858D03*
X0252181Y0134858D03*
X0252181Y0138402D03*
X0248638Y0138402D03*
X0234124Y0200850D03*
X0234124Y0205575D03*
X0230581Y0205181D03*
X0237667Y0204394D03*
X0241604Y0202031D03*
X0243104Y0204531D03*
X0241604Y0206781D03*
X0244604Y0206781D03*
X0246104Y0204531D03*
X0244604Y0202031D03*
X0252604Y0206281D03*
X0254854Y0207781D03*
X0255104Y0211781D03*
X0253354Y0217281D03*
X0250854Y0217281D03*
X0248354Y0217281D03*
X0239704Y0216931D03*
X0237356Y0220626D03*
X0237356Y0224563D03*
X0244049Y0224563D03*
X0240062Y0234189D03*
X0262947Y0235193D03*
X0267278Y0230862D03*
X0284567Y0222531D03*
X0284705Y0217392D03*
X0288136Y0217600D03*
X0291173Y0217785D03*
X0297354Y0218531D03*
X0299854Y0218531D03*
X0299854Y0222531D03*
X0289677Y0224006D03*
X0301394Y0237614D03*
X0237274Y0212268D03*
X0232549Y0210299D03*
X0257787Y0204764D03*
X0264354Y0202031D03*
X0270854Y0202031D03*
X0274104Y0201281D03*
X0277854Y0201281D03*
X0281354Y0202031D03*
X0284486Y0202335D03*
X0287354Y0201031D03*
X0286303Y0207232D03*
X0289053Y0207232D03*
X0291752Y0207232D03*
X0297354Y0207656D03*
X0299854Y0207656D03*
D29*
X0307693Y0186433D02*
X0307693Y0247457D01*
X0303756Y0251394D01*
X0291945Y0251394D01*
X0287354Y0246803D01*
X0287354Y0243031D01*
X0307693Y0186433D02*
X0292929Y0171669D01*
X0288402Y0171669D01*
X0233874Y0171669D01*
X0213205Y0151000D01*
X0213205Y0101787D01*
X0204740Y0093323D01*
X0203047Y0093323D01*
D30*
X0143047Y0093323D02*
X0105724Y0130646D01*
X0105724Y0231866D01*
X0156748Y0282890D01*
X0158283Y0274425D02*
X0166748Y0282890D01*
X0176748Y0282890D02*
X0165528Y0271669D01*
X0158283Y0271669D01*
X0112811Y0226197D01*
X0112811Y0143559D01*
X0143047Y0113323D01*
X0143047Y0103323D02*
X0109268Y0137102D01*
X0109268Y0228953D01*
X0154740Y0274425D01*
X0158283Y0274425D01*
X0161433Y0268913D02*
X0172772Y0268913D01*
X0186748Y0282890D01*
X0196748Y0282890D02*
X0178539Y0264681D01*
X0163500Y0264681D01*
X0119898Y0221079D01*
X0119898Y0156472D01*
X0143047Y0133323D01*
X0143047Y0143323D02*
X0123441Y0162929D01*
X0123441Y0218717D01*
X0165469Y0260744D01*
X0184602Y0260744D01*
X0206748Y0282890D01*
X0216748Y0282890D02*
X0190665Y0256807D01*
X0167831Y0256807D01*
X0126984Y0215961D01*
X0126984Y0169386D01*
X0143047Y0153323D01*
X0143047Y0163323D02*
X0130528Y0175843D01*
X0130528Y0213205D01*
X0169701Y0252378D01*
X0196236Y0252378D01*
X0226748Y0282890D01*
X0236748Y0282890D02*
X0236827Y0282811D01*
X0201965Y0247949D01*
X0171571Y0247949D01*
X0134071Y0210449D01*
X0134071Y0182299D01*
X0143047Y0173323D01*
X0143047Y0183323D02*
X0137614Y0188756D01*
X0137614Y0207299D01*
X0173835Y0243520D01*
X0207378Y0243520D01*
X0246748Y0282890D01*
X0251124Y0248071D02*
X0242031Y0248071D01*
X0242035Y0235022D01*
X0242046Y0235011D01*
X0242046Y0233367D01*
X0242036Y0233357D01*
X0242039Y0220520D01*
X0245730Y0216083D01*
X0253975Y0216083D01*
X0253979Y0219406D01*
X0252785Y0219378D01*
X0252758Y0219350D01*
X0250951Y0219350D01*
X0249673Y0220628D01*
X0249673Y0222435D01*
X0250951Y0223713D01*
X0251124Y0223713D01*
X0251124Y0248071D01*
X0251124Y0247496D02*
X0242032Y0247496D01*
X0242032Y0246710D02*
X0251124Y0246710D01*
X0251124Y0245924D02*
X0242032Y0245924D01*
X0242032Y0245138D02*
X0251124Y0245138D01*
X0251124Y0244352D02*
X0242033Y0244352D01*
X0242033Y0243567D02*
X0251124Y0243567D01*
X0251124Y0242781D02*
X0242033Y0242781D01*
X0242033Y0241995D02*
X0251124Y0241995D01*
X0251124Y0241209D02*
X0242033Y0241209D01*
X0242034Y0240423D02*
X0251124Y0240423D01*
X0251124Y0239637D02*
X0242034Y0239637D01*
X0242034Y0238851D02*
X0251124Y0238851D01*
X0251124Y0238065D02*
X0242034Y0238065D01*
X0242035Y0237279D02*
X0251124Y0237279D01*
X0251124Y0236493D02*
X0242035Y0236493D01*
X0242035Y0235707D02*
X0251124Y0235707D01*
X0251124Y0234921D02*
X0242046Y0234921D01*
X0242046Y0234136D02*
X0251124Y0234136D01*
X0251124Y0233350D02*
X0242036Y0233350D01*
X0242036Y0232564D02*
X0251124Y0232564D01*
X0251124Y0231778D02*
X0242036Y0231778D01*
X0242036Y0230992D02*
X0251124Y0230992D01*
X0251124Y0230206D02*
X0242037Y0230206D01*
X0242037Y0229420D02*
X0251124Y0229420D01*
X0251124Y0228634D02*
X0242037Y0228634D01*
X0242037Y0227848D02*
X0251124Y0227848D01*
X0251124Y0227062D02*
X0242037Y0227062D01*
X0242038Y0226276D02*
X0242957Y0226276D01*
X0243227Y0226547D02*
X0242065Y0225385D01*
X0242065Y0223741D01*
X0243227Y0222579D01*
X0244871Y0222579D01*
X0246033Y0223741D01*
X0246033Y0225385D01*
X0244871Y0226547D01*
X0243227Y0226547D01*
X0242171Y0225491D02*
X0242038Y0225491D01*
X0242038Y0224705D02*
X0242065Y0224705D01*
X0242038Y0223919D02*
X0242065Y0223919D01*
X0242039Y0223133D02*
X0242673Y0223133D01*
X0242039Y0222347D02*
X0249673Y0222347D01*
X0249673Y0221561D02*
X0242039Y0221561D01*
X0242039Y0220775D02*
X0249673Y0220775D01*
X0250312Y0219989D02*
X0242481Y0219989D01*
X0243134Y0219203D02*
X0253979Y0219203D01*
X0253978Y0218417D02*
X0243788Y0218417D01*
X0244442Y0217631D02*
X0253977Y0217631D01*
X0253976Y0216845D02*
X0245096Y0216845D01*
X0250469Y0214695D02*
X0253974Y0214695D01*
X0254548Y0214695D01*
X0254549Y0214695D01*
X0254550Y0214695D01*
X0254958Y0215103D01*
X0255362Y0215506D01*
X0255362Y0215507D01*
X0255363Y0215508D01*
X0255363Y0216078D01*
X0255366Y0218851D01*
X0255380Y0218866D01*
X0255367Y0219422D01*
X0255367Y0219980D01*
X0255353Y0219994D01*
X0255352Y0220015D01*
X0254949Y0220399D01*
X0254556Y0220793D01*
X0254535Y0220793D01*
X0254520Y0220807D01*
X0254343Y0220803D01*
X0254343Y0220878D01*
X0254035Y0220913D01*
X0254035Y0222435D01*
X0252758Y0223713D01*
X0252511Y0223713D01*
X0252511Y0247825D01*
X0262217Y0248071D01*
X0262217Y0237177D01*
X0262125Y0237177D01*
X0260963Y0236015D01*
X0260963Y0234371D01*
X0262125Y0233209D01*
X0262217Y0233209D01*
X0262217Y0223465D01*
X0260240Y0221488D01*
X0260240Y0210169D01*
X0254343Y0204764D01*
X0250469Y0204764D01*
X0250469Y0214695D01*
X0250469Y0214488D02*
X0260240Y0214488D01*
X0260240Y0215274D02*
X0255129Y0215274D01*
X0255363Y0216060D02*
X0260240Y0216060D01*
X0260240Y0216845D02*
X0255364Y0216845D01*
X0255365Y0217631D02*
X0260240Y0217631D01*
X0260240Y0218417D02*
X0255366Y0218417D01*
X0255372Y0219203D02*
X0260240Y0219203D01*
X0260240Y0219989D02*
X0255358Y0219989D01*
X0254574Y0220775D02*
X0260240Y0220775D01*
X0260313Y0221561D02*
X0254035Y0221561D01*
X0254035Y0222347D02*
X0261099Y0222347D01*
X0261885Y0223133D02*
X0253338Y0223133D01*
X0252511Y0223919D02*
X0262217Y0223919D01*
X0262217Y0224705D02*
X0252511Y0224705D01*
X0252511Y0225491D02*
X0262217Y0225491D01*
X0262217Y0226276D02*
X0252511Y0226276D01*
X0252511Y0227062D02*
X0262217Y0227062D01*
X0262217Y0227848D02*
X0252511Y0227848D01*
X0252511Y0228634D02*
X0262217Y0228634D01*
X0262217Y0229420D02*
X0252511Y0229420D01*
X0252511Y0230206D02*
X0262217Y0230206D01*
X0262217Y0230992D02*
X0252511Y0230992D01*
X0252511Y0231778D02*
X0262217Y0231778D01*
X0262217Y0232564D02*
X0252511Y0232564D01*
X0252511Y0233350D02*
X0261984Y0233350D01*
X0261198Y0234136D02*
X0252511Y0234136D01*
X0252511Y0234921D02*
X0260963Y0234921D01*
X0260963Y0235707D02*
X0252511Y0235707D01*
X0252511Y0236493D02*
X0261441Y0236493D01*
X0262217Y0237279D02*
X0252511Y0237279D01*
X0252511Y0238065D02*
X0262217Y0238065D01*
X0262217Y0238851D02*
X0252511Y0238851D01*
X0252511Y0239637D02*
X0262217Y0239637D01*
X0262217Y0240423D02*
X0252511Y0240423D01*
X0252511Y0241209D02*
X0262217Y0241209D01*
X0262217Y0241995D02*
X0252511Y0241995D01*
X0252511Y0242781D02*
X0262217Y0242781D01*
X0262217Y0243567D02*
X0252511Y0243567D01*
X0252511Y0244352D02*
X0262217Y0244352D01*
X0262217Y0245138D02*
X0252511Y0245138D01*
X0252511Y0245924D02*
X0262217Y0245924D01*
X0262217Y0246710D02*
X0252511Y0246710D01*
X0252511Y0247496D02*
X0262217Y0247496D01*
X0263604Y0247496D02*
X0272551Y0247496D01*
X0272551Y0248071D02*
X0263604Y0248071D01*
X0263618Y0247532D01*
X0263604Y0247517D01*
X0263604Y0237177D01*
X0263769Y0237177D01*
X0264931Y0236015D01*
X0264931Y0234371D01*
X0264624Y0234064D01*
X0266219Y0232610D01*
X0266456Y0232846D01*
X0268099Y0232846D01*
X0269262Y0231684D01*
X0269262Y0230040D01*
X0269155Y0229933D01*
X0277618Y0222217D01*
X0278087Y0222217D01*
X0278669Y0221634D01*
X0278669Y0221258D01*
X0278957Y0220996D01*
X0278957Y0210661D01*
X0285839Y0204764D01*
X0293713Y0204764D01*
X0293713Y0215344D01*
X0285346Y0215344D01*
X0285346Y0215407D01*
X0283883Y0215407D01*
X0282720Y0216570D01*
X0282720Y0218214D01*
X0282727Y0218220D01*
X0282727Y0218420D01*
X0283885Y0219578D01*
X0285346Y0219578D01*
X0285346Y0220547D01*
X0283745Y0220547D01*
X0282583Y0221710D01*
X0282583Y0223353D01*
X0283745Y0224516D01*
X0285346Y0224516D01*
X0285346Y0226909D01*
X0272551Y0237736D01*
X0272551Y0248071D01*
X0272551Y0246710D02*
X0263604Y0246710D01*
X0263604Y0245924D02*
X0272551Y0245924D01*
X0272551Y0245138D02*
X0263604Y0245138D01*
X0263604Y0244352D02*
X0272551Y0244352D01*
X0272551Y0243567D02*
X0263604Y0243567D01*
X0263604Y0242781D02*
X0272551Y0242781D01*
X0272551Y0241995D02*
X0263604Y0241995D01*
X0263604Y0241209D02*
X0272551Y0241209D01*
X0272551Y0240423D02*
X0263604Y0240423D01*
X0263604Y0239637D02*
X0272551Y0239637D01*
X0272551Y0238851D02*
X0263604Y0238851D01*
X0263604Y0238065D02*
X0272551Y0238065D01*
X0273091Y0237279D02*
X0263604Y0237279D01*
X0264453Y0236493D02*
X0274020Y0236493D01*
X0274949Y0235707D02*
X0264931Y0235707D01*
X0264931Y0234921D02*
X0275878Y0234921D01*
X0276806Y0234136D02*
X0264696Y0234136D01*
X0265408Y0233350D02*
X0277735Y0233350D01*
X0278664Y0232564D02*
X0268382Y0232564D01*
X0269168Y0231778D02*
X0279593Y0231778D01*
X0280522Y0230992D02*
X0269262Y0230992D01*
X0269262Y0230206D02*
X0281451Y0230206D01*
X0282379Y0229420D02*
X0269718Y0229420D01*
X0270580Y0228634D02*
X0283308Y0228634D01*
X0284237Y0227848D02*
X0271442Y0227848D01*
X0272304Y0227062D02*
X0285166Y0227062D01*
X0285346Y0226276D02*
X0273166Y0226276D01*
X0274027Y0225491D02*
X0285346Y0225491D01*
X0285346Y0224705D02*
X0274889Y0224705D01*
X0275751Y0223919D02*
X0283148Y0223919D01*
X0282583Y0223133D02*
X0276613Y0223133D01*
X0277475Y0222347D02*
X0282583Y0222347D01*
X0282731Y0221561D02*
X0278669Y0221561D01*
X0278957Y0220775D02*
X0283517Y0220775D01*
X0283510Y0219203D02*
X0278957Y0219203D01*
X0278957Y0218417D02*
X0282727Y0218417D01*
X0282720Y0217631D02*
X0278957Y0217631D01*
X0278957Y0216845D02*
X0282720Y0216845D01*
X0283231Y0216060D02*
X0278957Y0216060D01*
X0278957Y0215274D02*
X0293713Y0215274D01*
X0293713Y0214488D02*
X0278957Y0214488D01*
X0278957Y0213702D02*
X0293713Y0213702D01*
X0293713Y0212916D02*
X0278957Y0212916D01*
X0278957Y0212130D02*
X0293713Y0212130D01*
X0293713Y0211344D02*
X0278957Y0211344D01*
X0279077Y0210558D02*
X0293713Y0210558D01*
X0293713Y0209772D02*
X0279994Y0209772D01*
X0280911Y0208986D02*
X0293713Y0208986D01*
X0293713Y0208200D02*
X0281828Y0208200D01*
X0282745Y0207415D02*
X0293713Y0207415D01*
X0293713Y0206629D02*
X0283663Y0206629D01*
X0284580Y0205843D02*
X0293713Y0205843D01*
X0293713Y0205057D02*
X0285497Y0205057D01*
X0287354Y0201031D02*
X0287354Y0193031D01*
X0267535Y0192850D02*
X0267535Y0186827D01*
X0258283Y0177575D01*
X0222260Y0177575D01*
X0211236Y0188598D01*
X0157772Y0188598D01*
X0143047Y0203323D01*
X0158283Y0195685D02*
X0170685Y0208087D01*
X0205331Y0208087D01*
X0225016Y0188402D01*
X0232890Y0188402D01*
X0237354Y0192866D01*
X0237354Y0193031D01*
X0247457Y0193134D02*
X0247457Y0189189D01*
X0240764Y0182496D01*
X0223874Y0182496D01*
X0203047Y0203323D01*
X0245425Y0223133D02*
X0250371Y0223133D01*
X0251124Y0223919D02*
X0246033Y0223919D01*
X0246033Y0224705D02*
X0251124Y0224705D01*
X0251124Y0225491D02*
X0245928Y0225491D01*
X0245142Y0226276D02*
X0251124Y0226276D01*
X0250469Y0213702D02*
X0260240Y0213702D01*
X0260240Y0212916D02*
X0250469Y0212916D01*
X0250469Y0212130D02*
X0260240Y0212130D01*
X0260240Y0211344D02*
X0250469Y0211344D01*
X0250469Y0210558D02*
X0260240Y0210558D01*
X0259807Y0209772D02*
X0250469Y0209772D01*
X0250469Y0208986D02*
X0258950Y0208986D01*
X0258092Y0208200D02*
X0250469Y0208200D01*
X0250469Y0207415D02*
X0257235Y0207415D01*
X0256377Y0206629D02*
X0250469Y0206629D01*
X0250469Y0205843D02*
X0255520Y0205843D01*
X0254662Y0205057D02*
X0250469Y0205057D01*
X0267354Y0193031D02*
X0267535Y0192850D01*
X0286734Y0216732D02*
X0286734Y0226401D01*
X0286777Y0226452D01*
X0286734Y0226967D01*
X0286734Y0227484D01*
X0286687Y0227531D01*
X0286681Y0227597D01*
X0286287Y0227931D01*
X0285921Y0228297D01*
X0285855Y0228297D01*
X0273939Y0238380D01*
X0273939Y0248071D01*
X0282394Y0248071D01*
X0282394Y0241919D01*
X0284840Y0239898D01*
X0285700Y0239038D01*
X0285881Y0239038D01*
X0293728Y0232553D01*
X0293728Y0216732D01*
X0286734Y0216732D01*
X0286734Y0216845D02*
X0293728Y0216845D01*
X0293728Y0217631D02*
X0286734Y0217631D01*
X0286734Y0218417D02*
X0293728Y0218417D01*
X0293728Y0219203D02*
X0286734Y0219203D01*
X0286734Y0219989D02*
X0293728Y0219989D01*
X0293728Y0220775D02*
X0286734Y0220775D01*
X0286734Y0221561D02*
X0293728Y0221561D01*
X0293728Y0222347D02*
X0290824Y0222347D01*
X0290499Y0222022D02*
X0291661Y0223184D01*
X0291661Y0224828D01*
X0290499Y0225990D01*
X0288855Y0225990D01*
X0287693Y0224828D01*
X0287693Y0223184D01*
X0288855Y0222022D01*
X0290499Y0222022D01*
X0291610Y0223133D02*
X0293728Y0223133D01*
X0293728Y0223919D02*
X0291661Y0223919D01*
X0291661Y0224705D02*
X0293728Y0224705D01*
X0293728Y0225491D02*
X0290999Y0225491D01*
X0288356Y0225491D02*
X0286734Y0225491D01*
X0286734Y0226276D02*
X0293728Y0226276D01*
X0293728Y0227062D02*
X0286734Y0227062D01*
X0286385Y0227848D02*
X0293728Y0227848D01*
X0293728Y0228634D02*
X0285456Y0228634D01*
X0284527Y0229420D02*
X0293728Y0229420D01*
X0293728Y0230206D02*
X0283598Y0230206D01*
X0282670Y0230992D02*
X0293728Y0230992D01*
X0293728Y0231778D02*
X0281741Y0231778D01*
X0280812Y0232564D02*
X0293716Y0232564D01*
X0292764Y0233350D02*
X0279883Y0233350D01*
X0278954Y0234136D02*
X0291813Y0234136D01*
X0290862Y0234921D02*
X0278026Y0234921D01*
X0277097Y0235707D02*
X0289911Y0235707D01*
X0288960Y0236493D02*
X0276168Y0236493D01*
X0275239Y0237279D02*
X0288009Y0237279D01*
X0287058Y0238065D02*
X0274310Y0238065D01*
X0273939Y0238851D02*
X0286107Y0238851D01*
X0285101Y0239637D02*
X0273939Y0239637D01*
X0273939Y0240423D02*
X0284205Y0240423D01*
X0283254Y0241209D02*
X0273939Y0241209D01*
X0273939Y0241995D02*
X0282394Y0241995D01*
X0282394Y0242781D02*
X0273939Y0242781D01*
X0273939Y0243567D02*
X0282394Y0243567D01*
X0282394Y0244352D02*
X0273939Y0244352D01*
X0273939Y0245138D02*
X0282394Y0245138D01*
X0282394Y0245924D02*
X0273939Y0245924D01*
X0273939Y0246710D02*
X0282394Y0246710D01*
X0282394Y0247496D02*
X0273939Y0247496D01*
X0286734Y0224705D02*
X0287693Y0224705D01*
X0287693Y0223919D02*
X0286734Y0223919D01*
X0286734Y0223133D02*
X0287744Y0223133D01*
X0288530Y0222347D02*
X0286734Y0222347D01*
X0285346Y0219989D02*
X0278957Y0219989D01*
X0349031Y0208087D02*
X0349031Y0186827D01*
X0378559Y0186827D01*
X0378559Y0208087D01*
X0349031Y0208087D01*
X0349031Y0207415D02*
X0378559Y0207415D01*
X0378559Y0206629D02*
X0349031Y0206629D01*
X0349031Y0205843D02*
X0378559Y0205843D01*
X0378559Y0205057D02*
X0349031Y0205057D01*
X0349031Y0204271D02*
X0378559Y0204271D01*
X0378559Y0203485D02*
X0349031Y0203485D01*
X0349031Y0202699D02*
X0378559Y0202699D01*
X0378559Y0201913D02*
X0349031Y0201913D01*
X0349031Y0201127D02*
X0378559Y0201127D01*
X0378559Y0200341D02*
X0349031Y0200341D01*
X0349031Y0199555D02*
X0378559Y0199555D01*
X0378559Y0198769D02*
X0349031Y0198769D01*
X0349031Y0197984D02*
X0378559Y0197984D01*
X0378559Y0197198D02*
X0349031Y0197198D01*
X0349031Y0196412D02*
X0378559Y0196412D01*
X0378559Y0195626D02*
X0349031Y0195626D01*
X0349031Y0194840D02*
X0378559Y0194840D01*
X0378559Y0194054D02*
X0349031Y0194054D01*
X0349031Y0193268D02*
X0378559Y0193268D01*
X0378559Y0192482D02*
X0349031Y0192482D01*
X0349031Y0191696D02*
X0378559Y0191696D01*
X0378559Y0190910D02*
X0349031Y0190910D01*
X0349031Y0190124D02*
X0378559Y0190124D01*
X0378559Y0189339D02*
X0349031Y0189339D01*
X0349031Y0188553D02*
X0378559Y0188553D01*
X0378559Y0187767D02*
X0349031Y0187767D01*
X0349031Y0186981D02*
X0378559Y0186981D01*
X0431709Y0186981D02*
X0475016Y0186981D01*
X0475016Y0187767D02*
X0431709Y0187767D01*
X0431709Y0188553D02*
X0475016Y0188553D01*
X0475016Y0189339D02*
X0431709Y0189339D01*
X0431709Y0190124D02*
X0475016Y0190124D01*
X0475016Y0190910D02*
X0431709Y0190910D01*
X0431709Y0191696D02*
X0475016Y0191696D01*
X0475016Y0192482D02*
X0431709Y0192482D01*
X0431709Y0193268D02*
X0475016Y0193268D01*
X0475016Y0194054D02*
X0431709Y0194054D01*
X0431709Y0194840D02*
X0475016Y0194840D01*
X0475016Y0195626D02*
X0431709Y0195626D01*
X0431709Y0196412D02*
X0475016Y0196412D01*
X0475016Y0197198D02*
X0431709Y0197198D01*
X0431709Y0197984D02*
X0475016Y0197984D01*
X0475016Y0198769D02*
X0431709Y0198769D01*
X0431709Y0199555D02*
X0475016Y0199555D01*
X0475016Y0200341D02*
X0431709Y0200341D01*
X0431709Y0201127D02*
X0475016Y0201127D01*
X0475016Y0201913D02*
X0431709Y0201913D01*
X0431709Y0202699D02*
X0475016Y0202699D01*
X0475016Y0203485D02*
X0431709Y0203485D01*
X0431709Y0204271D02*
X0475016Y0204271D01*
X0475016Y0205057D02*
X0431709Y0205057D01*
X0431709Y0205843D02*
X0475016Y0205843D01*
X0475016Y0206629D02*
X0431709Y0206629D01*
X0431709Y0207415D02*
X0475016Y0207415D01*
X0475016Y0208200D02*
X0431709Y0208200D01*
X0431709Y0208986D02*
X0475016Y0208986D01*
X0475016Y0209772D02*
X0431709Y0209772D01*
X0431709Y0210558D02*
X0475016Y0210558D01*
X0475016Y0211344D02*
X0431709Y0211344D01*
X0431709Y0212130D02*
X0475016Y0212130D01*
X0475016Y0212916D02*
X0431709Y0212916D01*
X0431709Y0213702D02*
X0475016Y0213702D01*
X0475016Y0214488D02*
X0431709Y0214488D01*
X0431709Y0215274D02*
X0475016Y0215274D01*
X0475016Y0216060D02*
X0431709Y0216060D01*
X0431709Y0216845D02*
X0475016Y0216845D01*
X0475016Y0217631D02*
X0431709Y0217631D01*
X0431709Y0218417D02*
X0475016Y0218417D01*
X0475016Y0219203D02*
X0431709Y0219203D01*
X0431709Y0219989D02*
X0475016Y0219989D01*
X0475016Y0220775D02*
X0431709Y0220775D01*
X0431709Y0221561D02*
X0475016Y0221561D01*
X0475016Y0222347D02*
X0431709Y0222347D01*
X0431709Y0223133D02*
X0475016Y0223133D01*
X0475016Y0223919D02*
X0431709Y0223919D01*
X0431709Y0224705D02*
X0475016Y0224705D01*
X0475016Y0225491D02*
X0431709Y0225491D01*
X0431709Y0226276D02*
X0475016Y0226276D01*
X0475016Y0227062D02*
X0431709Y0227062D01*
X0431709Y0227848D02*
X0475016Y0227848D01*
X0475016Y0228634D02*
X0431709Y0228634D01*
X0431709Y0229420D02*
X0475016Y0229420D01*
X0475016Y0230206D02*
X0431709Y0230206D01*
X0431709Y0230992D02*
X0475016Y0230992D01*
X0475016Y0231778D02*
X0431709Y0231778D01*
X0431709Y0232564D02*
X0475016Y0232564D01*
X0475016Y0233350D02*
X0431709Y0233350D01*
X0431709Y0234136D02*
X0475016Y0234136D01*
X0475016Y0234921D02*
X0431709Y0234921D01*
X0431709Y0235707D02*
X0475016Y0235707D01*
X0475016Y0236493D02*
X0431709Y0236493D01*
X0431709Y0237279D02*
X0475016Y0237279D01*
X0475016Y0238065D02*
X0431709Y0238065D01*
X0431709Y0238851D02*
X0475016Y0238851D01*
X0475016Y0239637D02*
X0431709Y0239637D01*
X0431709Y0240423D02*
X0475016Y0240423D01*
X0475016Y0241209D02*
X0431709Y0241209D01*
X0431709Y0241995D02*
X0475016Y0241995D01*
X0475016Y0242781D02*
X0431709Y0242781D01*
X0431709Y0243567D02*
X0475016Y0243567D01*
X0475016Y0244352D02*
X0431709Y0244352D01*
X0431709Y0245138D02*
X0475016Y0245138D01*
X0475016Y0245924D02*
X0431709Y0245924D01*
X0431709Y0246710D02*
X0475016Y0246710D01*
X0475016Y0247496D02*
X0431709Y0247496D01*
X0431709Y0248282D02*
X0475016Y0248282D01*
X0475016Y0249068D02*
X0431709Y0249068D01*
X0431709Y0249854D02*
X0475016Y0249854D01*
X0475016Y0250640D02*
X0431709Y0250640D01*
X0431709Y0251426D02*
X0475016Y0251426D01*
X0475016Y0252212D02*
X0431709Y0252212D01*
X0431709Y0252997D02*
X0475016Y0252997D01*
X0475016Y0253783D02*
X0431709Y0253783D01*
X0431709Y0254569D02*
X0475016Y0254569D01*
X0475016Y0255355D02*
X0431709Y0255355D01*
X0431709Y0256141D02*
X0475016Y0256141D01*
X0475016Y0256927D02*
X0431709Y0256927D01*
X0431709Y0257713D02*
X0475016Y0257713D01*
X0475016Y0258499D02*
X0431709Y0258499D01*
X0431709Y0259285D02*
X0475016Y0259285D01*
X0475016Y0260071D02*
X0431709Y0260071D01*
X0431709Y0260857D02*
X0475016Y0260857D01*
X0475016Y0261643D02*
X0431709Y0261643D01*
X0431709Y0262428D02*
X0475016Y0262428D01*
X0475016Y0263214D02*
X0431709Y0263214D01*
X0431709Y0264000D02*
X0475016Y0264000D01*
X0475016Y0264786D02*
X0431709Y0264786D01*
X0431709Y0265572D02*
X0475016Y0265572D01*
X0475016Y0266358D02*
X0431709Y0266358D01*
X0431709Y0267144D02*
X0475016Y0267144D01*
X0475016Y0267930D02*
X0431709Y0267930D01*
X0431709Y0268716D02*
X0475016Y0268716D01*
X0475016Y0269502D02*
X0431709Y0269502D01*
X0431709Y0270288D02*
X0475016Y0270288D01*
X0475016Y0271073D02*
X0431709Y0271073D01*
X0431709Y0271859D02*
X0475016Y0271859D01*
X0475016Y0272253D02*
X0475016Y0171479D01*
X0475915Y0169308D01*
X0477576Y0167647D01*
X0479747Y0166748D01*
X0757686Y0166748D01*
X0759857Y0167647D01*
X0761518Y0169308D01*
X0761518Y0169308D01*
X0762417Y0171479D01*
X0762417Y0272253D01*
X0761518Y0274424D01*
X0759857Y0276085D01*
X0757686Y0276984D01*
X0755696Y0276984D01*
X0480106Y0276984D01*
X0479747Y0276984D01*
X0477576Y0276085D01*
X0475915Y0274424D01*
X0475915Y0274424D01*
X0475016Y0272253D01*
X0475178Y0272645D02*
X0431709Y0272645D01*
X0431709Y0273431D02*
X0475504Y0273431D01*
X0475829Y0274217D02*
X0431709Y0274217D01*
X0431709Y0275003D02*
X0476494Y0275003D01*
X0477280Y0275789D02*
X0431709Y0275789D01*
X0431709Y0276575D02*
X0478758Y0276575D01*
X0477576Y0276085D02*
X0477576Y0276085D01*
X0479828Y0272715D02*
X0480537Y0273009D01*
X0480921Y0273047D01*
X0756512Y0273047D01*
X0756896Y0273009D01*
X0757605Y0272715D01*
X0758149Y0272172D01*
X0758442Y0271463D01*
X0758480Y0271079D01*
X0758480Y0172654D01*
X0758442Y0172270D01*
X0758149Y0171560D01*
X0757605Y0171017D01*
X0756896Y0170723D01*
X0756512Y0170685D01*
X0480921Y0170685D01*
X0480537Y0170723D01*
X0479828Y0171017D01*
X0479284Y0171560D01*
X0478991Y0172270D01*
X0478953Y0172654D01*
X0478953Y0271079D01*
X0478991Y0271463D01*
X0479284Y0272172D01*
X0479828Y0272715D01*
X0479757Y0272645D02*
X0757676Y0272645D01*
X0758278Y0271859D02*
X0479155Y0271859D01*
X0478953Y0271073D02*
X0758480Y0271073D01*
X0758480Y0270288D02*
X0478953Y0270288D01*
X0478953Y0269502D02*
X0758480Y0269502D01*
X0758480Y0268716D02*
X0478953Y0268716D01*
X0478953Y0267930D02*
X0758480Y0267930D01*
X0758480Y0267144D02*
X0478953Y0267144D01*
X0478953Y0266358D02*
X0758480Y0266358D01*
X0758480Y0265572D02*
X0478953Y0265572D01*
X0478953Y0264786D02*
X0758480Y0264786D01*
X0758480Y0264000D02*
X0478953Y0264000D01*
X0478953Y0263214D02*
X0758480Y0263214D01*
X0758480Y0262428D02*
X0478953Y0262428D01*
X0478953Y0261643D02*
X0758480Y0261643D01*
X0758480Y0260857D02*
X0478953Y0260857D01*
X0478953Y0260071D02*
X0758480Y0260071D01*
X0758480Y0259285D02*
X0478953Y0259285D01*
X0478953Y0258499D02*
X0758480Y0258499D01*
X0758480Y0257713D02*
X0478953Y0257713D01*
X0478953Y0256927D02*
X0758480Y0256927D01*
X0758480Y0256141D02*
X0478953Y0256141D01*
X0478953Y0255355D02*
X0758480Y0255355D01*
X0758480Y0254569D02*
X0478953Y0254569D01*
X0478953Y0253783D02*
X0758480Y0253783D01*
X0758480Y0252997D02*
X0478953Y0252997D01*
X0478953Y0252212D02*
X0758480Y0252212D01*
X0758480Y0251426D02*
X0478953Y0251426D01*
X0478953Y0250640D02*
X0758480Y0250640D01*
X0758480Y0249854D02*
X0478953Y0249854D01*
X0478953Y0249068D02*
X0758480Y0249068D01*
X0758480Y0248282D02*
X0478953Y0248282D01*
X0478953Y0247496D02*
X0758480Y0247496D01*
X0758480Y0246710D02*
X0478953Y0246710D01*
X0478953Y0245924D02*
X0758480Y0245924D01*
X0758480Y0245138D02*
X0478953Y0245138D01*
X0478953Y0244352D02*
X0758480Y0244352D01*
X0758480Y0243567D02*
X0478953Y0243567D01*
X0478953Y0242781D02*
X0758480Y0242781D01*
X0758480Y0241995D02*
X0478953Y0241995D01*
X0478953Y0241209D02*
X0758480Y0241209D01*
X0758480Y0240423D02*
X0478953Y0240423D01*
X0478953Y0239637D02*
X0758480Y0239637D01*
X0758480Y0238851D02*
X0478953Y0238851D01*
X0478953Y0238065D02*
X0758480Y0238065D01*
X0758480Y0237279D02*
X0478953Y0237279D01*
X0478953Y0236493D02*
X0758480Y0236493D01*
X0758480Y0235707D02*
X0478953Y0235707D01*
X0478953Y0234921D02*
X0758480Y0234921D01*
X0758480Y0234136D02*
X0478953Y0234136D01*
X0478953Y0233350D02*
X0758480Y0233350D01*
X0758480Y0232564D02*
X0478953Y0232564D01*
X0478953Y0231778D02*
X0758480Y0231778D01*
X0758480Y0230992D02*
X0478953Y0230992D01*
X0478953Y0230206D02*
X0758480Y0230206D01*
X0758480Y0229420D02*
X0478953Y0229420D01*
X0478953Y0228634D02*
X0758480Y0228634D01*
X0758480Y0227848D02*
X0478953Y0227848D01*
X0478953Y0227062D02*
X0758480Y0227062D01*
X0758480Y0226276D02*
X0478953Y0226276D01*
X0478953Y0225491D02*
X0758480Y0225491D01*
X0758480Y0224705D02*
X0478953Y0224705D01*
X0478953Y0223919D02*
X0758480Y0223919D01*
X0758480Y0223133D02*
X0478953Y0223133D01*
X0478953Y0222347D02*
X0758480Y0222347D01*
X0758480Y0221561D02*
X0478953Y0221561D01*
X0478953Y0220775D02*
X0758480Y0220775D01*
X0758480Y0219989D02*
X0478953Y0219989D01*
X0478953Y0219203D02*
X0758480Y0219203D01*
X0758480Y0218417D02*
X0478953Y0218417D01*
X0478953Y0217631D02*
X0758480Y0217631D01*
X0758480Y0216845D02*
X0478953Y0216845D01*
X0478953Y0216060D02*
X0758480Y0216060D01*
X0758480Y0215274D02*
X0478953Y0215274D01*
X0478953Y0214488D02*
X0758480Y0214488D01*
X0758480Y0213702D02*
X0478953Y0213702D01*
X0478953Y0212916D02*
X0758480Y0212916D01*
X0758480Y0212130D02*
X0478953Y0212130D01*
X0478953Y0211344D02*
X0758480Y0211344D01*
X0758480Y0210558D02*
X0478953Y0210558D01*
X0478953Y0209772D02*
X0758480Y0209772D01*
X0758480Y0208986D02*
X0478953Y0208986D01*
X0478953Y0208200D02*
X0758480Y0208200D01*
X0758480Y0207415D02*
X0478953Y0207415D01*
X0478953Y0206629D02*
X0758480Y0206629D01*
X0758480Y0205843D02*
X0478953Y0205843D01*
X0478953Y0205057D02*
X0758480Y0205057D01*
X0758480Y0204271D02*
X0478953Y0204271D01*
X0478953Y0203485D02*
X0758480Y0203485D01*
X0758480Y0202699D02*
X0478953Y0202699D01*
X0478953Y0201913D02*
X0758480Y0201913D01*
X0758480Y0201127D02*
X0478953Y0201127D01*
X0478953Y0200341D02*
X0758480Y0200341D01*
X0758480Y0199555D02*
X0478953Y0199555D01*
X0478953Y0198769D02*
X0758480Y0198769D01*
X0758480Y0197984D02*
X0478953Y0197984D01*
X0478953Y0197198D02*
X0758480Y0197198D01*
X0758480Y0196412D02*
X0478953Y0196412D01*
X0478953Y0195626D02*
X0758480Y0195626D01*
X0758480Y0194840D02*
X0478953Y0194840D01*
X0478953Y0194054D02*
X0758480Y0194054D01*
X0758480Y0193268D02*
X0478953Y0193268D01*
X0478953Y0192482D02*
X0758480Y0192482D01*
X0758480Y0191696D02*
X0478953Y0191696D01*
X0478953Y0190910D02*
X0758480Y0190910D01*
X0758480Y0190124D02*
X0478953Y0190124D01*
X0478953Y0189339D02*
X0758480Y0189339D01*
X0758480Y0188553D02*
X0478953Y0188553D01*
X0478953Y0187767D02*
X0758480Y0187767D01*
X0758480Y0186981D02*
X0478953Y0186981D01*
X0478953Y0186195D02*
X0758480Y0186195D01*
X0758480Y0185409D02*
X0478953Y0185409D01*
X0478953Y0184623D02*
X0758480Y0184623D01*
X0758480Y0183837D02*
X0478953Y0183837D01*
X0478953Y0183051D02*
X0758480Y0183051D01*
X0758480Y0182265D02*
X0478953Y0182265D01*
X0478953Y0181479D02*
X0758480Y0181479D01*
X0758480Y0180693D02*
X0478953Y0180693D01*
X0478953Y0179908D02*
X0758480Y0179908D01*
X0758480Y0179122D02*
X0478953Y0179122D01*
X0478953Y0178336D02*
X0758480Y0178336D01*
X0758480Y0177550D02*
X0478953Y0177550D01*
X0478953Y0176764D02*
X0758480Y0176764D01*
X0758480Y0175978D02*
X0478953Y0175978D01*
X0478953Y0175192D02*
X0758480Y0175192D01*
X0758480Y0174406D02*
X0478953Y0174406D01*
X0478953Y0173620D02*
X0758480Y0173620D01*
X0758480Y0172834D02*
X0478953Y0172834D01*
X0479082Y0172048D02*
X0758351Y0172048D01*
X0757851Y0171263D02*
X0479582Y0171263D01*
X0477104Y0168119D02*
X0431709Y0168119D01*
X0431709Y0168905D02*
X0476318Y0168905D01*
X0475915Y0169308D02*
X0475915Y0169308D01*
X0475756Y0169691D02*
X0431709Y0169691D01*
X0431709Y0170477D02*
X0475431Y0170477D01*
X0475105Y0171263D02*
X0431709Y0171263D01*
X0431709Y0172048D02*
X0475016Y0172048D01*
X0475016Y0172834D02*
X0431709Y0172834D01*
X0431709Y0173620D02*
X0475016Y0173620D01*
X0475016Y0174406D02*
X0431709Y0174406D01*
X0431709Y0175192D02*
X0475016Y0175192D01*
X0475016Y0175978D02*
X0431709Y0175978D01*
X0431709Y0176764D02*
X0475016Y0176764D01*
X0475016Y0177550D02*
X0431709Y0177550D01*
X0431709Y0178336D02*
X0475016Y0178336D01*
X0475016Y0179122D02*
X0431709Y0179122D01*
X0431709Y0179908D02*
X0475016Y0179908D01*
X0475016Y0180693D02*
X0431709Y0180693D01*
X0431709Y0181479D02*
X0475016Y0181479D01*
X0475016Y0182265D02*
X0431709Y0182265D01*
X0431709Y0183051D02*
X0475016Y0183051D01*
X0475016Y0183837D02*
X0431709Y0183837D01*
X0431709Y0184623D02*
X0475016Y0184623D01*
X0475016Y0185409D02*
X0431709Y0185409D01*
X0431709Y0186195D02*
X0475016Y0186195D01*
X0477576Y0167647D02*
X0477576Y0167647D01*
X0478334Y0167333D02*
X0431709Y0167333D01*
X0431709Y0166547D02*
X0805724Y0166547D01*
X0805724Y0165761D02*
X0431709Y0165761D01*
X0431709Y0164975D02*
X0805724Y0164975D01*
X0805724Y0164189D02*
X0431709Y0164189D01*
X0431709Y0163403D02*
X0805724Y0163403D01*
X0805724Y0162617D02*
X0431709Y0162617D01*
X0431709Y0161832D02*
X0805724Y0161832D01*
X0805724Y0161046D02*
X0431709Y0161046D01*
X0431709Y0160260D02*
X0805724Y0160260D01*
X0805724Y0159474D02*
X0431709Y0159474D01*
X0431709Y0158688D02*
X0805724Y0158688D01*
X0805724Y0157902D02*
X0431709Y0157902D01*
X0431709Y0157116D02*
X0805724Y0157116D01*
X0805724Y0156330D02*
X0431709Y0156330D01*
X0431709Y0155544D02*
X0805724Y0155544D01*
X0805724Y0154758D02*
X0560705Y0154758D01*
X0560314Y0154946D02*
X0554541Y0154946D01*
X0553226Y0153632D01*
X0553226Y0151773D01*
X0554541Y0150459D01*
X0559230Y0150459D01*
X0559288Y0150452D01*
X0559394Y0150402D01*
X0559467Y0150310D01*
X0559493Y0150196D01*
X0559467Y0150082D01*
X0559394Y0149991D01*
X0559288Y0149940D01*
X0559230Y0149933D01*
X0555794Y0149933D01*
X0554480Y0148619D01*
X0554480Y0146760D01*
X0555794Y0145446D01*
X0557674Y0145446D01*
X0558603Y0145446D01*
X0558801Y0145424D01*
X0559158Y0145252D01*
X0559405Y0144942D01*
X0559493Y0144556D01*
X0559405Y0144170D01*
X0559158Y0143861D01*
X0558801Y0143689D01*
X0558603Y0143667D01*
X0554541Y0143667D01*
X0553226Y0142353D01*
X0553226Y0140494D01*
X0554541Y0139180D01*
X0559831Y0139180D01*
X0562042Y0140244D01*
X0563572Y0142163D01*
X0563572Y0142163D01*
X0564118Y0144556D01*
X0564118Y0144556D01*
X0563572Y0146949D01*
X0563572Y0146949D01*
X0563144Y0147486D01*
X0563620Y0148082D01*
X0563620Y0148082D01*
X0564102Y0150196D01*
X0563620Y0152310D01*
X0562268Y0154006D01*
X0560314Y0154946D01*
X0562268Y0154006D02*
X0562268Y0154006D01*
X0562268Y0154006D01*
X0562294Y0153972D02*
X0805724Y0153972D01*
X0805724Y0153187D02*
X0562921Y0153187D01*
X0563548Y0152401D02*
X0805724Y0152401D01*
X0805724Y0151615D02*
X0563779Y0151615D01*
X0563620Y0152310D02*
X0563620Y0152310D01*
X0563958Y0150829D02*
X0805724Y0150829D01*
X0805724Y0150043D02*
X0564067Y0150043D01*
X0564102Y0150196D02*
X0564102Y0150196D01*
X0563888Y0149257D02*
X0805724Y0149257D01*
X0805724Y0148471D02*
X0563709Y0148471D01*
X0563303Y0147685D02*
X0805724Y0147685D01*
X0805724Y0146899D02*
X0563584Y0146899D01*
X0563763Y0146113D02*
X0805724Y0146113D01*
X0805724Y0145327D02*
X0563942Y0145327D01*
X0564115Y0144541D02*
X0805724Y0144541D01*
X0805724Y0143756D02*
X0563936Y0143756D01*
X0563756Y0142970D02*
X0805724Y0142970D01*
X0805724Y0142184D02*
X0563577Y0142184D01*
X0562962Y0141398D02*
X0805724Y0141398D01*
X0805724Y0140612D02*
X0562335Y0140612D01*
X0562042Y0140244D02*
X0562042Y0140244D01*
X0561173Y0139826D02*
X0805724Y0139826D01*
X0805724Y0139040D02*
X0546185Y0139040D01*
X0546107Y0139001D02*
X0547769Y0139832D01*
X0548357Y0141595D01*
X0546416Y0145478D01*
X0547770Y0147177D01*
X0548317Y0149570D01*
X0547770Y0151962D01*
X0547770Y0151962D01*
X0546240Y0153881D01*
X0546240Y0153881D01*
X0544029Y0154946D01*
X0538739Y0154946D01*
X0537685Y0153892D01*
X0536630Y0154946D01*
X0529758Y0154946D01*
X0528815Y0154004D01*
X0527873Y0154946D01*
X0519747Y0154946D01*
X0518433Y0153632D01*
X0518433Y0153504D01*
X0518362Y0153558D01*
X0517460Y0154234D01*
X0515322Y0154946D01*
X0513251Y0154946D01*
X0511505Y0154223D01*
X0511505Y0154223D01*
X0510168Y0152887D01*
X0510083Y0152680D01*
X0510083Y0153632D01*
X0508768Y0154946D01*
X0504403Y0154946D01*
X0503659Y0154202D01*
X0503347Y0154691D01*
X0501533Y0155095D01*
X0499964Y0154097D01*
X0499014Y0149817D01*
X0498775Y0150534D01*
X0498612Y0150615D01*
X0498531Y0150778D01*
X0497801Y0151021D01*
X0497112Y0151365D01*
X0496940Y0151308D01*
X0496768Y0151365D01*
X0496079Y0151021D01*
X0495349Y0150778D01*
X0495268Y0150615D01*
X0495105Y0150534D01*
X0494866Y0149818D01*
X0493916Y0154097D01*
X0492347Y0155095D01*
X0490533Y0154691D01*
X0490417Y0154509D01*
X0489979Y0154946D01*
X0481854Y0154946D01*
X0480539Y0153632D01*
X0480539Y0151773D01*
X0481854Y0150459D01*
X0483673Y0150459D01*
X0483673Y0140494D01*
X0484987Y0139180D01*
X0486846Y0139180D01*
X0488160Y0140494D01*
X0488160Y0150459D01*
X0489979Y0150459D01*
X0490100Y0150580D01*
X0492108Y0141543D01*
X0492011Y0141251D01*
X0492303Y0140667D01*
X0492445Y0140029D01*
X0492705Y0139864D01*
X0492842Y0139589D01*
X0493462Y0139382D01*
X0494013Y0139031D01*
X0494313Y0139098D01*
X0494606Y0139001D01*
X0495190Y0139293D01*
X0495827Y0139435D01*
X0495993Y0139694D01*
X0496268Y0139832D01*
X0496475Y0140452D01*
X0496825Y0141003D01*
X0496759Y0141303D01*
X0496940Y0141848D01*
X0497121Y0141303D01*
X0497055Y0141003D01*
X0497405Y0140452D01*
X0497612Y0139832D01*
X0497887Y0139694D01*
X0498053Y0139435D01*
X0498690Y0139293D01*
X0499274Y0139001D01*
X0499566Y0139098D01*
X0499867Y0139031D01*
X0500418Y0139382D01*
X0501038Y0139589D01*
X0501175Y0139864D01*
X0501435Y0140029D01*
X0501577Y0140667D01*
X0501869Y0141251D01*
X0501772Y0141543D01*
X0503871Y0150991D01*
X0504342Y0150520D01*
X0504342Y0143606D01*
X0503089Y0142353D01*
X0503089Y0140494D01*
X0504403Y0139180D01*
X0508768Y0139180D01*
X0510083Y0140494D01*
X0510083Y0141107D01*
X0510844Y0140339D01*
X0513628Y0139180D01*
X0514206Y0139180D01*
X0514206Y0139180D01*
X0515136Y0139180D01*
X0516408Y0139180D01*
X0518613Y0140452D01*
X0519886Y0142657D01*
X0519886Y0145202D01*
X0518624Y0147410D01*
X0518624Y0147410D01*
X0518624Y0147410D01*
X0518291Y0147606D01*
X0518279Y0147648D01*
X0517496Y0148075D01*
X0516727Y0148528D01*
X0516685Y0148517D01*
X0514075Y0149941D01*
X0514020Y0149984D01*
X0513943Y0150119D01*
X0513933Y0150196D01*
X0513938Y0150247D01*
X0513977Y0150342D01*
X0514049Y0150415D01*
X0514144Y0150454D01*
X0514196Y0150459D01*
X0514589Y0150427D01*
X0515335Y0150179D01*
X0515669Y0149968D01*
X0516413Y0149410D01*
X0518253Y0149673D01*
X0519230Y0150976D01*
X0519747Y0150459D01*
X0521566Y0150459D01*
X0521566Y0140494D01*
X0522881Y0139180D01*
X0524739Y0139180D01*
X0526054Y0140494D01*
X0526054Y0150459D01*
X0527873Y0150459D01*
X0528444Y0151031D01*
X0528444Y0140494D01*
X0529758Y0139180D01*
X0531617Y0139180D01*
X0536630Y0139180D01*
X0537685Y0140234D01*
X0538739Y0139180D01*
X0540598Y0139180D01*
X0541912Y0140494D01*
X0541912Y0144193D01*
X0542041Y0144193D01*
X0544343Y0139589D01*
X0546107Y0139001D01*
X0545989Y0139040D02*
X0499881Y0139040D01*
X0499828Y0139040D02*
X0499392Y0139040D01*
X0499196Y0139040D02*
X0494684Y0139040D01*
X0494488Y0139040D02*
X0494052Y0139040D01*
X0493999Y0139040D02*
X0431709Y0139040D01*
X0431709Y0138254D02*
X0805724Y0138254D01*
X0805724Y0137468D02*
X0431709Y0137468D01*
X0431709Y0136682D02*
X0805724Y0136682D01*
X0805724Y0135896D02*
X0431709Y0135896D01*
X0431709Y0135111D02*
X0805724Y0135111D01*
X0805724Y0134325D02*
X0431709Y0134325D01*
X0431709Y0133539D02*
X0805724Y0133539D01*
X0805724Y0132753D02*
X0431709Y0132753D01*
X0431709Y0131967D02*
X0805724Y0131967D01*
X0805724Y0131181D02*
X0431709Y0131181D01*
X0431709Y0130395D02*
X0805724Y0130395D01*
X0805724Y0129609D02*
X0431709Y0129609D01*
X0431709Y0128823D02*
X0805724Y0128823D01*
X0805724Y0128037D02*
X0431709Y0128037D01*
X0431709Y0127251D02*
X0805724Y0127251D01*
X0805724Y0126466D02*
X0431709Y0126466D01*
X0431709Y0125680D02*
X0805724Y0125680D01*
X0805724Y0124894D02*
X0431709Y0124894D01*
X0431709Y0124108D02*
X0805724Y0124108D01*
X0805724Y0123322D02*
X0431709Y0123322D01*
X0431709Y0122536D02*
X0684282Y0122536D01*
X0685646Y0122752D02*
X0680992Y0122015D01*
X0676794Y0119876D01*
X0673463Y0116544D01*
X0671324Y0112346D01*
X0670587Y0107693D01*
X0670587Y0107693D01*
X0671324Y0103039D01*
X0673463Y0098841D01*
X0676794Y0095510D01*
X0680992Y0093371D01*
X0685646Y0092634D01*
X0690299Y0093371D01*
X0694497Y0095510D01*
X0694497Y0095510D01*
X0697829Y0098841D01*
X0697829Y0098841D01*
X0699968Y0103039D01*
X0699968Y0103039D01*
X0700705Y0107693D01*
X0699968Y0112346D01*
X0699968Y0112346D01*
X0697829Y0116544D01*
X0697829Y0116544D01*
X0694497Y0119876D01*
X0690299Y0122015D01*
X0685646Y0122752D01*
X0685646Y0122752D01*
X0687010Y0122536D02*
X0805724Y0122536D01*
X0805724Y0121750D02*
X0690819Y0121750D01*
X0690299Y0122015D02*
X0690299Y0122015D01*
X0692361Y0120964D02*
X0805724Y0120964D01*
X0805724Y0120178D02*
X0693904Y0120178D01*
X0694497Y0119876D02*
X0694497Y0119876D01*
X0694981Y0119392D02*
X0805724Y0119392D01*
X0805724Y0118606D02*
X0695767Y0118606D01*
X0696553Y0117820D02*
X0805724Y0117820D01*
X0805724Y0117035D02*
X0697339Y0117035D01*
X0697979Y0116249D02*
X0805724Y0116249D01*
X0805724Y0115463D02*
X0698380Y0115463D01*
X0698780Y0114677D02*
X0805724Y0114677D01*
X0805724Y0113891D02*
X0699181Y0113891D01*
X0699581Y0113105D02*
X0805724Y0113105D01*
X0805724Y0112319D02*
X0699972Y0112319D01*
X0700096Y0111533D02*
X0805724Y0111533D01*
X0805724Y0110747D02*
X0700221Y0110747D01*
X0700345Y0109961D02*
X0805724Y0109961D01*
X0805724Y0109175D02*
X0700470Y0109175D01*
X0700594Y0108390D02*
X0805724Y0108390D01*
X0805724Y0107604D02*
X0700691Y0107604D01*
X0700566Y0106818D02*
X0805724Y0106818D01*
X0805724Y0106032D02*
X0700442Y0106032D01*
X0700317Y0105246D02*
X0805724Y0105246D01*
X0805724Y0104460D02*
X0700193Y0104460D01*
X0700068Y0103674D02*
X0805724Y0103674D01*
X0805724Y0102888D02*
X0699891Y0102888D01*
X0699490Y0102102D02*
X0805724Y0102102D01*
X0805724Y0101316D02*
X0699090Y0101316D01*
X0698689Y0100530D02*
X0805724Y0100530D01*
X0805724Y0099744D02*
X0698289Y0099744D01*
X0697888Y0098959D02*
X0805724Y0098959D01*
X0805724Y0098173D02*
X0697160Y0098173D01*
X0696374Y0097387D02*
X0805724Y0097387D01*
X0805724Y0096601D02*
X0695588Y0096601D01*
X0694802Y0095815D02*
X0805724Y0095815D01*
X0805724Y0095029D02*
X0693553Y0095029D01*
X0692011Y0094243D02*
X0805724Y0094243D01*
X0805724Y0093457D02*
X0690468Y0093457D01*
X0689022Y0097302D02*
X0685646Y0096768D01*
X0682270Y0097302D01*
X0679224Y0098854D01*
X0676807Y0101271D01*
X0675255Y0104317D01*
X0674720Y0107693D01*
X0675255Y0111069D01*
X0676807Y0114115D01*
X0679224Y0116532D01*
X0682270Y0118083D01*
X0685646Y0118618D01*
X0689022Y0118083D01*
X0692067Y0116532D01*
X0694484Y0114115D01*
X0696036Y0111069D01*
X0696571Y0107693D01*
X0696036Y0104317D01*
X0694484Y0101271D01*
X0692067Y0098854D01*
X0689022Y0097302D01*
X0689022Y0097302D01*
X0689187Y0097387D02*
X0682104Y0097387D01*
X0680562Y0098173D02*
X0690730Y0098173D01*
X0692172Y0098959D02*
X0679120Y0098959D01*
X0678334Y0099744D02*
X0692958Y0099744D01*
X0693743Y0100530D02*
X0677548Y0100530D01*
X0676784Y0101316D02*
X0694507Y0101316D01*
X0694908Y0102102D02*
X0676384Y0102102D01*
X0675983Y0102888D02*
X0695308Y0102888D01*
X0695709Y0103674D02*
X0675583Y0103674D01*
X0675233Y0104460D02*
X0696059Y0104460D01*
X0696183Y0105246D02*
X0675108Y0105246D01*
X0674984Y0106032D02*
X0696308Y0106032D01*
X0696432Y0106818D02*
X0674859Y0106818D01*
X0674735Y0107604D02*
X0696557Y0107604D01*
X0696461Y0108390D02*
X0674831Y0108390D01*
X0674955Y0109175D02*
X0696336Y0109175D01*
X0696212Y0109961D02*
X0675080Y0109961D01*
X0675204Y0110747D02*
X0696087Y0110747D01*
X0695800Y0111533D02*
X0675492Y0111533D01*
X0675892Y0112319D02*
X0695399Y0112319D01*
X0694999Y0113105D02*
X0676293Y0113105D01*
X0676693Y0113891D02*
X0694598Y0113891D01*
X0693922Y0114677D02*
X0677369Y0114677D01*
X0678155Y0115463D02*
X0693136Y0115463D01*
X0692350Y0116249D02*
X0678941Y0116249D01*
X0680211Y0117035D02*
X0691080Y0117035D01*
X0689538Y0117820D02*
X0681754Y0117820D01*
X0685572Y0118606D02*
X0685720Y0118606D01*
X0680992Y0122015D02*
X0680992Y0122015D01*
X0680472Y0121750D02*
X0431709Y0121750D01*
X0431709Y0120964D02*
X0678930Y0120964D01*
X0677387Y0120178D02*
X0514456Y0120178D01*
X0514497Y0120079D02*
X0514407Y0120299D01*
X0513809Y0120550D01*
X0513274Y0120916D01*
X0513040Y0120872D01*
X0512821Y0120964D01*
X0512221Y0120718D01*
X0511583Y0120599D01*
X0511449Y0120403D01*
X0511229Y0120313D01*
X0510978Y0119715D01*
X0510612Y0119179D01*
X0510656Y0118946D01*
X0510564Y0118726D01*
X0510809Y0118126D01*
X0512474Y0109248D01*
X0504847Y0114696D01*
X0504545Y0115116D01*
X0504402Y0115139D01*
X0504305Y0115245D01*
X0504065Y0115255D01*
X0503869Y0115394D01*
X0503358Y0115309D01*
X0502847Y0115392D01*
X0502730Y0115308D01*
X0502586Y0115314D01*
X0502409Y0115151D01*
X0502172Y0115111D01*
X0501871Y0114690D01*
X0501451Y0114387D01*
X0501428Y0114245D01*
X0491993Y0105536D01*
X0491544Y0105352D01*
X0491406Y0105024D01*
X0491133Y0104795D01*
X0491128Y0104737D01*
X0491086Y0104698D01*
X0491066Y0104213D01*
X0490879Y0103766D01*
X0491013Y0103436D01*
X0490982Y0103082D01*
X0491019Y0103037D01*
X0491017Y0102980D01*
X0491346Y0102623D01*
X0491530Y0102174D01*
X0491858Y0102036D01*
X0492087Y0101763D01*
X0492144Y0101758D01*
X0492184Y0101716D01*
X0492669Y0101696D01*
X0516055Y0091889D01*
X0516115Y0091778D01*
X0516263Y0091734D01*
X0516353Y0091608D01*
X0516745Y0091545D01*
X0517073Y0091320D01*
X0517306Y0091364D01*
X0517526Y0091272D01*
X0517642Y0091320D01*
X0517763Y0091284D01*
X0517898Y0091357D01*
X0518051Y0091332D01*
X0518373Y0091564D01*
X0518763Y0091637D01*
X0518898Y0091834D01*
X0519118Y0091924D01*
X0519166Y0092040D01*
X0519277Y0092099D01*
X0519321Y0092247D01*
X0519447Y0092337D01*
X0519510Y0092729D01*
X0519735Y0093057D01*
X0519691Y0093291D01*
X0519783Y0093510D01*
X0519735Y0093626D01*
X0521708Y0100201D01*
X0521890Y0100354D01*
X0521916Y0100647D01*
X0522087Y0100887D01*
X0522044Y0101144D01*
X0522145Y0101384D01*
X0522097Y0101500D01*
X0522134Y0101621D01*
X0522021Y0101831D01*
X0522042Y0102068D01*
X0521853Y0102293D01*
X0521804Y0102583D01*
X0521592Y0102735D01*
X0514813Y0119307D01*
X0514693Y0119945D01*
X0514497Y0120079D01*
X0514797Y0119392D02*
X0676311Y0119392D01*
X0676794Y0119876D02*
X0676794Y0119876D01*
X0675525Y0118606D02*
X0515099Y0118606D01*
X0515421Y0117820D02*
X0674739Y0117820D01*
X0673953Y0117035D02*
X0515743Y0117035D01*
X0516064Y0116249D02*
X0673312Y0116249D01*
X0673463Y0116544D02*
X0673463Y0116544D01*
X0672912Y0115463D02*
X0516386Y0115463D01*
X0516707Y0114677D02*
X0672511Y0114677D01*
X0672111Y0113891D02*
X0517029Y0113891D01*
X0517350Y0113105D02*
X0671710Y0113105D01*
X0671324Y0112346D02*
X0671324Y0112346D01*
X0671319Y0112319D02*
X0517672Y0112319D01*
X0517993Y0111533D02*
X0671195Y0111533D01*
X0671070Y0110747D02*
X0518315Y0110747D01*
X0518636Y0109961D02*
X0670946Y0109961D01*
X0670821Y0109175D02*
X0518958Y0109175D01*
X0519279Y0108390D02*
X0670697Y0108390D01*
X0670601Y0107604D02*
X0519601Y0107604D01*
X0519922Y0106818D02*
X0670725Y0106818D01*
X0670850Y0106032D02*
X0520244Y0106032D01*
X0520565Y0105246D02*
X0670974Y0105246D01*
X0671099Y0104460D02*
X0520887Y0104460D01*
X0521208Y0103674D02*
X0671223Y0103674D01*
X0671324Y0103039D02*
X0671324Y0103039D01*
X0671401Y0102888D02*
X0521530Y0102888D01*
X0522013Y0102102D02*
X0671801Y0102102D01*
X0672202Y0101316D02*
X0522117Y0101316D01*
X0521906Y0100530D02*
X0672602Y0100530D01*
X0673003Y0099744D02*
X0521571Y0099744D01*
X0521335Y0098959D02*
X0673403Y0098959D01*
X0673463Y0098841D02*
X0673463Y0098841D01*
X0673463Y0098841D01*
X0674131Y0098173D02*
X0521099Y0098173D01*
X0520863Y0097387D02*
X0674917Y0097387D01*
X0675703Y0096601D02*
X0520628Y0096601D01*
X0520392Y0095815D02*
X0676489Y0095815D01*
X0677738Y0095029D02*
X0520156Y0095029D01*
X0519920Y0094243D02*
X0525221Y0094243D01*
X0525334Y0094356D02*
X0524337Y0093359D01*
X0524337Y0088729D01*
X0524071Y0089189D01*
X0524071Y0089189D01*
X0522623Y0090025D01*
X0518720Y0090025D01*
X0517813Y0089118D01*
X0517772Y0089189D01*
X0517772Y0089189D01*
X0516324Y0090025D01*
X0513707Y0090025D01*
X0512260Y0089189D01*
X0511424Y0087741D01*
X0511424Y0081975D01*
X0512260Y0080527D01*
X0513707Y0079691D01*
X0516666Y0079691D01*
X0516804Y0079830D01*
X0517610Y0080295D01*
X0517610Y0080295D01*
X0517610Y0080295D01*
X0517723Y0080490D01*
X0517723Y0076515D01*
X0518720Y0075518D01*
X0520130Y0075518D01*
X0521128Y0076515D01*
X0521128Y0079691D01*
X0522623Y0079691D01*
X0524071Y0080527D01*
X0524071Y0080527D01*
X0524071Y0080527D01*
X0524337Y0080988D01*
X0524337Y0080767D01*
X0525334Y0079770D01*
X0526745Y0079770D01*
X0527742Y0080767D01*
X0527742Y0086620D01*
X0528117Y0086620D01*
X0528117Y0086200D01*
X0528127Y0086190D01*
X0528206Y0080664D01*
X0529217Y0079681D01*
X0530627Y0079702D01*
X0531610Y0080713D01*
X0531563Y0083989D01*
X0532484Y0081310D01*
X0531790Y0079080D01*
X0531736Y0079002D01*
X0530925Y0079002D01*
X0529928Y0078004D01*
X0529928Y0076594D01*
X0530925Y0075597D01*
X0531528Y0075597D01*
X0531705Y0075484D01*
X0532210Y0075597D01*
X0532729Y0075597D01*
X0532877Y0075745D01*
X0533065Y0075787D01*
X0533723Y0075903D01*
X0533747Y0075938D01*
X0533790Y0075948D01*
X0534148Y0076511D01*
X0534570Y0077113D01*
X0534778Y0077223D01*
X0534884Y0077562D01*
X0535082Y0077846D01*
X0535042Y0078072D01*
X0536061Y0081346D01*
X0536067Y0081359D01*
X0536066Y0081363D01*
X0537171Y0084913D01*
X0537462Y0084695D01*
X0537691Y0084351D01*
X0538004Y0084288D01*
X0538151Y0084178D01*
X0538155Y0084156D01*
X0538833Y0083647D01*
X0537775Y0083647D01*
X0536778Y0082650D01*
X0536778Y0081956D01*
X0536673Y0081430D01*
X0536778Y0081272D01*
X0536778Y0081082D01*
X0537074Y0080786D01*
X0537157Y0080454D01*
X0537434Y0080288D01*
X0537612Y0080020D01*
X0537949Y0079953D01*
X0538212Y0079822D01*
X0538566Y0079609D01*
X0538720Y0079455D01*
X0538945Y0079455D01*
X0539216Y0079319D01*
X0539623Y0079455D01*
X0541206Y0079455D01*
X0542654Y0080291D01*
X0543490Y0081739D01*
X0543490Y0082532D01*
X0543595Y0082690D01*
X0543490Y0083216D01*
X0543490Y0083752D01*
X0543411Y0083831D01*
X0543411Y0084146D01*
X0543277Y0084280D01*
X0543240Y0084466D01*
X0542793Y0084764D01*
X0542605Y0084952D01*
X0542586Y0085088D01*
X0542118Y0085439D01*
X0541705Y0085852D01*
X0541567Y0085852D01*
X0541565Y0085854D01*
X0541562Y0085876D01*
X0541199Y0086148D01*
X0542335Y0086148D01*
X0543332Y0087145D01*
X0543332Y0087839D01*
X0543438Y0088365D01*
X0543332Y0088523D01*
X0543332Y0088713D01*
X0543036Y0089009D01*
X0542953Y0089341D01*
X0542677Y0089507D01*
X0542498Y0089775D01*
X0542161Y0089842D01*
X0541898Y0089974D01*
X0541544Y0090187D01*
X0541390Y0090340D01*
X0541166Y0090340D01*
X0540894Y0090476D01*
X0540488Y0090340D01*
X0538904Y0090340D01*
X0538137Y0089897D01*
X0537848Y0090448D01*
X0536502Y0090866D01*
X0535253Y0090211D01*
X0534195Y0086807D01*
X0533011Y0090252D01*
X0531743Y0090871D01*
X0530410Y0090412D01*
X0530004Y0089582D01*
X0529237Y0090025D01*
X0527742Y0090025D01*
X0527742Y0093359D01*
X0526745Y0094356D01*
X0525334Y0094356D01*
X0524435Y0093457D02*
X0519761Y0093457D01*
X0519501Y0092671D02*
X0524337Y0092671D01*
X0524337Y0091885D02*
X0519024Y0091885D01*
X0518222Y0089528D02*
X0517186Y0089528D01*
X0517772Y0089189D02*
X0517772Y0089189D01*
X0516057Y0091885D02*
X0431709Y0091885D01*
X0431709Y0091099D02*
X0524337Y0091099D01*
X0524337Y0090314D02*
X0431709Y0090314D01*
X0431709Y0089528D02*
X0484184Y0089528D01*
X0483598Y0089189D02*
X0483598Y0089189D01*
X0482762Y0087741D01*
X0482762Y0081975D01*
X0483598Y0080527D01*
X0485046Y0079691D01*
X0487623Y0079691D01*
X0489071Y0080527D01*
X0489071Y0080527D01*
X0489071Y0080527D01*
X0489140Y0080647D01*
X0489140Y0076515D01*
X0490137Y0075518D01*
X0491548Y0075518D01*
X0492545Y0076515D01*
X0492545Y0079691D01*
X0494041Y0079691D01*
X0495488Y0080527D01*
X0495488Y0080527D01*
X0495488Y0080527D01*
X0495921Y0081277D01*
X0496354Y0080527D01*
X0497802Y0079691D01*
X0500760Y0079691D01*
X0500899Y0079830D01*
X0501705Y0080295D01*
X0501975Y0080763D01*
X0501975Y0080689D01*
X0502972Y0079691D01*
X0504382Y0079691D01*
X0505380Y0080689D01*
X0505380Y0086620D01*
X0505754Y0086620D01*
X0505754Y0080689D01*
X0506752Y0079691D01*
X0508162Y0079691D01*
X0509159Y0080689D01*
X0509159Y0087741D01*
X0508323Y0089189D01*
X0508323Y0089189D01*
X0506875Y0090025D01*
X0502972Y0090025D01*
X0501975Y0089028D01*
X0501975Y0089002D01*
X0501866Y0089189D01*
X0501866Y0089189D01*
X0500419Y0090025D01*
X0497802Y0090025D01*
X0496354Y0089189D01*
X0495921Y0088440D01*
X0495488Y0089189D01*
X0494041Y0090025D01*
X0490137Y0090025D01*
X0489155Y0089043D01*
X0489071Y0089189D01*
X0489071Y0089189D01*
X0487623Y0090025D01*
X0485046Y0090025D01*
X0483598Y0089189D01*
X0483598Y0089189D01*
X0483340Y0088742D02*
X0431709Y0088742D01*
X0431709Y0087956D02*
X0482886Y0087956D01*
X0482762Y0087170D02*
X0431709Y0087170D01*
X0431709Y0086384D02*
X0482762Y0086384D01*
X0482762Y0085598D02*
X0431709Y0085598D01*
X0431709Y0084812D02*
X0482762Y0084812D01*
X0482762Y0084026D02*
X0431709Y0084026D01*
X0431709Y0083240D02*
X0443185Y0083240D01*
X0443764Y0083480D02*
X0440870Y0082282D01*
X0438655Y0080067D01*
X0437457Y0077173D01*
X0437457Y0074040D01*
X0438655Y0071146D01*
X0440870Y0068931D01*
X0443764Y0067732D01*
X0446897Y0067732D01*
X0449791Y0068931D01*
X0452006Y0071146D01*
X0453205Y0074040D01*
X0453205Y0077173D01*
X0452006Y0080067D01*
X0449791Y0082282D01*
X0446897Y0083480D01*
X0443764Y0083480D01*
X0441288Y0082454D02*
X0431709Y0082454D01*
X0431709Y0081668D02*
X0440257Y0081668D01*
X0439471Y0080883D02*
X0431709Y0080883D01*
X0431709Y0080097D02*
X0438686Y0080097D01*
X0438342Y0079311D02*
X0431709Y0079311D01*
X0431709Y0078525D02*
X0438017Y0078525D01*
X0437691Y0077739D02*
X0431709Y0077739D01*
X0431709Y0076953D02*
X0437457Y0076953D01*
X0437457Y0076167D02*
X0431709Y0076167D01*
X0431709Y0075381D02*
X0437457Y0075381D01*
X0437457Y0074595D02*
X0431709Y0074595D01*
X0431709Y0073809D02*
X0437552Y0073809D01*
X0437878Y0073023D02*
X0431709Y0073023D01*
X0431709Y0072238D02*
X0438203Y0072238D01*
X0438529Y0071452D02*
X0431709Y0071452D01*
X0431709Y0070666D02*
X0439136Y0070666D01*
X0439922Y0069880D02*
X0431709Y0069880D01*
X0431709Y0069094D02*
X0440708Y0069094D01*
X0442375Y0068308D02*
X0431709Y0068308D01*
X0431709Y0067522D02*
X0805724Y0067522D01*
X0805724Y0066736D02*
X0431709Y0066736D01*
X0431709Y0065950D02*
X0805724Y0065950D01*
X0805724Y0065164D02*
X0431709Y0065164D01*
X0431709Y0064378D02*
X0805724Y0064378D01*
X0805724Y0063592D02*
X0431709Y0063592D01*
X0431709Y0062807D02*
X0805724Y0062807D01*
X0805724Y0062417D02*
X0431709Y0062417D01*
X0431709Y0324071D01*
X0805724Y0324071D01*
X0805724Y0062417D01*
X0805724Y0068308D02*
X0796082Y0068308D01*
X0794692Y0067732D02*
X0797586Y0068931D01*
X0799801Y0071146D01*
X0801000Y0074040D01*
X0801000Y0077173D01*
X0799801Y0080067D01*
X0797586Y0082282D01*
X0794692Y0083480D01*
X0791560Y0083480D01*
X0788666Y0082282D01*
X0786451Y0080067D01*
X0785252Y0077173D01*
X0785252Y0074040D01*
X0786451Y0071146D01*
X0788666Y0068931D01*
X0791560Y0067732D01*
X0794692Y0067732D01*
X0797749Y0069094D02*
X0805724Y0069094D01*
X0805724Y0069880D02*
X0798535Y0069880D01*
X0799321Y0070666D02*
X0805724Y0070666D01*
X0805724Y0071452D02*
X0799928Y0071452D01*
X0800253Y0072238D02*
X0805724Y0072238D01*
X0805724Y0073023D02*
X0800579Y0073023D01*
X0800904Y0073809D02*
X0805724Y0073809D01*
X0805724Y0074595D02*
X0801000Y0074595D01*
X0801000Y0075381D02*
X0805724Y0075381D01*
X0805724Y0076167D02*
X0801000Y0076167D01*
X0801000Y0076953D02*
X0805724Y0076953D01*
X0805724Y0077739D02*
X0800765Y0077739D01*
X0800440Y0078525D02*
X0805724Y0078525D01*
X0805724Y0079311D02*
X0800114Y0079311D01*
X0799771Y0080097D02*
X0805724Y0080097D01*
X0805724Y0080883D02*
X0798985Y0080883D01*
X0798199Y0081668D02*
X0805724Y0081668D01*
X0805724Y0082454D02*
X0797169Y0082454D01*
X0795272Y0083240D02*
X0805724Y0083240D01*
X0805724Y0084026D02*
X0543411Y0084026D01*
X0543490Y0083240D02*
X0790980Y0083240D01*
X0789083Y0082454D02*
X0543490Y0082454D01*
X0543449Y0081668D02*
X0788053Y0081668D01*
X0787267Y0080883D02*
X0542995Y0080883D01*
X0542654Y0080291D02*
X0542654Y0080291D01*
X0542654Y0080291D01*
X0542317Y0080097D02*
X0786481Y0080097D01*
X0786138Y0079311D02*
X0535428Y0079311D01*
X0535672Y0080097D02*
X0537561Y0080097D01*
X0536978Y0080883D02*
X0535917Y0080883D01*
X0536161Y0081668D02*
X0536720Y0081668D01*
X0536778Y0082454D02*
X0536406Y0082454D01*
X0536650Y0083240D02*
X0537368Y0083240D01*
X0536895Y0084026D02*
X0538327Y0084026D01*
X0537306Y0084812D02*
X0537139Y0084812D01*
X0534307Y0087170D02*
X0534070Y0087170D01*
X0533800Y0087956D02*
X0534552Y0087956D01*
X0534796Y0088742D02*
X0533530Y0088742D01*
X0533260Y0089528D02*
X0535041Y0089528D01*
X0535449Y0090314D02*
X0532884Y0090314D01*
X0530362Y0090314D02*
X0527742Y0090314D01*
X0527742Y0091099D02*
X0805724Y0091099D01*
X0805724Y0090314D02*
X0541417Y0090314D01*
X0542663Y0089528D02*
X0805724Y0089528D01*
X0805724Y0088742D02*
X0543304Y0088742D01*
X0543356Y0087956D02*
X0805724Y0087956D01*
X0805724Y0087170D02*
X0543332Y0087170D01*
X0542571Y0086384D02*
X0805724Y0086384D01*
X0805724Y0085598D02*
X0541959Y0085598D01*
X0542745Y0084812D02*
X0805724Y0084812D01*
X0805724Y0091885D02*
X0527742Y0091885D01*
X0527742Y0092671D02*
X0685410Y0092671D01*
X0685882Y0092671D02*
X0805724Y0092671D01*
X0785812Y0078525D02*
X0535183Y0078525D01*
X0535008Y0077739D02*
X0785487Y0077739D01*
X0785252Y0076953D02*
X0534458Y0076953D01*
X0533929Y0076167D02*
X0785252Y0076167D01*
X0785252Y0075381D02*
X0453205Y0075381D01*
X0453205Y0074595D02*
X0785252Y0074595D01*
X0785348Y0073809D02*
X0453109Y0073809D01*
X0452784Y0073023D02*
X0785673Y0073023D01*
X0785999Y0072238D02*
X0452458Y0072238D01*
X0452133Y0071452D02*
X0786324Y0071452D01*
X0786931Y0070666D02*
X0451526Y0070666D01*
X0450740Y0069880D02*
X0787717Y0069880D01*
X0788503Y0069094D02*
X0449954Y0069094D01*
X0448287Y0068308D02*
X0790170Y0068308D01*
X0680823Y0093457D02*
X0527643Y0093457D01*
X0526857Y0094243D02*
X0679280Y0094243D01*
X0559489Y0144541D02*
X0546884Y0144541D01*
X0547277Y0143756D02*
X0558939Y0143756D01*
X0559001Y0145327D02*
X0546491Y0145327D01*
X0546922Y0146113D02*
X0555127Y0146113D01*
X0554480Y0146899D02*
X0547549Y0146899D01*
X0547770Y0147177D02*
X0547770Y0147177D01*
X0547886Y0147685D02*
X0554480Y0147685D01*
X0554480Y0148471D02*
X0548066Y0148471D01*
X0548245Y0149257D02*
X0555118Y0149257D01*
X0554171Y0150829D02*
X0548029Y0150829D01*
X0547850Y0151615D02*
X0553385Y0151615D01*
X0553226Y0152401D02*
X0547421Y0152401D01*
X0546794Y0153187D02*
X0553226Y0153187D01*
X0553567Y0153972D02*
X0546051Y0153972D01*
X0546240Y0153881D02*
X0546240Y0153881D01*
X0544419Y0154758D02*
X0554353Y0154758D01*
X0559288Y0150452D02*
X0559288Y0150452D01*
X0559435Y0150043D02*
X0548209Y0150043D01*
X0548317Y0149570D02*
X0548317Y0149570D01*
X0543691Y0149570D02*
X0543603Y0149955D01*
X0543356Y0150265D01*
X0542999Y0150437D01*
X0542801Y0150459D01*
X0541912Y0150459D01*
X0541912Y0148680D01*
X0542801Y0148680D01*
X0542927Y0148694D01*
X0543256Y0148859D01*
X0543296Y0148845D01*
X0543356Y0148874D01*
X0543603Y0149184D01*
X0543691Y0149570D01*
X0543620Y0149257D02*
X0541912Y0149257D01*
X0541912Y0150043D02*
X0543533Y0150043D01*
X0537424Y0150043D02*
X0532931Y0150043D01*
X0532931Y0149933D02*
X0532931Y0150459D01*
X0536630Y0150459D01*
X0537424Y0151253D01*
X0537424Y0142873D01*
X0536630Y0143667D01*
X0532931Y0143667D01*
X0532931Y0145446D01*
X0535377Y0145446D01*
X0536691Y0146760D01*
X0536691Y0148619D01*
X0535377Y0149933D01*
X0532931Y0149933D01*
X0536053Y0149257D02*
X0537424Y0149257D01*
X0537424Y0148471D02*
X0536691Y0148471D01*
X0536691Y0147685D02*
X0537424Y0147685D01*
X0537424Y0146899D02*
X0536691Y0146899D01*
X0536044Y0146113D02*
X0537424Y0146113D01*
X0537424Y0145327D02*
X0532931Y0145327D01*
X0532931Y0144541D02*
X0537424Y0144541D01*
X0537424Y0143756D02*
X0532931Y0143756D01*
X0537327Y0142970D02*
X0537424Y0142970D01*
X0537277Y0139826D02*
X0538092Y0139826D01*
X0541244Y0139826D02*
X0544225Y0139826D01*
X0543832Y0140612D02*
X0541912Y0140612D01*
X0541912Y0141398D02*
X0543439Y0141398D01*
X0543046Y0142184D02*
X0541912Y0142184D01*
X0541912Y0142970D02*
X0542653Y0142970D01*
X0542260Y0143756D02*
X0541912Y0143756D01*
X0547670Y0142970D02*
X0553843Y0142970D01*
X0553226Y0142184D02*
X0548063Y0142184D01*
X0548291Y0141398D02*
X0553226Y0141398D01*
X0553226Y0140612D02*
X0548029Y0140612D01*
X0547757Y0139826D02*
X0553894Y0139826D01*
X0557674Y0145446D02*
X0557674Y0145446D01*
X0537424Y0150829D02*
X0537000Y0150829D01*
X0537604Y0153972D02*
X0537765Y0153972D01*
X0538551Y0154758D02*
X0536818Y0154758D01*
X0529570Y0154758D02*
X0528061Y0154758D01*
X0528242Y0150829D02*
X0528444Y0150829D01*
X0528444Y0150043D02*
X0526054Y0150043D01*
X0526054Y0149257D02*
X0528444Y0149257D01*
X0528444Y0148471D02*
X0526054Y0148471D01*
X0526054Y0147685D02*
X0528444Y0147685D01*
X0528444Y0146899D02*
X0526054Y0146899D01*
X0526054Y0146113D02*
X0528444Y0146113D01*
X0528444Y0145327D02*
X0526054Y0145327D01*
X0526054Y0144541D02*
X0528444Y0144541D01*
X0528444Y0143756D02*
X0526054Y0143756D01*
X0526054Y0142970D02*
X0528444Y0142970D01*
X0528444Y0142184D02*
X0526054Y0142184D01*
X0526054Y0141398D02*
X0528444Y0141398D01*
X0528444Y0140612D02*
X0526054Y0140612D01*
X0525386Y0139826D02*
X0529112Y0139826D01*
X0522234Y0139826D02*
X0517528Y0139826D01*
X0518613Y0140452D02*
X0518613Y0140452D01*
X0518705Y0140612D02*
X0521566Y0140612D01*
X0521566Y0141398D02*
X0519159Y0141398D01*
X0519613Y0142184D02*
X0521566Y0142184D01*
X0521566Y0142970D02*
X0519886Y0142970D01*
X0519886Y0143756D02*
X0521566Y0143756D01*
X0521566Y0144541D02*
X0519886Y0144541D01*
X0519814Y0145327D02*
X0521566Y0145327D01*
X0521566Y0146113D02*
X0519365Y0146113D01*
X0518916Y0146899D02*
X0521566Y0146899D01*
X0521566Y0147685D02*
X0518210Y0147685D01*
X0516824Y0148471D02*
X0521566Y0148471D01*
X0521566Y0149257D02*
X0515329Y0149257D01*
X0515550Y0150043D02*
X0513986Y0150043D01*
X0514196Y0150459D02*
X0514196Y0150459D01*
X0518530Y0150043D02*
X0521566Y0150043D01*
X0519378Y0150829D02*
X0519120Y0150829D01*
X0518773Y0153972D02*
X0517809Y0153972D01*
X0517460Y0154234D02*
X0517460Y0154234D01*
X0515887Y0154758D02*
X0519559Y0154758D01*
X0512797Y0154758D02*
X0508956Y0154758D01*
X0509742Y0153972D02*
X0511254Y0153972D01*
X0510468Y0153187D02*
X0510083Y0153187D01*
X0510168Y0152887D02*
X0510168Y0152887D01*
X0509445Y0151136D02*
X0509445Y0148924D01*
X0510707Y0146716D01*
X0510707Y0146716D01*
X0511040Y0146520D01*
X0511052Y0146478D01*
X0511835Y0146051D01*
X0512604Y0145598D01*
X0512646Y0145609D01*
X0515256Y0144185D01*
X0515311Y0144142D01*
X0515388Y0144007D01*
X0515398Y0143930D01*
X0515398Y0143930D01*
X0515389Y0143862D01*
X0515321Y0143744D01*
X0515204Y0143676D01*
X0515136Y0143667D01*
X0515135Y0143667D01*
X0514537Y0143726D01*
X0513432Y0144187D01*
X0512969Y0144570D01*
X0512314Y0145230D01*
X0510456Y0145237D01*
X0509136Y0143929D01*
X0509133Y0143302D01*
X0508829Y0143606D01*
X0508829Y0150520D01*
X0509445Y0151136D01*
X0509445Y0150829D02*
X0509138Y0150829D01*
X0509445Y0150043D02*
X0508829Y0150043D01*
X0508829Y0149257D02*
X0509445Y0149257D01*
X0509704Y0148471D02*
X0508829Y0148471D01*
X0508829Y0147685D02*
X0510153Y0147685D01*
X0510602Y0146899D02*
X0508829Y0146899D01*
X0508829Y0146113D02*
X0511721Y0146113D01*
X0510707Y0146716D02*
X0510707Y0146716D01*
X0508829Y0145327D02*
X0513162Y0145327D01*
X0513003Y0144541D02*
X0514603Y0144541D01*
X0514466Y0143756D02*
X0515328Y0143756D01*
X0516408Y0139180D02*
X0516408Y0139180D01*
X0513628Y0139180D02*
X0513628Y0139180D01*
X0512076Y0139826D02*
X0509415Y0139826D01*
X0510083Y0140612D02*
X0510574Y0140612D01*
X0510844Y0140339D02*
X0510844Y0140339D01*
X0509135Y0143756D02*
X0508829Y0143756D01*
X0508829Y0144541D02*
X0509754Y0144541D01*
X0504342Y0144541D02*
X0502438Y0144541D01*
X0502263Y0143756D02*
X0504342Y0143756D01*
X0503706Y0142970D02*
X0502089Y0142970D01*
X0501914Y0142184D02*
X0503089Y0142184D01*
X0503089Y0141398D02*
X0501820Y0141398D01*
X0501565Y0140612D02*
X0503089Y0140612D01*
X0503756Y0139826D02*
X0501156Y0139826D01*
X0497624Y0139826D02*
X0496256Y0139826D01*
X0496577Y0140612D02*
X0497303Y0140612D01*
X0497090Y0141398D02*
X0496790Y0141398D01*
X0492723Y0139826D02*
X0487492Y0139826D01*
X0488160Y0140612D02*
X0492315Y0140612D01*
X0492060Y0141398D02*
X0488160Y0141398D01*
X0488160Y0142184D02*
X0491966Y0142184D01*
X0491791Y0142970D02*
X0488160Y0142970D01*
X0488160Y0143756D02*
X0491617Y0143756D01*
X0491442Y0144541D02*
X0488160Y0144541D01*
X0488160Y0145327D02*
X0491267Y0145327D01*
X0491093Y0146113D02*
X0488160Y0146113D01*
X0488160Y0146899D02*
X0490918Y0146899D01*
X0490743Y0147685D02*
X0488160Y0147685D01*
X0488160Y0148471D02*
X0490569Y0148471D01*
X0490394Y0149257D02*
X0488160Y0149257D01*
X0488160Y0150043D02*
X0490220Y0150043D01*
X0494642Y0150829D02*
X0495502Y0150829D01*
X0494942Y0150043D02*
X0494816Y0150043D01*
X0494467Y0151615D02*
X0499413Y0151615D01*
X0499588Y0152401D02*
X0494292Y0152401D01*
X0494118Y0153187D02*
X0499762Y0153187D01*
X0499937Y0153972D02*
X0493943Y0153972D01*
X0492876Y0154758D02*
X0501004Y0154758D01*
X0503046Y0154758D02*
X0504215Y0154758D01*
X0504033Y0150829D02*
X0503835Y0150829D01*
X0503660Y0150043D02*
X0504342Y0150043D01*
X0504342Y0149257D02*
X0503486Y0149257D01*
X0503311Y0148471D02*
X0504342Y0148471D01*
X0504342Y0147685D02*
X0503137Y0147685D01*
X0502962Y0146899D02*
X0504342Y0146899D01*
X0504342Y0146113D02*
X0502787Y0146113D01*
X0502613Y0145327D02*
X0504342Y0145327D01*
X0499064Y0150043D02*
X0498938Y0150043D01*
X0499238Y0150829D02*
X0498377Y0150829D01*
X0490834Y0154758D02*
X0490167Y0154758D01*
X0483673Y0150043D02*
X0431709Y0150043D01*
X0431709Y0150829D02*
X0481484Y0150829D01*
X0480698Y0151615D02*
X0431709Y0151615D01*
X0431709Y0152401D02*
X0480539Y0152401D01*
X0480539Y0153187D02*
X0431709Y0153187D01*
X0431709Y0153972D02*
X0480880Y0153972D01*
X0481666Y0154758D02*
X0431709Y0154758D01*
X0431709Y0149257D02*
X0483673Y0149257D01*
X0483673Y0148471D02*
X0431709Y0148471D01*
X0431709Y0147685D02*
X0483673Y0147685D01*
X0483673Y0146899D02*
X0431709Y0146899D01*
X0431709Y0146113D02*
X0483673Y0146113D01*
X0483673Y0145327D02*
X0431709Y0145327D01*
X0431709Y0144541D02*
X0483673Y0144541D01*
X0483673Y0143756D02*
X0431709Y0143756D01*
X0431709Y0142970D02*
X0483673Y0142970D01*
X0483673Y0142184D02*
X0431709Y0142184D01*
X0431709Y0141398D02*
X0483673Y0141398D01*
X0483673Y0140612D02*
X0431709Y0140612D01*
X0431709Y0139826D02*
X0484341Y0139826D01*
X0511172Y0120178D02*
X0431709Y0120178D01*
X0431709Y0119392D02*
X0510758Y0119392D01*
X0510613Y0118606D02*
X0431709Y0118606D01*
X0431709Y0117820D02*
X0510866Y0117820D01*
X0511014Y0117035D02*
X0431709Y0117035D01*
X0431709Y0116249D02*
X0511161Y0116249D01*
X0511309Y0115463D02*
X0431709Y0115463D01*
X0431709Y0114677D02*
X0501853Y0114677D01*
X0501044Y0113891D02*
X0431709Y0113891D01*
X0431709Y0113105D02*
X0500193Y0113105D01*
X0499342Y0112319D02*
X0431709Y0112319D01*
X0431709Y0111533D02*
X0498490Y0111533D01*
X0497639Y0110747D02*
X0431709Y0110747D01*
X0431709Y0109961D02*
X0496787Y0109961D01*
X0495936Y0109175D02*
X0431709Y0109175D01*
X0431709Y0108390D02*
X0495085Y0108390D01*
X0494233Y0107604D02*
X0431709Y0107604D01*
X0431709Y0106818D02*
X0493382Y0106818D01*
X0492530Y0106032D02*
X0431709Y0106032D01*
X0431709Y0105246D02*
X0491499Y0105246D01*
X0491076Y0104460D02*
X0431709Y0104460D01*
X0431709Y0103674D02*
X0490916Y0103674D01*
X0491101Y0102888D02*
X0431709Y0102888D01*
X0431709Y0102102D02*
X0491700Y0102102D01*
X0493574Y0101316D02*
X0431709Y0101316D01*
X0431709Y0100530D02*
X0495449Y0100530D01*
X0497323Y0099744D02*
X0431709Y0099744D01*
X0431709Y0098959D02*
X0499197Y0098959D01*
X0501071Y0098173D02*
X0431709Y0098173D01*
X0431709Y0097387D02*
X0502945Y0097387D01*
X0504819Y0096601D02*
X0431709Y0096601D01*
X0431709Y0095815D02*
X0506693Y0095815D01*
X0508567Y0095029D02*
X0431709Y0095029D01*
X0431709Y0094243D02*
X0510441Y0094243D01*
X0512315Y0093457D02*
X0431709Y0093457D01*
X0431709Y0092671D02*
X0514190Y0092671D01*
X0512846Y0089528D02*
X0507737Y0089528D01*
X0508323Y0089189D02*
X0508323Y0089189D01*
X0508582Y0088742D02*
X0512001Y0088742D01*
X0512260Y0089189D02*
X0512260Y0089189D01*
X0512260Y0089189D01*
X0511547Y0087956D02*
X0509035Y0087956D01*
X0509159Y0087170D02*
X0511424Y0087170D01*
X0511424Y0086384D02*
X0509159Y0086384D01*
X0509159Y0085598D02*
X0511424Y0085598D01*
X0511424Y0084812D02*
X0509159Y0084812D01*
X0509159Y0084026D02*
X0511424Y0084026D01*
X0511424Y0083240D02*
X0509159Y0083240D01*
X0509159Y0082454D02*
X0511424Y0082454D01*
X0511601Y0081668D02*
X0509159Y0081668D01*
X0509159Y0080883D02*
X0512054Y0080883D01*
X0512260Y0080527D02*
X0512260Y0080527D01*
X0513005Y0080097D02*
X0508567Y0080097D01*
X0506346Y0080097D02*
X0504788Y0080097D01*
X0505380Y0080883D02*
X0505754Y0080883D01*
X0505754Y0081668D02*
X0505380Y0081668D01*
X0505380Y0082454D02*
X0505754Y0082454D01*
X0505754Y0083240D02*
X0505380Y0083240D01*
X0505380Y0084026D02*
X0505754Y0084026D01*
X0505754Y0084812D02*
X0505380Y0084812D01*
X0505380Y0085598D02*
X0505754Y0085598D01*
X0505754Y0086384D02*
X0505380Y0086384D01*
X0502474Y0089528D02*
X0501280Y0089528D01*
X0499298Y0086620D02*
X0499298Y0086561D01*
X0498923Y0086561D01*
X0498923Y0086620D01*
X0499298Y0086620D01*
X0499410Y0083156D02*
X0499350Y0083096D01*
X0498923Y0083096D01*
X0498923Y0083156D01*
X0499410Y0083156D01*
X0501754Y0083205D02*
X0501975Y0082984D01*
X0501975Y0083426D01*
X0501754Y0083205D01*
X0501790Y0083240D02*
X0501975Y0083240D01*
X0501705Y0080295D02*
X0501705Y0080295D01*
X0501705Y0080295D01*
X0501361Y0080097D02*
X0502567Y0080097D01*
X0497100Y0080097D02*
X0494743Y0080097D01*
X0495694Y0080883D02*
X0496149Y0080883D01*
X0496354Y0080527D02*
X0496354Y0080527D01*
X0496354Y0080527D01*
X0492545Y0079311D02*
X0517723Y0079311D01*
X0517723Y0080097D02*
X0517266Y0080097D01*
X0517723Y0078525D02*
X0492545Y0078525D01*
X0492545Y0077739D02*
X0517723Y0077739D01*
X0517723Y0076953D02*
X0492545Y0076953D01*
X0492197Y0076167D02*
X0518071Y0076167D01*
X0520779Y0076167D02*
X0530355Y0076167D01*
X0529928Y0076953D02*
X0521128Y0076953D01*
X0521128Y0077739D02*
X0529928Y0077739D01*
X0530448Y0078525D02*
X0521128Y0078525D01*
X0521128Y0079311D02*
X0531862Y0079311D01*
X0532107Y0080097D02*
X0531011Y0080097D01*
X0531607Y0080883D02*
X0532351Y0080883D01*
X0532361Y0081668D02*
X0531596Y0081668D01*
X0531585Y0082454D02*
X0532091Y0082454D01*
X0531821Y0083240D02*
X0531574Y0083240D01*
X0528169Y0083240D02*
X0527742Y0083240D01*
X0527742Y0082454D02*
X0528180Y0082454D01*
X0528191Y0081668D02*
X0527742Y0081668D01*
X0527742Y0080883D02*
X0528202Y0080883D01*
X0528790Y0080097D02*
X0527071Y0080097D01*
X0525008Y0080097D02*
X0523325Y0080097D01*
X0524276Y0080883D02*
X0524337Y0080883D01*
X0521502Y0083096D02*
X0521502Y0086200D01*
X0521502Y0086620D01*
X0521128Y0086620D01*
X0521128Y0083096D01*
X0521502Y0083096D01*
X0521502Y0083240D02*
X0521128Y0083240D01*
X0521128Y0084026D02*
X0521502Y0084026D01*
X0521502Y0084812D02*
X0521128Y0084812D01*
X0521128Y0085598D02*
X0521502Y0085598D01*
X0521502Y0086384D02*
X0521128Y0086384D01*
X0523485Y0089528D02*
X0524337Y0089528D01*
X0524071Y0089189D02*
X0524071Y0089189D01*
X0524330Y0088742D02*
X0524337Y0088742D01*
X0527742Y0086384D02*
X0528117Y0086384D01*
X0528135Y0085598D02*
X0527742Y0085598D01*
X0527742Y0084812D02*
X0528146Y0084812D01*
X0528157Y0084026D02*
X0527742Y0084026D01*
X0517723Y0083268D02*
X0517723Y0083141D01*
X0517659Y0083205D01*
X0517723Y0083268D01*
X0517723Y0083240D02*
X0517695Y0083240D01*
X0515315Y0083156D02*
X0515255Y0083096D01*
X0514828Y0083096D01*
X0514828Y0083156D01*
X0515315Y0083156D01*
X0515203Y0086561D02*
X0514828Y0086561D01*
X0514828Y0086620D01*
X0515203Y0086620D01*
X0515203Y0086561D01*
X0496940Y0089528D02*
X0494902Y0089528D01*
X0495488Y0089189D02*
X0495488Y0089189D01*
X0495488Y0089189D01*
X0495747Y0088742D02*
X0496096Y0088742D01*
X0496354Y0089189D02*
X0496354Y0089189D01*
X0496354Y0089189D01*
X0492920Y0086620D02*
X0492920Y0086465D01*
X0492920Y0083096D01*
X0492545Y0083096D01*
X0492545Y0086620D01*
X0492920Y0086620D01*
X0492920Y0086384D02*
X0492545Y0086384D01*
X0492545Y0085598D02*
X0492920Y0085598D01*
X0492920Y0084812D02*
X0492545Y0084812D01*
X0492545Y0084026D02*
X0492920Y0084026D01*
X0492920Y0083240D02*
X0492545Y0083240D01*
X0489140Y0080097D02*
X0488325Y0080097D01*
X0489140Y0079311D02*
X0452319Y0079311D01*
X0452645Y0078525D02*
X0489140Y0078525D01*
X0489140Y0077739D02*
X0452970Y0077739D01*
X0453205Y0076953D02*
X0489140Y0076953D01*
X0489488Y0076167D02*
X0453205Y0076167D01*
X0451976Y0080097D02*
X0484344Y0080097D01*
X0483598Y0080527D02*
X0483598Y0080527D01*
X0483598Y0080527D01*
X0483393Y0080883D02*
X0451190Y0080883D01*
X0450404Y0081668D02*
X0482939Y0081668D01*
X0482762Y0082454D02*
X0449374Y0082454D01*
X0447476Y0083240D02*
X0482762Y0083240D01*
X0486167Y0083240D02*
X0486502Y0083240D01*
X0486502Y0083096D02*
X0486502Y0086620D01*
X0486167Y0086620D01*
X0486167Y0083401D01*
X0486167Y0083096D01*
X0486502Y0083096D01*
X0486502Y0084026D02*
X0486167Y0084026D01*
X0486167Y0084812D02*
X0486502Y0084812D01*
X0486502Y0085598D02*
X0486167Y0085598D01*
X0486167Y0086384D02*
X0486502Y0086384D01*
X0488485Y0089528D02*
X0489640Y0089528D01*
X0489071Y0089189D02*
X0489071Y0089189D01*
X0506221Y0100516D02*
X0511548Y0098282D01*
X0510192Y0100166D01*
X0506221Y0100516D01*
X0508061Y0099744D02*
X0510495Y0099744D01*
X0509935Y0098959D02*
X0511061Y0098959D01*
X0512451Y0104135D02*
X0512412Y0104189D01*
X0512492Y0104132D01*
X0512451Y0104135D01*
X0506987Y0104617D02*
X0497981Y0105412D01*
X0503047Y0110088D01*
X0506987Y0104617D01*
X0506534Y0105246D02*
X0499863Y0105246D01*
X0498653Y0106032D02*
X0505968Y0106032D01*
X0505402Y0106818D02*
X0499504Y0106818D01*
X0500356Y0107604D02*
X0504836Y0107604D01*
X0504271Y0108390D02*
X0501207Y0108390D01*
X0502058Y0109175D02*
X0503705Y0109175D01*
X0503139Y0109961D02*
X0502910Y0109961D01*
X0505974Y0113891D02*
X0511603Y0113891D01*
X0511456Y0114677D02*
X0504874Y0114677D01*
X0507074Y0113105D02*
X0511751Y0113105D01*
X0511898Y0112319D02*
X0508174Y0112319D01*
X0509275Y0111533D02*
X0512045Y0111533D01*
X0512193Y0110747D02*
X0510375Y0110747D01*
X0511475Y0109961D02*
X0512340Y0109961D01*
X0537919Y0090314D02*
X0538858Y0090314D01*
X0759099Y0167333D02*
X0805724Y0167333D01*
X0805724Y0168119D02*
X0760329Y0168119D01*
X0759857Y0167647D02*
X0759857Y0167647D01*
X0761115Y0168905D02*
X0805724Y0168905D01*
X0805724Y0169691D02*
X0761677Y0169691D01*
X0762002Y0170477D02*
X0805724Y0170477D01*
X0805724Y0171263D02*
X0762328Y0171263D01*
X0762417Y0172048D02*
X0805724Y0172048D01*
X0805724Y0172834D02*
X0762417Y0172834D01*
X0762417Y0173620D02*
X0805724Y0173620D01*
X0805724Y0174406D02*
X0762417Y0174406D01*
X0762417Y0175192D02*
X0805724Y0175192D01*
X0805724Y0175978D02*
X0762417Y0175978D01*
X0762417Y0176764D02*
X0805724Y0176764D01*
X0805724Y0177550D02*
X0762417Y0177550D01*
X0762417Y0178336D02*
X0805724Y0178336D01*
X0805724Y0179122D02*
X0762417Y0179122D01*
X0762417Y0179908D02*
X0805724Y0179908D01*
X0805724Y0180693D02*
X0762417Y0180693D01*
X0762417Y0181479D02*
X0805724Y0181479D01*
X0805724Y0182265D02*
X0762417Y0182265D01*
X0762417Y0183051D02*
X0805724Y0183051D01*
X0805724Y0183837D02*
X0762417Y0183837D01*
X0762417Y0184623D02*
X0805724Y0184623D01*
X0805724Y0185409D02*
X0762417Y0185409D01*
X0762417Y0186195D02*
X0805724Y0186195D01*
X0805724Y0186981D02*
X0762417Y0186981D01*
X0762417Y0187767D02*
X0805724Y0187767D01*
X0805724Y0188553D02*
X0762417Y0188553D01*
X0762417Y0189339D02*
X0805724Y0189339D01*
X0805724Y0190124D02*
X0762417Y0190124D01*
X0762417Y0190910D02*
X0805724Y0190910D01*
X0805724Y0191696D02*
X0762417Y0191696D01*
X0762417Y0192482D02*
X0805724Y0192482D01*
X0805724Y0193268D02*
X0762417Y0193268D01*
X0762417Y0194054D02*
X0805724Y0194054D01*
X0805724Y0194840D02*
X0762417Y0194840D01*
X0762417Y0195626D02*
X0805724Y0195626D01*
X0805724Y0196412D02*
X0762417Y0196412D01*
X0762417Y0197198D02*
X0805724Y0197198D01*
X0805724Y0197984D02*
X0762417Y0197984D01*
X0762417Y0198769D02*
X0805724Y0198769D01*
X0805724Y0199555D02*
X0762417Y0199555D01*
X0762417Y0200341D02*
X0805724Y0200341D01*
X0805724Y0201127D02*
X0762417Y0201127D01*
X0762417Y0201913D02*
X0805724Y0201913D01*
X0805724Y0202699D02*
X0762417Y0202699D01*
X0762417Y0203485D02*
X0805724Y0203485D01*
X0805724Y0204271D02*
X0762417Y0204271D01*
X0762417Y0205057D02*
X0805724Y0205057D01*
X0805724Y0205843D02*
X0762417Y0205843D01*
X0762417Y0206629D02*
X0805724Y0206629D01*
X0805724Y0207415D02*
X0762417Y0207415D01*
X0762417Y0208200D02*
X0805724Y0208200D01*
X0805724Y0208986D02*
X0762417Y0208986D01*
X0762417Y0209772D02*
X0805724Y0209772D01*
X0805724Y0210558D02*
X0762417Y0210558D01*
X0762417Y0211344D02*
X0805724Y0211344D01*
X0805724Y0212130D02*
X0762417Y0212130D01*
X0762417Y0212916D02*
X0805724Y0212916D01*
X0805724Y0213702D02*
X0762417Y0213702D01*
X0762417Y0214488D02*
X0805724Y0214488D01*
X0805724Y0215274D02*
X0762417Y0215274D01*
X0762417Y0216060D02*
X0805724Y0216060D01*
X0805724Y0216845D02*
X0762417Y0216845D01*
X0762417Y0217631D02*
X0805724Y0217631D01*
X0805724Y0218417D02*
X0762417Y0218417D01*
X0762417Y0219203D02*
X0805724Y0219203D01*
X0805724Y0219989D02*
X0762417Y0219989D01*
X0762417Y0220775D02*
X0805724Y0220775D01*
X0805724Y0221561D02*
X0762417Y0221561D01*
X0762417Y0222347D02*
X0805724Y0222347D01*
X0805724Y0223133D02*
X0762417Y0223133D01*
X0762417Y0223919D02*
X0805724Y0223919D01*
X0805724Y0224705D02*
X0762417Y0224705D01*
X0762417Y0225491D02*
X0805724Y0225491D01*
X0805724Y0226276D02*
X0762417Y0226276D01*
X0762417Y0227062D02*
X0805724Y0227062D01*
X0805724Y0227848D02*
X0762417Y0227848D01*
X0762417Y0228634D02*
X0805724Y0228634D01*
X0805724Y0229420D02*
X0762417Y0229420D01*
X0762417Y0230206D02*
X0805724Y0230206D01*
X0805724Y0230992D02*
X0762417Y0230992D01*
X0762417Y0231778D02*
X0805724Y0231778D01*
X0805724Y0232564D02*
X0762417Y0232564D01*
X0762417Y0233350D02*
X0805724Y0233350D01*
X0805724Y0234136D02*
X0762417Y0234136D01*
X0762417Y0234921D02*
X0805724Y0234921D01*
X0805724Y0235707D02*
X0762417Y0235707D01*
X0762417Y0236493D02*
X0805724Y0236493D01*
X0805724Y0237279D02*
X0762417Y0237279D01*
X0762417Y0238065D02*
X0805724Y0238065D01*
X0805724Y0238851D02*
X0762417Y0238851D01*
X0762417Y0239637D02*
X0805724Y0239637D01*
X0805724Y0240423D02*
X0762417Y0240423D01*
X0762417Y0241209D02*
X0805724Y0241209D01*
X0805724Y0241995D02*
X0762417Y0241995D01*
X0762417Y0242781D02*
X0805724Y0242781D01*
X0805724Y0243567D02*
X0762417Y0243567D01*
X0762417Y0244352D02*
X0805724Y0244352D01*
X0805724Y0245138D02*
X0762417Y0245138D01*
X0762417Y0245924D02*
X0805724Y0245924D01*
X0805724Y0246710D02*
X0762417Y0246710D01*
X0762417Y0247496D02*
X0805724Y0247496D01*
X0805724Y0248282D02*
X0762417Y0248282D01*
X0762417Y0249068D02*
X0805724Y0249068D01*
X0805724Y0249854D02*
X0762417Y0249854D01*
X0762417Y0250640D02*
X0805724Y0250640D01*
X0805724Y0251426D02*
X0762417Y0251426D01*
X0762417Y0252212D02*
X0805724Y0252212D01*
X0805724Y0252997D02*
X0762417Y0252997D01*
X0762417Y0253783D02*
X0805724Y0253783D01*
X0805724Y0254569D02*
X0762417Y0254569D01*
X0762417Y0255355D02*
X0805724Y0255355D01*
X0805724Y0256141D02*
X0762417Y0256141D01*
X0762417Y0256927D02*
X0805724Y0256927D01*
X0805724Y0257713D02*
X0762417Y0257713D01*
X0762417Y0258499D02*
X0805724Y0258499D01*
X0805724Y0259285D02*
X0762417Y0259285D01*
X0762417Y0260071D02*
X0805724Y0260071D01*
X0805724Y0260857D02*
X0762417Y0260857D01*
X0762417Y0261643D02*
X0805724Y0261643D01*
X0805724Y0262428D02*
X0762417Y0262428D01*
X0762417Y0263214D02*
X0805724Y0263214D01*
X0805724Y0264000D02*
X0762417Y0264000D01*
X0762417Y0264786D02*
X0805724Y0264786D01*
X0805724Y0265572D02*
X0762417Y0265572D01*
X0762417Y0266358D02*
X0805724Y0266358D01*
X0805724Y0267144D02*
X0762417Y0267144D01*
X0762417Y0267930D02*
X0805724Y0267930D01*
X0805724Y0268716D02*
X0762417Y0268716D01*
X0762417Y0269502D02*
X0805724Y0269502D01*
X0805724Y0270288D02*
X0762417Y0270288D01*
X0762417Y0271073D02*
X0805724Y0271073D01*
X0805724Y0271859D02*
X0762417Y0271859D01*
X0762255Y0272645D02*
X0805724Y0272645D01*
X0805724Y0273431D02*
X0761929Y0273431D01*
X0761604Y0274217D02*
X0805724Y0274217D01*
X0805724Y0275003D02*
X0760939Y0275003D01*
X0761518Y0274424D02*
X0761518Y0274424D01*
X0760153Y0275789D02*
X0805724Y0275789D01*
X0805724Y0276575D02*
X0758675Y0276575D01*
X0759857Y0276085D02*
X0759857Y0276085D01*
X0805724Y0277361D02*
X0431709Y0277361D01*
X0431709Y0278147D02*
X0805724Y0278147D01*
X0805724Y0278933D02*
X0431709Y0278933D01*
X0431709Y0279719D02*
X0805724Y0279719D01*
X0805724Y0280504D02*
X0431709Y0280504D01*
X0431709Y0281290D02*
X0805724Y0281290D01*
X0805724Y0282076D02*
X0431709Y0282076D01*
X0431709Y0282862D02*
X0805724Y0282862D01*
X0805724Y0283648D02*
X0431709Y0283648D01*
X0431709Y0284434D02*
X0805724Y0284434D01*
X0805724Y0285220D02*
X0431709Y0285220D01*
X0431709Y0286006D02*
X0805724Y0286006D01*
X0805724Y0286792D02*
X0431709Y0286792D01*
X0431709Y0287578D02*
X0805724Y0287578D01*
X0805724Y0288364D02*
X0431709Y0288364D01*
X0431709Y0289149D02*
X0805724Y0289149D01*
X0805724Y0289935D02*
X0431709Y0289935D01*
X0431709Y0290721D02*
X0805724Y0290721D01*
X0805724Y0291507D02*
X0431709Y0291507D01*
X0431709Y0292293D02*
X0805724Y0292293D01*
X0805724Y0293079D02*
X0431709Y0293079D01*
X0431709Y0293865D02*
X0805724Y0293865D01*
X0805724Y0294651D02*
X0431709Y0294651D01*
X0431709Y0295437D02*
X0805724Y0295437D01*
X0805724Y0296223D02*
X0431709Y0296223D01*
X0431709Y0297009D02*
X0805724Y0297009D01*
X0805724Y0297795D02*
X0431709Y0297795D01*
X0431709Y0298580D02*
X0805724Y0298580D01*
X0805724Y0299366D02*
X0431709Y0299366D01*
X0431709Y0300152D02*
X0805724Y0300152D01*
X0805724Y0300938D02*
X0431709Y0300938D01*
X0431709Y0301724D02*
X0805724Y0301724D01*
X0805724Y0302510D02*
X0795581Y0302510D01*
X0794692Y0302142D02*
X0797586Y0303340D01*
X0799801Y0305555D01*
X0801000Y0308449D01*
X0801000Y0311582D01*
X0799801Y0314476D01*
X0797586Y0316691D01*
X0794692Y0317890D01*
X0791560Y0317890D01*
X0788666Y0316691D01*
X0786451Y0314476D01*
X0785252Y0311582D01*
X0785252Y0308449D01*
X0786451Y0305555D01*
X0788666Y0303340D01*
X0791560Y0302142D01*
X0794692Y0302142D01*
X0797479Y0303296D02*
X0805724Y0303296D01*
X0805724Y0304082D02*
X0798328Y0304082D01*
X0799113Y0304868D02*
X0805724Y0304868D01*
X0805724Y0305654D02*
X0799842Y0305654D01*
X0800167Y0306440D02*
X0805724Y0306440D01*
X0805724Y0307225D02*
X0800493Y0307225D01*
X0800819Y0308011D02*
X0805724Y0308011D01*
X0805724Y0308797D02*
X0801000Y0308797D01*
X0801000Y0309583D02*
X0805724Y0309583D01*
X0805724Y0310369D02*
X0801000Y0310369D01*
X0801000Y0311155D02*
X0805724Y0311155D01*
X0805724Y0311941D02*
X0800851Y0311941D01*
X0800526Y0312727D02*
X0805724Y0312727D01*
X0805724Y0313513D02*
X0800200Y0313513D01*
X0799875Y0314299D02*
X0805724Y0314299D01*
X0805724Y0315085D02*
X0799193Y0315085D01*
X0798407Y0315871D02*
X0805724Y0315871D01*
X0805724Y0316656D02*
X0797621Y0316656D01*
X0795772Y0317442D02*
X0805724Y0317442D01*
X0805724Y0318228D02*
X0431709Y0318228D01*
X0431709Y0317442D02*
X0442684Y0317442D01*
X0443764Y0317890D02*
X0440870Y0316691D01*
X0438655Y0314476D01*
X0437457Y0311582D01*
X0437457Y0308449D01*
X0438655Y0305555D01*
X0440870Y0303340D01*
X0443764Y0302142D01*
X0446897Y0302142D01*
X0449791Y0303340D01*
X0452006Y0305555D01*
X0453205Y0308449D01*
X0453205Y0311582D01*
X0452006Y0314476D01*
X0449791Y0316691D01*
X0446897Y0317890D01*
X0443764Y0317890D01*
X0440836Y0316656D02*
X0431709Y0316656D01*
X0431709Y0315871D02*
X0440050Y0315871D01*
X0439264Y0315085D02*
X0431709Y0315085D01*
X0431709Y0314299D02*
X0438582Y0314299D01*
X0438256Y0313513D02*
X0431709Y0313513D01*
X0431709Y0312727D02*
X0437931Y0312727D01*
X0437605Y0311941D02*
X0431709Y0311941D01*
X0431709Y0311155D02*
X0437457Y0311155D01*
X0437457Y0310369D02*
X0431709Y0310369D01*
X0431709Y0309583D02*
X0437457Y0309583D01*
X0437457Y0308797D02*
X0431709Y0308797D01*
X0431709Y0308011D02*
X0437638Y0308011D01*
X0437964Y0307225D02*
X0431709Y0307225D01*
X0431709Y0306440D02*
X0438289Y0306440D01*
X0438615Y0305654D02*
X0431709Y0305654D01*
X0431709Y0304868D02*
X0439343Y0304868D01*
X0440129Y0304082D02*
X0431709Y0304082D01*
X0431709Y0303296D02*
X0440978Y0303296D01*
X0442875Y0302510D02*
X0431709Y0302510D01*
X0447786Y0302510D02*
X0790671Y0302510D01*
X0788773Y0303296D02*
X0449683Y0303296D01*
X0450532Y0304082D02*
X0787924Y0304082D01*
X0787138Y0304868D02*
X0635752Y0304868D01*
X0635371Y0304487D02*
X0637710Y0306826D01*
X0637710Y0310135D01*
X0635371Y0312474D01*
X0632062Y0312474D01*
X0629723Y0310135D01*
X0629723Y0306826D01*
X0632062Y0304487D01*
X0635371Y0304487D01*
X0636538Y0305654D02*
X0786410Y0305654D01*
X0786085Y0306440D02*
X0637324Y0306440D01*
X0637710Y0307225D02*
X0785759Y0307225D01*
X0785433Y0308011D02*
X0637710Y0308011D01*
X0637710Y0308797D02*
X0785252Y0308797D01*
X0785252Y0309583D02*
X0637710Y0309583D01*
X0637476Y0310369D02*
X0785252Y0310369D01*
X0785252Y0311155D02*
X0636690Y0311155D01*
X0635904Y0311941D02*
X0785401Y0311941D01*
X0785726Y0312727D02*
X0452730Y0312727D01*
X0452405Y0313513D02*
X0786052Y0313513D01*
X0786377Y0314299D02*
X0452079Y0314299D01*
X0451397Y0315085D02*
X0787059Y0315085D01*
X0787845Y0315871D02*
X0450611Y0315871D01*
X0449826Y0316656D02*
X0788631Y0316656D01*
X0790480Y0317442D02*
X0447977Y0317442D01*
X0453056Y0311941D02*
X0601529Y0311941D01*
X0602062Y0312474D02*
X0599723Y0310135D01*
X0599723Y0306826D01*
X0602062Y0304487D01*
X0605371Y0304487D01*
X0607710Y0306826D01*
X0607710Y0310135D01*
X0605371Y0312474D01*
X0602062Y0312474D01*
X0600743Y0311155D02*
X0453205Y0311155D01*
X0453205Y0310369D02*
X0599957Y0310369D01*
X0599723Y0309583D02*
X0453205Y0309583D01*
X0453205Y0308797D02*
X0599723Y0308797D01*
X0599723Y0308011D02*
X0453023Y0308011D01*
X0452698Y0307225D02*
X0599723Y0307225D01*
X0600109Y0306440D02*
X0452372Y0306440D01*
X0452047Y0305654D02*
X0600895Y0305654D01*
X0601681Y0304868D02*
X0451318Y0304868D01*
X0431709Y0319014D02*
X0805724Y0319014D01*
X0805724Y0319800D02*
X0431709Y0319800D01*
X0431709Y0320586D02*
X0805724Y0320586D01*
X0805724Y0321372D02*
X0431709Y0321372D01*
X0431709Y0322158D02*
X0805724Y0322158D01*
X0805724Y0322944D02*
X0431709Y0322944D01*
X0431709Y0323730D02*
X0805724Y0323730D01*
X0631529Y0311941D02*
X0625904Y0311941D01*
X0625371Y0312474D02*
X0622062Y0312474D01*
X0619723Y0310135D01*
X0619723Y0306826D01*
X0622062Y0304487D01*
X0625371Y0304487D01*
X0627710Y0306826D01*
X0627710Y0310135D01*
X0625371Y0312474D01*
X0626690Y0311155D02*
X0630743Y0311155D01*
X0629957Y0310369D02*
X0627476Y0310369D01*
X0627710Y0309583D02*
X0629723Y0309583D01*
X0629723Y0308797D02*
X0627710Y0308797D01*
X0627710Y0308011D02*
X0629723Y0308011D01*
X0629723Y0307225D02*
X0627710Y0307225D01*
X0627324Y0306440D02*
X0630109Y0306440D01*
X0630895Y0305654D02*
X0626538Y0305654D01*
X0625752Y0304868D02*
X0631681Y0304868D01*
X0621681Y0304868D02*
X0615752Y0304868D01*
X0615371Y0304487D02*
X0617710Y0306826D01*
X0617710Y0310135D01*
X0615371Y0312474D01*
X0612062Y0312474D01*
X0609723Y0310135D01*
X0609723Y0306826D01*
X0612062Y0304487D01*
X0615371Y0304487D01*
X0616538Y0305654D02*
X0620895Y0305654D01*
X0620109Y0306440D02*
X0617324Y0306440D01*
X0617710Y0307225D02*
X0619723Y0307225D01*
X0619723Y0308011D02*
X0617710Y0308011D01*
X0617710Y0308797D02*
X0619723Y0308797D01*
X0619723Y0309583D02*
X0617710Y0309583D01*
X0617476Y0310369D02*
X0619957Y0310369D01*
X0620743Y0311155D02*
X0616690Y0311155D01*
X0615904Y0311941D02*
X0621529Y0311941D01*
X0611529Y0311941D02*
X0605904Y0311941D01*
X0606690Y0311155D02*
X0610743Y0311155D01*
X0609957Y0310369D02*
X0607476Y0310369D01*
X0607710Y0309583D02*
X0609723Y0309583D01*
X0609723Y0308797D02*
X0607710Y0308797D01*
X0607710Y0308011D02*
X0609723Y0308011D01*
X0609723Y0307225D02*
X0607710Y0307225D01*
X0607324Y0306440D02*
X0610109Y0306440D01*
X0610895Y0305654D02*
X0606538Y0305654D01*
X0605752Y0304868D02*
X0611681Y0304868D01*
X0288795Y0170719D02*
X0288795Y0162417D01*
X0288795Y0170719D02*
X0288793Y0170789D01*
X0288788Y0170859D01*
X0288778Y0170929D01*
X0288766Y0170998D01*
X0288749Y0171067D01*
X0288729Y0171134D01*
X0288706Y0171201D01*
X0288679Y0171266D01*
X0288649Y0171329D01*
X0288615Y0171391D01*
X0288578Y0171451D01*
X0288538Y0171509D01*
X0288495Y0171565D01*
X0288450Y0171618D01*
X0288401Y0171669D01*
X0309661Y0135252D02*
X0299228Y0124819D01*
X0143047Y0123323D02*
X0116354Y0150016D01*
X0116354Y0223835D01*
X0161433Y0268913D01*
X0146748Y0279425D02*
X0146748Y0282890D01*
X0146748Y0279425D02*
X0101000Y0233677D01*
X0101000Y0186433D01*
X0083283Y0168717D01*
X0083283Y0154937D01*
X0101000Y0137220D01*
X0101000Y0125370D01*
X0143047Y0083323D01*
X0136748Y0282890D02*
X0138205Y0284346D01*
D31*
X0221961Y0248244D02*
X0240703Y0248195D01*
X0240703Y0248061D01*
X0240703Y0247521D01*
X0240703Y0247520D01*
X0240704Y0245812D01*
X0239150Y0247366D01*
X0237689Y0247366D01*
X0237689Y0243366D01*
X0237020Y0243366D01*
X0237020Y0247366D01*
X0235559Y0247366D01*
X0233020Y0244827D01*
X0233020Y0243366D01*
X0237020Y0243366D01*
X0237020Y0242697D01*
X0237689Y0242697D01*
X0237689Y0238697D01*
X0239150Y0238697D01*
X0240705Y0240252D01*
X0240707Y0236115D01*
X0239265Y0236115D01*
X0238137Y0234987D01*
X0238137Y0233392D01*
X0238455Y0233074D01*
X0238455Y0218405D01*
X0237779Y0217729D01*
X0237779Y0216134D01*
X0238907Y0215006D01*
X0240502Y0215006D01*
X0241630Y0216134D01*
X0241630Y0217729D01*
X0240954Y0218405D01*
X0240954Y0219726D01*
X0241057Y0219623D01*
X0244402Y0215602D01*
X0244402Y0215532D01*
X0244748Y0215186D01*
X0245061Y0214810D01*
X0245131Y0214804D01*
X0245180Y0214754D01*
X0245669Y0214754D01*
X0246157Y0214710D01*
X0246211Y0214754D01*
X0249140Y0214754D01*
X0249140Y0204214D01*
X0249918Y0203435D01*
X0254314Y0203435D01*
X0254834Y0203413D01*
X0254859Y0203435D01*
X0254893Y0203435D01*
X0255261Y0203804D01*
X0260757Y0208841D01*
X0260790Y0208841D01*
X0261159Y0209210D01*
X0261543Y0209562D01*
X0261545Y0209595D01*
X0261568Y0209619D01*
X0261568Y0210140D01*
X0261591Y0210661D01*
X0261568Y0210686D01*
X0261568Y0220938D01*
X0262767Y0222136D01*
X0263545Y0222914D01*
X0263545Y0233251D01*
X0277628Y0220410D01*
X0277628Y0211153D01*
X0277590Y0211108D01*
X0277628Y0210610D01*
X0277628Y0210111D01*
X0277670Y0210070D01*
X0277675Y0210011D01*
X0278054Y0209686D01*
X0278406Y0209333D01*
X0278465Y0209333D01*
X0284935Y0203788D01*
X0285288Y0203435D01*
X0285347Y0203435D01*
X0285392Y0203397D01*
X0285890Y0203435D01*
X0294263Y0203435D01*
X0295041Y0204214D01*
X0295041Y0215517D01*
X0295057Y0215532D01*
X0295057Y0232075D01*
X0295103Y0232131D01*
X0295057Y0232616D01*
X0295057Y0233103D01*
X0295005Y0233155D01*
X0294999Y0233227D01*
X0294623Y0233537D01*
X0294279Y0233881D01*
X0294206Y0233881D01*
X0287895Y0239097D01*
X0288984Y0239097D01*
X0291289Y0241402D01*
X0291289Y0244661D01*
X0290304Y0245647D01*
X0292714Y0248057D01*
X0302354Y0248031D01*
X0302354Y0188031D01*
X0268864Y0187539D01*
X0268864Y0189097D01*
X0268984Y0189097D01*
X0271289Y0191402D01*
X0271289Y0194661D01*
X0270064Y0195886D01*
X0274645Y0195886D01*
X0273420Y0194661D01*
X0273420Y0191402D01*
X0275725Y0189097D01*
X0278984Y0189097D01*
X0281289Y0191402D01*
X0281289Y0194661D01*
X0279083Y0196868D01*
X0281872Y0199657D01*
X0282604Y0200389D01*
X0282604Y0200558D01*
X0283280Y0201234D01*
X0283280Y0202829D01*
X0282152Y0203957D01*
X0280557Y0203957D01*
X0279429Y0202829D01*
X0279429Y0202429D01*
X0278652Y0203207D01*
X0277057Y0203207D01*
X0275979Y0202129D01*
X0274902Y0203207D01*
X0273307Y0203207D01*
X0272780Y0202679D01*
X0272780Y0202829D01*
X0271652Y0203957D01*
X0270057Y0203957D01*
X0268929Y0202829D01*
X0268929Y0201234D01*
X0269132Y0201031D01*
X0266077Y0201031D01*
X0266280Y0201234D01*
X0266280Y0202829D01*
X0265152Y0203957D01*
X0263557Y0203957D01*
X0262429Y0202829D01*
X0262429Y0201234D01*
X0262632Y0201031D01*
X0246087Y0201031D01*
X0240503Y0195447D01*
X0238984Y0196966D01*
X0235725Y0196966D01*
X0233420Y0194661D01*
X0233420Y0191402D01*
X0233716Y0191106D01*
X0232340Y0189730D01*
X0229617Y0189730D01*
X0231289Y0191402D01*
X0231289Y0194661D01*
X0228984Y0196966D01*
X0225725Y0196966D01*
X0223420Y0194661D01*
X0223420Y0191876D01*
X0221961Y0193335D01*
X0221961Y0248244D01*
X0221961Y0248101D02*
X0240703Y0248101D01*
X0240703Y0247434D02*
X0221961Y0247434D01*
X0221961Y0246766D02*
X0223767Y0246766D01*
X0223967Y0246966D02*
X0223420Y0246419D01*
X0223420Y0239644D01*
X0223967Y0239097D01*
X0230741Y0239097D01*
X0231289Y0239644D01*
X0231289Y0246419D01*
X0230741Y0246966D01*
X0223967Y0246966D01*
X0223420Y0246098D02*
X0221961Y0246098D01*
X0221961Y0245430D02*
X0223420Y0245430D01*
X0223420Y0244762D02*
X0221961Y0244762D01*
X0221961Y0244095D02*
X0223420Y0244095D01*
X0223420Y0243427D02*
X0221961Y0243427D01*
X0221961Y0242759D02*
X0223420Y0242759D01*
X0223420Y0242091D02*
X0221961Y0242091D01*
X0221961Y0241423D02*
X0223420Y0241423D01*
X0223420Y0240756D02*
X0221961Y0240756D01*
X0221961Y0240088D02*
X0223420Y0240088D01*
X0223644Y0239420D02*
X0221961Y0239420D01*
X0221961Y0238752D02*
X0235504Y0238752D01*
X0235559Y0238697D02*
X0237020Y0238697D01*
X0237020Y0242697D01*
X0233020Y0242697D01*
X0233020Y0241236D01*
X0235559Y0238697D01*
X0234836Y0239420D02*
X0231065Y0239420D01*
X0231289Y0240088D02*
X0234168Y0240088D01*
X0233500Y0240756D02*
X0231289Y0240756D01*
X0231289Y0241423D02*
X0233020Y0241423D01*
X0233020Y0242091D02*
X0231289Y0242091D01*
X0231289Y0242759D02*
X0237020Y0242759D01*
X0237020Y0243427D02*
X0237689Y0243427D01*
X0237689Y0244095D02*
X0237020Y0244095D01*
X0237020Y0244762D02*
X0237689Y0244762D01*
X0237689Y0245430D02*
X0237020Y0245430D01*
X0237020Y0246098D02*
X0237689Y0246098D01*
X0237689Y0246766D02*
X0237020Y0246766D01*
X0234958Y0246766D02*
X0230942Y0246766D01*
X0231289Y0246098D02*
X0234291Y0246098D01*
X0233623Y0245430D02*
X0231289Y0245430D01*
X0231289Y0244762D02*
X0233020Y0244762D01*
X0233020Y0244095D02*
X0231289Y0244095D01*
X0231289Y0243427D02*
X0233020Y0243427D01*
X0237020Y0242091D02*
X0237689Y0242091D01*
X0237689Y0241423D02*
X0237020Y0241423D01*
X0237020Y0240756D02*
X0237689Y0240756D01*
X0237689Y0240088D02*
X0237020Y0240088D01*
X0237020Y0239420D02*
X0237689Y0239420D01*
X0237689Y0238752D02*
X0237020Y0238752D01*
X0239205Y0238752D02*
X0240706Y0238752D01*
X0240706Y0238084D02*
X0221961Y0238084D01*
X0221961Y0237417D02*
X0240706Y0237417D01*
X0240706Y0236749D02*
X0221961Y0236749D01*
X0221961Y0236081D02*
X0239231Y0236081D01*
X0238563Y0235413D02*
X0221961Y0235413D01*
X0221961Y0234745D02*
X0238137Y0234745D01*
X0238137Y0234078D02*
X0221961Y0234078D01*
X0221961Y0233410D02*
X0238137Y0233410D01*
X0238455Y0232742D02*
X0221961Y0232742D01*
X0221961Y0232074D02*
X0238455Y0232074D01*
X0238455Y0231406D02*
X0221961Y0231406D01*
X0221961Y0230738D02*
X0238455Y0230738D01*
X0238455Y0230071D02*
X0221961Y0230071D01*
X0221961Y0229403D02*
X0238455Y0229403D01*
X0238455Y0228735D02*
X0221961Y0228735D01*
X0221961Y0228067D02*
X0238455Y0228067D01*
X0238455Y0227399D02*
X0221961Y0227399D01*
X0221961Y0226732D02*
X0238455Y0226732D01*
X0238455Y0226064D02*
X0221961Y0226064D01*
X0221961Y0225396D02*
X0238455Y0225396D01*
X0238455Y0224728D02*
X0221961Y0224728D01*
X0221961Y0224060D02*
X0238455Y0224060D01*
X0238455Y0223393D02*
X0221961Y0223393D01*
X0221961Y0222725D02*
X0238455Y0222725D01*
X0238455Y0222057D02*
X0221961Y0222057D01*
X0221961Y0221389D02*
X0238455Y0221389D01*
X0238455Y0220721D02*
X0221961Y0220721D01*
X0221961Y0220054D02*
X0238455Y0220054D01*
X0238455Y0219386D02*
X0221961Y0219386D01*
X0221961Y0218718D02*
X0238455Y0218718D01*
X0238100Y0218050D02*
X0221961Y0218050D01*
X0221961Y0217382D02*
X0237779Y0217382D01*
X0237779Y0216715D02*
X0221961Y0216715D01*
X0221961Y0216047D02*
X0237866Y0216047D01*
X0238534Y0215379D02*
X0221961Y0215379D01*
X0221961Y0214711D02*
X0246139Y0214711D01*
X0246159Y0214711D02*
X0249140Y0214711D01*
X0249140Y0214043D02*
X0221961Y0214043D01*
X0221961Y0213376D02*
X0249140Y0213376D01*
X0249140Y0212708D02*
X0221961Y0212708D01*
X0221961Y0212040D02*
X0249140Y0212040D01*
X0249140Y0211372D02*
X0221961Y0211372D01*
X0221961Y0210704D02*
X0249140Y0210704D01*
X0249140Y0210037D02*
X0221961Y0210037D01*
X0221961Y0209369D02*
X0249140Y0209369D01*
X0249140Y0208701D02*
X0221961Y0208701D01*
X0221961Y0208033D02*
X0249140Y0208033D01*
X0249140Y0207365D02*
X0221961Y0207365D01*
X0221961Y0206698D02*
X0249140Y0206698D01*
X0249140Y0206030D02*
X0221961Y0206030D01*
X0221961Y0205362D02*
X0249140Y0205362D01*
X0249140Y0204694D02*
X0221961Y0204694D01*
X0221961Y0204026D02*
X0249327Y0204026D01*
X0245743Y0200687D02*
X0221961Y0200687D01*
X0221961Y0200020D02*
X0245075Y0200020D01*
X0244407Y0199352D02*
X0221961Y0199352D01*
X0221961Y0198684D02*
X0243740Y0198684D01*
X0243072Y0198016D02*
X0221961Y0198016D01*
X0221961Y0197348D02*
X0242404Y0197348D01*
X0241736Y0196681D02*
X0239270Y0196681D01*
X0239937Y0196013D02*
X0241068Y0196013D01*
X0235439Y0196681D02*
X0229270Y0196681D01*
X0229937Y0196013D02*
X0234771Y0196013D01*
X0234103Y0195345D02*
X0230605Y0195345D01*
X0231273Y0194677D02*
X0233436Y0194677D01*
X0233420Y0194009D02*
X0231289Y0194009D01*
X0231289Y0193342D02*
X0233420Y0193342D01*
X0233420Y0192674D02*
X0231289Y0192674D01*
X0231289Y0192006D02*
X0233420Y0192006D01*
X0233483Y0191338D02*
X0231225Y0191338D01*
X0230558Y0190670D02*
X0233280Y0190670D01*
X0232612Y0190003D02*
X0229890Y0190003D01*
X0223420Y0192006D02*
X0223290Y0192006D01*
X0223420Y0192674D02*
X0222622Y0192674D01*
X0221961Y0193342D02*
X0223420Y0193342D01*
X0223420Y0194009D02*
X0221961Y0194009D01*
X0221961Y0194677D02*
X0223436Y0194677D01*
X0224103Y0195345D02*
X0221961Y0195345D01*
X0221961Y0196013D02*
X0224771Y0196013D01*
X0225439Y0196681D02*
X0221961Y0196681D01*
X0221961Y0201355D02*
X0262429Y0201355D01*
X0262429Y0202023D02*
X0221961Y0202023D01*
X0221961Y0202691D02*
X0262429Y0202691D01*
X0262959Y0203359D02*
X0221961Y0203359D01*
X0240875Y0215379D02*
X0244555Y0215379D01*
X0244032Y0216047D02*
X0241542Y0216047D01*
X0241630Y0216715D02*
X0243477Y0216715D01*
X0242921Y0217382D02*
X0241630Y0217382D01*
X0241308Y0218050D02*
X0242366Y0218050D01*
X0241810Y0218718D02*
X0240954Y0218718D01*
X0240954Y0219386D02*
X0241255Y0219386D01*
X0261568Y0219386D02*
X0277628Y0219386D01*
X0277628Y0220054D02*
X0261568Y0220054D01*
X0261568Y0220721D02*
X0277286Y0220721D01*
X0276554Y0221389D02*
X0262020Y0221389D01*
X0262688Y0222057D02*
X0275822Y0222057D01*
X0275089Y0222725D02*
X0263355Y0222725D01*
X0263545Y0223393D02*
X0274357Y0223393D01*
X0273624Y0224060D02*
X0263545Y0224060D01*
X0263545Y0224728D02*
X0272892Y0224728D01*
X0272160Y0225396D02*
X0263545Y0225396D01*
X0263545Y0226064D02*
X0271427Y0226064D01*
X0270695Y0226732D02*
X0263545Y0226732D01*
X0263545Y0227399D02*
X0269962Y0227399D01*
X0269230Y0228067D02*
X0263545Y0228067D01*
X0263545Y0228735D02*
X0268498Y0228735D01*
X0267765Y0229403D02*
X0263545Y0229403D01*
X0263545Y0230071D02*
X0267033Y0230071D01*
X0266300Y0230738D02*
X0263545Y0230738D01*
X0263545Y0231406D02*
X0265568Y0231406D01*
X0264836Y0232074D02*
X0263545Y0232074D01*
X0263545Y0232742D02*
X0264103Y0232742D01*
X0240706Y0239420D02*
X0239873Y0239420D01*
X0240541Y0240088D02*
X0240705Y0240088D01*
X0240704Y0246098D02*
X0240418Y0246098D01*
X0240704Y0246766D02*
X0239750Y0246766D01*
X0288312Y0238752D02*
X0295504Y0238752D01*
X0295559Y0238697D02*
X0297020Y0238697D01*
X0297020Y0242697D01*
X0297689Y0242697D01*
X0297689Y0243366D01*
X0301689Y0243366D01*
X0301689Y0244827D01*
X0299150Y0247366D01*
X0297689Y0247366D01*
X0297689Y0243366D01*
X0297020Y0243366D01*
X0297020Y0247366D01*
X0295559Y0247366D01*
X0293020Y0244827D01*
X0293020Y0243366D01*
X0297020Y0243366D01*
X0297020Y0242697D01*
X0293020Y0242697D01*
X0293020Y0241236D01*
X0295559Y0238697D01*
X0294836Y0239420D02*
X0289307Y0239420D01*
X0289975Y0240088D02*
X0294168Y0240088D01*
X0293500Y0240756D02*
X0290643Y0240756D01*
X0291289Y0241423D02*
X0293020Y0241423D01*
X0293020Y0242091D02*
X0291289Y0242091D01*
X0291289Y0242759D02*
X0297020Y0242759D01*
X0297020Y0243427D02*
X0297689Y0243427D01*
X0297689Y0244095D02*
X0297020Y0244095D01*
X0297020Y0244762D02*
X0297689Y0244762D01*
X0297689Y0245430D02*
X0297020Y0245430D01*
X0297020Y0246098D02*
X0297689Y0246098D01*
X0297689Y0246766D02*
X0297020Y0246766D01*
X0294958Y0246766D02*
X0291423Y0246766D01*
X0292090Y0247434D02*
X0302354Y0247434D01*
X0302354Y0246766D02*
X0299750Y0246766D01*
X0300418Y0246098D02*
X0302354Y0246098D01*
X0302354Y0245430D02*
X0301086Y0245430D01*
X0301689Y0244762D02*
X0302354Y0244762D01*
X0302354Y0244095D02*
X0301689Y0244095D01*
X0301689Y0243427D02*
X0302354Y0243427D01*
X0302354Y0242759D02*
X0297689Y0242759D01*
X0297689Y0242697D02*
X0301689Y0242697D01*
X0301689Y0241236D01*
X0299150Y0238697D01*
X0297689Y0238697D01*
X0297689Y0242697D01*
X0297689Y0242091D02*
X0297020Y0242091D01*
X0297020Y0241423D02*
X0297689Y0241423D01*
X0297689Y0240756D02*
X0297020Y0240756D01*
X0297020Y0240088D02*
X0297689Y0240088D01*
X0297689Y0239420D02*
X0297020Y0239420D01*
X0297020Y0238752D02*
X0297689Y0238752D01*
X0299205Y0238752D02*
X0302354Y0238752D01*
X0302354Y0238084D02*
X0289120Y0238084D01*
X0289928Y0237417D02*
X0302354Y0237417D01*
X0302354Y0236749D02*
X0290736Y0236749D01*
X0291544Y0236081D02*
X0302354Y0236081D01*
X0302354Y0235413D02*
X0292353Y0235413D01*
X0293161Y0234745D02*
X0302354Y0234745D01*
X0302354Y0234078D02*
X0293969Y0234078D01*
X0294777Y0233410D02*
X0302354Y0233410D01*
X0302354Y0232742D02*
X0295057Y0232742D01*
X0295057Y0232074D02*
X0302354Y0232074D01*
X0302354Y0231406D02*
X0295057Y0231406D01*
X0295057Y0230738D02*
X0302354Y0230738D01*
X0302354Y0230071D02*
X0295057Y0230071D01*
X0295057Y0229403D02*
X0302354Y0229403D01*
X0302354Y0228735D02*
X0295057Y0228735D01*
X0295057Y0228067D02*
X0302354Y0228067D01*
X0302354Y0227399D02*
X0295057Y0227399D01*
X0295057Y0226732D02*
X0302354Y0226732D01*
X0302354Y0226064D02*
X0295057Y0226064D01*
X0295057Y0225396D02*
X0302354Y0225396D01*
X0302354Y0224728D02*
X0295057Y0224728D01*
X0295057Y0224060D02*
X0302354Y0224060D01*
X0302354Y0223393D02*
X0295057Y0223393D01*
X0295057Y0222725D02*
X0302354Y0222725D01*
X0302354Y0222057D02*
X0295057Y0222057D01*
X0295057Y0221389D02*
X0302354Y0221389D01*
X0302354Y0220721D02*
X0295057Y0220721D01*
X0295057Y0220054D02*
X0302354Y0220054D01*
X0302354Y0219386D02*
X0295057Y0219386D01*
X0295057Y0218718D02*
X0302354Y0218718D01*
X0302354Y0218050D02*
X0295057Y0218050D01*
X0295057Y0217382D02*
X0302354Y0217382D01*
X0302354Y0216715D02*
X0295057Y0216715D01*
X0295057Y0216047D02*
X0302354Y0216047D01*
X0302354Y0215379D02*
X0295041Y0215379D01*
X0295041Y0214711D02*
X0302354Y0214711D01*
X0302354Y0214043D02*
X0295041Y0214043D01*
X0295041Y0213376D02*
X0302354Y0213376D01*
X0302354Y0212708D02*
X0295041Y0212708D01*
X0295041Y0212040D02*
X0302354Y0212040D01*
X0302354Y0211372D02*
X0295041Y0211372D01*
X0295041Y0210704D02*
X0302354Y0210704D01*
X0302354Y0210037D02*
X0295041Y0210037D01*
X0295041Y0209369D02*
X0302354Y0209369D01*
X0302354Y0208701D02*
X0295041Y0208701D01*
X0295041Y0208033D02*
X0302354Y0208033D01*
X0302354Y0207365D02*
X0295041Y0207365D01*
X0295041Y0206698D02*
X0302354Y0206698D01*
X0302354Y0206030D02*
X0295041Y0206030D01*
X0295041Y0205362D02*
X0302354Y0205362D01*
X0302354Y0204694D02*
X0295041Y0204694D01*
X0294854Y0204026D02*
X0302354Y0204026D01*
X0302354Y0203359D02*
X0282750Y0203359D01*
X0283280Y0202691D02*
X0286291Y0202691D01*
X0286557Y0202957D02*
X0285429Y0201829D01*
X0285429Y0200234D01*
X0286026Y0199637D01*
X0286026Y0196966D01*
X0285725Y0196966D01*
X0283420Y0194661D01*
X0283420Y0191402D01*
X0285725Y0189097D01*
X0288984Y0189097D01*
X0291289Y0191402D01*
X0291289Y0194661D01*
X0288984Y0196966D01*
X0288683Y0196966D01*
X0288683Y0199637D01*
X0289280Y0200234D01*
X0289280Y0201829D01*
X0288152Y0202957D01*
X0286557Y0202957D01*
X0285623Y0202023D02*
X0283280Y0202023D01*
X0283280Y0201355D02*
X0285429Y0201355D01*
X0285429Y0200687D02*
X0282733Y0200687D01*
X0282235Y0200020D02*
X0285644Y0200020D01*
X0286026Y0199352D02*
X0281567Y0199352D01*
X0280899Y0198684D02*
X0286026Y0198684D01*
X0286026Y0198016D02*
X0280231Y0198016D01*
X0279563Y0197348D02*
X0286026Y0197348D01*
X0285439Y0196681D02*
X0279270Y0196681D01*
X0279937Y0196013D02*
X0284771Y0196013D01*
X0284103Y0195345D02*
X0280605Y0195345D01*
X0281273Y0194677D02*
X0283436Y0194677D01*
X0283420Y0194009D02*
X0281289Y0194009D01*
X0281289Y0193342D02*
X0283420Y0193342D01*
X0283420Y0192674D02*
X0281289Y0192674D01*
X0281289Y0192006D02*
X0283420Y0192006D01*
X0283483Y0191338D02*
X0281225Y0191338D01*
X0280558Y0190670D02*
X0284151Y0190670D01*
X0284819Y0190003D02*
X0279890Y0190003D01*
X0279222Y0189335D02*
X0285487Y0189335D01*
X0289222Y0189335D02*
X0293729Y0189335D01*
X0293967Y0189097D02*
X0300741Y0189097D01*
X0301289Y0189644D01*
X0301289Y0196419D01*
X0300741Y0196966D01*
X0293967Y0196966D01*
X0293420Y0196419D01*
X0293420Y0189644D01*
X0293967Y0189097D01*
X0293420Y0190003D02*
X0289890Y0190003D01*
X0290558Y0190670D02*
X0293420Y0190670D01*
X0293420Y0191338D02*
X0291225Y0191338D01*
X0291289Y0192006D02*
X0293420Y0192006D01*
X0293420Y0192674D02*
X0291289Y0192674D01*
X0291289Y0193342D02*
X0293420Y0193342D01*
X0293420Y0194009D02*
X0291289Y0194009D01*
X0291273Y0194677D02*
X0293420Y0194677D01*
X0293420Y0195345D02*
X0290605Y0195345D01*
X0289937Y0196013D02*
X0293420Y0196013D01*
X0293682Y0196681D02*
X0289270Y0196681D01*
X0288683Y0197348D02*
X0302354Y0197348D01*
X0302354Y0196681D02*
X0301027Y0196681D01*
X0301289Y0196013D02*
X0302354Y0196013D01*
X0302354Y0195345D02*
X0301289Y0195345D01*
X0301289Y0194677D02*
X0302354Y0194677D01*
X0302354Y0194009D02*
X0301289Y0194009D01*
X0301289Y0193342D02*
X0302354Y0193342D01*
X0302354Y0192674D02*
X0301289Y0192674D01*
X0301289Y0192006D02*
X0302354Y0192006D01*
X0302354Y0191338D02*
X0301289Y0191338D01*
X0301289Y0190670D02*
X0302354Y0190670D01*
X0302354Y0190003D02*
X0301289Y0190003D01*
X0300979Y0189335D02*
X0302354Y0189335D01*
X0302354Y0188667D02*
X0268864Y0188667D01*
X0268864Y0187999D02*
X0300151Y0187999D01*
X0302354Y0198016D02*
X0288683Y0198016D01*
X0288683Y0198684D02*
X0302354Y0198684D01*
X0302354Y0199352D02*
X0288683Y0199352D01*
X0289065Y0200020D02*
X0302354Y0200020D01*
X0302354Y0200687D02*
X0289280Y0200687D01*
X0289280Y0201355D02*
X0302354Y0201355D01*
X0302354Y0202023D02*
X0289085Y0202023D01*
X0288418Y0202691D02*
X0302354Y0202691D01*
X0284658Y0204026D02*
X0255504Y0204026D01*
X0256233Y0204694D02*
X0283878Y0204694D01*
X0283099Y0205362D02*
X0256961Y0205362D01*
X0257690Y0206030D02*
X0282320Y0206030D01*
X0281541Y0206698D02*
X0258418Y0206698D01*
X0259147Y0207365D02*
X0280761Y0207365D01*
X0279982Y0208033D02*
X0259876Y0208033D01*
X0260604Y0208701D02*
X0279203Y0208701D01*
X0278371Y0209369D02*
X0261333Y0209369D01*
X0261568Y0210037D02*
X0277673Y0210037D01*
X0277621Y0210704D02*
X0261568Y0210704D01*
X0261568Y0211372D02*
X0277628Y0211372D01*
X0277628Y0212040D02*
X0261568Y0212040D01*
X0261568Y0212708D02*
X0277628Y0212708D01*
X0277628Y0213376D02*
X0261568Y0213376D01*
X0261568Y0214043D02*
X0277628Y0214043D01*
X0277628Y0214711D02*
X0261568Y0214711D01*
X0261568Y0215379D02*
X0277628Y0215379D01*
X0277628Y0216047D02*
X0261568Y0216047D01*
X0261568Y0216715D02*
X0277628Y0216715D01*
X0277628Y0217382D02*
X0261568Y0217382D01*
X0261568Y0218050D02*
X0277628Y0218050D01*
X0277628Y0218718D02*
X0261568Y0218718D01*
X0265750Y0203359D02*
X0269459Y0203359D01*
X0268929Y0202691D02*
X0266280Y0202691D01*
X0266280Y0202023D02*
X0268929Y0202023D01*
X0268929Y0201355D02*
X0266280Y0201355D01*
X0272250Y0203359D02*
X0279959Y0203359D01*
X0279429Y0202691D02*
X0279168Y0202691D01*
X0276541Y0202691D02*
X0275418Y0202691D01*
X0272791Y0202691D02*
X0272780Y0202691D01*
X0274103Y0195345D02*
X0270605Y0195345D01*
X0271273Y0194677D02*
X0273436Y0194677D01*
X0273420Y0194009D02*
X0271289Y0194009D01*
X0271289Y0193342D02*
X0273420Y0193342D01*
X0273420Y0192674D02*
X0271289Y0192674D01*
X0271289Y0192006D02*
X0273420Y0192006D01*
X0273483Y0191338D02*
X0271225Y0191338D01*
X0270558Y0190670D02*
X0274151Y0190670D01*
X0274819Y0190003D02*
X0269890Y0190003D01*
X0269222Y0189335D02*
X0275487Y0189335D01*
X0299873Y0239420D02*
X0302354Y0239420D01*
X0302354Y0240088D02*
X0300541Y0240088D01*
X0301208Y0240756D02*
X0302354Y0240756D01*
X0302354Y0241423D02*
X0301689Y0241423D01*
X0301689Y0242091D02*
X0302354Y0242091D01*
X0294291Y0246098D02*
X0290755Y0246098D01*
X0290520Y0245430D02*
X0293623Y0245430D01*
X0293020Y0244762D02*
X0291188Y0244762D01*
X0291289Y0244095D02*
X0293020Y0244095D01*
X0293020Y0243427D02*
X0291289Y0243427D01*
D32*
X0276488Y0220035D03*
X0276488Y0217083D03*
X0276488Y0214130D03*
X0276488Y0211177D03*
X0273043Y0211177D03*
X0273043Y0214130D03*
X0273043Y0217083D03*
X0273043Y0220035D03*
X0269598Y0220035D03*
X0269598Y0217083D03*
X0269598Y0214130D03*
X0269598Y0211130D03*
X0266154Y0211177D03*
X0266154Y0214130D03*
X0266154Y0217083D03*
X0266154Y0220035D03*
X0262709Y0220035D03*
X0262709Y0217083D03*
X0262709Y0214130D03*
X0262709Y0211177D03*
D33*
X0314386Y0206512D03*
X0314780Y0214386D03*
X0323835Y0215961D03*
X0335252Y0210449D03*
X0324622Y0209268D03*
X0313598Y0195488D03*
X0313992Y0189583D03*
X0342142Y0187417D03*
X0358874Y0181118D03*
X0351984Y0174228D03*
X0361827Y0171276D03*
X0370685Y0173047D03*
X0381709Y0169504D03*
X0375409Y0162417D03*
X0365567Y0162811D03*
X0356906Y0162417D03*
X0361630Y0156512D03*
X0373835Y0152575D03*
X0360449Y0147850D03*
X0348638Y0147850D03*
X0332496Y0148638D03*
X0321669Y0154740D03*
X0305921Y0144504D03*
X0276984Y0135252D03*
X0272260Y0147850D03*
X0263992Y0147850D03*
X0251197Y0158677D03*
X0226591Y0151394D03*
X0219504Y0133677D03*
X0219504Y0124228D03*
X0240764Y0126984D03*
X0240567Y0119701D03*
X0272260Y0120291D03*
X0271866Y0112024D03*
X0266157Y0100016D03*
X0282890Y0080528D03*
X0249819Y0079740D03*
X0393913Y0145488D03*
X0409661Y0148638D03*
X0422260Y0147850D03*
X0413992Y0157299D03*
X0419110Y0163598D03*
X0402181Y0162811D03*
X0387220Y0181709D03*
X0426591Y0183283D03*
X0385449Y0202181D03*
X0185646Y0225803D03*
X0171866Y0225803D03*
X0175803Y0298638D03*
X0161039Y0301591D03*
X0163992Y0312417D03*
X0189386Y0306709D03*
X0129543Y0311433D03*
X0129543Y0301591D03*
D34*
X0122457Y0301591D01*
X0122457Y0301512D01*
X0122457Y0311433D02*
X0122457Y0311512D01*
X0122457Y0311433D02*
X0129543Y0311433D01*
X0153953Y0311512D02*
X0163087Y0311512D01*
X0163992Y0312417D01*
X0174031Y0306512D02*
X0174031Y0300409D01*
X0175803Y0298638D01*
X0161039Y0301591D02*
X0153244Y0301512D01*
X0154150Y0301512D02*
X0158283Y0301512D01*
X0284705Y0217600D02*
X0284705Y0217392D01*
X0284705Y0217600D02*
X0288136Y0217600D01*
X0342142Y0187417D02*
X0345094Y0184465D01*
X0380528Y0184465D01*
X0385449Y0189386D01*
X0385449Y0202181D01*
D35*
X0154150Y0301512D02*
X0153953Y0301512D01*
X0153244Y0301512D01*
D36*
X0351000Y0205724D03*
X0351000Y0201394D03*
X0356512Y0202575D03*
X0359268Y0198244D03*
X0354543Y0194701D03*
X0360843Y0191157D03*
X0364780Y0194701D03*
X0370685Y0194307D03*
X0371472Y0190370D03*
X0365567Y0188402D03*
X0377378Y0188402D03*
X0377378Y0193126D03*
X0377378Y0197063D03*
X0377378Y0207693D03*
X0362417Y0204543D03*
X0299228Y0124819D03*
X0158283Y0195685D03*
D37*
X0136748Y0282890D02*
X0142535Y0288677D01*
X0142535Y0306512D01*
D38*
X0247457Y0251000D02*
X0247457Y0243134D01*
X0247354Y0243031D01*
X0257354Y0243031D02*
X0258087Y0243764D01*
X0258087Y0250213D01*
X0285843Y0277969D01*
X0285843Y0292535D01*
X0277102Y0301276D01*
X0277102Y0308480D01*
X0267102Y0308480D02*
X0267102Y0299858D01*
X0276984Y0289976D01*
X0276984Y0280528D01*
X0247457Y0251000D01*
X0267354Y0248457D02*
X0267354Y0243031D01*
X0267354Y0248457D02*
X0294701Y0275803D01*
X0294701Y0295488D01*
X0287102Y0303087D01*
X0287102Y0308480D01*
X0297102Y0308480D02*
X0297102Y0304898D01*
X0302969Y0299031D01*
X0302969Y0272654D01*
X0278165Y0247850D01*
X0278165Y0239976D01*
D39*
X0240062Y0234189D02*
X0239704Y0233831D01*
X0239704Y0216931D01*
X0246604Y0199781D02*
X0239854Y0193031D01*
X0237354Y0193031D01*
X0247354Y0193031D02*
X0247457Y0193134D01*
X0252850Y0198528D01*
X0275100Y0198528D01*
X0277854Y0201281D01*
X0281354Y0200906D02*
X0281354Y0202031D01*
X0281354Y0200906D02*
X0277584Y0197136D01*
X0261459Y0197136D01*
X0257354Y0193031D01*
X0246604Y0199781D02*
X0272604Y0199781D01*
X0274104Y0201281D01*
D40*
X0251854Y0221531D03*
M02*
