G75*
%MOIN*%
%OFA0B0*%
%FSLAX25Y25*%
%IPPOS*%
%LPD*%
%AMOC8*
5,1,8,0,0,1.08239X$1,22.5*
%
%ADD10C,0.12611*%
%ADD11R,0.04600X0.06800*%
%ADD12R,0.06800X0.04600*%
%ADD13OC8,0.06800*%
%ADD14R,0.05000X0.04300*%
%ADD15C,0.07887*%
%ADD16C,0.07800*%
%ADD17C,0.13068*%
%ADD18C,0.06500*%
%ADD19R,0.02965X0.05957*%
%ADD20R,0.04501X0.05957*%
%ADD21R,0.08200X0.08200*%
%ADD22C,0.08200*%
%ADD23C,0.11824*%
%ADD24R,0.06800X0.06800*%
%ADD25R,0.03500X0.03800*%
%ADD26C,0.00365*%
%ADD27R,0.01824X0.03556*%
%ADD28C,0.00632*%
%ADD29R,0.18504X0.14567*%
%ADD30R,0.07296X0.10249*%
%ADD31R,0.03950X0.01902*%
%ADD32R,0.03300X0.07800*%
%ADD33R,0.15957X0.22454*%
%ADD34R,0.05600X0.04400*%
%ADD35R,0.22454X0.15957*%
%ADD36R,0.05800X0.14186*%
%ADD37OC8,0.17005*%
%ADD38OC8,0.14052*%
%ADD39C,0.07099*%
%ADD40OC8,0.15036*%
%ADD41OC8,0.06706*%
%ADD42C,0.06706*%
%ADD43R,0.14186X0.05800*%
%ADD44C,0.01360*%
%ADD45R,0.11824X0.08674*%
%ADD46R,0.08674X0.11824*%
D10*
X0888128Y0109496D03*
X1235923Y0109496D03*
X0986317Y0335677D03*
X0958758Y0335677D03*
X0888128Y0343906D03*
X1235923Y0343906D03*
D11*
X0760928Y0179339D03*
X0752728Y0179339D03*
X0675456Y0167567D03*
X0667256Y0167567D03*
X0667256Y0158118D03*
X0675456Y0158118D03*
X0697177Y0133709D03*
X0705377Y0133709D03*
X0712925Y0133709D03*
X0721125Y0133709D03*
X0721125Y0123866D03*
X0712925Y0123866D03*
X0705377Y0123866D03*
X0697177Y0123866D03*
X0697177Y0114024D03*
X0705377Y0114024D03*
X0712925Y0114024D03*
X0721125Y0114024D03*
X0731179Y0246528D03*
X0739379Y0246528D03*
X0693858Y0246035D03*
X0685658Y0246035D03*
D12*
X0693797Y0188202D03*
X0693797Y0180002D03*
X0706395Y0177179D03*
X0715450Y0177179D03*
X0715450Y0168979D03*
X0706395Y0168979D03*
X0675293Y0176853D03*
X0675293Y0185053D03*
X0709545Y0154344D03*
X0709545Y0146144D03*
D13*
X0514269Y0221071D03*
X0514269Y0231071D03*
X0514269Y0241071D03*
X0514269Y0251071D03*
X0670151Y0226921D03*
X0680151Y0226921D03*
X0690151Y0226921D03*
X0700151Y0226921D03*
X0710151Y0226921D03*
X0720151Y0226921D03*
X0730151Y0226921D03*
X0856789Y0262409D03*
X0856789Y0272409D03*
X0856789Y0282409D03*
X0856789Y0292409D03*
X0740151Y0276921D03*
X0730151Y0276921D03*
X0720151Y0276921D03*
X0710151Y0276921D03*
X0700151Y0276921D03*
X0690151Y0276921D03*
X0680151Y0276921D03*
X0709899Y0342370D03*
X0719899Y0342370D03*
X0729899Y0342370D03*
X0739899Y0342370D03*
X1046513Y0342370D03*
X1056513Y0342370D03*
X1066513Y0342370D03*
X1076513Y0342370D03*
D14*
X0741041Y0268211D03*
X0741041Y0261411D03*
X0628443Y0255219D03*
X0614663Y0255219D03*
X0614663Y0248419D03*
X0628443Y0248419D03*
X0687891Y0152857D03*
X0687891Y0146057D03*
D15*
X0742616Y0112055D03*
X0752458Y0112055D03*
X0762301Y0112055D03*
D16*
X0760332Y0169142D03*
X0752458Y0169142D03*
X0744584Y0169142D03*
X0736710Y0169142D03*
X0768206Y0169142D03*
D17*
X0774309Y0141583D03*
X0730608Y0141583D03*
D18*
X0645844Y0137213D03*
X0645844Y0147213D03*
X0635844Y0147213D03*
X0635844Y0157213D03*
X0645844Y0157213D03*
X0645844Y0167213D03*
X0645844Y0177213D03*
X0645844Y0187213D03*
X0645844Y0197213D03*
X0645844Y0207213D03*
X0625844Y0207213D03*
X0615844Y0207213D03*
X0615844Y0197213D03*
X0625844Y0197213D03*
X0625844Y0187213D03*
X0615844Y0187213D03*
X0615844Y0177213D03*
X0625844Y0177213D03*
X0625844Y0167213D03*
X0615844Y0167213D03*
X0585844Y0167213D03*
X0585844Y0177213D03*
X0585844Y0187213D03*
X0585844Y0197213D03*
X0585844Y0207213D03*
X0585844Y0217213D03*
X0585844Y0227213D03*
X0585844Y0237213D03*
X0615844Y0227213D03*
X0625844Y0227213D03*
X0625844Y0217213D03*
X0615844Y0217213D03*
X0645844Y0217213D03*
X0645844Y0227213D03*
X0645844Y0237213D03*
X0585844Y0157213D03*
X0585844Y0147213D03*
X0585844Y0137213D03*
X0585844Y0127213D03*
X0585844Y0117213D03*
X0585844Y0107213D03*
X0645844Y0107213D03*
X0645844Y0117213D03*
X0645844Y0127213D03*
D19*
X0694348Y0145520D03*
X0694348Y0153394D03*
X0701907Y0153394D03*
D20*
X0701159Y0145520D03*
D21*
X0559545Y0316780D03*
D22*
X0569545Y0316780D03*
X0579545Y0316780D03*
X0589545Y0316780D03*
X0599545Y0316780D03*
X0609545Y0316780D03*
X0619545Y0316780D03*
X0629545Y0316780D03*
X0639545Y0316780D03*
X0649545Y0316780D03*
X0659545Y0316780D03*
X0669545Y0316780D03*
X0679545Y0316780D03*
X0689545Y0316780D03*
X0699545Y0316780D03*
X0709545Y0316780D03*
D23*
X0833167Y0316780D03*
X0537891Y0316780D03*
X0537891Y0194732D03*
X0833167Y0194732D03*
D24*
X0740151Y0226921D03*
X0670151Y0276921D03*
D25*
X0712169Y0268748D03*
X0716369Y0268748D03*
X0716369Y0264024D03*
X0712169Y0264024D03*
X0721224Y0264024D03*
X0725424Y0264024D03*
X0725424Y0268748D03*
X0721224Y0268748D03*
X0730280Y0268748D03*
X0734480Y0268748D03*
X0734480Y0264024D03*
X0730280Y0264024D03*
X0732248Y0256937D03*
X0736448Y0256937D03*
X0690863Y0255441D03*
X0686663Y0255441D03*
X0615960Y0347366D03*
X0611760Y0347366D03*
D26*
X0699382Y0257116D02*
X0702574Y0257116D01*
X0702574Y0255656D01*
X0699382Y0255656D01*
X0699382Y0257116D01*
X0699382Y0256020D02*
X0702574Y0256020D01*
X0702574Y0256384D02*
X0699382Y0256384D01*
X0699382Y0256748D02*
X0702574Y0256748D01*
X0702574Y0257112D02*
X0699382Y0257112D01*
X0699382Y0255147D02*
X0702574Y0255147D01*
X0702574Y0253687D01*
X0699382Y0253687D01*
X0699382Y0255147D01*
X0699382Y0254051D02*
X0702574Y0254051D01*
X0702574Y0254415D02*
X0699382Y0254415D01*
X0699382Y0254779D02*
X0702574Y0254779D01*
X0702574Y0255143D02*
X0699382Y0255143D01*
X0699382Y0253179D02*
X0702574Y0253179D01*
X0702574Y0251719D01*
X0699382Y0251719D01*
X0699382Y0253179D01*
X0699382Y0252083D02*
X0702574Y0252083D01*
X0702574Y0252447D02*
X0699382Y0252447D01*
X0699382Y0252811D02*
X0702574Y0252811D01*
X0702574Y0253175D02*
X0699382Y0253175D01*
X0699382Y0251210D02*
X0702574Y0251210D01*
X0702574Y0249750D01*
X0699382Y0249750D01*
X0699382Y0251210D01*
X0699382Y0250114D02*
X0702574Y0250114D01*
X0702574Y0250478D02*
X0699382Y0250478D01*
X0699382Y0250842D02*
X0702574Y0250842D01*
X0702574Y0251206D02*
X0699382Y0251206D01*
X0699382Y0249242D02*
X0702574Y0249242D01*
X0702574Y0247782D01*
X0699382Y0247782D01*
X0699382Y0249242D01*
X0699382Y0248146D02*
X0702574Y0248146D01*
X0702574Y0248510D02*
X0699382Y0248510D01*
X0699382Y0248874D02*
X0702574Y0248874D01*
X0702574Y0249238D02*
X0699382Y0249238D01*
X0699382Y0247273D02*
X0702574Y0247273D01*
X0702574Y0245813D01*
X0699382Y0245813D01*
X0699382Y0247273D01*
X0699382Y0246177D02*
X0702574Y0246177D01*
X0702574Y0246541D02*
X0699382Y0246541D01*
X0699382Y0246905D02*
X0702574Y0246905D01*
X0702574Y0247269D02*
X0699382Y0247269D01*
X0699382Y0245305D02*
X0704542Y0245305D01*
X0704542Y0243845D01*
X0699382Y0243845D01*
X0699382Y0245305D01*
X0699382Y0244209D02*
X0704542Y0244209D01*
X0704542Y0244573D02*
X0699382Y0244573D01*
X0699382Y0244937D02*
X0704542Y0244937D01*
X0704542Y0245301D02*
X0699382Y0245301D01*
X0699382Y0243336D02*
X0702574Y0243336D01*
X0702574Y0241876D01*
X0699382Y0241876D01*
X0699382Y0243336D01*
X0699382Y0242240D02*
X0702574Y0242240D01*
X0702574Y0242604D02*
X0699382Y0242604D01*
X0699382Y0242968D02*
X0702574Y0242968D01*
X0702574Y0243332D02*
X0699382Y0243332D01*
X0702807Y0241643D02*
X0702807Y0238451D01*
X0702807Y0241643D02*
X0704267Y0241643D01*
X0704267Y0238451D01*
X0702807Y0238451D01*
X0702807Y0238815D02*
X0704267Y0238815D01*
X0704267Y0239179D02*
X0702807Y0239179D01*
X0702807Y0239543D02*
X0704267Y0239543D01*
X0704267Y0239907D02*
X0702807Y0239907D01*
X0702807Y0240271D02*
X0704267Y0240271D01*
X0704267Y0240635D02*
X0702807Y0240635D01*
X0702807Y0240999D02*
X0704267Y0240999D01*
X0704267Y0241363D02*
X0702807Y0241363D01*
X0704776Y0241643D02*
X0704776Y0238451D01*
X0704776Y0241643D02*
X0706236Y0241643D01*
X0706236Y0238451D01*
X0704776Y0238451D01*
X0704776Y0238815D02*
X0706236Y0238815D01*
X0706236Y0239179D02*
X0704776Y0239179D01*
X0704776Y0239543D02*
X0706236Y0239543D01*
X0706236Y0239907D02*
X0704776Y0239907D01*
X0704776Y0240271D02*
X0706236Y0240271D01*
X0706236Y0240635D02*
X0704776Y0240635D01*
X0704776Y0240999D02*
X0706236Y0240999D01*
X0706236Y0241363D02*
X0704776Y0241363D01*
X0706744Y0241643D02*
X0706744Y0238451D01*
X0706744Y0241643D02*
X0708204Y0241643D01*
X0708204Y0238451D01*
X0706744Y0238451D01*
X0706744Y0238815D02*
X0708204Y0238815D01*
X0708204Y0239179D02*
X0706744Y0239179D01*
X0706744Y0239543D02*
X0708204Y0239543D01*
X0708204Y0239907D02*
X0706744Y0239907D01*
X0706744Y0240271D02*
X0708204Y0240271D01*
X0708204Y0240635D02*
X0706744Y0240635D01*
X0706744Y0240999D02*
X0708204Y0240999D01*
X0708204Y0241363D02*
X0706744Y0241363D01*
X0708713Y0241643D02*
X0708713Y0238451D01*
X0708713Y0241643D02*
X0710173Y0241643D01*
X0710173Y0238451D01*
X0708713Y0238451D01*
X0708713Y0238815D02*
X0710173Y0238815D01*
X0710173Y0239179D02*
X0708713Y0239179D01*
X0708713Y0239543D02*
X0710173Y0239543D01*
X0710173Y0239907D02*
X0708713Y0239907D01*
X0708713Y0240271D02*
X0710173Y0240271D01*
X0710173Y0240635D02*
X0708713Y0240635D01*
X0708713Y0240999D02*
X0710173Y0240999D01*
X0710173Y0241363D02*
X0708713Y0241363D01*
X0710681Y0241643D02*
X0710681Y0238451D01*
X0710681Y0241643D02*
X0712141Y0241643D01*
X0712141Y0238451D01*
X0710681Y0238451D01*
X0710681Y0238815D02*
X0712141Y0238815D01*
X0712141Y0239179D02*
X0710681Y0239179D01*
X0710681Y0239543D02*
X0712141Y0239543D01*
X0712141Y0239907D02*
X0710681Y0239907D01*
X0710681Y0240271D02*
X0712141Y0240271D01*
X0712141Y0240635D02*
X0710681Y0240635D01*
X0710681Y0240999D02*
X0712141Y0240999D01*
X0712141Y0241363D02*
X0710681Y0241363D01*
X0712650Y0241643D02*
X0712650Y0238451D01*
X0712650Y0241643D02*
X0714110Y0241643D01*
X0714110Y0238451D01*
X0712650Y0238451D01*
X0712650Y0238815D02*
X0714110Y0238815D01*
X0714110Y0239179D02*
X0712650Y0239179D01*
X0712650Y0239543D02*
X0714110Y0239543D01*
X0714110Y0239907D02*
X0712650Y0239907D01*
X0712650Y0240271D02*
X0714110Y0240271D01*
X0714110Y0240635D02*
X0712650Y0240635D01*
X0712650Y0240999D02*
X0714110Y0240999D01*
X0714110Y0241363D02*
X0712650Y0241363D01*
X0714618Y0241643D02*
X0714618Y0238451D01*
X0714618Y0241643D02*
X0716078Y0241643D01*
X0716078Y0238451D01*
X0714618Y0238451D01*
X0714618Y0238815D02*
X0716078Y0238815D01*
X0716078Y0239179D02*
X0714618Y0239179D01*
X0714618Y0239543D02*
X0716078Y0239543D01*
X0716078Y0239907D02*
X0714618Y0239907D01*
X0714618Y0240271D02*
X0716078Y0240271D01*
X0716078Y0240635D02*
X0714618Y0240635D01*
X0714618Y0240999D02*
X0716078Y0240999D01*
X0716078Y0241363D02*
X0714618Y0241363D01*
X0716587Y0241643D02*
X0716587Y0238451D01*
X0716587Y0241643D02*
X0718047Y0241643D01*
X0718047Y0238451D01*
X0716587Y0238451D01*
X0716587Y0238815D02*
X0718047Y0238815D01*
X0718047Y0239179D02*
X0716587Y0239179D01*
X0716587Y0239543D02*
X0718047Y0239543D01*
X0718047Y0239907D02*
X0716587Y0239907D01*
X0716587Y0240271D02*
X0718047Y0240271D01*
X0718047Y0240635D02*
X0716587Y0240635D01*
X0716587Y0240999D02*
X0718047Y0240999D01*
X0718047Y0241363D02*
X0716587Y0241363D01*
X0718555Y0241643D02*
X0718555Y0238451D01*
X0718555Y0241643D02*
X0720015Y0241643D01*
X0720015Y0238451D01*
X0718555Y0238451D01*
X0718555Y0238815D02*
X0720015Y0238815D01*
X0720015Y0239179D02*
X0718555Y0239179D01*
X0718555Y0239543D02*
X0720015Y0239543D01*
X0720015Y0239907D02*
X0718555Y0239907D01*
X0718555Y0240271D02*
X0720015Y0240271D01*
X0720015Y0240635D02*
X0718555Y0240635D01*
X0718555Y0240999D02*
X0720015Y0240999D01*
X0720015Y0241363D02*
X0718555Y0241363D01*
X0720524Y0241643D02*
X0720524Y0238451D01*
X0720524Y0241643D02*
X0721984Y0241643D01*
X0721984Y0238451D01*
X0720524Y0238451D01*
X0720524Y0238815D02*
X0721984Y0238815D01*
X0721984Y0239179D02*
X0720524Y0239179D01*
X0720524Y0239543D02*
X0721984Y0239543D01*
X0721984Y0239907D02*
X0720524Y0239907D01*
X0720524Y0240271D02*
X0721984Y0240271D01*
X0721984Y0240635D02*
X0720524Y0240635D01*
X0720524Y0240999D02*
X0721984Y0240999D01*
X0721984Y0241363D02*
X0720524Y0241363D01*
X0722217Y0241876D02*
X0725409Y0241876D01*
X0722217Y0241876D02*
X0722217Y0243336D01*
X0725409Y0243336D01*
X0725409Y0241876D01*
X0725409Y0242240D02*
X0722217Y0242240D01*
X0722217Y0242604D02*
X0725409Y0242604D01*
X0725409Y0242968D02*
X0722217Y0242968D01*
X0722217Y0243332D02*
X0725409Y0243332D01*
X0725408Y0243845D02*
X0720248Y0243845D01*
X0720248Y0245305D01*
X0725408Y0245305D01*
X0725408Y0243845D01*
X0725408Y0244209D02*
X0720248Y0244209D01*
X0720248Y0244573D02*
X0725408Y0244573D01*
X0725408Y0244937D02*
X0720248Y0244937D01*
X0720248Y0245301D02*
X0725408Y0245301D01*
X0725409Y0245813D02*
X0722217Y0245813D01*
X0722217Y0247273D01*
X0725409Y0247273D01*
X0725409Y0245813D01*
X0725409Y0246177D02*
X0722217Y0246177D01*
X0722217Y0246541D02*
X0725409Y0246541D01*
X0725409Y0246905D02*
X0722217Y0246905D01*
X0722217Y0247269D02*
X0725409Y0247269D01*
X0725409Y0247782D02*
X0722217Y0247782D01*
X0722217Y0249242D01*
X0725409Y0249242D01*
X0725409Y0247782D01*
X0725409Y0248146D02*
X0722217Y0248146D01*
X0722217Y0248510D02*
X0725409Y0248510D01*
X0725409Y0248874D02*
X0722217Y0248874D01*
X0722217Y0249238D02*
X0725409Y0249238D01*
X0725409Y0249750D02*
X0722217Y0249750D01*
X0722217Y0251210D01*
X0725409Y0251210D01*
X0725409Y0249750D01*
X0725409Y0250114D02*
X0722217Y0250114D01*
X0722217Y0250478D02*
X0725409Y0250478D01*
X0725409Y0250842D02*
X0722217Y0250842D01*
X0722217Y0251206D02*
X0725409Y0251206D01*
X0725409Y0251719D02*
X0722217Y0251719D01*
X0722217Y0253179D01*
X0725409Y0253179D01*
X0725409Y0251719D01*
X0725409Y0252083D02*
X0722217Y0252083D01*
X0722217Y0252447D02*
X0725409Y0252447D01*
X0725409Y0252811D02*
X0722217Y0252811D01*
X0722217Y0253175D02*
X0725409Y0253175D01*
X0725409Y0253687D02*
X0722217Y0253687D01*
X0722217Y0255147D01*
X0725409Y0255147D01*
X0725409Y0253687D01*
X0725409Y0254051D02*
X0722217Y0254051D01*
X0722217Y0254415D02*
X0725409Y0254415D01*
X0725409Y0254779D02*
X0722217Y0254779D01*
X0722217Y0255143D02*
X0725409Y0255143D01*
X0725409Y0255656D02*
X0722217Y0255656D01*
X0722217Y0257116D01*
X0725409Y0257116D01*
X0725409Y0255656D01*
X0725409Y0256020D02*
X0722217Y0256020D01*
X0722217Y0256384D02*
X0725409Y0256384D01*
X0725409Y0256748D02*
X0722217Y0256748D01*
X0722217Y0257112D02*
X0725409Y0257112D01*
X0720015Y0257349D02*
X0720015Y0260541D01*
X0720015Y0257349D02*
X0718555Y0257349D01*
X0718555Y0260541D01*
X0720015Y0260541D01*
X0720015Y0257713D02*
X0718555Y0257713D01*
X0718555Y0258077D02*
X0720015Y0258077D01*
X0720015Y0258441D02*
X0718555Y0258441D01*
X0718555Y0258805D02*
X0720015Y0258805D01*
X0720015Y0259169D02*
X0718555Y0259169D01*
X0718555Y0259533D02*
X0720015Y0259533D01*
X0720015Y0259897D02*
X0718555Y0259897D01*
X0718555Y0260261D02*
X0720015Y0260261D01*
X0718047Y0260541D02*
X0718047Y0257349D01*
X0716587Y0257349D01*
X0716587Y0260541D01*
X0718047Y0260541D01*
X0718047Y0257713D02*
X0716587Y0257713D01*
X0716587Y0258077D02*
X0718047Y0258077D01*
X0718047Y0258441D02*
X0716587Y0258441D01*
X0716587Y0258805D02*
X0718047Y0258805D01*
X0718047Y0259169D02*
X0716587Y0259169D01*
X0716587Y0259533D02*
X0718047Y0259533D01*
X0718047Y0259897D02*
X0716587Y0259897D01*
X0716587Y0260261D02*
X0718047Y0260261D01*
X0716078Y0260541D02*
X0716078Y0257349D01*
X0714618Y0257349D01*
X0714618Y0260541D01*
X0716078Y0260541D01*
X0716078Y0257713D02*
X0714618Y0257713D01*
X0714618Y0258077D02*
X0716078Y0258077D01*
X0716078Y0258441D02*
X0714618Y0258441D01*
X0714618Y0258805D02*
X0716078Y0258805D01*
X0716078Y0259169D02*
X0714618Y0259169D01*
X0714618Y0259533D02*
X0716078Y0259533D01*
X0716078Y0259897D02*
X0714618Y0259897D01*
X0714618Y0260261D02*
X0716078Y0260261D01*
X0714110Y0260541D02*
X0714110Y0255381D01*
X0712650Y0255381D01*
X0712650Y0260541D01*
X0714110Y0260541D01*
X0714110Y0255745D02*
X0712650Y0255745D01*
X0712650Y0256109D02*
X0714110Y0256109D01*
X0714110Y0256473D02*
X0712650Y0256473D01*
X0712650Y0256837D02*
X0714110Y0256837D01*
X0714110Y0257201D02*
X0712650Y0257201D01*
X0712650Y0257565D02*
X0714110Y0257565D01*
X0714110Y0257929D02*
X0712650Y0257929D01*
X0712650Y0258293D02*
X0714110Y0258293D01*
X0714110Y0258657D02*
X0712650Y0258657D01*
X0712650Y0259021D02*
X0714110Y0259021D01*
X0714110Y0259385D02*
X0712650Y0259385D01*
X0712650Y0259749D02*
X0714110Y0259749D01*
X0714110Y0260113D02*
X0712650Y0260113D01*
X0712650Y0260477D02*
X0714110Y0260477D01*
X0712141Y0260541D02*
X0712141Y0257349D01*
X0710681Y0257349D01*
X0710681Y0260541D01*
X0712141Y0260541D01*
X0712141Y0257713D02*
X0710681Y0257713D01*
X0710681Y0258077D02*
X0712141Y0258077D01*
X0712141Y0258441D02*
X0710681Y0258441D01*
X0710681Y0258805D02*
X0712141Y0258805D01*
X0712141Y0259169D02*
X0710681Y0259169D01*
X0710681Y0259533D02*
X0712141Y0259533D01*
X0712141Y0259897D02*
X0710681Y0259897D01*
X0710681Y0260261D02*
X0712141Y0260261D01*
X0710173Y0260541D02*
X0710173Y0257349D01*
X0708713Y0257349D01*
X0708713Y0260541D01*
X0710173Y0260541D01*
X0710173Y0257713D02*
X0708713Y0257713D01*
X0708713Y0258077D02*
X0710173Y0258077D01*
X0710173Y0258441D02*
X0708713Y0258441D01*
X0708713Y0258805D02*
X0710173Y0258805D01*
X0710173Y0259169D02*
X0708713Y0259169D01*
X0708713Y0259533D02*
X0710173Y0259533D01*
X0710173Y0259897D02*
X0708713Y0259897D01*
X0708713Y0260261D02*
X0710173Y0260261D01*
X0708204Y0260541D02*
X0708204Y0257349D01*
X0706744Y0257349D01*
X0706744Y0260541D01*
X0708204Y0260541D01*
X0708204Y0257713D02*
X0706744Y0257713D01*
X0706744Y0258077D02*
X0708204Y0258077D01*
X0708204Y0258441D02*
X0706744Y0258441D01*
X0706744Y0258805D02*
X0708204Y0258805D01*
X0708204Y0259169D02*
X0706744Y0259169D01*
X0706744Y0259533D02*
X0708204Y0259533D01*
X0708204Y0259897D02*
X0706744Y0259897D01*
X0706744Y0260261D02*
X0708204Y0260261D01*
X0706236Y0260541D02*
X0706236Y0257349D01*
X0704776Y0257349D01*
X0704776Y0260541D01*
X0706236Y0260541D01*
X0706236Y0257713D02*
X0704776Y0257713D01*
X0704776Y0258077D02*
X0706236Y0258077D01*
X0706236Y0258441D02*
X0704776Y0258441D01*
X0704776Y0258805D02*
X0706236Y0258805D01*
X0706236Y0259169D02*
X0704776Y0259169D01*
X0704776Y0259533D02*
X0706236Y0259533D01*
X0706236Y0259897D02*
X0704776Y0259897D01*
X0704776Y0260261D02*
X0706236Y0260261D01*
X0704267Y0260541D02*
X0704267Y0257349D01*
X0702807Y0257349D01*
X0702807Y0260541D01*
X0704267Y0260541D01*
X0704267Y0257713D02*
X0702807Y0257713D01*
X0702807Y0258077D02*
X0704267Y0258077D01*
X0704267Y0258441D02*
X0702807Y0258441D01*
X0702807Y0258805D02*
X0704267Y0258805D01*
X0704267Y0259169D02*
X0702807Y0259169D01*
X0702807Y0259533D02*
X0704267Y0259533D01*
X0704267Y0259897D02*
X0702807Y0259897D01*
X0702807Y0260261D02*
X0704267Y0260261D01*
D27*
X0721254Y0258945D03*
D28*
X0713660Y0250761D02*
X0713660Y0248231D01*
X0711130Y0248231D01*
X0711130Y0250761D01*
X0713660Y0250761D01*
X0713660Y0248862D02*
X0711130Y0248862D01*
X0711130Y0249493D02*
X0713660Y0249493D01*
X0713660Y0250124D02*
X0711130Y0250124D01*
X0711130Y0250755D02*
X0713660Y0250755D01*
D29*
X0712395Y0249496D03*
D30*
X0693049Y0165520D03*
D31*
X0698856Y0165520D03*
X0698856Y0167488D03*
X0698856Y0169457D03*
X0698856Y0163551D03*
X0698856Y0161583D03*
X0687242Y0161583D03*
X0687242Y0163551D03*
X0687242Y0165520D03*
X0687242Y0167488D03*
X0687242Y0169457D03*
D32*
X0810234Y0214362D03*
X0815234Y0214262D03*
X0820234Y0214262D03*
X0825234Y0214262D03*
X0825234Y0236462D03*
X0820234Y0236462D03*
X0815234Y0236462D03*
X0810234Y0236462D03*
D33*
X0802458Y0269929D03*
X0763088Y0269929D03*
D34*
X0797931Y0237252D03*
X0797931Y0223079D03*
D35*
X0775443Y0228220D03*
X0849498Y0214102D03*
X0775443Y0198299D03*
X0849498Y0244024D03*
D36*
X1085884Y0336976D03*
X1095884Y0347764D03*
X1115884Y0347764D03*
X1105884Y0336976D03*
G36*
X1219073Y0149102D02*
X1214971Y0145000D01*
X1204941Y0155030D01*
X1209043Y0159132D01*
X1219073Y0149102D01*
G37*
G36*
X1219630Y0134403D02*
X1215528Y0130301D01*
X1205498Y0140331D01*
X1209600Y0144433D01*
X1219630Y0134403D01*
G37*
G36*
X1204931Y0134960D02*
X1200829Y0130858D01*
X1190799Y0140888D01*
X1194901Y0144990D01*
X1204931Y0134960D01*
G37*
G36*
X1205488Y0120261D02*
X1201386Y0116159D01*
X1191356Y0126189D01*
X1195458Y0130291D01*
X1205488Y0120261D01*
G37*
G36*
X0933229Y0137919D02*
X0937331Y0133817D01*
X0927301Y0123787D01*
X0923199Y0127889D01*
X0933229Y0137919D01*
G37*
G36*
X0919087Y0152061D02*
X0923189Y0147959D01*
X0913159Y0137929D01*
X0909057Y0142031D01*
X0919087Y0152061D01*
G37*
G36*
X0904388Y0151504D02*
X0908490Y0147402D01*
X0898460Y0137372D01*
X0894358Y0141474D01*
X0904388Y0151504D01*
G37*
G36*
X0918530Y0137362D02*
X0922632Y0133260D01*
X0912602Y0123230D01*
X0908500Y0127332D01*
X0918530Y0137362D01*
G37*
D37*
X0776080Y0310874D03*
D38*
X0776080Y0334496D03*
D39*
X0776080Y0346307D03*
D40*
X0758364Y0338418D03*
X0793797Y0338418D03*
D41*
X0677655Y0127961D03*
X0677655Y0107961D03*
D42*
X0659545Y0110874D03*
D43*
X0895647Y0221071D03*
X0884860Y0231071D03*
X0895647Y0241071D03*
X0884860Y0251071D03*
X1227380Y0272409D03*
X1238167Y0262409D03*
X1238167Y0282409D03*
X1227380Y0292409D03*
D44*
X0527214Y0147805D02*
X0526534Y0147125D01*
X0526534Y0149379D01*
X0528126Y0150971D01*
X0530380Y0150971D01*
X0531972Y0149379D01*
X0531972Y0147125D01*
X0530380Y0145533D01*
X0528126Y0145533D01*
X0526534Y0147125D01*
X0527554Y0147548D01*
X0527554Y0148956D01*
X0528549Y0149951D01*
X0529957Y0149951D01*
X0530952Y0148956D01*
X0530952Y0147548D01*
X0529957Y0146553D01*
X0528549Y0146553D01*
X0527554Y0147548D01*
X0528574Y0147970D01*
X0528574Y0148534D01*
X0528971Y0148931D01*
X0529535Y0148931D01*
X0529932Y0148534D01*
X0529932Y0147970D01*
X0529535Y0147573D01*
X0528971Y0147573D01*
X0528574Y0147970D01*
X0534285Y0140734D02*
X0533605Y0140054D01*
X0533605Y0142308D01*
X0535197Y0143900D01*
X0537451Y0143900D01*
X0539043Y0142308D01*
X0539043Y0140054D01*
X0537451Y0138462D01*
X0535197Y0138462D01*
X0533605Y0140054D01*
X0534625Y0140477D01*
X0534625Y0141885D01*
X0535620Y0142880D01*
X0537028Y0142880D01*
X0538023Y0141885D01*
X0538023Y0140477D01*
X0537028Y0139482D01*
X0535620Y0139482D01*
X0534625Y0140477D01*
X0535645Y0140899D01*
X0535645Y0141463D01*
X0536042Y0141860D01*
X0536606Y0141860D01*
X0537003Y0141463D01*
X0537003Y0140899D01*
X0536606Y0140502D01*
X0536042Y0140502D01*
X0535645Y0140899D01*
X0541356Y0133663D02*
X0540676Y0132983D01*
X0540676Y0135237D01*
X0542268Y0136829D01*
X0544522Y0136829D01*
X0546114Y0135237D01*
X0546114Y0132983D01*
X0544522Y0131391D01*
X0542268Y0131391D01*
X0540676Y0132983D01*
X0541696Y0133406D01*
X0541696Y0134814D01*
X0542691Y0135809D01*
X0544099Y0135809D01*
X0545094Y0134814D01*
X0545094Y0133406D01*
X0544099Y0132411D01*
X0542691Y0132411D01*
X0541696Y0133406D01*
X0542716Y0133828D01*
X0542716Y0134392D01*
X0543113Y0134789D01*
X0543677Y0134789D01*
X0544074Y0134392D01*
X0544074Y0133828D01*
X0543677Y0133431D01*
X0543113Y0133431D01*
X0542716Y0133828D01*
X0548427Y0126592D02*
X0547747Y0125912D01*
X0547747Y0128166D01*
X0549339Y0129758D01*
X0551593Y0129758D01*
X0553185Y0128166D01*
X0553185Y0125912D01*
X0551593Y0124320D01*
X0549339Y0124320D01*
X0547747Y0125912D01*
X0548767Y0126335D01*
X0548767Y0127743D01*
X0549762Y0128738D01*
X0551170Y0128738D01*
X0552165Y0127743D01*
X0552165Y0126335D01*
X0551170Y0125340D01*
X0549762Y0125340D01*
X0548767Y0126335D01*
X0549787Y0126757D01*
X0549787Y0127321D01*
X0550184Y0127718D01*
X0550748Y0127718D01*
X0551145Y0127321D01*
X0551145Y0126757D01*
X0550748Y0126360D01*
X0550184Y0126360D01*
X0549787Y0126757D01*
X0818176Y0129078D02*
X0817496Y0129758D01*
X0819750Y0129758D01*
X0821342Y0128166D01*
X0821342Y0125912D01*
X0819750Y0124320D01*
X0817496Y0124320D01*
X0815904Y0125912D01*
X0815904Y0128166D01*
X0817496Y0129758D01*
X0817919Y0128738D01*
X0819327Y0128738D01*
X0820322Y0127743D01*
X0820322Y0126335D01*
X0819327Y0125340D01*
X0817919Y0125340D01*
X0816924Y0126335D01*
X0816924Y0127743D01*
X0817919Y0128738D01*
X0818341Y0127718D01*
X0818905Y0127718D01*
X0819302Y0127321D01*
X0819302Y0126757D01*
X0818905Y0126360D01*
X0818341Y0126360D01*
X0817944Y0126757D01*
X0817944Y0127321D01*
X0818341Y0127718D01*
X0825247Y0136149D02*
X0824567Y0136829D01*
X0826821Y0136829D01*
X0828413Y0135237D01*
X0828413Y0132983D01*
X0826821Y0131391D01*
X0824567Y0131391D01*
X0822975Y0132983D01*
X0822975Y0135237D01*
X0824567Y0136829D01*
X0824990Y0135809D01*
X0826398Y0135809D01*
X0827393Y0134814D01*
X0827393Y0133406D01*
X0826398Y0132411D01*
X0824990Y0132411D01*
X0823995Y0133406D01*
X0823995Y0134814D01*
X0824990Y0135809D01*
X0825412Y0134789D01*
X0825976Y0134789D01*
X0826373Y0134392D01*
X0826373Y0133828D01*
X0825976Y0133431D01*
X0825412Y0133431D01*
X0825015Y0133828D01*
X0825015Y0134392D01*
X0825412Y0134789D01*
X0832319Y0143220D02*
X0831639Y0143900D01*
X0833893Y0143900D01*
X0835485Y0142308D01*
X0835485Y0140054D01*
X0833893Y0138462D01*
X0831639Y0138462D01*
X0830047Y0140054D01*
X0830047Y0142308D01*
X0831639Y0143900D01*
X0832062Y0142880D01*
X0833470Y0142880D01*
X0834465Y0141885D01*
X0834465Y0140477D01*
X0833470Y0139482D01*
X0832062Y0139482D01*
X0831067Y0140477D01*
X0831067Y0141885D01*
X0832062Y0142880D01*
X0832484Y0141860D01*
X0833048Y0141860D01*
X0833445Y0141463D01*
X0833445Y0140899D01*
X0833048Y0140502D01*
X0832484Y0140502D01*
X0832087Y0140899D01*
X0832087Y0141463D01*
X0832484Y0141860D01*
X0839390Y0150291D02*
X0838710Y0150971D01*
X0840964Y0150971D01*
X0842556Y0149379D01*
X0842556Y0147125D01*
X0840964Y0145533D01*
X0838710Y0145533D01*
X0837118Y0147125D01*
X0837118Y0149379D01*
X0838710Y0150971D01*
X0839133Y0149951D01*
X0840541Y0149951D01*
X0841536Y0148956D01*
X0841536Y0147548D01*
X0840541Y0146553D01*
X0839133Y0146553D01*
X0838138Y0147548D01*
X0838138Y0148956D01*
X0839133Y0149951D01*
X0839555Y0148931D01*
X0840119Y0148931D01*
X0840516Y0148534D01*
X0840516Y0147970D01*
X0840119Y0147573D01*
X0839555Y0147573D01*
X0839158Y0147970D01*
X0839158Y0148534D01*
X0839555Y0148931D01*
D45*
X0900884Y0190008D03*
X1222143Y0189614D03*
D46*
X1107183Y0182134D03*
M02*
