G75*
%MOIN*%
%OFA0B0*%
%FSLAX25Y25*%
%IPPOS*%
%LPD*%
%AMOC8*
5,1,8,0,0,1.08239X$1,22.5*
%
%ADD10C,0.06000*%
%ADD11C,0.06496*%
%ADD12C,0.12268*%
%ADD13C,0.05700*%
%ADD14C,0.16205*%
%ADD15C,0.13252*%
%ADD16C,0.14236*%
%ADD17C,0.05906*%
%ADD18C,0.01981*%
%ADD19C,0.00669*%
%ADD20C,0.02375*%
%ADD21C,0.02953*%
%ADD22C,0.02178*%
%ADD23C,0.00787*%
D10*
X0529253Y0148252D03*
X0536324Y0141181D03*
X0543395Y0134110D03*
X0550466Y0127039D03*
X0818623Y0127039D03*
X0825694Y0134110D03*
X0832766Y0141181D03*
X0839837Y0148252D03*
X0740151Y0226921D03*
X0730151Y0226921D03*
X0720151Y0226921D03*
X0710151Y0226921D03*
X0700151Y0226921D03*
X0690151Y0226921D03*
X0680151Y0226921D03*
X0670151Y0226921D03*
X0670151Y0276921D03*
X0680151Y0276921D03*
X0690151Y0276921D03*
X0700151Y0276921D03*
X0710151Y0276921D03*
X0720151Y0276921D03*
X0730151Y0276921D03*
X0740151Y0276921D03*
X0856789Y0272409D03*
X0856789Y0262409D03*
X0856789Y0282409D03*
X0856789Y0292409D03*
X0709545Y0316780D03*
X0699545Y0316780D03*
X0689545Y0316780D03*
X0679545Y0316780D03*
X0669545Y0316780D03*
X0659545Y0316780D03*
X0649545Y0316780D03*
X0639545Y0316780D03*
X0629545Y0316780D03*
X0619545Y0316780D03*
X0609545Y0316780D03*
X0599545Y0316780D03*
X0589545Y0316780D03*
X0579545Y0316780D03*
X0569545Y0316780D03*
X0559545Y0316780D03*
X0709899Y0342370D03*
X0719899Y0342370D03*
X0729899Y0342370D03*
X0739899Y0342370D03*
X0514269Y0251071D03*
X0514269Y0241071D03*
X0514269Y0231071D03*
X0514269Y0221071D03*
X1046513Y0342370D03*
X1056513Y0342370D03*
X1066513Y0342370D03*
X1076513Y0342370D03*
D11*
X0768206Y0169142D03*
X0760332Y0169142D03*
X0752458Y0169142D03*
X0744584Y0169142D03*
X0736710Y0169142D03*
X0742616Y0112055D03*
X0752458Y0112055D03*
X0762301Y0112055D03*
D12*
X0774309Y0141583D03*
X0730608Y0141583D03*
D13*
X0645844Y0137213D03*
X0645844Y0147213D03*
X0635844Y0147213D03*
X0635844Y0157213D03*
X0645844Y0157213D03*
X0645844Y0167213D03*
X0645844Y0177213D03*
X0645844Y0187213D03*
X0645844Y0197213D03*
X0645844Y0207213D03*
X0625844Y0207213D03*
X0615844Y0207213D03*
X0615844Y0197213D03*
X0625844Y0197213D03*
X0625844Y0187213D03*
X0615844Y0187213D03*
X0615844Y0177213D03*
X0625844Y0177213D03*
X0625844Y0167213D03*
X0615844Y0167213D03*
X0585844Y0167213D03*
X0585844Y0177213D03*
X0585844Y0187213D03*
X0585844Y0197213D03*
X0585844Y0207213D03*
X0585844Y0217213D03*
X0585844Y0227213D03*
X0585844Y0237213D03*
X0615844Y0227213D03*
X0625844Y0227213D03*
X0625844Y0217213D03*
X0615844Y0217213D03*
X0645844Y0217213D03*
X0645844Y0227213D03*
X0645844Y0237213D03*
X0585844Y0157213D03*
X0585844Y0147213D03*
X0585844Y0137213D03*
X0585844Y0127213D03*
X0585844Y0117213D03*
X0585844Y0107213D03*
X0645844Y0107213D03*
X0645844Y0117213D03*
X0645844Y0127213D03*
D14*
X0776080Y0310874D03*
D15*
X0776080Y0334496D03*
D16*
X0793797Y0338418D03*
X0758364Y0338418D03*
D17*
X0677655Y0127961D03*
X0659545Y0110874D03*
X0677655Y0107961D03*
D18*
X0676921Y0234740D03*
X0676921Y0239465D03*
X0673378Y0239071D03*
X0675346Y0244189D03*
X0680071Y0246157D03*
X0682501Y0250821D03*
X0680153Y0254516D03*
X0680153Y0258453D03*
X0686846Y0258453D03*
X0691151Y0251171D03*
X0693651Y0251171D03*
X0696151Y0251171D03*
X0697901Y0245671D03*
X0697651Y0241671D03*
X0695401Y0240171D03*
X0700584Y0238654D03*
X0707151Y0235921D03*
X0713651Y0235921D03*
X0716901Y0235171D03*
X0720651Y0235171D03*
X0724151Y0235921D03*
X0727283Y0236224D03*
X0730151Y0234921D03*
X0729100Y0241122D03*
X0731850Y0241122D03*
X0734549Y0241122D03*
X0740151Y0241546D03*
X0742651Y0241546D03*
X0742651Y0252421D03*
X0740151Y0252421D03*
X0742651Y0256421D03*
X0735151Y0251675D03*
X0732901Y0252671D03*
X0730651Y0251675D03*
X0728151Y0256421D03*
X0728143Y0259077D03*
X0707319Y0268689D03*
X0682859Y0268079D03*
X0684401Y0240671D03*
X0685901Y0238421D03*
X0687401Y0240671D03*
X0688901Y0238421D03*
X0687401Y0235921D03*
X0684401Y0235921D03*
X0680464Y0238283D03*
X0744191Y0271504D03*
D19*
X0745096Y0271306D02*
X0665096Y0271306D01*
X0665096Y0270638D02*
X0745096Y0270638D01*
X0745096Y0269971D02*
X0683690Y0269971D01*
X0683657Y0270004D02*
X0682062Y0270004D01*
X0680934Y0268877D01*
X0680934Y0267282D01*
X0682062Y0266154D01*
X0683657Y0266154D01*
X0684784Y0267282D01*
X0684784Y0268877D01*
X0683657Y0270004D01*
X0684358Y0269303D02*
X0745096Y0269303D01*
X0745096Y0268635D02*
X0684784Y0268635D01*
X0684784Y0267967D02*
X0745096Y0267967D01*
X0745096Y0267299D02*
X0684784Y0267299D01*
X0684134Y0266632D02*
X0745096Y0266632D01*
X0745096Y0265964D02*
X0665096Y0265964D01*
X0665096Y0266632D02*
X0681584Y0266632D01*
X0680934Y0267299D02*
X0665096Y0267299D01*
X0665096Y0267967D02*
X0680934Y0267967D01*
X0680934Y0268635D02*
X0665096Y0268635D01*
X0665096Y0269303D02*
X0681360Y0269303D01*
X0682028Y0269971D02*
X0665096Y0269971D01*
X0665096Y0271974D02*
X0745096Y0271974D01*
X0745096Y0272642D02*
X0665096Y0272642D01*
X0665096Y0273310D02*
X0668589Y0273310D01*
X0667922Y0273586D02*
X0669369Y0272987D01*
X0670934Y0272987D01*
X0672380Y0273586D01*
X0673487Y0274692D01*
X0674086Y0276139D01*
X0674086Y0277704D01*
X0673487Y0279150D01*
X0672380Y0280257D01*
X0670934Y0280856D01*
X0669369Y0280856D01*
X0667922Y0280257D01*
X0666816Y0279150D01*
X0666217Y0277704D01*
X0666217Y0276139D01*
X0666816Y0274692D01*
X0667922Y0273586D01*
X0667531Y0273977D02*
X0665096Y0273977D01*
X0665096Y0274645D02*
X0666863Y0274645D01*
X0666559Y0275313D02*
X0665096Y0275313D01*
X0665096Y0275981D02*
X0666282Y0275981D01*
X0666217Y0276649D02*
X0665096Y0276649D01*
X0665096Y0277317D02*
X0666217Y0277317D01*
X0666333Y0277984D02*
X0665096Y0277984D01*
X0665096Y0278652D02*
X0666609Y0278652D01*
X0666985Y0279320D02*
X0665096Y0279320D01*
X0665096Y0279988D02*
X0667653Y0279988D01*
X0668885Y0280656D02*
X0665096Y0280656D01*
X0665096Y0281323D02*
X0745096Y0281323D01*
X0745096Y0280656D02*
X0731418Y0280656D01*
X0730934Y0280856D02*
X0729369Y0280856D01*
X0727922Y0280257D01*
X0726816Y0279150D01*
X0726217Y0277704D01*
X0726217Y0276139D01*
X0726816Y0274692D01*
X0727922Y0273586D01*
X0729369Y0272987D01*
X0730934Y0272987D01*
X0732380Y0273586D01*
X0733487Y0274692D01*
X0734086Y0276139D01*
X0734086Y0277704D01*
X0733487Y0279150D01*
X0732380Y0280257D01*
X0730934Y0280856D01*
X0732649Y0279988D02*
X0745096Y0279988D01*
X0745096Y0279320D02*
X0733317Y0279320D01*
X0733693Y0278652D02*
X0745096Y0278652D01*
X0745096Y0277984D02*
X0733970Y0277984D01*
X0734086Y0277317D02*
X0745096Y0277317D01*
X0745096Y0276649D02*
X0734086Y0276649D01*
X0734021Y0275981D02*
X0745096Y0275981D01*
X0745096Y0275313D02*
X0733744Y0275313D01*
X0733440Y0274645D02*
X0745096Y0274645D01*
X0745096Y0273977D02*
X0732772Y0273977D01*
X0731714Y0273310D02*
X0745096Y0273310D01*
X0745096Y0265296D02*
X0665096Y0265296D01*
X0665096Y0264628D02*
X0745096Y0264628D01*
X0745096Y0263960D02*
X0665096Y0263960D01*
X0665096Y0263293D02*
X0745096Y0263293D01*
X0745096Y0262625D02*
X0665096Y0262625D01*
X0665096Y0261957D02*
X0745096Y0261957D01*
X0745096Y0261289D02*
X0665096Y0261289D01*
X0665096Y0260621D02*
X0726965Y0260621D01*
X0727346Y0261002D02*
X0726218Y0259874D01*
X0726218Y0258279D01*
X0726752Y0257745D01*
X0726226Y0257219D01*
X0726226Y0255624D01*
X0727354Y0254496D01*
X0728949Y0254496D01*
X0730076Y0255624D01*
X0730076Y0257219D01*
X0729542Y0257753D01*
X0730069Y0258279D01*
X0730069Y0259874D01*
X0728941Y0261002D01*
X0727346Y0261002D01*
X0726298Y0259954D02*
X0665096Y0259954D01*
X0665096Y0259286D02*
X0726218Y0259286D01*
X0726218Y0258618D02*
X0665096Y0258618D01*
X0665096Y0257950D02*
X0726547Y0257950D01*
X0726290Y0257282D02*
X0695791Y0257282D01*
X0695530Y0257543D02*
X0693772Y0257543D01*
X0692529Y0256300D01*
X0692529Y0254542D01*
X0693772Y0253299D01*
X0695530Y0253299D01*
X0696773Y0254542D01*
X0696773Y0256300D01*
X0695530Y0257543D01*
X0696459Y0256615D02*
X0726226Y0256615D01*
X0726226Y0255947D02*
X0696773Y0255947D01*
X0696773Y0255279D02*
X0726571Y0255279D01*
X0727239Y0254611D02*
X0696773Y0254611D01*
X0696174Y0253943D02*
X0731451Y0253943D01*
X0731108Y0253600D02*
X0729854Y0253600D01*
X0728726Y0252473D01*
X0728726Y0250878D01*
X0729854Y0249750D01*
X0731449Y0249750D01*
X0732445Y0250746D01*
X0733358Y0250746D01*
X0734354Y0249750D01*
X0735949Y0249750D01*
X0737076Y0250878D01*
X0737076Y0252473D01*
X0735949Y0253600D01*
X0734695Y0253600D01*
X0733699Y0254596D01*
X0732104Y0254596D01*
X0731108Y0253600D01*
X0729529Y0253276D02*
X0665096Y0253276D01*
X0665096Y0253943D02*
X0693128Y0253943D01*
X0692854Y0253096D02*
X0692401Y0252644D01*
X0691949Y0253096D01*
X0690354Y0253096D01*
X0689226Y0251969D01*
X0689226Y0250374D01*
X0690354Y0249246D01*
X0691949Y0249246D01*
X0692401Y0249699D01*
X0692854Y0249246D01*
X0694449Y0249246D01*
X0694901Y0249699D01*
X0695354Y0249246D01*
X0696949Y0249246D01*
X0698076Y0250374D01*
X0698076Y0251969D01*
X0696949Y0253096D01*
X0695354Y0253096D01*
X0694901Y0252644D01*
X0694449Y0253096D01*
X0692854Y0253096D01*
X0692529Y0254611D02*
X0665096Y0254611D01*
X0665096Y0255279D02*
X0692529Y0255279D01*
X0692529Y0255947D02*
X0665096Y0255947D01*
X0665096Y0256615D02*
X0692844Y0256615D01*
X0693511Y0257282D02*
X0665096Y0257282D01*
X0665096Y0252608D02*
X0681565Y0252608D01*
X0681704Y0252746D02*
X0680576Y0251619D01*
X0680576Y0250024D01*
X0681704Y0248896D01*
X0683299Y0248896D01*
X0684426Y0250024D01*
X0684426Y0251619D01*
X0683299Y0252746D01*
X0681704Y0252746D01*
X0680897Y0251940D02*
X0665096Y0251940D01*
X0665096Y0251272D02*
X0680576Y0251272D01*
X0680576Y0250604D02*
X0665096Y0250604D01*
X0665096Y0249937D02*
X0680663Y0249937D01*
X0681331Y0249269D02*
X0665096Y0249269D01*
X0665096Y0248601D02*
X0745096Y0248601D01*
X0745096Y0249269D02*
X0696971Y0249269D01*
X0697639Y0249937D02*
X0729667Y0249937D01*
X0728999Y0250604D02*
X0698076Y0250604D01*
X0698076Y0251272D02*
X0728726Y0251272D01*
X0728726Y0251940D02*
X0698076Y0251940D01*
X0697437Y0252608D02*
X0728861Y0252608D01*
X0729064Y0254611D02*
X0745096Y0254611D01*
X0745096Y0253943D02*
X0734352Y0253943D01*
X0736273Y0253276D02*
X0745096Y0253276D01*
X0745096Y0252608D02*
X0736941Y0252608D01*
X0737076Y0251940D02*
X0745096Y0251940D01*
X0745096Y0251272D02*
X0737076Y0251272D01*
X0736803Y0250604D02*
X0745096Y0250604D01*
X0745096Y0249937D02*
X0736135Y0249937D01*
X0734167Y0249937D02*
X0731635Y0249937D01*
X0732303Y0250604D02*
X0733499Y0250604D01*
X0729732Y0255279D02*
X0745096Y0255279D01*
X0745096Y0255947D02*
X0730076Y0255947D01*
X0730076Y0256615D02*
X0745096Y0256615D01*
X0745096Y0257282D02*
X0730013Y0257282D01*
X0729739Y0257950D02*
X0745096Y0257950D01*
X0745096Y0258618D02*
X0730069Y0258618D01*
X0730069Y0259286D02*
X0745096Y0259286D01*
X0745096Y0259954D02*
X0729989Y0259954D01*
X0729321Y0260621D02*
X0745096Y0260621D01*
X0728589Y0273310D02*
X0721714Y0273310D01*
X0722380Y0273586D02*
X0723487Y0274692D01*
X0724086Y0276139D01*
X0724086Y0277704D01*
X0723487Y0279150D01*
X0722380Y0280257D01*
X0720934Y0280856D01*
X0719369Y0280856D01*
X0717922Y0280257D01*
X0716816Y0279150D01*
X0716217Y0277704D01*
X0716217Y0276139D01*
X0716816Y0274692D01*
X0717922Y0273586D01*
X0719369Y0272987D01*
X0720934Y0272987D01*
X0722380Y0273586D01*
X0722772Y0273977D02*
X0727531Y0273977D01*
X0726863Y0274645D02*
X0723440Y0274645D01*
X0723744Y0275313D02*
X0726559Y0275313D01*
X0726282Y0275981D02*
X0724021Y0275981D01*
X0724086Y0276649D02*
X0726217Y0276649D01*
X0726217Y0277317D02*
X0724086Y0277317D01*
X0723970Y0277984D02*
X0726333Y0277984D01*
X0726609Y0278652D02*
X0723693Y0278652D01*
X0723317Y0279320D02*
X0726985Y0279320D01*
X0727653Y0279988D02*
X0722649Y0279988D01*
X0721418Y0280656D02*
X0728885Y0280656D01*
X0718885Y0280656D02*
X0711418Y0280656D01*
X0710934Y0280856D02*
X0709369Y0280856D01*
X0707922Y0280257D01*
X0706816Y0279150D01*
X0706217Y0277704D01*
X0706217Y0276139D01*
X0706816Y0274692D01*
X0707922Y0273586D01*
X0709369Y0272987D01*
X0710934Y0272987D01*
X0712380Y0273586D01*
X0713487Y0274692D01*
X0714086Y0276139D01*
X0714086Y0277704D01*
X0713487Y0279150D01*
X0712380Y0280257D01*
X0710934Y0280856D01*
X0712649Y0279988D02*
X0717653Y0279988D01*
X0716985Y0279320D02*
X0713317Y0279320D01*
X0713693Y0278652D02*
X0716609Y0278652D01*
X0716333Y0277984D02*
X0713970Y0277984D01*
X0714086Y0277317D02*
X0716217Y0277317D01*
X0716217Y0276649D02*
X0714086Y0276649D01*
X0714021Y0275981D02*
X0716282Y0275981D01*
X0716559Y0275313D02*
X0713744Y0275313D01*
X0713440Y0274645D02*
X0716863Y0274645D01*
X0717531Y0273977D02*
X0712772Y0273977D01*
X0711714Y0273310D02*
X0718589Y0273310D01*
X0708589Y0273310D02*
X0701714Y0273310D01*
X0702380Y0273586D02*
X0703487Y0274692D01*
X0704086Y0276139D01*
X0704086Y0277704D01*
X0703487Y0279150D01*
X0702380Y0280257D01*
X0700934Y0280856D01*
X0699369Y0280856D01*
X0697922Y0280257D01*
X0696816Y0279150D01*
X0696217Y0277704D01*
X0696217Y0276139D01*
X0696816Y0274692D01*
X0697922Y0273586D01*
X0699369Y0272987D01*
X0700934Y0272987D01*
X0702380Y0273586D01*
X0702772Y0273977D02*
X0707531Y0273977D01*
X0706863Y0274645D02*
X0703440Y0274645D01*
X0703744Y0275313D02*
X0706559Y0275313D01*
X0706282Y0275981D02*
X0704021Y0275981D01*
X0704086Y0276649D02*
X0706217Y0276649D01*
X0706217Y0277317D02*
X0704086Y0277317D01*
X0703970Y0277984D02*
X0706333Y0277984D01*
X0706609Y0278652D02*
X0703693Y0278652D01*
X0703317Y0279320D02*
X0706985Y0279320D01*
X0707653Y0279988D02*
X0702649Y0279988D01*
X0701418Y0280656D02*
X0708885Y0280656D01*
X0698885Y0280656D02*
X0691418Y0280656D01*
X0690934Y0280856D02*
X0689369Y0280856D01*
X0687922Y0280257D01*
X0686816Y0279150D01*
X0686217Y0277704D01*
X0686217Y0276139D01*
X0686816Y0274692D01*
X0687922Y0273586D01*
X0689369Y0272987D01*
X0690934Y0272987D01*
X0692380Y0273586D01*
X0693487Y0274692D01*
X0694086Y0276139D01*
X0694086Y0277704D01*
X0693487Y0279150D01*
X0692380Y0280257D01*
X0690934Y0280856D01*
X0692649Y0279988D02*
X0697653Y0279988D01*
X0696985Y0279320D02*
X0693317Y0279320D01*
X0693693Y0278652D02*
X0696609Y0278652D01*
X0696333Y0277984D02*
X0693970Y0277984D01*
X0694086Y0277317D02*
X0696217Y0277317D01*
X0696217Y0276649D02*
X0694086Y0276649D01*
X0694021Y0275981D02*
X0696282Y0275981D01*
X0696559Y0275313D02*
X0693744Y0275313D01*
X0693440Y0274645D02*
X0696863Y0274645D01*
X0697531Y0273977D02*
X0692772Y0273977D01*
X0691714Y0273310D02*
X0698589Y0273310D01*
X0688589Y0273310D02*
X0671714Y0273310D01*
X0672772Y0273977D02*
X0687531Y0273977D01*
X0686863Y0274645D02*
X0673440Y0274645D01*
X0673744Y0275313D02*
X0686559Y0275313D01*
X0686282Y0275981D02*
X0674021Y0275981D01*
X0674086Y0276649D02*
X0686217Y0276649D01*
X0686217Y0277317D02*
X0674086Y0277317D01*
X0673970Y0277984D02*
X0686333Y0277984D01*
X0686609Y0278652D02*
X0673693Y0278652D01*
X0673317Y0279320D02*
X0686985Y0279320D01*
X0687653Y0279988D02*
X0672649Y0279988D01*
X0671418Y0280656D02*
X0688885Y0280656D01*
X0665096Y0281991D02*
X0745096Y0281991D01*
X0745096Y0282016D02*
X0665096Y0282016D01*
X0665096Y0222016D01*
X0745096Y0222016D01*
X0745096Y0282016D01*
X0689865Y0252608D02*
X0683437Y0252608D01*
X0684105Y0251940D02*
X0689226Y0251940D01*
X0689226Y0251272D02*
X0684426Y0251272D01*
X0684426Y0250604D02*
X0689226Y0250604D01*
X0689663Y0249937D02*
X0684339Y0249937D01*
X0683671Y0249269D02*
X0690331Y0249269D01*
X0691971Y0249269D02*
X0692831Y0249269D01*
X0694471Y0249269D02*
X0695331Y0249269D01*
X0697104Y0247596D02*
X0695976Y0246469D01*
X0695976Y0244874D01*
X0697104Y0243746D01*
X0698699Y0243746D01*
X0699826Y0244874D01*
X0699826Y0246469D01*
X0698699Y0247596D01*
X0697104Y0247596D01*
X0696773Y0247265D02*
X0665096Y0247265D01*
X0665096Y0246598D02*
X0696105Y0246598D01*
X0695976Y0245930D02*
X0665096Y0245930D01*
X0665096Y0245262D02*
X0695976Y0245262D01*
X0696256Y0244594D02*
X0665096Y0244594D01*
X0665096Y0243926D02*
X0696923Y0243926D01*
X0696854Y0243596D02*
X0695726Y0242469D01*
X0695726Y0242096D01*
X0694604Y0242096D01*
X0693476Y0240969D01*
X0693476Y0239374D01*
X0694604Y0238246D01*
X0696199Y0238246D01*
X0697326Y0239374D01*
X0697326Y0239746D01*
X0698449Y0239746D01*
X0699576Y0240874D01*
X0699576Y0242469D01*
X0698449Y0243596D01*
X0696854Y0243596D01*
X0696516Y0243259D02*
X0665096Y0243259D01*
X0665096Y0242591D02*
X0695848Y0242591D01*
X0694430Y0241923D02*
X0665096Y0241923D01*
X0665096Y0241255D02*
X0693763Y0241255D01*
X0693476Y0240587D02*
X0665096Y0240587D01*
X0665096Y0239920D02*
X0693476Y0239920D01*
X0693598Y0239252D02*
X0665096Y0239252D01*
X0665096Y0238584D02*
X0694266Y0238584D01*
X0696537Y0238584D02*
X0745096Y0238584D01*
X0745096Y0239252D02*
X0735401Y0239252D01*
X0735346Y0239197D02*
X0736474Y0240325D01*
X0736474Y0241919D01*
X0735346Y0243047D01*
X0733751Y0243047D01*
X0733199Y0242495D01*
X0732648Y0243047D01*
X0731053Y0243047D01*
X0730475Y0242470D01*
X0729898Y0243047D01*
X0728303Y0243047D01*
X0727175Y0241919D01*
X0727175Y0240325D01*
X0728303Y0239197D01*
X0729898Y0239197D01*
X0730475Y0239774D01*
X0731053Y0239197D01*
X0732648Y0239197D01*
X0733199Y0239749D01*
X0733751Y0239197D01*
X0735346Y0239197D01*
X0736069Y0239920D02*
X0745096Y0239920D01*
X0745096Y0240587D02*
X0736474Y0240587D01*
X0736474Y0241255D02*
X0745096Y0241255D01*
X0745096Y0241923D02*
X0736471Y0241923D01*
X0735803Y0242591D02*
X0745096Y0242591D01*
X0745096Y0243259D02*
X0698787Y0243259D01*
X0698879Y0243926D02*
X0745096Y0243926D01*
X0745096Y0244594D02*
X0699547Y0244594D01*
X0699826Y0245262D02*
X0745096Y0245262D01*
X0745096Y0245930D02*
X0699826Y0245930D01*
X0699698Y0246598D02*
X0745096Y0246598D01*
X0745096Y0247265D02*
X0699030Y0247265D01*
X0699454Y0242591D02*
X0727846Y0242591D01*
X0727178Y0241923D02*
X0699576Y0241923D01*
X0699576Y0241255D02*
X0727175Y0241255D01*
X0727175Y0240587D02*
X0699290Y0240587D01*
X0698622Y0239920D02*
X0727580Y0239920D01*
X0728248Y0239252D02*
X0697204Y0239252D01*
X0705226Y0236719D02*
X0705226Y0235124D01*
X0706354Y0233996D01*
X0707949Y0233996D01*
X0709076Y0235124D01*
X0709076Y0236719D01*
X0707949Y0237846D01*
X0706354Y0237846D01*
X0705226Y0236719D01*
X0705226Y0236581D02*
X0665096Y0236581D01*
X0665096Y0237248D02*
X0705756Y0237248D01*
X0705226Y0235913D02*
X0665096Y0235913D01*
X0665096Y0235245D02*
X0705226Y0235245D01*
X0705773Y0234577D02*
X0665096Y0234577D01*
X0665096Y0233909D02*
X0715441Y0233909D01*
X0714976Y0234374D02*
X0716104Y0233246D01*
X0717699Y0233246D01*
X0718776Y0234324D01*
X0719854Y0233246D01*
X0721449Y0233246D01*
X0722576Y0234374D01*
X0722576Y0234773D01*
X0723354Y0233996D01*
X0724949Y0233996D01*
X0726076Y0235124D01*
X0726076Y0236719D01*
X0724949Y0237846D01*
X0723354Y0237846D01*
X0722226Y0236719D01*
X0722226Y0236319D01*
X0721449Y0237096D01*
X0719854Y0237096D01*
X0718776Y0236019D01*
X0717699Y0237096D01*
X0716104Y0237096D01*
X0715576Y0236569D01*
X0715576Y0236719D01*
X0714449Y0237846D01*
X0712854Y0237846D01*
X0711726Y0236719D01*
X0711726Y0235124D01*
X0712854Y0233996D01*
X0714449Y0233996D01*
X0714976Y0234523D01*
X0714976Y0234374D01*
X0715576Y0236581D02*
X0715588Y0236581D01*
X0715047Y0237248D02*
X0722756Y0237248D01*
X0722226Y0236581D02*
X0721965Y0236581D01*
X0722576Y0234577D02*
X0722773Y0234577D01*
X0722112Y0233909D02*
X0728441Y0233909D01*
X0728226Y0234124D02*
X0729354Y0232996D01*
X0730949Y0232996D01*
X0732076Y0234124D01*
X0732076Y0235719D01*
X0730949Y0236846D01*
X0729354Y0236846D01*
X0728226Y0235719D01*
X0728226Y0234124D01*
X0728226Y0234577D02*
X0725530Y0234577D01*
X0726076Y0235245D02*
X0728226Y0235245D01*
X0728420Y0235913D02*
X0726076Y0235913D01*
X0726076Y0236581D02*
X0729088Y0236581D01*
X0731215Y0236581D02*
X0745096Y0236581D01*
X0745096Y0237248D02*
X0725547Y0237248D01*
X0729952Y0239252D02*
X0730998Y0239252D01*
X0732702Y0239252D02*
X0733697Y0239252D01*
X0733295Y0242591D02*
X0733104Y0242591D01*
X0730596Y0242591D02*
X0730354Y0242591D01*
X0731882Y0235913D02*
X0745096Y0235913D01*
X0745096Y0235245D02*
X0732076Y0235245D01*
X0732076Y0234577D02*
X0745096Y0234577D01*
X0745096Y0233909D02*
X0731862Y0233909D01*
X0731194Y0233242D02*
X0745096Y0233242D01*
X0745096Y0232574D02*
X0665096Y0232574D01*
X0665096Y0233242D02*
X0729108Y0233242D01*
X0729369Y0230856D02*
X0727922Y0230257D01*
X0726816Y0229150D01*
X0726217Y0227704D01*
X0726217Y0226139D01*
X0726816Y0224692D01*
X0727922Y0223586D01*
X0729369Y0222987D01*
X0730934Y0222987D01*
X0732380Y0223586D01*
X0733487Y0224692D01*
X0734086Y0226139D01*
X0734086Y0227704D01*
X0733487Y0229150D01*
X0732380Y0230257D01*
X0730934Y0230856D01*
X0729369Y0230856D01*
X0728679Y0230570D02*
X0721623Y0230570D01*
X0720934Y0230856D02*
X0719369Y0230856D01*
X0717922Y0230257D01*
X0716816Y0229150D01*
X0716217Y0227704D01*
X0716217Y0226139D01*
X0716816Y0224692D01*
X0717922Y0223586D01*
X0719369Y0222987D01*
X0720934Y0222987D01*
X0722380Y0223586D01*
X0723487Y0224692D01*
X0724086Y0226139D01*
X0724086Y0227704D01*
X0723487Y0229150D01*
X0722380Y0230257D01*
X0720934Y0230856D01*
X0722734Y0229903D02*
X0727568Y0229903D01*
X0726900Y0229235D02*
X0723402Y0229235D01*
X0723728Y0228567D02*
X0726574Y0228567D01*
X0726297Y0227899D02*
X0724005Y0227899D01*
X0724086Y0227231D02*
X0726217Y0227231D01*
X0726217Y0226564D02*
X0724086Y0226564D01*
X0723985Y0225896D02*
X0726317Y0225896D01*
X0726594Y0225228D02*
X0723709Y0225228D01*
X0723355Y0224560D02*
X0726948Y0224560D01*
X0727616Y0223892D02*
X0722687Y0223892D01*
X0721508Y0223224D02*
X0728794Y0223224D01*
X0731508Y0223224D02*
X0738794Y0223224D01*
X0739369Y0222987D02*
X0740934Y0222987D01*
X0742380Y0223586D01*
X0743487Y0224692D01*
X0744086Y0226139D01*
X0744086Y0227704D01*
X0743487Y0229150D01*
X0742380Y0230257D01*
X0740934Y0230856D01*
X0739369Y0230856D01*
X0737922Y0230257D01*
X0736816Y0229150D01*
X0736217Y0227704D01*
X0736217Y0226139D01*
X0736816Y0224692D01*
X0737922Y0223586D01*
X0739369Y0222987D01*
X0737616Y0223892D02*
X0732687Y0223892D01*
X0733355Y0224560D02*
X0736948Y0224560D01*
X0736594Y0225228D02*
X0733709Y0225228D01*
X0733985Y0225896D02*
X0736317Y0225896D01*
X0736217Y0226564D02*
X0734086Y0226564D01*
X0734086Y0227231D02*
X0736217Y0227231D01*
X0736297Y0227899D02*
X0734005Y0227899D01*
X0733728Y0228567D02*
X0736574Y0228567D01*
X0736900Y0229235D02*
X0733402Y0229235D01*
X0732734Y0229903D02*
X0737568Y0229903D01*
X0738679Y0230570D02*
X0731623Y0230570D01*
X0741623Y0230570D02*
X0745096Y0230570D01*
X0745096Y0229903D02*
X0742734Y0229903D01*
X0743402Y0229235D02*
X0745096Y0229235D01*
X0745096Y0228567D02*
X0743728Y0228567D01*
X0744005Y0227899D02*
X0745096Y0227899D01*
X0745096Y0227231D02*
X0744086Y0227231D01*
X0744086Y0226564D02*
X0745096Y0226564D01*
X0745096Y0225896D02*
X0743985Y0225896D01*
X0743709Y0225228D02*
X0745096Y0225228D01*
X0745096Y0224560D02*
X0743355Y0224560D01*
X0742687Y0223892D02*
X0745096Y0223892D01*
X0745096Y0223224D02*
X0741508Y0223224D01*
X0745096Y0222557D02*
X0665096Y0222557D01*
X0665096Y0223224D02*
X0668794Y0223224D01*
X0669369Y0222987D02*
X0670934Y0222987D01*
X0672380Y0223586D01*
X0673487Y0224692D01*
X0674086Y0226139D01*
X0674086Y0227704D01*
X0673487Y0229150D01*
X0672380Y0230257D01*
X0670934Y0230856D01*
X0669369Y0230856D01*
X0667922Y0230257D01*
X0666816Y0229150D01*
X0666217Y0227704D01*
X0666217Y0226139D01*
X0666816Y0224692D01*
X0667922Y0223586D01*
X0669369Y0222987D01*
X0667616Y0223892D02*
X0665096Y0223892D01*
X0665096Y0224560D02*
X0666948Y0224560D01*
X0666594Y0225228D02*
X0665096Y0225228D01*
X0665096Y0225896D02*
X0666317Y0225896D01*
X0666217Y0226564D02*
X0665096Y0226564D01*
X0665096Y0227231D02*
X0666217Y0227231D01*
X0666297Y0227899D02*
X0665096Y0227899D01*
X0665096Y0228567D02*
X0666574Y0228567D01*
X0666900Y0229235D02*
X0665096Y0229235D01*
X0665096Y0229903D02*
X0667568Y0229903D01*
X0668679Y0230570D02*
X0665096Y0230570D01*
X0665096Y0231238D02*
X0745096Y0231238D01*
X0745096Y0231906D02*
X0665096Y0231906D01*
X0665096Y0237916D02*
X0745096Y0237916D01*
X0745096Y0247933D02*
X0665096Y0247933D01*
X0708547Y0237248D02*
X0712256Y0237248D01*
X0711726Y0236581D02*
X0709076Y0236581D01*
X0709076Y0235913D02*
X0711726Y0235913D01*
X0711726Y0235245D02*
X0709076Y0235245D01*
X0708530Y0234577D02*
X0712273Y0234577D01*
X0710934Y0230856D02*
X0709369Y0230856D01*
X0707922Y0230257D01*
X0706816Y0229150D01*
X0706217Y0227704D01*
X0706217Y0226139D01*
X0706816Y0224692D01*
X0707922Y0223586D01*
X0709369Y0222987D01*
X0710934Y0222987D01*
X0712380Y0223586D01*
X0713487Y0224692D01*
X0714086Y0226139D01*
X0714086Y0227704D01*
X0713487Y0229150D01*
X0712380Y0230257D01*
X0710934Y0230856D01*
X0711623Y0230570D02*
X0718679Y0230570D01*
X0717568Y0229903D02*
X0712734Y0229903D01*
X0713402Y0229235D02*
X0716900Y0229235D01*
X0716574Y0228567D02*
X0713728Y0228567D01*
X0714005Y0227899D02*
X0716297Y0227899D01*
X0716217Y0227231D02*
X0714086Y0227231D01*
X0714086Y0226564D02*
X0716217Y0226564D01*
X0716317Y0225896D02*
X0713985Y0225896D01*
X0713709Y0225228D02*
X0716594Y0225228D01*
X0716948Y0224560D02*
X0713355Y0224560D01*
X0712687Y0223892D02*
X0717616Y0223892D01*
X0718794Y0223224D02*
X0711508Y0223224D01*
X0708794Y0223224D02*
X0701508Y0223224D01*
X0700934Y0222987D02*
X0702380Y0223586D01*
X0703487Y0224692D01*
X0704086Y0226139D01*
X0704086Y0227704D01*
X0703487Y0229150D01*
X0702380Y0230257D01*
X0700934Y0230856D01*
X0699369Y0230856D01*
X0697922Y0230257D01*
X0696816Y0229150D01*
X0696217Y0227704D01*
X0696217Y0226139D01*
X0696816Y0224692D01*
X0697922Y0223586D01*
X0699369Y0222987D01*
X0700934Y0222987D01*
X0702687Y0223892D02*
X0707616Y0223892D01*
X0706948Y0224560D02*
X0703355Y0224560D01*
X0703709Y0225228D02*
X0706594Y0225228D01*
X0706317Y0225896D02*
X0703985Y0225896D01*
X0704086Y0226564D02*
X0706217Y0226564D01*
X0706217Y0227231D02*
X0704086Y0227231D01*
X0704005Y0227899D02*
X0706297Y0227899D01*
X0706574Y0228567D02*
X0703728Y0228567D01*
X0703402Y0229235D02*
X0706900Y0229235D01*
X0707568Y0229903D02*
X0702734Y0229903D01*
X0701623Y0230570D02*
X0708679Y0230570D01*
X0698679Y0230570D02*
X0691623Y0230570D01*
X0690934Y0230856D02*
X0689369Y0230856D01*
X0687922Y0230257D01*
X0686816Y0229150D01*
X0686217Y0227704D01*
X0686217Y0226139D01*
X0686816Y0224692D01*
X0687922Y0223586D01*
X0689369Y0222987D01*
X0690934Y0222987D01*
X0692380Y0223586D01*
X0693487Y0224692D01*
X0694086Y0226139D01*
X0694086Y0227704D01*
X0693487Y0229150D01*
X0692380Y0230257D01*
X0690934Y0230856D01*
X0692734Y0229903D02*
X0697568Y0229903D01*
X0696900Y0229235D02*
X0693402Y0229235D01*
X0693728Y0228567D02*
X0696574Y0228567D01*
X0696297Y0227899D02*
X0694005Y0227899D01*
X0694086Y0227231D02*
X0696217Y0227231D01*
X0696217Y0226564D02*
X0694086Y0226564D01*
X0693985Y0225896D02*
X0696317Y0225896D01*
X0696594Y0225228D02*
X0693709Y0225228D01*
X0693355Y0224560D02*
X0696948Y0224560D01*
X0697616Y0223892D02*
X0692687Y0223892D01*
X0691508Y0223224D02*
X0698794Y0223224D01*
X0688794Y0223224D02*
X0681508Y0223224D01*
X0680934Y0222987D02*
X0682380Y0223586D01*
X0683487Y0224692D01*
X0684086Y0226139D01*
X0684086Y0227704D01*
X0683487Y0229150D01*
X0682380Y0230257D01*
X0680934Y0230856D01*
X0679369Y0230856D01*
X0677922Y0230257D01*
X0676816Y0229150D01*
X0676217Y0227704D01*
X0676217Y0226139D01*
X0676816Y0224692D01*
X0677922Y0223586D01*
X0679369Y0222987D01*
X0680934Y0222987D01*
X0682687Y0223892D02*
X0687616Y0223892D01*
X0686948Y0224560D02*
X0683355Y0224560D01*
X0683709Y0225228D02*
X0686594Y0225228D01*
X0686317Y0225896D02*
X0683985Y0225896D01*
X0684086Y0226564D02*
X0686217Y0226564D01*
X0686217Y0227231D02*
X0684086Y0227231D01*
X0684005Y0227899D02*
X0686297Y0227899D01*
X0686574Y0228567D02*
X0683728Y0228567D01*
X0683402Y0229235D02*
X0686900Y0229235D01*
X0687568Y0229903D02*
X0682734Y0229903D01*
X0681623Y0230570D02*
X0688679Y0230570D01*
X0678679Y0230570D02*
X0671623Y0230570D01*
X0672734Y0229903D02*
X0677568Y0229903D01*
X0676900Y0229235D02*
X0673402Y0229235D01*
X0673728Y0228567D02*
X0676574Y0228567D01*
X0676297Y0227899D02*
X0674005Y0227899D01*
X0674086Y0227231D02*
X0676217Y0227231D01*
X0676217Y0226564D02*
X0674086Y0226564D01*
X0673985Y0225896D02*
X0676317Y0225896D01*
X0676594Y0225228D02*
X0673709Y0225228D01*
X0673355Y0224560D02*
X0676948Y0224560D01*
X0677616Y0223892D02*
X0672687Y0223892D01*
X0671508Y0223224D02*
X0678794Y0223224D01*
X0718362Y0233909D02*
X0719191Y0233909D01*
X0719338Y0236581D02*
X0718215Y0236581D01*
D20*
X0719285Y0245067D03*
X0719285Y0248020D03*
X0719285Y0250972D03*
X0719285Y0253925D03*
X0715840Y0253925D03*
X0715840Y0250972D03*
X0715840Y0248020D03*
X0715840Y0245067D03*
X0712395Y0245020D03*
X0712395Y0248020D03*
X0712395Y0250972D03*
X0712395Y0253925D03*
X0708950Y0253925D03*
X0708950Y0250972D03*
X0708950Y0248020D03*
X0708950Y0245067D03*
X0705506Y0245067D03*
X0705506Y0248020D03*
X0705506Y0250972D03*
X0705506Y0253925D03*
X0694651Y0255421D03*
D21*
X0757576Y0248276D03*
X0766632Y0249850D03*
X0767419Y0243157D03*
X0757183Y0240402D03*
X0756395Y0229378D03*
X0756789Y0223472D03*
X0784939Y0221307D03*
X0794781Y0208118D03*
X0801671Y0215008D03*
X0804624Y0205165D03*
X0813482Y0206937D03*
X0824506Y0203394D03*
X0818206Y0196307D03*
X0808364Y0196701D03*
X0804427Y0190402D03*
X0799702Y0196307D03*
X0816632Y0186465D03*
X0803246Y0181740D03*
X0791435Y0181740D03*
X0775293Y0182528D03*
X0764466Y0188630D03*
X0748718Y0178394D03*
X0719781Y0169142D03*
X0694978Y0168748D03*
X0691435Y0168748D03*
X0691435Y0172291D03*
X0694978Y0172291D03*
X0693010Y0165205D03*
X0691435Y0161661D03*
X0691435Y0158118D03*
X0694978Y0158118D03*
X0694978Y0161661D03*
X0683561Y0160874D03*
X0662301Y0158118D03*
X0683364Y0153591D03*
X0715057Y0154181D03*
X0714663Y0145913D03*
X0708954Y0133906D03*
X0725687Y0114417D03*
X0692616Y0113630D03*
X0662301Y0167567D03*
X0706789Y0181740D03*
X0715057Y0181740D03*
X0693994Y0192567D03*
X0669387Y0185283D03*
X0828246Y0236071D03*
X0778049Y0244339D03*
X0830017Y0215598D03*
X0869387Y0217173D03*
X0861907Y0197488D03*
X0856789Y0191189D03*
X0844978Y0196701D03*
X0852458Y0182528D03*
X0865057Y0181740D03*
X0836710Y0179378D03*
X0628443Y0259693D03*
X0614663Y0259693D03*
X0592025Y0335480D03*
X0614663Y0340402D03*
X0602852Y0346307D03*
X0564466Y0345323D03*
X0564466Y0335480D03*
D22*
X0820175Y0241583D03*
X0805214Y0238433D03*
X0799309Y0236465D03*
X0802065Y0232134D03*
X0797340Y0228591D03*
X0803639Y0225047D03*
X0807576Y0228591D03*
X0813482Y0228197D03*
X0814269Y0224260D03*
X0808364Y0222291D03*
X0820175Y0222291D03*
X0820175Y0227016D03*
X0820175Y0230953D03*
X0793797Y0235283D03*
X0793797Y0239614D03*
X0601080Y0229575D03*
X0742025Y0158709D03*
D23*
X0500490Y0158146D02*
X0500490Y0294311D01*
X0562329Y0356150D01*
X0808730Y0356150D01*
X0870569Y0294311D01*
X0870569Y0219358D01*
X0869879Y0219643D01*
X0868896Y0219643D01*
X0867988Y0219267D01*
X0867293Y0218572D01*
X0866917Y0217665D01*
X0866917Y0216682D01*
X0867293Y0215774D01*
X0867988Y0215079D01*
X0868896Y0214703D01*
X0869879Y0214703D01*
X0870569Y0214989D01*
X0870569Y0158146D01*
X0810698Y0098276D01*
X0560360Y0098276D01*
X0500490Y0158146D01*
X0500638Y0157998D02*
X0582009Y0157998D01*
X0582000Y0157977D02*
X0582000Y0156448D01*
X0582586Y0155035D01*
X0583667Y0153954D01*
X0585080Y0153369D01*
X0586609Y0153369D01*
X0588021Y0153954D01*
X0589103Y0155035D01*
X0589688Y0156448D01*
X0589688Y0157977D01*
X0589103Y0159390D01*
X0588021Y0160471D01*
X0586609Y0161056D01*
X0585080Y0161056D01*
X0583667Y0160471D01*
X0582586Y0159390D01*
X0582000Y0157977D01*
X0582000Y0157212D02*
X0501424Y0157212D01*
X0502210Y0156426D02*
X0582010Y0156426D01*
X0582335Y0155640D02*
X0502996Y0155640D01*
X0503782Y0154854D02*
X0582767Y0154854D01*
X0583553Y0154068D02*
X0504568Y0154068D01*
X0505354Y0153282D02*
X0680894Y0153282D01*
X0680894Y0153099D02*
X0681270Y0152191D01*
X0681965Y0151497D01*
X0682873Y0151120D01*
X0683855Y0151120D01*
X0684763Y0151497D01*
X0685458Y0152191D01*
X0685834Y0153099D01*
X0685834Y0154082D01*
X0685458Y0154990D01*
X0684763Y0155685D01*
X0683855Y0156061D01*
X0682873Y0156061D01*
X0681965Y0155685D01*
X0681270Y0154990D01*
X0680894Y0154082D01*
X0680894Y0153099D01*
X0681144Y0152496D02*
X0506140Y0152496D01*
X0506926Y0151710D02*
X0527166Y0151710D01*
X0526991Y0151638D02*
X0525868Y0150515D01*
X0525260Y0149047D01*
X0525260Y0147458D01*
X0525868Y0145990D01*
X0526991Y0144867D01*
X0528459Y0144259D01*
X0530048Y0144259D01*
X0531516Y0144867D01*
X0532639Y0145990D01*
X0533247Y0147458D01*
X0533247Y0149047D01*
X0532639Y0150515D01*
X0531516Y0151638D01*
X0530048Y0152246D01*
X0528459Y0152246D01*
X0526991Y0151638D01*
X0526277Y0150924D02*
X0507712Y0150924D01*
X0508498Y0150138D02*
X0525712Y0150138D01*
X0525386Y0149352D02*
X0509283Y0149352D01*
X0510069Y0148567D02*
X0525260Y0148567D01*
X0525260Y0147781D02*
X0510855Y0147781D01*
X0511641Y0146995D02*
X0525451Y0146995D01*
X0525777Y0146209D02*
X0512427Y0146209D01*
X0513213Y0145423D02*
X0526435Y0145423D01*
X0527545Y0144637D02*
X0513999Y0144637D01*
X0514785Y0143851D02*
X0533346Y0143851D01*
X0532939Y0143443D02*
X0532331Y0141976D01*
X0532331Y0140387D01*
X0532939Y0138919D01*
X0534062Y0137795D01*
X0535530Y0137188D01*
X0537119Y0137188D01*
X0538587Y0137795D01*
X0539710Y0138919D01*
X0540318Y0140387D01*
X0540318Y0141976D01*
X0539710Y0143443D01*
X0538587Y0144567D01*
X0537119Y0145175D01*
X0535530Y0145175D01*
X0534062Y0144567D01*
X0532939Y0143443D01*
X0532782Y0143065D02*
X0515571Y0143065D01*
X0516357Y0142279D02*
X0532456Y0142279D01*
X0532331Y0141493D02*
X0517143Y0141493D01*
X0517928Y0140707D02*
X0532331Y0140707D01*
X0532523Y0139922D02*
X0518714Y0139922D01*
X0519500Y0139136D02*
X0532849Y0139136D01*
X0533508Y0138350D02*
X0520286Y0138350D01*
X0521072Y0137564D02*
X0534621Y0137564D01*
X0538027Y0137564D02*
X0541297Y0137564D01*
X0541133Y0137496D02*
X0540010Y0136372D01*
X0539402Y0134905D01*
X0539402Y0133316D01*
X0540010Y0131848D01*
X0541133Y0130724D01*
X0542601Y0130116D01*
X0544190Y0130116D01*
X0545658Y0130724D01*
X0546781Y0131848D01*
X0547389Y0133316D01*
X0547389Y0134905D01*
X0546781Y0136372D01*
X0545658Y0137496D01*
X0544190Y0138104D01*
X0542601Y0138104D01*
X0541133Y0137496D01*
X0540415Y0136778D02*
X0521858Y0136778D01*
X0522644Y0135992D02*
X0539852Y0135992D01*
X0539527Y0135206D02*
X0523430Y0135206D01*
X0524216Y0134420D02*
X0539402Y0134420D01*
X0539402Y0133634D02*
X0525002Y0133634D01*
X0525788Y0132848D02*
X0539595Y0132848D01*
X0539921Y0132062D02*
X0526573Y0132062D01*
X0527359Y0131276D02*
X0540581Y0131276D01*
X0541698Y0130491D02*
X0528145Y0130491D01*
X0528931Y0129705D02*
X0547484Y0129705D01*
X0547081Y0129301D02*
X0546473Y0127833D01*
X0546473Y0126245D01*
X0547081Y0124777D01*
X0548204Y0123653D01*
X0549672Y0123045D01*
X0551261Y0123045D01*
X0552729Y0123653D01*
X0553852Y0124777D01*
X0554460Y0126245D01*
X0554460Y0127833D01*
X0553852Y0129301D01*
X0552729Y0130425D01*
X0551261Y0131033D01*
X0549672Y0131033D01*
X0548204Y0130425D01*
X0547081Y0129301D01*
X0546922Y0128919D02*
X0529717Y0128919D01*
X0530503Y0128133D02*
X0546597Y0128133D01*
X0546473Y0127347D02*
X0531289Y0127347D01*
X0532075Y0126561D02*
X0546473Y0126561D01*
X0546667Y0125775D02*
X0532861Y0125775D01*
X0533647Y0124989D02*
X0546993Y0124989D01*
X0547654Y0124203D02*
X0534433Y0124203D01*
X0535219Y0123417D02*
X0548774Y0123417D01*
X0552159Y0123417D02*
X0584963Y0123417D01*
X0585080Y0123369D02*
X0586609Y0123369D01*
X0588021Y0123954D01*
X0589103Y0125035D01*
X0589688Y0126448D01*
X0589688Y0127977D01*
X0589103Y0129390D01*
X0588021Y0130471D01*
X0586609Y0131056D01*
X0585080Y0131056D01*
X0583667Y0130471D01*
X0582586Y0129390D01*
X0582000Y0127977D01*
X0582000Y0126448D01*
X0582586Y0125035D01*
X0583667Y0123954D01*
X0585080Y0123369D01*
X0586726Y0123417D02*
X0644963Y0123417D01*
X0645080Y0123369D02*
X0646609Y0123369D01*
X0648021Y0123954D01*
X0649103Y0125035D01*
X0649688Y0126448D01*
X0649688Y0127977D01*
X0649103Y0129390D01*
X0648021Y0130471D01*
X0646609Y0131056D01*
X0645080Y0131056D01*
X0643667Y0130471D01*
X0642586Y0129390D01*
X0642000Y0127977D01*
X0642000Y0126448D01*
X0642586Y0125035D01*
X0643667Y0123954D01*
X0645080Y0123369D01*
X0646726Y0123417D02*
X0816931Y0123417D01*
X0816361Y0123653D02*
X0817829Y0123045D01*
X0819418Y0123045D01*
X0820886Y0123653D01*
X0822009Y0124777D01*
X0822617Y0126245D01*
X0822617Y0127833D01*
X0822009Y0129301D01*
X0820886Y0130425D01*
X0819418Y0131033D01*
X0817829Y0131033D01*
X0816361Y0130425D01*
X0815238Y0129301D01*
X0814630Y0127833D01*
X0814630Y0126245D01*
X0815238Y0124777D01*
X0816361Y0123653D01*
X0815811Y0124203D02*
X0678897Y0124203D01*
X0678440Y0124014D02*
X0679891Y0124615D01*
X0681001Y0125725D01*
X0681602Y0127176D01*
X0681602Y0128746D01*
X0681001Y0130196D01*
X0679891Y0131306D01*
X0678440Y0131907D01*
X0676870Y0131907D01*
X0675420Y0131306D01*
X0674310Y0130196D01*
X0673709Y0128746D01*
X0673709Y0127176D01*
X0674310Y0125725D01*
X0675420Y0124615D01*
X0676870Y0124014D01*
X0678440Y0124014D01*
X0676414Y0124203D02*
X0648271Y0124203D01*
X0649057Y0124989D02*
X0675045Y0124989D01*
X0674289Y0125775D02*
X0649409Y0125775D01*
X0649688Y0126561D02*
X0673963Y0126561D01*
X0673709Y0127347D02*
X0649688Y0127347D01*
X0649623Y0128133D02*
X0673709Y0128133D01*
X0673780Y0128919D02*
X0649298Y0128919D01*
X0648788Y0129705D02*
X0674106Y0129705D01*
X0674604Y0130491D02*
X0647974Y0130491D01*
X0646609Y0133369D02*
X0648021Y0133954D01*
X0649103Y0135035D01*
X0649688Y0136448D01*
X0649688Y0137977D01*
X0649103Y0139390D01*
X0648021Y0140471D01*
X0646609Y0141056D01*
X0645080Y0141056D01*
X0643667Y0140471D01*
X0642586Y0139390D01*
X0642000Y0137977D01*
X0642000Y0136448D01*
X0642586Y0135035D01*
X0643667Y0133954D01*
X0645080Y0133369D01*
X0646609Y0133369D01*
X0647249Y0133634D02*
X0706484Y0133634D01*
X0706484Y0133414D02*
X0706860Y0132506D01*
X0707555Y0131811D01*
X0708463Y0131435D01*
X0709446Y0131435D01*
X0710354Y0131811D01*
X0711048Y0132506D01*
X0711424Y0133414D01*
X0711424Y0134397D01*
X0711048Y0135305D01*
X0710354Y0136000D01*
X0709446Y0136376D01*
X0708463Y0136376D01*
X0707555Y0136000D01*
X0706860Y0135305D01*
X0706484Y0134397D01*
X0706484Y0133414D01*
X0706719Y0132848D02*
X0547196Y0132848D01*
X0547389Y0133634D02*
X0584439Y0133634D01*
X0585080Y0133369D02*
X0586609Y0133369D01*
X0588021Y0133954D01*
X0589103Y0135035D01*
X0589688Y0136448D01*
X0589688Y0137977D01*
X0589103Y0139390D01*
X0588021Y0140471D01*
X0586609Y0141056D01*
X0585080Y0141056D01*
X0583667Y0140471D01*
X0582586Y0139390D01*
X0582000Y0137977D01*
X0582000Y0136448D01*
X0582586Y0135035D01*
X0583667Y0133954D01*
X0585080Y0133369D01*
X0583201Y0134420D02*
X0547389Y0134420D01*
X0547264Y0135206D02*
X0582515Y0135206D01*
X0582189Y0135992D02*
X0546939Y0135992D01*
X0546376Y0136778D02*
X0582000Y0136778D01*
X0582000Y0137564D02*
X0545494Y0137564D01*
X0540125Y0139922D02*
X0583117Y0139922D01*
X0582480Y0139136D02*
X0539800Y0139136D01*
X0539141Y0138350D02*
X0582155Y0138350D01*
X0584237Y0140707D02*
X0540318Y0140707D01*
X0540318Y0141493D02*
X0723480Y0141493D01*
X0723480Y0140707D02*
X0647451Y0140707D01*
X0648571Y0139922D02*
X0723581Y0139922D01*
X0723480Y0140165D02*
X0724565Y0137545D01*
X0726570Y0135540D01*
X0729190Y0134455D01*
X0732026Y0134455D01*
X0734645Y0135540D01*
X0736650Y0137545D01*
X0737735Y0140165D01*
X0737735Y0143000D01*
X0736650Y0145620D01*
X0734645Y0147625D01*
X0732026Y0148710D01*
X0729190Y0148710D01*
X0726570Y0147625D01*
X0724565Y0145620D01*
X0723480Y0143000D01*
X0723480Y0140165D01*
X0723907Y0139136D02*
X0649208Y0139136D01*
X0649534Y0138350D02*
X0724232Y0138350D01*
X0724558Y0137564D02*
X0649688Y0137564D01*
X0649688Y0136778D02*
X0725333Y0136778D01*
X0726119Y0135992D02*
X0710361Y0135992D01*
X0711089Y0135206D02*
X0727377Y0135206D01*
X0733839Y0135206D02*
X0771078Y0135206D01*
X0770271Y0135540D02*
X0772891Y0134455D01*
X0775726Y0134455D01*
X0778346Y0135540D01*
X0780351Y0137545D01*
X0781436Y0140165D01*
X0781436Y0143000D01*
X0780351Y0145620D01*
X0778346Y0147625D01*
X0775726Y0148710D01*
X0772891Y0148710D01*
X0770271Y0147625D01*
X0768266Y0145620D01*
X0767181Y0143000D01*
X0767181Y0140165D01*
X0768266Y0137545D01*
X0770271Y0135540D01*
X0769820Y0135992D02*
X0735097Y0135992D01*
X0735883Y0136778D02*
X0769034Y0136778D01*
X0768259Y0137564D02*
X0736658Y0137564D01*
X0736984Y0138350D02*
X0767933Y0138350D01*
X0767608Y0139136D02*
X0737309Y0139136D01*
X0737635Y0139922D02*
X0767282Y0139922D01*
X0767181Y0140707D02*
X0737735Y0140707D01*
X0737735Y0141493D02*
X0767181Y0141493D01*
X0767181Y0142279D02*
X0737735Y0142279D01*
X0737709Y0143065D02*
X0767208Y0143065D01*
X0767534Y0143851D02*
X0737383Y0143851D01*
X0737058Y0144637D02*
X0767859Y0144637D01*
X0768185Y0145423D02*
X0736732Y0145423D01*
X0736062Y0146209D02*
X0768855Y0146209D01*
X0769641Y0146995D02*
X0735276Y0146995D01*
X0734270Y0147781D02*
X0770647Y0147781D01*
X0772544Y0148567D02*
X0732373Y0148567D01*
X0728843Y0148567D02*
X0649444Y0148567D01*
X0649688Y0147977D02*
X0649103Y0149390D01*
X0648021Y0150471D01*
X0646609Y0151056D01*
X0645080Y0151056D01*
X0643667Y0150471D01*
X0642586Y0149390D01*
X0642000Y0147977D01*
X0642000Y0146448D01*
X0642586Y0145035D01*
X0643667Y0143954D01*
X0645080Y0143369D01*
X0646609Y0143369D01*
X0648021Y0143954D01*
X0649103Y0145035D01*
X0649688Y0146448D01*
X0649688Y0147977D01*
X0649688Y0147781D02*
X0713037Y0147781D01*
X0713264Y0148007D02*
X0712569Y0147313D01*
X0712193Y0146405D01*
X0712193Y0145422D01*
X0712569Y0144514D01*
X0713264Y0143819D01*
X0714172Y0143443D01*
X0715154Y0143443D01*
X0716062Y0143819D01*
X0716757Y0144514D01*
X0717133Y0145422D01*
X0717133Y0146405D01*
X0716757Y0147313D01*
X0716062Y0148007D01*
X0715154Y0148383D01*
X0714172Y0148383D01*
X0713264Y0148007D01*
X0712437Y0146995D02*
X0649688Y0146995D01*
X0649589Y0146209D02*
X0712193Y0146209D01*
X0712193Y0145423D02*
X0649263Y0145423D01*
X0648704Y0144637D02*
X0712518Y0144637D01*
X0713232Y0143851D02*
X0647773Y0143851D01*
X0643915Y0143851D02*
X0637773Y0143851D01*
X0638021Y0143954D02*
X0639103Y0145035D01*
X0639688Y0146448D01*
X0639688Y0147977D01*
X0639103Y0149390D01*
X0638021Y0150471D01*
X0636609Y0151056D01*
X0635080Y0151056D01*
X0633667Y0150471D01*
X0632586Y0149390D01*
X0632000Y0147977D01*
X0632000Y0146448D01*
X0632586Y0145035D01*
X0633667Y0143954D01*
X0635080Y0143369D01*
X0636609Y0143369D01*
X0638021Y0143954D01*
X0638704Y0144637D02*
X0642984Y0144637D01*
X0642425Y0145423D02*
X0639263Y0145423D01*
X0639589Y0146209D02*
X0642100Y0146209D01*
X0642000Y0146995D02*
X0639688Y0146995D01*
X0639688Y0147781D02*
X0642000Y0147781D01*
X0642245Y0148567D02*
X0639444Y0148567D01*
X0639118Y0149352D02*
X0642570Y0149352D01*
X0643334Y0150138D02*
X0638354Y0150138D01*
X0636927Y0150924D02*
X0644761Y0150924D01*
X0646927Y0150924D02*
X0836861Y0150924D01*
X0836451Y0150515D02*
X0835843Y0149047D01*
X0835843Y0147458D01*
X0836451Y0145990D01*
X0837574Y0144867D01*
X0839042Y0144259D01*
X0840631Y0144259D01*
X0842099Y0144867D01*
X0843222Y0145990D01*
X0843830Y0147458D01*
X0843830Y0149047D01*
X0843222Y0150515D01*
X0842099Y0151638D01*
X0840631Y0152246D01*
X0839042Y0152246D01*
X0837574Y0151638D01*
X0836451Y0150515D01*
X0836295Y0150138D02*
X0648354Y0150138D01*
X0649118Y0149352D02*
X0835970Y0149352D01*
X0835843Y0148567D02*
X0776073Y0148567D01*
X0777971Y0147781D02*
X0835843Y0147781D01*
X0836035Y0146995D02*
X0778977Y0146995D01*
X0779762Y0146209D02*
X0836360Y0146209D01*
X0837018Y0145423D02*
X0780433Y0145423D01*
X0780758Y0144637D02*
X0830673Y0144637D01*
X0830503Y0144567D02*
X0829380Y0143443D01*
X0828772Y0141976D01*
X0828772Y0140387D01*
X0829380Y0138919D01*
X0830503Y0137795D01*
X0831971Y0137188D01*
X0833560Y0137188D01*
X0835028Y0137795D01*
X0836151Y0138919D01*
X0836759Y0140387D01*
X0836759Y0141976D01*
X0836151Y0143443D01*
X0835028Y0144567D01*
X0833560Y0145175D01*
X0831971Y0145175D01*
X0830503Y0144567D01*
X0829787Y0143851D02*
X0781084Y0143851D01*
X0781409Y0143065D02*
X0829223Y0143065D01*
X0828898Y0142279D02*
X0781436Y0142279D01*
X0781436Y0141493D02*
X0828772Y0141493D01*
X0828772Y0140707D02*
X0781436Y0140707D01*
X0781335Y0139922D02*
X0828965Y0139922D01*
X0829290Y0139136D02*
X0781010Y0139136D01*
X0780684Y0138350D02*
X0829949Y0138350D01*
X0831063Y0137564D02*
X0827793Y0137564D01*
X0827957Y0137496D02*
X0826489Y0138104D01*
X0824900Y0138104D01*
X0823432Y0137496D01*
X0822309Y0136372D01*
X0821701Y0134905D01*
X0821701Y0133316D01*
X0822309Y0131848D01*
X0823432Y0130724D01*
X0824900Y0130116D01*
X0826489Y0130116D01*
X0827957Y0130724D01*
X0829080Y0131848D01*
X0829688Y0133316D01*
X0829688Y0134905D01*
X0829080Y0136372D01*
X0827957Y0137496D01*
X0828675Y0136778D02*
X0849200Y0136778D01*
X0848414Y0135992D02*
X0829238Y0135992D01*
X0829563Y0135206D02*
X0847629Y0135206D01*
X0846843Y0134420D02*
X0829688Y0134420D01*
X0829688Y0133634D02*
X0846057Y0133634D01*
X0845271Y0132848D02*
X0829495Y0132848D01*
X0829169Y0132062D02*
X0844485Y0132062D01*
X0843699Y0131276D02*
X0828509Y0131276D01*
X0827392Y0130491D02*
X0842913Y0130491D01*
X0842127Y0129705D02*
X0821606Y0129705D01*
X0822168Y0128919D02*
X0841341Y0128919D01*
X0840555Y0128133D02*
X0822493Y0128133D01*
X0822617Y0127347D02*
X0839769Y0127347D01*
X0838983Y0126561D02*
X0822617Y0126561D01*
X0822423Y0125775D02*
X0838198Y0125775D01*
X0837412Y0124989D02*
X0822097Y0124989D01*
X0821436Y0124203D02*
X0836626Y0124203D01*
X0835840Y0123417D02*
X0820316Y0123417D01*
X0815150Y0124989D02*
X0680265Y0124989D01*
X0681022Y0125775D02*
X0814824Y0125775D01*
X0814630Y0126561D02*
X0681347Y0126561D01*
X0681602Y0127347D02*
X0814630Y0127347D01*
X0814754Y0128133D02*
X0681602Y0128133D01*
X0681530Y0128919D02*
X0815079Y0128919D01*
X0815641Y0129705D02*
X0681204Y0129705D01*
X0680706Y0130491D02*
X0816520Y0130491D01*
X0820727Y0130491D02*
X0823997Y0130491D01*
X0822880Y0131276D02*
X0679920Y0131276D01*
X0675390Y0131276D02*
X0546210Y0131276D01*
X0546870Y0132062D02*
X0707304Y0132062D01*
X0706494Y0134420D02*
X0648488Y0134420D01*
X0649173Y0135206D02*
X0706820Y0135206D01*
X0707548Y0135992D02*
X0649499Y0135992D01*
X0644439Y0133634D02*
X0587249Y0133634D01*
X0588488Y0134420D02*
X0643201Y0134420D01*
X0642515Y0135206D02*
X0589173Y0135206D01*
X0589499Y0135992D02*
X0642189Y0135992D01*
X0642000Y0136778D02*
X0589688Y0136778D01*
X0589688Y0137564D02*
X0642000Y0137564D01*
X0642155Y0138350D02*
X0589534Y0138350D01*
X0589208Y0139136D02*
X0642480Y0139136D01*
X0643117Y0139922D02*
X0588571Y0139922D01*
X0587451Y0140707D02*
X0644237Y0140707D01*
X0633915Y0143851D02*
X0587773Y0143851D01*
X0588021Y0143954D02*
X0589103Y0145035D01*
X0589688Y0146448D01*
X0589688Y0147977D01*
X0589103Y0149390D01*
X0588021Y0150471D01*
X0586609Y0151056D01*
X0585080Y0151056D01*
X0583667Y0150471D01*
X0582586Y0149390D01*
X0582000Y0147977D01*
X0582000Y0146448D01*
X0582586Y0145035D01*
X0583667Y0143954D01*
X0585080Y0143369D01*
X0586609Y0143369D01*
X0588021Y0143954D01*
X0588704Y0144637D02*
X0632984Y0144637D01*
X0632425Y0145423D02*
X0589263Y0145423D01*
X0589589Y0146209D02*
X0632100Y0146209D01*
X0632000Y0146995D02*
X0589688Y0146995D01*
X0589688Y0147781D02*
X0632000Y0147781D01*
X0632245Y0148567D02*
X0589444Y0148567D01*
X0589118Y0149352D02*
X0632570Y0149352D01*
X0633334Y0150138D02*
X0588354Y0150138D01*
X0586927Y0150924D02*
X0634761Y0150924D01*
X0635080Y0153369D02*
X0636609Y0153369D01*
X0638021Y0153954D01*
X0639103Y0155035D01*
X0639688Y0156448D01*
X0639688Y0157977D01*
X0639103Y0159390D01*
X0638021Y0160471D01*
X0636609Y0161056D01*
X0635080Y0161056D01*
X0633667Y0160471D01*
X0632586Y0159390D01*
X0632000Y0157977D01*
X0632000Y0156448D01*
X0632586Y0155035D01*
X0633667Y0153954D01*
X0635080Y0153369D01*
X0633553Y0154068D02*
X0588135Y0154068D01*
X0588921Y0154854D02*
X0632767Y0154854D01*
X0632335Y0155640D02*
X0589353Y0155640D01*
X0589679Y0156426D02*
X0632010Y0156426D01*
X0632000Y0157212D02*
X0589688Y0157212D01*
X0589679Y0157998D02*
X0632009Y0157998D01*
X0632334Y0158783D02*
X0589354Y0158783D01*
X0588923Y0159569D02*
X0632765Y0159569D01*
X0633551Y0160355D02*
X0588137Y0160355D01*
X0586923Y0163499D02*
X0614766Y0163499D01*
X0615080Y0163369D02*
X0616609Y0163369D01*
X0618021Y0163954D01*
X0619103Y0165035D01*
X0619688Y0166448D01*
X0619688Y0167977D01*
X0619103Y0169390D01*
X0618021Y0170471D01*
X0616609Y0171056D01*
X0615080Y0171056D01*
X0613667Y0170471D01*
X0612586Y0169390D01*
X0612000Y0167977D01*
X0612000Y0166448D01*
X0612586Y0165035D01*
X0613667Y0163954D01*
X0615080Y0163369D01*
X0616923Y0163499D02*
X0624766Y0163499D01*
X0625080Y0163369D02*
X0626609Y0163369D01*
X0628021Y0163954D01*
X0629103Y0165035D01*
X0629688Y0166448D01*
X0629688Y0167977D01*
X0629103Y0169390D01*
X0628021Y0170471D01*
X0626609Y0171056D01*
X0625080Y0171056D01*
X0623667Y0170471D01*
X0622586Y0169390D01*
X0622000Y0167977D01*
X0622000Y0166448D01*
X0622586Y0165035D01*
X0623667Y0163954D01*
X0625080Y0163369D01*
X0626923Y0163499D02*
X0644766Y0163499D01*
X0645080Y0163369D02*
X0646609Y0163369D01*
X0648021Y0163954D01*
X0649103Y0165035D01*
X0649688Y0166448D01*
X0649688Y0167977D01*
X0649103Y0169390D01*
X0648021Y0170471D01*
X0646609Y0171056D01*
X0645080Y0171056D01*
X0643667Y0170471D01*
X0642586Y0169390D01*
X0642000Y0167977D01*
X0642000Y0166448D01*
X0642586Y0165035D01*
X0643667Y0163954D01*
X0645080Y0163369D01*
X0646923Y0163499D02*
X0689779Y0163499D01*
X0690036Y0163755D02*
X0689341Y0163061D01*
X0688965Y0162153D01*
X0688965Y0161170D01*
X0689341Y0160262D01*
X0689713Y0159890D01*
X0689341Y0159517D01*
X0688965Y0158609D01*
X0688965Y0157627D01*
X0689341Y0156719D01*
X0690036Y0156024D01*
X0690943Y0155648D01*
X0691926Y0155648D01*
X0692834Y0156024D01*
X0693206Y0156397D01*
X0693579Y0156024D01*
X0694487Y0155648D01*
X0695469Y0155648D01*
X0696377Y0156024D01*
X0697072Y0156719D01*
X0697448Y0157627D01*
X0697448Y0158609D01*
X0697072Y0159517D01*
X0696700Y0159890D01*
X0697072Y0160262D01*
X0697448Y0161170D01*
X0697448Y0162153D01*
X0697072Y0163061D01*
X0696377Y0163755D01*
X0695469Y0164131D01*
X0695239Y0164131D01*
X0695480Y0164713D01*
X0695480Y0165696D01*
X0695239Y0166278D01*
X0695469Y0166278D01*
X0696377Y0166654D01*
X0697072Y0167349D01*
X0697448Y0168257D01*
X0697448Y0169239D01*
X0697072Y0170147D01*
X0696700Y0170520D01*
X0697072Y0170892D01*
X0697448Y0171800D01*
X0697448Y0172783D01*
X0697072Y0173691D01*
X0696377Y0174385D01*
X0695469Y0174761D01*
X0694487Y0174761D01*
X0693579Y0174385D01*
X0693206Y0174013D01*
X0692834Y0174385D01*
X0691926Y0174761D01*
X0690943Y0174761D01*
X0690036Y0174385D01*
X0689341Y0173691D01*
X0688965Y0172783D01*
X0688965Y0171800D01*
X0689341Y0170892D01*
X0689713Y0170520D01*
X0689341Y0170147D01*
X0688965Y0169239D01*
X0688965Y0168257D01*
X0689341Y0167349D01*
X0690036Y0166654D01*
X0690804Y0166336D01*
X0690539Y0165696D01*
X0690539Y0164713D01*
X0690804Y0164074D01*
X0690036Y0163755D01*
X0690717Y0164285D02*
X0648352Y0164285D01*
X0649117Y0165071D02*
X0690539Y0165071D01*
X0690606Y0165857D02*
X0649443Y0165857D01*
X0649688Y0166643D02*
X0690063Y0166643D01*
X0689308Y0167428D02*
X0649688Y0167428D01*
X0649590Y0168214D02*
X0688982Y0168214D01*
X0688965Y0169000D02*
X0649264Y0169000D01*
X0648706Y0169786D02*
X0689191Y0169786D01*
X0689661Y0170572D02*
X0647778Y0170572D01*
X0646609Y0173369D02*
X0648021Y0173954D01*
X0649103Y0175035D01*
X0649688Y0176448D01*
X0649688Y0177977D01*
X0649103Y0179390D01*
X0648021Y0180471D01*
X0646609Y0181056D01*
X0645080Y0181056D01*
X0643667Y0180471D01*
X0642586Y0179390D01*
X0642000Y0177977D01*
X0642000Y0176448D01*
X0642586Y0175035D01*
X0643667Y0173954D01*
X0645080Y0173369D01*
X0646609Y0173369D01*
X0647446Y0173716D02*
X0689366Y0173716D01*
X0689026Y0172930D02*
X0500490Y0172930D01*
X0500490Y0173716D02*
X0584242Y0173716D01*
X0583667Y0173954D02*
X0585080Y0173369D01*
X0586609Y0173369D01*
X0588021Y0173954D01*
X0589103Y0175035D01*
X0589688Y0176448D01*
X0589688Y0177977D01*
X0589103Y0179390D01*
X0588021Y0180471D01*
X0586609Y0181056D01*
X0585080Y0181056D01*
X0583667Y0180471D01*
X0582586Y0179390D01*
X0582000Y0177977D01*
X0582000Y0176448D01*
X0582586Y0175035D01*
X0583667Y0173954D01*
X0583119Y0174502D02*
X0500490Y0174502D01*
X0500490Y0175288D02*
X0582481Y0175288D01*
X0582156Y0176074D02*
X0500490Y0176074D01*
X0500490Y0176859D02*
X0582000Y0176859D01*
X0582000Y0177645D02*
X0500490Y0177645D01*
X0500490Y0178431D02*
X0582189Y0178431D01*
X0582514Y0179217D02*
X0500490Y0179217D01*
X0500490Y0180003D02*
X0583199Y0180003D01*
X0584434Y0180789D02*
X0500490Y0180789D01*
X0500490Y0181575D02*
X0704319Y0181575D01*
X0704319Y0181249D02*
X0704695Y0180341D01*
X0705390Y0179646D01*
X0706298Y0179270D01*
X0707280Y0179270D01*
X0708188Y0179646D01*
X0708883Y0180341D01*
X0709259Y0181249D01*
X0709259Y0182231D01*
X0708883Y0183139D01*
X0708188Y0183834D01*
X0707280Y0184210D01*
X0706298Y0184210D01*
X0705390Y0183834D01*
X0704695Y0183139D01*
X0704319Y0182231D01*
X0704319Y0181249D01*
X0704509Y0180789D02*
X0647254Y0180789D01*
X0648489Y0180003D02*
X0705033Y0180003D01*
X0704373Y0182361D02*
X0500490Y0182361D01*
X0500490Y0183147D02*
X0704702Y0183147D01*
X0705628Y0183933D02*
X0647970Y0183933D01*
X0648021Y0183954D02*
X0649103Y0185035D01*
X0649688Y0186448D01*
X0649688Y0187977D01*
X0649103Y0189390D01*
X0648021Y0190471D01*
X0646609Y0191056D01*
X0645080Y0191056D01*
X0643667Y0190471D01*
X0642586Y0189390D01*
X0642000Y0187977D01*
X0642000Y0186448D01*
X0642586Y0185035D01*
X0643667Y0183954D01*
X0645080Y0183369D01*
X0646609Y0183369D01*
X0648021Y0183954D01*
X0648786Y0184719D02*
X0774128Y0184719D01*
X0773894Y0184622D02*
X0773199Y0183927D01*
X0772823Y0183019D01*
X0772823Y0182036D01*
X0773199Y0181128D01*
X0773894Y0180434D01*
X0774802Y0180057D01*
X0775784Y0180057D01*
X0776692Y0180434D01*
X0777387Y0181128D01*
X0777763Y0182036D01*
X0777763Y0183019D01*
X0777387Y0183927D01*
X0776692Y0184622D01*
X0775784Y0184998D01*
X0774802Y0184998D01*
X0773894Y0184622D01*
X0773205Y0183933D02*
X0716218Y0183933D01*
X0716456Y0183834D02*
X0715548Y0184210D01*
X0714565Y0184210D01*
X0713658Y0183834D01*
X0712963Y0183139D01*
X0712587Y0182231D01*
X0712587Y0181249D01*
X0712963Y0180341D01*
X0713658Y0179646D01*
X0714565Y0179270D01*
X0715548Y0179270D01*
X0716456Y0179646D01*
X0717151Y0180341D01*
X0717527Y0181249D01*
X0717527Y0182231D01*
X0717151Y0183139D01*
X0716456Y0183834D01*
X0717143Y0183147D02*
X0772876Y0183147D01*
X0772823Y0182361D02*
X0717473Y0182361D01*
X0717527Y0181575D02*
X0773014Y0181575D01*
X0773538Y0180789D02*
X0749390Y0180789D01*
X0749209Y0180864D02*
X0748227Y0180864D01*
X0747319Y0180488D01*
X0746624Y0179793D01*
X0746248Y0178885D01*
X0746248Y0177902D01*
X0746624Y0176995D01*
X0747319Y0176300D01*
X0748227Y0175924D01*
X0749209Y0175924D01*
X0750117Y0176300D01*
X0750812Y0176995D01*
X0751188Y0177902D01*
X0751188Y0178885D01*
X0750812Y0179793D01*
X0750117Y0180488D01*
X0749209Y0180864D01*
X0748046Y0180789D02*
X0717336Y0180789D01*
X0716813Y0180003D02*
X0746834Y0180003D01*
X0746386Y0179217D02*
X0649174Y0179217D01*
X0649500Y0178431D02*
X0746248Y0178431D01*
X0746355Y0177645D02*
X0649688Y0177645D01*
X0649688Y0176859D02*
X0746759Y0176859D01*
X0747865Y0176074D02*
X0649533Y0176074D01*
X0649207Y0175288D02*
X0870569Y0175288D01*
X0870569Y0176074D02*
X0749571Y0176074D01*
X0750677Y0176859D02*
X0870569Y0176859D01*
X0870569Y0177645D02*
X0838471Y0177645D01*
X0838804Y0177979D02*
X0839180Y0178887D01*
X0839180Y0179869D01*
X0838804Y0180777D01*
X0838109Y0181472D01*
X0837202Y0181848D01*
X0836219Y0181848D01*
X0835311Y0181472D01*
X0834616Y0180777D01*
X0834240Y0179869D01*
X0834240Y0178887D01*
X0834616Y0177979D01*
X0835311Y0177284D01*
X0836219Y0176908D01*
X0837202Y0176908D01*
X0838109Y0177284D01*
X0838804Y0177979D01*
X0838992Y0178431D02*
X0870569Y0178431D01*
X0870569Y0179217D02*
X0839180Y0179217D01*
X0839125Y0180003D02*
X0863301Y0180003D01*
X0862963Y0180341D02*
X0863658Y0179646D01*
X0864565Y0179270D01*
X0865548Y0179270D01*
X0866456Y0179646D01*
X0867151Y0180341D01*
X0867527Y0181249D01*
X0867527Y0182231D01*
X0867151Y0183139D01*
X0866456Y0183834D01*
X0865548Y0184210D01*
X0864565Y0184210D01*
X0863658Y0183834D01*
X0862963Y0183139D01*
X0862587Y0182231D01*
X0862587Y0181249D01*
X0862963Y0180341D01*
X0862777Y0180789D02*
X0854213Y0180789D01*
X0854552Y0181128D02*
X0854928Y0182036D01*
X0854928Y0183019D01*
X0854552Y0183927D01*
X0853858Y0184622D01*
X0852950Y0184998D01*
X0851967Y0184998D01*
X0851059Y0184622D01*
X0850364Y0183927D01*
X0849988Y0183019D01*
X0849988Y0182036D01*
X0850364Y0181128D01*
X0851059Y0180434D01*
X0851967Y0180057D01*
X0852950Y0180057D01*
X0853858Y0180434D01*
X0854552Y0181128D01*
X0854737Y0181575D02*
X0862587Y0181575D01*
X0862640Y0182361D02*
X0854928Y0182361D01*
X0854875Y0183147D02*
X0862970Y0183147D01*
X0863895Y0183933D02*
X0854546Y0183933D01*
X0853623Y0184719D02*
X0870569Y0184719D01*
X0870569Y0185504D02*
X0818907Y0185504D01*
X0818726Y0185065D02*
X0819102Y0185973D01*
X0819102Y0186956D01*
X0818726Y0187864D01*
X0818031Y0188559D01*
X0817123Y0188935D01*
X0816140Y0188935D01*
X0815232Y0188559D01*
X0814538Y0187864D01*
X0814161Y0186956D01*
X0814161Y0185973D01*
X0814538Y0185065D01*
X0815232Y0184371D01*
X0816140Y0183994D01*
X0817123Y0183994D01*
X0818031Y0184371D01*
X0818726Y0185065D01*
X0818379Y0184719D02*
X0851293Y0184719D01*
X0850370Y0183933D02*
X0804407Y0183933D01*
X0804645Y0183834D02*
X0803737Y0184210D01*
X0802754Y0184210D01*
X0801847Y0183834D01*
X0801152Y0183139D01*
X0800776Y0182231D01*
X0800776Y0181249D01*
X0801152Y0180341D01*
X0801847Y0179646D01*
X0802754Y0179270D01*
X0803737Y0179270D01*
X0804645Y0179646D01*
X0805340Y0180341D01*
X0805716Y0181249D01*
X0805716Y0182231D01*
X0805340Y0183139D01*
X0804645Y0183834D01*
X0805332Y0183147D02*
X0850041Y0183147D01*
X0849988Y0182361D02*
X0805662Y0182361D01*
X0805716Y0181575D02*
X0835560Y0181575D01*
X0834628Y0180789D02*
X0805525Y0180789D01*
X0805002Y0180003D02*
X0834296Y0180003D01*
X0834240Y0179217D02*
X0751051Y0179217D01*
X0751188Y0178431D02*
X0834429Y0178431D01*
X0834950Y0177645D02*
X0751082Y0177645D01*
X0750602Y0180003D02*
X0789679Y0180003D01*
X0789341Y0180341D02*
X0790036Y0179646D01*
X0790943Y0179270D01*
X0791926Y0179270D01*
X0792834Y0179646D01*
X0793529Y0180341D01*
X0793905Y0181249D01*
X0793905Y0182231D01*
X0793529Y0183139D01*
X0792834Y0183834D01*
X0791926Y0184210D01*
X0790943Y0184210D01*
X0790036Y0183834D01*
X0789341Y0183139D01*
X0788965Y0182231D01*
X0788965Y0181249D01*
X0789341Y0180341D01*
X0789155Y0180789D02*
X0777048Y0180789D01*
X0777572Y0181575D02*
X0788965Y0181575D01*
X0789018Y0182361D02*
X0777763Y0182361D01*
X0777710Y0183147D02*
X0789348Y0183147D01*
X0790273Y0183933D02*
X0777381Y0183933D01*
X0776458Y0184719D02*
X0814884Y0184719D01*
X0814356Y0185504D02*
X0649297Y0185504D01*
X0649623Y0186290D02*
X0763660Y0186290D01*
X0763975Y0186160D02*
X0764958Y0186160D01*
X0765865Y0186536D01*
X0766560Y0187231D01*
X0766936Y0188139D01*
X0766936Y0189121D01*
X0766560Y0190029D01*
X0765865Y0190724D01*
X0764958Y0191100D01*
X0763975Y0191100D01*
X0763067Y0190724D01*
X0762372Y0190029D01*
X0761996Y0189121D01*
X0761996Y0188139D01*
X0762372Y0187231D01*
X0763067Y0186536D01*
X0763975Y0186160D01*
X0765273Y0186290D02*
X0814161Y0186290D01*
X0814211Y0187076D02*
X0766406Y0187076D01*
X0766822Y0187862D02*
X0814537Y0187862D01*
X0815449Y0188648D02*
X0806167Y0188648D01*
X0805826Y0188308D02*
X0806521Y0189002D01*
X0806897Y0189910D01*
X0806897Y0190893D01*
X0806521Y0191801D01*
X0805826Y0192496D01*
X0804918Y0192872D01*
X0803935Y0192872D01*
X0803028Y0192496D01*
X0802333Y0191801D01*
X0801957Y0190893D01*
X0801957Y0189910D01*
X0802333Y0189002D01*
X0803028Y0188308D01*
X0803935Y0187931D01*
X0804918Y0187931D01*
X0805826Y0188308D01*
X0806700Y0189434D02*
X0827886Y0189434D01*
X0827101Y0190220D02*
X0806897Y0190220D01*
X0806850Y0191006D02*
X0826614Y0191006D01*
X0826825Y0190495D02*
X0828930Y0188391D01*
X0831679Y0187252D01*
X0834655Y0187252D01*
X0837404Y0188391D01*
X0839508Y0190495D01*
X0840647Y0193244D01*
X0840647Y0196220D01*
X0839508Y0198970D01*
X0837404Y0201074D01*
X0834655Y0202213D01*
X0831679Y0202213D01*
X0828930Y0201074D01*
X0826825Y0198970D01*
X0825687Y0196220D01*
X0825687Y0193244D01*
X0826825Y0190495D01*
X0826288Y0191792D02*
X0806525Y0191792D01*
X0805628Y0192578D02*
X0825963Y0192578D01*
X0825687Y0193364D02*
X0696337Y0193364D01*
X0696464Y0193058D02*
X0696088Y0193966D01*
X0695393Y0194661D01*
X0694485Y0195037D01*
X0693502Y0195037D01*
X0692595Y0194661D01*
X0691900Y0193966D01*
X0691524Y0193058D01*
X0691524Y0192076D01*
X0691900Y0191168D01*
X0692595Y0190473D01*
X0693502Y0190097D01*
X0694485Y0190097D01*
X0695393Y0190473D01*
X0696088Y0191168D01*
X0696464Y0192076D01*
X0696464Y0193058D01*
X0696464Y0192578D02*
X0803226Y0192578D01*
X0802329Y0191792D02*
X0696346Y0191792D01*
X0695926Y0191006D02*
X0763748Y0191006D01*
X0762563Y0190220D02*
X0694782Y0190220D01*
X0693205Y0190220D02*
X0648273Y0190220D01*
X0649059Y0189434D02*
X0762126Y0189434D01*
X0761996Y0188648D02*
X0649410Y0188648D01*
X0649688Y0187862D02*
X0762111Y0187862D01*
X0762527Y0187076D02*
X0649688Y0187076D01*
X0646730Y0191006D02*
X0692062Y0191006D01*
X0691641Y0191792D02*
X0544770Y0191792D01*
X0545096Y0192578D02*
X0691524Y0192578D01*
X0691650Y0193364D02*
X0545372Y0193364D01*
X0545372Y0193244D02*
X0544233Y0190495D01*
X0542129Y0188391D01*
X0539379Y0187252D01*
X0536403Y0187252D01*
X0533654Y0188391D01*
X0531550Y0190495D01*
X0530411Y0193244D01*
X0530411Y0196220D01*
X0531550Y0198970D01*
X0533654Y0201074D01*
X0536403Y0202213D01*
X0539379Y0202213D01*
X0542129Y0201074D01*
X0544233Y0198970D01*
X0545372Y0196220D01*
X0545372Y0193244D01*
X0545372Y0194150D02*
X0583471Y0194150D01*
X0583667Y0193954D02*
X0585080Y0193369D01*
X0586609Y0193369D01*
X0588021Y0193954D01*
X0589103Y0195035D01*
X0589688Y0196448D01*
X0589688Y0197977D01*
X0589103Y0199390D01*
X0588021Y0200471D01*
X0586609Y0201056D01*
X0585080Y0201056D01*
X0583667Y0200471D01*
X0582586Y0199390D01*
X0582000Y0197977D01*
X0582000Y0196448D01*
X0582586Y0195035D01*
X0583667Y0193954D01*
X0582685Y0194935D02*
X0545372Y0194935D01*
X0545372Y0195721D02*
X0582301Y0195721D01*
X0582000Y0196507D02*
X0545253Y0196507D01*
X0544927Y0197293D02*
X0582000Y0197293D01*
X0582043Y0198079D02*
X0544602Y0198079D01*
X0544276Y0198865D02*
X0582368Y0198865D01*
X0582847Y0199651D02*
X0543552Y0199651D01*
X0542766Y0200437D02*
X0583633Y0200437D01*
X0585080Y0203369D02*
X0586609Y0203369D01*
X0588021Y0203954D01*
X0589103Y0205035D01*
X0589688Y0206448D01*
X0589688Y0207977D01*
X0589103Y0209390D01*
X0588021Y0210471D01*
X0586609Y0211056D01*
X0585080Y0211056D01*
X0583667Y0210471D01*
X0582586Y0209390D01*
X0582000Y0207977D01*
X0582000Y0206448D01*
X0582586Y0205035D01*
X0583667Y0203954D01*
X0585080Y0203369D01*
X0584569Y0203580D02*
X0500490Y0203580D01*
X0500490Y0202795D02*
X0803893Y0202795D01*
X0804132Y0202695D02*
X0805115Y0202695D01*
X0806023Y0203071D01*
X0806718Y0203766D01*
X0807094Y0204674D01*
X0807094Y0205657D01*
X0806718Y0206565D01*
X0806023Y0207259D01*
X0805115Y0207635D01*
X0804132Y0207635D01*
X0803224Y0207259D01*
X0802530Y0206565D01*
X0802154Y0205657D01*
X0802154Y0204674D01*
X0802530Y0203766D01*
X0803224Y0203071D01*
X0804132Y0202695D01*
X0805355Y0202795D02*
X0822080Y0202795D01*
X0822035Y0202902D02*
X0822412Y0201995D01*
X0823106Y0201300D01*
X0824014Y0200924D01*
X0824997Y0200924D01*
X0825905Y0201300D01*
X0826600Y0201995D01*
X0826976Y0202902D01*
X0826976Y0203885D01*
X0826600Y0204793D01*
X0825905Y0205488D01*
X0824997Y0205864D01*
X0824014Y0205864D01*
X0823106Y0205488D01*
X0822412Y0204793D01*
X0822035Y0203885D01*
X0822035Y0202902D01*
X0822035Y0203580D02*
X0806532Y0203580D01*
X0806966Y0204366D02*
X0822235Y0204366D01*
X0822771Y0205152D02*
X0815190Y0205152D01*
X0814881Y0204843D02*
X0815576Y0205538D01*
X0815952Y0206446D01*
X0815952Y0207428D01*
X0815576Y0208336D01*
X0814881Y0209031D01*
X0813973Y0209407D01*
X0812991Y0209407D01*
X0812083Y0209031D01*
X0811388Y0208336D01*
X0811012Y0207428D01*
X0811012Y0206446D01*
X0811388Y0205538D01*
X0812083Y0204843D01*
X0812991Y0204467D01*
X0813973Y0204467D01*
X0814881Y0204843D01*
X0815742Y0205938D02*
X0870569Y0205938D01*
X0870569Y0205152D02*
X0826240Y0205152D01*
X0826776Y0204366D02*
X0870569Y0204366D01*
X0870569Y0203580D02*
X0826976Y0203580D01*
X0826931Y0202795D02*
X0870569Y0202795D01*
X0870569Y0202009D02*
X0835147Y0202009D01*
X0837045Y0201223D02*
X0870569Y0201223D01*
X0870569Y0200437D02*
X0838041Y0200437D01*
X0838827Y0199651D02*
X0860674Y0199651D01*
X0860508Y0199582D02*
X0859813Y0198887D01*
X0859437Y0197980D01*
X0859437Y0196997D01*
X0859813Y0196089D01*
X0860508Y0195394D01*
X0861416Y0195018D01*
X0862398Y0195018D01*
X0863306Y0195394D01*
X0864001Y0196089D01*
X0864377Y0196997D01*
X0864377Y0197980D01*
X0864001Y0198887D01*
X0863306Y0199582D01*
X0862398Y0199958D01*
X0861416Y0199958D01*
X0860508Y0199582D01*
X0859804Y0198865D02*
X0846208Y0198865D01*
X0846377Y0198795D02*
X0845469Y0199171D01*
X0844487Y0199171D01*
X0843579Y0198795D01*
X0842884Y0198100D01*
X0842508Y0197192D01*
X0842508Y0196209D01*
X0842884Y0195302D01*
X0843579Y0194607D01*
X0844487Y0194231D01*
X0845469Y0194231D01*
X0846377Y0194607D01*
X0847072Y0195302D01*
X0847448Y0196209D01*
X0847448Y0197192D01*
X0847072Y0198100D01*
X0846377Y0198795D01*
X0847081Y0198079D02*
X0859478Y0198079D01*
X0859437Y0197293D02*
X0847406Y0197293D01*
X0847448Y0196507D02*
X0859640Y0196507D01*
X0860181Y0195721D02*
X0847246Y0195721D01*
X0846706Y0194935D02*
X0870569Y0194935D01*
X0870569Y0194150D02*
X0840647Y0194150D01*
X0840647Y0194935D02*
X0843250Y0194935D01*
X0842710Y0195721D02*
X0840647Y0195721D01*
X0840528Y0196507D02*
X0842508Y0196507D01*
X0842550Y0197293D02*
X0840203Y0197293D01*
X0839877Y0198079D02*
X0842875Y0198079D01*
X0843748Y0198865D02*
X0839552Y0198865D01*
X0831187Y0202009D02*
X0826605Y0202009D01*
X0825719Y0201223D02*
X0829289Y0201223D01*
X0828293Y0200437D02*
X0648056Y0200437D01*
X0648021Y0200471D02*
X0646609Y0201056D01*
X0645080Y0201056D01*
X0643667Y0200471D01*
X0642586Y0199390D01*
X0642000Y0197977D01*
X0642000Y0196448D01*
X0642586Y0195035D01*
X0643667Y0193954D01*
X0645080Y0193369D01*
X0646609Y0193369D01*
X0648021Y0193954D01*
X0649103Y0195035D01*
X0649688Y0196448D01*
X0649688Y0197977D01*
X0649103Y0199390D01*
X0648021Y0200471D01*
X0648842Y0199651D02*
X0827507Y0199651D01*
X0826782Y0198865D02*
X0809594Y0198865D01*
X0809763Y0198795D02*
X0808855Y0199171D01*
X0807873Y0199171D01*
X0806965Y0198795D01*
X0806270Y0198100D01*
X0805894Y0197192D01*
X0805894Y0196209D01*
X0806270Y0195302D01*
X0806965Y0194607D01*
X0807873Y0194231D01*
X0808855Y0194231D01*
X0809763Y0194607D01*
X0810458Y0195302D01*
X0810834Y0196209D01*
X0810834Y0197192D01*
X0810458Y0198100D01*
X0809763Y0198795D01*
X0810467Y0198079D02*
X0816485Y0198079D01*
X0816807Y0198401D02*
X0816112Y0197706D01*
X0815736Y0196798D01*
X0815736Y0195816D01*
X0816112Y0194908D01*
X0816807Y0194213D01*
X0817715Y0193837D01*
X0818698Y0193837D01*
X0819606Y0194213D01*
X0820300Y0194908D01*
X0820676Y0195816D01*
X0820676Y0196798D01*
X0820300Y0197706D01*
X0819606Y0198401D01*
X0818698Y0198777D01*
X0817715Y0198777D01*
X0816807Y0198401D01*
X0815941Y0197293D02*
X0810792Y0197293D01*
X0810834Y0196507D02*
X0815736Y0196507D01*
X0815775Y0195721D02*
X0810632Y0195721D01*
X0810092Y0194935D02*
X0816101Y0194935D01*
X0816961Y0194150D02*
X0800948Y0194150D01*
X0801102Y0194213D02*
X0801796Y0194908D01*
X0802172Y0195816D01*
X0802172Y0196798D01*
X0801796Y0197706D01*
X0801102Y0198401D01*
X0800194Y0198777D01*
X0799211Y0198777D01*
X0798303Y0198401D01*
X0797608Y0197706D01*
X0797232Y0196798D01*
X0797232Y0195816D01*
X0797608Y0194908D01*
X0798303Y0194213D01*
X0799211Y0193837D01*
X0800194Y0193837D01*
X0801102Y0194213D01*
X0801808Y0194935D02*
X0806636Y0194935D01*
X0806096Y0195721D02*
X0802133Y0195721D01*
X0802172Y0196507D02*
X0805894Y0196507D01*
X0805936Y0197293D02*
X0801968Y0197293D01*
X0801424Y0198079D02*
X0806261Y0198079D01*
X0807134Y0198865D02*
X0649320Y0198865D01*
X0649646Y0198079D02*
X0797981Y0198079D01*
X0797437Y0197293D02*
X0649688Y0197293D01*
X0649688Y0196507D02*
X0797232Y0196507D01*
X0797271Y0195721D02*
X0649387Y0195721D01*
X0649003Y0194935D02*
X0693257Y0194935D01*
X0692083Y0194150D02*
X0648217Y0194150D01*
X0644958Y0191006D02*
X0626730Y0191006D01*
X0626609Y0191056D02*
X0625080Y0191056D01*
X0623667Y0190471D01*
X0622586Y0189390D01*
X0622000Y0187977D01*
X0622000Y0186448D01*
X0622586Y0185035D01*
X0623667Y0183954D01*
X0625080Y0183369D01*
X0626609Y0183369D01*
X0628021Y0183954D01*
X0629103Y0185035D01*
X0629688Y0186448D01*
X0629688Y0187977D01*
X0629103Y0189390D01*
X0628021Y0190471D01*
X0626609Y0191056D01*
X0624958Y0191006D02*
X0616730Y0191006D01*
X0616609Y0191056D02*
X0615080Y0191056D01*
X0613667Y0190471D01*
X0612586Y0189390D01*
X0612000Y0187977D01*
X0612000Y0186448D01*
X0612586Y0185035D01*
X0613667Y0183954D01*
X0615080Y0183369D01*
X0616609Y0183369D01*
X0618021Y0183954D01*
X0619103Y0185035D01*
X0619688Y0186448D01*
X0619688Y0187977D01*
X0619103Y0189390D01*
X0618021Y0190471D01*
X0616609Y0191056D01*
X0614958Y0191006D02*
X0586730Y0191006D01*
X0586609Y0191056D02*
X0588021Y0190471D01*
X0589103Y0189390D01*
X0589688Y0187977D01*
X0589688Y0186448D01*
X0589103Y0185035D01*
X0588021Y0183954D01*
X0586609Y0183369D01*
X0585080Y0183369D01*
X0583667Y0183954D01*
X0582586Y0185035D01*
X0582000Y0186448D01*
X0582000Y0187977D01*
X0582586Y0189390D01*
X0583667Y0190471D01*
X0585080Y0191056D01*
X0586609Y0191056D01*
X0584958Y0191006D02*
X0544444Y0191006D01*
X0543958Y0190220D02*
X0583416Y0190220D01*
X0582630Y0189434D02*
X0543172Y0189434D01*
X0542386Y0188648D02*
X0582278Y0188648D01*
X0582000Y0187862D02*
X0540853Y0187862D01*
X0534930Y0187862D02*
X0500490Y0187862D01*
X0500490Y0187076D02*
X0582000Y0187076D01*
X0582066Y0186290D02*
X0500490Y0186290D01*
X0500490Y0185504D02*
X0582391Y0185504D01*
X0582902Y0184719D02*
X0500490Y0184719D01*
X0500490Y0183933D02*
X0583719Y0183933D01*
X0587970Y0183933D02*
X0613719Y0183933D01*
X0612902Y0184719D02*
X0588786Y0184719D01*
X0589297Y0185504D02*
X0612391Y0185504D01*
X0612066Y0186290D02*
X0589623Y0186290D01*
X0589688Y0187076D02*
X0612000Y0187076D01*
X0612000Y0187862D02*
X0589688Y0187862D01*
X0589410Y0188648D02*
X0612278Y0188648D01*
X0612630Y0189434D02*
X0589059Y0189434D01*
X0588273Y0190220D02*
X0613416Y0190220D01*
X0615080Y0193369D02*
X0616609Y0193369D01*
X0618021Y0193954D01*
X0619103Y0195035D01*
X0619688Y0196448D01*
X0619688Y0197977D01*
X0619103Y0199390D01*
X0618021Y0200471D01*
X0616609Y0201056D01*
X0615080Y0201056D01*
X0613667Y0200471D01*
X0612586Y0199390D01*
X0612000Y0197977D01*
X0612000Y0196448D01*
X0612586Y0195035D01*
X0613667Y0193954D01*
X0615080Y0193369D01*
X0613471Y0194150D02*
X0588217Y0194150D01*
X0589003Y0194935D02*
X0612685Y0194935D01*
X0612301Y0195721D02*
X0589387Y0195721D01*
X0589688Y0196507D02*
X0612000Y0196507D01*
X0612000Y0197293D02*
X0589688Y0197293D01*
X0589646Y0198079D02*
X0612043Y0198079D01*
X0612368Y0198865D02*
X0589320Y0198865D01*
X0588842Y0199651D02*
X0612847Y0199651D01*
X0613633Y0200437D02*
X0588056Y0200437D01*
X0587120Y0203580D02*
X0614569Y0203580D01*
X0615080Y0203369D02*
X0616609Y0203369D01*
X0618021Y0203954D01*
X0619103Y0205035D01*
X0619688Y0206448D01*
X0619688Y0207977D01*
X0619103Y0209390D01*
X0618021Y0210471D01*
X0616609Y0211056D01*
X0615080Y0211056D01*
X0613667Y0210471D01*
X0612586Y0209390D01*
X0612000Y0207977D01*
X0612000Y0206448D01*
X0612586Y0205035D01*
X0613667Y0203954D01*
X0615080Y0203369D01*
X0617120Y0203580D02*
X0624569Y0203580D01*
X0625080Y0203369D02*
X0626609Y0203369D01*
X0628021Y0203954D01*
X0629103Y0205035D01*
X0629688Y0206448D01*
X0629688Y0207977D01*
X0629103Y0209390D01*
X0628021Y0210471D01*
X0626609Y0211056D01*
X0625080Y0211056D01*
X0623667Y0210471D01*
X0622586Y0209390D01*
X0622000Y0207977D01*
X0622000Y0206448D01*
X0622586Y0205035D01*
X0623667Y0203954D01*
X0625080Y0203369D01*
X0627120Y0203580D02*
X0644569Y0203580D01*
X0645080Y0203369D02*
X0646609Y0203369D01*
X0648021Y0203954D01*
X0649103Y0205035D01*
X0649688Y0206448D01*
X0649688Y0207977D01*
X0649103Y0209390D01*
X0648021Y0210471D01*
X0646609Y0211056D01*
X0645080Y0211056D01*
X0643667Y0210471D01*
X0642586Y0209390D01*
X0642000Y0207977D01*
X0642000Y0206448D01*
X0642586Y0205035D01*
X0643667Y0203954D01*
X0645080Y0203369D01*
X0647120Y0203580D02*
X0802715Y0203580D01*
X0802281Y0204366D02*
X0648434Y0204366D01*
X0649151Y0205152D02*
X0802154Y0205152D01*
X0802270Y0205938D02*
X0795973Y0205938D01*
X0796180Y0206024D02*
X0796875Y0206719D01*
X0797251Y0207627D01*
X0797251Y0208609D01*
X0796875Y0209517D01*
X0796180Y0210212D01*
X0795272Y0210588D01*
X0794290Y0210588D01*
X0793382Y0210212D01*
X0792687Y0209517D01*
X0792311Y0208609D01*
X0792311Y0207627D01*
X0792687Y0206719D01*
X0793382Y0206024D01*
X0794290Y0205648D01*
X0795272Y0205648D01*
X0796180Y0206024D01*
X0796877Y0206724D02*
X0802689Y0206724D01*
X0803830Y0207510D02*
X0797203Y0207510D01*
X0797251Y0208296D02*
X0811371Y0208296D01*
X0811046Y0207510D02*
X0805418Y0207510D01*
X0806558Y0206724D02*
X0811012Y0206724D01*
X0811222Y0205938D02*
X0806977Y0205938D01*
X0807094Y0205152D02*
X0811773Y0205152D01*
X0812205Y0209082D02*
X0797056Y0209082D01*
X0796525Y0209868D02*
X0870569Y0209868D01*
X0870569Y0210654D02*
X0647581Y0210654D01*
X0648625Y0209868D02*
X0793038Y0209868D01*
X0792507Y0209082D02*
X0649230Y0209082D01*
X0649556Y0208296D02*
X0792311Y0208296D01*
X0792359Y0207510D02*
X0649688Y0207510D01*
X0649688Y0206724D02*
X0792685Y0206724D01*
X0793589Y0205938D02*
X0649477Y0205938D01*
X0643255Y0204366D02*
X0628434Y0204366D01*
X0629151Y0205152D02*
X0642537Y0205152D01*
X0642212Y0205938D02*
X0629477Y0205938D01*
X0629688Y0206724D02*
X0642000Y0206724D01*
X0642000Y0207510D02*
X0629688Y0207510D01*
X0629556Y0208296D02*
X0642133Y0208296D01*
X0642458Y0209082D02*
X0629230Y0209082D01*
X0628625Y0209868D02*
X0643064Y0209868D01*
X0644108Y0210654D02*
X0627581Y0210654D01*
X0626609Y0213369D02*
X0628021Y0213954D01*
X0629103Y0215035D01*
X0629688Y0216448D01*
X0629688Y0217977D01*
X0629103Y0219390D01*
X0628021Y0220471D01*
X0626609Y0221056D01*
X0625080Y0221056D01*
X0623667Y0220471D01*
X0622586Y0219390D01*
X0622000Y0217977D01*
X0622000Y0216448D01*
X0622586Y0215035D01*
X0623667Y0213954D01*
X0625080Y0213369D01*
X0626609Y0213369D01*
X0627643Y0213797D02*
X0644045Y0213797D01*
X0643667Y0213954D02*
X0645080Y0213369D01*
X0646609Y0213369D01*
X0648021Y0213954D01*
X0649103Y0215035D01*
X0649688Y0216448D01*
X0649688Y0217977D01*
X0649103Y0219390D01*
X0648021Y0220471D01*
X0646609Y0221056D01*
X0645080Y0221056D01*
X0643667Y0220471D01*
X0642586Y0219390D01*
X0642000Y0217977D01*
X0642000Y0216448D01*
X0642586Y0215035D01*
X0643667Y0213954D01*
X0643038Y0214583D02*
X0628651Y0214583D01*
X0629241Y0215369D02*
X0642447Y0215369D01*
X0642122Y0216155D02*
X0629566Y0216155D01*
X0629688Y0216941D02*
X0642000Y0216941D01*
X0642000Y0217727D02*
X0629688Y0217727D01*
X0629466Y0218513D02*
X0642222Y0218513D01*
X0642548Y0219299D02*
X0629140Y0219299D01*
X0628408Y0220085D02*
X0643280Y0220085D01*
X0644631Y0220871D02*
X0627057Y0220871D01*
X0624631Y0220871D02*
X0617057Y0220871D01*
X0616609Y0221056D02*
X0615080Y0221056D01*
X0613667Y0220471D01*
X0612586Y0219390D01*
X0612000Y0217977D01*
X0612000Y0216448D01*
X0612586Y0215035D01*
X0613667Y0213954D01*
X0615080Y0213369D01*
X0616609Y0213369D01*
X0618021Y0213954D01*
X0619103Y0215035D01*
X0619688Y0216448D01*
X0619688Y0217977D01*
X0619103Y0219390D01*
X0618021Y0220471D01*
X0616609Y0221056D01*
X0614631Y0220871D02*
X0587057Y0220871D01*
X0586609Y0221056D02*
X0588021Y0220471D01*
X0589103Y0219390D01*
X0589688Y0217977D01*
X0589688Y0216448D01*
X0589103Y0215035D01*
X0588021Y0213954D01*
X0586609Y0213369D01*
X0585080Y0213369D01*
X0583667Y0213954D01*
X0582586Y0215035D01*
X0582000Y0216448D01*
X0582000Y0217977D01*
X0582586Y0219390D01*
X0583667Y0220471D01*
X0585080Y0221056D01*
X0586609Y0221056D01*
X0584631Y0220871D02*
X0518263Y0220871D01*
X0518263Y0220276D02*
X0517655Y0218809D01*
X0516532Y0217685D01*
X0515064Y0217077D01*
X0513475Y0217077D01*
X0512007Y0217685D01*
X0510884Y0218809D01*
X0510276Y0220276D01*
X0510276Y0221865D01*
X0510884Y0223333D01*
X0512007Y0224457D01*
X0513475Y0225065D01*
X0515064Y0225065D01*
X0516532Y0224457D01*
X0517655Y0223333D01*
X0518263Y0221865D01*
X0518263Y0220276D01*
X0518184Y0220085D02*
X0583280Y0220085D01*
X0582548Y0219299D02*
X0517858Y0219299D01*
X0517359Y0218513D02*
X0582222Y0218513D01*
X0582000Y0217727D02*
X0516573Y0217727D01*
X0518263Y0221656D02*
X0663768Y0221656D01*
X0663768Y0221466D02*
X0664546Y0220687D01*
X0745646Y0220687D01*
X0746424Y0221466D01*
X0746424Y0222566D01*
X0746424Y0281466D01*
X0746424Y0282566D01*
X0745646Y0283344D01*
X0664546Y0283344D01*
X0663768Y0282566D01*
X0663768Y0221466D01*
X0664363Y0220871D02*
X0647057Y0220871D01*
X0648408Y0220085D02*
X0870569Y0220085D01*
X0870569Y0220871D02*
X0821699Y0220871D01*
X0822258Y0221429D02*
X0821038Y0220209D01*
X0819312Y0220209D01*
X0818092Y0221429D01*
X0818092Y0223154D01*
X0819312Y0224374D01*
X0821038Y0224374D01*
X0822258Y0223154D01*
X0822258Y0221429D01*
X0822258Y0221656D02*
X0870569Y0221656D01*
X0870569Y0222442D02*
X0822258Y0222442D01*
X0822183Y0223228D02*
X0870569Y0223228D01*
X0870569Y0224014D02*
X0821397Y0224014D01*
X0821038Y0224933D02*
X0822258Y0226153D01*
X0822258Y0227878D01*
X0821152Y0228984D01*
X0822258Y0230090D01*
X0822258Y0231815D01*
X0821038Y0233035D01*
X0819312Y0233035D01*
X0818092Y0231815D01*
X0818092Y0230090D01*
X0819198Y0228984D01*
X0818092Y0227878D01*
X0818092Y0226153D01*
X0819312Y0224933D01*
X0821038Y0224933D01*
X0821691Y0225586D02*
X0870569Y0225586D01*
X0870569Y0224800D02*
X0816352Y0224800D01*
X0816352Y0225123D02*
X0815132Y0226343D01*
X0814573Y0226343D01*
X0815565Y0227334D01*
X0815565Y0229060D01*
X0814345Y0230280D01*
X0812619Y0230280D01*
X0811399Y0229060D01*
X0811399Y0227334D01*
X0812619Y0226114D01*
X0813178Y0226114D01*
X0812187Y0225123D01*
X0812187Y0223397D01*
X0813407Y0222177D01*
X0815132Y0222177D01*
X0816352Y0223397D01*
X0816352Y0225123D01*
X0815888Y0225586D02*
X0818659Y0225586D01*
X0818092Y0226372D02*
X0814602Y0226372D01*
X0815388Y0227158D02*
X0818092Y0227158D01*
X0818158Y0227944D02*
X0815565Y0227944D01*
X0815565Y0228730D02*
X0818943Y0228730D01*
X0818667Y0229516D02*
X0815109Y0229516D01*
X0818092Y0230302D02*
X0808811Y0230302D01*
X0808439Y0230673D02*
X0806714Y0230673D01*
X0805494Y0229453D01*
X0805494Y0227728D01*
X0806714Y0226508D01*
X0808439Y0226508D01*
X0809659Y0227728D01*
X0809659Y0229453D01*
X0808439Y0230673D01*
X0809597Y0229516D02*
X0811855Y0229516D01*
X0811399Y0228730D02*
X0809659Y0228730D01*
X0809659Y0227944D02*
X0811399Y0227944D01*
X0811576Y0227158D02*
X0809089Y0227158D01*
X0809227Y0224374D02*
X0807501Y0224374D01*
X0806281Y0223154D01*
X0806281Y0221429D01*
X0807501Y0220209D01*
X0809227Y0220209D01*
X0810447Y0221429D01*
X0810447Y0223154D01*
X0809227Y0224374D01*
X0809586Y0224014D02*
X0812187Y0224014D01*
X0812187Y0224800D02*
X0805722Y0224800D01*
X0805722Y0224185D02*
X0804502Y0222965D01*
X0802777Y0222965D01*
X0801557Y0224185D01*
X0801557Y0225910D01*
X0802777Y0227130D01*
X0804502Y0227130D01*
X0805722Y0225910D01*
X0805722Y0224185D01*
X0805552Y0224014D02*
X0807141Y0224014D01*
X0806355Y0223228D02*
X0804766Y0223228D01*
X0806281Y0222442D02*
X0746424Y0222442D01*
X0746424Y0221656D02*
X0806281Y0221656D01*
X0806839Y0220871D02*
X0745829Y0220871D01*
X0746424Y0223228D02*
X0802513Y0223228D01*
X0801727Y0224014D02*
X0746424Y0224014D01*
X0746424Y0224800D02*
X0801557Y0224800D01*
X0801557Y0225586D02*
X0746424Y0225586D01*
X0746424Y0226372D02*
X0802019Y0226372D01*
X0799423Y0227728D02*
X0798203Y0226508D01*
X0796478Y0226508D01*
X0795258Y0227728D01*
X0795258Y0229453D01*
X0796478Y0230673D01*
X0798203Y0230673D01*
X0799423Y0229453D01*
X0799423Y0227728D01*
X0799423Y0227944D02*
X0805494Y0227944D01*
X0805494Y0228730D02*
X0799423Y0228730D01*
X0799361Y0229516D02*
X0805556Y0229516D01*
X0806342Y0230302D02*
X0803178Y0230302D01*
X0802927Y0230051D02*
X0804147Y0231271D01*
X0804147Y0232997D01*
X0802927Y0234217D01*
X0801202Y0234217D01*
X0799982Y0232997D01*
X0799982Y0231271D01*
X0801202Y0230051D01*
X0802927Y0230051D01*
X0803964Y0231087D02*
X0818092Y0231087D01*
X0818150Y0231873D02*
X0804147Y0231873D01*
X0804147Y0232659D02*
X0818936Y0232659D01*
X0821414Y0232659D02*
X0870569Y0232659D01*
X0870569Y0231873D02*
X0822200Y0231873D01*
X0822258Y0231087D02*
X0870569Y0231087D01*
X0870569Y0230302D02*
X0822258Y0230302D01*
X0821683Y0229516D02*
X0870569Y0229516D01*
X0870569Y0228730D02*
X0821406Y0228730D01*
X0822192Y0227944D02*
X0870569Y0227944D01*
X0870569Y0227158D02*
X0822258Y0227158D01*
X0822258Y0226372D02*
X0870569Y0226372D01*
X0868064Y0219299D02*
X0649140Y0219299D01*
X0649466Y0218513D02*
X0867269Y0218513D01*
X0866943Y0217727D02*
X0831333Y0217727D01*
X0831417Y0217692D02*
X0830509Y0218068D01*
X0829526Y0218068D01*
X0828618Y0217692D01*
X0827923Y0216998D01*
X0827547Y0216090D01*
X0827547Y0215107D01*
X0827923Y0214199D01*
X0828618Y0213504D01*
X0829526Y0213128D01*
X0830509Y0213128D01*
X0831417Y0213504D01*
X0832111Y0214199D01*
X0832487Y0215107D01*
X0832487Y0216090D01*
X0832111Y0216998D01*
X0831417Y0217692D01*
X0832135Y0216941D02*
X0866917Y0216941D01*
X0867136Y0216155D02*
X0832460Y0216155D01*
X0832487Y0215369D02*
X0867698Y0215369D01*
X0870569Y0214583D02*
X0832270Y0214583D01*
X0831710Y0213797D02*
X0870569Y0213797D01*
X0870569Y0213011D02*
X0803168Y0213011D01*
X0803070Y0212914D02*
X0803765Y0213609D01*
X0804141Y0214517D01*
X0804141Y0215499D01*
X0803765Y0216407D01*
X0803070Y0217102D01*
X0802162Y0217478D01*
X0801180Y0217478D01*
X0800272Y0217102D01*
X0799577Y0216407D01*
X0799201Y0215499D01*
X0799201Y0214517D01*
X0799577Y0213609D01*
X0800272Y0212914D01*
X0801180Y0212538D01*
X0802162Y0212538D01*
X0803070Y0212914D01*
X0803843Y0213797D02*
X0828325Y0213797D01*
X0827764Y0214583D02*
X0804141Y0214583D01*
X0804141Y0215369D02*
X0827547Y0215369D01*
X0827574Y0216155D02*
X0803869Y0216155D01*
X0803231Y0216941D02*
X0827900Y0216941D01*
X0828701Y0217727D02*
X0649688Y0217727D01*
X0649688Y0216941D02*
X0800111Y0216941D01*
X0799473Y0216155D02*
X0649566Y0216155D01*
X0649241Y0215369D02*
X0799201Y0215369D01*
X0799201Y0214583D02*
X0648651Y0214583D01*
X0647643Y0213797D02*
X0799499Y0213797D01*
X0800174Y0213011D02*
X0500490Y0213011D01*
X0500490Y0212226D02*
X0870569Y0212226D01*
X0870569Y0211440D02*
X0500490Y0211440D01*
X0500490Y0210654D02*
X0584108Y0210654D01*
X0583064Y0209868D02*
X0500490Y0209868D01*
X0500490Y0209082D02*
X0582458Y0209082D01*
X0582133Y0208296D02*
X0500490Y0208296D01*
X0500490Y0207510D02*
X0582000Y0207510D01*
X0582000Y0206724D02*
X0500490Y0206724D01*
X0500490Y0205938D02*
X0582212Y0205938D01*
X0582537Y0205152D02*
X0500490Y0205152D01*
X0500490Y0204366D02*
X0583255Y0204366D01*
X0588434Y0204366D02*
X0613255Y0204366D01*
X0612537Y0205152D02*
X0589151Y0205152D01*
X0589477Y0205938D02*
X0612212Y0205938D01*
X0612000Y0206724D02*
X0589688Y0206724D01*
X0589688Y0207510D02*
X0612000Y0207510D01*
X0612133Y0208296D02*
X0589556Y0208296D01*
X0589230Y0209082D02*
X0612458Y0209082D01*
X0613064Y0209868D02*
X0588625Y0209868D01*
X0587581Y0210654D02*
X0614108Y0210654D01*
X0614045Y0213797D02*
X0587643Y0213797D01*
X0588651Y0214583D02*
X0613038Y0214583D01*
X0612447Y0215369D02*
X0589241Y0215369D01*
X0589566Y0216155D02*
X0612122Y0216155D01*
X0612000Y0216941D02*
X0589688Y0216941D01*
X0589688Y0217727D02*
X0612000Y0217727D01*
X0612222Y0218513D02*
X0589466Y0218513D01*
X0589140Y0219299D02*
X0612548Y0219299D01*
X0613280Y0220085D02*
X0588408Y0220085D01*
X0586609Y0223369D02*
X0588021Y0223954D01*
X0589103Y0225035D01*
X0589688Y0226448D01*
X0589688Y0227977D01*
X0589103Y0229390D01*
X0588021Y0230471D01*
X0586609Y0231056D01*
X0585080Y0231056D01*
X0583667Y0230471D01*
X0582586Y0229390D01*
X0582000Y0227977D01*
X0582000Y0226448D01*
X0582586Y0225035D01*
X0583667Y0223954D01*
X0585080Y0223369D01*
X0586609Y0223369D01*
X0588082Y0224014D02*
X0613607Y0224014D01*
X0613667Y0223954D02*
X0615080Y0223369D01*
X0616609Y0223369D01*
X0618021Y0223954D01*
X0619103Y0225035D01*
X0619688Y0226448D01*
X0619688Y0227977D01*
X0619103Y0229390D01*
X0618021Y0230471D01*
X0616609Y0231056D01*
X0615080Y0231056D01*
X0613667Y0230471D01*
X0612586Y0229390D01*
X0612000Y0227977D01*
X0612000Y0226448D01*
X0612586Y0225035D01*
X0613667Y0223954D01*
X0612821Y0224800D02*
X0588867Y0224800D01*
X0589331Y0225586D02*
X0612357Y0225586D01*
X0612032Y0226372D02*
X0589656Y0226372D01*
X0589688Y0227158D02*
X0612000Y0227158D01*
X0612000Y0227944D02*
X0602395Y0227944D01*
X0601943Y0227492D02*
X0603163Y0228712D01*
X0603163Y0230437D01*
X0601943Y0231657D01*
X0600218Y0231657D01*
X0598998Y0230437D01*
X0598998Y0228712D01*
X0600218Y0227492D01*
X0601943Y0227492D01*
X0603163Y0228730D02*
X0612312Y0228730D01*
X0612711Y0229516D02*
X0603163Y0229516D01*
X0603163Y0230302D02*
X0613497Y0230302D01*
X0618191Y0230302D02*
X0623497Y0230302D01*
X0623667Y0230471D02*
X0622586Y0229390D01*
X0622000Y0227977D01*
X0622000Y0226448D01*
X0622586Y0225035D01*
X0623667Y0223954D01*
X0625080Y0223369D01*
X0626609Y0223369D01*
X0628021Y0223954D01*
X0629103Y0225035D01*
X0629688Y0226448D01*
X0629688Y0227977D01*
X0629103Y0229390D01*
X0628021Y0230471D01*
X0626609Y0231056D01*
X0625080Y0231056D01*
X0623667Y0230471D01*
X0622711Y0229516D02*
X0618977Y0229516D01*
X0619376Y0228730D02*
X0622312Y0228730D01*
X0622000Y0227944D02*
X0619688Y0227944D01*
X0619688Y0227158D02*
X0622000Y0227158D01*
X0622032Y0226372D02*
X0619656Y0226372D01*
X0619331Y0225586D02*
X0622357Y0225586D01*
X0622821Y0224800D02*
X0618867Y0224800D01*
X0618082Y0224014D02*
X0623607Y0224014D01*
X0623280Y0220085D02*
X0618408Y0220085D01*
X0619140Y0219299D02*
X0622548Y0219299D01*
X0622222Y0218513D02*
X0619466Y0218513D01*
X0619688Y0217727D02*
X0622000Y0217727D01*
X0622000Y0216941D02*
X0619688Y0216941D01*
X0619566Y0216155D02*
X0622122Y0216155D01*
X0622447Y0215369D02*
X0619241Y0215369D01*
X0618651Y0214583D02*
X0623038Y0214583D01*
X0624045Y0213797D02*
X0617643Y0213797D01*
X0617581Y0210654D02*
X0624108Y0210654D01*
X0623064Y0209868D02*
X0618625Y0209868D01*
X0619230Y0209082D02*
X0622458Y0209082D01*
X0622133Y0208296D02*
X0619556Y0208296D01*
X0619688Y0207510D02*
X0622000Y0207510D01*
X0622000Y0206724D02*
X0619688Y0206724D01*
X0619477Y0205938D02*
X0622212Y0205938D01*
X0622537Y0205152D02*
X0619151Y0205152D01*
X0618434Y0204366D02*
X0623255Y0204366D01*
X0625080Y0201056D02*
X0623667Y0200471D01*
X0622586Y0199390D01*
X0622000Y0197977D01*
X0622000Y0196448D01*
X0622586Y0195035D01*
X0623667Y0193954D01*
X0625080Y0193369D01*
X0626609Y0193369D01*
X0628021Y0193954D01*
X0629103Y0195035D01*
X0629688Y0196448D01*
X0629688Y0197977D01*
X0629103Y0199390D01*
X0628021Y0200471D01*
X0626609Y0201056D01*
X0625080Y0201056D01*
X0623633Y0200437D02*
X0618056Y0200437D01*
X0618842Y0199651D02*
X0622847Y0199651D01*
X0622368Y0198865D02*
X0619320Y0198865D01*
X0619646Y0198079D02*
X0622043Y0198079D01*
X0622000Y0197293D02*
X0619688Y0197293D01*
X0619688Y0196507D02*
X0622000Y0196507D01*
X0622301Y0195721D02*
X0619387Y0195721D01*
X0619003Y0194935D02*
X0622685Y0194935D01*
X0623471Y0194150D02*
X0618217Y0194150D01*
X0618273Y0190220D02*
X0623416Y0190220D01*
X0622630Y0189434D02*
X0619059Y0189434D01*
X0619410Y0188648D02*
X0622278Y0188648D01*
X0622000Y0187862D02*
X0619688Y0187862D01*
X0619688Y0187076D02*
X0622000Y0187076D01*
X0622066Y0186290D02*
X0619623Y0186290D01*
X0619297Y0185504D02*
X0622391Y0185504D01*
X0622902Y0184719D02*
X0618786Y0184719D01*
X0617970Y0183933D02*
X0623719Y0183933D01*
X0625080Y0181056D02*
X0623667Y0180471D01*
X0622586Y0179390D01*
X0622000Y0177977D01*
X0622000Y0176448D01*
X0622586Y0175035D01*
X0623667Y0173954D01*
X0625080Y0173369D01*
X0626609Y0173369D01*
X0628021Y0173954D01*
X0629103Y0175035D01*
X0629688Y0176448D01*
X0629688Y0177977D01*
X0629103Y0179390D01*
X0628021Y0180471D01*
X0626609Y0181056D01*
X0625080Y0181056D01*
X0624434Y0180789D02*
X0617254Y0180789D01*
X0616609Y0181056D02*
X0615080Y0181056D01*
X0613667Y0180471D01*
X0612586Y0179390D01*
X0612000Y0177977D01*
X0612000Y0176448D01*
X0612586Y0175035D01*
X0613667Y0173954D01*
X0615080Y0173369D01*
X0616609Y0173369D01*
X0618021Y0173954D01*
X0619103Y0175035D01*
X0619688Y0176448D01*
X0619688Y0177977D01*
X0619103Y0179390D01*
X0618021Y0180471D01*
X0616609Y0181056D01*
X0618489Y0180003D02*
X0623199Y0180003D01*
X0622514Y0179217D02*
X0619174Y0179217D01*
X0619500Y0178431D02*
X0622189Y0178431D01*
X0622000Y0177645D02*
X0619688Y0177645D01*
X0619688Y0176859D02*
X0622000Y0176859D01*
X0622156Y0176074D02*
X0619533Y0176074D01*
X0619207Y0175288D02*
X0622481Y0175288D01*
X0623119Y0174502D02*
X0618569Y0174502D01*
X0617446Y0173716D02*
X0624242Y0173716D01*
X0623911Y0170572D02*
X0617778Y0170572D01*
X0618706Y0169786D02*
X0622982Y0169786D01*
X0622424Y0169000D02*
X0619264Y0169000D01*
X0619590Y0168214D02*
X0622099Y0168214D01*
X0622000Y0167428D02*
X0619688Y0167428D01*
X0619688Y0166643D02*
X0622000Y0166643D01*
X0622245Y0165857D02*
X0619443Y0165857D01*
X0619117Y0165071D02*
X0622571Y0165071D01*
X0623336Y0164285D02*
X0618352Y0164285D01*
X0613336Y0164285D02*
X0588352Y0164285D01*
X0588021Y0163954D02*
X0589103Y0165035D01*
X0589688Y0166448D01*
X0589688Y0167977D01*
X0589103Y0169390D01*
X0588021Y0170471D01*
X0586609Y0171056D01*
X0585080Y0171056D01*
X0583667Y0170471D01*
X0582586Y0169390D01*
X0582000Y0167977D01*
X0582000Y0166448D01*
X0582586Y0165035D01*
X0583667Y0163954D01*
X0585080Y0163369D01*
X0586609Y0163369D01*
X0588021Y0163954D01*
X0589117Y0165071D02*
X0612571Y0165071D01*
X0612245Y0165857D02*
X0589443Y0165857D01*
X0589688Y0166643D02*
X0612000Y0166643D01*
X0612000Y0167428D02*
X0589688Y0167428D01*
X0589590Y0168214D02*
X0612099Y0168214D01*
X0612424Y0169000D02*
X0589264Y0169000D01*
X0588706Y0169786D02*
X0612982Y0169786D01*
X0613911Y0170572D02*
X0587778Y0170572D01*
X0587446Y0173716D02*
X0614242Y0173716D01*
X0613119Y0174502D02*
X0588569Y0174502D01*
X0589207Y0175288D02*
X0612481Y0175288D01*
X0612156Y0176074D02*
X0589533Y0176074D01*
X0589688Y0176859D02*
X0612000Y0176859D01*
X0612000Y0177645D02*
X0589688Y0177645D01*
X0589500Y0178431D02*
X0612189Y0178431D01*
X0612514Y0179217D02*
X0589174Y0179217D01*
X0588489Y0180003D02*
X0613199Y0180003D01*
X0614434Y0180789D02*
X0587254Y0180789D01*
X0583911Y0170572D02*
X0500490Y0170572D01*
X0500490Y0169786D02*
X0582982Y0169786D01*
X0582424Y0169000D02*
X0500490Y0169000D01*
X0500490Y0168214D02*
X0582099Y0168214D01*
X0582000Y0167428D02*
X0500490Y0167428D01*
X0500490Y0166643D02*
X0582000Y0166643D01*
X0582245Y0165857D02*
X0500490Y0165857D01*
X0500490Y0165071D02*
X0582571Y0165071D01*
X0583336Y0164285D02*
X0500490Y0164285D01*
X0500490Y0163499D02*
X0584766Y0163499D01*
X0583551Y0160355D02*
X0500490Y0160355D01*
X0500490Y0159569D02*
X0582765Y0159569D01*
X0582334Y0158783D02*
X0500490Y0158783D01*
X0500490Y0161141D02*
X0681091Y0161141D01*
X0681091Y0161365D02*
X0681091Y0160383D01*
X0681467Y0159475D01*
X0682162Y0158780D01*
X0683069Y0158404D01*
X0684052Y0158404D01*
X0684960Y0158780D01*
X0685655Y0159475D01*
X0686031Y0160383D01*
X0686031Y0161365D01*
X0685655Y0162273D01*
X0684960Y0162968D01*
X0684052Y0163344D01*
X0683069Y0163344D01*
X0682162Y0162968D01*
X0681467Y0162273D01*
X0681091Y0161365D01*
X0681323Y0161927D02*
X0500490Y0161927D01*
X0500490Y0162713D02*
X0681906Y0162713D01*
X0681102Y0160355D02*
X0648137Y0160355D01*
X0648021Y0160471D02*
X0649103Y0159390D01*
X0649688Y0157977D01*
X0649688Y0156448D01*
X0649103Y0155035D01*
X0648021Y0153954D01*
X0646609Y0153369D01*
X0645080Y0153369D01*
X0643667Y0153954D01*
X0642586Y0155035D01*
X0642000Y0156448D01*
X0642000Y0157977D01*
X0642586Y0159390D01*
X0643667Y0160471D01*
X0645080Y0161056D01*
X0646609Y0161056D01*
X0648021Y0160471D01*
X0648923Y0159569D02*
X0681427Y0159569D01*
X0682158Y0158783D02*
X0649354Y0158783D01*
X0649679Y0157998D02*
X0688965Y0157998D01*
X0689037Y0158783D02*
X0684963Y0158783D01*
X0685694Y0159569D02*
X0689393Y0159569D01*
X0689302Y0160355D02*
X0686019Y0160355D01*
X0686031Y0161141D02*
X0688977Y0161141D01*
X0688965Y0161927D02*
X0685798Y0161927D01*
X0685215Y0162713D02*
X0689197Y0162713D01*
X0689137Y0157212D02*
X0649688Y0157212D01*
X0649679Y0156426D02*
X0689634Y0156426D01*
X0685514Y0154854D02*
X0867276Y0154854D01*
X0866490Y0154068D02*
X0685834Y0154068D01*
X0685834Y0153282D02*
X0865705Y0153282D01*
X0864919Y0152496D02*
X0685584Y0152496D01*
X0684977Y0151710D02*
X0837749Y0151710D01*
X0841924Y0151710D02*
X0864133Y0151710D01*
X0863347Y0150924D02*
X0842812Y0150924D01*
X0843378Y0150138D02*
X0862561Y0150138D01*
X0861775Y0149352D02*
X0843704Y0149352D01*
X0843830Y0148567D02*
X0860989Y0148567D01*
X0860203Y0147781D02*
X0843830Y0147781D01*
X0843638Y0146995D02*
X0859417Y0146995D01*
X0858631Y0146209D02*
X0843313Y0146209D01*
X0842655Y0145423D02*
X0857845Y0145423D01*
X0857059Y0144637D02*
X0841545Y0144637D01*
X0838129Y0144637D02*
X0834858Y0144637D01*
X0835744Y0143851D02*
X0856274Y0143851D01*
X0855488Y0143065D02*
X0836308Y0143065D01*
X0836633Y0142279D02*
X0854702Y0142279D01*
X0853916Y0141493D02*
X0836759Y0141493D01*
X0836759Y0140707D02*
X0853130Y0140707D01*
X0852344Y0139922D02*
X0836566Y0139922D01*
X0836241Y0139136D02*
X0851558Y0139136D01*
X0850772Y0138350D02*
X0835582Y0138350D01*
X0834468Y0137564D02*
X0849986Y0137564D01*
X0823596Y0137564D02*
X0780359Y0137564D01*
X0779584Y0136778D02*
X0822714Y0136778D01*
X0822151Y0135992D02*
X0778798Y0135992D01*
X0777539Y0135206D02*
X0821826Y0135206D01*
X0821701Y0134420D02*
X0711415Y0134420D01*
X0711424Y0133634D02*
X0821701Y0133634D01*
X0821894Y0132848D02*
X0711190Y0132848D01*
X0710604Y0132062D02*
X0822220Y0132062D01*
X0833482Y0121060D02*
X0537576Y0121060D01*
X0536790Y0121846D02*
X0834268Y0121846D01*
X0835054Y0122631D02*
X0536004Y0122631D01*
X0538362Y0120274D02*
X0583469Y0120274D01*
X0583667Y0120471D02*
X0582586Y0119390D01*
X0582000Y0117977D01*
X0582000Y0116448D01*
X0582586Y0115035D01*
X0583667Y0113954D01*
X0585080Y0113369D01*
X0586609Y0113369D01*
X0588021Y0113954D01*
X0589103Y0115035D01*
X0589688Y0116448D01*
X0589688Y0117977D01*
X0589103Y0119390D01*
X0588021Y0120471D01*
X0586609Y0121056D01*
X0585080Y0121056D01*
X0583667Y0120471D01*
X0582684Y0119488D02*
X0539148Y0119488D01*
X0539934Y0118702D02*
X0582301Y0118702D01*
X0582000Y0117916D02*
X0540720Y0117916D01*
X0541506Y0117130D02*
X0582000Y0117130D01*
X0582043Y0116344D02*
X0542292Y0116344D01*
X0543078Y0115558D02*
X0582369Y0115558D01*
X0582849Y0114772D02*
X0543864Y0114772D01*
X0544649Y0113986D02*
X0583635Y0113986D01*
X0585080Y0111056D02*
X0583667Y0110471D01*
X0582586Y0109390D01*
X0582000Y0107977D01*
X0582000Y0106448D01*
X0582586Y0105035D01*
X0583667Y0103954D01*
X0585080Y0103369D01*
X0586609Y0103369D01*
X0588021Y0103954D01*
X0589103Y0105035D01*
X0589688Y0106448D01*
X0589688Y0107977D01*
X0589103Y0109390D01*
X0588021Y0110471D01*
X0586609Y0111056D01*
X0585080Y0111056D01*
X0584564Y0110843D02*
X0547793Y0110843D01*
X0547007Y0111629D02*
X0655598Y0111629D01*
X0655598Y0111659D02*
X0655598Y0110089D01*
X0656199Y0108639D01*
X0657309Y0107528D01*
X0658760Y0106928D01*
X0660330Y0106928D01*
X0661780Y0107528D01*
X0662891Y0108639D01*
X0663491Y0110089D01*
X0663491Y0111659D01*
X0662891Y0113109D01*
X0661780Y0114220D01*
X0660330Y0114820D01*
X0658760Y0114820D01*
X0657309Y0114220D01*
X0656199Y0113109D01*
X0655598Y0111659D01*
X0655598Y0110843D02*
X0587124Y0110843D01*
X0588436Y0110057D02*
X0655612Y0110057D01*
X0655937Y0109271D02*
X0589152Y0109271D01*
X0589477Y0108485D02*
X0656353Y0108485D01*
X0657139Y0107699D02*
X0589688Y0107699D01*
X0589688Y0106913D02*
X0673817Y0106913D01*
X0673709Y0107176D02*
X0674310Y0105725D01*
X0675420Y0104615D01*
X0676870Y0104014D01*
X0678440Y0104014D01*
X0679891Y0104615D01*
X0681001Y0105725D01*
X0681602Y0107176D01*
X0681602Y0108746D01*
X0681001Y0110196D01*
X0679891Y0111306D01*
X0678440Y0111907D01*
X0676870Y0111907D01*
X0675420Y0111306D01*
X0674310Y0110196D01*
X0673709Y0108746D01*
X0673709Y0107176D01*
X0673709Y0107699D02*
X0661951Y0107699D01*
X0662737Y0108485D02*
X0673709Y0108485D01*
X0673926Y0109271D02*
X0663153Y0109271D01*
X0663478Y0110057D02*
X0674252Y0110057D01*
X0674956Y0110843D02*
X0663491Y0110843D01*
X0663491Y0111629D02*
X0676198Y0111629D01*
X0679112Y0111629D02*
X0738374Y0111629D01*
X0738374Y0111211D02*
X0739020Y0109652D01*
X0740213Y0108459D01*
X0741772Y0107813D01*
X0743460Y0107813D01*
X0745019Y0108459D01*
X0746212Y0109652D01*
X0746858Y0111211D01*
X0746858Y0112899D01*
X0746212Y0114458D01*
X0745019Y0115651D01*
X0743460Y0116297D01*
X0741772Y0116297D01*
X0740213Y0115651D01*
X0739020Y0114458D01*
X0738374Y0112899D01*
X0738374Y0111211D01*
X0738527Y0110843D02*
X0680354Y0110843D01*
X0681059Y0110057D02*
X0738852Y0110057D01*
X0739401Y0109271D02*
X0681384Y0109271D01*
X0681602Y0108485D02*
X0740187Y0108485D01*
X0738374Y0112415D02*
X0663178Y0112415D01*
X0662800Y0113200D02*
X0738499Y0113200D01*
X0738825Y0113986D02*
X0662014Y0113986D01*
X0660446Y0114772D02*
X0739334Y0114772D01*
X0740120Y0115558D02*
X0649319Y0115558D01*
X0649103Y0115035D02*
X0649688Y0116448D01*
X0649688Y0117977D01*
X0649103Y0119390D01*
X0648021Y0120471D01*
X0646609Y0121056D01*
X0645080Y0121056D01*
X0643667Y0120471D01*
X0642586Y0119390D01*
X0642000Y0117977D01*
X0642000Y0116448D01*
X0642586Y0115035D01*
X0643667Y0113954D01*
X0645080Y0113369D01*
X0646609Y0113369D01*
X0648021Y0113954D01*
X0649103Y0115035D01*
X0648840Y0114772D02*
X0658644Y0114772D01*
X0657076Y0113986D02*
X0648054Y0113986D01*
X0649645Y0116344D02*
X0828767Y0116344D01*
X0829553Y0117130D02*
X0649688Y0117130D01*
X0649688Y0117916D02*
X0830338Y0117916D01*
X0831124Y0118702D02*
X0649388Y0118702D01*
X0649005Y0119488D02*
X0831910Y0119488D01*
X0832696Y0120274D02*
X0648219Y0120274D01*
X0643469Y0120274D02*
X0588219Y0120274D01*
X0589005Y0119488D02*
X0642684Y0119488D01*
X0642301Y0118702D02*
X0589388Y0118702D01*
X0589688Y0117916D02*
X0642000Y0117916D01*
X0642000Y0117130D02*
X0589688Y0117130D01*
X0589645Y0116344D02*
X0642043Y0116344D01*
X0642369Y0115558D02*
X0589319Y0115558D01*
X0588840Y0114772D02*
X0642849Y0114772D01*
X0643635Y0113986D02*
X0588054Y0113986D01*
X0583253Y0110057D02*
X0548579Y0110057D01*
X0549365Y0109271D02*
X0582536Y0109271D01*
X0582211Y0108485D02*
X0550151Y0108485D01*
X0550937Y0107699D02*
X0582000Y0107699D01*
X0582000Y0106913D02*
X0551723Y0106913D01*
X0552509Y0106127D02*
X0582133Y0106127D01*
X0582459Y0105341D02*
X0553295Y0105341D01*
X0554080Y0104555D02*
X0583065Y0104555D01*
X0584112Y0103770D02*
X0554866Y0103770D01*
X0555652Y0102984D02*
X0815406Y0102984D01*
X0816192Y0103770D02*
X0587576Y0103770D01*
X0588623Y0104555D02*
X0675563Y0104555D01*
X0674693Y0105341D02*
X0589229Y0105341D01*
X0589555Y0106127D02*
X0674143Y0106127D01*
X0679747Y0104555D02*
X0816978Y0104555D01*
X0817764Y0105341D02*
X0680617Y0105341D01*
X0681167Y0106127D02*
X0818550Y0106127D01*
X0819336Y0106913D02*
X0681493Y0106913D01*
X0681602Y0107699D02*
X0820122Y0107699D01*
X0820907Y0108485D02*
X0764729Y0108485D01*
X0764704Y0108459D02*
X0765897Y0109652D01*
X0766543Y0111211D01*
X0766543Y0112899D01*
X0765897Y0114458D01*
X0764704Y0115651D01*
X0763145Y0116297D01*
X0761457Y0116297D01*
X0759898Y0115651D01*
X0758705Y0114458D01*
X0758059Y0112899D01*
X0758059Y0111211D01*
X0758705Y0109652D01*
X0759898Y0108459D01*
X0761457Y0107813D01*
X0763145Y0107813D01*
X0764704Y0108459D01*
X0765515Y0109271D02*
X0821693Y0109271D01*
X0822479Y0110057D02*
X0766064Y0110057D01*
X0766390Y0110843D02*
X0823265Y0110843D01*
X0824051Y0111629D02*
X0766543Y0111629D01*
X0766543Y0112415D02*
X0824837Y0112415D01*
X0825623Y0113200D02*
X0766418Y0113200D01*
X0766092Y0113986D02*
X0826409Y0113986D01*
X0827195Y0114772D02*
X0765582Y0114772D01*
X0764796Y0115558D02*
X0827981Y0115558D01*
X0814620Y0102198D02*
X0556438Y0102198D01*
X0557224Y0101412D02*
X0813834Y0101412D01*
X0813048Y0100626D02*
X0558010Y0100626D01*
X0558796Y0099840D02*
X0812262Y0099840D01*
X0811477Y0099054D02*
X0559582Y0099054D01*
X0546221Y0112415D02*
X0655911Y0112415D01*
X0656290Y0113200D02*
X0545435Y0113200D01*
X0553279Y0124203D02*
X0583418Y0124203D01*
X0582632Y0124989D02*
X0553940Y0124989D01*
X0554266Y0125775D02*
X0582279Y0125775D01*
X0582000Y0126561D02*
X0554460Y0126561D01*
X0554460Y0127347D02*
X0582000Y0127347D01*
X0582065Y0128133D02*
X0554336Y0128133D01*
X0554011Y0128919D02*
X0582390Y0128919D01*
X0582900Y0129705D02*
X0553449Y0129705D01*
X0552570Y0130491D02*
X0583714Y0130491D01*
X0587974Y0130491D02*
X0643714Y0130491D01*
X0642900Y0129705D02*
X0588788Y0129705D01*
X0589298Y0128919D02*
X0642390Y0128919D01*
X0642065Y0128133D02*
X0589623Y0128133D01*
X0589688Y0127347D02*
X0642000Y0127347D01*
X0642000Y0126561D02*
X0589688Y0126561D01*
X0589409Y0125775D02*
X0642279Y0125775D01*
X0642632Y0124989D02*
X0589057Y0124989D01*
X0588271Y0124203D02*
X0643418Y0124203D01*
X0583915Y0143851D02*
X0539302Y0143851D01*
X0539867Y0143065D02*
X0723507Y0143065D01*
X0723480Y0142279D02*
X0540192Y0142279D01*
X0538417Y0144637D02*
X0582984Y0144637D01*
X0582425Y0145423D02*
X0532072Y0145423D01*
X0532730Y0146209D02*
X0582100Y0146209D01*
X0582000Y0146995D02*
X0533055Y0146995D01*
X0533247Y0147781D02*
X0582000Y0147781D01*
X0582245Y0148567D02*
X0533247Y0148567D01*
X0533120Y0149352D02*
X0582570Y0149352D01*
X0583334Y0150138D02*
X0532795Y0150138D01*
X0532229Y0150924D02*
X0584761Y0150924D01*
X0628352Y0164285D02*
X0643336Y0164285D01*
X0642571Y0165071D02*
X0629117Y0165071D01*
X0629443Y0165857D02*
X0642245Y0165857D01*
X0642000Y0166643D02*
X0629688Y0166643D01*
X0629688Y0167428D02*
X0642000Y0167428D01*
X0642099Y0168214D02*
X0629590Y0168214D01*
X0629264Y0169000D02*
X0642424Y0169000D01*
X0642982Y0169786D02*
X0628706Y0169786D01*
X0627778Y0170572D02*
X0643911Y0170572D01*
X0644242Y0173716D02*
X0627446Y0173716D01*
X0628569Y0174502D02*
X0643119Y0174502D01*
X0642481Y0175288D02*
X0629207Y0175288D01*
X0629533Y0176074D02*
X0642156Y0176074D01*
X0642000Y0176859D02*
X0629688Y0176859D01*
X0629688Y0177645D02*
X0642000Y0177645D01*
X0642189Y0178431D02*
X0629500Y0178431D01*
X0629174Y0179217D02*
X0642514Y0179217D01*
X0643199Y0180003D02*
X0628489Y0180003D01*
X0627254Y0180789D02*
X0644434Y0180789D01*
X0643719Y0183933D02*
X0627970Y0183933D01*
X0628786Y0184719D02*
X0642902Y0184719D01*
X0642391Y0185504D02*
X0629297Y0185504D01*
X0629623Y0186290D02*
X0642066Y0186290D01*
X0642000Y0187076D02*
X0629688Y0187076D01*
X0629688Y0187862D02*
X0642000Y0187862D01*
X0642278Y0188648D02*
X0629410Y0188648D01*
X0629059Y0189434D02*
X0642630Y0189434D01*
X0643416Y0190220D02*
X0628273Y0190220D01*
X0628217Y0194150D02*
X0643471Y0194150D01*
X0642685Y0194935D02*
X0629003Y0194935D01*
X0629387Y0195721D02*
X0642301Y0195721D01*
X0642000Y0196507D02*
X0629688Y0196507D01*
X0629688Y0197293D02*
X0642000Y0197293D01*
X0642043Y0198079D02*
X0629646Y0198079D01*
X0629320Y0198865D02*
X0642368Y0198865D01*
X0642847Y0199651D02*
X0628842Y0199651D01*
X0628056Y0200437D02*
X0643633Y0200437D01*
X0694730Y0194935D02*
X0797597Y0194935D01*
X0798457Y0194150D02*
X0695904Y0194150D01*
X0707950Y0183933D02*
X0713895Y0183933D01*
X0712970Y0183147D02*
X0708876Y0183147D01*
X0709206Y0182361D02*
X0712640Y0182361D01*
X0712587Y0181575D02*
X0709259Y0181575D01*
X0709069Y0180789D02*
X0712777Y0180789D01*
X0713301Y0180003D02*
X0708545Y0180003D01*
X0697047Y0173716D02*
X0870569Y0173716D01*
X0870569Y0174502D02*
X0696096Y0174502D01*
X0697387Y0172930D02*
X0734772Y0172930D01*
X0734308Y0172738D02*
X0733114Y0171544D01*
X0732469Y0169985D01*
X0732469Y0168298D01*
X0733114Y0166739D01*
X0734308Y0165546D01*
X0735867Y0164900D01*
X0737554Y0164900D01*
X0739113Y0165546D01*
X0740306Y0166739D01*
X0740647Y0167562D01*
X0740988Y0166739D01*
X0742182Y0165546D01*
X0743741Y0164900D01*
X0745428Y0164900D01*
X0746987Y0165546D01*
X0748180Y0166739D01*
X0748521Y0167562D01*
X0748862Y0166739D01*
X0750056Y0165546D01*
X0751615Y0164900D01*
X0753302Y0164900D01*
X0754861Y0165546D01*
X0756054Y0166739D01*
X0756395Y0167562D01*
X0756736Y0166739D01*
X0757930Y0165546D01*
X0759489Y0164900D01*
X0761176Y0164900D01*
X0762735Y0165546D01*
X0763928Y0166739D01*
X0764574Y0168298D01*
X0764574Y0169985D01*
X0763928Y0171544D01*
X0762735Y0172738D01*
X0761176Y0173383D01*
X0759489Y0173383D01*
X0757930Y0172738D01*
X0756736Y0171544D01*
X0756395Y0170721D01*
X0756054Y0171544D01*
X0754861Y0172738D01*
X0753302Y0173383D01*
X0751615Y0173383D01*
X0750056Y0172738D01*
X0748862Y0171544D01*
X0748521Y0170721D01*
X0748180Y0171544D01*
X0746987Y0172738D01*
X0745428Y0173383D01*
X0743741Y0173383D01*
X0742182Y0172738D01*
X0740988Y0171544D01*
X0740647Y0170721D01*
X0740306Y0171544D01*
X0739113Y0172738D01*
X0737554Y0173383D01*
X0735867Y0173383D01*
X0734308Y0172738D01*
X0733714Y0172144D02*
X0697448Y0172144D01*
X0697265Y0171358D02*
X0733037Y0171358D01*
X0732712Y0170572D02*
X0696752Y0170572D01*
X0697222Y0169786D02*
X0732469Y0169786D01*
X0732469Y0169000D02*
X0697448Y0169000D01*
X0697431Y0168214D02*
X0732503Y0168214D01*
X0732829Y0167428D02*
X0697105Y0167428D01*
X0696350Y0166643D02*
X0733211Y0166643D01*
X0733997Y0165857D02*
X0695413Y0165857D01*
X0695480Y0165071D02*
X0735454Y0165071D01*
X0737966Y0165071D02*
X0743328Y0165071D01*
X0741871Y0165857D02*
X0739424Y0165857D01*
X0740210Y0166643D02*
X0741085Y0166643D01*
X0740703Y0167428D02*
X0740592Y0167428D01*
X0740383Y0171358D02*
X0740911Y0171358D01*
X0741588Y0172144D02*
X0739707Y0172144D01*
X0738649Y0172930D02*
X0742646Y0172930D01*
X0746523Y0172930D02*
X0750520Y0172930D01*
X0749462Y0172144D02*
X0747581Y0172144D01*
X0748257Y0171358D02*
X0748785Y0171358D01*
X0748577Y0167428D02*
X0748466Y0167428D01*
X0748084Y0166643D02*
X0748959Y0166643D01*
X0749745Y0165857D02*
X0747298Y0165857D01*
X0745840Y0165071D02*
X0751202Y0165071D01*
X0753714Y0165071D02*
X0759076Y0165071D01*
X0757619Y0165857D02*
X0755172Y0165857D01*
X0755958Y0166643D02*
X0756833Y0166643D01*
X0756451Y0167428D02*
X0756340Y0167428D01*
X0756132Y0171358D02*
X0756659Y0171358D01*
X0757336Y0172144D02*
X0755455Y0172144D01*
X0754397Y0172930D02*
X0758394Y0172930D01*
X0762271Y0172930D02*
X0870569Y0172930D01*
X0870569Y0172144D02*
X0763329Y0172144D01*
X0764006Y0171358D02*
X0870569Y0171358D01*
X0870569Y0170572D02*
X0764331Y0170572D01*
X0764574Y0169786D02*
X0870569Y0169786D01*
X0870569Y0169000D02*
X0764574Y0169000D01*
X0764539Y0168214D02*
X0870569Y0168214D01*
X0870569Y0167428D02*
X0764214Y0167428D01*
X0763832Y0166643D02*
X0870569Y0166643D01*
X0870569Y0165857D02*
X0763046Y0165857D01*
X0761588Y0165071D02*
X0870569Y0165071D01*
X0870569Y0164285D02*
X0695302Y0164285D01*
X0696634Y0163499D02*
X0870569Y0163499D01*
X0870569Y0162713D02*
X0697216Y0162713D01*
X0697448Y0161927D02*
X0870569Y0161927D01*
X0870569Y0161141D02*
X0697436Y0161141D01*
X0697111Y0160355D02*
X0740727Y0160355D01*
X0741163Y0160791D02*
X0739943Y0159571D01*
X0739943Y0157846D01*
X0741163Y0156626D01*
X0742888Y0156626D01*
X0744108Y0157846D01*
X0744108Y0159571D01*
X0742888Y0160791D01*
X0741163Y0160791D01*
X0739943Y0159569D02*
X0697020Y0159569D01*
X0697376Y0158783D02*
X0739943Y0158783D01*
X0739943Y0157998D02*
X0697448Y0157998D01*
X0697276Y0157212D02*
X0740577Y0157212D01*
X0743474Y0157212D02*
X0869634Y0157212D01*
X0870420Y0157998D02*
X0744108Y0157998D01*
X0744108Y0158783D02*
X0870569Y0158783D01*
X0870569Y0159569D02*
X0744108Y0159569D01*
X0743324Y0160355D02*
X0870569Y0160355D01*
X0868848Y0156426D02*
X0696779Y0156426D01*
X0684808Y0155640D02*
X0868062Y0155640D01*
X0866813Y0180003D02*
X0870569Y0180003D01*
X0870569Y0180789D02*
X0867336Y0180789D01*
X0867527Y0181575D02*
X0870569Y0181575D01*
X0870569Y0182361D02*
X0867473Y0182361D01*
X0867143Y0183147D02*
X0870569Y0183147D01*
X0870569Y0183933D02*
X0866218Y0183933D01*
X0870569Y0186290D02*
X0819102Y0186290D01*
X0819052Y0187076D02*
X0870569Y0187076D01*
X0870569Y0187862D02*
X0836128Y0187862D01*
X0837662Y0188648D02*
X0870569Y0188648D01*
X0870569Y0189434D02*
X0858527Y0189434D01*
X0858188Y0189095D02*
X0858883Y0189790D01*
X0859259Y0190698D01*
X0859259Y0191680D01*
X0858883Y0192588D01*
X0858188Y0193283D01*
X0857280Y0193659D01*
X0856298Y0193659D01*
X0855390Y0193283D01*
X0854695Y0192588D01*
X0854319Y0191680D01*
X0854319Y0190698D01*
X0854695Y0189790D01*
X0855390Y0189095D01*
X0856298Y0188719D01*
X0857280Y0188719D01*
X0858188Y0189095D01*
X0859061Y0190220D02*
X0870569Y0190220D01*
X0870569Y0191006D02*
X0859259Y0191006D01*
X0859213Y0191792D02*
X0870569Y0191792D01*
X0870569Y0192578D02*
X0858887Y0192578D01*
X0857994Y0193364D02*
X0870569Y0193364D01*
X0870569Y0195721D02*
X0863634Y0195721D01*
X0864174Y0196507D02*
X0870569Y0196507D01*
X0870569Y0197293D02*
X0864377Y0197293D01*
X0864336Y0198079D02*
X0870569Y0198079D01*
X0870569Y0198865D02*
X0864010Y0198865D01*
X0863140Y0199651D02*
X0870569Y0199651D01*
X0870569Y0206724D02*
X0815952Y0206724D01*
X0815918Y0207510D02*
X0870569Y0207510D01*
X0870569Y0208296D02*
X0815593Y0208296D01*
X0814758Y0209082D02*
X0870569Y0209082D01*
X0826457Y0198079D02*
X0819928Y0198079D01*
X0820471Y0197293D02*
X0826131Y0197293D01*
X0825806Y0196507D02*
X0820676Y0196507D01*
X0820637Y0195721D02*
X0825687Y0195721D01*
X0825687Y0194935D02*
X0820312Y0194935D01*
X0819452Y0194150D02*
X0825687Y0194150D01*
X0823292Y0201223D02*
X0541769Y0201223D01*
X0539872Y0202009D02*
X0822406Y0202009D01*
X0840647Y0193364D02*
X0855584Y0193364D01*
X0854691Y0192578D02*
X0840371Y0192578D01*
X0840046Y0191792D02*
X0854365Y0191792D01*
X0854319Y0191006D02*
X0839720Y0191006D01*
X0839233Y0190220D02*
X0854517Y0190220D01*
X0855051Y0189434D02*
X0838448Y0189434D01*
X0830206Y0187862D02*
X0818726Y0187862D01*
X0817815Y0188648D02*
X0828672Y0188648D01*
X0837861Y0181575D02*
X0850179Y0181575D01*
X0850704Y0180789D02*
X0838792Y0180789D01*
X0802084Y0183933D02*
X0792596Y0183933D01*
X0793521Y0183147D02*
X0801159Y0183147D01*
X0800829Y0182361D02*
X0793851Y0182361D01*
X0793905Y0181575D02*
X0800776Y0181575D01*
X0800966Y0180789D02*
X0793714Y0180789D01*
X0793191Y0180003D02*
X0801490Y0180003D01*
X0802687Y0188648D02*
X0766936Y0188648D01*
X0766807Y0189434D02*
X0802154Y0189434D01*
X0801957Y0190220D02*
X0766369Y0190220D01*
X0765185Y0191006D02*
X0802004Y0191006D01*
X0809888Y0220871D02*
X0818650Y0220871D01*
X0818092Y0221656D02*
X0810447Y0221656D01*
X0810447Y0222442D02*
X0813141Y0222442D01*
X0812356Y0223228D02*
X0810372Y0223228D01*
X0812650Y0225586D02*
X0805722Y0225586D01*
X0805260Y0226372D02*
X0812361Y0226372D01*
X0816352Y0224014D02*
X0818952Y0224014D01*
X0818166Y0223228D02*
X0816183Y0223228D01*
X0815397Y0222442D02*
X0818092Y0222442D01*
X0806064Y0227158D02*
X0798853Y0227158D01*
X0795828Y0227158D02*
X0746424Y0227158D01*
X0746424Y0227944D02*
X0795258Y0227944D01*
X0795258Y0228730D02*
X0746424Y0228730D01*
X0746424Y0229516D02*
X0795320Y0229516D01*
X0796106Y0230302D02*
X0746424Y0230302D01*
X0746424Y0231087D02*
X0800166Y0231087D01*
X0799982Y0231873D02*
X0746424Y0231873D01*
X0746424Y0232659D02*
X0799982Y0232659D01*
X0800431Y0233445D02*
X0794904Y0233445D01*
X0794660Y0233201D02*
X0795880Y0234421D01*
X0795880Y0236146D01*
X0794660Y0237366D01*
X0792934Y0237366D01*
X0791714Y0236146D01*
X0791714Y0234421D01*
X0792934Y0233201D01*
X0794660Y0233201D01*
X0795690Y0234231D02*
X0870569Y0234231D01*
X0870569Y0233445D02*
X0803699Y0233445D01*
X0804352Y0236350D02*
X0806077Y0236350D01*
X0807297Y0237570D01*
X0807297Y0239296D01*
X0806077Y0240516D01*
X0804352Y0240516D01*
X0803132Y0239296D01*
X0803132Y0237570D01*
X0804352Y0236350D01*
X0804113Y0236589D02*
X0801391Y0236589D01*
X0801391Y0237327D02*
X0800171Y0238547D01*
X0798446Y0238547D01*
X0797226Y0237327D01*
X0797226Y0235602D01*
X0798446Y0234382D01*
X0800171Y0234382D01*
X0801391Y0235602D01*
X0801391Y0237327D01*
X0801344Y0237375D02*
X0803327Y0237375D01*
X0803132Y0238161D02*
X0800558Y0238161D01*
X0798059Y0238161D02*
X0795289Y0238161D01*
X0795880Y0238751D02*
X0794660Y0237531D01*
X0792934Y0237531D01*
X0791714Y0238751D01*
X0791714Y0240477D01*
X0792934Y0241697D01*
X0794660Y0241697D01*
X0795880Y0240477D01*
X0795880Y0238751D01*
X0795880Y0238947D02*
X0803132Y0238947D01*
X0803568Y0239732D02*
X0795880Y0239732D01*
X0795838Y0240518D02*
X0818294Y0240518D01*
X0818092Y0240720D02*
X0819312Y0239500D01*
X0821038Y0239500D01*
X0822258Y0240720D01*
X0822258Y0242445D01*
X0821038Y0243665D01*
X0819312Y0243665D01*
X0818092Y0242445D01*
X0818092Y0240720D01*
X0818092Y0241304D02*
X0795052Y0241304D01*
X0792542Y0241304D02*
X0746424Y0241304D01*
X0746424Y0240518D02*
X0791756Y0240518D01*
X0791714Y0239732D02*
X0746424Y0239732D01*
X0746424Y0238947D02*
X0791714Y0238947D01*
X0792305Y0238161D02*
X0746424Y0238161D01*
X0746424Y0237375D02*
X0797274Y0237375D01*
X0797226Y0236589D02*
X0795437Y0236589D01*
X0795880Y0235803D02*
X0797226Y0235803D01*
X0797811Y0235017D02*
X0795880Y0235017D01*
X0792690Y0233445D02*
X0746424Y0233445D01*
X0746424Y0234231D02*
X0791904Y0234231D01*
X0791714Y0235017D02*
X0746424Y0235017D01*
X0746424Y0235803D02*
X0791714Y0235803D01*
X0792157Y0236589D02*
X0746424Y0236589D01*
X0746424Y0242090D02*
X0818092Y0242090D01*
X0818523Y0242876D02*
X0746424Y0242876D01*
X0746424Y0243662D02*
X0819309Y0243662D01*
X0821041Y0243662D02*
X0870569Y0243662D01*
X0870569Y0242876D02*
X0821827Y0242876D01*
X0822258Y0242090D02*
X0870569Y0242090D01*
X0870569Y0241304D02*
X0822258Y0241304D01*
X0822056Y0240518D02*
X0870569Y0240518D01*
X0870569Y0239732D02*
X0821270Y0239732D01*
X0819080Y0239732D02*
X0806860Y0239732D01*
X0807297Y0238947D02*
X0870569Y0238947D01*
X0870569Y0238161D02*
X0807297Y0238161D01*
X0807101Y0237375D02*
X0870569Y0237375D01*
X0870569Y0236589D02*
X0806315Y0236589D01*
X0801391Y0235803D02*
X0870569Y0235803D01*
X0870569Y0235017D02*
X0800806Y0235017D01*
X0800952Y0230302D02*
X0798575Y0230302D01*
X0746424Y0244448D02*
X0870569Y0244448D01*
X0870569Y0245234D02*
X0746424Y0245234D01*
X0746424Y0246020D02*
X0870569Y0246020D01*
X0870569Y0246806D02*
X0746424Y0246806D01*
X0746424Y0247592D02*
X0870569Y0247592D01*
X0870569Y0248378D02*
X0746424Y0248378D01*
X0746424Y0249163D02*
X0870569Y0249163D01*
X0870569Y0249949D02*
X0746424Y0249949D01*
X0746424Y0250735D02*
X0870569Y0250735D01*
X0870569Y0251521D02*
X0746424Y0251521D01*
X0746424Y0252307D02*
X0870569Y0252307D01*
X0870569Y0253093D02*
X0746424Y0253093D01*
X0746424Y0253879D02*
X0870569Y0253879D01*
X0870569Y0254665D02*
X0746424Y0254665D01*
X0746424Y0255451D02*
X0870569Y0255451D01*
X0870569Y0256237D02*
X0746424Y0256237D01*
X0746424Y0257023D02*
X0870569Y0257023D01*
X0870569Y0257808D02*
X0746424Y0257808D01*
X0746424Y0258594D02*
X0855563Y0258594D01*
X0855995Y0258416D02*
X0857583Y0258416D01*
X0859051Y0259024D01*
X0860175Y0260147D01*
X0860783Y0261615D01*
X0860783Y0263204D01*
X0860175Y0264672D01*
X0859051Y0265795D01*
X0857583Y0266403D01*
X0855995Y0266403D01*
X0854527Y0265795D01*
X0853403Y0264672D01*
X0852795Y0263204D01*
X0852795Y0261615D01*
X0853403Y0260147D01*
X0854527Y0259024D01*
X0855995Y0258416D01*
X0858015Y0258594D02*
X0870569Y0258594D01*
X0870569Y0259380D02*
X0859408Y0259380D01*
X0860183Y0260166D02*
X0870569Y0260166D01*
X0870569Y0260952D02*
X0860508Y0260952D01*
X0860783Y0261738D02*
X0870569Y0261738D01*
X0870569Y0262524D02*
X0860783Y0262524D01*
X0860739Y0263310D02*
X0870569Y0263310D01*
X0870569Y0264096D02*
X0860413Y0264096D01*
X0859965Y0264882D02*
X0870569Y0264882D01*
X0870569Y0265668D02*
X0859179Y0265668D01*
X0857583Y0268416D02*
X0859051Y0269024D01*
X0860175Y0270147D01*
X0860783Y0271615D01*
X0860783Y0273204D01*
X0860175Y0274672D01*
X0859051Y0275795D01*
X0857583Y0276403D01*
X0855995Y0276403D01*
X0854527Y0275795D01*
X0853403Y0274672D01*
X0852795Y0273204D01*
X0852795Y0271615D01*
X0853403Y0270147D01*
X0854527Y0269024D01*
X0855995Y0268416D01*
X0857583Y0268416D01*
X0858538Y0268811D02*
X0870569Y0268811D01*
X0870569Y0268025D02*
X0746424Y0268025D01*
X0746424Y0267239D02*
X0870569Y0267239D01*
X0870569Y0266454D02*
X0746424Y0266454D01*
X0746424Y0265668D02*
X0854399Y0265668D01*
X0853613Y0264882D02*
X0746424Y0264882D01*
X0746424Y0264096D02*
X0853165Y0264096D01*
X0852839Y0263310D02*
X0746424Y0263310D01*
X0746424Y0262524D02*
X0852795Y0262524D01*
X0852795Y0261738D02*
X0746424Y0261738D01*
X0746424Y0260952D02*
X0853070Y0260952D01*
X0853395Y0260166D02*
X0746424Y0260166D01*
X0746424Y0259380D02*
X0854170Y0259380D01*
X0855040Y0268811D02*
X0746424Y0268811D01*
X0746424Y0269597D02*
X0853953Y0269597D01*
X0853306Y0270383D02*
X0746424Y0270383D01*
X0746424Y0271169D02*
X0852980Y0271169D01*
X0852795Y0271955D02*
X0746424Y0271955D01*
X0746424Y0272741D02*
X0852795Y0272741D01*
X0852929Y0273527D02*
X0746424Y0273527D01*
X0746424Y0274313D02*
X0853255Y0274313D01*
X0853830Y0275099D02*
X0746424Y0275099D01*
X0746424Y0275884D02*
X0854742Y0275884D01*
X0855995Y0278416D02*
X0857583Y0278416D01*
X0859051Y0279024D01*
X0860175Y0280147D01*
X0860783Y0281615D01*
X0860783Y0283204D01*
X0860175Y0284672D01*
X0859051Y0285795D01*
X0857583Y0286403D01*
X0855995Y0286403D01*
X0854527Y0285795D01*
X0853403Y0284672D01*
X0852795Y0283204D01*
X0852795Y0281615D01*
X0853403Y0280147D01*
X0854527Y0279024D01*
X0855995Y0278416D01*
X0854522Y0279028D02*
X0746424Y0279028D01*
X0746424Y0278242D02*
X0870569Y0278242D01*
X0870569Y0277456D02*
X0746424Y0277456D01*
X0746424Y0276670D02*
X0870569Y0276670D01*
X0870569Y0275884D02*
X0858836Y0275884D01*
X0859748Y0275099D02*
X0870569Y0275099D01*
X0870569Y0274313D02*
X0860323Y0274313D01*
X0860649Y0273527D02*
X0870569Y0273527D01*
X0870569Y0272741D02*
X0860783Y0272741D01*
X0860783Y0271955D02*
X0870569Y0271955D01*
X0870569Y0271169D02*
X0860598Y0271169D01*
X0860272Y0270383D02*
X0870569Y0270383D01*
X0870569Y0269597D02*
X0859625Y0269597D01*
X0859056Y0279028D02*
X0870569Y0279028D01*
X0870569Y0279814D02*
X0859842Y0279814D01*
X0860362Y0280600D02*
X0870569Y0280600D01*
X0870569Y0281386D02*
X0860688Y0281386D01*
X0860783Y0282172D02*
X0870569Y0282172D01*
X0870569Y0282958D02*
X0860783Y0282958D01*
X0860559Y0283744D02*
X0870569Y0283744D01*
X0870569Y0284530D02*
X0860234Y0284530D01*
X0859531Y0285315D02*
X0870569Y0285315D01*
X0870569Y0286101D02*
X0858312Y0286101D01*
X0857583Y0288416D02*
X0859051Y0289024D01*
X0860175Y0290147D01*
X0860783Y0291615D01*
X0860783Y0293204D01*
X0860175Y0294672D01*
X0859051Y0295795D01*
X0857583Y0296403D01*
X0855995Y0296403D01*
X0854527Y0295795D01*
X0853403Y0294672D01*
X0852795Y0293204D01*
X0852795Y0291615D01*
X0853403Y0290147D01*
X0854527Y0289024D01*
X0855995Y0288416D01*
X0857583Y0288416D01*
X0857688Y0288459D02*
X0870569Y0288459D01*
X0870569Y0287673D02*
X0500490Y0287673D01*
X0500490Y0286887D02*
X0870569Y0286887D01*
X0870569Y0289245D02*
X0859273Y0289245D01*
X0860058Y0290031D02*
X0870569Y0290031D01*
X0870569Y0290817D02*
X0860452Y0290817D01*
X0860778Y0291603D02*
X0870569Y0291603D01*
X0870569Y0292389D02*
X0860783Y0292389D01*
X0860783Y0293175D02*
X0870569Y0293175D01*
X0870569Y0293960D02*
X0860469Y0293960D01*
X0860100Y0294746D02*
X0870133Y0294746D01*
X0869347Y0295532D02*
X0859314Y0295532D01*
X0857788Y0296318D02*
X0868561Y0296318D01*
X0867775Y0297104D02*
X0503283Y0297104D01*
X0502497Y0296318D02*
X0855790Y0296318D01*
X0854264Y0295532D02*
X0501712Y0295532D01*
X0500926Y0294746D02*
X0853478Y0294746D01*
X0853109Y0293960D02*
X0500490Y0293960D01*
X0500490Y0293175D02*
X0852795Y0293175D01*
X0852795Y0292389D02*
X0500490Y0292389D01*
X0500490Y0291603D02*
X0852800Y0291603D01*
X0853126Y0290817D02*
X0500490Y0290817D01*
X0500490Y0290031D02*
X0853520Y0290031D01*
X0854306Y0289245D02*
X0500490Y0289245D01*
X0500490Y0288459D02*
X0855890Y0288459D01*
X0855266Y0286101D02*
X0500490Y0286101D01*
X0500490Y0285315D02*
X0854047Y0285315D01*
X0853344Y0284530D02*
X0500490Y0284530D01*
X0500490Y0283744D02*
X0853019Y0283744D01*
X0852795Y0282958D02*
X0746033Y0282958D01*
X0746424Y0282172D02*
X0852795Y0282172D01*
X0852890Y0281386D02*
X0746424Y0281386D01*
X0746424Y0280600D02*
X0853216Y0280600D01*
X0853737Y0279814D02*
X0746424Y0279814D01*
X0770928Y0303163D02*
X0774271Y0301778D01*
X0777890Y0301778D01*
X0781233Y0303163D01*
X0783792Y0305722D01*
X0785176Y0309065D01*
X0785176Y0312683D01*
X0783792Y0316027D01*
X0781233Y0318585D01*
X0777890Y0319970D01*
X0774271Y0319970D01*
X0770928Y0318585D01*
X0768369Y0316027D01*
X0766984Y0312683D01*
X0766984Y0309065D01*
X0768369Y0305722D01*
X0770928Y0303163D01*
X0770699Y0303391D02*
X0509571Y0303391D01*
X0508785Y0302605D02*
X0772273Y0302605D01*
X0774171Y0301820D02*
X0507999Y0301820D01*
X0507213Y0301034D02*
X0863845Y0301034D01*
X0863060Y0301820D02*
X0777990Y0301820D01*
X0779888Y0302605D02*
X0862274Y0302605D01*
X0861488Y0303391D02*
X0781462Y0303391D01*
X0782247Y0304177D02*
X0860702Y0304177D01*
X0859916Y0304963D02*
X0783033Y0304963D01*
X0783803Y0305749D02*
X0859130Y0305749D01*
X0858344Y0306535D02*
X0784129Y0306535D01*
X0784454Y0307321D02*
X0857558Y0307321D01*
X0856772Y0308107D02*
X0784780Y0308107D01*
X0785105Y0308893D02*
X0855986Y0308893D01*
X0855200Y0309679D02*
X0835571Y0309679D01*
X0834655Y0309299D02*
X0837404Y0310438D01*
X0839508Y0312542D01*
X0840647Y0315292D01*
X0840647Y0318267D01*
X0839508Y0321017D01*
X0837404Y0323121D01*
X0834655Y0324260D01*
X0831679Y0324260D01*
X0828930Y0323121D01*
X0826825Y0321017D01*
X0825687Y0318267D01*
X0825687Y0315292D01*
X0826825Y0312542D01*
X0828930Y0310438D01*
X0831679Y0309299D01*
X0834655Y0309299D01*
X0837431Y0310465D02*
X0854415Y0310465D01*
X0853629Y0311251D02*
X0838217Y0311251D01*
X0839003Y0312036D02*
X0852843Y0312036D01*
X0852057Y0312822D02*
X0839625Y0312822D01*
X0839950Y0313608D02*
X0851271Y0313608D01*
X0850485Y0314394D02*
X0840276Y0314394D01*
X0840601Y0315180D02*
X0849699Y0315180D01*
X0848913Y0315966D02*
X0840647Y0315966D01*
X0840647Y0316752D02*
X0848127Y0316752D01*
X0847341Y0317538D02*
X0840647Y0317538D01*
X0840624Y0318324D02*
X0846555Y0318324D01*
X0845769Y0319110D02*
X0840298Y0319110D01*
X0839973Y0319896D02*
X0844984Y0319896D01*
X0844198Y0320681D02*
X0839647Y0320681D01*
X0839058Y0321467D02*
X0843412Y0321467D01*
X0842626Y0322253D02*
X0838272Y0322253D01*
X0837486Y0323039D02*
X0841840Y0323039D01*
X0841054Y0323825D02*
X0835704Y0323825D01*
X0838696Y0326183D02*
X0532362Y0326183D01*
X0533148Y0326969D02*
X0774342Y0326969D01*
X0774565Y0326876D02*
X0777596Y0326876D01*
X0780397Y0328036D01*
X0782540Y0330180D01*
X0783700Y0332980D01*
X0783700Y0336012D01*
X0782540Y0338812D01*
X0780397Y0340956D01*
X0778466Y0341755D01*
X0778980Y0341968D01*
X0780419Y0343408D01*
X0781198Y0345289D01*
X0781198Y0347325D01*
X0780419Y0349206D01*
X0778980Y0350646D01*
X0777098Y0351425D01*
X0775062Y0351425D01*
X0773181Y0350646D01*
X0771741Y0349206D01*
X0770962Y0347325D01*
X0770962Y0345289D01*
X0771741Y0343408D01*
X0773181Y0341968D01*
X0773695Y0341755D01*
X0771764Y0340956D01*
X0769621Y0338812D01*
X0768461Y0336012D01*
X0768461Y0332980D01*
X0769621Y0330180D01*
X0771764Y0328036D01*
X0774565Y0326876D01*
X0772444Y0327755D02*
X0533934Y0327755D01*
X0534720Y0328541D02*
X0771260Y0328541D01*
X0770474Y0329327D02*
X0535506Y0329327D01*
X0536292Y0330112D02*
X0769688Y0330112D01*
X0769323Y0330898D02*
X0761407Y0330898D01*
X0759977Y0330306D02*
X0762959Y0331541D01*
X0765241Y0333823D01*
X0766476Y0336805D01*
X0766476Y0340032D01*
X0765241Y0343013D01*
X0762959Y0345295D01*
X0759977Y0346530D01*
X0756750Y0346530D01*
X0753769Y0345295D01*
X0751487Y0343013D01*
X0750252Y0340032D01*
X0750252Y0336805D01*
X0751487Y0333823D01*
X0753769Y0331541D01*
X0756750Y0330306D01*
X0759977Y0330306D01*
X0763102Y0331684D02*
X0768998Y0331684D01*
X0768672Y0332470D02*
X0763888Y0332470D01*
X0764674Y0333256D02*
X0768461Y0333256D01*
X0768461Y0334042D02*
X0765331Y0334042D01*
X0765657Y0334828D02*
X0768461Y0334828D01*
X0768461Y0335614D02*
X0765982Y0335614D01*
X0766308Y0336400D02*
X0768621Y0336400D01*
X0768947Y0337186D02*
X0766476Y0337186D01*
X0766476Y0337972D02*
X0769273Y0337972D01*
X0769598Y0338757D02*
X0766476Y0338757D01*
X0766476Y0339543D02*
X0770352Y0339543D01*
X0771138Y0340329D02*
X0766352Y0340329D01*
X0766027Y0341115D02*
X0772149Y0341115D01*
X0773343Y0341901D02*
X0765701Y0341901D01*
X0765376Y0342687D02*
X0772462Y0342687D01*
X0771714Y0343473D02*
X0764781Y0343473D01*
X0763995Y0344259D02*
X0771389Y0344259D01*
X0771063Y0345045D02*
X0763209Y0345045D01*
X0761665Y0345831D02*
X0770962Y0345831D01*
X0770962Y0346617D02*
X0605322Y0346617D01*
X0605322Y0346798D02*
X0604946Y0347706D01*
X0604251Y0348401D01*
X0603343Y0348777D01*
X0602361Y0348777D01*
X0601453Y0348401D01*
X0600758Y0347706D01*
X0600382Y0346798D01*
X0600382Y0345816D01*
X0600758Y0344908D01*
X0601453Y0344213D01*
X0602361Y0343837D01*
X0603343Y0343837D01*
X0604251Y0344213D01*
X0604946Y0344908D01*
X0605322Y0345816D01*
X0605322Y0346798D01*
X0605072Y0347403D02*
X0770994Y0347403D01*
X0771320Y0348188D02*
X0604464Y0348188D01*
X0605322Y0345831D02*
X0707818Y0345831D01*
X0707637Y0345756D02*
X0706514Y0344632D01*
X0705906Y0343164D01*
X0705906Y0341576D01*
X0706514Y0340108D01*
X0707637Y0338984D01*
X0709105Y0338376D01*
X0710694Y0338376D01*
X0712162Y0338984D01*
X0713285Y0340108D01*
X0713893Y0341576D01*
X0713893Y0343164D01*
X0713285Y0344632D01*
X0712162Y0345756D01*
X0710694Y0346364D01*
X0709105Y0346364D01*
X0707637Y0345756D01*
X0706926Y0345045D02*
X0605003Y0345045D01*
X0604297Y0344259D02*
X0706359Y0344259D01*
X0706033Y0343473D02*
X0549652Y0343473D01*
X0548866Y0342687D02*
X0613726Y0342687D01*
X0614172Y0342872D02*
X0613264Y0342496D01*
X0612569Y0341801D01*
X0612193Y0340893D01*
X0612193Y0339910D01*
X0612569Y0339002D01*
X0613264Y0338308D01*
X0614172Y0337931D01*
X0615154Y0337931D01*
X0616062Y0338308D01*
X0616757Y0339002D01*
X0617133Y0339910D01*
X0617133Y0340893D01*
X0616757Y0341801D01*
X0616062Y0342496D01*
X0615154Y0342872D01*
X0614172Y0342872D01*
X0615600Y0342687D02*
X0705906Y0342687D01*
X0705906Y0341901D02*
X0616657Y0341901D01*
X0617041Y0341115D02*
X0706096Y0341115D01*
X0706422Y0340329D02*
X0617133Y0340329D01*
X0616981Y0339543D02*
X0707078Y0339543D01*
X0708185Y0338757D02*
X0616512Y0338757D01*
X0615251Y0337972D02*
X0750252Y0337972D01*
X0750252Y0338757D02*
X0741614Y0338757D01*
X0742162Y0338984D02*
X0743285Y0340108D01*
X0743893Y0341576D01*
X0743893Y0343164D01*
X0743285Y0344632D01*
X0742162Y0345756D01*
X0740694Y0346364D01*
X0739105Y0346364D01*
X0737637Y0345756D01*
X0736514Y0344632D01*
X0735906Y0343164D01*
X0735906Y0341576D01*
X0736514Y0340108D01*
X0737637Y0338984D01*
X0739105Y0338376D01*
X0740694Y0338376D01*
X0742162Y0338984D01*
X0742721Y0339543D02*
X0750252Y0339543D01*
X0750375Y0340329D02*
X0743377Y0340329D01*
X0743702Y0341115D02*
X0750701Y0341115D01*
X0751026Y0341901D02*
X0743893Y0341901D01*
X0743893Y0342687D02*
X0751352Y0342687D01*
X0751947Y0343473D02*
X0743765Y0343473D01*
X0743440Y0344259D02*
X0752733Y0344259D01*
X0753519Y0345045D02*
X0742872Y0345045D01*
X0741981Y0345831D02*
X0755062Y0345831D01*
X0771645Y0348974D02*
X0555154Y0348974D01*
X0555939Y0349760D02*
X0772295Y0349760D01*
X0773081Y0350546D02*
X0556725Y0350546D01*
X0557511Y0351332D02*
X0774838Y0351332D01*
X0777323Y0351332D02*
X0813547Y0351332D01*
X0814333Y0350546D02*
X0779079Y0350546D01*
X0779865Y0349760D02*
X0815119Y0349760D01*
X0815905Y0348974D02*
X0780515Y0348974D01*
X0780841Y0348188D02*
X0816691Y0348188D01*
X0817477Y0347403D02*
X0781166Y0347403D01*
X0781198Y0346617D02*
X0818263Y0346617D01*
X0819048Y0345831D02*
X0797098Y0345831D01*
X0798392Y0345295D02*
X0795410Y0346530D01*
X0792183Y0346530D01*
X0789202Y0345295D01*
X0786920Y0343013D01*
X0785685Y0340032D01*
X0785685Y0336805D01*
X0786920Y0333823D01*
X0789202Y0331541D01*
X0792183Y0330306D01*
X0795410Y0330306D01*
X0798392Y0331541D01*
X0800674Y0333823D01*
X0801909Y0336805D01*
X0801909Y0340032D01*
X0800674Y0343013D01*
X0798392Y0345295D01*
X0798642Y0345045D02*
X0819834Y0345045D01*
X0820620Y0344259D02*
X0799428Y0344259D01*
X0800214Y0343473D02*
X0821406Y0343473D01*
X0822192Y0342687D02*
X0800809Y0342687D01*
X0801134Y0341901D02*
X0822978Y0341901D01*
X0823764Y0341115D02*
X0801460Y0341115D01*
X0801785Y0340329D02*
X0824550Y0340329D01*
X0825336Y0339543D02*
X0801909Y0339543D01*
X0801909Y0338757D02*
X0826122Y0338757D01*
X0826908Y0337972D02*
X0801909Y0337972D01*
X0801909Y0337186D02*
X0827693Y0337186D01*
X0828479Y0336400D02*
X0801741Y0336400D01*
X0801415Y0335614D02*
X0829265Y0335614D01*
X0830051Y0334828D02*
X0801090Y0334828D01*
X0800764Y0334042D02*
X0830837Y0334042D01*
X0831623Y0333256D02*
X0800107Y0333256D01*
X0799321Y0332470D02*
X0832409Y0332470D01*
X0833195Y0331684D02*
X0798535Y0331684D01*
X0796840Y0330898D02*
X0833981Y0330898D01*
X0834767Y0330112D02*
X0782473Y0330112D01*
X0782838Y0330898D02*
X0790754Y0330898D01*
X0789059Y0331684D02*
X0783163Y0331684D01*
X0783489Y0332470D02*
X0788273Y0332470D01*
X0787487Y0333256D02*
X0783700Y0333256D01*
X0783700Y0334042D02*
X0786829Y0334042D01*
X0786504Y0334828D02*
X0783700Y0334828D01*
X0783700Y0335614D02*
X0786178Y0335614D01*
X0785853Y0336400D02*
X0783539Y0336400D01*
X0783214Y0337186D02*
X0785685Y0337186D01*
X0785685Y0337972D02*
X0782888Y0337972D01*
X0782563Y0338757D02*
X0785685Y0338757D01*
X0785685Y0339543D02*
X0781809Y0339543D01*
X0781023Y0340329D02*
X0785808Y0340329D01*
X0786134Y0341115D02*
X0780011Y0341115D01*
X0778818Y0341901D02*
X0786459Y0341901D01*
X0786785Y0342687D02*
X0779698Y0342687D01*
X0780446Y0343473D02*
X0787380Y0343473D01*
X0788166Y0344259D02*
X0780772Y0344259D01*
X0781097Y0345045D02*
X0788952Y0345045D01*
X0790495Y0345831D02*
X0781198Y0345831D01*
X0808832Y0356048D02*
X0562227Y0356048D01*
X0561441Y0355262D02*
X0809617Y0355262D01*
X0810403Y0354476D02*
X0560655Y0354476D01*
X0559869Y0353690D02*
X0811189Y0353690D01*
X0811975Y0352904D02*
X0559083Y0352904D01*
X0558297Y0352118D02*
X0812761Y0352118D01*
X0755321Y0330898D02*
X0537078Y0330898D01*
X0537863Y0331684D02*
X0753626Y0331684D01*
X0752840Y0332470D02*
X0538649Y0332470D01*
X0539435Y0333256D02*
X0563381Y0333256D01*
X0563067Y0333386D02*
X0563975Y0333010D01*
X0564958Y0333010D01*
X0565865Y0333386D01*
X0566560Y0334081D01*
X0566936Y0334989D01*
X0566936Y0335972D01*
X0566560Y0336879D01*
X0565865Y0337574D01*
X0564958Y0337950D01*
X0563975Y0337950D01*
X0563067Y0337574D01*
X0562372Y0336879D01*
X0561996Y0335972D01*
X0561996Y0334989D01*
X0562372Y0334081D01*
X0563067Y0333386D01*
X0562411Y0334042D02*
X0540221Y0334042D01*
X0541007Y0334828D02*
X0562063Y0334828D01*
X0561996Y0335614D02*
X0541793Y0335614D01*
X0542579Y0336400D02*
X0562173Y0336400D01*
X0562678Y0337186D02*
X0543365Y0337186D01*
X0544151Y0337972D02*
X0614075Y0337972D01*
X0612814Y0338757D02*
X0544937Y0338757D01*
X0545723Y0339543D02*
X0612345Y0339543D01*
X0612193Y0340329D02*
X0546509Y0340329D01*
X0547294Y0341115D02*
X0612285Y0341115D01*
X0612669Y0341901D02*
X0548080Y0341901D01*
X0550438Y0344259D02*
X0601407Y0344259D01*
X0600701Y0345045D02*
X0551224Y0345045D01*
X0552010Y0345831D02*
X0600382Y0345831D01*
X0600382Y0346617D02*
X0552796Y0346617D01*
X0553582Y0347403D02*
X0600632Y0347403D01*
X0601240Y0348188D02*
X0554368Y0348188D01*
X0566254Y0337186D02*
X0590237Y0337186D01*
X0589931Y0336879D02*
X0589555Y0335972D01*
X0589555Y0334989D01*
X0589931Y0334081D01*
X0590626Y0333386D01*
X0591534Y0333010D01*
X0592517Y0333010D01*
X0593424Y0333386D01*
X0594119Y0334081D01*
X0594495Y0334989D01*
X0594495Y0335972D01*
X0594119Y0336879D01*
X0593424Y0337574D01*
X0592517Y0337950D01*
X0591534Y0337950D01*
X0590626Y0337574D01*
X0589931Y0336879D01*
X0589733Y0336400D02*
X0566759Y0336400D01*
X0566936Y0335614D02*
X0589555Y0335614D01*
X0589622Y0334828D02*
X0566870Y0334828D01*
X0566521Y0334042D02*
X0589970Y0334042D01*
X0590940Y0333256D02*
X0565551Y0333256D01*
X0560339Y0320773D02*
X0558751Y0320773D01*
X0557283Y0320165D01*
X0556159Y0319042D01*
X0555551Y0317574D01*
X0555551Y0315985D01*
X0556159Y0314517D01*
X0557283Y0313394D01*
X0558751Y0312786D01*
X0560339Y0312786D01*
X0561807Y0313394D01*
X0562931Y0314517D01*
X0563539Y0315985D01*
X0563539Y0317574D01*
X0562931Y0319042D01*
X0561807Y0320165D01*
X0560339Y0320773D01*
X0560561Y0320681D02*
X0578529Y0320681D01*
X0578751Y0320773D02*
X0577283Y0320165D01*
X0576159Y0319042D01*
X0575551Y0317574D01*
X0575551Y0315985D01*
X0576159Y0314517D01*
X0577283Y0313394D01*
X0578751Y0312786D01*
X0580339Y0312786D01*
X0581807Y0313394D01*
X0582931Y0314517D01*
X0583539Y0315985D01*
X0583539Y0317574D01*
X0582931Y0319042D01*
X0581807Y0320165D01*
X0580339Y0320773D01*
X0578751Y0320773D01*
X0580561Y0320681D02*
X0588529Y0320681D01*
X0588751Y0320773D02*
X0587283Y0320165D01*
X0586159Y0319042D01*
X0585551Y0317574D01*
X0585551Y0315985D01*
X0586159Y0314517D01*
X0587283Y0313394D01*
X0588751Y0312786D01*
X0590339Y0312786D01*
X0591807Y0313394D01*
X0592931Y0314517D01*
X0593539Y0315985D01*
X0593539Y0317574D01*
X0592931Y0319042D01*
X0591807Y0320165D01*
X0590339Y0320773D01*
X0588751Y0320773D01*
X0590561Y0320681D02*
X0598529Y0320681D01*
X0598751Y0320773D02*
X0597283Y0320165D01*
X0596159Y0319042D01*
X0595551Y0317574D01*
X0595551Y0315985D01*
X0596159Y0314517D01*
X0597283Y0313394D01*
X0598751Y0312786D01*
X0600339Y0312786D01*
X0601807Y0313394D01*
X0602931Y0314517D01*
X0603539Y0315985D01*
X0603539Y0317574D01*
X0602931Y0319042D01*
X0601807Y0320165D01*
X0600339Y0320773D01*
X0598751Y0320773D01*
X0600561Y0320681D02*
X0608529Y0320681D01*
X0608751Y0320773D02*
X0607283Y0320165D01*
X0606159Y0319042D01*
X0605551Y0317574D01*
X0605551Y0315985D01*
X0606159Y0314517D01*
X0607283Y0313394D01*
X0608751Y0312786D01*
X0610339Y0312786D01*
X0611807Y0313394D01*
X0612931Y0314517D01*
X0613539Y0315985D01*
X0613539Y0317574D01*
X0612931Y0319042D01*
X0611807Y0320165D01*
X0610339Y0320773D01*
X0608751Y0320773D01*
X0610561Y0320681D02*
X0618529Y0320681D01*
X0618751Y0320773D02*
X0617283Y0320165D01*
X0616159Y0319042D01*
X0615551Y0317574D01*
X0615551Y0315985D01*
X0616159Y0314517D01*
X0617283Y0313394D01*
X0618751Y0312786D01*
X0620339Y0312786D01*
X0621807Y0313394D01*
X0622931Y0314517D01*
X0623539Y0315985D01*
X0623539Y0317574D01*
X0622931Y0319042D01*
X0621807Y0320165D01*
X0620339Y0320773D01*
X0618751Y0320773D01*
X0620561Y0320681D02*
X0628529Y0320681D01*
X0628751Y0320773D02*
X0627283Y0320165D01*
X0626159Y0319042D01*
X0625551Y0317574D01*
X0625551Y0315985D01*
X0626159Y0314517D01*
X0627283Y0313394D01*
X0628751Y0312786D01*
X0630339Y0312786D01*
X0631807Y0313394D01*
X0632931Y0314517D01*
X0633539Y0315985D01*
X0633539Y0317574D01*
X0632931Y0319042D01*
X0631807Y0320165D01*
X0630339Y0320773D01*
X0628751Y0320773D01*
X0630561Y0320681D02*
X0638529Y0320681D01*
X0638751Y0320773D02*
X0637283Y0320165D01*
X0636159Y0319042D01*
X0635551Y0317574D01*
X0635551Y0315985D01*
X0636159Y0314517D01*
X0637283Y0313394D01*
X0638751Y0312786D01*
X0640339Y0312786D01*
X0641807Y0313394D01*
X0642931Y0314517D01*
X0643539Y0315985D01*
X0643539Y0317574D01*
X0642931Y0319042D01*
X0641807Y0320165D01*
X0640339Y0320773D01*
X0638751Y0320773D01*
X0640561Y0320681D02*
X0648529Y0320681D01*
X0648751Y0320773D02*
X0647283Y0320165D01*
X0646159Y0319042D01*
X0645551Y0317574D01*
X0645551Y0315985D01*
X0646159Y0314517D01*
X0647283Y0313394D01*
X0648751Y0312786D01*
X0650339Y0312786D01*
X0651807Y0313394D01*
X0652931Y0314517D01*
X0653539Y0315985D01*
X0653539Y0317574D01*
X0652931Y0319042D01*
X0651807Y0320165D01*
X0650339Y0320773D01*
X0648751Y0320773D01*
X0650561Y0320681D02*
X0658529Y0320681D01*
X0658751Y0320773D02*
X0657283Y0320165D01*
X0656159Y0319042D01*
X0655551Y0317574D01*
X0655551Y0315985D01*
X0656159Y0314517D01*
X0657283Y0313394D01*
X0658751Y0312786D01*
X0660339Y0312786D01*
X0661807Y0313394D01*
X0662931Y0314517D01*
X0663539Y0315985D01*
X0663539Y0317574D01*
X0662931Y0319042D01*
X0661807Y0320165D01*
X0660339Y0320773D01*
X0658751Y0320773D01*
X0660561Y0320681D02*
X0668529Y0320681D01*
X0668751Y0320773D02*
X0667283Y0320165D01*
X0666159Y0319042D01*
X0665551Y0317574D01*
X0665551Y0315985D01*
X0666159Y0314517D01*
X0667283Y0313394D01*
X0668751Y0312786D01*
X0670339Y0312786D01*
X0671807Y0313394D01*
X0672931Y0314517D01*
X0673539Y0315985D01*
X0673539Y0317574D01*
X0672931Y0319042D01*
X0671807Y0320165D01*
X0670339Y0320773D01*
X0668751Y0320773D01*
X0670561Y0320681D02*
X0678529Y0320681D01*
X0678751Y0320773D02*
X0677283Y0320165D01*
X0676159Y0319042D01*
X0675551Y0317574D01*
X0675551Y0315985D01*
X0676159Y0314517D01*
X0677283Y0313394D01*
X0678751Y0312786D01*
X0680339Y0312786D01*
X0681807Y0313394D01*
X0682931Y0314517D01*
X0683539Y0315985D01*
X0683539Y0317574D01*
X0682931Y0319042D01*
X0681807Y0320165D01*
X0680339Y0320773D01*
X0678751Y0320773D01*
X0680561Y0320681D02*
X0688529Y0320681D01*
X0688751Y0320773D02*
X0687283Y0320165D01*
X0686159Y0319042D01*
X0685551Y0317574D01*
X0685551Y0315985D01*
X0686159Y0314517D01*
X0687283Y0313394D01*
X0688751Y0312786D01*
X0690339Y0312786D01*
X0691807Y0313394D01*
X0692931Y0314517D01*
X0693539Y0315985D01*
X0693539Y0317574D01*
X0692931Y0319042D01*
X0691807Y0320165D01*
X0690339Y0320773D01*
X0688751Y0320773D01*
X0690561Y0320681D02*
X0708529Y0320681D01*
X0708751Y0320773D02*
X0707283Y0320165D01*
X0706159Y0319042D01*
X0705551Y0317574D01*
X0705551Y0315985D01*
X0706159Y0314517D01*
X0707283Y0313394D01*
X0708751Y0312786D01*
X0710339Y0312786D01*
X0711807Y0313394D01*
X0712931Y0314517D01*
X0713539Y0315985D01*
X0713539Y0317574D01*
X0712931Y0319042D01*
X0711807Y0320165D01*
X0710339Y0320773D01*
X0708751Y0320773D01*
X0710561Y0320681D02*
X0826687Y0320681D01*
X0826361Y0319896D02*
X0778070Y0319896D01*
X0779967Y0319110D02*
X0826036Y0319110D01*
X0825710Y0318324D02*
X0781494Y0318324D01*
X0782280Y0317538D02*
X0825687Y0317538D01*
X0825687Y0316752D02*
X0783066Y0316752D01*
X0783817Y0315966D02*
X0825687Y0315966D01*
X0825733Y0315180D02*
X0784142Y0315180D01*
X0784468Y0314394D02*
X0826058Y0314394D01*
X0826384Y0313608D02*
X0784793Y0313608D01*
X0785119Y0312822D02*
X0826709Y0312822D01*
X0827331Y0312036D02*
X0785176Y0312036D01*
X0785176Y0311251D02*
X0828117Y0311251D01*
X0828903Y0310465D02*
X0785176Y0310465D01*
X0785176Y0309679D02*
X0830763Y0309679D01*
X0864631Y0300248D02*
X0506427Y0300248D01*
X0505641Y0299462D02*
X0865417Y0299462D01*
X0866203Y0298676D02*
X0504855Y0298676D01*
X0504069Y0297890D02*
X0866989Y0297890D01*
X0840268Y0324611D02*
X0530790Y0324611D01*
X0530004Y0323825D02*
X0535354Y0323825D01*
X0536403Y0324260D02*
X0533654Y0323121D01*
X0531550Y0321017D01*
X0530411Y0318267D01*
X0530411Y0315292D01*
X0531550Y0312542D01*
X0533654Y0310438D01*
X0536403Y0309299D01*
X0539379Y0309299D01*
X0542129Y0310438D01*
X0544233Y0312542D01*
X0545372Y0315292D01*
X0545372Y0318267D01*
X0544233Y0321017D01*
X0542129Y0323121D01*
X0539379Y0324260D01*
X0536403Y0324260D01*
X0533572Y0323039D02*
X0529218Y0323039D01*
X0528433Y0322253D02*
X0532786Y0322253D01*
X0532001Y0321467D02*
X0527647Y0321467D01*
X0526861Y0320681D02*
X0531411Y0320681D01*
X0531085Y0319896D02*
X0526075Y0319896D01*
X0525289Y0319110D02*
X0530760Y0319110D01*
X0530434Y0318324D02*
X0524503Y0318324D01*
X0523717Y0317538D02*
X0530411Y0317538D01*
X0530411Y0316752D02*
X0522931Y0316752D01*
X0522145Y0315966D02*
X0530411Y0315966D01*
X0530457Y0315180D02*
X0521359Y0315180D01*
X0520573Y0314394D02*
X0530783Y0314394D01*
X0531108Y0313608D02*
X0519787Y0313608D01*
X0519002Y0312822D02*
X0531434Y0312822D01*
X0532056Y0312036D02*
X0518216Y0312036D01*
X0517430Y0311251D02*
X0532842Y0311251D01*
X0533628Y0310465D02*
X0516644Y0310465D01*
X0515858Y0309679D02*
X0535487Y0309679D01*
X0540296Y0309679D02*
X0766984Y0309679D01*
X0766984Y0310465D02*
X0542155Y0310465D01*
X0542941Y0311251D02*
X0766984Y0311251D01*
X0766984Y0312036D02*
X0543727Y0312036D01*
X0544349Y0312822D02*
X0558662Y0312822D01*
X0560428Y0312822D02*
X0578662Y0312822D01*
X0580428Y0312822D02*
X0588662Y0312822D01*
X0590428Y0312822D02*
X0598662Y0312822D01*
X0600428Y0312822D02*
X0608662Y0312822D01*
X0610428Y0312822D02*
X0618662Y0312822D01*
X0620428Y0312822D02*
X0628662Y0312822D01*
X0630428Y0312822D02*
X0638662Y0312822D01*
X0640428Y0312822D02*
X0648662Y0312822D01*
X0650428Y0312822D02*
X0658662Y0312822D01*
X0660428Y0312822D02*
X0668662Y0312822D01*
X0670428Y0312822D02*
X0678662Y0312822D01*
X0680428Y0312822D02*
X0688662Y0312822D01*
X0690428Y0312822D02*
X0708662Y0312822D01*
X0710428Y0312822D02*
X0767042Y0312822D01*
X0767367Y0313608D02*
X0712022Y0313608D01*
X0712808Y0314394D02*
X0767693Y0314394D01*
X0768019Y0315180D02*
X0713205Y0315180D01*
X0713531Y0315966D02*
X0768344Y0315966D01*
X0769095Y0316752D02*
X0713539Y0316752D01*
X0713539Y0317538D02*
X0769880Y0317538D01*
X0770666Y0318324D02*
X0713228Y0318324D01*
X0712863Y0319110D02*
X0772194Y0319110D01*
X0774091Y0319896D02*
X0712077Y0319896D01*
X0707013Y0319896D02*
X0692077Y0319896D01*
X0692863Y0319110D02*
X0706227Y0319110D01*
X0705862Y0318324D02*
X0693228Y0318324D01*
X0693539Y0317538D02*
X0705551Y0317538D01*
X0705551Y0316752D02*
X0693539Y0316752D01*
X0693531Y0315966D02*
X0705559Y0315966D01*
X0705885Y0315180D02*
X0693205Y0315180D01*
X0692808Y0314394D02*
X0706282Y0314394D01*
X0707068Y0313608D02*
X0692022Y0313608D01*
X0687068Y0313608D02*
X0682022Y0313608D01*
X0682808Y0314394D02*
X0686282Y0314394D01*
X0685885Y0315180D02*
X0683205Y0315180D01*
X0683531Y0315966D02*
X0685559Y0315966D01*
X0685551Y0316752D02*
X0683539Y0316752D01*
X0683539Y0317538D02*
X0685551Y0317538D01*
X0685862Y0318324D02*
X0683228Y0318324D01*
X0682863Y0319110D02*
X0686227Y0319110D01*
X0687013Y0319896D02*
X0682077Y0319896D01*
X0677013Y0319896D02*
X0672077Y0319896D01*
X0672863Y0319110D02*
X0676227Y0319110D01*
X0675862Y0318324D02*
X0673228Y0318324D01*
X0673539Y0317538D02*
X0675551Y0317538D01*
X0675551Y0316752D02*
X0673539Y0316752D01*
X0673531Y0315966D02*
X0675559Y0315966D01*
X0675885Y0315180D02*
X0673205Y0315180D01*
X0672808Y0314394D02*
X0676282Y0314394D01*
X0677068Y0313608D02*
X0672022Y0313608D01*
X0667068Y0313608D02*
X0662022Y0313608D01*
X0662808Y0314394D02*
X0666282Y0314394D01*
X0665885Y0315180D02*
X0663205Y0315180D01*
X0663531Y0315966D02*
X0665559Y0315966D01*
X0665551Y0316752D02*
X0663539Y0316752D01*
X0663539Y0317538D02*
X0665551Y0317538D01*
X0665862Y0318324D02*
X0663228Y0318324D01*
X0662863Y0319110D02*
X0666227Y0319110D01*
X0667013Y0319896D02*
X0662077Y0319896D01*
X0657013Y0319896D02*
X0652077Y0319896D01*
X0652863Y0319110D02*
X0656227Y0319110D01*
X0655862Y0318324D02*
X0653228Y0318324D01*
X0653539Y0317538D02*
X0655551Y0317538D01*
X0655551Y0316752D02*
X0653539Y0316752D01*
X0653531Y0315966D02*
X0655559Y0315966D01*
X0655885Y0315180D02*
X0653205Y0315180D01*
X0652808Y0314394D02*
X0656282Y0314394D01*
X0657068Y0313608D02*
X0652022Y0313608D01*
X0647068Y0313608D02*
X0642022Y0313608D01*
X0642808Y0314394D02*
X0646282Y0314394D01*
X0645885Y0315180D02*
X0643205Y0315180D01*
X0643531Y0315966D02*
X0645559Y0315966D01*
X0645551Y0316752D02*
X0643539Y0316752D01*
X0643539Y0317538D02*
X0645551Y0317538D01*
X0645862Y0318324D02*
X0643228Y0318324D01*
X0642863Y0319110D02*
X0646227Y0319110D01*
X0647013Y0319896D02*
X0642077Y0319896D01*
X0637013Y0319896D02*
X0632077Y0319896D01*
X0632863Y0319110D02*
X0636227Y0319110D01*
X0635862Y0318324D02*
X0633228Y0318324D01*
X0633539Y0317538D02*
X0635551Y0317538D01*
X0635551Y0316752D02*
X0633539Y0316752D01*
X0633531Y0315966D02*
X0635559Y0315966D01*
X0635885Y0315180D02*
X0633205Y0315180D01*
X0632808Y0314394D02*
X0636282Y0314394D01*
X0637068Y0313608D02*
X0632022Y0313608D01*
X0627068Y0313608D02*
X0622022Y0313608D01*
X0622808Y0314394D02*
X0626282Y0314394D01*
X0625885Y0315180D02*
X0623205Y0315180D01*
X0623531Y0315966D02*
X0625559Y0315966D01*
X0625551Y0316752D02*
X0623539Y0316752D01*
X0623539Y0317538D02*
X0625551Y0317538D01*
X0625862Y0318324D02*
X0623228Y0318324D01*
X0622863Y0319110D02*
X0626227Y0319110D01*
X0627013Y0319896D02*
X0622077Y0319896D01*
X0617013Y0319896D02*
X0612077Y0319896D01*
X0612863Y0319110D02*
X0616227Y0319110D01*
X0615862Y0318324D02*
X0613228Y0318324D01*
X0613539Y0317538D02*
X0615551Y0317538D01*
X0615551Y0316752D02*
X0613539Y0316752D01*
X0613531Y0315966D02*
X0615559Y0315966D01*
X0615885Y0315180D02*
X0613205Y0315180D01*
X0612808Y0314394D02*
X0616282Y0314394D01*
X0617068Y0313608D02*
X0612022Y0313608D01*
X0607068Y0313608D02*
X0602022Y0313608D01*
X0602808Y0314394D02*
X0606282Y0314394D01*
X0605885Y0315180D02*
X0603205Y0315180D01*
X0603531Y0315966D02*
X0605559Y0315966D01*
X0605551Y0316752D02*
X0603539Y0316752D01*
X0603539Y0317538D02*
X0605551Y0317538D01*
X0605862Y0318324D02*
X0603228Y0318324D01*
X0602863Y0319110D02*
X0606227Y0319110D01*
X0607013Y0319896D02*
X0602077Y0319896D01*
X0597013Y0319896D02*
X0592077Y0319896D01*
X0592863Y0319110D02*
X0596227Y0319110D01*
X0595862Y0318324D02*
X0593228Y0318324D01*
X0593539Y0317538D02*
X0595551Y0317538D01*
X0595551Y0316752D02*
X0593539Y0316752D01*
X0593531Y0315966D02*
X0595559Y0315966D01*
X0595885Y0315180D02*
X0593205Y0315180D01*
X0592808Y0314394D02*
X0596282Y0314394D01*
X0597068Y0313608D02*
X0592022Y0313608D01*
X0587068Y0313608D02*
X0582022Y0313608D01*
X0582808Y0314394D02*
X0586282Y0314394D01*
X0585885Y0315180D02*
X0583205Y0315180D01*
X0583531Y0315966D02*
X0585559Y0315966D01*
X0585551Y0316752D02*
X0583539Y0316752D01*
X0583539Y0317538D02*
X0585551Y0317538D01*
X0585862Y0318324D02*
X0583228Y0318324D01*
X0582863Y0319110D02*
X0586227Y0319110D01*
X0587013Y0319896D02*
X0582077Y0319896D01*
X0577013Y0319896D02*
X0562077Y0319896D01*
X0562863Y0319110D02*
X0576227Y0319110D01*
X0575862Y0318324D02*
X0563228Y0318324D01*
X0563539Y0317538D02*
X0575551Y0317538D01*
X0575551Y0316752D02*
X0563539Y0316752D01*
X0563531Y0315966D02*
X0575559Y0315966D01*
X0575885Y0315180D02*
X0563205Y0315180D01*
X0562808Y0314394D02*
X0576282Y0314394D01*
X0577068Y0313608D02*
X0562022Y0313608D01*
X0557068Y0313608D02*
X0544674Y0313608D01*
X0545000Y0314394D02*
X0556282Y0314394D01*
X0555885Y0315180D02*
X0545326Y0315180D01*
X0545372Y0315966D02*
X0555559Y0315966D01*
X0555551Y0316752D02*
X0545372Y0316752D01*
X0545372Y0317538D02*
X0555551Y0317538D01*
X0555862Y0318324D02*
X0545348Y0318324D01*
X0545023Y0319110D02*
X0556227Y0319110D01*
X0557013Y0319896D02*
X0544697Y0319896D01*
X0544372Y0320681D02*
X0558529Y0320681D01*
X0543782Y0321467D02*
X0827276Y0321467D01*
X0828062Y0322253D02*
X0542996Y0322253D01*
X0542210Y0323039D02*
X0828848Y0323039D01*
X0830630Y0323825D02*
X0540429Y0323825D01*
X0531576Y0325397D02*
X0839482Y0325397D01*
X0837910Y0326969D02*
X0777819Y0326969D01*
X0779717Y0327755D02*
X0837124Y0327755D01*
X0836339Y0328541D02*
X0780901Y0328541D01*
X0781687Y0329327D02*
X0835553Y0329327D01*
X0769913Y0304177D02*
X0510357Y0304177D01*
X0511142Y0304963D02*
X0769127Y0304963D01*
X0768358Y0305749D02*
X0511928Y0305749D01*
X0512714Y0306535D02*
X0768032Y0306535D01*
X0767707Y0307321D02*
X0513500Y0307321D01*
X0514286Y0308107D02*
X0767381Y0308107D01*
X0767055Y0308893D02*
X0515072Y0308893D01*
X0500490Y0282958D02*
X0664159Y0282958D01*
X0663768Y0282172D02*
X0500490Y0282172D01*
X0500490Y0281386D02*
X0663768Y0281386D01*
X0663768Y0280600D02*
X0500490Y0280600D01*
X0500490Y0279814D02*
X0663768Y0279814D01*
X0663768Y0279028D02*
X0500490Y0279028D01*
X0500490Y0278242D02*
X0663768Y0278242D01*
X0663768Y0277456D02*
X0500490Y0277456D01*
X0500490Y0276670D02*
X0663768Y0276670D01*
X0663768Y0275884D02*
X0500490Y0275884D01*
X0500490Y0275099D02*
X0663768Y0275099D01*
X0663768Y0274313D02*
X0500490Y0274313D01*
X0500490Y0273527D02*
X0663768Y0273527D01*
X0663768Y0272741D02*
X0500490Y0272741D01*
X0500490Y0271955D02*
X0663768Y0271955D01*
X0663768Y0271169D02*
X0500490Y0271169D01*
X0500490Y0270383D02*
X0663768Y0270383D01*
X0663768Y0269597D02*
X0500490Y0269597D01*
X0500490Y0268811D02*
X0663768Y0268811D01*
X0663768Y0268025D02*
X0500490Y0268025D01*
X0500490Y0267239D02*
X0663768Y0267239D01*
X0663768Y0266454D02*
X0500490Y0266454D01*
X0500490Y0265668D02*
X0663768Y0265668D01*
X0663768Y0264882D02*
X0500490Y0264882D01*
X0500490Y0264096D02*
X0663768Y0264096D01*
X0663768Y0263310D02*
X0500490Y0263310D01*
X0500490Y0262524D02*
X0663768Y0262524D01*
X0663768Y0261738D02*
X0500490Y0261738D01*
X0500490Y0260952D02*
X0663768Y0260952D01*
X0663768Y0260166D02*
X0500490Y0260166D01*
X0500490Y0259380D02*
X0663768Y0259380D01*
X0663768Y0258594D02*
X0500490Y0258594D01*
X0500490Y0257808D02*
X0663768Y0257808D01*
X0663768Y0257023D02*
X0500490Y0257023D01*
X0500490Y0256237D02*
X0663768Y0256237D01*
X0663768Y0255451D02*
X0500490Y0255451D01*
X0500490Y0254665D02*
X0512510Y0254665D01*
X0512007Y0254457D02*
X0510884Y0253333D01*
X0510276Y0251865D01*
X0510276Y0250276D01*
X0510884Y0248809D01*
X0512007Y0247685D01*
X0513475Y0247077D01*
X0515064Y0247077D01*
X0516532Y0247685D01*
X0517655Y0248809D01*
X0518263Y0250276D01*
X0518263Y0251865D01*
X0517655Y0253333D01*
X0516532Y0254457D01*
X0515064Y0255065D01*
X0513475Y0255065D01*
X0512007Y0254457D01*
X0511429Y0253879D02*
X0500490Y0253879D01*
X0500490Y0253093D02*
X0510784Y0253093D01*
X0510459Y0252307D02*
X0500490Y0252307D01*
X0500490Y0251521D02*
X0510276Y0251521D01*
X0510276Y0250735D02*
X0500490Y0250735D01*
X0500490Y0249949D02*
X0510411Y0249949D01*
X0510737Y0249163D02*
X0500490Y0249163D01*
X0500490Y0248378D02*
X0511315Y0248378D01*
X0512233Y0247592D02*
X0500490Y0247592D01*
X0500490Y0246806D02*
X0663768Y0246806D01*
X0663768Y0247592D02*
X0516306Y0247592D01*
X0517224Y0248378D02*
X0663768Y0248378D01*
X0663768Y0249163D02*
X0517802Y0249163D01*
X0518128Y0249949D02*
X0663768Y0249949D01*
X0663768Y0250735D02*
X0518263Y0250735D01*
X0518263Y0251521D02*
X0663768Y0251521D01*
X0663768Y0252307D02*
X0518080Y0252307D01*
X0517755Y0253093D02*
X0663768Y0253093D01*
X0663768Y0253879D02*
X0517109Y0253879D01*
X0516029Y0254665D02*
X0663768Y0254665D01*
X0663768Y0246020D02*
X0500490Y0246020D01*
X0500490Y0245234D02*
X0663768Y0245234D01*
X0663768Y0244448D02*
X0516540Y0244448D01*
X0516532Y0244457D02*
X0515064Y0245065D01*
X0513475Y0245065D01*
X0512007Y0244457D01*
X0510884Y0243333D01*
X0510276Y0241865D01*
X0510276Y0240276D01*
X0510884Y0238809D01*
X0512007Y0237685D01*
X0513475Y0237077D01*
X0515064Y0237077D01*
X0516532Y0237685D01*
X0517655Y0238809D01*
X0518263Y0240276D01*
X0518263Y0241865D01*
X0517655Y0243333D01*
X0516532Y0244457D01*
X0517326Y0243662D02*
X0663768Y0243662D01*
X0663768Y0242876D02*
X0517844Y0242876D01*
X0518170Y0242090D02*
X0663768Y0242090D01*
X0663768Y0241304D02*
X0518263Y0241304D01*
X0518263Y0240518D02*
X0583781Y0240518D01*
X0583667Y0240471D02*
X0582586Y0239390D01*
X0582000Y0237977D01*
X0582000Y0236448D01*
X0582586Y0235035D01*
X0583667Y0233954D01*
X0585080Y0233369D01*
X0586609Y0233369D01*
X0588021Y0233954D01*
X0589103Y0235035D01*
X0589688Y0236448D01*
X0589688Y0237977D01*
X0589103Y0239390D01*
X0588021Y0240471D01*
X0586609Y0241056D01*
X0585080Y0241056D01*
X0583667Y0240471D01*
X0582928Y0239732D02*
X0518038Y0239732D01*
X0517712Y0238947D02*
X0582402Y0238947D01*
X0582076Y0238161D02*
X0517007Y0238161D01*
X0515782Y0237375D02*
X0582000Y0237375D01*
X0582000Y0236589D02*
X0500490Y0236589D01*
X0500490Y0237375D02*
X0512757Y0237375D01*
X0511532Y0238161D02*
X0500490Y0238161D01*
X0500490Y0238947D02*
X0510827Y0238947D01*
X0510501Y0239732D02*
X0500490Y0239732D01*
X0500490Y0240518D02*
X0510276Y0240518D01*
X0510276Y0241304D02*
X0500490Y0241304D01*
X0500490Y0242090D02*
X0510369Y0242090D01*
X0510694Y0242876D02*
X0500490Y0242876D01*
X0500490Y0243662D02*
X0511213Y0243662D01*
X0511998Y0244448D02*
X0500490Y0244448D01*
X0500490Y0235803D02*
X0582268Y0235803D01*
X0582604Y0235017D02*
X0515179Y0235017D01*
X0515064Y0235065D02*
X0516532Y0234457D01*
X0517655Y0233333D01*
X0518263Y0231865D01*
X0518263Y0230276D01*
X0517655Y0228809D01*
X0516532Y0227685D01*
X0515064Y0227077D01*
X0513475Y0227077D01*
X0512007Y0227685D01*
X0510884Y0228809D01*
X0510276Y0230276D01*
X0510276Y0231865D01*
X0510884Y0233333D01*
X0512007Y0234457D01*
X0513475Y0235065D01*
X0515064Y0235065D01*
X0513360Y0235017D02*
X0500490Y0235017D01*
X0500490Y0234231D02*
X0511782Y0234231D01*
X0510996Y0233445D02*
X0500490Y0233445D01*
X0500490Y0232659D02*
X0510605Y0232659D01*
X0510279Y0231873D02*
X0500490Y0231873D01*
X0500490Y0231087D02*
X0510276Y0231087D01*
X0510276Y0230302D02*
X0500490Y0230302D01*
X0500490Y0229516D02*
X0510591Y0229516D01*
X0510963Y0228730D02*
X0500490Y0228730D01*
X0500490Y0227944D02*
X0511748Y0227944D01*
X0513280Y0227158D02*
X0500490Y0227158D01*
X0500490Y0226372D02*
X0582032Y0226372D01*
X0582000Y0227158D02*
X0515259Y0227158D01*
X0516790Y0227944D02*
X0582000Y0227944D01*
X0582312Y0228730D02*
X0517576Y0228730D01*
X0517948Y0229516D02*
X0582711Y0229516D01*
X0583497Y0230302D02*
X0518263Y0230302D01*
X0518263Y0231087D02*
X0599648Y0231087D01*
X0598998Y0230302D02*
X0588191Y0230302D01*
X0588977Y0229516D02*
X0598998Y0229516D01*
X0598998Y0228730D02*
X0589376Y0228730D01*
X0589688Y0227944D02*
X0599766Y0227944D01*
X0602513Y0231087D02*
X0663768Y0231087D01*
X0663768Y0230302D02*
X0648191Y0230302D01*
X0648021Y0230471D02*
X0646609Y0231056D01*
X0645080Y0231056D01*
X0643667Y0230471D01*
X0642586Y0229390D01*
X0642000Y0227977D01*
X0642000Y0226448D01*
X0642586Y0225035D01*
X0643667Y0223954D01*
X0645080Y0223369D01*
X0646609Y0223369D01*
X0648021Y0223954D01*
X0649103Y0225035D01*
X0649688Y0226448D01*
X0649688Y0227977D01*
X0649103Y0229390D01*
X0648021Y0230471D01*
X0648977Y0229516D02*
X0663768Y0229516D01*
X0663768Y0228730D02*
X0649376Y0228730D01*
X0649688Y0227944D02*
X0663768Y0227944D01*
X0663768Y0227158D02*
X0649688Y0227158D01*
X0649656Y0226372D02*
X0663768Y0226372D01*
X0663768Y0225586D02*
X0649331Y0225586D01*
X0648867Y0224800D02*
X0663768Y0224800D01*
X0663768Y0224014D02*
X0648082Y0224014D01*
X0643607Y0224014D02*
X0628082Y0224014D01*
X0628867Y0224800D02*
X0642821Y0224800D01*
X0642357Y0225586D02*
X0629331Y0225586D01*
X0629656Y0226372D02*
X0642032Y0226372D01*
X0642000Y0227158D02*
X0629688Y0227158D01*
X0629688Y0227944D02*
X0642000Y0227944D01*
X0642312Y0228730D02*
X0629376Y0228730D01*
X0628977Y0229516D02*
X0642711Y0229516D01*
X0643497Y0230302D02*
X0628191Y0230302D01*
X0642268Y0235803D02*
X0589421Y0235803D01*
X0589688Y0236589D02*
X0642000Y0236589D01*
X0642000Y0236448D02*
X0642586Y0235035D01*
X0643667Y0233954D01*
X0645080Y0233369D01*
X0646609Y0233369D01*
X0648021Y0233954D01*
X0649103Y0235035D01*
X0649688Y0236448D01*
X0649688Y0237977D01*
X0649103Y0239390D01*
X0648021Y0240471D01*
X0646609Y0241056D01*
X0645080Y0241056D01*
X0643667Y0240471D01*
X0642586Y0239390D01*
X0642000Y0237977D01*
X0642000Y0236448D01*
X0642000Y0237375D02*
X0589688Y0237375D01*
X0589612Y0238161D02*
X0642076Y0238161D01*
X0642402Y0238947D02*
X0589286Y0238947D01*
X0588760Y0239732D02*
X0642928Y0239732D01*
X0643781Y0240518D02*
X0587907Y0240518D01*
X0589084Y0235017D02*
X0642604Y0235017D01*
X0643390Y0234231D02*
X0588298Y0234231D01*
X0586793Y0233445D02*
X0644895Y0233445D01*
X0646793Y0233445D02*
X0663768Y0233445D01*
X0663768Y0232659D02*
X0517934Y0232659D01*
X0518260Y0231873D02*
X0663768Y0231873D01*
X0663768Y0234231D02*
X0648298Y0234231D01*
X0649084Y0235017D02*
X0663768Y0235017D01*
X0663768Y0235803D02*
X0649421Y0235803D01*
X0649688Y0236589D02*
X0663768Y0236589D01*
X0663768Y0237375D02*
X0649688Y0237375D01*
X0649612Y0238161D02*
X0663768Y0238161D01*
X0663768Y0238947D02*
X0649286Y0238947D01*
X0648760Y0239732D02*
X0663768Y0239732D01*
X0663768Y0240518D02*
X0647907Y0240518D01*
X0663768Y0223228D02*
X0517698Y0223228D01*
X0518024Y0222442D02*
X0663768Y0222442D01*
X0584895Y0233445D02*
X0517543Y0233445D01*
X0516757Y0234231D02*
X0583390Y0234231D01*
X0582357Y0225586D02*
X0500490Y0225586D01*
X0500490Y0224800D02*
X0512837Y0224800D01*
X0511565Y0224014D02*
X0500490Y0224014D01*
X0500490Y0223228D02*
X0510840Y0223228D01*
X0510515Y0222442D02*
X0500490Y0222442D01*
X0500490Y0221656D02*
X0510276Y0221656D01*
X0510276Y0220871D02*
X0500490Y0220871D01*
X0500490Y0220085D02*
X0510355Y0220085D01*
X0510681Y0219299D02*
X0500490Y0219299D01*
X0500490Y0218513D02*
X0511179Y0218513D01*
X0511965Y0217727D02*
X0500490Y0217727D01*
X0500490Y0216941D02*
X0582000Y0216941D01*
X0582122Y0216155D02*
X0500490Y0216155D01*
X0500490Y0215369D02*
X0582447Y0215369D01*
X0583038Y0214583D02*
X0500490Y0214583D01*
X0500490Y0213797D02*
X0584045Y0213797D01*
X0583607Y0224014D02*
X0516974Y0224014D01*
X0515702Y0224800D02*
X0582821Y0224800D01*
X0535911Y0202009D02*
X0500490Y0202009D01*
X0500490Y0201223D02*
X0534014Y0201223D01*
X0533017Y0200437D02*
X0500490Y0200437D01*
X0500490Y0199651D02*
X0532231Y0199651D01*
X0531507Y0198865D02*
X0500490Y0198865D01*
X0500490Y0198079D02*
X0531181Y0198079D01*
X0530856Y0197293D02*
X0500490Y0197293D01*
X0500490Y0196507D02*
X0530530Y0196507D01*
X0530411Y0195721D02*
X0500490Y0195721D01*
X0500490Y0194935D02*
X0530411Y0194935D01*
X0530411Y0194150D02*
X0500490Y0194150D01*
X0500490Y0193364D02*
X0530411Y0193364D01*
X0530687Y0192578D02*
X0500490Y0192578D01*
X0500490Y0191792D02*
X0531013Y0191792D01*
X0531338Y0191006D02*
X0500490Y0191006D01*
X0500490Y0190220D02*
X0531825Y0190220D01*
X0532611Y0189434D02*
X0500490Y0189434D01*
X0500490Y0188648D02*
X0533397Y0188648D01*
X0500490Y0172144D02*
X0688965Y0172144D01*
X0689148Y0171358D02*
X0500490Y0171358D01*
X0531341Y0151710D02*
X0681751Y0151710D01*
X0680894Y0154068D02*
X0648135Y0154068D01*
X0648921Y0154854D02*
X0681214Y0154854D01*
X0681920Y0155640D02*
X0649353Y0155640D01*
X0643553Y0154068D02*
X0638135Y0154068D01*
X0638921Y0154854D02*
X0642767Y0154854D01*
X0642335Y0155640D02*
X0639353Y0155640D01*
X0639679Y0156426D02*
X0642010Y0156426D01*
X0642000Y0157212D02*
X0639688Y0157212D01*
X0639679Y0157998D02*
X0642009Y0157998D01*
X0642334Y0158783D02*
X0639354Y0158783D01*
X0638923Y0159569D02*
X0642765Y0159569D01*
X0643551Y0160355D02*
X0638137Y0160355D01*
X0648569Y0174502D02*
X0690316Y0174502D01*
X0692553Y0174502D02*
X0693860Y0174502D01*
X0716289Y0147781D02*
X0726946Y0147781D01*
X0725940Y0146995D02*
X0716889Y0146995D01*
X0717133Y0146209D02*
X0725154Y0146209D01*
X0724484Y0145423D02*
X0717133Y0145423D01*
X0716808Y0144637D02*
X0724158Y0144637D01*
X0723833Y0143851D02*
X0716094Y0143851D01*
X0745111Y0115558D02*
X0749963Y0115558D01*
X0750056Y0115651D02*
X0748862Y0114458D01*
X0748217Y0112899D01*
X0748217Y0111211D01*
X0748862Y0109652D01*
X0750056Y0108459D01*
X0751615Y0107813D01*
X0753302Y0107813D01*
X0754861Y0108459D01*
X0756054Y0109652D01*
X0756700Y0111211D01*
X0756700Y0112899D01*
X0756054Y0114458D01*
X0754861Y0115651D01*
X0753302Y0116297D01*
X0751615Y0116297D01*
X0750056Y0115651D01*
X0749177Y0114772D02*
X0745897Y0114772D01*
X0746407Y0113986D02*
X0748667Y0113986D01*
X0748342Y0113200D02*
X0746733Y0113200D01*
X0746858Y0112415D02*
X0748217Y0112415D01*
X0748217Y0111629D02*
X0746858Y0111629D01*
X0746705Y0110843D02*
X0748369Y0110843D01*
X0748695Y0110057D02*
X0746379Y0110057D01*
X0745830Y0109271D02*
X0749244Y0109271D01*
X0750030Y0108485D02*
X0745044Y0108485D01*
X0754887Y0108485D02*
X0759872Y0108485D01*
X0759086Y0109271D02*
X0755673Y0109271D01*
X0756222Y0110057D02*
X0758537Y0110057D01*
X0758212Y0110843D02*
X0756547Y0110843D01*
X0756700Y0111629D02*
X0758059Y0111629D01*
X0758059Y0112415D02*
X0756700Y0112415D01*
X0756575Y0113200D02*
X0758184Y0113200D01*
X0758510Y0113986D02*
X0756250Y0113986D01*
X0755740Y0114772D02*
X0759019Y0114772D01*
X0759805Y0115558D02*
X0754954Y0115558D01*
X0548363Y0130491D02*
X0545093Y0130491D01*
X0534231Y0144637D02*
X0530961Y0144637D01*
X0593110Y0333256D02*
X0752054Y0333256D01*
X0751396Y0334042D02*
X0594080Y0334042D01*
X0594429Y0334828D02*
X0751071Y0334828D01*
X0750745Y0335614D02*
X0594495Y0335614D01*
X0594318Y0336400D02*
X0750420Y0336400D01*
X0750252Y0337186D02*
X0593813Y0337186D01*
X0711614Y0338757D02*
X0718185Y0338757D01*
X0717637Y0338984D02*
X0719105Y0338376D01*
X0720694Y0338376D01*
X0722162Y0338984D01*
X0723285Y0340108D01*
X0723893Y0341576D01*
X0723893Y0343164D01*
X0723285Y0344632D01*
X0722162Y0345756D01*
X0720694Y0346364D01*
X0719105Y0346364D01*
X0717637Y0345756D01*
X0716514Y0344632D01*
X0715906Y0343164D01*
X0715906Y0341576D01*
X0716514Y0340108D01*
X0717637Y0338984D01*
X0717078Y0339543D02*
X0712721Y0339543D01*
X0713377Y0340329D02*
X0716422Y0340329D01*
X0716096Y0341115D02*
X0713702Y0341115D01*
X0713893Y0341901D02*
X0715906Y0341901D01*
X0715906Y0342687D02*
X0713893Y0342687D01*
X0713765Y0343473D02*
X0716033Y0343473D01*
X0716359Y0344259D02*
X0713440Y0344259D01*
X0712872Y0345045D02*
X0716926Y0345045D01*
X0717818Y0345831D02*
X0711981Y0345831D01*
X0721981Y0345831D02*
X0727818Y0345831D01*
X0727637Y0345756D02*
X0726514Y0344632D01*
X0725906Y0343164D01*
X0725906Y0341576D01*
X0726514Y0340108D01*
X0727637Y0338984D01*
X0729105Y0338376D01*
X0730694Y0338376D01*
X0732162Y0338984D01*
X0733285Y0340108D01*
X0733893Y0341576D01*
X0733893Y0343164D01*
X0733285Y0344632D01*
X0732162Y0345756D01*
X0730694Y0346364D01*
X0729105Y0346364D01*
X0727637Y0345756D01*
X0726926Y0345045D02*
X0722872Y0345045D01*
X0723440Y0344259D02*
X0726359Y0344259D01*
X0726033Y0343473D02*
X0723765Y0343473D01*
X0723893Y0342687D02*
X0725906Y0342687D01*
X0725906Y0341901D02*
X0723893Y0341901D01*
X0723702Y0341115D02*
X0726096Y0341115D01*
X0726422Y0340329D02*
X0723377Y0340329D01*
X0722721Y0339543D02*
X0727078Y0339543D01*
X0728185Y0338757D02*
X0721614Y0338757D01*
X0731614Y0338757D02*
X0738185Y0338757D01*
X0737078Y0339543D02*
X0732721Y0339543D01*
X0733377Y0340329D02*
X0736422Y0340329D01*
X0736096Y0341115D02*
X0733702Y0341115D01*
X0733893Y0341901D02*
X0735906Y0341901D01*
X0735906Y0342687D02*
X0733893Y0342687D01*
X0733765Y0343473D02*
X0736033Y0343473D01*
X0736359Y0344259D02*
X0733440Y0344259D01*
X0732872Y0345045D02*
X0736926Y0345045D01*
X0737818Y0345831D02*
X0731981Y0345831D01*
M02*
