G75*
%MOIN*%
%OFA0B0*%
%FSLAX25Y25*%
%IPPOS*%
%LPD*%
%AMOC8*
5,1,8,0,0,1.08239X$1,22.5*
%
%ADD10C,0.06000*%
%ADD11C,0.06496*%
%ADD12C,0.12268*%
%ADD13C,0.05700*%
%ADD14C,0.16205*%
%ADD15C,0.13252*%
%ADD16C,0.14236*%
%ADD17C,0.05906*%
%ADD18C,0.00787*%
%ADD19C,0.01981*%
%ADD20C,0.00709*%
%ADD21C,0.02375*%
%ADD22C,0.00669*%
%ADD23C,0.02953*%
%ADD24C,0.02178*%
%ADD25C,0.01600*%
%ADD26C,0.03200*%
%ADD27C,0.00630*%
D10*
X0529253Y0148252D03*
X0536324Y0141181D03*
X0543395Y0134110D03*
X0550466Y0127039D03*
X0818623Y0127039D03*
X0825694Y0134110D03*
X0832766Y0141181D03*
X0839837Y0148252D03*
X0740151Y0226921D03*
X0730151Y0226921D03*
X0720151Y0226921D03*
X0710151Y0226921D03*
X0700151Y0226921D03*
X0690151Y0226921D03*
X0680151Y0226921D03*
X0670151Y0226921D03*
X0670151Y0276921D03*
X0680151Y0276921D03*
X0690151Y0276921D03*
X0700151Y0276921D03*
X0710151Y0276921D03*
X0720151Y0276921D03*
X0730151Y0276921D03*
X0740151Y0276921D03*
X0856789Y0272409D03*
X0856789Y0262409D03*
X0856789Y0282409D03*
X0856789Y0292409D03*
X0709545Y0316780D03*
X0699545Y0316780D03*
X0689545Y0316780D03*
X0679545Y0316780D03*
X0669545Y0316780D03*
X0659545Y0316780D03*
X0649545Y0316780D03*
X0639545Y0316780D03*
X0629545Y0316780D03*
X0619545Y0316780D03*
X0609545Y0316780D03*
X0599545Y0316780D03*
X0589545Y0316780D03*
X0579545Y0316780D03*
X0569545Y0316780D03*
X0559545Y0316780D03*
X0709899Y0342370D03*
X0719899Y0342370D03*
X0729899Y0342370D03*
X0739899Y0342370D03*
X0514269Y0251071D03*
X0514269Y0241071D03*
X0514269Y0231071D03*
X0514269Y0221071D03*
X1046513Y0342370D03*
X1056513Y0342370D03*
X1066513Y0342370D03*
X1076513Y0342370D03*
D11*
X0768206Y0169142D03*
X0760332Y0169142D03*
X0752458Y0169142D03*
X0744584Y0169142D03*
X0736710Y0169142D03*
X0742616Y0112055D03*
X0752458Y0112055D03*
X0762301Y0112055D03*
D12*
X0774309Y0141583D03*
X0730608Y0141583D03*
D13*
X0645844Y0137213D03*
X0645844Y0147213D03*
X0635844Y0147213D03*
X0635844Y0157213D03*
X0645844Y0157213D03*
X0645844Y0167213D03*
X0645844Y0177213D03*
X0645844Y0187213D03*
X0645844Y0197213D03*
X0645844Y0207213D03*
X0625844Y0207213D03*
X0615844Y0207213D03*
X0615844Y0197213D03*
X0625844Y0197213D03*
X0625844Y0187213D03*
X0615844Y0187213D03*
X0615844Y0177213D03*
X0625844Y0177213D03*
X0625844Y0167213D03*
X0615844Y0167213D03*
X0585844Y0167213D03*
X0585844Y0177213D03*
X0585844Y0187213D03*
X0585844Y0197213D03*
X0585844Y0207213D03*
X0585844Y0217213D03*
X0585844Y0227213D03*
X0585844Y0237213D03*
X0615844Y0227213D03*
X0625844Y0227213D03*
X0625844Y0217213D03*
X0615844Y0217213D03*
X0645844Y0217213D03*
X0645844Y0227213D03*
X0645844Y0237213D03*
X0585844Y0157213D03*
X0585844Y0147213D03*
X0585844Y0137213D03*
X0585844Y0127213D03*
X0585844Y0117213D03*
X0585844Y0107213D03*
X0645844Y0107213D03*
X0645844Y0117213D03*
X0645844Y0127213D03*
D14*
X0776080Y0310874D03*
D15*
X0776080Y0334496D03*
D16*
X0793797Y0338418D03*
X0758364Y0338418D03*
D17*
X0677655Y0127961D03*
X0659545Y0110874D03*
X0677655Y0107961D03*
D18*
X0500490Y0158146D02*
X0500490Y0294311D01*
X0562329Y0356150D01*
X0808730Y0356150D01*
X0870569Y0294311D01*
X0870569Y0158146D01*
X0810698Y0098276D01*
X0560360Y0098276D01*
X0500490Y0158146D01*
X0500638Y0157998D02*
X0582009Y0157998D01*
X0582000Y0157977D02*
X0582000Y0156448D01*
X0582586Y0155035D01*
X0583667Y0153954D01*
X0585080Y0153369D01*
X0586609Y0153369D01*
X0588021Y0153954D01*
X0589103Y0155035D01*
X0589688Y0156448D01*
X0589688Y0157977D01*
X0589103Y0159390D01*
X0588021Y0160471D01*
X0586609Y0161056D01*
X0585080Y0161056D01*
X0583667Y0160471D01*
X0582586Y0159390D01*
X0582000Y0157977D01*
X0582000Y0157212D02*
X0501424Y0157212D01*
X0502210Y0156426D02*
X0582010Y0156426D01*
X0582335Y0155640D02*
X0502996Y0155640D01*
X0503782Y0154854D02*
X0582767Y0154854D01*
X0583553Y0154068D02*
X0504568Y0154068D01*
X0505354Y0153282D02*
X0712756Y0153282D01*
X0712587Y0153690D02*
X0712963Y0152782D01*
X0713658Y0152087D01*
X0714565Y0151711D01*
X0715548Y0151711D01*
X0716456Y0152087D01*
X0717151Y0152782D01*
X0717527Y0153690D01*
X0717527Y0154672D01*
X0717151Y0155580D01*
X0716456Y0156275D01*
X0715548Y0156651D01*
X0714565Y0156651D01*
X0713658Y0156275D01*
X0712963Y0155580D01*
X0712587Y0154672D01*
X0712587Y0153690D01*
X0712587Y0154068D02*
X0648135Y0154068D01*
X0648021Y0153954D02*
X0649103Y0155035D01*
X0649688Y0156448D01*
X0649688Y0157977D01*
X0649103Y0159390D01*
X0648021Y0160471D01*
X0646609Y0161056D01*
X0645080Y0161056D01*
X0643667Y0160471D01*
X0642586Y0159390D01*
X0642000Y0157977D01*
X0642000Y0156448D01*
X0642586Y0155035D01*
X0643667Y0153954D01*
X0645080Y0153369D01*
X0646609Y0153369D01*
X0648021Y0153954D01*
X0648921Y0154854D02*
X0712662Y0154854D01*
X0713022Y0155640D02*
X0649353Y0155640D01*
X0649679Y0156426D02*
X0660500Y0156426D01*
X0660207Y0156719D02*
X0660902Y0156024D01*
X0661810Y0155648D01*
X0662792Y0155648D01*
X0663700Y0156024D01*
X0664395Y0156719D01*
X0664771Y0157627D01*
X0664771Y0158609D01*
X0664395Y0159517D01*
X0663700Y0160212D01*
X0662792Y0160588D01*
X0661810Y0160588D01*
X0660902Y0160212D01*
X0660207Y0159517D01*
X0659831Y0158609D01*
X0659831Y0157627D01*
X0660207Y0156719D01*
X0660003Y0157212D02*
X0649688Y0157212D01*
X0649679Y0157998D02*
X0659831Y0157998D01*
X0659903Y0158783D02*
X0649354Y0158783D01*
X0648923Y0159569D02*
X0660259Y0159569D01*
X0661247Y0160355D02*
X0648137Y0160355D01*
X0646923Y0163499D02*
X0870569Y0163499D01*
X0870569Y0164285D02*
X0648352Y0164285D01*
X0648021Y0163954D02*
X0649103Y0165035D01*
X0649688Y0166448D01*
X0649688Y0167977D01*
X0649103Y0169390D01*
X0648021Y0170471D01*
X0646609Y0171056D01*
X0645080Y0171056D01*
X0643667Y0170471D01*
X0642586Y0169390D01*
X0642000Y0167977D01*
X0642000Y0166448D01*
X0642586Y0165035D01*
X0643667Y0163954D01*
X0645080Y0163369D01*
X0646609Y0163369D01*
X0648021Y0163954D01*
X0649117Y0165071D02*
X0735454Y0165071D01*
X0735867Y0164900D02*
X0737554Y0164900D01*
X0739113Y0165546D01*
X0740306Y0166739D01*
X0740647Y0167562D01*
X0740988Y0166739D01*
X0742182Y0165546D01*
X0743741Y0164900D01*
X0745428Y0164900D01*
X0746987Y0165546D01*
X0748180Y0166739D01*
X0748521Y0167562D01*
X0748862Y0166739D01*
X0750056Y0165546D01*
X0751615Y0164900D01*
X0753302Y0164900D01*
X0754861Y0165546D01*
X0756054Y0166739D01*
X0756395Y0167562D01*
X0756736Y0166739D01*
X0757930Y0165546D01*
X0759489Y0164900D01*
X0761176Y0164900D01*
X0762735Y0165546D01*
X0763928Y0166739D01*
X0764269Y0167562D01*
X0764610Y0166739D01*
X0765804Y0165546D01*
X0767363Y0164900D01*
X0769050Y0164900D01*
X0770609Y0165546D01*
X0771802Y0166739D01*
X0772448Y0168298D01*
X0772448Y0169985D01*
X0771802Y0171544D01*
X0770609Y0172738D01*
X0769050Y0173383D01*
X0767363Y0173383D01*
X0765804Y0172738D01*
X0764610Y0171544D01*
X0764269Y0170721D01*
X0763928Y0171544D01*
X0762735Y0172738D01*
X0761176Y0173383D01*
X0759489Y0173383D01*
X0757930Y0172738D01*
X0756736Y0171544D01*
X0756395Y0170721D01*
X0756054Y0171544D01*
X0754861Y0172738D01*
X0753302Y0173383D01*
X0751615Y0173383D01*
X0750056Y0172738D01*
X0748862Y0171544D01*
X0748521Y0170721D01*
X0748180Y0171544D01*
X0746987Y0172738D01*
X0745428Y0173383D01*
X0743741Y0173383D01*
X0742182Y0172738D01*
X0740988Y0171544D01*
X0740647Y0170721D01*
X0740306Y0171544D01*
X0739113Y0172738D01*
X0737554Y0173383D01*
X0735867Y0173383D01*
X0734308Y0172738D01*
X0733114Y0171544D01*
X0732469Y0169985D01*
X0732469Y0168298D01*
X0733114Y0166739D01*
X0734308Y0165546D01*
X0735867Y0164900D01*
X0733997Y0165857D02*
X0664084Y0165857D01*
X0664395Y0166168D02*
X0664771Y0167076D01*
X0664771Y0168058D01*
X0664395Y0168966D01*
X0663700Y0169661D01*
X0662792Y0170037D01*
X0661810Y0170037D01*
X0660902Y0169661D01*
X0660207Y0168966D01*
X0659831Y0168058D01*
X0659831Y0167076D01*
X0660207Y0166168D01*
X0660902Y0165473D01*
X0661810Y0165097D01*
X0662792Y0165097D01*
X0663700Y0165473D01*
X0664395Y0166168D01*
X0664592Y0166643D02*
X0733211Y0166643D01*
X0732829Y0167428D02*
X0721561Y0167428D01*
X0721875Y0167743D02*
X0722251Y0168650D01*
X0722251Y0169633D01*
X0721875Y0170541D01*
X0721180Y0171236D01*
X0720272Y0171612D01*
X0719290Y0171612D01*
X0718382Y0171236D01*
X0717687Y0170541D01*
X0717311Y0169633D01*
X0717311Y0168650D01*
X0717687Y0167743D01*
X0718382Y0167048D01*
X0719290Y0166672D01*
X0720272Y0166672D01*
X0721180Y0167048D01*
X0721875Y0167743D01*
X0722071Y0168214D02*
X0732503Y0168214D01*
X0732469Y0169000D02*
X0722251Y0169000D01*
X0722188Y0169786D02*
X0732469Y0169786D01*
X0732712Y0170572D02*
X0721844Y0170572D01*
X0720885Y0171358D02*
X0733037Y0171358D01*
X0733714Y0172144D02*
X0500490Y0172144D01*
X0500490Y0172930D02*
X0734772Y0172930D01*
X0738649Y0172930D02*
X0742646Y0172930D01*
X0741588Y0172144D02*
X0739707Y0172144D01*
X0740383Y0171358D02*
X0740911Y0171358D01*
X0740703Y0167428D02*
X0740592Y0167428D01*
X0740210Y0166643D02*
X0741085Y0166643D01*
X0741871Y0165857D02*
X0739424Y0165857D01*
X0737966Y0165071D02*
X0743328Y0165071D01*
X0745840Y0165071D02*
X0751202Y0165071D01*
X0749745Y0165857D02*
X0747298Y0165857D01*
X0748084Y0166643D02*
X0748959Y0166643D01*
X0748577Y0167428D02*
X0748466Y0167428D01*
X0748257Y0171358D02*
X0748785Y0171358D01*
X0749462Y0172144D02*
X0747581Y0172144D01*
X0746523Y0172930D02*
X0750520Y0172930D01*
X0754397Y0172930D02*
X0758394Y0172930D01*
X0757336Y0172144D02*
X0755455Y0172144D01*
X0756132Y0171358D02*
X0756659Y0171358D01*
X0756451Y0167428D02*
X0756340Y0167428D01*
X0755958Y0166643D02*
X0756833Y0166643D01*
X0757619Y0165857D02*
X0755172Y0165857D01*
X0753714Y0165071D02*
X0759076Y0165071D01*
X0761588Y0165071D02*
X0766950Y0165071D01*
X0765493Y0165857D02*
X0763046Y0165857D01*
X0763832Y0166643D02*
X0764707Y0166643D01*
X0764325Y0167428D02*
X0764214Y0167428D01*
X0764006Y0171358D02*
X0764533Y0171358D01*
X0765210Y0172144D02*
X0763329Y0172144D01*
X0762271Y0172930D02*
X0766268Y0172930D01*
X0770145Y0172930D02*
X0870569Y0172930D01*
X0870569Y0173716D02*
X0647446Y0173716D01*
X0648021Y0173954D02*
X0649103Y0175035D01*
X0649688Y0176448D01*
X0649688Y0177977D01*
X0649103Y0179390D01*
X0648021Y0180471D01*
X0646609Y0181056D01*
X0645080Y0181056D01*
X0643667Y0180471D01*
X0642586Y0179390D01*
X0642000Y0177977D01*
X0642000Y0176448D01*
X0642586Y0175035D01*
X0643667Y0173954D01*
X0645080Y0173369D01*
X0646609Y0173369D01*
X0648021Y0173954D01*
X0648569Y0174502D02*
X0870569Y0174502D01*
X0870569Y0175288D02*
X0649207Y0175288D01*
X0649533Y0176074D02*
X0870569Y0176074D01*
X0870569Y0176859D02*
X0649688Y0176859D01*
X0649688Y0177645D02*
X0870569Y0177645D01*
X0870569Y0178431D02*
X0649500Y0178431D01*
X0649174Y0179217D02*
X0870569Y0179217D01*
X0870569Y0180003D02*
X0648489Y0180003D01*
X0647254Y0180789D02*
X0870569Y0180789D01*
X0870569Y0181575D02*
X0500490Y0181575D01*
X0500490Y0182361D02*
X0870569Y0182361D01*
X0870569Y0183147D02*
X0670684Y0183147D01*
X0670787Y0183189D02*
X0671481Y0183884D01*
X0671858Y0184792D01*
X0671858Y0185775D01*
X0671481Y0186683D01*
X0670787Y0187377D01*
X0669879Y0187754D01*
X0668896Y0187754D01*
X0667988Y0187377D01*
X0667293Y0186683D01*
X0666917Y0185775D01*
X0666917Y0184792D01*
X0667293Y0183884D01*
X0667988Y0183189D01*
X0668896Y0182813D01*
X0669879Y0182813D01*
X0670787Y0183189D01*
X0671502Y0183933D02*
X0870569Y0183933D01*
X0870569Y0184719D02*
X0671827Y0184719D01*
X0671858Y0185504D02*
X0870569Y0185504D01*
X0870569Y0186290D02*
X0671644Y0186290D01*
X0671088Y0187076D02*
X0870569Y0187076D01*
X0870569Y0187862D02*
X0836128Y0187862D01*
X0837404Y0188391D02*
X0839508Y0190495D01*
X0840647Y0193244D01*
X0840647Y0196220D01*
X0839508Y0198970D01*
X0837404Y0201074D01*
X0834655Y0202213D01*
X0831679Y0202213D01*
X0828930Y0201074D01*
X0826825Y0198970D01*
X0825687Y0196220D01*
X0825687Y0193244D01*
X0826825Y0190495D01*
X0828930Y0188391D01*
X0831679Y0187252D01*
X0834655Y0187252D01*
X0837404Y0188391D01*
X0837662Y0188648D02*
X0870569Y0188648D01*
X0870569Y0189434D02*
X0838448Y0189434D01*
X0839233Y0190220D02*
X0870569Y0190220D01*
X0870569Y0191006D02*
X0839720Y0191006D01*
X0840046Y0191792D02*
X0870569Y0191792D01*
X0870569Y0192578D02*
X0840371Y0192578D01*
X0840647Y0193364D02*
X0870569Y0193364D01*
X0870569Y0194150D02*
X0840647Y0194150D01*
X0840647Y0194935D02*
X0870569Y0194935D01*
X0870569Y0195721D02*
X0840647Y0195721D01*
X0840528Y0196507D02*
X0870569Y0196507D01*
X0870569Y0197293D02*
X0840203Y0197293D01*
X0839877Y0198079D02*
X0870569Y0198079D01*
X0870569Y0198865D02*
X0839552Y0198865D01*
X0838827Y0199651D02*
X0870569Y0199651D01*
X0870569Y0200437D02*
X0838041Y0200437D01*
X0837045Y0201223D02*
X0870569Y0201223D01*
X0870569Y0202009D02*
X0835147Y0202009D01*
X0831187Y0202009D02*
X0539872Y0202009D01*
X0539379Y0202213D02*
X0536403Y0202213D01*
X0533654Y0201074D01*
X0531550Y0198970D01*
X0530411Y0196220D01*
X0530411Y0193244D01*
X0531550Y0190495D01*
X0533654Y0188391D01*
X0536403Y0187252D01*
X0539379Y0187252D01*
X0542129Y0188391D01*
X0544233Y0190495D01*
X0545372Y0193244D01*
X0545372Y0196220D01*
X0544233Y0198970D01*
X0542129Y0201074D01*
X0539379Y0202213D01*
X0541769Y0201223D02*
X0829289Y0201223D01*
X0828293Y0200437D02*
X0648056Y0200437D01*
X0648021Y0200471D02*
X0646609Y0201056D01*
X0645080Y0201056D01*
X0643667Y0200471D01*
X0642586Y0199390D01*
X0642000Y0197977D01*
X0642000Y0196448D01*
X0642586Y0195035D01*
X0643667Y0193954D01*
X0645080Y0193369D01*
X0646609Y0193369D01*
X0648021Y0193954D01*
X0649103Y0195035D01*
X0649688Y0196448D01*
X0649688Y0197977D01*
X0649103Y0199390D01*
X0648021Y0200471D01*
X0648842Y0199651D02*
X0827507Y0199651D01*
X0826782Y0198865D02*
X0649320Y0198865D01*
X0649646Y0198079D02*
X0826457Y0198079D01*
X0826131Y0197293D02*
X0649688Y0197293D01*
X0649688Y0196507D02*
X0825806Y0196507D01*
X0825687Y0195721D02*
X0649387Y0195721D01*
X0649003Y0194935D02*
X0825687Y0194935D01*
X0825687Y0194150D02*
X0648217Y0194150D01*
X0646730Y0191006D02*
X0826614Y0191006D01*
X0826288Y0191792D02*
X0544770Y0191792D01*
X0545096Y0192578D02*
X0825963Y0192578D01*
X0825687Y0193364D02*
X0545372Y0193364D01*
X0545372Y0194150D02*
X0583471Y0194150D01*
X0583667Y0193954D02*
X0585080Y0193369D01*
X0586609Y0193369D01*
X0588021Y0193954D01*
X0589103Y0195035D01*
X0589688Y0196448D01*
X0589688Y0197977D01*
X0589103Y0199390D01*
X0588021Y0200471D01*
X0586609Y0201056D01*
X0585080Y0201056D01*
X0583667Y0200471D01*
X0582586Y0199390D01*
X0582000Y0197977D01*
X0582000Y0196448D01*
X0582586Y0195035D01*
X0583667Y0193954D01*
X0582685Y0194935D02*
X0545372Y0194935D01*
X0545372Y0195721D02*
X0582301Y0195721D01*
X0582000Y0196507D02*
X0545253Y0196507D01*
X0544927Y0197293D02*
X0582000Y0197293D01*
X0582043Y0198079D02*
X0544602Y0198079D01*
X0544276Y0198865D02*
X0582368Y0198865D01*
X0582847Y0199651D02*
X0543552Y0199651D01*
X0542766Y0200437D02*
X0583633Y0200437D01*
X0585080Y0203369D02*
X0586609Y0203369D01*
X0588021Y0203954D01*
X0589103Y0205035D01*
X0589688Y0206448D01*
X0589688Y0207977D01*
X0589103Y0209390D01*
X0588021Y0210471D01*
X0586609Y0211056D01*
X0585080Y0211056D01*
X0583667Y0210471D01*
X0582586Y0209390D01*
X0582000Y0207977D01*
X0582000Y0206448D01*
X0582586Y0205035D01*
X0583667Y0203954D01*
X0585080Y0203369D01*
X0584569Y0203580D02*
X0500490Y0203580D01*
X0500490Y0202795D02*
X0870569Y0202795D01*
X0870569Y0203580D02*
X0647120Y0203580D01*
X0646609Y0203369D02*
X0648021Y0203954D01*
X0649103Y0205035D01*
X0649688Y0206448D01*
X0649688Y0207977D01*
X0649103Y0209390D01*
X0648021Y0210471D01*
X0646609Y0211056D01*
X0645080Y0211056D01*
X0643667Y0210471D01*
X0642586Y0209390D01*
X0642000Y0207977D01*
X0642000Y0206448D01*
X0642586Y0205035D01*
X0643667Y0203954D01*
X0645080Y0203369D01*
X0646609Y0203369D01*
X0644569Y0203580D02*
X0627120Y0203580D01*
X0626609Y0203369D02*
X0628021Y0203954D01*
X0629103Y0205035D01*
X0629688Y0206448D01*
X0629688Y0207977D01*
X0629103Y0209390D01*
X0628021Y0210471D01*
X0626609Y0211056D01*
X0625080Y0211056D01*
X0623667Y0210471D01*
X0622586Y0209390D01*
X0622000Y0207977D01*
X0622000Y0206448D01*
X0622586Y0205035D01*
X0623667Y0203954D01*
X0625080Y0203369D01*
X0626609Y0203369D01*
X0624569Y0203580D02*
X0617120Y0203580D01*
X0616609Y0203369D02*
X0618021Y0203954D01*
X0619103Y0205035D01*
X0619688Y0206448D01*
X0619688Y0207977D01*
X0619103Y0209390D01*
X0618021Y0210471D01*
X0616609Y0211056D01*
X0615080Y0211056D01*
X0613667Y0210471D01*
X0612586Y0209390D01*
X0612000Y0207977D01*
X0612000Y0206448D01*
X0612586Y0205035D01*
X0613667Y0203954D01*
X0615080Y0203369D01*
X0616609Y0203369D01*
X0614569Y0203580D02*
X0587120Y0203580D01*
X0588434Y0204366D02*
X0613255Y0204366D01*
X0612537Y0205152D02*
X0589151Y0205152D01*
X0589477Y0205938D02*
X0612212Y0205938D01*
X0612000Y0206724D02*
X0589688Y0206724D01*
X0589688Y0207510D02*
X0612000Y0207510D01*
X0612133Y0208296D02*
X0589556Y0208296D01*
X0589230Y0209082D02*
X0612458Y0209082D01*
X0613064Y0209868D02*
X0588625Y0209868D01*
X0587581Y0210654D02*
X0614108Y0210654D01*
X0615080Y0213369D02*
X0616609Y0213369D01*
X0618021Y0213954D01*
X0619103Y0215035D01*
X0619688Y0216448D01*
X0619688Y0217977D01*
X0619103Y0219390D01*
X0618021Y0220471D01*
X0616609Y0221056D01*
X0615080Y0221056D01*
X0613667Y0220471D01*
X0612586Y0219390D01*
X0612000Y0217977D01*
X0612000Y0216448D01*
X0612586Y0215035D01*
X0613667Y0213954D01*
X0615080Y0213369D01*
X0614045Y0213797D02*
X0587643Y0213797D01*
X0588021Y0213954D02*
X0589103Y0215035D01*
X0589688Y0216448D01*
X0589688Y0217977D01*
X0589103Y0219390D01*
X0588021Y0220471D01*
X0586609Y0221056D01*
X0585080Y0221056D01*
X0583667Y0220471D01*
X0582586Y0219390D01*
X0582000Y0217977D01*
X0582000Y0216448D01*
X0582586Y0215035D01*
X0583667Y0213954D01*
X0585080Y0213369D01*
X0586609Y0213369D01*
X0588021Y0213954D01*
X0588651Y0214583D02*
X0613038Y0214583D01*
X0612447Y0215369D02*
X0589241Y0215369D01*
X0589566Y0216155D02*
X0612122Y0216155D01*
X0612000Y0216941D02*
X0589688Y0216941D01*
X0589688Y0217727D02*
X0612000Y0217727D01*
X0612222Y0218513D02*
X0589466Y0218513D01*
X0589140Y0219299D02*
X0612548Y0219299D01*
X0613280Y0220085D02*
X0588408Y0220085D01*
X0587057Y0220871D02*
X0614631Y0220871D01*
X0617057Y0220871D02*
X0624631Y0220871D01*
X0625080Y0221056D02*
X0623667Y0220471D01*
X0622586Y0219390D01*
X0622000Y0217977D01*
X0622000Y0216448D01*
X0622586Y0215035D01*
X0623667Y0213954D01*
X0625080Y0213369D01*
X0626609Y0213369D01*
X0628021Y0213954D01*
X0629103Y0215035D01*
X0629688Y0216448D01*
X0629688Y0217977D01*
X0629103Y0219390D01*
X0628021Y0220471D01*
X0626609Y0221056D01*
X0625080Y0221056D01*
X0627057Y0220871D02*
X0644631Y0220871D01*
X0645080Y0221056D02*
X0643667Y0220471D01*
X0642586Y0219390D01*
X0642000Y0217977D01*
X0642000Y0216448D01*
X0642586Y0215035D01*
X0643667Y0213954D01*
X0645080Y0213369D01*
X0646609Y0213369D01*
X0648021Y0213954D01*
X0649103Y0215035D01*
X0649688Y0216448D01*
X0649688Y0217977D01*
X0649103Y0219390D01*
X0648021Y0220471D01*
X0646609Y0221056D01*
X0645080Y0221056D01*
X0647057Y0220871D02*
X0704779Y0220871D01*
X0705021Y0220628D02*
X0745671Y0220628D01*
X0746484Y0221441D01*
X0746484Y0282590D01*
X0745671Y0283403D01*
X0724990Y0283403D01*
X0724789Y0283202D01*
X0724646Y0283344D01*
X0664546Y0283344D01*
X0663768Y0282566D01*
X0663768Y0281466D01*
X0663768Y0249566D01*
X0663768Y0248466D01*
X0664546Y0247687D01*
X0696851Y0247687D01*
X0696889Y0247654D01*
X0697394Y0247687D01*
X0697900Y0247687D01*
X0697936Y0247724D01*
X0697987Y0247727D01*
X0698321Y0248108D01*
X0698678Y0248466D01*
X0698678Y0248517D01*
X0704953Y0255687D01*
X0719546Y0255687D01*
X0723768Y0251466D01*
X0724546Y0250687D01*
X0728833Y0250687D01*
X0729829Y0249691D01*
X0730204Y0249691D01*
X0730208Y0246590D01*
X0724521Y0240903D01*
X0705021Y0240903D01*
X0704209Y0240090D01*
X0704209Y0221441D01*
X0705021Y0220628D01*
X0704209Y0221656D02*
X0518263Y0221656D01*
X0518263Y0221865D02*
X0518263Y0220276D01*
X0517655Y0218809D01*
X0516532Y0217685D01*
X0515064Y0217077D01*
X0513475Y0217077D01*
X0512007Y0217685D01*
X0510884Y0218809D01*
X0510276Y0220276D01*
X0510276Y0221865D01*
X0510884Y0223333D01*
X0512007Y0224457D01*
X0513475Y0225065D01*
X0515064Y0225065D01*
X0516532Y0224457D01*
X0517655Y0223333D01*
X0518263Y0221865D01*
X0518024Y0222442D02*
X0704209Y0222442D01*
X0704209Y0223228D02*
X0701672Y0223228D01*
X0700946Y0222928D02*
X0702413Y0223536D01*
X0703537Y0224659D01*
X0704145Y0226127D01*
X0704145Y0227716D01*
X0703537Y0229184D01*
X0702413Y0230307D01*
X0700946Y0230915D01*
X0699357Y0230915D01*
X0697889Y0230307D01*
X0696766Y0229184D01*
X0696158Y0227716D01*
X0696158Y0226127D01*
X0696766Y0224659D01*
X0697889Y0223536D01*
X0699357Y0222928D01*
X0700946Y0222928D01*
X0702892Y0224014D02*
X0704209Y0224014D01*
X0704209Y0224800D02*
X0703595Y0224800D01*
X0703921Y0225586D02*
X0704209Y0225586D01*
X0704209Y0226372D02*
X0704145Y0226372D01*
X0704145Y0227158D02*
X0704209Y0227158D01*
X0704209Y0227944D02*
X0704050Y0227944D01*
X0704209Y0228730D02*
X0703725Y0228730D01*
X0704209Y0229516D02*
X0703205Y0229516D01*
X0702419Y0230302D02*
X0704209Y0230302D01*
X0704209Y0231087D02*
X0602513Y0231087D01*
X0601943Y0231657D02*
X0603163Y0230437D01*
X0603163Y0228712D01*
X0601943Y0227492D01*
X0600218Y0227492D01*
X0598998Y0228712D01*
X0598998Y0230437D01*
X0600218Y0231657D01*
X0601943Y0231657D01*
X0603163Y0230302D02*
X0613497Y0230302D01*
X0613667Y0230471D02*
X0612586Y0229390D01*
X0612000Y0227977D01*
X0612000Y0226448D01*
X0612586Y0225035D01*
X0613667Y0223954D01*
X0615080Y0223369D01*
X0616609Y0223369D01*
X0618021Y0223954D01*
X0619103Y0225035D01*
X0619688Y0226448D01*
X0619688Y0227977D01*
X0619103Y0229390D01*
X0618021Y0230471D01*
X0616609Y0231056D01*
X0615080Y0231056D01*
X0613667Y0230471D01*
X0612711Y0229516D02*
X0603163Y0229516D01*
X0603163Y0228730D02*
X0612312Y0228730D01*
X0612000Y0227944D02*
X0602395Y0227944D01*
X0599766Y0227944D02*
X0589688Y0227944D01*
X0589688Y0227977D02*
X0589103Y0229390D01*
X0588021Y0230471D01*
X0586609Y0231056D01*
X0585080Y0231056D01*
X0583667Y0230471D01*
X0582586Y0229390D01*
X0582000Y0227977D01*
X0582000Y0226448D01*
X0582586Y0225035D01*
X0583667Y0223954D01*
X0585080Y0223369D01*
X0586609Y0223369D01*
X0588021Y0223954D01*
X0589103Y0225035D01*
X0589688Y0226448D01*
X0589688Y0227977D01*
X0589376Y0228730D02*
X0598998Y0228730D01*
X0598998Y0229516D02*
X0588977Y0229516D01*
X0588191Y0230302D02*
X0598998Y0230302D01*
X0599648Y0231087D02*
X0518263Y0231087D01*
X0518263Y0231865D02*
X0518263Y0230276D01*
X0517655Y0228809D01*
X0516532Y0227685D01*
X0515064Y0227077D01*
X0513475Y0227077D01*
X0512007Y0227685D01*
X0510884Y0228809D01*
X0510276Y0230276D01*
X0510276Y0231865D01*
X0510884Y0233333D01*
X0512007Y0234457D01*
X0513475Y0235065D01*
X0515064Y0235065D01*
X0516532Y0234457D01*
X0517655Y0233333D01*
X0518263Y0231865D01*
X0518260Y0231873D02*
X0704209Y0231873D01*
X0704209Y0232659D02*
X0517934Y0232659D01*
X0517543Y0233445D02*
X0584895Y0233445D01*
X0585080Y0233369D02*
X0586609Y0233369D01*
X0588021Y0233954D01*
X0589103Y0235035D01*
X0589688Y0236448D01*
X0589688Y0237977D01*
X0589103Y0239390D01*
X0588021Y0240471D01*
X0586609Y0241056D01*
X0585080Y0241056D01*
X0583667Y0240471D01*
X0582586Y0239390D01*
X0582000Y0237977D01*
X0582000Y0236448D01*
X0582586Y0235035D01*
X0583667Y0233954D01*
X0585080Y0233369D01*
X0586793Y0233445D02*
X0644895Y0233445D01*
X0645080Y0233369D02*
X0646609Y0233369D01*
X0648021Y0233954D01*
X0649103Y0235035D01*
X0649688Y0236448D01*
X0649688Y0237977D01*
X0649103Y0239390D01*
X0648021Y0240471D01*
X0646609Y0241056D01*
X0645080Y0241056D01*
X0643667Y0240471D01*
X0642586Y0239390D01*
X0642000Y0237977D01*
X0642000Y0236448D01*
X0642586Y0235035D01*
X0643667Y0233954D01*
X0645080Y0233369D01*
X0646793Y0233445D02*
X0704209Y0233445D01*
X0704209Y0234231D02*
X0648298Y0234231D01*
X0649084Y0235017D02*
X0704209Y0235017D01*
X0704209Y0235803D02*
X0649421Y0235803D01*
X0649688Y0236589D02*
X0704209Y0236589D01*
X0704209Y0237375D02*
X0649688Y0237375D01*
X0649612Y0238161D02*
X0704209Y0238161D01*
X0704209Y0238947D02*
X0696983Y0238947D01*
X0697385Y0239349D02*
X0697385Y0239687D01*
X0698473Y0239687D01*
X0699635Y0240849D01*
X0699635Y0242493D01*
X0698473Y0243655D01*
X0696829Y0243655D01*
X0695667Y0242493D01*
X0695667Y0242155D01*
X0694579Y0242155D01*
X0693417Y0240993D01*
X0693417Y0239349D01*
X0694579Y0238187D01*
X0696223Y0238187D01*
X0697385Y0239349D01*
X0698519Y0239732D02*
X0704209Y0239732D01*
X0704637Y0240518D02*
X0699305Y0240518D01*
X0699635Y0241304D02*
X0724923Y0241304D01*
X0725709Y0242090D02*
X0699635Y0242090D01*
X0699253Y0242876D02*
X0726494Y0242876D01*
X0727280Y0243662D02*
X0517326Y0243662D01*
X0517655Y0243333D02*
X0516532Y0244457D01*
X0515064Y0245065D01*
X0513475Y0245065D01*
X0512007Y0244457D01*
X0510884Y0243333D01*
X0510276Y0241865D01*
X0510276Y0240276D01*
X0510884Y0238809D01*
X0512007Y0237685D01*
X0513475Y0237077D01*
X0515064Y0237077D01*
X0516532Y0237685D01*
X0517655Y0238809D01*
X0518263Y0240276D01*
X0518263Y0241865D01*
X0517655Y0243333D01*
X0517844Y0242876D02*
X0696050Y0242876D01*
X0697079Y0243687D02*
X0698723Y0243687D01*
X0699885Y0244849D01*
X0699885Y0246493D01*
X0698723Y0247655D01*
X0697079Y0247655D01*
X0695917Y0246493D01*
X0695917Y0244849D01*
X0697079Y0243687D01*
X0696318Y0244448D02*
X0516540Y0244448D01*
X0518170Y0242090D02*
X0694514Y0242090D01*
X0693728Y0241304D02*
X0518263Y0241304D01*
X0518263Y0240518D02*
X0583781Y0240518D01*
X0582928Y0239732D02*
X0518038Y0239732D01*
X0517712Y0238947D02*
X0582402Y0238947D01*
X0582076Y0238161D02*
X0517007Y0238161D01*
X0515782Y0237375D02*
X0582000Y0237375D01*
X0582000Y0236589D02*
X0500490Y0236589D01*
X0500490Y0237375D02*
X0512757Y0237375D01*
X0511532Y0238161D02*
X0500490Y0238161D01*
X0500490Y0238947D02*
X0510827Y0238947D01*
X0510501Y0239732D02*
X0500490Y0239732D01*
X0500490Y0240518D02*
X0510276Y0240518D01*
X0510276Y0241304D02*
X0500490Y0241304D01*
X0500490Y0242090D02*
X0510369Y0242090D01*
X0510694Y0242876D02*
X0500490Y0242876D01*
X0500490Y0243662D02*
X0511213Y0243662D01*
X0511998Y0244448D02*
X0500490Y0244448D01*
X0500490Y0245234D02*
X0695917Y0245234D01*
X0695917Y0246020D02*
X0500490Y0246020D01*
X0500490Y0246806D02*
X0696230Y0246806D01*
X0697015Y0247592D02*
X0516306Y0247592D01*
X0516532Y0247685D02*
X0517655Y0248809D01*
X0518263Y0250276D01*
X0518263Y0251865D01*
X0517655Y0253333D01*
X0516532Y0254457D01*
X0515064Y0255065D01*
X0513475Y0255065D01*
X0512007Y0254457D01*
X0510884Y0253333D01*
X0510276Y0251865D01*
X0510276Y0250276D01*
X0510884Y0248809D01*
X0512007Y0247685D01*
X0513475Y0247077D01*
X0515064Y0247077D01*
X0516532Y0247685D01*
X0517224Y0248378D02*
X0663856Y0248378D01*
X0663768Y0249163D02*
X0517802Y0249163D01*
X0518128Y0249949D02*
X0663768Y0249949D01*
X0663768Y0250735D02*
X0518263Y0250735D01*
X0518263Y0251521D02*
X0663768Y0251521D01*
X0663768Y0252307D02*
X0518080Y0252307D01*
X0517755Y0253093D02*
X0663768Y0253093D01*
X0663768Y0253879D02*
X0517109Y0253879D01*
X0516029Y0254665D02*
X0663768Y0254665D01*
X0663768Y0255451D02*
X0500490Y0255451D01*
X0500490Y0256237D02*
X0663768Y0256237D01*
X0663768Y0257023D02*
X0500490Y0257023D01*
X0500490Y0257808D02*
X0613054Y0257808D01*
X0613264Y0257599D02*
X0614172Y0257223D01*
X0615154Y0257223D01*
X0616062Y0257599D01*
X0616757Y0258294D01*
X0617133Y0259202D01*
X0617133Y0260184D01*
X0616757Y0261092D01*
X0616062Y0261787D01*
X0615154Y0262163D01*
X0614172Y0262163D01*
X0613264Y0261787D01*
X0612569Y0261092D01*
X0612193Y0260184D01*
X0612193Y0259202D01*
X0612569Y0258294D01*
X0613264Y0257599D01*
X0612444Y0258594D02*
X0500490Y0258594D01*
X0500490Y0259380D02*
X0612193Y0259380D01*
X0612193Y0260166D02*
X0500490Y0260166D01*
X0500490Y0260952D02*
X0612511Y0260952D01*
X0613215Y0261738D02*
X0500490Y0261738D01*
X0500490Y0262524D02*
X0663768Y0262524D01*
X0663768Y0263310D02*
X0500490Y0263310D01*
X0500490Y0264096D02*
X0663768Y0264096D01*
X0663768Y0264882D02*
X0500490Y0264882D01*
X0500490Y0265668D02*
X0663768Y0265668D01*
X0663768Y0266454D02*
X0500490Y0266454D01*
X0500490Y0267239D02*
X0663768Y0267239D01*
X0663768Y0268025D02*
X0500490Y0268025D01*
X0500490Y0268811D02*
X0663768Y0268811D01*
X0663768Y0269597D02*
X0500490Y0269597D01*
X0500490Y0270383D02*
X0663768Y0270383D01*
X0663768Y0271169D02*
X0500490Y0271169D01*
X0500490Y0271955D02*
X0663768Y0271955D01*
X0663768Y0272741D02*
X0500490Y0272741D01*
X0500490Y0273527D02*
X0663768Y0273527D01*
X0663768Y0274313D02*
X0500490Y0274313D01*
X0500490Y0275099D02*
X0663768Y0275099D01*
X0663768Y0275884D02*
X0500490Y0275884D01*
X0500490Y0276670D02*
X0663768Y0276670D01*
X0663768Y0277456D02*
X0500490Y0277456D01*
X0500490Y0278242D02*
X0663768Y0278242D01*
X0663768Y0279028D02*
X0500490Y0279028D01*
X0500490Y0279814D02*
X0663768Y0279814D01*
X0663768Y0280600D02*
X0500490Y0280600D01*
X0500490Y0281386D02*
X0663768Y0281386D01*
X0663768Y0282172D02*
X0500490Y0282172D01*
X0500490Y0282958D02*
X0664159Y0282958D01*
X0663768Y0261738D02*
X0629891Y0261738D01*
X0629842Y0261787D02*
X0628934Y0262163D01*
X0627951Y0262163D01*
X0627043Y0261787D01*
X0626349Y0261092D01*
X0625973Y0260184D01*
X0625973Y0259202D01*
X0626349Y0258294D01*
X0627043Y0257599D01*
X0627951Y0257223D01*
X0628934Y0257223D01*
X0629842Y0257599D01*
X0630537Y0258294D01*
X0630913Y0259202D01*
X0630913Y0260184D01*
X0630537Y0261092D01*
X0629842Y0261787D01*
X0630595Y0260952D02*
X0663768Y0260952D01*
X0663768Y0260166D02*
X0630913Y0260166D01*
X0630913Y0259380D02*
X0663768Y0259380D01*
X0663768Y0258594D02*
X0630661Y0258594D01*
X0630051Y0257808D02*
X0663768Y0257808D01*
X0698590Y0248378D02*
X0730205Y0248378D01*
X0730204Y0249163D02*
X0699244Y0249163D01*
X0699932Y0249949D02*
X0729571Y0249949D01*
X0731591Y0249809D02*
X0732469Y0250687D01*
X0733333Y0250687D01*
X0734329Y0249691D01*
X0735973Y0249691D01*
X0737135Y0250853D01*
X0737135Y0252497D01*
X0735973Y0253659D01*
X0734719Y0253659D01*
X0733723Y0254655D01*
X0732079Y0254655D01*
X0731585Y0254161D01*
X0731565Y0268516D01*
X0725565Y0274547D01*
X0725565Y0282016D01*
X0745096Y0282016D01*
X0745096Y0273405D01*
X0745013Y0273488D01*
X0743369Y0273488D01*
X0742206Y0272326D01*
X0742206Y0270682D01*
X0743369Y0269520D01*
X0745013Y0269520D01*
X0745096Y0269603D01*
X0745096Y0222016D01*
X0705596Y0222016D01*
X0705596Y0239516D01*
X0725096Y0239516D01*
X0727116Y0241535D01*
X0727116Y0240300D01*
X0728278Y0239138D01*
X0729922Y0239138D01*
X0730475Y0239691D01*
X0731028Y0239138D01*
X0732672Y0239138D01*
X0733199Y0239665D01*
X0733727Y0239138D01*
X0735371Y0239138D01*
X0736533Y0240300D01*
X0736533Y0241944D01*
X0735371Y0243106D01*
X0733727Y0243106D01*
X0733199Y0242579D01*
X0732672Y0243106D01*
X0731028Y0243106D01*
X0730475Y0242553D01*
X0729922Y0243106D01*
X0728687Y0243106D01*
X0731596Y0246016D01*
X0731591Y0249809D01*
X0731732Y0249949D02*
X0734071Y0249949D01*
X0736232Y0249949D02*
X0745096Y0249949D01*
X0745096Y0249163D02*
X0731592Y0249163D01*
X0731593Y0248378D02*
X0745096Y0248378D01*
X0745096Y0247592D02*
X0731594Y0247592D01*
X0731595Y0246806D02*
X0745096Y0246806D01*
X0745096Y0246020D02*
X0731596Y0246020D01*
X0730814Y0245234D02*
X0745096Y0245234D01*
X0745096Y0244448D02*
X0730028Y0244448D01*
X0729242Y0243662D02*
X0745096Y0243662D01*
X0745096Y0242876D02*
X0744128Y0242876D01*
X0744635Y0242368D02*
X0743473Y0243530D01*
X0741829Y0243530D01*
X0741401Y0243102D01*
X0740973Y0243530D01*
X0739329Y0243530D01*
X0738167Y0242368D01*
X0738167Y0240724D01*
X0739329Y0239562D01*
X0740973Y0239562D01*
X0741401Y0239990D01*
X0741829Y0239562D01*
X0743473Y0239562D01*
X0744635Y0240724D01*
X0744635Y0242368D01*
X0744635Y0242090D02*
X0745096Y0242090D01*
X0745096Y0241304D02*
X0744635Y0241304D01*
X0744430Y0240518D02*
X0745096Y0240518D01*
X0745096Y0239732D02*
X0743644Y0239732D01*
X0745096Y0238947D02*
X0705596Y0238947D01*
X0705596Y0238161D02*
X0726413Y0238161D01*
X0726461Y0238209D02*
X0725566Y0237313D01*
X0724973Y0237905D01*
X0723329Y0237905D01*
X0722167Y0236743D01*
X0722167Y0236462D01*
X0721473Y0237155D01*
X0719829Y0237155D01*
X0718776Y0236102D01*
X0717723Y0237155D01*
X0716079Y0237155D01*
X0715635Y0236712D01*
X0715635Y0236743D01*
X0714473Y0237905D01*
X0712829Y0237905D01*
X0711667Y0236743D01*
X0711667Y0235099D01*
X0712327Y0234439D01*
X0712293Y0231047D01*
X0711819Y0230553D01*
X0710946Y0230915D01*
X0709357Y0230915D01*
X0707889Y0230307D01*
X0706766Y0229184D01*
X0706158Y0227716D01*
X0706158Y0226127D01*
X0706766Y0224659D01*
X0707889Y0223536D01*
X0709357Y0222928D01*
X0710946Y0222928D01*
X0712413Y0223536D01*
X0713537Y0224659D01*
X0714145Y0226127D01*
X0714145Y0227716D01*
X0713716Y0228750D01*
X0714527Y0229595D01*
X0714899Y0229960D01*
X0714899Y0229984D01*
X0714916Y0230002D01*
X0714905Y0230523D01*
X0714944Y0234323D01*
X0716079Y0233187D01*
X0717723Y0233187D01*
X0718776Y0234240D01*
X0719829Y0233187D01*
X0721473Y0233187D01*
X0722635Y0234349D01*
X0722635Y0234631D01*
X0723329Y0233937D01*
X0724973Y0233937D01*
X0725869Y0234833D01*
X0726461Y0234240D01*
X0728105Y0234240D01*
X0728167Y0234302D01*
X0728167Y0234099D01*
X0729329Y0232937D01*
X0730973Y0232937D01*
X0732135Y0234099D01*
X0732135Y0235743D01*
X0730973Y0236905D01*
X0729329Y0236905D01*
X0729267Y0236844D01*
X0729267Y0237046D01*
X0728105Y0238209D01*
X0726461Y0238209D01*
X0725627Y0237375D02*
X0725504Y0237375D01*
X0725313Y0239732D02*
X0727683Y0239732D01*
X0727116Y0240518D02*
X0726099Y0240518D01*
X0726885Y0241304D02*
X0727116Y0241304D01*
X0728066Y0244448D02*
X0699484Y0244448D01*
X0699885Y0245234D02*
X0728852Y0245234D01*
X0729638Y0246020D02*
X0699885Y0246020D01*
X0699573Y0246806D02*
X0730208Y0246806D01*
X0730207Y0247592D02*
X0698787Y0247592D01*
X0700620Y0250735D02*
X0724498Y0250735D01*
X0723712Y0251521D02*
X0701307Y0251521D01*
X0701995Y0252307D02*
X0722926Y0252307D01*
X0722140Y0253093D02*
X0702683Y0253093D01*
X0703370Y0253879D02*
X0721354Y0253879D01*
X0720568Y0254665D02*
X0704058Y0254665D01*
X0704746Y0255451D02*
X0719783Y0255451D01*
X0731583Y0255451D02*
X0740816Y0255451D01*
X0740667Y0255599D02*
X0741829Y0254437D01*
X0743473Y0254437D01*
X0744635Y0255599D01*
X0744635Y0257243D01*
X0743473Y0258405D01*
X0741829Y0258405D01*
X0740667Y0257243D01*
X0740667Y0255599D01*
X0740667Y0256237D02*
X0731582Y0256237D01*
X0731581Y0257023D02*
X0740667Y0257023D01*
X0741232Y0257808D02*
X0731580Y0257808D01*
X0731579Y0258594D02*
X0745096Y0258594D01*
X0745096Y0257808D02*
X0744070Y0257808D01*
X0744635Y0257023D02*
X0745096Y0257023D01*
X0745096Y0256237D02*
X0744635Y0256237D01*
X0744487Y0255451D02*
X0745096Y0255451D01*
X0745096Y0254665D02*
X0743701Y0254665D01*
X0743473Y0254405D02*
X0741829Y0254405D01*
X0741401Y0253977D01*
X0740973Y0254405D01*
X0739329Y0254405D01*
X0738167Y0253243D01*
X0738167Y0251599D01*
X0739329Y0250437D01*
X0740973Y0250437D01*
X0741401Y0250865D01*
X0741829Y0250437D01*
X0743473Y0250437D01*
X0744635Y0251599D01*
X0744635Y0253243D01*
X0743473Y0254405D01*
X0744000Y0253879D02*
X0745096Y0253879D01*
X0745096Y0253093D02*
X0744635Y0253093D01*
X0744635Y0252307D02*
X0745096Y0252307D01*
X0745096Y0251521D02*
X0744557Y0251521D01*
X0745096Y0250735D02*
X0743771Y0250735D01*
X0741531Y0250735D02*
X0741271Y0250735D01*
X0739031Y0250735D02*
X0737017Y0250735D01*
X0737135Y0251521D02*
X0738245Y0251521D01*
X0738167Y0252307D02*
X0737135Y0252307D01*
X0736540Y0253093D02*
X0738167Y0253093D01*
X0738803Y0253879D02*
X0734500Y0253879D01*
X0731584Y0254665D02*
X0741602Y0254665D01*
X0746484Y0254665D02*
X0870569Y0254665D01*
X0870569Y0255451D02*
X0746484Y0255451D01*
X0746484Y0256237D02*
X0870569Y0256237D01*
X0870569Y0257023D02*
X0746484Y0257023D01*
X0746484Y0257808D02*
X0870569Y0257808D01*
X0870569Y0258594D02*
X0858015Y0258594D01*
X0857583Y0258416D02*
X0859051Y0259024D01*
X0860175Y0260147D01*
X0860783Y0261615D01*
X0860783Y0263204D01*
X0860175Y0264672D01*
X0859051Y0265795D01*
X0857583Y0266403D01*
X0855995Y0266403D01*
X0854527Y0265795D01*
X0853403Y0264672D01*
X0852795Y0263204D01*
X0852795Y0261615D01*
X0853403Y0260147D01*
X0854527Y0259024D01*
X0855995Y0258416D01*
X0857583Y0258416D01*
X0855563Y0258594D02*
X0746484Y0258594D01*
X0746484Y0259380D02*
X0854170Y0259380D01*
X0853395Y0260166D02*
X0746484Y0260166D01*
X0746484Y0260952D02*
X0853070Y0260952D01*
X0852795Y0261738D02*
X0746484Y0261738D01*
X0746484Y0262524D02*
X0852795Y0262524D01*
X0852839Y0263310D02*
X0746484Y0263310D01*
X0746484Y0264096D02*
X0853165Y0264096D01*
X0853613Y0264882D02*
X0746484Y0264882D01*
X0746484Y0265668D02*
X0854399Y0265668D01*
X0855995Y0268416D02*
X0857583Y0268416D01*
X0859051Y0269024D01*
X0860175Y0270147D01*
X0860783Y0271615D01*
X0860783Y0273204D01*
X0860175Y0274672D01*
X0859051Y0275795D01*
X0857583Y0276403D01*
X0855995Y0276403D01*
X0854527Y0275795D01*
X0853403Y0274672D01*
X0852795Y0273204D01*
X0852795Y0271615D01*
X0853403Y0270147D01*
X0854527Y0269024D01*
X0855995Y0268416D01*
X0855040Y0268811D02*
X0746484Y0268811D01*
X0746484Y0268025D02*
X0870569Y0268025D01*
X0870569Y0267239D02*
X0746484Y0267239D01*
X0746484Y0266454D02*
X0870569Y0266454D01*
X0870569Y0265668D02*
X0859179Y0265668D01*
X0859965Y0264882D02*
X0870569Y0264882D01*
X0870569Y0264096D02*
X0860413Y0264096D01*
X0860739Y0263310D02*
X0870569Y0263310D01*
X0870569Y0262524D02*
X0860783Y0262524D01*
X0860783Y0261738D02*
X0870569Y0261738D01*
X0870569Y0260952D02*
X0860508Y0260952D01*
X0860183Y0260166D02*
X0870569Y0260166D01*
X0870569Y0259380D02*
X0859408Y0259380D01*
X0870569Y0253879D02*
X0746484Y0253879D01*
X0746484Y0253093D02*
X0870569Y0253093D01*
X0870569Y0252307D02*
X0767155Y0252307D01*
X0767123Y0252320D02*
X0766140Y0252320D01*
X0765232Y0251944D01*
X0764538Y0251250D01*
X0764161Y0250342D01*
X0764161Y0249359D01*
X0764538Y0248451D01*
X0765232Y0247756D01*
X0766140Y0247380D01*
X0767123Y0247380D01*
X0768031Y0247756D01*
X0768726Y0248451D01*
X0769102Y0249359D01*
X0769102Y0250342D01*
X0768726Y0251250D01*
X0768031Y0251944D01*
X0767123Y0252320D01*
X0766108Y0252307D02*
X0746484Y0252307D01*
X0746484Y0251521D02*
X0764809Y0251521D01*
X0764324Y0250735D02*
X0758093Y0250735D01*
X0758068Y0250746D02*
X0757085Y0250746D01*
X0756177Y0250370D01*
X0755482Y0249675D01*
X0755106Y0248767D01*
X0755106Y0247784D01*
X0755482Y0246876D01*
X0756177Y0246182D01*
X0757085Y0245806D01*
X0758068Y0245806D01*
X0758976Y0246182D01*
X0759670Y0246876D01*
X0760047Y0247784D01*
X0760047Y0248767D01*
X0759670Y0249675D01*
X0758976Y0250370D01*
X0758068Y0250746D01*
X0757060Y0250735D02*
X0746484Y0250735D01*
X0746484Y0249949D02*
X0755757Y0249949D01*
X0755271Y0249163D02*
X0746484Y0249163D01*
X0746484Y0248378D02*
X0755106Y0248378D01*
X0755186Y0247592D02*
X0746484Y0247592D01*
X0746484Y0246806D02*
X0755553Y0246806D01*
X0756568Y0246020D02*
X0746484Y0246020D01*
X0746484Y0245234D02*
X0766002Y0245234D01*
X0766020Y0245252D02*
X0765325Y0244557D01*
X0764949Y0243649D01*
X0764949Y0242666D01*
X0765325Y0241758D01*
X0766020Y0241063D01*
X0766928Y0240687D01*
X0767910Y0240687D01*
X0768818Y0241063D01*
X0769513Y0241758D01*
X0769889Y0242666D01*
X0769889Y0243649D01*
X0769513Y0244557D01*
X0768818Y0245252D01*
X0767910Y0245628D01*
X0766928Y0245628D01*
X0766020Y0245252D01*
X0765280Y0244448D02*
X0746484Y0244448D01*
X0746484Y0243662D02*
X0764954Y0243662D01*
X0764949Y0242876D02*
X0746484Y0242876D01*
X0746484Y0242090D02*
X0755378Y0242090D01*
X0755089Y0241801D02*
X0754713Y0240893D01*
X0754713Y0239910D01*
X0755089Y0239002D01*
X0755784Y0238308D01*
X0756691Y0237931D01*
X0757674Y0237931D01*
X0758582Y0238308D01*
X0759277Y0239002D01*
X0759653Y0239910D01*
X0759653Y0240893D01*
X0759277Y0241801D01*
X0758582Y0242496D01*
X0757674Y0242872D01*
X0756691Y0242872D01*
X0755784Y0242496D01*
X0755089Y0241801D01*
X0754883Y0241304D02*
X0746484Y0241304D01*
X0746484Y0240518D02*
X0754713Y0240518D01*
X0754786Y0239732D02*
X0746484Y0239732D01*
X0746484Y0238947D02*
X0755145Y0238947D01*
X0756138Y0238161D02*
X0746484Y0238161D01*
X0746484Y0237375D02*
X0797274Y0237375D01*
X0797226Y0237327D02*
X0797226Y0235602D01*
X0798446Y0234382D01*
X0800171Y0234382D01*
X0801391Y0235602D01*
X0801391Y0237327D01*
X0800171Y0238547D01*
X0798446Y0238547D01*
X0797226Y0237327D01*
X0797226Y0236589D02*
X0795437Y0236589D01*
X0795880Y0236146D02*
X0794660Y0237366D01*
X0792934Y0237366D01*
X0791714Y0236146D01*
X0791714Y0234421D01*
X0792934Y0233201D01*
X0794660Y0233201D01*
X0795880Y0234421D01*
X0795880Y0236146D01*
X0795880Y0235803D02*
X0797226Y0235803D01*
X0797811Y0235017D02*
X0795880Y0235017D01*
X0795690Y0234231D02*
X0826592Y0234231D01*
X0826847Y0233977D02*
X0827754Y0233601D01*
X0828737Y0233601D01*
X0829645Y0233977D01*
X0830340Y0234672D01*
X0830716Y0235580D01*
X0830716Y0236562D01*
X0830340Y0237470D01*
X0829645Y0238165D01*
X0828737Y0238541D01*
X0827754Y0238541D01*
X0826847Y0238165D01*
X0826152Y0237470D01*
X0825776Y0236562D01*
X0825776Y0235580D01*
X0826152Y0234672D01*
X0826847Y0233977D01*
X0826009Y0235017D02*
X0800806Y0235017D01*
X0801202Y0234217D02*
X0799982Y0232997D01*
X0799982Y0231271D01*
X0801202Y0230051D01*
X0802927Y0230051D01*
X0804147Y0231271D01*
X0804147Y0232997D01*
X0802927Y0234217D01*
X0801202Y0234217D01*
X0800431Y0233445D02*
X0794904Y0233445D01*
X0792690Y0233445D02*
X0746484Y0233445D01*
X0746484Y0232659D02*
X0799982Y0232659D01*
X0799982Y0231873D02*
X0746484Y0231873D01*
X0746484Y0231087D02*
X0754612Y0231087D01*
X0754301Y0230777D02*
X0753925Y0229869D01*
X0753925Y0228887D01*
X0754301Y0227979D01*
X0754996Y0227284D01*
X0755904Y0226908D01*
X0756887Y0226908D01*
X0757795Y0227284D01*
X0758489Y0227979D01*
X0758865Y0228887D01*
X0758865Y0229869D01*
X0758489Y0230777D01*
X0757795Y0231472D01*
X0756887Y0231848D01*
X0755904Y0231848D01*
X0754996Y0231472D01*
X0754301Y0230777D01*
X0754104Y0230302D02*
X0746484Y0230302D01*
X0746484Y0229516D02*
X0753925Y0229516D01*
X0753990Y0228730D02*
X0746484Y0228730D01*
X0746484Y0227944D02*
X0754336Y0227944D01*
X0755300Y0227158D02*
X0746484Y0227158D01*
X0746484Y0226372D02*
X0802019Y0226372D01*
X0801557Y0225910D02*
X0801557Y0224185D01*
X0802777Y0222965D01*
X0804502Y0222965D01*
X0805722Y0224185D01*
X0805722Y0225910D01*
X0804502Y0227130D01*
X0802777Y0227130D01*
X0801557Y0225910D01*
X0801557Y0225586D02*
X0758141Y0225586D01*
X0758188Y0225566D02*
X0757280Y0225943D01*
X0756298Y0225943D01*
X0755390Y0225566D01*
X0754695Y0224872D01*
X0754319Y0223964D01*
X0754319Y0222981D01*
X0754695Y0222073D01*
X0755390Y0221378D01*
X0756298Y0221002D01*
X0757280Y0221002D01*
X0758188Y0221378D01*
X0758883Y0222073D01*
X0759259Y0222981D01*
X0759259Y0223964D01*
X0758883Y0224872D01*
X0758188Y0225566D01*
X0758913Y0224800D02*
X0801557Y0224800D01*
X0801727Y0224014D02*
X0759238Y0224014D01*
X0759259Y0223228D02*
X0783367Y0223228D01*
X0783539Y0223401D02*
X0782845Y0222706D01*
X0782469Y0221798D01*
X0782469Y0220816D01*
X0782845Y0219908D01*
X0783539Y0219213D01*
X0784447Y0218837D01*
X0785430Y0218837D01*
X0786338Y0219213D01*
X0787033Y0219908D01*
X0787409Y0220816D01*
X0787409Y0221798D01*
X0787033Y0222706D01*
X0786338Y0223401D01*
X0785430Y0223777D01*
X0784447Y0223777D01*
X0783539Y0223401D01*
X0782735Y0222442D02*
X0759036Y0222442D01*
X0758466Y0221656D02*
X0782469Y0221656D01*
X0782469Y0220871D02*
X0745913Y0220871D01*
X0746484Y0221656D02*
X0755112Y0221656D01*
X0754542Y0222442D02*
X0746484Y0222442D01*
X0746484Y0223228D02*
X0754319Y0223228D01*
X0754340Y0224014D02*
X0746484Y0224014D01*
X0746484Y0224800D02*
X0754665Y0224800D01*
X0755437Y0225586D02*
X0746484Y0225586D01*
X0745096Y0225586D02*
X0743921Y0225586D01*
X0744145Y0226127D02*
X0743537Y0224659D01*
X0742413Y0223536D01*
X0740946Y0222928D01*
X0739357Y0222928D01*
X0737889Y0223536D01*
X0736766Y0224659D01*
X0736158Y0226127D01*
X0736158Y0227716D01*
X0736766Y0229184D01*
X0737889Y0230307D01*
X0739357Y0230915D01*
X0740946Y0230915D01*
X0742413Y0230307D01*
X0743537Y0229184D01*
X0744145Y0227716D01*
X0744145Y0226127D01*
X0744145Y0226372D02*
X0745096Y0226372D01*
X0745096Y0227158D02*
X0744145Y0227158D01*
X0744050Y0227944D02*
X0745096Y0227944D01*
X0745096Y0228730D02*
X0743725Y0228730D01*
X0743205Y0229516D02*
X0745096Y0229516D01*
X0745096Y0230302D02*
X0742419Y0230302D01*
X0745096Y0231087D02*
X0714911Y0231087D01*
X0714910Y0230302D02*
X0717884Y0230302D01*
X0717889Y0230307D02*
X0716766Y0229184D01*
X0716158Y0227716D01*
X0716158Y0226127D01*
X0716766Y0224659D01*
X0717889Y0223536D01*
X0719357Y0222928D01*
X0720946Y0222928D01*
X0722413Y0223536D01*
X0723537Y0224659D01*
X0724145Y0226127D01*
X0724145Y0227716D01*
X0723537Y0229184D01*
X0722413Y0230307D01*
X0720946Y0230915D01*
X0719357Y0230915D01*
X0717889Y0230307D01*
X0717098Y0229516D02*
X0714450Y0229516D01*
X0713725Y0228730D02*
X0716578Y0228730D01*
X0716252Y0227944D02*
X0714050Y0227944D01*
X0714145Y0227158D02*
X0716158Y0227158D01*
X0716158Y0226372D02*
X0714145Y0226372D01*
X0713921Y0225586D02*
X0716382Y0225586D01*
X0716707Y0224800D02*
X0713595Y0224800D01*
X0712892Y0224014D02*
X0717410Y0224014D01*
X0718631Y0223228D02*
X0711672Y0223228D01*
X0708631Y0223228D02*
X0705596Y0223228D01*
X0705596Y0222442D02*
X0745096Y0222442D01*
X0745096Y0223228D02*
X0741672Y0223228D01*
X0742892Y0224014D02*
X0745096Y0224014D01*
X0745096Y0224800D02*
X0743595Y0224800D01*
X0738631Y0223228D02*
X0731672Y0223228D01*
X0730946Y0222928D02*
X0732413Y0223536D01*
X0733537Y0224659D01*
X0734145Y0226127D01*
X0734145Y0227716D01*
X0733537Y0229184D01*
X0732413Y0230307D01*
X0730946Y0230915D01*
X0729357Y0230915D01*
X0727889Y0230307D01*
X0726766Y0229184D01*
X0726158Y0227716D01*
X0726158Y0226127D01*
X0726766Y0224659D01*
X0727889Y0223536D01*
X0729357Y0222928D01*
X0730946Y0222928D01*
X0732892Y0224014D02*
X0737410Y0224014D01*
X0736707Y0224800D02*
X0733595Y0224800D01*
X0733921Y0225586D02*
X0736382Y0225586D01*
X0736158Y0226372D02*
X0734145Y0226372D01*
X0734145Y0227158D02*
X0736158Y0227158D01*
X0736252Y0227944D02*
X0734050Y0227944D01*
X0733725Y0228730D02*
X0736578Y0228730D01*
X0737098Y0229516D02*
X0733205Y0229516D01*
X0732419Y0230302D02*
X0737884Y0230302D01*
X0732135Y0234231D02*
X0745096Y0234231D01*
X0745096Y0233445D02*
X0731481Y0233445D01*
X0732135Y0235017D02*
X0745096Y0235017D01*
X0745096Y0235803D02*
X0732076Y0235803D01*
X0731290Y0236589D02*
X0745096Y0236589D01*
X0745096Y0237375D02*
X0728939Y0237375D01*
X0728153Y0238161D02*
X0745096Y0238161D01*
X0746484Y0236589D02*
X0792157Y0236589D01*
X0791714Y0235803D02*
X0746484Y0235803D01*
X0746484Y0235017D02*
X0791714Y0235017D01*
X0791904Y0234231D02*
X0746484Y0234231D01*
X0745096Y0232659D02*
X0714927Y0232659D01*
X0714919Y0231873D02*
X0745096Y0231873D01*
X0741659Y0239732D02*
X0741144Y0239732D01*
X0739159Y0239732D02*
X0735965Y0239732D01*
X0736533Y0240518D02*
X0738373Y0240518D01*
X0738167Y0241304D02*
X0736533Y0241304D01*
X0736387Y0242090D02*
X0738167Y0242090D01*
X0738675Y0242876D02*
X0735601Y0242876D01*
X0733497Y0242876D02*
X0732902Y0242876D01*
X0730798Y0242876D02*
X0730152Y0242876D01*
X0722799Y0237375D02*
X0715004Y0237375D01*
X0712299Y0237375D02*
X0705596Y0237375D01*
X0705596Y0236589D02*
X0711667Y0236589D01*
X0711667Y0235803D02*
X0705596Y0235803D01*
X0705596Y0235017D02*
X0711749Y0235017D01*
X0712325Y0234231D02*
X0705596Y0234231D01*
X0705596Y0233445D02*
X0712317Y0233445D01*
X0712309Y0232659D02*
X0705596Y0232659D01*
X0705596Y0231873D02*
X0712301Y0231873D01*
X0712293Y0231087D02*
X0705596Y0231087D01*
X0705596Y0230302D02*
X0707884Y0230302D01*
X0707098Y0229516D02*
X0705596Y0229516D01*
X0705596Y0228730D02*
X0706578Y0228730D01*
X0706252Y0227944D02*
X0705596Y0227944D01*
X0705596Y0227158D02*
X0706158Y0227158D01*
X0706158Y0226372D02*
X0705596Y0226372D01*
X0705596Y0225586D02*
X0706382Y0225586D01*
X0706707Y0224800D02*
X0705596Y0224800D01*
X0705596Y0224014D02*
X0707410Y0224014D01*
X0698631Y0223228D02*
X0691672Y0223228D01*
X0690946Y0222928D02*
X0692413Y0223536D01*
X0693537Y0224659D01*
X0694145Y0226127D01*
X0694145Y0227716D01*
X0693537Y0229184D01*
X0692413Y0230307D01*
X0690946Y0230915D01*
X0689357Y0230915D01*
X0687889Y0230307D01*
X0686766Y0229184D01*
X0686158Y0227716D01*
X0686158Y0226127D01*
X0686766Y0224659D01*
X0687889Y0223536D01*
X0689357Y0222928D01*
X0690946Y0222928D01*
X0692892Y0224014D02*
X0697410Y0224014D01*
X0696707Y0224800D02*
X0693595Y0224800D01*
X0693921Y0225586D02*
X0696382Y0225586D01*
X0696158Y0226372D02*
X0694145Y0226372D01*
X0694145Y0227158D02*
X0696158Y0227158D01*
X0696252Y0227944D02*
X0694050Y0227944D01*
X0693725Y0228730D02*
X0696578Y0228730D01*
X0697098Y0229516D02*
X0693205Y0229516D01*
X0692419Y0230302D02*
X0697884Y0230302D01*
X0687884Y0230302D02*
X0682419Y0230302D01*
X0682413Y0230307D02*
X0680946Y0230915D01*
X0679357Y0230915D01*
X0677889Y0230307D01*
X0676766Y0229184D01*
X0676158Y0227716D01*
X0676158Y0226127D01*
X0676766Y0224659D01*
X0677889Y0223536D01*
X0679357Y0222928D01*
X0680946Y0222928D01*
X0682413Y0223536D01*
X0683537Y0224659D01*
X0684145Y0226127D01*
X0684145Y0227716D01*
X0683537Y0229184D01*
X0682413Y0230307D01*
X0683205Y0229516D02*
X0687098Y0229516D01*
X0686578Y0228730D02*
X0683725Y0228730D01*
X0684050Y0227944D02*
X0686252Y0227944D01*
X0686158Y0227158D02*
X0684145Y0227158D01*
X0684145Y0226372D02*
X0686158Y0226372D01*
X0686382Y0225586D02*
X0683921Y0225586D01*
X0683595Y0224800D02*
X0686707Y0224800D01*
X0687410Y0224014D02*
X0682892Y0224014D01*
X0681672Y0223228D02*
X0688631Y0223228D01*
X0678631Y0223228D02*
X0671672Y0223228D01*
X0670946Y0222928D02*
X0672413Y0223536D01*
X0673537Y0224659D01*
X0674145Y0226127D01*
X0674145Y0227716D01*
X0673537Y0229184D01*
X0672413Y0230307D01*
X0670946Y0230915D01*
X0669357Y0230915D01*
X0667889Y0230307D01*
X0666766Y0229184D01*
X0666158Y0227716D01*
X0666158Y0226127D01*
X0666766Y0224659D01*
X0667889Y0223536D01*
X0669357Y0222928D01*
X0670946Y0222928D01*
X0672892Y0224014D02*
X0677410Y0224014D01*
X0676707Y0224800D02*
X0673595Y0224800D01*
X0673921Y0225586D02*
X0676382Y0225586D01*
X0676158Y0226372D02*
X0674145Y0226372D01*
X0674145Y0227158D02*
X0676158Y0227158D01*
X0676252Y0227944D02*
X0674050Y0227944D01*
X0673725Y0228730D02*
X0676578Y0228730D01*
X0677098Y0229516D02*
X0673205Y0229516D01*
X0672419Y0230302D02*
X0677884Y0230302D01*
X0667884Y0230302D02*
X0648191Y0230302D01*
X0648021Y0230471D02*
X0646609Y0231056D01*
X0645080Y0231056D01*
X0643667Y0230471D01*
X0642586Y0229390D01*
X0642000Y0227977D01*
X0642000Y0226448D01*
X0642586Y0225035D01*
X0643667Y0223954D01*
X0645080Y0223369D01*
X0646609Y0223369D01*
X0648021Y0223954D01*
X0649103Y0225035D01*
X0649688Y0226448D01*
X0649688Y0227977D01*
X0649103Y0229390D01*
X0648021Y0230471D01*
X0648977Y0229516D02*
X0667098Y0229516D01*
X0666578Y0228730D02*
X0649376Y0228730D01*
X0649688Y0227944D02*
X0666252Y0227944D01*
X0666158Y0227158D02*
X0649688Y0227158D01*
X0649656Y0226372D02*
X0666158Y0226372D01*
X0666382Y0225586D02*
X0649331Y0225586D01*
X0648867Y0224800D02*
X0666707Y0224800D01*
X0667410Y0224014D02*
X0648082Y0224014D01*
X0648408Y0220085D02*
X0782771Y0220085D01*
X0783454Y0219299D02*
X0649140Y0219299D01*
X0649466Y0218513D02*
X0870569Y0218513D01*
X0870569Y0219299D02*
X0786423Y0219299D01*
X0787106Y0220085D02*
X0870569Y0220085D01*
X0870569Y0220871D02*
X0821699Y0220871D01*
X0822258Y0221429D02*
X0821038Y0220209D01*
X0819312Y0220209D01*
X0818092Y0221429D01*
X0818092Y0223154D01*
X0819312Y0224374D01*
X0821038Y0224374D01*
X0822258Y0223154D01*
X0822258Y0221429D01*
X0822258Y0221656D02*
X0870569Y0221656D01*
X0870569Y0222442D02*
X0822258Y0222442D01*
X0822183Y0223228D02*
X0870569Y0223228D01*
X0870569Y0224014D02*
X0821397Y0224014D01*
X0821038Y0224933D02*
X0822258Y0226153D01*
X0822258Y0227878D01*
X0821152Y0228984D01*
X0822258Y0230090D01*
X0822258Y0231815D01*
X0821038Y0233035D01*
X0819312Y0233035D01*
X0818092Y0231815D01*
X0818092Y0230090D01*
X0819198Y0228984D01*
X0818092Y0227878D01*
X0818092Y0226153D01*
X0819312Y0224933D01*
X0821038Y0224933D01*
X0821691Y0225586D02*
X0870569Y0225586D01*
X0870569Y0224800D02*
X0816352Y0224800D01*
X0816352Y0225123D02*
X0815132Y0226343D01*
X0814573Y0226343D01*
X0815565Y0227334D01*
X0815565Y0229060D01*
X0814345Y0230280D01*
X0812619Y0230280D01*
X0811399Y0229060D01*
X0811399Y0227334D01*
X0812619Y0226114D01*
X0813178Y0226114D01*
X0812187Y0225123D01*
X0812187Y0223397D01*
X0813407Y0222177D01*
X0815132Y0222177D01*
X0816352Y0223397D01*
X0816352Y0225123D01*
X0815888Y0225586D02*
X0818659Y0225586D01*
X0818092Y0226372D02*
X0814602Y0226372D01*
X0815388Y0227158D02*
X0818092Y0227158D01*
X0818158Y0227944D02*
X0815565Y0227944D01*
X0815565Y0228730D02*
X0818943Y0228730D01*
X0818667Y0229516D02*
X0815109Y0229516D01*
X0818092Y0230302D02*
X0808811Y0230302D01*
X0808439Y0230673D02*
X0806714Y0230673D01*
X0805494Y0229453D01*
X0805494Y0227728D01*
X0806714Y0226508D01*
X0808439Y0226508D01*
X0809659Y0227728D01*
X0809659Y0229453D01*
X0808439Y0230673D01*
X0809597Y0229516D02*
X0811855Y0229516D01*
X0811399Y0228730D02*
X0809659Y0228730D01*
X0809659Y0227944D02*
X0811399Y0227944D01*
X0811576Y0227158D02*
X0809089Y0227158D01*
X0809227Y0224374D02*
X0807501Y0224374D01*
X0806281Y0223154D01*
X0806281Y0221429D01*
X0807501Y0220209D01*
X0809227Y0220209D01*
X0810447Y0221429D01*
X0810447Y0223154D01*
X0809227Y0224374D01*
X0809586Y0224014D02*
X0812187Y0224014D01*
X0812187Y0224800D02*
X0805722Y0224800D01*
X0805722Y0225586D02*
X0812650Y0225586D01*
X0812361Y0226372D02*
X0805260Y0226372D01*
X0806064Y0227158D02*
X0798853Y0227158D01*
X0799423Y0227728D02*
X0798203Y0226508D01*
X0796478Y0226508D01*
X0795258Y0227728D01*
X0795258Y0229453D01*
X0796478Y0230673D01*
X0798203Y0230673D01*
X0799423Y0229453D01*
X0799423Y0227728D01*
X0799423Y0227944D02*
X0805494Y0227944D01*
X0805494Y0228730D02*
X0799423Y0228730D01*
X0799361Y0229516D02*
X0805556Y0229516D01*
X0806342Y0230302D02*
X0803178Y0230302D01*
X0803964Y0231087D02*
X0818092Y0231087D01*
X0818150Y0231873D02*
X0804147Y0231873D01*
X0804147Y0232659D02*
X0818936Y0232659D01*
X0821414Y0232659D02*
X0870569Y0232659D01*
X0870569Y0231873D02*
X0822200Y0231873D01*
X0822258Y0231087D02*
X0870569Y0231087D01*
X0870569Y0230302D02*
X0822258Y0230302D01*
X0821683Y0229516D02*
X0870569Y0229516D01*
X0870569Y0228730D02*
X0821406Y0228730D01*
X0822192Y0227944D02*
X0870569Y0227944D01*
X0870569Y0227158D02*
X0822258Y0227158D01*
X0822258Y0226372D02*
X0870569Y0226372D01*
X0870569Y0217727D02*
X0649688Y0217727D01*
X0649688Y0216941D02*
X0870569Y0216941D01*
X0870569Y0216155D02*
X0649566Y0216155D01*
X0649241Y0215369D02*
X0870569Y0215369D01*
X0870569Y0214583D02*
X0648651Y0214583D01*
X0647643Y0213797D02*
X0870569Y0213797D01*
X0870569Y0213011D02*
X0500490Y0213011D01*
X0500490Y0212226D02*
X0870569Y0212226D01*
X0870569Y0211440D02*
X0500490Y0211440D01*
X0500490Y0210654D02*
X0584108Y0210654D01*
X0583064Y0209868D02*
X0500490Y0209868D01*
X0500490Y0209082D02*
X0582458Y0209082D01*
X0582133Y0208296D02*
X0500490Y0208296D01*
X0500490Y0207510D02*
X0582000Y0207510D01*
X0582000Y0206724D02*
X0500490Y0206724D01*
X0500490Y0205938D02*
X0582212Y0205938D01*
X0582537Y0205152D02*
X0500490Y0205152D01*
X0500490Y0204366D02*
X0583255Y0204366D01*
X0588056Y0200437D02*
X0613633Y0200437D01*
X0613667Y0200471D02*
X0612586Y0199390D01*
X0612000Y0197977D01*
X0612000Y0196448D01*
X0612586Y0195035D01*
X0613667Y0193954D01*
X0615080Y0193369D01*
X0616609Y0193369D01*
X0618021Y0193954D01*
X0619103Y0195035D01*
X0619688Y0196448D01*
X0619688Y0197977D01*
X0619103Y0199390D01*
X0618021Y0200471D01*
X0616609Y0201056D01*
X0615080Y0201056D01*
X0613667Y0200471D01*
X0612847Y0199651D02*
X0588842Y0199651D01*
X0589320Y0198865D02*
X0612368Y0198865D01*
X0612043Y0198079D02*
X0589646Y0198079D01*
X0589688Y0197293D02*
X0612000Y0197293D01*
X0612000Y0196507D02*
X0589688Y0196507D01*
X0589387Y0195721D02*
X0612301Y0195721D01*
X0612685Y0194935D02*
X0589003Y0194935D01*
X0588217Y0194150D02*
X0613471Y0194150D01*
X0614958Y0191006D02*
X0586730Y0191006D01*
X0586609Y0191056D02*
X0588021Y0190471D01*
X0589103Y0189390D01*
X0589688Y0187977D01*
X0589688Y0186448D01*
X0589103Y0185035D01*
X0588021Y0183954D01*
X0586609Y0183369D01*
X0585080Y0183369D01*
X0583667Y0183954D01*
X0582586Y0185035D01*
X0582000Y0186448D01*
X0582000Y0187977D01*
X0582586Y0189390D01*
X0583667Y0190471D01*
X0585080Y0191056D01*
X0586609Y0191056D01*
X0584958Y0191006D02*
X0544444Y0191006D01*
X0543958Y0190220D02*
X0583416Y0190220D01*
X0582630Y0189434D02*
X0543172Y0189434D01*
X0542386Y0188648D02*
X0582278Y0188648D01*
X0582000Y0187862D02*
X0540853Y0187862D01*
X0534930Y0187862D02*
X0500490Y0187862D01*
X0500490Y0187076D02*
X0582000Y0187076D01*
X0582066Y0186290D02*
X0500490Y0186290D01*
X0500490Y0185504D02*
X0582391Y0185504D01*
X0582902Y0184719D02*
X0500490Y0184719D01*
X0500490Y0183933D02*
X0583719Y0183933D01*
X0585080Y0181056D02*
X0583667Y0180471D01*
X0582586Y0179390D01*
X0582000Y0177977D01*
X0582000Y0176448D01*
X0582586Y0175035D01*
X0583667Y0173954D01*
X0585080Y0173369D01*
X0586609Y0173369D01*
X0588021Y0173954D01*
X0589103Y0175035D01*
X0589688Y0176448D01*
X0589688Y0177977D01*
X0589103Y0179390D01*
X0588021Y0180471D01*
X0586609Y0181056D01*
X0585080Y0181056D01*
X0584434Y0180789D02*
X0500490Y0180789D01*
X0500490Y0180003D02*
X0583199Y0180003D01*
X0582514Y0179217D02*
X0500490Y0179217D01*
X0500490Y0178431D02*
X0582189Y0178431D01*
X0582000Y0177645D02*
X0500490Y0177645D01*
X0500490Y0176859D02*
X0582000Y0176859D01*
X0582156Y0176074D02*
X0500490Y0176074D01*
X0500490Y0175288D02*
X0582481Y0175288D01*
X0583119Y0174502D02*
X0500490Y0174502D01*
X0500490Y0173716D02*
X0584242Y0173716D01*
X0585080Y0171056D02*
X0583667Y0170471D01*
X0582586Y0169390D01*
X0582000Y0167977D01*
X0582000Y0166448D01*
X0582586Y0165035D01*
X0583667Y0163954D01*
X0585080Y0163369D01*
X0586609Y0163369D01*
X0588021Y0163954D01*
X0589103Y0165035D01*
X0589688Y0166448D01*
X0589688Y0167977D01*
X0589103Y0169390D01*
X0588021Y0170471D01*
X0586609Y0171056D01*
X0585080Y0171056D01*
X0583911Y0170572D02*
X0500490Y0170572D01*
X0500490Y0169786D02*
X0582982Y0169786D01*
X0582424Y0169000D02*
X0500490Y0169000D01*
X0500490Y0168214D02*
X0582099Y0168214D01*
X0582000Y0167428D02*
X0500490Y0167428D01*
X0500490Y0166643D02*
X0582000Y0166643D01*
X0582245Y0165857D02*
X0500490Y0165857D01*
X0500490Y0165071D02*
X0582571Y0165071D01*
X0583336Y0164285D02*
X0500490Y0164285D01*
X0500490Y0163499D02*
X0584766Y0163499D01*
X0586923Y0163499D02*
X0614766Y0163499D01*
X0615080Y0163369D02*
X0616609Y0163369D01*
X0618021Y0163954D01*
X0619103Y0165035D01*
X0619688Y0166448D01*
X0619688Y0167977D01*
X0619103Y0169390D01*
X0618021Y0170471D01*
X0616609Y0171056D01*
X0615080Y0171056D01*
X0613667Y0170471D01*
X0612586Y0169390D01*
X0612000Y0167977D01*
X0612000Y0166448D01*
X0612586Y0165035D01*
X0613667Y0163954D01*
X0615080Y0163369D01*
X0616923Y0163499D02*
X0624766Y0163499D01*
X0625080Y0163369D02*
X0626609Y0163369D01*
X0628021Y0163954D01*
X0629103Y0165035D01*
X0629688Y0166448D01*
X0629688Y0167977D01*
X0629103Y0169390D01*
X0628021Y0170471D01*
X0626609Y0171056D01*
X0625080Y0171056D01*
X0623667Y0170471D01*
X0622586Y0169390D01*
X0622000Y0167977D01*
X0622000Y0166448D01*
X0622586Y0165035D01*
X0623667Y0163954D01*
X0625080Y0163369D01*
X0626923Y0163499D02*
X0644766Y0163499D01*
X0643336Y0164285D02*
X0628352Y0164285D01*
X0629117Y0165071D02*
X0642571Y0165071D01*
X0642245Y0165857D02*
X0629443Y0165857D01*
X0629688Y0166643D02*
X0642000Y0166643D01*
X0642000Y0167428D02*
X0629688Y0167428D01*
X0629590Y0168214D02*
X0642099Y0168214D01*
X0642424Y0169000D02*
X0629264Y0169000D01*
X0628706Y0169786D02*
X0642982Y0169786D01*
X0643911Y0170572D02*
X0627778Y0170572D01*
X0626609Y0173369D02*
X0628021Y0173954D01*
X0629103Y0175035D01*
X0629688Y0176448D01*
X0629688Y0177977D01*
X0629103Y0179390D01*
X0628021Y0180471D01*
X0626609Y0181056D01*
X0625080Y0181056D01*
X0623667Y0180471D01*
X0622586Y0179390D01*
X0622000Y0177977D01*
X0622000Y0176448D01*
X0622586Y0175035D01*
X0623667Y0173954D01*
X0625080Y0173369D01*
X0626609Y0173369D01*
X0627446Y0173716D02*
X0644242Y0173716D01*
X0643119Y0174502D02*
X0628569Y0174502D01*
X0629207Y0175288D02*
X0642481Y0175288D01*
X0642156Y0176074D02*
X0629533Y0176074D01*
X0629688Y0176859D02*
X0642000Y0176859D01*
X0642000Y0177645D02*
X0629688Y0177645D01*
X0629500Y0178431D02*
X0642189Y0178431D01*
X0642514Y0179217D02*
X0629174Y0179217D01*
X0628489Y0180003D02*
X0643199Y0180003D01*
X0644434Y0180789D02*
X0627254Y0180789D01*
X0626609Y0183369D02*
X0628021Y0183954D01*
X0629103Y0185035D01*
X0629688Y0186448D01*
X0629688Y0187977D01*
X0629103Y0189390D01*
X0628021Y0190471D01*
X0626609Y0191056D01*
X0625080Y0191056D01*
X0623667Y0190471D01*
X0622586Y0189390D01*
X0622000Y0187977D01*
X0622000Y0186448D01*
X0622586Y0185035D01*
X0623667Y0183954D01*
X0625080Y0183369D01*
X0626609Y0183369D01*
X0627970Y0183933D02*
X0643719Y0183933D01*
X0643667Y0183954D02*
X0645080Y0183369D01*
X0646609Y0183369D01*
X0648021Y0183954D01*
X0649103Y0185035D01*
X0649688Y0186448D01*
X0649688Y0187977D01*
X0649103Y0189390D01*
X0648021Y0190471D01*
X0646609Y0191056D01*
X0645080Y0191056D01*
X0643667Y0190471D01*
X0642586Y0189390D01*
X0642000Y0187977D01*
X0642000Y0186448D01*
X0642586Y0185035D01*
X0643667Y0183954D01*
X0642902Y0184719D02*
X0628786Y0184719D01*
X0629297Y0185504D02*
X0642391Y0185504D01*
X0642066Y0186290D02*
X0629623Y0186290D01*
X0629688Y0187076D02*
X0642000Y0187076D01*
X0642000Y0187862D02*
X0629688Y0187862D01*
X0629410Y0188648D02*
X0642278Y0188648D01*
X0642630Y0189434D02*
X0629059Y0189434D01*
X0628273Y0190220D02*
X0643416Y0190220D01*
X0644958Y0191006D02*
X0626730Y0191006D01*
X0624958Y0191006D02*
X0616730Y0191006D01*
X0616609Y0191056D02*
X0615080Y0191056D01*
X0613667Y0190471D01*
X0612586Y0189390D01*
X0612000Y0187977D01*
X0612000Y0186448D01*
X0612586Y0185035D01*
X0613667Y0183954D01*
X0615080Y0183369D01*
X0616609Y0183369D01*
X0618021Y0183954D01*
X0619103Y0185035D01*
X0619688Y0186448D01*
X0619688Y0187977D01*
X0619103Y0189390D01*
X0618021Y0190471D01*
X0616609Y0191056D01*
X0618273Y0190220D02*
X0623416Y0190220D01*
X0622630Y0189434D02*
X0619059Y0189434D01*
X0619410Y0188648D02*
X0622278Y0188648D01*
X0622000Y0187862D02*
X0619688Y0187862D01*
X0619688Y0187076D02*
X0622000Y0187076D01*
X0622066Y0186290D02*
X0619623Y0186290D01*
X0619297Y0185504D02*
X0622391Y0185504D01*
X0622902Y0184719D02*
X0618786Y0184719D01*
X0617970Y0183933D02*
X0623719Y0183933D01*
X0624434Y0180789D02*
X0587254Y0180789D01*
X0588489Y0180003D02*
X0623199Y0180003D01*
X0622514Y0179217D02*
X0589174Y0179217D01*
X0589500Y0178431D02*
X0622189Y0178431D01*
X0622000Y0177645D02*
X0589688Y0177645D01*
X0589688Y0176859D02*
X0622000Y0176859D01*
X0622156Y0176074D02*
X0589533Y0176074D01*
X0589207Y0175288D02*
X0622481Y0175288D01*
X0623119Y0174502D02*
X0588569Y0174502D01*
X0587446Y0173716D02*
X0624242Y0173716D01*
X0623911Y0170572D02*
X0617778Y0170572D01*
X0618706Y0169786D02*
X0622982Y0169786D01*
X0622424Y0169000D02*
X0619264Y0169000D01*
X0619590Y0168214D02*
X0622099Y0168214D01*
X0622000Y0167428D02*
X0619688Y0167428D01*
X0619688Y0166643D02*
X0622000Y0166643D01*
X0622245Y0165857D02*
X0619443Y0165857D01*
X0619117Y0165071D02*
X0622571Y0165071D01*
X0623336Y0164285D02*
X0618352Y0164285D01*
X0613336Y0164285D02*
X0588352Y0164285D01*
X0589117Y0165071D02*
X0612571Y0165071D01*
X0612245Y0165857D02*
X0589443Y0165857D01*
X0589688Y0166643D02*
X0612000Y0166643D01*
X0612000Y0167428D02*
X0589688Y0167428D01*
X0589590Y0168214D02*
X0612099Y0168214D01*
X0612424Y0169000D02*
X0589264Y0169000D01*
X0588706Y0169786D02*
X0612982Y0169786D01*
X0613911Y0170572D02*
X0587778Y0170572D01*
X0587970Y0183933D02*
X0613719Y0183933D01*
X0612902Y0184719D02*
X0588786Y0184719D01*
X0589297Y0185504D02*
X0612391Y0185504D01*
X0612066Y0186290D02*
X0589623Y0186290D01*
X0589688Y0187076D02*
X0612000Y0187076D01*
X0612000Y0187862D02*
X0589688Y0187862D01*
X0589410Y0188648D02*
X0612278Y0188648D01*
X0612630Y0189434D02*
X0589059Y0189434D01*
X0588273Y0190220D02*
X0613416Y0190220D01*
X0618217Y0194150D02*
X0623471Y0194150D01*
X0623667Y0193954D02*
X0625080Y0193369D01*
X0626609Y0193369D01*
X0628021Y0193954D01*
X0629103Y0195035D01*
X0629688Y0196448D01*
X0629688Y0197977D01*
X0629103Y0199390D01*
X0628021Y0200471D01*
X0626609Y0201056D01*
X0625080Y0201056D01*
X0623667Y0200471D01*
X0622586Y0199390D01*
X0622000Y0197977D01*
X0622000Y0196448D01*
X0622586Y0195035D01*
X0623667Y0193954D01*
X0622685Y0194935D02*
X0619003Y0194935D01*
X0619387Y0195721D02*
X0622301Y0195721D01*
X0622000Y0196507D02*
X0619688Y0196507D01*
X0619688Y0197293D02*
X0622000Y0197293D01*
X0622043Y0198079D02*
X0619646Y0198079D01*
X0619320Y0198865D02*
X0622368Y0198865D01*
X0622847Y0199651D02*
X0618842Y0199651D01*
X0618056Y0200437D02*
X0623633Y0200437D01*
X0623255Y0204366D02*
X0618434Y0204366D01*
X0619151Y0205152D02*
X0622537Y0205152D01*
X0622212Y0205938D02*
X0619477Y0205938D01*
X0619688Y0206724D02*
X0622000Y0206724D01*
X0622000Y0207510D02*
X0619688Y0207510D01*
X0619556Y0208296D02*
X0622133Y0208296D01*
X0622458Y0209082D02*
X0619230Y0209082D01*
X0618625Y0209868D02*
X0623064Y0209868D01*
X0624108Y0210654D02*
X0617581Y0210654D01*
X0617643Y0213797D02*
X0624045Y0213797D01*
X0623038Y0214583D02*
X0618651Y0214583D01*
X0619241Y0215369D02*
X0622447Y0215369D01*
X0622122Y0216155D02*
X0619566Y0216155D01*
X0619688Y0216941D02*
X0622000Y0216941D01*
X0622000Y0217727D02*
X0619688Y0217727D01*
X0619466Y0218513D02*
X0622222Y0218513D01*
X0622548Y0219299D02*
X0619140Y0219299D01*
X0618408Y0220085D02*
X0623280Y0220085D01*
X0625080Y0223369D02*
X0626609Y0223369D01*
X0628021Y0223954D01*
X0629103Y0225035D01*
X0629688Y0226448D01*
X0629688Y0227977D01*
X0629103Y0229390D01*
X0628021Y0230471D01*
X0626609Y0231056D01*
X0625080Y0231056D01*
X0623667Y0230471D01*
X0622586Y0229390D01*
X0622000Y0227977D01*
X0622000Y0226448D01*
X0622586Y0225035D01*
X0623667Y0223954D01*
X0625080Y0223369D01*
X0623607Y0224014D02*
X0618082Y0224014D01*
X0618867Y0224800D02*
X0622821Y0224800D01*
X0622357Y0225586D02*
X0619331Y0225586D01*
X0619656Y0226372D02*
X0622032Y0226372D01*
X0622000Y0227158D02*
X0619688Y0227158D01*
X0619688Y0227944D02*
X0622000Y0227944D01*
X0622312Y0228730D02*
X0619376Y0228730D01*
X0618977Y0229516D02*
X0622711Y0229516D01*
X0623497Y0230302D02*
X0618191Y0230302D01*
X0612000Y0227158D02*
X0589688Y0227158D01*
X0589656Y0226372D02*
X0612032Y0226372D01*
X0612357Y0225586D02*
X0589331Y0225586D01*
X0588867Y0224800D02*
X0612821Y0224800D01*
X0613607Y0224014D02*
X0588082Y0224014D01*
X0583607Y0224014D02*
X0516974Y0224014D01*
X0517698Y0223228D02*
X0668631Y0223228D01*
X0643607Y0224014D02*
X0628082Y0224014D01*
X0628867Y0224800D02*
X0642821Y0224800D01*
X0642357Y0225586D02*
X0629331Y0225586D01*
X0629656Y0226372D02*
X0642032Y0226372D01*
X0642000Y0227158D02*
X0629688Y0227158D01*
X0629688Y0227944D02*
X0642000Y0227944D01*
X0642312Y0228730D02*
X0629376Y0228730D01*
X0628977Y0229516D02*
X0642711Y0229516D01*
X0643497Y0230302D02*
X0628191Y0230302D01*
X0642268Y0235803D02*
X0589421Y0235803D01*
X0589688Y0236589D02*
X0642000Y0236589D01*
X0642000Y0237375D02*
X0589688Y0237375D01*
X0589612Y0238161D02*
X0642076Y0238161D01*
X0642402Y0238947D02*
X0589286Y0238947D01*
X0588760Y0239732D02*
X0642928Y0239732D01*
X0643781Y0240518D02*
X0587907Y0240518D01*
X0589084Y0235017D02*
X0642604Y0235017D01*
X0643390Y0234231D02*
X0588298Y0234231D01*
X0583390Y0234231D02*
X0516757Y0234231D01*
X0515179Y0235017D02*
X0582604Y0235017D01*
X0582268Y0235803D02*
X0500490Y0235803D01*
X0500490Y0235017D02*
X0513360Y0235017D01*
X0511782Y0234231D02*
X0500490Y0234231D01*
X0500490Y0233445D02*
X0510996Y0233445D01*
X0510605Y0232659D02*
X0500490Y0232659D01*
X0500490Y0231873D02*
X0510279Y0231873D01*
X0510276Y0231087D02*
X0500490Y0231087D01*
X0500490Y0230302D02*
X0510276Y0230302D01*
X0510591Y0229516D02*
X0500490Y0229516D01*
X0500490Y0228730D02*
X0510963Y0228730D01*
X0511748Y0227944D02*
X0500490Y0227944D01*
X0500490Y0227158D02*
X0513280Y0227158D01*
X0515259Y0227158D02*
X0582000Y0227158D01*
X0582000Y0227944D02*
X0516790Y0227944D01*
X0517576Y0228730D02*
X0582312Y0228730D01*
X0582711Y0229516D02*
X0517948Y0229516D01*
X0518263Y0230302D02*
X0583497Y0230302D01*
X0582032Y0226372D02*
X0500490Y0226372D01*
X0500490Y0225586D02*
X0582357Y0225586D01*
X0582821Y0224800D02*
X0515702Y0224800D01*
X0512837Y0224800D02*
X0500490Y0224800D01*
X0500490Y0224014D02*
X0511565Y0224014D01*
X0510840Y0223228D02*
X0500490Y0223228D01*
X0500490Y0222442D02*
X0510515Y0222442D01*
X0510276Y0221656D02*
X0500490Y0221656D01*
X0500490Y0220871D02*
X0510276Y0220871D01*
X0510355Y0220085D02*
X0500490Y0220085D01*
X0500490Y0219299D02*
X0510681Y0219299D01*
X0511179Y0218513D02*
X0500490Y0218513D01*
X0500490Y0217727D02*
X0511965Y0217727D01*
X0516573Y0217727D02*
X0582000Y0217727D01*
X0582000Y0216941D02*
X0500490Y0216941D01*
X0500490Y0216155D02*
X0582122Y0216155D01*
X0582447Y0215369D02*
X0500490Y0215369D01*
X0500490Y0214583D02*
X0583038Y0214583D01*
X0584045Y0213797D02*
X0500490Y0213797D01*
X0517359Y0218513D02*
X0582222Y0218513D01*
X0582548Y0219299D02*
X0517858Y0219299D01*
X0518184Y0220085D02*
X0583280Y0220085D01*
X0584631Y0220871D02*
X0518263Y0220871D01*
X0534014Y0201223D02*
X0500490Y0201223D01*
X0500490Y0202009D02*
X0535911Y0202009D01*
X0533017Y0200437D02*
X0500490Y0200437D01*
X0500490Y0199651D02*
X0532231Y0199651D01*
X0531507Y0198865D02*
X0500490Y0198865D01*
X0500490Y0198079D02*
X0531181Y0198079D01*
X0530856Y0197293D02*
X0500490Y0197293D01*
X0500490Y0196507D02*
X0530530Y0196507D01*
X0530411Y0195721D02*
X0500490Y0195721D01*
X0500490Y0194935D02*
X0530411Y0194935D01*
X0530411Y0194150D02*
X0500490Y0194150D01*
X0500490Y0193364D02*
X0530411Y0193364D01*
X0530687Y0192578D02*
X0500490Y0192578D01*
X0500490Y0191792D02*
X0531013Y0191792D01*
X0531338Y0191006D02*
X0500490Y0191006D01*
X0500490Y0190220D02*
X0531825Y0190220D01*
X0532611Y0189434D02*
X0500490Y0189434D01*
X0500490Y0188648D02*
X0533397Y0188648D01*
X0500490Y0183147D02*
X0668091Y0183147D01*
X0667273Y0183933D02*
X0647970Y0183933D01*
X0648786Y0184719D02*
X0666948Y0184719D01*
X0666917Y0185504D02*
X0649297Y0185504D01*
X0649623Y0186290D02*
X0667131Y0186290D01*
X0667687Y0187076D02*
X0649688Y0187076D01*
X0649688Y0187862D02*
X0830206Y0187862D01*
X0828672Y0188648D02*
X0649410Y0188648D01*
X0649059Y0189434D02*
X0827886Y0189434D01*
X0827101Y0190220D02*
X0648273Y0190220D01*
X0643471Y0194150D02*
X0628217Y0194150D01*
X0629003Y0194935D02*
X0642685Y0194935D01*
X0642301Y0195721D02*
X0629387Y0195721D01*
X0629688Y0196507D02*
X0642000Y0196507D01*
X0642000Y0197293D02*
X0629688Y0197293D01*
X0629646Y0198079D02*
X0642043Y0198079D01*
X0642368Y0198865D02*
X0629320Y0198865D01*
X0628842Y0199651D02*
X0642847Y0199651D01*
X0643633Y0200437D02*
X0628056Y0200437D01*
X0628434Y0204366D02*
X0643255Y0204366D01*
X0642537Y0205152D02*
X0629151Y0205152D01*
X0629477Y0205938D02*
X0642212Y0205938D01*
X0642000Y0206724D02*
X0629688Y0206724D01*
X0629688Y0207510D02*
X0642000Y0207510D01*
X0642133Y0208296D02*
X0629556Y0208296D01*
X0629230Y0209082D02*
X0642458Y0209082D01*
X0643064Y0209868D02*
X0628625Y0209868D01*
X0627581Y0210654D02*
X0644108Y0210654D01*
X0644045Y0213797D02*
X0627643Y0213797D01*
X0628651Y0214583D02*
X0643038Y0214583D01*
X0642447Y0215369D02*
X0629241Y0215369D01*
X0629566Y0216155D02*
X0642122Y0216155D01*
X0642000Y0216941D02*
X0629688Y0216941D01*
X0629688Y0217727D02*
X0642000Y0217727D01*
X0642222Y0218513D02*
X0629466Y0218513D01*
X0629140Y0219299D02*
X0642548Y0219299D01*
X0643280Y0220085D02*
X0628408Y0220085D01*
X0647581Y0210654D02*
X0870569Y0210654D01*
X0870569Y0209868D02*
X0648625Y0209868D01*
X0649230Y0209082D02*
X0870569Y0209082D01*
X0870569Y0208296D02*
X0649556Y0208296D01*
X0649688Y0207510D02*
X0870569Y0207510D01*
X0870569Y0206724D02*
X0649688Y0206724D01*
X0649477Y0205938D02*
X0870569Y0205938D01*
X0870569Y0205152D02*
X0649151Y0205152D01*
X0648434Y0204366D02*
X0870569Y0204366D01*
X0818650Y0220871D02*
X0809888Y0220871D01*
X0810447Y0221656D02*
X0818092Y0221656D01*
X0818092Y0222442D02*
X0815397Y0222442D01*
X0816183Y0223228D02*
X0818166Y0223228D01*
X0818952Y0224014D02*
X0816352Y0224014D01*
X0813141Y0222442D02*
X0810447Y0222442D01*
X0810372Y0223228D02*
X0812356Y0223228D01*
X0807141Y0224014D02*
X0805552Y0224014D01*
X0804766Y0223228D02*
X0806355Y0223228D01*
X0806281Y0222442D02*
X0787142Y0222442D01*
X0787409Y0221656D02*
X0806281Y0221656D01*
X0806839Y0220871D02*
X0787409Y0220871D01*
X0786511Y0223228D02*
X0802513Y0223228D01*
X0800952Y0230302D02*
X0798575Y0230302D01*
X0800166Y0231087D02*
X0758179Y0231087D01*
X0758686Y0230302D02*
X0796106Y0230302D01*
X0795320Y0229516D02*
X0758865Y0229516D01*
X0758800Y0228730D02*
X0795258Y0228730D01*
X0795258Y0227944D02*
X0758454Y0227944D01*
X0757490Y0227158D02*
X0795828Y0227158D01*
X0803699Y0233445D02*
X0870569Y0233445D01*
X0870569Y0234231D02*
X0829899Y0234231D01*
X0830483Y0235017D02*
X0870569Y0235017D01*
X0870569Y0235803D02*
X0830716Y0235803D01*
X0830705Y0236589D02*
X0870569Y0236589D01*
X0870569Y0237375D02*
X0830379Y0237375D01*
X0829649Y0238161D02*
X0870569Y0238161D01*
X0870569Y0238947D02*
X0807297Y0238947D01*
X0807297Y0239296D02*
X0806077Y0240516D01*
X0804352Y0240516D01*
X0803132Y0239296D01*
X0803132Y0237570D01*
X0804352Y0236350D01*
X0806077Y0236350D01*
X0807297Y0237570D01*
X0807297Y0239296D01*
X0806860Y0239732D02*
X0819080Y0239732D01*
X0819312Y0239500D02*
X0821038Y0239500D01*
X0822258Y0240720D01*
X0822258Y0242445D01*
X0821038Y0243665D01*
X0819312Y0243665D01*
X0818092Y0242445D01*
X0818092Y0240720D01*
X0819312Y0239500D01*
X0818294Y0240518D02*
X0795838Y0240518D01*
X0795880Y0240477D02*
X0794660Y0241697D01*
X0792934Y0241697D01*
X0791714Y0240477D01*
X0791714Y0238751D01*
X0792934Y0237531D01*
X0794660Y0237531D01*
X0795880Y0238751D01*
X0795880Y0240477D01*
X0795880Y0239732D02*
X0803568Y0239732D01*
X0803132Y0238947D02*
X0795880Y0238947D01*
X0795289Y0238161D02*
X0798059Y0238161D01*
X0800558Y0238161D02*
X0803132Y0238161D01*
X0803327Y0237375D02*
X0801344Y0237375D01*
X0801391Y0236589D02*
X0804113Y0236589D01*
X0806315Y0236589D02*
X0825787Y0236589D01*
X0825776Y0235803D02*
X0801391Y0235803D01*
X0807101Y0237375D02*
X0826112Y0237375D01*
X0826842Y0238161D02*
X0807297Y0238161D01*
X0818092Y0241304D02*
X0795052Y0241304D01*
X0792542Y0241304D02*
X0769059Y0241304D01*
X0769650Y0242090D02*
X0777022Y0242090D01*
X0776650Y0242245D02*
X0777558Y0241869D01*
X0778540Y0241869D01*
X0779448Y0242245D01*
X0780143Y0242939D01*
X0780519Y0243847D01*
X0780519Y0244830D01*
X0780143Y0245738D01*
X0779448Y0246433D01*
X0778540Y0246809D01*
X0777558Y0246809D01*
X0776650Y0246433D01*
X0775955Y0245738D01*
X0775579Y0244830D01*
X0775579Y0243847D01*
X0775955Y0242939D01*
X0776650Y0242245D01*
X0776018Y0242876D02*
X0769889Y0242876D01*
X0769884Y0243662D02*
X0775656Y0243662D01*
X0775579Y0244448D02*
X0769558Y0244448D01*
X0768836Y0245234D02*
X0775746Y0245234D01*
X0776237Y0246020D02*
X0758585Y0246020D01*
X0759600Y0246806D02*
X0777550Y0246806D01*
X0778547Y0246806D02*
X0870569Y0246806D01*
X0870569Y0247592D02*
X0767633Y0247592D01*
X0768652Y0248378D02*
X0870569Y0248378D01*
X0870569Y0249163D02*
X0769021Y0249163D01*
X0769102Y0249949D02*
X0870569Y0249949D01*
X0870569Y0250735D02*
X0768939Y0250735D01*
X0768454Y0251521D02*
X0870569Y0251521D01*
X0870569Y0246020D02*
X0779861Y0246020D01*
X0780352Y0245234D02*
X0870569Y0245234D01*
X0870569Y0244448D02*
X0780519Y0244448D01*
X0780442Y0243662D02*
X0819309Y0243662D01*
X0818523Y0242876D02*
X0780080Y0242876D01*
X0779075Y0242090D02*
X0818092Y0242090D01*
X0821041Y0243662D02*
X0870569Y0243662D01*
X0870569Y0242876D02*
X0821827Y0242876D01*
X0822258Y0242090D02*
X0870569Y0242090D01*
X0870569Y0241304D02*
X0822258Y0241304D01*
X0822056Y0240518D02*
X0870569Y0240518D01*
X0870569Y0239732D02*
X0821270Y0239732D01*
X0792305Y0238161D02*
X0758227Y0238161D01*
X0759221Y0238947D02*
X0791714Y0238947D01*
X0791714Y0239732D02*
X0759579Y0239732D01*
X0759653Y0240518D02*
X0791756Y0240518D01*
X0765779Y0241304D02*
X0759482Y0241304D01*
X0758987Y0242090D02*
X0765187Y0242090D01*
X0765630Y0247592D02*
X0759967Y0247592D01*
X0760047Y0248378D02*
X0764611Y0248378D01*
X0764243Y0249163D02*
X0759882Y0249163D01*
X0759396Y0249949D02*
X0764161Y0249949D01*
X0745096Y0259380D02*
X0731577Y0259380D01*
X0731576Y0260166D02*
X0745096Y0260166D01*
X0745096Y0260952D02*
X0731575Y0260952D01*
X0731574Y0261738D02*
X0745096Y0261738D01*
X0745096Y0262524D02*
X0731573Y0262524D01*
X0731572Y0263310D02*
X0745096Y0263310D01*
X0745096Y0264096D02*
X0731571Y0264096D01*
X0731570Y0264882D02*
X0745096Y0264882D01*
X0745096Y0265668D02*
X0731569Y0265668D01*
X0731568Y0266454D02*
X0745096Y0266454D01*
X0745096Y0267239D02*
X0731566Y0267239D01*
X0731565Y0268025D02*
X0745096Y0268025D01*
X0745096Y0268811D02*
X0731271Y0268811D01*
X0730489Y0269597D02*
X0743291Y0269597D01*
X0742505Y0270383D02*
X0729707Y0270383D01*
X0728925Y0271169D02*
X0742206Y0271169D01*
X0742206Y0271955D02*
X0728143Y0271955D01*
X0728465Y0272849D02*
X0729122Y0272636D01*
X0729758Y0272535D01*
X0729758Y0276527D01*
X0730545Y0276527D01*
X0730545Y0272535D01*
X0731180Y0272636D01*
X0731838Y0272849D01*
X0732454Y0273163D01*
X0733014Y0273570D01*
X0733503Y0274059D01*
X0733909Y0274618D01*
X0734223Y0275235D01*
X0734437Y0275892D01*
X0734537Y0276528D01*
X0730545Y0276528D01*
X0730545Y0277315D01*
X0734537Y0277315D01*
X0734437Y0277950D01*
X0734223Y0278608D01*
X0733909Y0279224D01*
X0733503Y0279784D01*
X0733014Y0280273D01*
X0732454Y0280679D01*
X0731838Y0280993D01*
X0731180Y0281207D01*
X0730545Y0281307D01*
X0730545Y0277315D01*
X0729758Y0277315D01*
X0729758Y0281307D01*
X0729122Y0281207D01*
X0728465Y0280993D01*
X0727848Y0280679D01*
X0727289Y0280273D01*
X0726800Y0279784D01*
X0726393Y0279224D01*
X0726079Y0278608D01*
X0725866Y0277950D01*
X0725765Y0277315D01*
X0729757Y0277315D01*
X0729757Y0276528D01*
X0725765Y0276528D01*
X0725866Y0275892D01*
X0726079Y0275235D01*
X0726393Y0274618D01*
X0726800Y0274059D01*
X0727289Y0273570D01*
X0727848Y0273163D01*
X0728465Y0272849D01*
X0728799Y0272741D02*
X0727362Y0272741D01*
X0727348Y0273527D02*
X0726580Y0273527D01*
X0726616Y0274313D02*
X0725798Y0274313D01*
X0725565Y0275099D02*
X0726149Y0275099D01*
X0725868Y0275884D02*
X0725565Y0275884D01*
X0725565Y0276670D02*
X0729757Y0276670D01*
X0729758Y0275884D02*
X0730545Y0275884D01*
X0730545Y0275099D02*
X0729758Y0275099D01*
X0729758Y0274313D02*
X0730545Y0274313D01*
X0730545Y0273527D02*
X0729758Y0273527D01*
X0729758Y0272741D02*
X0730545Y0272741D01*
X0731503Y0272741D02*
X0742621Y0272741D01*
X0742392Y0273527D02*
X0745096Y0273527D01*
X0745096Y0274313D02*
X0743191Y0274313D01*
X0743537Y0274659D02*
X0744145Y0276127D01*
X0744145Y0277716D01*
X0743537Y0279184D01*
X0742413Y0280307D01*
X0740946Y0280915D01*
X0739357Y0280915D01*
X0737889Y0280307D01*
X0736766Y0279184D01*
X0736158Y0277716D01*
X0736158Y0276127D01*
X0736766Y0274659D01*
X0737889Y0273536D01*
X0739357Y0272928D01*
X0740946Y0272928D01*
X0742413Y0273536D01*
X0743537Y0274659D01*
X0743719Y0275099D02*
X0745096Y0275099D01*
X0745096Y0275884D02*
X0744045Y0275884D01*
X0744145Y0276670D02*
X0745096Y0276670D01*
X0745096Y0277456D02*
X0744145Y0277456D01*
X0743927Y0278242D02*
X0745096Y0278242D01*
X0745096Y0279028D02*
X0743601Y0279028D01*
X0742906Y0279814D02*
X0745096Y0279814D01*
X0745096Y0280600D02*
X0741706Y0280600D01*
X0738596Y0280600D02*
X0732563Y0280600D01*
X0733472Y0279814D02*
X0737396Y0279814D01*
X0736701Y0279028D02*
X0734009Y0279028D01*
X0734342Y0278242D02*
X0736376Y0278242D01*
X0736158Y0277456D02*
X0734515Y0277456D01*
X0734434Y0275884D02*
X0736258Y0275884D01*
X0736158Y0276670D02*
X0730545Y0276670D01*
X0730545Y0277456D02*
X0729758Y0277456D01*
X0729758Y0278242D02*
X0730545Y0278242D01*
X0730545Y0279028D02*
X0729758Y0279028D01*
X0729758Y0279814D02*
X0730545Y0279814D01*
X0730545Y0280600D02*
X0729758Y0280600D01*
X0727740Y0280600D02*
X0725565Y0280600D01*
X0725565Y0281386D02*
X0745096Y0281386D01*
X0746484Y0281386D02*
X0852890Y0281386D01*
X0852795Y0281615D02*
X0853403Y0280147D01*
X0854527Y0279024D01*
X0855995Y0278416D01*
X0857583Y0278416D01*
X0859051Y0279024D01*
X0860175Y0280147D01*
X0860783Y0281615D01*
X0860783Y0283204D01*
X0860175Y0284672D01*
X0859051Y0285795D01*
X0857583Y0286403D01*
X0855995Y0286403D01*
X0854527Y0285795D01*
X0853403Y0284672D01*
X0852795Y0283204D01*
X0852795Y0281615D01*
X0852795Y0282172D02*
X0746484Y0282172D01*
X0746116Y0282958D02*
X0852795Y0282958D01*
X0853019Y0283744D02*
X0500490Y0283744D01*
X0500490Y0284530D02*
X0853344Y0284530D01*
X0854047Y0285315D02*
X0500490Y0285315D01*
X0500490Y0286101D02*
X0855266Y0286101D01*
X0855995Y0288416D02*
X0857583Y0288416D01*
X0859051Y0289024D01*
X0860175Y0290147D01*
X0860783Y0291615D01*
X0860783Y0293204D01*
X0860175Y0294672D01*
X0859051Y0295795D01*
X0857583Y0296403D01*
X0855995Y0296403D01*
X0854527Y0295795D01*
X0853403Y0294672D01*
X0852795Y0293204D01*
X0852795Y0291615D01*
X0853403Y0290147D01*
X0854527Y0289024D01*
X0855995Y0288416D01*
X0855890Y0288459D02*
X0500490Y0288459D01*
X0500490Y0287673D02*
X0870569Y0287673D01*
X0870569Y0286887D02*
X0500490Y0286887D01*
X0500490Y0289245D02*
X0854306Y0289245D01*
X0853520Y0290031D02*
X0500490Y0290031D01*
X0500490Y0290817D02*
X0853126Y0290817D01*
X0852800Y0291603D02*
X0500490Y0291603D01*
X0500490Y0292389D02*
X0852795Y0292389D01*
X0852795Y0293175D02*
X0500490Y0293175D01*
X0500490Y0293960D02*
X0853109Y0293960D01*
X0853478Y0294746D02*
X0500926Y0294746D01*
X0501712Y0295532D02*
X0854264Y0295532D01*
X0855790Y0296318D02*
X0502497Y0296318D01*
X0503283Y0297104D02*
X0867775Y0297104D01*
X0868561Y0296318D02*
X0857788Y0296318D01*
X0859314Y0295532D02*
X0869347Y0295532D01*
X0870133Y0294746D02*
X0860100Y0294746D01*
X0860469Y0293960D02*
X0870569Y0293960D01*
X0870569Y0293175D02*
X0860783Y0293175D01*
X0860783Y0292389D02*
X0870569Y0292389D01*
X0870569Y0291603D02*
X0860778Y0291603D01*
X0860452Y0290817D02*
X0870569Y0290817D01*
X0870569Y0290031D02*
X0860058Y0290031D01*
X0859273Y0289245D02*
X0870569Y0289245D01*
X0870569Y0288459D02*
X0857688Y0288459D01*
X0858312Y0286101D02*
X0870569Y0286101D01*
X0870569Y0285315D02*
X0859531Y0285315D01*
X0860234Y0284530D02*
X0870569Y0284530D01*
X0870569Y0283744D02*
X0860559Y0283744D01*
X0860783Y0282958D02*
X0870569Y0282958D01*
X0870569Y0282172D02*
X0860783Y0282172D01*
X0860688Y0281386D02*
X0870569Y0281386D01*
X0870569Y0280600D02*
X0860362Y0280600D01*
X0859842Y0279814D02*
X0870569Y0279814D01*
X0870569Y0279028D02*
X0859056Y0279028D01*
X0858836Y0275884D02*
X0870569Y0275884D01*
X0870569Y0275099D02*
X0859748Y0275099D01*
X0860323Y0274313D02*
X0870569Y0274313D01*
X0870569Y0273527D02*
X0860649Y0273527D01*
X0860783Y0272741D02*
X0870569Y0272741D01*
X0870569Y0271955D02*
X0860783Y0271955D01*
X0860598Y0271169D02*
X0870569Y0271169D01*
X0870569Y0270383D02*
X0860272Y0270383D01*
X0859625Y0269597D02*
X0870569Y0269597D01*
X0870569Y0268811D02*
X0858538Y0268811D01*
X0853953Y0269597D02*
X0746484Y0269597D01*
X0746484Y0270383D02*
X0853306Y0270383D01*
X0852980Y0271169D02*
X0746484Y0271169D01*
X0746484Y0271955D02*
X0852795Y0271955D01*
X0852795Y0272741D02*
X0746484Y0272741D01*
X0746484Y0273527D02*
X0852929Y0273527D01*
X0853255Y0274313D02*
X0746484Y0274313D01*
X0746484Y0275099D02*
X0853830Y0275099D01*
X0854742Y0275884D02*
X0746484Y0275884D01*
X0746484Y0276670D02*
X0870569Y0276670D01*
X0870569Y0277456D02*
X0746484Y0277456D01*
X0746484Y0278242D02*
X0870569Y0278242D01*
X0854522Y0279028D02*
X0746484Y0279028D01*
X0746484Y0279814D02*
X0853737Y0279814D01*
X0853216Y0280600D02*
X0746484Y0280600D01*
X0737112Y0274313D02*
X0733687Y0274313D01*
X0734154Y0275099D02*
X0736583Y0275099D01*
X0737910Y0273527D02*
X0732954Y0273527D01*
X0725788Y0277456D02*
X0725565Y0277456D01*
X0725565Y0278242D02*
X0725961Y0278242D01*
X0726294Y0279028D02*
X0725565Y0279028D01*
X0725565Y0279814D02*
X0726830Y0279814D01*
X0745090Y0269597D02*
X0745096Y0269597D01*
X0770928Y0303163D02*
X0774271Y0301778D01*
X0777890Y0301778D01*
X0781233Y0303163D01*
X0783792Y0305722D01*
X0785176Y0309065D01*
X0785176Y0312683D01*
X0783792Y0316027D01*
X0781233Y0318585D01*
X0777890Y0319970D01*
X0774271Y0319970D01*
X0770928Y0318585D01*
X0768369Y0316027D01*
X0766984Y0312683D01*
X0766984Y0309065D01*
X0768369Y0305722D01*
X0770928Y0303163D01*
X0770699Y0303391D02*
X0509571Y0303391D01*
X0508785Y0302605D02*
X0772273Y0302605D01*
X0774171Y0301820D02*
X0507999Y0301820D01*
X0507213Y0301034D02*
X0863845Y0301034D01*
X0863060Y0301820D02*
X0777990Y0301820D01*
X0779888Y0302605D02*
X0862274Y0302605D01*
X0861488Y0303391D02*
X0781462Y0303391D01*
X0782247Y0304177D02*
X0860702Y0304177D01*
X0859916Y0304963D02*
X0783033Y0304963D01*
X0783803Y0305749D02*
X0859130Y0305749D01*
X0858344Y0306535D02*
X0784129Y0306535D01*
X0784454Y0307321D02*
X0857558Y0307321D01*
X0856772Y0308107D02*
X0784780Y0308107D01*
X0785105Y0308893D02*
X0855986Y0308893D01*
X0855200Y0309679D02*
X0835571Y0309679D01*
X0834655Y0309299D02*
X0837404Y0310438D01*
X0839508Y0312542D01*
X0840647Y0315292D01*
X0840647Y0318267D01*
X0839508Y0321017D01*
X0837404Y0323121D01*
X0834655Y0324260D01*
X0831679Y0324260D01*
X0828930Y0323121D01*
X0826825Y0321017D01*
X0825687Y0318267D01*
X0825687Y0315292D01*
X0826825Y0312542D01*
X0828930Y0310438D01*
X0831679Y0309299D01*
X0834655Y0309299D01*
X0837431Y0310465D02*
X0854415Y0310465D01*
X0853629Y0311251D02*
X0838217Y0311251D01*
X0839003Y0312036D02*
X0852843Y0312036D01*
X0852057Y0312822D02*
X0839625Y0312822D01*
X0839950Y0313608D02*
X0851271Y0313608D01*
X0850485Y0314394D02*
X0840276Y0314394D01*
X0840601Y0315180D02*
X0849699Y0315180D01*
X0848913Y0315966D02*
X0840647Y0315966D01*
X0840647Y0316752D02*
X0848127Y0316752D01*
X0847341Y0317538D02*
X0840647Y0317538D01*
X0840624Y0318324D02*
X0846555Y0318324D01*
X0845769Y0319110D02*
X0840298Y0319110D01*
X0839973Y0319896D02*
X0844984Y0319896D01*
X0844198Y0320681D02*
X0839647Y0320681D01*
X0839058Y0321467D02*
X0843412Y0321467D01*
X0842626Y0322253D02*
X0838272Y0322253D01*
X0837486Y0323039D02*
X0841840Y0323039D01*
X0841054Y0323825D02*
X0835704Y0323825D01*
X0838696Y0326183D02*
X0532362Y0326183D01*
X0533148Y0326969D02*
X0837910Y0326969D01*
X0837124Y0327755D02*
X0533934Y0327755D01*
X0534720Y0328541D02*
X0836339Y0328541D01*
X0835553Y0329327D02*
X0535506Y0329327D01*
X0536292Y0330112D02*
X0834767Y0330112D01*
X0833981Y0330898D02*
X0796840Y0330898D01*
X0795410Y0330306D02*
X0798392Y0331541D01*
X0800674Y0333823D01*
X0801909Y0336805D01*
X0801909Y0340032D01*
X0800674Y0343013D01*
X0798392Y0345295D01*
X0795410Y0346530D01*
X0792183Y0346530D01*
X0789202Y0345295D01*
X0786920Y0343013D01*
X0785685Y0340032D01*
X0785685Y0336805D01*
X0786920Y0333823D01*
X0789202Y0331541D01*
X0792183Y0330306D01*
X0795410Y0330306D01*
X0798535Y0331684D02*
X0833195Y0331684D01*
X0832409Y0332470D02*
X0799321Y0332470D01*
X0800107Y0333256D02*
X0831623Y0333256D01*
X0830837Y0334042D02*
X0800764Y0334042D01*
X0801090Y0334828D02*
X0830051Y0334828D01*
X0829265Y0335614D02*
X0801415Y0335614D01*
X0801741Y0336400D02*
X0828479Y0336400D01*
X0827693Y0337186D02*
X0801909Y0337186D01*
X0801909Y0337972D02*
X0826908Y0337972D01*
X0826122Y0338757D02*
X0801909Y0338757D01*
X0801909Y0339543D02*
X0825336Y0339543D01*
X0824550Y0340329D02*
X0801785Y0340329D01*
X0801460Y0341115D02*
X0823764Y0341115D01*
X0822978Y0341901D02*
X0801134Y0341901D01*
X0800809Y0342687D02*
X0822192Y0342687D01*
X0821406Y0343473D02*
X0800214Y0343473D01*
X0799428Y0344259D02*
X0820620Y0344259D01*
X0819834Y0345045D02*
X0798642Y0345045D01*
X0797098Y0345831D02*
X0819048Y0345831D01*
X0818263Y0346617D02*
X0781198Y0346617D01*
X0781198Y0347325D02*
X0780419Y0349206D01*
X0778980Y0350646D01*
X0777098Y0351425D01*
X0775062Y0351425D01*
X0773181Y0350646D01*
X0771741Y0349206D01*
X0770962Y0347325D01*
X0770962Y0345289D01*
X0771741Y0343408D01*
X0773181Y0341968D01*
X0775062Y0341189D01*
X0777098Y0341189D01*
X0778980Y0341968D01*
X0780419Y0343408D01*
X0781198Y0345289D01*
X0781198Y0347325D01*
X0781166Y0347403D02*
X0817477Y0347403D01*
X0816691Y0348188D02*
X0780841Y0348188D01*
X0780515Y0348974D02*
X0815905Y0348974D01*
X0815119Y0349760D02*
X0779865Y0349760D01*
X0779079Y0350546D02*
X0814333Y0350546D01*
X0813547Y0351332D02*
X0777323Y0351332D01*
X0774838Y0351332D02*
X0557511Y0351332D01*
X0556725Y0350546D02*
X0773081Y0350546D01*
X0772295Y0349760D02*
X0555939Y0349760D01*
X0555154Y0348974D02*
X0771645Y0348974D01*
X0771320Y0348188D02*
X0604464Y0348188D01*
X0604251Y0348401D02*
X0603343Y0348777D01*
X0602361Y0348777D01*
X0601453Y0348401D01*
X0600758Y0347706D01*
X0600382Y0346798D01*
X0600382Y0345816D01*
X0600758Y0344908D01*
X0601453Y0344213D01*
X0602361Y0343837D01*
X0603343Y0343837D01*
X0604251Y0344213D01*
X0604946Y0344908D01*
X0605322Y0345816D01*
X0605322Y0346798D01*
X0604946Y0347706D01*
X0604251Y0348401D01*
X0605072Y0347403D02*
X0770994Y0347403D01*
X0770962Y0346617D02*
X0605322Y0346617D01*
X0605322Y0345831D02*
X0707818Y0345831D01*
X0707637Y0345756D02*
X0706514Y0344632D01*
X0705906Y0343164D01*
X0705906Y0341576D01*
X0706514Y0340108D01*
X0707637Y0338984D01*
X0709105Y0338376D01*
X0710694Y0338376D01*
X0712162Y0338984D01*
X0713285Y0340108D01*
X0713893Y0341576D01*
X0713893Y0343164D01*
X0713285Y0344632D01*
X0712162Y0345756D01*
X0710694Y0346364D01*
X0709105Y0346364D01*
X0707637Y0345756D01*
X0706926Y0345045D02*
X0605003Y0345045D01*
X0604297Y0344259D02*
X0706359Y0344259D01*
X0706033Y0343473D02*
X0566110Y0343473D01*
X0565865Y0343229D02*
X0566560Y0343924D01*
X0566936Y0344831D01*
X0566936Y0345814D01*
X0566560Y0346722D01*
X0565865Y0347417D01*
X0564958Y0347793D01*
X0563975Y0347793D01*
X0563067Y0347417D01*
X0562372Y0346722D01*
X0561996Y0345814D01*
X0561996Y0344831D01*
X0562372Y0343924D01*
X0563067Y0343229D01*
X0563975Y0342853D01*
X0564958Y0342853D01*
X0565865Y0343229D01*
X0566699Y0344259D02*
X0601407Y0344259D01*
X0600701Y0345045D02*
X0566936Y0345045D01*
X0566929Y0345831D02*
X0600382Y0345831D01*
X0600382Y0346617D02*
X0566604Y0346617D01*
X0565880Y0347403D02*
X0600632Y0347403D01*
X0601240Y0348188D02*
X0554368Y0348188D01*
X0553582Y0347403D02*
X0563053Y0347403D01*
X0562329Y0346617D02*
X0552796Y0346617D01*
X0552010Y0345831D02*
X0562003Y0345831D01*
X0561996Y0345045D02*
X0551224Y0345045D01*
X0550438Y0344259D02*
X0562233Y0344259D01*
X0562823Y0343473D02*
X0549652Y0343473D01*
X0548866Y0342687D02*
X0613726Y0342687D01*
X0614172Y0342872D02*
X0613264Y0342496D01*
X0612569Y0341801D01*
X0612193Y0340893D01*
X0612193Y0339910D01*
X0612569Y0339002D01*
X0613264Y0338308D01*
X0614172Y0337931D01*
X0615154Y0337931D01*
X0616062Y0338308D01*
X0616757Y0339002D01*
X0617133Y0339910D01*
X0617133Y0340893D01*
X0616757Y0341801D01*
X0616062Y0342496D01*
X0615154Y0342872D01*
X0614172Y0342872D01*
X0615600Y0342687D02*
X0705906Y0342687D01*
X0705906Y0341901D02*
X0616657Y0341901D01*
X0617041Y0341115D02*
X0706096Y0341115D01*
X0706422Y0340329D02*
X0617133Y0340329D01*
X0616981Y0339543D02*
X0707078Y0339543D01*
X0708185Y0338757D02*
X0616512Y0338757D01*
X0615251Y0337972D02*
X0750252Y0337972D01*
X0750252Y0338757D02*
X0741614Y0338757D01*
X0742162Y0338984D02*
X0743285Y0340108D01*
X0743893Y0341576D01*
X0743893Y0343164D01*
X0743285Y0344632D01*
X0742162Y0345756D01*
X0740694Y0346364D01*
X0739105Y0346364D01*
X0737637Y0345756D01*
X0736514Y0344632D01*
X0735906Y0343164D01*
X0735906Y0341576D01*
X0736514Y0340108D01*
X0737637Y0338984D01*
X0739105Y0338376D01*
X0740694Y0338376D01*
X0742162Y0338984D01*
X0742721Y0339543D02*
X0750252Y0339543D01*
X0750252Y0340032D02*
X0750252Y0336805D01*
X0751487Y0333823D01*
X0753769Y0331541D01*
X0756750Y0330306D01*
X0759977Y0330306D01*
X0762959Y0331541D01*
X0765241Y0333823D01*
X0766476Y0336805D01*
X0766476Y0340032D01*
X0765241Y0343013D01*
X0762959Y0345295D01*
X0759977Y0346530D01*
X0756750Y0346530D01*
X0753769Y0345295D01*
X0751487Y0343013D01*
X0750252Y0340032D01*
X0750375Y0340329D02*
X0743377Y0340329D01*
X0743702Y0341115D02*
X0750701Y0341115D01*
X0751026Y0341901D02*
X0743893Y0341901D01*
X0743893Y0342687D02*
X0751352Y0342687D01*
X0751947Y0343473D02*
X0743765Y0343473D01*
X0743440Y0344259D02*
X0752733Y0344259D01*
X0753519Y0345045D02*
X0742872Y0345045D01*
X0741981Y0345831D02*
X0755062Y0345831D01*
X0761665Y0345831D02*
X0770962Y0345831D01*
X0771063Y0345045D02*
X0763209Y0345045D01*
X0763995Y0344259D02*
X0771389Y0344259D01*
X0771714Y0343473D02*
X0764781Y0343473D01*
X0765376Y0342687D02*
X0772462Y0342687D01*
X0773343Y0341901D02*
X0765701Y0341901D01*
X0766027Y0341115D02*
X0786134Y0341115D01*
X0785808Y0340329D02*
X0766352Y0340329D01*
X0766476Y0339543D02*
X0785685Y0339543D01*
X0785685Y0338757D02*
X0766476Y0338757D01*
X0766476Y0337972D02*
X0785685Y0337972D01*
X0785685Y0337186D02*
X0766476Y0337186D01*
X0766308Y0336400D02*
X0785853Y0336400D01*
X0786178Y0335614D02*
X0765982Y0335614D01*
X0765657Y0334828D02*
X0786504Y0334828D01*
X0786829Y0334042D02*
X0765331Y0334042D01*
X0764674Y0333256D02*
X0787487Y0333256D01*
X0788273Y0332470D02*
X0763888Y0332470D01*
X0763102Y0331684D02*
X0789059Y0331684D01*
X0790754Y0330898D02*
X0761407Y0330898D01*
X0755321Y0330898D02*
X0537078Y0330898D01*
X0537863Y0331684D02*
X0753626Y0331684D01*
X0752840Y0332470D02*
X0538649Y0332470D01*
X0539435Y0333256D02*
X0752054Y0333256D01*
X0751396Y0334042D02*
X0540221Y0334042D01*
X0541007Y0334828D02*
X0751071Y0334828D01*
X0750745Y0335614D02*
X0541793Y0335614D01*
X0542579Y0336400D02*
X0750420Y0336400D01*
X0750252Y0337186D02*
X0543365Y0337186D01*
X0544151Y0337972D02*
X0614075Y0337972D01*
X0612814Y0338757D02*
X0544937Y0338757D01*
X0545723Y0339543D02*
X0612345Y0339543D01*
X0612193Y0340329D02*
X0546509Y0340329D01*
X0547294Y0341115D02*
X0612285Y0341115D01*
X0612669Y0341901D02*
X0548080Y0341901D01*
X0558297Y0352118D02*
X0812761Y0352118D01*
X0811975Y0352904D02*
X0559083Y0352904D01*
X0559869Y0353690D02*
X0811189Y0353690D01*
X0810403Y0354476D02*
X0560655Y0354476D01*
X0561441Y0355262D02*
X0809617Y0355262D01*
X0808832Y0356048D02*
X0562227Y0356048D01*
X0568751Y0320773D02*
X0567283Y0320165D01*
X0566159Y0319042D01*
X0565551Y0317574D01*
X0565551Y0315985D01*
X0566159Y0314517D01*
X0567283Y0313394D01*
X0568751Y0312786D01*
X0570339Y0312786D01*
X0571807Y0313394D01*
X0572931Y0314517D01*
X0573539Y0315985D01*
X0573539Y0317574D01*
X0572931Y0319042D01*
X0571807Y0320165D01*
X0570339Y0320773D01*
X0568751Y0320773D01*
X0568529Y0320681D02*
X0544372Y0320681D01*
X0544233Y0321017D02*
X0545372Y0318267D01*
X0545372Y0315292D01*
X0544233Y0312542D01*
X0542129Y0310438D01*
X0539379Y0309299D01*
X0536403Y0309299D01*
X0533654Y0310438D01*
X0531550Y0312542D01*
X0530411Y0315292D01*
X0530411Y0318267D01*
X0531550Y0321017D01*
X0533654Y0323121D01*
X0536403Y0324260D01*
X0539379Y0324260D01*
X0542129Y0323121D01*
X0544233Y0321017D01*
X0543782Y0321467D02*
X0827276Y0321467D01*
X0826687Y0320681D02*
X0700561Y0320681D01*
X0700339Y0320773D02*
X0698751Y0320773D01*
X0697283Y0320165D01*
X0696159Y0319042D01*
X0695551Y0317574D01*
X0695551Y0315985D01*
X0696159Y0314517D01*
X0697283Y0313394D01*
X0698751Y0312786D01*
X0700339Y0312786D01*
X0701807Y0313394D01*
X0702931Y0314517D01*
X0703539Y0315985D01*
X0703539Y0317574D01*
X0702931Y0319042D01*
X0701807Y0320165D01*
X0700339Y0320773D01*
X0698529Y0320681D02*
X0690561Y0320681D01*
X0690339Y0320773D02*
X0691807Y0320165D01*
X0692931Y0319042D01*
X0693539Y0317574D01*
X0693539Y0315985D01*
X0692931Y0314517D01*
X0691807Y0313394D01*
X0690339Y0312786D01*
X0688751Y0312786D01*
X0687283Y0313394D01*
X0686159Y0314517D01*
X0685551Y0315985D01*
X0685551Y0317574D01*
X0686159Y0319042D01*
X0687283Y0320165D01*
X0688751Y0320773D01*
X0690339Y0320773D01*
X0688529Y0320681D02*
X0680561Y0320681D01*
X0680339Y0320773D02*
X0681807Y0320165D01*
X0682931Y0319042D01*
X0683539Y0317574D01*
X0683539Y0315985D01*
X0682931Y0314517D01*
X0681807Y0313394D01*
X0680339Y0312786D01*
X0678751Y0312786D01*
X0677283Y0313394D01*
X0676159Y0314517D01*
X0675551Y0315985D01*
X0675551Y0317574D01*
X0676159Y0319042D01*
X0677283Y0320165D01*
X0678751Y0320773D01*
X0680339Y0320773D01*
X0678529Y0320681D02*
X0670561Y0320681D01*
X0670339Y0320773D02*
X0671807Y0320165D01*
X0672931Y0319042D01*
X0673539Y0317574D01*
X0673539Y0315985D01*
X0672931Y0314517D01*
X0671807Y0313394D01*
X0670339Y0312786D01*
X0668751Y0312786D01*
X0667283Y0313394D01*
X0666159Y0314517D01*
X0665551Y0315985D01*
X0665551Y0317574D01*
X0666159Y0319042D01*
X0667283Y0320165D01*
X0668751Y0320773D01*
X0670339Y0320773D01*
X0668529Y0320681D02*
X0660561Y0320681D01*
X0660339Y0320773D02*
X0661807Y0320165D01*
X0662931Y0319042D01*
X0663539Y0317574D01*
X0663539Y0315985D01*
X0662931Y0314517D01*
X0661807Y0313394D01*
X0660339Y0312786D01*
X0658751Y0312786D01*
X0657283Y0313394D01*
X0656159Y0314517D01*
X0655551Y0315985D01*
X0655551Y0317574D01*
X0656159Y0319042D01*
X0657283Y0320165D01*
X0658751Y0320773D01*
X0660339Y0320773D01*
X0658529Y0320681D02*
X0650561Y0320681D01*
X0650339Y0320773D02*
X0651807Y0320165D01*
X0652931Y0319042D01*
X0653539Y0317574D01*
X0653539Y0315985D01*
X0652931Y0314517D01*
X0651807Y0313394D01*
X0650339Y0312786D01*
X0648751Y0312786D01*
X0647283Y0313394D01*
X0646159Y0314517D01*
X0645551Y0315985D01*
X0645551Y0317574D01*
X0646159Y0319042D01*
X0647283Y0320165D01*
X0648751Y0320773D01*
X0650339Y0320773D01*
X0648529Y0320681D02*
X0640561Y0320681D01*
X0640339Y0320773D02*
X0641807Y0320165D01*
X0642931Y0319042D01*
X0643539Y0317574D01*
X0643539Y0315985D01*
X0642931Y0314517D01*
X0641807Y0313394D01*
X0640339Y0312786D01*
X0638751Y0312786D01*
X0637283Y0313394D01*
X0636159Y0314517D01*
X0635551Y0315985D01*
X0635551Y0317574D01*
X0636159Y0319042D01*
X0637283Y0320165D01*
X0638751Y0320773D01*
X0640339Y0320773D01*
X0638529Y0320681D02*
X0630561Y0320681D01*
X0630339Y0320773D02*
X0631807Y0320165D01*
X0632931Y0319042D01*
X0633539Y0317574D01*
X0633539Y0315985D01*
X0632931Y0314517D01*
X0631807Y0313394D01*
X0630339Y0312786D01*
X0628751Y0312786D01*
X0627283Y0313394D01*
X0626159Y0314517D01*
X0625551Y0315985D01*
X0625551Y0317574D01*
X0626159Y0319042D01*
X0627283Y0320165D01*
X0628751Y0320773D01*
X0630339Y0320773D01*
X0628529Y0320681D02*
X0620561Y0320681D01*
X0620339Y0320773D02*
X0621807Y0320165D01*
X0622931Y0319042D01*
X0623539Y0317574D01*
X0623539Y0315985D01*
X0622931Y0314517D01*
X0621807Y0313394D01*
X0620339Y0312786D01*
X0618751Y0312786D01*
X0617283Y0313394D01*
X0616159Y0314517D01*
X0615551Y0315985D01*
X0615551Y0317574D01*
X0616159Y0319042D01*
X0617283Y0320165D01*
X0618751Y0320773D01*
X0620339Y0320773D01*
X0618529Y0320681D02*
X0610561Y0320681D01*
X0610339Y0320773D02*
X0611807Y0320165D01*
X0612931Y0319042D01*
X0613539Y0317574D01*
X0613539Y0315985D01*
X0612931Y0314517D01*
X0611807Y0313394D01*
X0610339Y0312786D01*
X0608751Y0312786D01*
X0607283Y0313394D01*
X0606159Y0314517D01*
X0605551Y0315985D01*
X0605551Y0317574D01*
X0606159Y0319042D01*
X0607283Y0320165D01*
X0608751Y0320773D01*
X0610339Y0320773D01*
X0608529Y0320681D02*
X0600561Y0320681D01*
X0600339Y0320773D02*
X0598751Y0320773D01*
X0597283Y0320165D01*
X0596159Y0319042D01*
X0595551Y0317574D01*
X0595551Y0315985D01*
X0596159Y0314517D01*
X0597283Y0313394D01*
X0598751Y0312786D01*
X0600339Y0312786D01*
X0601807Y0313394D01*
X0602931Y0314517D01*
X0603539Y0315985D01*
X0603539Y0317574D01*
X0602931Y0319042D01*
X0601807Y0320165D01*
X0600339Y0320773D01*
X0598529Y0320681D02*
X0590561Y0320681D01*
X0590339Y0320773D02*
X0591807Y0320165D01*
X0592931Y0319042D01*
X0593539Y0317574D01*
X0593539Y0315985D01*
X0592931Y0314517D01*
X0591807Y0313394D01*
X0590339Y0312786D01*
X0588751Y0312786D01*
X0587283Y0313394D01*
X0586159Y0314517D01*
X0585551Y0315985D01*
X0585551Y0317574D01*
X0586159Y0319042D01*
X0587283Y0320165D01*
X0588751Y0320773D01*
X0590339Y0320773D01*
X0588529Y0320681D02*
X0580561Y0320681D01*
X0580339Y0320773D02*
X0581807Y0320165D01*
X0582931Y0319042D01*
X0583539Y0317574D01*
X0583539Y0315985D01*
X0582931Y0314517D01*
X0581807Y0313394D01*
X0580339Y0312786D01*
X0578751Y0312786D01*
X0577283Y0313394D01*
X0576159Y0314517D01*
X0575551Y0315985D01*
X0575551Y0317574D01*
X0576159Y0319042D01*
X0577283Y0320165D01*
X0578751Y0320773D01*
X0580339Y0320773D01*
X0578529Y0320681D02*
X0570561Y0320681D01*
X0572077Y0319896D02*
X0577013Y0319896D01*
X0576227Y0319110D02*
X0572863Y0319110D01*
X0573228Y0318324D02*
X0575862Y0318324D01*
X0575551Y0317538D02*
X0573539Y0317538D01*
X0573539Y0316752D02*
X0575551Y0316752D01*
X0575559Y0315966D02*
X0573531Y0315966D01*
X0573205Y0315180D02*
X0575885Y0315180D01*
X0576282Y0314394D02*
X0572808Y0314394D01*
X0572022Y0313608D02*
X0577068Y0313608D01*
X0578662Y0312822D02*
X0570428Y0312822D01*
X0568662Y0312822D02*
X0544349Y0312822D01*
X0544674Y0313608D02*
X0567068Y0313608D01*
X0566282Y0314394D02*
X0545000Y0314394D01*
X0545326Y0315180D02*
X0565885Y0315180D01*
X0565559Y0315966D02*
X0545372Y0315966D01*
X0545372Y0316752D02*
X0565551Y0316752D01*
X0565551Y0317538D02*
X0545372Y0317538D01*
X0545348Y0318324D02*
X0565862Y0318324D01*
X0566227Y0319110D02*
X0545023Y0319110D01*
X0544697Y0319896D02*
X0567013Y0319896D01*
X0582077Y0319896D02*
X0587013Y0319896D01*
X0586227Y0319110D02*
X0582863Y0319110D01*
X0583228Y0318324D02*
X0585862Y0318324D01*
X0585551Y0317538D02*
X0583539Y0317538D01*
X0583539Y0316752D02*
X0585551Y0316752D01*
X0585559Y0315966D02*
X0583531Y0315966D01*
X0583205Y0315180D02*
X0585885Y0315180D01*
X0586282Y0314394D02*
X0582808Y0314394D01*
X0582022Y0313608D02*
X0587068Y0313608D01*
X0588662Y0312822D02*
X0580428Y0312822D01*
X0590428Y0312822D02*
X0598662Y0312822D01*
X0600428Y0312822D02*
X0608662Y0312822D01*
X0610428Y0312822D02*
X0618662Y0312822D01*
X0620428Y0312822D02*
X0628662Y0312822D01*
X0630428Y0312822D02*
X0638662Y0312822D01*
X0640428Y0312822D02*
X0648662Y0312822D01*
X0650428Y0312822D02*
X0658662Y0312822D01*
X0660428Y0312822D02*
X0668662Y0312822D01*
X0670428Y0312822D02*
X0678662Y0312822D01*
X0680428Y0312822D02*
X0688662Y0312822D01*
X0690428Y0312822D02*
X0698662Y0312822D01*
X0700428Y0312822D02*
X0767042Y0312822D01*
X0766984Y0312036D02*
X0543727Y0312036D01*
X0542941Y0311251D02*
X0766984Y0311251D01*
X0766984Y0310465D02*
X0542155Y0310465D01*
X0540296Y0309679D02*
X0766984Y0309679D01*
X0767055Y0308893D02*
X0515072Y0308893D01*
X0515858Y0309679D02*
X0535487Y0309679D01*
X0533628Y0310465D02*
X0516644Y0310465D01*
X0517430Y0311251D02*
X0532842Y0311251D01*
X0532056Y0312036D02*
X0518216Y0312036D01*
X0519002Y0312822D02*
X0531434Y0312822D01*
X0531108Y0313608D02*
X0519787Y0313608D01*
X0520573Y0314394D02*
X0530783Y0314394D01*
X0530457Y0315180D02*
X0521359Y0315180D01*
X0522145Y0315966D02*
X0530411Y0315966D01*
X0530411Y0316752D02*
X0522931Y0316752D01*
X0523717Y0317538D02*
X0530411Y0317538D01*
X0530434Y0318324D02*
X0524503Y0318324D01*
X0525289Y0319110D02*
X0530760Y0319110D01*
X0531085Y0319896D02*
X0526075Y0319896D01*
X0526861Y0320681D02*
X0531411Y0320681D01*
X0532001Y0321467D02*
X0527647Y0321467D01*
X0528433Y0322253D02*
X0532786Y0322253D01*
X0533572Y0323039D02*
X0529218Y0323039D01*
X0530004Y0323825D02*
X0535354Y0323825D01*
X0531576Y0325397D02*
X0839482Y0325397D01*
X0840268Y0324611D02*
X0530790Y0324611D01*
X0540429Y0323825D02*
X0830630Y0323825D01*
X0828848Y0323039D02*
X0542210Y0323039D01*
X0542996Y0322253D02*
X0828062Y0322253D01*
X0826361Y0319896D02*
X0778070Y0319896D01*
X0779967Y0319110D02*
X0826036Y0319110D01*
X0825710Y0318324D02*
X0781494Y0318324D01*
X0782280Y0317538D02*
X0825687Y0317538D01*
X0825687Y0316752D02*
X0783066Y0316752D01*
X0783817Y0315966D02*
X0825687Y0315966D01*
X0825733Y0315180D02*
X0784142Y0315180D01*
X0784468Y0314394D02*
X0826058Y0314394D01*
X0826384Y0313608D02*
X0784793Y0313608D01*
X0785119Y0312822D02*
X0826709Y0312822D01*
X0827331Y0312036D02*
X0785176Y0312036D01*
X0785176Y0311251D02*
X0828117Y0311251D01*
X0828903Y0310465D02*
X0785176Y0310465D01*
X0785176Y0309679D02*
X0830763Y0309679D01*
X0864631Y0300248D02*
X0506427Y0300248D01*
X0505641Y0299462D02*
X0865417Y0299462D01*
X0866203Y0298676D02*
X0504855Y0298676D01*
X0504069Y0297890D02*
X0866989Y0297890D01*
X0774091Y0319896D02*
X0702077Y0319896D01*
X0702863Y0319110D02*
X0772194Y0319110D01*
X0770666Y0318324D02*
X0703228Y0318324D01*
X0703539Y0317538D02*
X0769880Y0317538D01*
X0769095Y0316752D02*
X0703539Y0316752D01*
X0703531Y0315966D02*
X0768344Y0315966D01*
X0768019Y0315180D02*
X0703205Y0315180D01*
X0702808Y0314394D02*
X0767693Y0314394D01*
X0767367Y0313608D02*
X0702022Y0313608D01*
X0697068Y0313608D02*
X0692022Y0313608D01*
X0692808Y0314394D02*
X0696282Y0314394D01*
X0695885Y0315180D02*
X0693205Y0315180D01*
X0693531Y0315966D02*
X0695559Y0315966D01*
X0695551Y0316752D02*
X0693539Y0316752D01*
X0693539Y0317538D02*
X0695551Y0317538D01*
X0695862Y0318324D02*
X0693228Y0318324D01*
X0692863Y0319110D02*
X0696227Y0319110D01*
X0697013Y0319896D02*
X0692077Y0319896D01*
X0687013Y0319896D02*
X0682077Y0319896D01*
X0682863Y0319110D02*
X0686227Y0319110D01*
X0685862Y0318324D02*
X0683228Y0318324D01*
X0683539Y0317538D02*
X0685551Y0317538D01*
X0685551Y0316752D02*
X0683539Y0316752D01*
X0683531Y0315966D02*
X0685559Y0315966D01*
X0685885Y0315180D02*
X0683205Y0315180D01*
X0682808Y0314394D02*
X0686282Y0314394D01*
X0687068Y0313608D02*
X0682022Y0313608D01*
X0677068Y0313608D02*
X0672022Y0313608D01*
X0672808Y0314394D02*
X0676282Y0314394D01*
X0675885Y0315180D02*
X0673205Y0315180D01*
X0673531Y0315966D02*
X0675559Y0315966D01*
X0675551Y0316752D02*
X0673539Y0316752D01*
X0673539Y0317538D02*
X0675551Y0317538D01*
X0675862Y0318324D02*
X0673228Y0318324D01*
X0672863Y0319110D02*
X0676227Y0319110D01*
X0677013Y0319896D02*
X0672077Y0319896D01*
X0667013Y0319896D02*
X0662077Y0319896D01*
X0662863Y0319110D02*
X0666227Y0319110D01*
X0665862Y0318324D02*
X0663228Y0318324D01*
X0663539Y0317538D02*
X0665551Y0317538D01*
X0665551Y0316752D02*
X0663539Y0316752D01*
X0663531Y0315966D02*
X0665559Y0315966D01*
X0665885Y0315180D02*
X0663205Y0315180D01*
X0662808Y0314394D02*
X0666282Y0314394D01*
X0667068Y0313608D02*
X0662022Y0313608D01*
X0657068Y0313608D02*
X0652022Y0313608D01*
X0652808Y0314394D02*
X0656282Y0314394D01*
X0655885Y0315180D02*
X0653205Y0315180D01*
X0653531Y0315966D02*
X0655559Y0315966D01*
X0655551Y0316752D02*
X0653539Y0316752D01*
X0653539Y0317538D02*
X0655551Y0317538D01*
X0655862Y0318324D02*
X0653228Y0318324D01*
X0652863Y0319110D02*
X0656227Y0319110D01*
X0657013Y0319896D02*
X0652077Y0319896D01*
X0647013Y0319896D02*
X0642077Y0319896D01*
X0642863Y0319110D02*
X0646227Y0319110D01*
X0645862Y0318324D02*
X0643228Y0318324D01*
X0643539Y0317538D02*
X0645551Y0317538D01*
X0645551Y0316752D02*
X0643539Y0316752D01*
X0643531Y0315966D02*
X0645559Y0315966D01*
X0645885Y0315180D02*
X0643205Y0315180D01*
X0642808Y0314394D02*
X0646282Y0314394D01*
X0647068Y0313608D02*
X0642022Y0313608D01*
X0637068Y0313608D02*
X0632022Y0313608D01*
X0632808Y0314394D02*
X0636282Y0314394D01*
X0635885Y0315180D02*
X0633205Y0315180D01*
X0633531Y0315966D02*
X0635559Y0315966D01*
X0635551Y0316752D02*
X0633539Y0316752D01*
X0633539Y0317538D02*
X0635551Y0317538D01*
X0635862Y0318324D02*
X0633228Y0318324D01*
X0632863Y0319110D02*
X0636227Y0319110D01*
X0637013Y0319896D02*
X0632077Y0319896D01*
X0627013Y0319896D02*
X0622077Y0319896D01*
X0622863Y0319110D02*
X0626227Y0319110D01*
X0625862Y0318324D02*
X0623228Y0318324D01*
X0623539Y0317538D02*
X0625551Y0317538D01*
X0625551Y0316752D02*
X0623539Y0316752D01*
X0623531Y0315966D02*
X0625559Y0315966D01*
X0625885Y0315180D02*
X0623205Y0315180D01*
X0622808Y0314394D02*
X0626282Y0314394D01*
X0627068Y0313608D02*
X0622022Y0313608D01*
X0617068Y0313608D02*
X0612022Y0313608D01*
X0612808Y0314394D02*
X0616282Y0314394D01*
X0615885Y0315180D02*
X0613205Y0315180D01*
X0613531Y0315966D02*
X0615559Y0315966D01*
X0615551Y0316752D02*
X0613539Y0316752D01*
X0613539Y0317538D02*
X0615551Y0317538D01*
X0615862Y0318324D02*
X0613228Y0318324D01*
X0612863Y0319110D02*
X0616227Y0319110D01*
X0617013Y0319896D02*
X0612077Y0319896D01*
X0607013Y0319896D02*
X0602077Y0319896D01*
X0602863Y0319110D02*
X0606227Y0319110D01*
X0605862Y0318324D02*
X0603228Y0318324D01*
X0603539Y0317538D02*
X0605551Y0317538D01*
X0605551Y0316752D02*
X0603539Y0316752D01*
X0603531Y0315966D02*
X0605559Y0315966D01*
X0605885Y0315180D02*
X0603205Y0315180D01*
X0602808Y0314394D02*
X0606282Y0314394D01*
X0607068Y0313608D02*
X0602022Y0313608D01*
X0597068Y0313608D02*
X0592022Y0313608D01*
X0592808Y0314394D02*
X0596282Y0314394D01*
X0595885Y0315180D02*
X0593205Y0315180D01*
X0593531Y0315966D02*
X0595559Y0315966D01*
X0595551Y0316752D02*
X0593539Y0316752D01*
X0593539Y0317538D02*
X0595551Y0317538D01*
X0595862Y0318324D02*
X0593228Y0318324D01*
X0592863Y0319110D02*
X0596227Y0319110D01*
X0597013Y0319896D02*
X0592077Y0319896D01*
X0514286Y0308107D02*
X0767381Y0308107D01*
X0767707Y0307321D02*
X0513500Y0307321D01*
X0512714Y0306535D02*
X0768032Y0306535D01*
X0768358Y0305749D02*
X0511928Y0305749D01*
X0511142Y0304963D02*
X0769127Y0304963D01*
X0769913Y0304177D02*
X0510357Y0304177D01*
X0616111Y0261738D02*
X0626994Y0261738D01*
X0626291Y0260952D02*
X0616815Y0260952D01*
X0617133Y0260166D02*
X0625973Y0260166D01*
X0625973Y0259380D02*
X0617133Y0259380D01*
X0616882Y0258594D02*
X0626224Y0258594D01*
X0626834Y0257808D02*
X0616272Y0257808D01*
X0647907Y0240518D02*
X0693417Y0240518D01*
X0693417Y0239732D02*
X0648760Y0239732D01*
X0649286Y0238947D02*
X0693820Y0238947D01*
X0714943Y0234231D02*
X0715035Y0234231D01*
X0714935Y0233445D02*
X0715821Y0233445D01*
X0717981Y0233445D02*
X0719571Y0233445D01*
X0718785Y0234231D02*
X0718767Y0234231D01*
X0718290Y0236589D02*
X0719263Y0236589D01*
X0722040Y0236589D02*
X0722167Y0236589D01*
X0722517Y0234231D02*
X0723035Y0234231D01*
X0721731Y0233445D02*
X0728821Y0233445D01*
X0728167Y0234231D02*
X0725267Y0234231D01*
X0727884Y0230302D02*
X0722419Y0230302D01*
X0723205Y0229516D02*
X0727098Y0229516D01*
X0726578Y0228730D02*
X0723725Y0228730D01*
X0724050Y0227944D02*
X0726252Y0227944D01*
X0726158Y0227158D02*
X0724145Y0227158D01*
X0724145Y0226372D02*
X0726158Y0226372D01*
X0726382Y0225586D02*
X0723921Y0225586D01*
X0723595Y0224800D02*
X0726707Y0224800D01*
X0727410Y0224014D02*
X0722892Y0224014D01*
X0721672Y0223228D02*
X0728631Y0223228D01*
X0718677Y0171358D02*
X0500490Y0171358D01*
X0500490Y0162713D02*
X0870569Y0162713D01*
X0870569Y0161927D02*
X0500490Y0161927D01*
X0500490Y0161141D02*
X0870569Y0161141D01*
X0870569Y0160355D02*
X0743324Y0160355D01*
X0742888Y0160791D02*
X0744108Y0159571D01*
X0744108Y0157846D01*
X0742888Y0156626D01*
X0741163Y0156626D01*
X0739943Y0157846D01*
X0739943Y0159571D01*
X0741163Y0160791D01*
X0742888Y0160791D01*
X0744108Y0159569D02*
X0870569Y0159569D01*
X0870569Y0158783D02*
X0744108Y0158783D01*
X0744108Y0157998D02*
X0870420Y0157998D01*
X0869634Y0157212D02*
X0743474Y0157212D01*
X0740577Y0157212D02*
X0664599Y0157212D01*
X0664771Y0157998D02*
X0739943Y0157998D01*
X0739943Y0158783D02*
X0664699Y0158783D01*
X0664343Y0159569D02*
X0739943Y0159569D01*
X0740727Y0160355D02*
X0663354Y0160355D01*
X0664102Y0156426D02*
X0714021Y0156426D01*
X0716092Y0156426D02*
X0868848Y0156426D01*
X0868062Y0155640D02*
X0717091Y0155640D01*
X0717452Y0154854D02*
X0867276Y0154854D01*
X0866490Y0154068D02*
X0717527Y0154068D01*
X0717358Y0153282D02*
X0865705Y0153282D01*
X0864919Y0152496D02*
X0716865Y0152496D01*
X0713248Y0152496D02*
X0506140Y0152496D01*
X0506926Y0151710D02*
X0527166Y0151710D01*
X0526991Y0151638D02*
X0525868Y0150515D01*
X0525260Y0149047D01*
X0525260Y0147458D01*
X0525868Y0145990D01*
X0526991Y0144867D01*
X0528459Y0144259D01*
X0530048Y0144259D01*
X0531516Y0144867D01*
X0532639Y0145990D01*
X0533247Y0147458D01*
X0533247Y0149047D01*
X0532639Y0150515D01*
X0531516Y0151638D01*
X0530048Y0152246D01*
X0528459Y0152246D01*
X0526991Y0151638D01*
X0526277Y0150924D02*
X0507712Y0150924D01*
X0508498Y0150138D02*
X0525712Y0150138D01*
X0525386Y0149352D02*
X0509283Y0149352D01*
X0510069Y0148567D02*
X0525260Y0148567D01*
X0525260Y0147781D02*
X0510855Y0147781D01*
X0511641Y0146995D02*
X0525451Y0146995D01*
X0525777Y0146209D02*
X0512427Y0146209D01*
X0513213Y0145423D02*
X0526435Y0145423D01*
X0527545Y0144637D02*
X0513999Y0144637D01*
X0514785Y0143851D02*
X0533346Y0143851D01*
X0532939Y0143443D02*
X0532331Y0141976D01*
X0532331Y0140387D01*
X0532939Y0138919D01*
X0534062Y0137795D01*
X0535530Y0137188D01*
X0537119Y0137188D01*
X0538587Y0137795D01*
X0539710Y0138919D01*
X0540318Y0140387D01*
X0540318Y0141976D01*
X0539710Y0143443D01*
X0538587Y0144567D01*
X0537119Y0145175D01*
X0535530Y0145175D01*
X0534062Y0144567D01*
X0532939Y0143443D01*
X0532782Y0143065D02*
X0515571Y0143065D01*
X0516357Y0142279D02*
X0532456Y0142279D01*
X0532331Y0141493D02*
X0517143Y0141493D01*
X0517928Y0140707D02*
X0532331Y0140707D01*
X0532523Y0139922D02*
X0518714Y0139922D01*
X0519500Y0139136D02*
X0532849Y0139136D01*
X0533508Y0138350D02*
X0520286Y0138350D01*
X0521072Y0137564D02*
X0534621Y0137564D01*
X0538027Y0137564D02*
X0541297Y0137564D01*
X0541133Y0137496D02*
X0540010Y0136372D01*
X0539402Y0134905D01*
X0539402Y0133316D01*
X0540010Y0131848D01*
X0541133Y0130724D01*
X0542601Y0130116D01*
X0544190Y0130116D01*
X0545658Y0130724D01*
X0546781Y0131848D01*
X0547389Y0133316D01*
X0547389Y0134905D01*
X0546781Y0136372D01*
X0545658Y0137496D01*
X0544190Y0138104D01*
X0542601Y0138104D01*
X0541133Y0137496D01*
X0540415Y0136778D02*
X0521858Y0136778D01*
X0522644Y0135992D02*
X0539852Y0135992D01*
X0539527Y0135206D02*
X0523430Y0135206D01*
X0524216Y0134420D02*
X0539402Y0134420D01*
X0539402Y0133634D02*
X0525002Y0133634D01*
X0525788Y0132848D02*
X0539595Y0132848D01*
X0539921Y0132062D02*
X0526573Y0132062D01*
X0527359Y0131276D02*
X0540581Y0131276D01*
X0541698Y0130491D02*
X0528145Y0130491D01*
X0528931Y0129705D02*
X0547484Y0129705D01*
X0547081Y0129301D02*
X0546473Y0127833D01*
X0546473Y0126245D01*
X0547081Y0124777D01*
X0548204Y0123653D01*
X0549672Y0123045D01*
X0551261Y0123045D01*
X0552729Y0123653D01*
X0553852Y0124777D01*
X0554460Y0126245D01*
X0554460Y0127833D01*
X0553852Y0129301D01*
X0552729Y0130425D01*
X0551261Y0131033D01*
X0549672Y0131033D01*
X0548204Y0130425D01*
X0547081Y0129301D01*
X0546922Y0128919D02*
X0529717Y0128919D01*
X0530503Y0128133D02*
X0546597Y0128133D01*
X0546473Y0127347D02*
X0531289Y0127347D01*
X0532075Y0126561D02*
X0546473Y0126561D01*
X0546667Y0125775D02*
X0532861Y0125775D01*
X0533647Y0124989D02*
X0546993Y0124989D01*
X0547654Y0124203D02*
X0534433Y0124203D01*
X0535219Y0123417D02*
X0548774Y0123417D01*
X0552159Y0123417D02*
X0584963Y0123417D01*
X0585080Y0123369D02*
X0586609Y0123369D01*
X0588021Y0123954D01*
X0589103Y0125035D01*
X0589688Y0126448D01*
X0589688Y0127977D01*
X0589103Y0129390D01*
X0588021Y0130471D01*
X0586609Y0131056D01*
X0585080Y0131056D01*
X0583667Y0130471D01*
X0582586Y0129390D01*
X0582000Y0127977D01*
X0582000Y0126448D01*
X0582586Y0125035D01*
X0583667Y0123954D01*
X0585080Y0123369D01*
X0586726Y0123417D02*
X0644963Y0123417D01*
X0645080Y0123369D02*
X0646609Y0123369D01*
X0648021Y0123954D01*
X0649103Y0125035D01*
X0649688Y0126448D01*
X0649688Y0127977D01*
X0649103Y0129390D01*
X0648021Y0130471D01*
X0646609Y0131056D01*
X0645080Y0131056D01*
X0643667Y0130471D01*
X0642586Y0129390D01*
X0642000Y0127977D01*
X0642000Y0126448D01*
X0642586Y0125035D01*
X0643667Y0123954D01*
X0645080Y0123369D01*
X0646726Y0123417D02*
X0816931Y0123417D01*
X0816361Y0123653D02*
X0817829Y0123045D01*
X0819418Y0123045D01*
X0820886Y0123653D01*
X0822009Y0124777D01*
X0822617Y0126245D01*
X0822617Y0127833D01*
X0822009Y0129301D01*
X0820886Y0130425D01*
X0819418Y0131033D01*
X0817829Y0131033D01*
X0816361Y0130425D01*
X0815238Y0129301D01*
X0814630Y0127833D01*
X0814630Y0126245D01*
X0815238Y0124777D01*
X0816361Y0123653D01*
X0815811Y0124203D02*
X0678897Y0124203D01*
X0678440Y0124014D02*
X0679891Y0124615D01*
X0681001Y0125725D01*
X0681602Y0127176D01*
X0681602Y0128746D01*
X0681001Y0130196D01*
X0679891Y0131306D01*
X0678440Y0131907D01*
X0676870Y0131907D01*
X0675420Y0131306D01*
X0674310Y0130196D01*
X0673709Y0128746D01*
X0673709Y0127176D01*
X0674310Y0125725D01*
X0675420Y0124615D01*
X0676870Y0124014D01*
X0678440Y0124014D01*
X0676414Y0124203D02*
X0648271Y0124203D01*
X0649057Y0124989D02*
X0675045Y0124989D01*
X0674289Y0125775D02*
X0649409Y0125775D01*
X0649688Y0126561D02*
X0673963Y0126561D01*
X0673709Y0127347D02*
X0649688Y0127347D01*
X0649623Y0128133D02*
X0673709Y0128133D01*
X0673780Y0128919D02*
X0649298Y0128919D01*
X0648788Y0129705D02*
X0674106Y0129705D01*
X0674604Y0130491D02*
X0647974Y0130491D01*
X0646609Y0133369D02*
X0648021Y0133954D01*
X0649103Y0135035D01*
X0649688Y0136448D01*
X0649688Y0137977D01*
X0649103Y0139390D01*
X0648021Y0140471D01*
X0646609Y0141056D01*
X0645080Y0141056D01*
X0643667Y0140471D01*
X0642586Y0139390D01*
X0642000Y0137977D01*
X0642000Y0136448D01*
X0642586Y0135035D01*
X0643667Y0133954D01*
X0645080Y0133369D01*
X0646609Y0133369D01*
X0647249Y0133634D02*
X0821701Y0133634D01*
X0821701Y0133316D02*
X0822309Y0131848D01*
X0823432Y0130724D01*
X0824900Y0130116D01*
X0826489Y0130116D01*
X0827957Y0130724D01*
X0829080Y0131848D01*
X0829688Y0133316D01*
X0829688Y0134905D01*
X0829080Y0136372D01*
X0827957Y0137496D01*
X0826489Y0138104D01*
X0824900Y0138104D01*
X0823432Y0137496D01*
X0822309Y0136372D01*
X0821701Y0134905D01*
X0821701Y0133316D01*
X0821894Y0132848D02*
X0547196Y0132848D01*
X0547389Y0133634D02*
X0584439Y0133634D01*
X0585080Y0133369D02*
X0586609Y0133369D01*
X0588021Y0133954D01*
X0589103Y0135035D01*
X0589688Y0136448D01*
X0589688Y0137977D01*
X0589103Y0139390D01*
X0588021Y0140471D01*
X0586609Y0141056D01*
X0585080Y0141056D01*
X0583667Y0140471D01*
X0582586Y0139390D01*
X0582000Y0137977D01*
X0582000Y0136448D01*
X0582586Y0135035D01*
X0583667Y0133954D01*
X0585080Y0133369D01*
X0583201Y0134420D02*
X0547389Y0134420D01*
X0547264Y0135206D02*
X0582515Y0135206D01*
X0582189Y0135992D02*
X0546939Y0135992D01*
X0546376Y0136778D02*
X0582000Y0136778D01*
X0582000Y0137564D02*
X0545494Y0137564D01*
X0540125Y0139922D02*
X0583117Y0139922D01*
X0582480Y0139136D02*
X0539800Y0139136D01*
X0539141Y0138350D02*
X0582155Y0138350D01*
X0584237Y0140707D02*
X0540318Y0140707D01*
X0540318Y0141493D02*
X0723480Y0141493D01*
X0723480Y0140707D02*
X0647451Y0140707D01*
X0648571Y0139922D02*
X0723581Y0139922D01*
X0723480Y0140165D02*
X0724565Y0137545D01*
X0726570Y0135540D01*
X0729190Y0134455D01*
X0732026Y0134455D01*
X0734645Y0135540D01*
X0736650Y0137545D01*
X0737735Y0140165D01*
X0737735Y0143000D01*
X0736650Y0145620D01*
X0734645Y0147625D01*
X0732026Y0148710D01*
X0729190Y0148710D01*
X0726570Y0147625D01*
X0724565Y0145620D01*
X0723480Y0143000D01*
X0723480Y0140165D01*
X0723907Y0139136D02*
X0649208Y0139136D01*
X0649534Y0138350D02*
X0724232Y0138350D01*
X0724558Y0137564D02*
X0649688Y0137564D01*
X0649688Y0136778D02*
X0725333Y0136778D01*
X0726119Y0135992D02*
X0649499Y0135992D01*
X0649173Y0135206D02*
X0727377Y0135206D01*
X0733839Y0135206D02*
X0771078Y0135206D01*
X0770271Y0135540D02*
X0772891Y0134455D01*
X0775726Y0134455D01*
X0778346Y0135540D01*
X0780351Y0137545D01*
X0781436Y0140165D01*
X0781436Y0143000D01*
X0780351Y0145620D01*
X0778346Y0147625D01*
X0775726Y0148710D01*
X0772891Y0148710D01*
X0770271Y0147625D01*
X0768266Y0145620D01*
X0767181Y0143000D01*
X0767181Y0140165D01*
X0768266Y0137545D01*
X0770271Y0135540D01*
X0769820Y0135992D02*
X0735097Y0135992D01*
X0735883Y0136778D02*
X0769034Y0136778D01*
X0768259Y0137564D02*
X0736658Y0137564D01*
X0736984Y0138350D02*
X0767933Y0138350D01*
X0767608Y0139136D02*
X0737309Y0139136D01*
X0737635Y0139922D02*
X0767282Y0139922D01*
X0767181Y0140707D02*
X0737735Y0140707D01*
X0737735Y0141493D02*
X0767181Y0141493D01*
X0767181Y0142279D02*
X0737735Y0142279D01*
X0737709Y0143065D02*
X0767208Y0143065D01*
X0767534Y0143851D02*
X0737383Y0143851D01*
X0737058Y0144637D02*
X0767859Y0144637D01*
X0768185Y0145423D02*
X0736732Y0145423D01*
X0736062Y0146209D02*
X0768855Y0146209D01*
X0769641Y0146995D02*
X0735276Y0146995D01*
X0734270Y0147781D02*
X0770647Y0147781D01*
X0772544Y0148567D02*
X0732373Y0148567D01*
X0728843Y0148567D02*
X0649444Y0148567D01*
X0649688Y0147977D02*
X0649103Y0149390D01*
X0648021Y0150471D01*
X0646609Y0151056D01*
X0645080Y0151056D01*
X0643667Y0150471D01*
X0642586Y0149390D01*
X0642000Y0147977D01*
X0642000Y0146448D01*
X0642586Y0145035D01*
X0643667Y0143954D01*
X0645080Y0143369D01*
X0646609Y0143369D01*
X0648021Y0143954D01*
X0649103Y0145035D01*
X0649688Y0146448D01*
X0649688Y0147977D01*
X0649688Y0147781D02*
X0726946Y0147781D01*
X0725940Y0146995D02*
X0649688Y0146995D01*
X0649589Y0146209D02*
X0725154Y0146209D01*
X0724484Y0145423D02*
X0649263Y0145423D01*
X0648704Y0144637D02*
X0724158Y0144637D01*
X0723833Y0143851D02*
X0647773Y0143851D01*
X0643915Y0143851D02*
X0637773Y0143851D01*
X0638021Y0143954D02*
X0639103Y0145035D01*
X0639688Y0146448D01*
X0639688Y0147977D01*
X0639103Y0149390D01*
X0638021Y0150471D01*
X0636609Y0151056D01*
X0635080Y0151056D01*
X0633667Y0150471D01*
X0632586Y0149390D01*
X0632000Y0147977D01*
X0632000Y0146448D01*
X0632586Y0145035D01*
X0633667Y0143954D01*
X0635080Y0143369D01*
X0636609Y0143369D01*
X0638021Y0143954D01*
X0638704Y0144637D02*
X0642984Y0144637D01*
X0642425Y0145423D02*
X0639263Y0145423D01*
X0639589Y0146209D02*
X0642100Y0146209D01*
X0642000Y0146995D02*
X0639688Y0146995D01*
X0639688Y0147781D02*
X0642000Y0147781D01*
X0642245Y0148567D02*
X0639444Y0148567D01*
X0639118Y0149352D02*
X0642570Y0149352D01*
X0643334Y0150138D02*
X0638354Y0150138D01*
X0636927Y0150924D02*
X0644761Y0150924D01*
X0646927Y0150924D02*
X0836861Y0150924D01*
X0836451Y0150515D02*
X0835843Y0149047D01*
X0835843Y0147458D01*
X0836451Y0145990D01*
X0837574Y0144867D01*
X0839042Y0144259D01*
X0840631Y0144259D01*
X0842099Y0144867D01*
X0843222Y0145990D01*
X0843830Y0147458D01*
X0843830Y0149047D01*
X0843222Y0150515D01*
X0842099Y0151638D01*
X0840631Y0152246D01*
X0839042Y0152246D01*
X0837574Y0151638D01*
X0836451Y0150515D01*
X0836295Y0150138D02*
X0648354Y0150138D01*
X0649118Y0149352D02*
X0835970Y0149352D01*
X0835843Y0148567D02*
X0776073Y0148567D01*
X0777971Y0147781D02*
X0835843Y0147781D01*
X0836035Y0146995D02*
X0778977Y0146995D01*
X0779762Y0146209D02*
X0836360Y0146209D01*
X0837018Y0145423D02*
X0780433Y0145423D01*
X0780758Y0144637D02*
X0830673Y0144637D01*
X0830503Y0144567D02*
X0829380Y0143443D01*
X0828772Y0141976D01*
X0828772Y0140387D01*
X0829380Y0138919D01*
X0830503Y0137795D01*
X0831971Y0137188D01*
X0833560Y0137188D01*
X0835028Y0137795D01*
X0836151Y0138919D01*
X0836759Y0140387D01*
X0836759Y0141976D01*
X0836151Y0143443D01*
X0835028Y0144567D01*
X0833560Y0145175D01*
X0831971Y0145175D01*
X0830503Y0144567D01*
X0829787Y0143851D02*
X0781084Y0143851D01*
X0781409Y0143065D02*
X0829223Y0143065D01*
X0828898Y0142279D02*
X0781436Y0142279D01*
X0781436Y0141493D02*
X0828772Y0141493D01*
X0828772Y0140707D02*
X0781436Y0140707D01*
X0781335Y0139922D02*
X0828965Y0139922D01*
X0829290Y0139136D02*
X0781010Y0139136D01*
X0780684Y0138350D02*
X0829949Y0138350D01*
X0831063Y0137564D02*
X0827793Y0137564D01*
X0828675Y0136778D02*
X0849200Y0136778D01*
X0848414Y0135992D02*
X0829238Y0135992D01*
X0829563Y0135206D02*
X0847629Y0135206D01*
X0846843Y0134420D02*
X0829688Y0134420D01*
X0829688Y0133634D02*
X0846057Y0133634D01*
X0845271Y0132848D02*
X0829495Y0132848D01*
X0829169Y0132062D02*
X0844485Y0132062D01*
X0843699Y0131276D02*
X0828509Y0131276D01*
X0827392Y0130491D02*
X0842913Y0130491D01*
X0842127Y0129705D02*
X0821606Y0129705D01*
X0822168Y0128919D02*
X0841341Y0128919D01*
X0840555Y0128133D02*
X0822493Y0128133D01*
X0822617Y0127347D02*
X0839769Y0127347D01*
X0838983Y0126561D02*
X0822617Y0126561D01*
X0822423Y0125775D02*
X0838198Y0125775D01*
X0837412Y0124989D02*
X0822097Y0124989D01*
X0821436Y0124203D02*
X0836626Y0124203D01*
X0835840Y0123417D02*
X0820316Y0123417D01*
X0815150Y0124989D02*
X0680265Y0124989D01*
X0681022Y0125775D02*
X0814824Y0125775D01*
X0814630Y0126561D02*
X0681347Y0126561D01*
X0681602Y0127347D02*
X0814630Y0127347D01*
X0814754Y0128133D02*
X0681602Y0128133D01*
X0681530Y0128919D02*
X0815079Y0128919D01*
X0815641Y0129705D02*
X0681204Y0129705D01*
X0680706Y0130491D02*
X0816520Y0130491D01*
X0820727Y0130491D02*
X0823997Y0130491D01*
X0822880Y0131276D02*
X0679920Y0131276D01*
X0675390Y0131276D02*
X0546210Y0131276D01*
X0546870Y0132062D02*
X0822220Y0132062D01*
X0821701Y0134420D02*
X0648488Y0134420D01*
X0644439Y0133634D02*
X0587249Y0133634D01*
X0588488Y0134420D02*
X0643201Y0134420D01*
X0642515Y0135206D02*
X0589173Y0135206D01*
X0589499Y0135992D02*
X0642189Y0135992D01*
X0642000Y0136778D02*
X0589688Y0136778D01*
X0589688Y0137564D02*
X0642000Y0137564D01*
X0642155Y0138350D02*
X0589534Y0138350D01*
X0589208Y0139136D02*
X0642480Y0139136D01*
X0643117Y0139922D02*
X0588571Y0139922D01*
X0587451Y0140707D02*
X0644237Y0140707D01*
X0633915Y0143851D02*
X0587773Y0143851D01*
X0588021Y0143954D02*
X0589103Y0145035D01*
X0589688Y0146448D01*
X0589688Y0147977D01*
X0589103Y0149390D01*
X0588021Y0150471D01*
X0586609Y0151056D01*
X0585080Y0151056D01*
X0583667Y0150471D01*
X0582586Y0149390D01*
X0582000Y0147977D01*
X0582000Y0146448D01*
X0582586Y0145035D01*
X0583667Y0143954D01*
X0585080Y0143369D01*
X0586609Y0143369D01*
X0588021Y0143954D01*
X0588704Y0144637D02*
X0632984Y0144637D01*
X0632425Y0145423D02*
X0589263Y0145423D01*
X0589589Y0146209D02*
X0632100Y0146209D01*
X0632000Y0146995D02*
X0589688Y0146995D01*
X0589688Y0147781D02*
X0632000Y0147781D01*
X0632245Y0148567D02*
X0589444Y0148567D01*
X0589118Y0149352D02*
X0632570Y0149352D01*
X0633334Y0150138D02*
X0588354Y0150138D01*
X0586927Y0150924D02*
X0634761Y0150924D01*
X0635080Y0153369D02*
X0636609Y0153369D01*
X0638021Y0153954D01*
X0639103Y0155035D01*
X0639688Y0156448D01*
X0639688Y0157977D01*
X0639103Y0159390D01*
X0638021Y0160471D01*
X0636609Y0161056D01*
X0635080Y0161056D01*
X0633667Y0160471D01*
X0632586Y0159390D01*
X0632000Y0157977D01*
X0632000Y0156448D01*
X0632586Y0155035D01*
X0633667Y0153954D01*
X0635080Y0153369D01*
X0633553Y0154068D02*
X0588135Y0154068D01*
X0588921Y0154854D02*
X0632767Y0154854D01*
X0632335Y0155640D02*
X0589353Y0155640D01*
X0589679Y0156426D02*
X0632010Y0156426D01*
X0632000Y0157212D02*
X0589688Y0157212D01*
X0589679Y0157998D02*
X0632009Y0157998D01*
X0632334Y0158783D02*
X0589354Y0158783D01*
X0588923Y0159569D02*
X0632765Y0159569D01*
X0633551Y0160355D02*
X0588137Y0160355D01*
X0583551Y0160355D02*
X0500490Y0160355D01*
X0500490Y0159569D02*
X0582765Y0159569D01*
X0582334Y0158783D02*
X0500490Y0158783D01*
X0531341Y0151710D02*
X0837749Y0151710D01*
X0841924Y0151710D02*
X0864133Y0151710D01*
X0863347Y0150924D02*
X0842812Y0150924D01*
X0843378Y0150138D02*
X0862561Y0150138D01*
X0861775Y0149352D02*
X0843704Y0149352D01*
X0843830Y0148567D02*
X0860989Y0148567D01*
X0860203Y0147781D02*
X0843830Y0147781D01*
X0843638Y0146995D02*
X0859417Y0146995D01*
X0858631Y0146209D02*
X0843313Y0146209D01*
X0842655Y0145423D02*
X0857845Y0145423D01*
X0857059Y0144637D02*
X0841545Y0144637D01*
X0838129Y0144637D02*
X0834858Y0144637D01*
X0835744Y0143851D02*
X0856274Y0143851D01*
X0855488Y0143065D02*
X0836308Y0143065D01*
X0836633Y0142279D02*
X0854702Y0142279D01*
X0853916Y0141493D02*
X0836759Y0141493D01*
X0836759Y0140707D02*
X0853130Y0140707D01*
X0852344Y0139922D02*
X0836566Y0139922D01*
X0836241Y0139136D02*
X0851558Y0139136D01*
X0850772Y0138350D02*
X0835582Y0138350D01*
X0834468Y0137564D02*
X0849986Y0137564D01*
X0823596Y0137564D02*
X0780359Y0137564D01*
X0779584Y0136778D02*
X0822714Y0136778D01*
X0822151Y0135992D02*
X0778798Y0135992D01*
X0777539Y0135206D02*
X0821826Y0135206D01*
X0835054Y0122631D02*
X0536004Y0122631D01*
X0536790Y0121846D02*
X0834268Y0121846D01*
X0833482Y0121060D02*
X0537576Y0121060D01*
X0538362Y0120274D02*
X0583469Y0120274D01*
X0583667Y0120471D02*
X0582586Y0119390D01*
X0582000Y0117977D01*
X0582000Y0116448D01*
X0582586Y0115035D01*
X0583667Y0113954D01*
X0585080Y0113369D01*
X0586609Y0113369D01*
X0588021Y0113954D01*
X0589103Y0115035D01*
X0589688Y0116448D01*
X0589688Y0117977D01*
X0589103Y0119390D01*
X0588021Y0120471D01*
X0586609Y0121056D01*
X0585080Y0121056D01*
X0583667Y0120471D01*
X0582684Y0119488D02*
X0539148Y0119488D01*
X0539934Y0118702D02*
X0582301Y0118702D01*
X0582000Y0117916D02*
X0540720Y0117916D01*
X0541506Y0117130D02*
X0582000Y0117130D01*
X0582043Y0116344D02*
X0542292Y0116344D01*
X0543078Y0115558D02*
X0582369Y0115558D01*
X0582849Y0114772D02*
X0543864Y0114772D01*
X0544649Y0113986D02*
X0583635Y0113986D01*
X0588054Y0113986D02*
X0643635Y0113986D01*
X0643667Y0113954D02*
X0645080Y0113369D01*
X0646609Y0113369D01*
X0648021Y0113954D01*
X0649103Y0115035D01*
X0649688Y0116448D01*
X0649688Y0117977D01*
X0649103Y0119390D01*
X0648021Y0120471D01*
X0646609Y0121056D01*
X0645080Y0121056D01*
X0643667Y0120471D01*
X0642586Y0119390D01*
X0642000Y0117977D01*
X0642000Y0116448D01*
X0642586Y0115035D01*
X0643667Y0113954D01*
X0642849Y0114772D02*
X0588840Y0114772D01*
X0589319Y0115558D02*
X0642369Y0115558D01*
X0642043Y0116344D02*
X0589645Y0116344D01*
X0589688Y0117130D02*
X0642000Y0117130D01*
X0642000Y0117916D02*
X0589688Y0117916D01*
X0589388Y0118702D02*
X0642301Y0118702D01*
X0642684Y0119488D02*
X0589005Y0119488D01*
X0588219Y0120274D02*
X0643469Y0120274D01*
X0643418Y0124203D02*
X0588271Y0124203D01*
X0589057Y0124989D02*
X0642632Y0124989D01*
X0642279Y0125775D02*
X0589409Y0125775D01*
X0589688Y0126561D02*
X0642000Y0126561D01*
X0642000Y0127347D02*
X0589688Y0127347D01*
X0589623Y0128133D02*
X0642065Y0128133D01*
X0642390Y0128919D02*
X0589298Y0128919D01*
X0588788Y0129705D02*
X0642900Y0129705D01*
X0643714Y0130491D02*
X0587974Y0130491D01*
X0583714Y0130491D02*
X0552570Y0130491D01*
X0553449Y0129705D02*
X0582900Y0129705D01*
X0582390Y0128919D02*
X0554011Y0128919D01*
X0554336Y0128133D02*
X0582065Y0128133D01*
X0582000Y0127347D02*
X0554460Y0127347D01*
X0554460Y0126561D02*
X0582000Y0126561D01*
X0582279Y0125775D02*
X0554266Y0125775D01*
X0553940Y0124989D02*
X0582632Y0124989D01*
X0583418Y0124203D02*
X0553279Y0124203D01*
X0548363Y0130491D02*
X0545093Y0130491D01*
X0540192Y0142279D02*
X0723480Y0142279D01*
X0723507Y0143065D02*
X0539867Y0143065D01*
X0539302Y0143851D02*
X0583915Y0143851D01*
X0582984Y0144637D02*
X0538417Y0144637D01*
X0534231Y0144637D02*
X0530961Y0144637D01*
X0532072Y0145423D02*
X0582425Y0145423D01*
X0582100Y0146209D02*
X0532730Y0146209D01*
X0533055Y0146995D02*
X0582000Y0146995D01*
X0582000Y0147781D02*
X0533247Y0147781D01*
X0533247Y0148567D02*
X0582245Y0148567D01*
X0582570Y0149352D02*
X0533120Y0149352D01*
X0532795Y0150138D02*
X0583334Y0150138D01*
X0584761Y0150924D02*
X0532229Y0150924D01*
X0638135Y0154068D02*
X0643553Y0154068D01*
X0642767Y0154854D02*
X0638921Y0154854D01*
X0639353Y0155640D02*
X0642335Y0155640D01*
X0642010Y0156426D02*
X0639679Y0156426D01*
X0639688Y0157212D02*
X0642000Y0157212D01*
X0642009Y0157998D02*
X0639679Y0157998D01*
X0639354Y0158783D02*
X0642334Y0158783D01*
X0642765Y0159569D02*
X0638923Y0159569D01*
X0638137Y0160355D02*
X0643551Y0160355D01*
X0649443Y0165857D02*
X0660518Y0165857D01*
X0660010Y0166643D02*
X0649688Y0166643D01*
X0649688Y0167428D02*
X0659831Y0167428D01*
X0659895Y0168214D02*
X0649590Y0168214D01*
X0649264Y0169000D02*
X0660241Y0169000D01*
X0661204Y0169786D02*
X0648706Y0169786D01*
X0647778Y0170572D02*
X0717718Y0170572D01*
X0717375Y0169786D02*
X0663398Y0169786D01*
X0664361Y0169000D02*
X0717311Y0169000D01*
X0717492Y0168214D02*
X0664706Y0168214D01*
X0664771Y0167428D02*
X0718001Y0167428D01*
X0769462Y0165071D02*
X0870569Y0165071D01*
X0870569Y0165857D02*
X0770920Y0165857D01*
X0771706Y0166643D02*
X0870569Y0166643D01*
X0870569Y0167428D02*
X0772088Y0167428D01*
X0772413Y0168214D02*
X0870569Y0168214D01*
X0870569Y0169000D02*
X0772448Y0169000D01*
X0772448Y0169786D02*
X0870569Y0169786D01*
X0870569Y0170572D02*
X0772205Y0170572D01*
X0771880Y0171358D02*
X0870569Y0171358D01*
X0870569Y0172144D02*
X0771203Y0172144D01*
X0831124Y0118702D02*
X0649388Y0118702D01*
X0649688Y0117916D02*
X0830338Y0117916D01*
X0829553Y0117130D02*
X0649688Y0117130D01*
X0649645Y0116344D02*
X0724120Y0116344D01*
X0724287Y0116511D02*
X0723593Y0115816D01*
X0723217Y0114909D01*
X0723217Y0113926D01*
X0723593Y0113018D01*
X0724287Y0112323D01*
X0725195Y0111947D01*
X0726178Y0111947D01*
X0727086Y0112323D01*
X0727781Y0113018D01*
X0728157Y0113926D01*
X0728157Y0114909D01*
X0727781Y0115816D01*
X0727086Y0116511D01*
X0726178Y0116887D01*
X0725195Y0116887D01*
X0724287Y0116511D01*
X0723486Y0115558D02*
X0694181Y0115558D01*
X0694015Y0115724D02*
X0693107Y0116100D01*
X0692124Y0116100D01*
X0691217Y0115724D01*
X0690522Y0115029D01*
X0690146Y0114121D01*
X0690146Y0113139D01*
X0690522Y0112231D01*
X0691217Y0111536D01*
X0692124Y0111160D01*
X0693107Y0111160D01*
X0694015Y0111536D01*
X0694710Y0112231D01*
X0695086Y0113139D01*
X0695086Y0114121D01*
X0694710Y0115029D01*
X0694015Y0115724D01*
X0694816Y0114772D02*
X0723217Y0114772D01*
X0723217Y0113986D02*
X0695086Y0113986D01*
X0695086Y0113200D02*
X0723517Y0113200D01*
X0724196Y0112415D02*
X0694786Y0112415D01*
X0694108Y0111629D02*
X0738374Y0111629D01*
X0738374Y0111211D02*
X0739020Y0109652D01*
X0740213Y0108459D01*
X0741772Y0107813D01*
X0743460Y0107813D01*
X0745019Y0108459D01*
X0746212Y0109652D01*
X0746858Y0111211D01*
X0746858Y0112899D01*
X0746212Y0114458D01*
X0745019Y0115651D01*
X0743460Y0116297D01*
X0741772Y0116297D01*
X0740213Y0115651D01*
X0739020Y0114458D01*
X0738374Y0112899D01*
X0738374Y0111211D01*
X0738527Y0110843D02*
X0663491Y0110843D01*
X0663491Y0110089D02*
X0662891Y0108639D01*
X0661780Y0107528D01*
X0660330Y0106928D01*
X0658760Y0106928D01*
X0657309Y0107528D01*
X0656199Y0108639D01*
X0655598Y0110089D01*
X0655598Y0111659D01*
X0656199Y0113109D01*
X0657309Y0114220D01*
X0658760Y0114820D01*
X0660330Y0114820D01*
X0661780Y0114220D01*
X0662891Y0113109D01*
X0663491Y0111659D01*
X0663491Y0110089D01*
X0663478Y0110057D02*
X0738852Y0110057D01*
X0739401Y0109271D02*
X0663153Y0109271D01*
X0662737Y0108485D02*
X0740187Y0108485D01*
X0738374Y0112415D02*
X0727177Y0112415D01*
X0727856Y0113200D02*
X0738499Y0113200D01*
X0738825Y0113986D02*
X0728157Y0113986D01*
X0728157Y0114772D02*
X0739334Y0114772D01*
X0740120Y0115558D02*
X0727888Y0115558D01*
X0727253Y0116344D02*
X0828767Y0116344D01*
X0827981Y0115558D02*
X0764796Y0115558D01*
X0764704Y0115651D02*
X0763145Y0116297D01*
X0761457Y0116297D01*
X0759898Y0115651D01*
X0758705Y0114458D01*
X0758059Y0112899D01*
X0758059Y0111211D01*
X0758705Y0109652D01*
X0759898Y0108459D01*
X0761457Y0107813D01*
X0763145Y0107813D01*
X0764704Y0108459D01*
X0765897Y0109652D01*
X0766543Y0111211D01*
X0766543Y0112899D01*
X0765897Y0114458D01*
X0764704Y0115651D01*
X0765582Y0114772D02*
X0827195Y0114772D01*
X0826409Y0113986D02*
X0766092Y0113986D01*
X0766418Y0113200D02*
X0825623Y0113200D01*
X0824837Y0112415D02*
X0766543Y0112415D01*
X0766543Y0111629D02*
X0824051Y0111629D01*
X0823265Y0110843D02*
X0766390Y0110843D01*
X0766064Y0110057D02*
X0822479Y0110057D01*
X0821693Y0109271D02*
X0765515Y0109271D01*
X0764729Y0108485D02*
X0820907Y0108485D01*
X0820122Y0107699D02*
X0661951Y0107699D01*
X0663491Y0111629D02*
X0691124Y0111629D01*
X0690446Y0112415D02*
X0663178Y0112415D01*
X0662800Y0113200D02*
X0690146Y0113200D01*
X0690146Y0113986D02*
X0662014Y0113986D01*
X0660446Y0114772D02*
X0690415Y0114772D01*
X0691051Y0115558D02*
X0649319Y0115558D01*
X0648840Y0114772D02*
X0658644Y0114772D01*
X0657076Y0113986D02*
X0648054Y0113986D01*
X0646609Y0111056D02*
X0645080Y0111056D01*
X0643667Y0110471D01*
X0642586Y0109390D01*
X0642000Y0107977D01*
X0642000Y0106448D01*
X0642586Y0105035D01*
X0643667Y0103954D01*
X0645080Y0103369D01*
X0646609Y0103369D01*
X0648021Y0103954D01*
X0649103Y0105035D01*
X0649688Y0106448D01*
X0649688Y0107977D01*
X0649103Y0109390D01*
X0648021Y0110471D01*
X0646609Y0111056D01*
X0647124Y0110843D02*
X0655598Y0110843D01*
X0655598Y0111629D02*
X0547007Y0111629D01*
X0546221Y0112415D02*
X0655911Y0112415D01*
X0656290Y0113200D02*
X0545435Y0113200D01*
X0547793Y0110843D02*
X0644564Y0110843D01*
X0643253Y0110057D02*
X0548579Y0110057D01*
X0549365Y0109271D02*
X0642536Y0109271D01*
X0642211Y0108485D02*
X0550151Y0108485D01*
X0550937Y0107699D02*
X0642000Y0107699D01*
X0642000Y0106913D02*
X0551723Y0106913D01*
X0552509Y0106127D02*
X0642133Y0106127D01*
X0642459Y0105341D02*
X0553295Y0105341D01*
X0554080Y0104555D02*
X0643065Y0104555D01*
X0644112Y0103770D02*
X0554866Y0103770D01*
X0555652Y0102984D02*
X0815406Y0102984D01*
X0816192Y0103770D02*
X0647576Y0103770D01*
X0648623Y0104555D02*
X0816978Y0104555D01*
X0817764Y0105341D02*
X0649229Y0105341D01*
X0649555Y0106127D02*
X0818550Y0106127D01*
X0819336Y0106913D02*
X0649688Y0106913D01*
X0649688Y0107699D02*
X0657139Y0107699D01*
X0656353Y0108485D02*
X0649477Y0108485D01*
X0649152Y0109271D02*
X0655937Y0109271D01*
X0655612Y0110057D02*
X0648436Y0110057D01*
X0649005Y0119488D02*
X0831910Y0119488D01*
X0832696Y0120274D02*
X0648219Y0120274D01*
X0559582Y0099054D02*
X0811477Y0099054D01*
X0812262Y0099840D02*
X0558796Y0099840D01*
X0558010Y0100626D02*
X0813048Y0100626D01*
X0813834Y0101412D02*
X0557224Y0101412D01*
X0556438Y0102198D02*
X0814620Y0102198D01*
X0759872Y0108485D02*
X0745044Y0108485D01*
X0745830Y0109271D02*
X0759086Y0109271D01*
X0758537Y0110057D02*
X0746379Y0110057D01*
X0746705Y0110843D02*
X0758212Y0110843D01*
X0758059Y0111629D02*
X0746858Y0111629D01*
X0746858Y0112415D02*
X0758059Y0112415D01*
X0758184Y0113200D02*
X0746733Y0113200D01*
X0746407Y0113986D02*
X0758510Y0113986D01*
X0759019Y0114772D02*
X0745897Y0114772D01*
X0745111Y0115558D02*
X0759805Y0115558D01*
X0512233Y0247592D02*
X0500490Y0247592D01*
X0500490Y0248378D02*
X0511315Y0248378D01*
X0510737Y0249163D02*
X0500490Y0249163D01*
X0500490Y0249949D02*
X0510411Y0249949D01*
X0510276Y0250735D02*
X0500490Y0250735D01*
X0500490Y0251521D02*
X0510276Y0251521D01*
X0510459Y0252307D02*
X0500490Y0252307D01*
X0500490Y0253093D02*
X0510784Y0253093D01*
X0511429Y0253879D02*
X0500490Y0253879D01*
X0500490Y0254665D02*
X0512510Y0254665D01*
X0711614Y0338757D02*
X0718185Y0338757D01*
X0717637Y0338984D02*
X0719105Y0338376D01*
X0720694Y0338376D01*
X0722162Y0338984D01*
X0723285Y0340108D01*
X0723893Y0341576D01*
X0723893Y0343164D01*
X0723285Y0344632D01*
X0722162Y0345756D01*
X0720694Y0346364D01*
X0719105Y0346364D01*
X0717637Y0345756D01*
X0716514Y0344632D01*
X0715906Y0343164D01*
X0715906Y0341576D01*
X0716514Y0340108D01*
X0717637Y0338984D01*
X0717078Y0339543D02*
X0712721Y0339543D01*
X0713377Y0340329D02*
X0716422Y0340329D01*
X0716096Y0341115D02*
X0713702Y0341115D01*
X0713893Y0341901D02*
X0715906Y0341901D01*
X0715906Y0342687D02*
X0713893Y0342687D01*
X0713765Y0343473D02*
X0716033Y0343473D01*
X0716359Y0344259D02*
X0713440Y0344259D01*
X0712872Y0345045D02*
X0716926Y0345045D01*
X0717818Y0345831D02*
X0711981Y0345831D01*
X0721981Y0345831D02*
X0727818Y0345831D01*
X0727637Y0345756D02*
X0726514Y0344632D01*
X0725906Y0343164D01*
X0725906Y0341576D01*
X0726514Y0340108D01*
X0727637Y0338984D01*
X0729105Y0338376D01*
X0730694Y0338376D01*
X0732162Y0338984D01*
X0733285Y0340108D01*
X0733893Y0341576D01*
X0733893Y0343164D01*
X0733285Y0344632D01*
X0732162Y0345756D01*
X0730694Y0346364D01*
X0729105Y0346364D01*
X0727637Y0345756D01*
X0726926Y0345045D02*
X0722872Y0345045D01*
X0723440Y0344259D02*
X0726359Y0344259D01*
X0726033Y0343473D02*
X0723765Y0343473D01*
X0723893Y0342687D02*
X0725906Y0342687D01*
X0725906Y0341901D02*
X0723893Y0341901D01*
X0723702Y0341115D02*
X0726096Y0341115D01*
X0726422Y0340329D02*
X0723377Y0340329D01*
X0722721Y0339543D02*
X0727078Y0339543D01*
X0728185Y0338757D02*
X0721614Y0338757D01*
X0731614Y0338757D02*
X0738185Y0338757D01*
X0737078Y0339543D02*
X0732721Y0339543D01*
X0733377Y0340329D02*
X0736422Y0340329D01*
X0736096Y0341115D02*
X0733702Y0341115D01*
X0733893Y0341901D02*
X0735906Y0341901D01*
X0735906Y0342687D02*
X0733893Y0342687D01*
X0733765Y0343473D02*
X0736033Y0343473D01*
X0736359Y0344259D02*
X0733440Y0344259D01*
X0732872Y0345045D02*
X0736926Y0345045D01*
X0737818Y0345831D02*
X0731981Y0345831D01*
X0778818Y0341901D02*
X0786459Y0341901D01*
X0786785Y0342687D02*
X0779698Y0342687D01*
X0780446Y0343473D02*
X0787380Y0343473D01*
X0788166Y0344259D02*
X0780772Y0344259D01*
X0781097Y0345045D02*
X0788952Y0345045D01*
X0790495Y0345831D02*
X0781198Y0345831D01*
D19*
X0744191Y0271504D03*
X0742651Y0256421D03*
X0742651Y0252421D03*
X0740151Y0252421D03*
X0735151Y0251675D03*
X0732901Y0252671D03*
X0730651Y0251675D03*
X0728151Y0256421D03*
X0728143Y0259077D03*
X0707319Y0268689D03*
X0686846Y0258453D03*
X0680153Y0258453D03*
X0680153Y0254516D03*
X0682501Y0250821D03*
X0680071Y0246157D03*
X0675346Y0244189D03*
X0676921Y0239465D03*
X0673378Y0239071D03*
X0676921Y0234740D03*
X0680464Y0238283D03*
X0684401Y0235921D03*
X0685901Y0238421D03*
X0684401Y0240671D03*
X0687401Y0240671D03*
X0688901Y0238421D03*
X0687401Y0235921D03*
X0695401Y0240171D03*
X0697651Y0241671D03*
X0697901Y0245671D03*
X0696151Y0251171D03*
X0693651Y0251171D03*
X0691151Y0251171D03*
X0729100Y0241122D03*
X0731850Y0241122D03*
X0734549Y0241122D03*
X0740151Y0241546D03*
X0742651Y0241546D03*
X0727283Y0236224D03*
X0724151Y0235921D03*
X0720651Y0235171D03*
X0716901Y0235171D03*
X0713651Y0235921D03*
X0707151Y0235921D03*
X0700584Y0238654D03*
X0730151Y0234921D03*
X0682859Y0268079D03*
D20*
X0706596Y0235516D02*
X0707151Y0235921D01*
D21*
X0705506Y0245067D03*
X0705506Y0248020D03*
X0705506Y0250972D03*
X0705506Y0253925D03*
X0708950Y0253925D03*
X0708950Y0250972D03*
X0708950Y0248020D03*
X0708950Y0245067D03*
X0712395Y0245020D03*
X0712395Y0248020D03*
X0712395Y0250972D03*
X0712395Y0253925D03*
X0715840Y0253925D03*
X0715840Y0250972D03*
X0715840Y0248020D03*
X0715840Y0245067D03*
X0719285Y0245067D03*
X0719285Y0248020D03*
X0719285Y0250972D03*
X0719285Y0253925D03*
X0694651Y0255421D03*
D22*
X0694449Y0253096D02*
X0692854Y0253096D01*
X0692401Y0252644D01*
X0691949Y0253096D01*
X0690354Y0253096D01*
X0689226Y0251969D01*
X0689226Y0250374D01*
X0690354Y0249246D01*
X0691949Y0249246D01*
X0692401Y0249699D01*
X0692854Y0249246D01*
X0694449Y0249246D01*
X0694901Y0249699D01*
X0695354Y0249246D01*
X0696949Y0249246D01*
X0698076Y0250374D01*
X0698076Y0251969D01*
X0696949Y0253096D01*
X0695354Y0253096D01*
X0694901Y0252644D01*
X0694449Y0253096D01*
X0697437Y0252608D02*
X0700493Y0252608D01*
X0701077Y0253276D02*
X0681636Y0253276D01*
X0681704Y0252746D02*
X0680576Y0251619D01*
X0680576Y0250024D01*
X0681584Y0249016D01*
X0665096Y0249016D01*
X0665096Y0282016D01*
X0724096Y0282016D01*
X0724096Y0274016D01*
X0730096Y0268016D01*
X0730096Y0253600D01*
X0729854Y0253600D01*
X0728726Y0252473D01*
X0728726Y0252016D01*
X0725096Y0252016D01*
X0720096Y0257016D01*
X0704350Y0257016D01*
X0697350Y0249016D01*
X0683418Y0249016D01*
X0684426Y0250024D01*
X0684426Y0251619D01*
X0683299Y0252746D01*
X0681704Y0252746D01*
X0681565Y0252608D02*
X0680968Y0252608D01*
X0680951Y0252591D02*
X0682078Y0253718D01*
X0682078Y0255313D01*
X0680951Y0256441D01*
X0679356Y0256441D01*
X0678228Y0255313D01*
X0678228Y0253718D01*
X0679356Y0252591D01*
X0680951Y0252591D01*
X0680897Y0251940D02*
X0665096Y0251940D01*
X0665096Y0251272D02*
X0680576Y0251272D01*
X0680576Y0250604D02*
X0665096Y0250604D01*
X0665096Y0249937D02*
X0680663Y0249937D01*
X0681331Y0249269D02*
X0665096Y0249269D01*
X0665096Y0247516D02*
X0697023Y0247516D01*
X0695976Y0246469D01*
X0695976Y0244874D01*
X0697104Y0243746D01*
X0698699Y0243746D01*
X0699826Y0244874D01*
X0699826Y0246469D01*
X0698699Y0247596D01*
X0698167Y0247596D01*
X0705096Y0255516D01*
X0719596Y0255516D01*
X0724596Y0250516D01*
X0729088Y0250516D01*
X0729854Y0249750D01*
X0730096Y0249750D01*
X0730096Y0246762D01*
X0724350Y0241016D01*
X0704096Y0241016D01*
X0704096Y0222016D01*
X0665096Y0222016D01*
X0665096Y0247516D01*
X0665096Y0247265D02*
X0696773Y0247265D01*
X0696105Y0246598D02*
X0665096Y0246598D01*
X0665096Y0245930D02*
X0695976Y0245930D01*
X0695976Y0245262D02*
X0665096Y0245262D01*
X0665096Y0244594D02*
X0696256Y0244594D01*
X0696923Y0243926D02*
X0665096Y0243926D01*
X0665096Y0243259D02*
X0696516Y0243259D01*
X0696854Y0243596D02*
X0695726Y0242469D01*
X0695726Y0242096D01*
X0694604Y0242096D01*
X0693476Y0240969D01*
X0693476Y0239374D01*
X0694604Y0238246D01*
X0696199Y0238246D01*
X0697326Y0239374D01*
X0697326Y0239746D01*
X0698449Y0239746D01*
X0699576Y0240874D01*
X0699576Y0242469D01*
X0698449Y0243596D01*
X0696854Y0243596D01*
X0695848Y0242591D02*
X0665096Y0242591D01*
X0665096Y0241923D02*
X0694430Y0241923D01*
X0693763Y0241255D02*
X0665096Y0241255D01*
X0665096Y0240587D02*
X0693476Y0240587D01*
X0693476Y0239920D02*
X0665096Y0239920D01*
X0665096Y0239252D02*
X0693598Y0239252D01*
X0694266Y0238584D02*
X0665096Y0238584D01*
X0665096Y0237916D02*
X0704096Y0237916D01*
X0704096Y0237248D02*
X0665096Y0237248D01*
X0665096Y0236581D02*
X0704096Y0236581D01*
X0704096Y0235913D02*
X0665096Y0235913D01*
X0665096Y0235245D02*
X0704096Y0235245D01*
X0704096Y0234577D02*
X0665096Y0234577D01*
X0665096Y0233909D02*
X0704096Y0233909D01*
X0704096Y0233242D02*
X0665096Y0233242D01*
X0665096Y0232574D02*
X0704096Y0232574D01*
X0704096Y0231906D02*
X0665096Y0231906D01*
X0665096Y0231238D02*
X0704096Y0231238D01*
X0704096Y0230570D02*
X0701623Y0230570D01*
X0700934Y0230856D02*
X0702380Y0230257D01*
X0703487Y0229150D01*
X0704086Y0227704D01*
X0704086Y0226139D01*
X0703487Y0224692D01*
X0702380Y0223586D01*
X0700934Y0222987D01*
X0699369Y0222987D01*
X0697922Y0223586D01*
X0696816Y0224692D01*
X0696217Y0226139D01*
X0696217Y0227704D01*
X0696816Y0229150D01*
X0697922Y0230257D01*
X0699369Y0230856D01*
X0700934Y0230856D01*
X0702734Y0229903D02*
X0704096Y0229903D01*
X0704096Y0229235D02*
X0703402Y0229235D01*
X0703728Y0228567D02*
X0704096Y0228567D01*
X0704096Y0227899D02*
X0704005Y0227899D01*
X0704086Y0227231D02*
X0704096Y0227231D01*
X0704086Y0226564D02*
X0704096Y0226564D01*
X0704096Y0225896D02*
X0703985Y0225896D01*
X0704096Y0225228D02*
X0703709Y0225228D01*
X0703355Y0224560D02*
X0704096Y0224560D01*
X0704096Y0223892D02*
X0702687Y0223892D01*
X0701508Y0223224D02*
X0704096Y0223224D01*
X0704096Y0222557D02*
X0665096Y0222557D01*
X0665096Y0223224D02*
X0668794Y0223224D01*
X0669369Y0222987D02*
X0670934Y0222987D01*
X0672380Y0223586D01*
X0673487Y0224692D01*
X0674086Y0226139D01*
X0674086Y0227704D01*
X0673487Y0229150D01*
X0672380Y0230257D01*
X0670934Y0230856D01*
X0669369Y0230856D01*
X0667922Y0230257D01*
X0666816Y0229150D01*
X0666217Y0227704D01*
X0666217Y0226139D01*
X0666816Y0224692D01*
X0667922Y0223586D01*
X0669369Y0222987D01*
X0667616Y0223892D02*
X0665096Y0223892D01*
X0665096Y0224560D02*
X0666948Y0224560D01*
X0666594Y0225228D02*
X0665096Y0225228D01*
X0665096Y0225896D02*
X0666317Y0225896D01*
X0666217Y0226564D02*
X0665096Y0226564D01*
X0665096Y0227231D02*
X0666217Y0227231D01*
X0666297Y0227899D02*
X0665096Y0227899D01*
X0665096Y0228567D02*
X0666574Y0228567D01*
X0666900Y0229235D02*
X0665096Y0229235D01*
X0665096Y0229903D02*
X0667568Y0229903D01*
X0668679Y0230570D02*
X0665096Y0230570D01*
X0671623Y0230570D02*
X0678679Y0230570D01*
X0679369Y0230856D02*
X0677922Y0230257D01*
X0676816Y0229150D01*
X0676217Y0227704D01*
X0676217Y0226139D01*
X0676816Y0224692D01*
X0677922Y0223586D01*
X0679369Y0222987D01*
X0680934Y0222987D01*
X0682380Y0223586D01*
X0683487Y0224692D01*
X0684086Y0226139D01*
X0684086Y0227704D01*
X0683487Y0229150D01*
X0682380Y0230257D01*
X0680934Y0230856D01*
X0679369Y0230856D01*
X0677568Y0229903D02*
X0672734Y0229903D01*
X0673402Y0229235D02*
X0676900Y0229235D01*
X0676574Y0228567D02*
X0673728Y0228567D01*
X0674005Y0227899D02*
X0676297Y0227899D01*
X0676217Y0227231D02*
X0674086Y0227231D01*
X0674086Y0226564D02*
X0676217Y0226564D01*
X0676317Y0225896D02*
X0673985Y0225896D01*
X0673709Y0225228D02*
X0676594Y0225228D01*
X0676948Y0224560D02*
X0673355Y0224560D01*
X0672687Y0223892D02*
X0677616Y0223892D01*
X0678794Y0223224D02*
X0671508Y0223224D01*
X0681508Y0223224D02*
X0688794Y0223224D01*
X0689369Y0222987D02*
X0690934Y0222987D01*
X0692380Y0223586D01*
X0693487Y0224692D01*
X0694086Y0226139D01*
X0694086Y0227704D01*
X0693487Y0229150D01*
X0692380Y0230257D01*
X0690934Y0230856D01*
X0689369Y0230856D01*
X0687922Y0230257D01*
X0686816Y0229150D01*
X0686217Y0227704D01*
X0686217Y0226139D01*
X0686816Y0224692D01*
X0687922Y0223586D01*
X0689369Y0222987D01*
X0687616Y0223892D02*
X0682687Y0223892D01*
X0683355Y0224560D02*
X0686948Y0224560D01*
X0686594Y0225228D02*
X0683709Y0225228D01*
X0683985Y0225896D02*
X0686317Y0225896D01*
X0686217Y0226564D02*
X0684086Y0226564D01*
X0684086Y0227231D02*
X0686217Y0227231D01*
X0686297Y0227899D02*
X0684005Y0227899D01*
X0683728Y0228567D02*
X0686574Y0228567D01*
X0686900Y0229235D02*
X0683402Y0229235D01*
X0682734Y0229903D02*
X0687568Y0229903D01*
X0688679Y0230570D02*
X0681623Y0230570D01*
X0691623Y0230570D02*
X0698679Y0230570D01*
X0697568Y0229903D02*
X0692734Y0229903D01*
X0693402Y0229235D02*
X0696900Y0229235D01*
X0696574Y0228567D02*
X0693728Y0228567D01*
X0694005Y0227899D02*
X0696297Y0227899D01*
X0696217Y0227231D02*
X0694086Y0227231D01*
X0694086Y0226564D02*
X0696217Y0226564D01*
X0696317Y0225896D02*
X0693985Y0225896D01*
X0693709Y0225228D02*
X0696594Y0225228D01*
X0696948Y0224560D02*
X0693355Y0224560D01*
X0692687Y0223892D02*
X0697616Y0223892D01*
X0698794Y0223224D02*
X0691508Y0223224D01*
X0696537Y0238584D02*
X0704096Y0238584D01*
X0704096Y0239252D02*
X0697204Y0239252D01*
X0698622Y0239920D02*
X0704096Y0239920D01*
X0704096Y0240587D02*
X0699290Y0240587D01*
X0699576Y0241255D02*
X0724589Y0241255D01*
X0725257Y0241923D02*
X0699576Y0241923D01*
X0699454Y0242591D02*
X0725925Y0242591D01*
X0726593Y0243259D02*
X0698787Y0243259D01*
X0698879Y0243926D02*
X0727261Y0243926D01*
X0727928Y0244594D02*
X0699547Y0244594D01*
X0699826Y0245262D02*
X0728596Y0245262D01*
X0729264Y0245930D02*
X0699826Y0245930D01*
X0699698Y0246598D02*
X0729932Y0246598D01*
X0730096Y0247265D02*
X0699030Y0247265D01*
X0698461Y0247933D02*
X0730096Y0247933D01*
X0730096Y0248601D02*
X0699046Y0248601D01*
X0699630Y0249269D02*
X0730096Y0249269D01*
X0729667Y0249937D02*
X0700214Y0249937D01*
X0700799Y0250604D02*
X0724507Y0250604D01*
X0723840Y0251272D02*
X0701383Y0251272D01*
X0701967Y0251940D02*
X0723172Y0251940D01*
X0722504Y0252608D02*
X0702552Y0252608D01*
X0703136Y0253276D02*
X0721836Y0253276D01*
X0721168Y0253943D02*
X0703720Y0253943D01*
X0704305Y0254611D02*
X0720501Y0254611D01*
X0719833Y0255279D02*
X0704889Y0255279D01*
X0703999Y0256615D02*
X0687731Y0256615D01*
X0687644Y0256528D02*
X0688771Y0257655D01*
X0688771Y0259250D01*
X0687644Y0260378D01*
X0686049Y0260378D01*
X0684921Y0259250D01*
X0684921Y0257655D01*
X0686049Y0256528D01*
X0687644Y0256528D01*
X0688398Y0257282D02*
X0730096Y0257282D01*
X0730096Y0256615D02*
X0720497Y0256615D01*
X0721165Y0255947D02*
X0730096Y0255947D01*
X0730096Y0255279D02*
X0721833Y0255279D01*
X0722501Y0254611D02*
X0730096Y0254611D01*
X0730096Y0253943D02*
X0723168Y0253943D01*
X0723836Y0253276D02*
X0729529Y0253276D01*
X0728861Y0252608D02*
X0724504Y0252608D01*
X0730096Y0257950D02*
X0688771Y0257950D01*
X0688771Y0258618D02*
X0730096Y0258618D01*
X0730096Y0259286D02*
X0688736Y0259286D01*
X0688068Y0259954D02*
X0730096Y0259954D01*
X0730096Y0260621D02*
X0665096Y0260621D01*
X0665096Y0259954D02*
X0678931Y0259954D01*
X0679356Y0260378D02*
X0678228Y0259250D01*
X0678228Y0257655D01*
X0679356Y0256528D01*
X0680951Y0256528D01*
X0682078Y0257655D01*
X0682078Y0259250D01*
X0680951Y0260378D01*
X0679356Y0260378D01*
X0678264Y0259286D02*
X0665096Y0259286D01*
X0665096Y0258618D02*
X0678228Y0258618D01*
X0678228Y0257950D02*
X0665096Y0257950D01*
X0665096Y0257282D02*
X0678601Y0257282D01*
X0679269Y0256615D02*
X0665096Y0256615D01*
X0665096Y0255947D02*
X0678862Y0255947D01*
X0678228Y0255279D02*
X0665096Y0255279D01*
X0665096Y0254611D02*
X0678228Y0254611D01*
X0678228Y0253943D02*
X0665096Y0253943D01*
X0665096Y0253276D02*
X0678671Y0253276D01*
X0679338Y0252608D02*
X0665096Y0252608D01*
X0681038Y0256615D02*
X0685962Y0256615D01*
X0685294Y0257282D02*
X0681706Y0257282D01*
X0682078Y0257950D02*
X0684921Y0257950D01*
X0684921Y0258618D02*
X0682078Y0258618D01*
X0682043Y0259286D02*
X0684957Y0259286D01*
X0685624Y0259954D02*
X0681375Y0259954D01*
X0681445Y0255947D02*
X0703415Y0255947D01*
X0702830Y0255279D02*
X0682078Y0255279D01*
X0682078Y0254611D02*
X0702246Y0254611D01*
X0701662Y0253943D02*
X0682078Y0253943D01*
X0683437Y0252608D02*
X0689865Y0252608D01*
X0689226Y0251940D02*
X0684105Y0251940D01*
X0684426Y0251272D02*
X0689226Y0251272D01*
X0689226Y0250604D02*
X0684426Y0250604D01*
X0684339Y0249937D02*
X0689663Y0249937D01*
X0690331Y0249269D02*
X0683671Y0249269D01*
X0691971Y0249269D02*
X0692831Y0249269D01*
X0694471Y0249269D02*
X0695331Y0249269D01*
X0696971Y0249269D02*
X0697571Y0249269D01*
X0697639Y0249937D02*
X0698156Y0249937D01*
X0698076Y0250604D02*
X0698740Y0250604D01*
X0699324Y0251272D02*
X0698076Y0251272D01*
X0698076Y0251940D02*
X0699909Y0251940D01*
X0730096Y0261289D02*
X0665096Y0261289D01*
X0665096Y0261957D02*
X0730096Y0261957D01*
X0730096Y0262625D02*
X0665096Y0262625D01*
X0665096Y0263293D02*
X0730096Y0263293D01*
X0730096Y0263960D02*
X0665096Y0263960D01*
X0665096Y0264628D02*
X0730096Y0264628D01*
X0730096Y0265296D02*
X0665096Y0265296D01*
X0665096Y0265964D02*
X0730096Y0265964D01*
X0730096Y0266632D02*
X0684134Y0266632D01*
X0683657Y0266154D02*
X0684784Y0267282D01*
X0684784Y0268877D01*
X0683657Y0270004D01*
X0682062Y0270004D01*
X0680934Y0268877D01*
X0680934Y0267282D01*
X0682062Y0266154D01*
X0683657Y0266154D01*
X0684784Y0267299D02*
X0705985Y0267299D01*
X0706521Y0266764D02*
X0708116Y0266764D01*
X0709244Y0267892D01*
X0709244Y0269486D01*
X0708116Y0270614D01*
X0706521Y0270614D01*
X0705393Y0269486D01*
X0705393Y0267892D01*
X0706521Y0266764D01*
X0705393Y0267967D02*
X0684784Y0267967D01*
X0684784Y0268635D02*
X0705393Y0268635D01*
X0705393Y0269303D02*
X0684358Y0269303D01*
X0683690Y0269971D02*
X0705878Y0269971D01*
X0708759Y0269971D02*
X0728141Y0269971D01*
X0727473Y0270638D02*
X0665096Y0270638D01*
X0665096Y0269971D02*
X0682028Y0269971D01*
X0681360Y0269303D02*
X0665096Y0269303D01*
X0665096Y0268635D02*
X0680934Y0268635D01*
X0680934Y0267967D02*
X0665096Y0267967D01*
X0665096Y0267299D02*
X0680934Y0267299D01*
X0681584Y0266632D02*
X0665096Y0266632D01*
X0665096Y0271306D02*
X0726806Y0271306D01*
X0726138Y0271974D02*
X0665096Y0271974D01*
X0665096Y0272642D02*
X0669461Y0272642D01*
X0669136Y0272693D02*
X0669810Y0272587D01*
X0669817Y0272587D01*
X0669817Y0276587D01*
X0670486Y0276587D01*
X0670486Y0277256D01*
X0674486Y0277256D01*
X0674486Y0277262D01*
X0674379Y0277936D01*
X0674168Y0278585D01*
X0673859Y0279193D01*
X0673458Y0279745D01*
X0672975Y0280228D01*
X0672423Y0280629D01*
X0671815Y0280938D01*
X0671166Y0281149D01*
X0670492Y0281256D01*
X0670486Y0281256D01*
X0670486Y0277256D01*
X0669817Y0277256D01*
X0669817Y0281256D01*
X0669810Y0281256D01*
X0669136Y0281149D01*
X0668487Y0280938D01*
X0667879Y0280629D01*
X0667327Y0280228D01*
X0666845Y0279745D01*
X0666444Y0279193D01*
X0666134Y0278585D01*
X0665923Y0277936D01*
X0665817Y0277262D01*
X0665817Y0277256D01*
X0669817Y0277256D01*
X0669817Y0276587D01*
X0665817Y0276587D01*
X0665817Y0276580D01*
X0665923Y0275906D01*
X0666134Y0275257D01*
X0666444Y0274649D01*
X0666845Y0274097D01*
X0667327Y0273615D01*
X0667879Y0273214D01*
X0668487Y0272904D01*
X0669136Y0272693D01*
X0669817Y0272642D02*
X0670486Y0272642D01*
X0670486Y0272587D02*
X0670492Y0272587D01*
X0671166Y0272693D01*
X0671815Y0272904D01*
X0672423Y0273214D01*
X0672975Y0273615D01*
X0673458Y0274097D01*
X0673859Y0274649D01*
X0674168Y0275257D01*
X0674379Y0275906D01*
X0674486Y0276580D01*
X0674486Y0276587D01*
X0670486Y0276587D01*
X0670486Y0272587D01*
X0670841Y0272642D02*
X0725470Y0272642D01*
X0724802Y0273310D02*
X0721714Y0273310D01*
X0722380Y0273586D02*
X0723487Y0274692D01*
X0724086Y0276139D01*
X0724086Y0277704D01*
X0723487Y0279150D01*
X0722380Y0280257D01*
X0720934Y0280856D01*
X0719369Y0280856D01*
X0717922Y0280257D01*
X0716816Y0279150D01*
X0716217Y0277704D01*
X0716217Y0276139D01*
X0716816Y0274692D01*
X0717922Y0273586D01*
X0719369Y0272987D01*
X0720934Y0272987D01*
X0722380Y0273586D01*
X0722772Y0273977D02*
X0724134Y0273977D01*
X0724096Y0274645D02*
X0723440Y0274645D01*
X0723744Y0275313D02*
X0724096Y0275313D01*
X0724096Y0275981D02*
X0724021Y0275981D01*
X0724086Y0276649D02*
X0724096Y0276649D01*
X0724086Y0277317D02*
X0724096Y0277317D01*
X0724096Y0277984D02*
X0723970Y0277984D01*
X0724096Y0278652D02*
X0723693Y0278652D01*
X0723317Y0279320D02*
X0724096Y0279320D01*
X0724096Y0279988D02*
X0722649Y0279988D01*
X0721418Y0280656D02*
X0724096Y0280656D01*
X0724096Y0281323D02*
X0665096Y0281323D01*
X0665096Y0280656D02*
X0667932Y0280656D01*
X0667088Y0279988D02*
X0665096Y0279988D01*
X0665096Y0279320D02*
X0666536Y0279320D01*
X0666168Y0278652D02*
X0665096Y0278652D01*
X0665096Y0277984D02*
X0665939Y0277984D01*
X0665825Y0277317D02*
X0665096Y0277317D01*
X0665096Y0276649D02*
X0669817Y0276649D01*
X0669817Y0277317D02*
X0670486Y0277317D01*
X0670486Y0277984D02*
X0669817Y0277984D01*
X0669817Y0278652D02*
X0670486Y0278652D01*
X0670486Y0279320D02*
X0669817Y0279320D01*
X0669817Y0279988D02*
X0670486Y0279988D01*
X0670486Y0280656D02*
X0669817Y0280656D01*
X0672370Y0280656D02*
X0678885Y0280656D01*
X0679369Y0280856D02*
X0677922Y0280257D01*
X0676816Y0279150D01*
X0676217Y0277704D01*
X0676217Y0276139D01*
X0676816Y0274692D01*
X0677922Y0273586D01*
X0679369Y0272987D01*
X0680934Y0272987D01*
X0682380Y0273586D01*
X0683487Y0274692D01*
X0684086Y0276139D01*
X0684086Y0277704D01*
X0683487Y0279150D01*
X0682380Y0280257D01*
X0680934Y0280856D01*
X0679369Y0280856D01*
X0677653Y0279988D02*
X0673215Y0279988D01*
X0673766Y0279320D02*
X0676985Y0279320D01*
X0676609Y0278652D02*
X0674134Y0278652D01*
X0674364Y0277984D02*
X0676333Y0277984D01*
X0676217Y0277317D02*
X0674477Y0277317D01*
X0674391Y0275981D02*
X0676282Y0275981D01*
X0676217Y0276649D02*
X0670486Y0276649D01*
X0670486Y0275981D02*
X0669817Y0275981D01*
X0669817Y0275313D02*
X0670486Y0275313D01*
X0670486Y0274645D02*
X0669817Y0274645D01*
X0669817Y0273977D02*
X0670486Y0273977D01*
X0670486Y0273310D02*
X0669817Y0273310D01*
X0667748Y0273310D02*
X0665096Y0273310D01*
X0665096Y0273977D02*
X0666965Y0273977D01*
X0666447Y0274645D02*
X0665096Y0274645D01*
X0665096Y0275313D02*
X0666116Y0275313D01*
X0665911Y0275981D02*
X0665096Y0275981D01*
X0665096Y0281991D02*
X0724096Y0281991D01*
X0718885Y0280656D02*
X0711418Y0280656D01*
X0710934Y0280856D02*
X0709369Y0280856D01*
X0707922Y0280257D01*
X0706816Y0279150D01*
X0706217Y0277704D01*
X0706217Y0276139D01*
X0706816Y0274692D01*
X0707922Y0273586D01*
X0709369Y0272987D01*
X0710934Y0272987D01*
X0712380Y0273586D01*
X0713487Y0274692D01*
X0714086Y0276139D01*
X0714086Y0277704D01*
X0713487Y0279150D01*
X0712380Y0280257D01*
X0710934Y0280856D01*
X0712649Y0279988D02*
X0717653Y0279988D01*
X0716985Y0279320D02*
X0713317Y0279320D01*
X0713693Y0278652D02*
X0716609Y0278652D01*
X0716333Y0277984D02*
X0713970Y0277984D01*
X0714086Y0277317D02*
X0716217Y0277317D01*
X0716217Y0276649D02*
X0714086Y0276649D01*
X0714021Y0275981D02*
X0716282Y0275981D01*
X0716559Y0275313D02*
X0713744Y0275313D01*
X0713440Y0274645D02*
X0716863Y0274645D01*
X0717531Y0273977D02*
X0712772Y0273977D01*
X0711714Y0273310D02*
X0718589Y0273310D01*
X0708589Y0273310D02*
X0701714Y0273310D01*
X0702380Y0273586D02*
X0703487Y0274692D01*
X0704086Y0276139D01*
X0704086Y0277704D01*
X0703487Y0279150D01*
X0702380Y0280257D01*
X0700934Y0280856D01*
X0699369Y0280856D01*
X0697922Y0280257D01*
X0696816Y0279150D01*
X0696217Y0277704D01*
X0696217Y0276139D01*
X0696816Y0274692D01*
X0697922Y0273586D01*
X0699369Y0272987D01*
X0700934Y0272987D01*
X0702380Y0273586D01*
X0702772Y0273977D02*
X0707531Y0273977D01*
X0706863Y0274645D02*
X0703440Y0274645D01*
X0703744Y0275313D02*
X0706559Y0275313D01*
X0706282Y0275981D02*
X0704021Y0275981D01*
X0704086Y0276649D02*
X0706217Y0276649D01*
X0706217Y0277317D02*
X0704086Y0277317D01*
X0703970Y0277984D02*
X0706333Y0277984D01*
X0706609Y0278652D02*
X0703693Y0278652D01*
X0703317Y0279320D02*
X0706985Y0279320D01*
X0707653Y0279988D02*
X0702649Y0279988D01*
X0701418Y0280656D02*
X0708885Y0280656D01*
X0698885Y0280656D02*
X0691418Y0280656D01*
X0690934Y0280856D02*
X0689369Y0280856D01*
X0687922Y0280257D01*
X0686816Y0279150D01*
X0686217Y0277704D01*
X0686217Y0276139D01*
X0686816Y0274692D01*
X0687922Y0273586D01*
X0689369Y0272987D01*
X0690934Y0272987D01*
X0692380Y0273586D01*
X0693487Y0274692D01*
X0694086Y0276139D01*
X0694086Y0277704D01*
X0693487Y0279150D01*
X0692380Y0280257D01*
X0690934Y0280856D01*
X0692649Y0279988D02*
X0697653Y0279988D01*
X0696985Y0279320D02*
X0693317Y0279320D01*
X0693693Y0278652D02*
X0696609Y0278652D01*
X0696333Y0277984D02*
X0693970Y0277984D01*
X0694086Y0277317D02*
X0696217Y0277317D01*
X0696217Y0276649D02*
X0694086Y0276649D01*
X0694021Y0275981D02*
X0696282Y0275981D01*
X0696559Y0275313D02*
X0693744Y0275313D01*
X0693440Y0274645D02*
X0696863Y0274645D01*
X0697531Y0273977D02*
X0692772Y0273977D01*
X0691714Y0273310D02*
X0698589Y0273310D01*
X0688589Y0273310D02*
X0681714Y0273310D01*
X0682772Y0273977D02*
X0687531Y0273977D01*
X0686863Y0274645D02*
X0683440Y0274645D01*
X0683744Y0275313D02*
X0686559Y0275313D01*
X0686282Y0275981D02*
X0684021Y0275981D01*
X0684086Y0276649D02*
X0686217Y0276649D01*
X0686217Y0277317D02*
X0684086Y0277317D01*
X0683970Y0277984D02*
X0686333Y0277984D01*
X0686609Y0278652D02*
X0683693Y0278652D01*
X0683317Y0279320D02*
X0686985Y0279320D01*
X0687653Y0279988D02*
X0682649Y0279988D01*
X0681418Y0280656D02*
X0688885Y0280656D01*
X0677531Y0273977D02*
X0673338Y0273977D01*
X0673856Y0274645D02*
X0676863Y0274645D01*
X0676559Y0275313D02*
X0674186Y0275313D01*
X0672555Y0273310D02*
X0678589Y0273310D01*
X0708652Y0267299D02*
X0730096Y0267299D01*
X0730096Y0267967D02*
X0709244Y0267967D01*
X0709244Y0268635D02*
X0729477Y0268635D01*
X0728809Y0269303D02*
X0709244Y0269303D01*
D23*
X0757576Y0248276D03*
X0766632Y0249850D03*
X0767419Y0243157D03*
X0757183Y0240402D03*
X0756395Y0229378D03*
X0756789Y0223472D03*
X0784939Y0221307D03*
X0794781Y0208118D03*
X0801671Y0215008D03*
X0804624Y0205165D03*
X0813482Y0206937D03*
X0824506Y0203394D03*
X0818206Y0196307D03*
X0808364Y0196701D03*
X0804427Y0190402D03*
X0799702Y0196307D03*
X0816632Y0186465D03*
X0803246Y0181740D03*
X0791435Y0181740D03*
X0775293Y0182528D03*
X0764466Y0188630D03*
X0748718Y0178394D03*
X0719781Y0169142D03*
X0694978Y0168748D03*
X0691435Y0168748D03*
X0691435Y0172291D03*
X0694978Y0172291D03*
X0693010Y0165205D03*
X0691435Y0161661D03*
X0691435Y0158118D03*
X0694978Y0158118D03*
X0694978Y0161661D03*
X0683561Y0160874D03*
X0662301Y0158118D03*
X0683364Y0153591D03*
X0715057Y0154181D03*
X0714663Y0145913D03*
X0708954Y0133906D03*
X0725687Y0114417D03*
X0692616Y0113630D03*
X0662301Y0167567D03*
X0706789Y0181740D03*
X0715057Y0181740D03*
X0693994Y0192567D03*
X0669387Y0185283D03*
X0828246Y0236071D03*
X0778049Y0244339D03*
X0830017Y0215598D03*
X0869387Y0217173D03*
X0861907Y0197488D03*
X0856789Y0191189D03*
X0844978Y0196701D03*
X0852458Y0182528D03*
X0865057Y0181740D03*
X0836710Y0179378D03*
X0628443Y0259693D03*
X0614663Y0259693D03*
X0592025Y0335480D03*
X0614663Y0340402D03*
X0602852Y0346307D03*
X0564466Y0345323D03*
X0564466Y0335480D03*
D24*
X0820175Y0241583D03*
X0805214Y0238433D03*
X0799309Y0236465D03*
X0802065Y0232134D03*
X0797340Y0228591D03*
X0803639Y0225047D03*
X0807576Y0228591D03*
X0813482Y0228197D03*
X0814269Y0224260D03*
X0808364Y0222291D03*
X0820175Y0222291D03*
X0820175Y0227016D03*
X0820175Y0230953D03*
X0793797Y0235283D03*
X0793797Y0239614D03*
X0601080Y0229575D03*
X0742025Y0158709D03*
D25*
X0728151Y0256421D02*
X0728096Y0259163D01*
X0728143Y0259077D01*
D26*
X0674596Y0276516D02*
X0670596Y0276516D01*
X0670096Y0276516D02*
X0670096Y0273391D01*
D27*
X0713651Y0235921D02*
X0713596Y0230516D01*
X0710151Y0226921D01*
M02*
