G75*
%MOIN*%
%OFA0B0*%
%FSLAX25Y25*%
%IPPOS*%
%LPD*%
%AMOC8*
5,1,8,0,0,1.08239X$1,22.5*
%
%ADD10C,0.12611*%
%ADD11R,0.04600X0.06800*%
%ADD12R,0.06800X0.04600*%
%ADD13OC8,0.06800*%
%ADD14R,0.05000X0.04300*%
%ADD15C,0.07887*%
%ADD16C,0.07800*%
%ADD17C,0.13068*%
%ADD18C,0.06500*%
%ADD19R,0.02965X0.05957*%
%ADD20R,0.04501X0.05957*%
%ADD21R,0.08200X0.08200*%
%ADD22C,0.08200*%
%ADD23C,0.16548*%
%ADD24R,0.06800X0.06800*%
%ADD25R,0.03500X0.03800*%
%ADD26C,0.00365*%
%ADD27R,0.01824X0.03556*%
%ADD28C,0.00632*%
%ADD29R,0.18504X0.14567*%
%ADD30R,0.07296X0.10249*%
%ADD31R,0.03950X0.01902*%
%ADD32R,0.03300X0.07800*%
%ADD33R,0.15957X0.22454*%
%ADD34R,0.05600X0.04400*%
%ADD35R,0.22454X0.15957*%
%ADD36R,0.05800X0.14186*%
%ADD37OC8,0.17005*%
%ADD38OC8,0.14052*%
%ADD39C,0.07099*%
%ADD40OC8,0.15036*%
%ADD41OC8,0.06706*%
%ADD42C,0.06706*%
%ADD43R,0.14186X0.05800*%
%ADD44C,0.01360*%
%ADD45R,0.11824X0.08674*%
%ADD46R,0.08674X0.11824*%
D10*
X0520175Y0135252D03*
X0803639Y0113598D03*
X0888128Y0075606D03*
X1235923Y0075606D03*
X0831198Y0243520D03*
X0958758Y0301787D03*
X0986317Y0301787D03*
X0888128Y0310016D03*
X0675687Y0308480D03*
X0522143Y0249425D03*
X1235923Y0310016D03*
D11*
X0739379Y0212638D03*
X0731179Y0212638D03*
X0693858Y0212146D03*
X0685658Y0212146D03*
X0752728Y0145449D03*
X0760928Y0145449D03*
X0675456Y0133677D03*
X0667256Y0133677D03*
X0667256Y0124228D03*
X0675456Y0124228D03*
X0697177Y0099819D03*
X0705377Y0099819D03*
X0712925Y0099819D03*
X0721125Y0099819D03*
X0721125Y0089976D03*
X0712925Y0089976D03*
X0705377Y0089976D03*
X0697177Y0089976D03*
X0697177Y0080134D03*
X0705377Y0080134D03*
X0712925Y0080134D03*
X0721125Y0080134D03*
D12*
X0709545Y0112254D03*
X0709545Y0120454D03*
X0706395Y0135089D03*
X0715450Y0135089D03*
X0715450Y0143289D03*
X0706395Y0143289D03*
X0693797Y0146113D03*
X0675293Y0142963D03*
X0675293Y0151163D03*
X0693797Y0154313D03*
D13*
X0690151Y0193031D03*
X0680151Y0193031D03*
X0670151Y0193031D03*
X0700151Y0193031D03*
X0710151Y0193031D03*
X0720151Y0193031D03*
X0730151Y0193031D03*
X0856789Y0228520D03*
X0856789Y0238520D03*
X0856789Y0248520D03*
X0856789Y0258520D03*
X0740151Y0243031D03*
X0730151Y0243031D03*
X0720151Y0243031D03*
X0710151Y0243031D03*
X0700151Y0243031D03*
X0690151Y0243031D03*
X0680151Y0243031D03*
X0514269Y0217181D03*
X0514269Y0207181D03*
X0514269Y0197181D03*
X0514269Y0187181D03*
X0709899Y0308480D03*
X0719899Y0308480D03*
X0729899Y0308480D03*
X0739899Y0308480D03*
X1046513Y0308480D03*
X1056513Y0308480D03*
X1066513Y0308480D03*
X1076513Y0308480D03*
D14*
X0741041Y0234321D03*
X0741041Y0227521D03*
X0628443Y0221329D03*
X0614663Y0221329D03*
X0614663Y0214529D03*
X0628443Y0214529D03*
X0687891Y0118967D03*
X0687891Y0112167D03*
D15*
X0742616Y0078165D03*
X0752458Y0078165D03*
X0762301Y0078165D03*
D16*
X0760332Y0135252D03*
X0752458Y0135252D03*
X0744584Y0135252D03*
X0736710Y0135252D03*
X0768206Y0135252D03*
D17*
X0774309Y0107693D03*
X0730608Y0107693D03*
D18*
X0645844Y0103323D03*
X0645844Y0113323D03*
X0635844Y0113323D03*
X0635844Y0123323D03*
X0645844Y0123323D03*
X0645844Y0133323D03*
X0645844Y0143323D03*
X0625844Y0143323D03*
X0615844Y0143323D03*
X0615844Y0133323D03*
X0625844Y0133323D03*
X0585844Y0133323D03*
X0585844Y0143323D03*
X0585844Y0153323D03*
X0585844Y0163323D03*
X0585844Y0173323D03*
X0585844Y0183323D03*
X0585844Y0193323D03*
X0585844Y0203323D03*
X0615844Y0193323D03*
X0625844Y0193323D03*
X0645844Y0193323D03*
X0645844Y0203323D03*
X0645844Y0183323D03*
X0645844Y0173323D03*
X0645844Y0163323D03*
X0645844Y0153323D03*
X0625844Y0153323D03*
X0615844Y0153323D03*
X0615844Y0163323D03*
X0625844Y0163323D03*
X0625844Y0173323D03*
X0615844Y0173323D03*
X0615844Y0183323D03*
X0625844Y0183323D03*
X0585844Y0123323D03*
X0585844Y0113323D03*
X0585844Y0103323D03*
X0585844Y0093323D03*
X0585844Y0083323D03*
X0585844Y0073323D03*
X0645844Y0073323D03*
X0645844Y0083323D03*
X0645844Y0093323D03*
D19*
X0694348Y0111630D03*
X0694348Y0119504D03*
X0701907Y0119504D03*
D20*
X0701159Y0111630D03*
D21*
X0559545Y0282890D03*
D22*
X0569545Y0282890D03*
X0579545Y0282890D03*
X0589545Y0282890D03*
X0599545Y0282890D03*
X0609545Y0282890D03*
X0619545Y0282890D03*
X0629545Y0282890D03*
X0639545Y0282890D03*
X0649545Y0282890D03*
X0659545Y0282890D03*
X0669545Y0282890D03*
X0679545Y0282890D03*
X0689545Y0282890D03*
X0699545Y0282890D03*
X0709545Y0282890D03*
D23*
X0833167Y0282890D03*
X0537891Y0282890D03*
X0537891Y0160843D03*
X0833167Y0160843D03*
D24*
X0740151Y0193031D03*
X0670151Y0243031D03*
D25*
X0712169Y0234858D03*
X0716369Y0234858D03*
X0716369Y0230134D03*
X0712169Y0230134D03*
X0721224Y0230134D03*
X0725424Y0230134D03*
X0725424Y0234858D03*
X0721224Y0234858D03*
X0730280Y0234858D03*
X0734480Y0234858D03*
X0734480Y0230134D03*
X0730280Y0230134D03*
X0732248Y0223047D03*
X0736448Y0223047D03*
X0690863Y0221551D03*
X0686663Y0221551D03*
X0615960Y0313476D03*
X0611760Y0313476D03*
D26*
X0704267Y0226651D02*
X0704267Y0223459D01*
X0702807Y0223459D01*
X0702807Y0226651D01*
X0704267Y0226651D01*
X0704267Y0223823D02*
X0702807Y0223823D01*
X0702807Y0224187D02*
X0704267Y0224187D01*
X0704267Y0224551D02*
X0702807Y0224551D01*
X0702807Y0224915D02*
X0704267Y0224915D01*
X0704267Y0225279D02*
X0702807Y0225279D01*
X0702807Y0225643D02*
X0704267Y0225643D01*
X0704267Y0226007D02*
X0702807Y0226007D01*
X0702807Y0226371D02*
X0704267Y0226371D01*
X0706236Y0226651D02*
X0706236Y0223459D01*
X0704776Y0223459D01*
X0704776Y0226651D01*
X0706236Y0226651D01*
X0706236Y0223823D02*
X0704776Y0223823D01*
X0704776Y0224187D02*
X0706236Y0224187D01*
X0706236Y0224551D02*
X0704776Y0224551D01*
X0704776Y0224915D02*
X0706236Y0224915D01*
X0706236Y0225279D02*
X0704776Y0225279D01*
X0704776Y0225643D02*
X0706236Y0225643D01*
X0706236Y0226007D02*
X0704776Y0226007D01*
X0704776Y0226371D02*
X0706236Y0226371D01*
X0708204Y0226651D02*
X0708204Y0223459D01*
X0706744Y0223459D01*
X0706744Y0226651D01*
X0708204Y0226651D01*
X0708204Y0223823D02*
X0706744Y0223823D01*
X0706744Y0224187D02*
X0708204Y0224187D01*
X0708204Y0224551D02*
X0706744Y0224551D01*
X0706744Y0224915D02*
X0708204Y0224915D01*
X0708204Y0225279D02*
X0706744Y0225279D01*
X0706744Y0225643D02*
X0708204Y0225643D01*
X0708204Y0226007D02*
X0706744Y0226007D01*
X0706744Y0226371D02*
X0708204Y0226371D01*
X0710173Y0226651D02*
X0710173Y0223459D01*
X0708713Y0223459D01*
X0708713Y0226651D01*
X0710173Y0226651D01*
X0710173Y0223823D02*
X0708713Y0223823D01*
X0708713Y0224187D02*
X0710173Y0224187D01*
X0710173Y0224551D02*
X0708713Y0224551D01*
X0708713Y0224915D02*
X0710173Y0224915D01*
X0710173Y0225279D02*
X0708713Y0225279D01*
X0708713Y0225643D02*
X0710173Y0225643D01*
X0710173Y0226007D02*
X0708713Y0226007D01*
X0708713Y0226371D02*
X0710173Y0226371D01*
X0712141Y0226651D02*
X0712141Y0223459D01*
X0710681Y0223459D01*
X0710681Y0226651D01*
X0712141Y0226651D01*
X0712141Y0223823D02*
X0710681Y0223823D01*
X0710681Y0224187D02*
X0712141Y0224187D01*
X0712141Y0224551D02*
X0710681Y0224551D01*
X0710681Y0224915D02*
X0712141Y0224915D01*
X0712141Y0225279D02*
X0710681Y0225279D01*
X0710681Y0225643D02*
X0712141Y0225643D01*
X0712141Y0226007D02*
X0710681Y0226007D01*
X0710681Y0226371D02*
X0712141Y0226371D01*
X0714110Y0226651D02*
X0714110Y0221491D01*
X0712650Y0221491D01*
X0712650Y0226651D01*
X0714110Y0226651D01*
X0714110Y0221855D02*
X0712650Y0221855D01*
X0712650Y0222219D02*
X0714110Y0222219D01*
X0714110Y0222583D02*
X0712650Y0222583D01*
X0712650Y0222947D02*
X0714110Y0222947D01*
X0714110Y0223311D02*
X0712650Y0223311D01*
X0712650Y0223675D02*
X0714110Y0223675D01*
X0714110Y0224039D02*
X0712650Y0224039D01*
X0712650Y0224403D02*
X0714110Y0224403D01*
X0714110Y0224767D02*
X0712650Y0224767D01*
X0712650Y0225131D02*
X0714110Y0225131D01*
X0714110Y0225495D02*
X0712650Y0225495D01*
X0712650Y0225859D02*
X0714110Y0225859D01*
X0714110Y0226223D02*
X0712650Y0226223D01*
X0712650Y0226587D02*
X0714110Y0226587D01*
X0716078Y0226651D02*
X0716078Y0223459D01*
X0714618Y0223459D01*
X0714618Y0226651D01*
X0716078Y0226651D01*
X0716078Y0223823D02*
X0714618Y0223823D01*
X0714618Y0224187D02*
X0716078Y0224187D01*
X0716078Y0224551D02*
X0714618Y0224551D01*
X0714618Y0224915D02*
X0716078Y0224915D01*
X0716078Y0225279D02*
X0714618Y0225279D01*
X0714618Y0225643D02*
X0716078Y0225643D01*
X0716078Y0226007D02*
X0714618Y0226007D01*
X0714618Y0226371D02*
X0716078Y0226371D01*
X0718047Y0226651D02*
X0718047Y0223459D01*
X0716587Y0223459D01*
X0716587Y0226651D01*
X0718047Y0226651D01*
X0718047Y0223823D02*
X0716587Y0223823D01*
X0716587Y0224187D02*
X0718047Y0224187D01*
X0718047Y0224551D02*
X0716587Y0224551D01*
X0716587Y0224915D02*
X0718047Y0224915D01*
X0718047Y0225279D02*
X0716587Y0225279D01*
X0716587Y0225643D02*
X0718047Y0225643D01*
X0718047Y0226007D02*
X0716587Y0226007D01*
X0716587Y0226371D02*
X0718047Y0226371D01*
X0720015Y0226651D02*
X0720015Y0223459D01*
X0718555Y0223459D01*
X0718555Y0226651D01*
X0720015Y0226651D01*
X0720015Y0223823D02*
X0718555Y0223823D01*
X0718555Y0224187D02*
X0720015Y0224187D01*
X0720015Y0224551D02*
X0718555Y0224551D01*
X0718555Y0224915D02*
X0720015Y0224915D01*
X0720015Y0225279D02*
X0718555Y0225279D01*
X0718555Y0225643D02*
X0720015Y0225643D01*
X0720015Y0226007D02*
X0718555Y0226007D01*
X0718555Y0226371D02*
X0720015Y0226371D01*
X0722217Y0221766D02*
X0725409Y0221766D01*
X0722217Y0221766D02*
X0722217Y0223226D01*
X0725409Y0223226D01*
X0725409Y0221766D01*
X0725409Y0222130D02*
X0722217Y0222130D01*
X0722217Y0222494D02*
X0725409Y0222494D01*
X0725409Y0222858D02*
X0722217Y0222858D01*
X0722217Y0223222D02*
X0725409Y0223222D01*
X0725409Y0219798D02*
X0722217Y0219798D01*
X0722217Y0221258D01*
X0725409Y0221258D01*
X0725409Y0219798D01*
X0725409Y0220162D02*
X0722217Y0220162D01*
X0722217Y0220526D02*
X0725409Y0220526D01*
X0725409Y0220890D02*
X0722217Y0220890D01*
X0722217Y0221254D02*
X0725409Y0221254D01*
X0725409Y0217829D02*
X0722217Y0217829D01*
X0722217Y0219289D01*
X0725409Y0219289D01*
X0725409Y0217829D01*
X0725409Y0218193D02*
X0722217Y0218193D01*
X0722217Y0218557D02*
X0725409Y0218557D01*
X0725409Y0218921D02*
X0722217Y0218921D01*
X0722217Y0219285D02*
X0725409Y0219285D01*
X0725409Y0215861D02*
X0722217Y0215861D01*
X0722217Y0217321D01*
X0725409Y0217321D01*
X0725409Y0215861D01*
X0725409Y0216225D02*
X0722217Y0216225D01*
X0722217Y0216589D02*
X0725409Y0216589D01*
X0725409Y0216953D02*
X0722217Y0216953D01*
X0722217Y0217317D02*
X0725409Y0217317D01*
X0725409Y0213892D02*
X0722217Y0213892D01*
X0722217Y0215352D01*
X0725409Y0215352D01*
X0725409Y0213892D01*
X0725409Y0214256D02*
X0722217Y0214256D01*
X0722217Y0214620D02*
X0725409Y0214620D01*
X0725409Y0214984D02*
X0722217Y0214984D01*
X0722217Y0215348D02*
X0725409Y0215348D01*
X0725409Y0211924D02*
X0722217Y0211924D01*
X0722217Y0213384D01*
X0725409Y0213384D01*
X0725409Y0211924D01*
X0725409Y0212288D02*
X0722217Y0212288D01*
X0722217Y0212652D02*
X0725409Y0212652D01*
X0725409Y0213016D02*
X0722217Y0213016D01*
X0722217Y0213380D02*
X0725409Y0213380D01*
X0725408Y0209955D02*
X0720248Y0209955D01*
X0720248Y0211415D01*
X0725408Y0211415D01*
X0725408Y0209955D01*
X0725408Y0210319D02*
X0720248Y0210319D01*
X0720248Y0210683D02*
X0725408Y0210683D01*
X0725408Y0211047D02*
X0720248Y0211047D01*
X0720248Y0211411D02*
X0725408Y0211411D01*
X0725409Y0207987D02*
X0722217Y0207987D01*
X0722217Y0209447D01*
X0725409Y0209447D01*
X0725409Y0207987D01*
X0725409Y0208351D02*
X0722217Y0208351D01*
X0722217Y0208715D02*
X0725409Y0208715D01*
X0725409Y0209079D02*
X0722217Y0209079D01*
X0722217Y0209443D02*
X0725409Y0209443D01*
X0720524Y0207753D02*
X0720524Y0204561D01*
X0720524Y0207753D02*
X0721984Y0207753D01*
X0721984Y0204561D01*
X0720524Y0204561D01*
X0720524Y0204925D02*
X0721984Y0204925D01*
X0721984Y0205289D02*
X0720524Y0205289D01*
X0720524Y0205653D02*
X0721984Y0205653D01*
X0721984Y0206017D02*
X0720524Y0206017D01*
X0720524Y0206381D02*
X0721984Y0206381D01*
X0721984Y0206745D02*
X0720524Y0206745D01*
X0720524Y0207109D02*
X0721984Y0207109D01*
X0721984Y0207473D02*
X0720524Y0207473D01*
X0718555Y0207753D02*
X0718555Y0204561D01*
X0718555Y0207753D02*
X0720015Y0207753D01*
X0720015Y0204561D01*
X0718555Y0204561D01*
X0718555Y0204925D02*
X0720015Y0204925D01*
X0720015Y0205289D02*
X0718555Y0205289D01*
X0718555Y0205653D02*
X0720015Y0205653D01*
X0720015Y0206017D02*
X0718555Y0206017D01*
X0718555Y0206381D02*
X0720015Y0206381D01*
X0720015Y0206745D02*
X0718555Y0206745D01*
X0718555Y0207109D02*
X0720015Y0207109D01*
X0720015Y0207473D02*
X0718555Y0207473D01*
X0716587Y0207753D02*
X0716587Y0204561D01*
X0716587Y0207753D02*
X0718047Y0207753D01*
X0718047Y0204561D01*
X0716587Y0204561D01*
X0716587Y0204925D02*
X0718047Y0204925D01*
X0718047Y0205289D02*
X0716587Y0205289D01*
X0716587Y0205653D02*
X0718047Y0205653D01*
X0718047Y0206017D02*
X0716587Y0206017D01*
X0716587Y0206381D02*
X0718047Y0206381D01*
X0718047Y0206745D02*
X0716587Y0206745D01*
X0716587Y0207109D02*
X0718047Y0207109D01*
X0718047Y0207473D02*
X0716587Y0207473D01*
X0714618Y0207753D02*
X0714618Y0204561D01*
X0714618Y0207753D02*
X0716078Y0207753D01*
X0716078Y0204561D01*
X0714618Y0204561D01*
X0714618Y0204925D02*
X0716078Y0204925D01*
X0716078Y0205289D02*
X0714618Y0205289D01*
X0714618Y0205653D02*
X0716078Y0205653D01*
X0716078Y0206017D02*
X0714618Y0206017D01*
X0714618Y0206381D02*
X0716078Y0206381D01*
X0716078Y0206745D02*
X0714618Y0206745D01*
X0714618Y0207109D02*
X0716078Y0207109D01*
X0716078Y0207473D02*
X0714618Y0207473D01*
X0712650Y0207753D02*
X0712650Y0204561D01*
X0712650Y0207753D02*
X0714110Y0207753D01*
X0714110Y0204561D01*
X0712650Y0204561D01*
X0712650Y0204925D02*
X0714110Y0204925D01*
X0714110Y0205289D02*
X0712650Y0205289D01*
X0712650Y0205653D02*
X0714110Y0205653D01*
X0714110Y0206017D02*
X0712650Y0206017D01*
X0712650Y0206381D02*
X0714110Y0206381D01*
X0714110Y0206745D02*
X0712650Y0206745D01*
X0712650Y0207109D02*
X0714110Y0207109D01*
X0714110Y0207473D02*
X0712650Y0207473D01*
X0710681Y0207753D02*
X0710681Y0204561D01*
X0710681Y0207753D02*
X0712141Y0207753D01*
X0712141Y0204561D01*
X0710681Y0204561D01*
X0710681Y0204925D02*
X0712141Y0204925D01*
X0712141Y0205289D02*
X0710681Y0205289D01*
X0710681Y0205653D02*
X0712141Y0205653D01*
X0712141Y0206017D02*
X0710681Y0206017D01*
X0710681Y0206381D02*
X0712141Y0206381D01*
X0712141Y0206745D02*
X0710681Y0206745D01*
X0710681Y0207109D02*
X0712141Y0207109D01*
X0712141Y0207473D02*
X0710681Y0207473D01*
X0708713Y0207753D02*
X0708713Y0204561D01*
X0708713Y0207753D02*
X0710173Y0207753D01*
X0710173Y0204561D01*
X0708713Y0204561D01*
X0708713Y0204925D02*
X0710173Y0204925D01*
X0710173Y0205289D02*
X0708713Y0205289D01*
X0708713Y0205653D02*
X0710173Y0205653D01*
X0710173Y0206017D02*
X0708713Y0206017D01*
X0708713Y0206381D02*
X0710173Y0206381D01*
X0710173Y0206745D02*
X0708713Y0206745D01*
X0708713Y0207109D02*
X0710173Y0207109D01*
X0710173Y0207473D02*
X0708713Y0207473D01*
X0706744Y0207753D02*
X0706744Y0204561D01*
X0706744Y0207753D02*
X0708204Y0207753D01*
X0708204Y0204561D01*
X0706744Y0204561D01*
X0706744Y0204925D02*
X0708204Y0204925D01*
X0708204Y0205289D02*
X0706744Y0205289D01*
X0706744Y0205653D02*
X0708204Y0205653D01*
X0708204Y0206017D02*
X0706744Y0206017D01*
X0706744Y0206381D02*
X0708204Y0206381D01*
X0708204Y0206745D02*
X0706744Y0206745D01*
X0706744Y0207109D02*
X0708204Y0207109D01*
X0708204Y0207473D02*
X0706744Y0207473D01*
X0704776Y0207753D02*
X0704776Y0204561D01*
X0704776Y0207753D02*
X0706236Y0207753D01*
X0706236Y0204561D01*
X0704776Y0204561D01*
X0704776Y0204925D02*
X0706236Y0204925D01*
X0706236Y0205289D02*
X0704776Y0205289D01*
X0704776Y0205653D02*
X0706236Y0205653D01*
X0706236Y0206017D02*
X0704776Y0206017D01*
X0704776Y0206381D02*
X0706236Y0206381D01*
X0706236Y0206745D02*
X0704776Y0206745D01*
X0704776Y0207109D02*
X0706236Y0207109D01*
X0706236Y0207473D02*
X0704776Y0207473D01*
X0702807Y0207753D02*
X0702807Y0204561D01*
X0702807Y0207753D02*
X0704267Y0207753D01*
X0704267Y0204561D01*
X0702807Y0204561D01*
X0702807Y0204925D02*
X0704267Y0204925D01*
X0704267Y0205289D02*
X0702807Y0205289D01*
X0702807Y0205653D02*
X0704267Y0205653D01*
X0704267Y0206017D02*
X0702807Y0206017D01*
X0702807Y0206381D02*
X0704267Y0206381D01*
X0704267Y0206745D02*
X0702807Y0206745D01*
X0702807Y0207109D02*
X0704267Y0207109D01*
X0704267Y0207473D02*
X0702807Y0207473D01*
X0702574Y0209447D02*
X0699382Y0209447D01*
X0702574Y0209447D02*
X0702574Y0207987D01*
X0699382Y0207987D01*
X0699382Y0209447D01*
X0699382Y0208351D02*
X0702574Y0208351D01*
X0702574Y0208715D02*
X0699382Y0208715D01*
X0699382Y0209079D02*
X0702574Y0209079D01*
X0702574Y0209443D02*
X0699382Y0209443D01*
X0699382Y0211415D02*
X0704542Y0211415D01*
X0704542Y0209955D01*
X0699382Y0209955D01*
X0699382Y0211415D01*
X0699382Y0210319D02*
X0704542Y0210319D01*
X0704542Y0210683D02*
X0699382Y0210683D01*
X0699382Y0211047D02*
X0704542Y0211047D01*
X0704542Y0211411D02*
X0699382Y0211411D01*
X0699382Y0213384D02*
X0702574Y0213384D01*
X0702574Y0211924D01*
X0699382Y0211924D01*
X0699382Y0213384D01*
X0699382Y0212288D02*
X0702574Y0212288D01*
X0702574Y0212652D02*
X0699382Y0212652D01*
X0699382Y0213016D02*
X0702574Y0213016D01*
X0702574Y0213380D02*
X0699382Y0213380D01*
X0699382Y0215352D02*
X0702574Y0215352D01*
X0702574Y0213892D01*
X0699382Y0213892D01*
X0699382Y0215352D01*
X0699382Y0214256D02*
X0702574Y0214256D01*
X0702574Y0214620D02*
X0699382Y0214620D01*
X0699382Y0214984D02*
X0702574Y0214984D01*
X0702574Y0215348D02*
X0699382Y0215348D01*
X0699382Y0217321D02*
X0702574Y0217321D01*
X0702574Y0215861D01*
X0699382Y0215861D01*
X0699382Y0217321D01*
X0699382Y0216225D02*
X0702574Y0216225D01*
X0702574Y0216589D02*
X0699382Y0216589D01*
X0699382Y0216953D02*
X0702574Y0216953D01*
X0702574Y0217317D02*
X0699382Y0217317D01*
X0699382Y0219289D02*
X0702574Y0219289D01*
X0702574Y0217829D01*
X0699382Y0217829D01*
X0699382Y0219289D01*
X0699382Y0218193D02*
X0702574Y0218193D01*
X0702574Y0218557D02*
X0699382Y0218557D01*
X0699382Y0218921D02*
X0702574Y0218921D01*
X0702574Y0219285D02*
X0699382Y0219285D01*
X0699382Y0221258D02*
X0702574Y0221258D01*
X0702574Y0219798D01*
X0699382Y0219798D01*
X0699382Y0221258D01*
X0699382Y0220162D02*
X0702574Y0220162D01*
X0702574Y0220526D02*
X0699382Y0220526D01*
X0699382Y0220890D02*
X0702574Y0220890D01*
X0702574Y0221254D02*
X0699382Y0221254D01*
X0699382Y0223226D02*
X0702574Y0223226D01*
X0702574Y0221766D01*
X0699382Y0221766D01*
X0699382Y0223226D01*
X0699382Y0222130D02*
X0702574Y0222130D01*
X0702574Y0222494D02*
X0699382Y0222494D01*
X0699382Y0222858D02*
X0702574Y0222858D01*
X0702574Y0223222D02*
X0699382Y0223222D01*
D27*
X0721254Y0225055D03*
D28*
X0713660Y0216871D02*
X0713660Y0214341D01*
X0711130Y0214341D01*
X0711130Y0216871D01*
X0713660Y0216871D01*
X0713660Y0214972D02*
X0711130Y0214972D01*
X0711130Y0215603D02*
X0713660Y0215603D01*
X0713660Y0216234D02*
X0711130Y0216234D01*
X0711130Y0216865D02*
X0713660Y0216865D01*
D29*
X0712395Y0215606D03*
D30*
X0693049Y0131630D03*
D31*
X0698856Y0131630D03*
X0698856Y0133598D03*
X0698856Y0135567D03*
X0698856Y0129661D03*
X0698856Y0127693D03*
X0687242Y0127693D03*
X0687242Y0129661D03*
X0687242Y0131630D03*
X0687242Y0133598D03*
X0687242Y0135567D03*
D32*
X0810234Y0180472D03*
X0815234Y0180372D03*
X0820234Y0180372D03*
X0825234Y0180372D03*
X0825234Y0202572D03*
X0820234Y0202572D03*
X0815234Y0202572D03*
X0810234Y0202572D03*
D33*
X0802458Y0236039D03*
X0763088Y0236039D03*
D34*
X0797931Y0203362D03*
X0797931Y0189189D03*
D35*
X0775443Y0194331D03*
X0849498Y0180213D03*
X0775443Y0164409D03*
X0849498Y0210134D03*
D36*
G36*
X0904388Y0117615D02*
X0908490Y0113513D01*
X0898460Y0103483D01*
X0894358Y0107585D01*
X0904388Y0117615D01*
G37*
G36*
X0919087Y0118171D02*
X0923189Y0114069D01*
X0913159Y0104039D01*
X0909057Y0108141D01*
X0919087Y0118171D01*
G37*
G36*
X0918530Y0103472D02*
X0922632Y0099370D01*
X0912602Y0089340D01*
X0908500Y0093442D01*
X0918530Y0103472D01*
G37*
G36*
X0933229Y0104029D02*
X0937331Y0099927D01*
X0927301Y0089897D01*
X0923199Y0093999D01*
X0933229Y0104029D01*
G37*
G36*
X1204931Y0101070D02*
X1200829Y0096968D01*
X1190799Y0106998D01*
X1194901Y0111100D01*
X1204931Y0101070D01*
G37*
G36*
X1219630Y0100514D02*
X1215528Y0096412D01*
X1205498Y0106442D01*
X1209600Y0110544D01*
X1219630Y0100514D01*
G37*
G36*
X1205488Y0086371D02*
X1201386Y0082269D01*
X1191356Y0092299D01*
X1195458Y0096401D01*
X1205488Y0086371D01*
G37*
G36*
X1219073Y0115212D02*
X1214971Y0111110D01*
X1204941Y0121140D01*
X1209043Y0125242D01*
X1219073Y0115212D01*
G37*
X1105884Y0303087D03*
X1115884Y0313874D03*
X1095884Y0313874D03*
X1085884Y0303087D03*
D37*
X0776080Y0276984D03*
D38*
X0776080Y0300606D03*
D39*
X0776080Y0312417D03*
D40*
X0758364Y0304528D03*
X0793797Y0304528D03*
D41*
X0677655Y0094071D03*
X0677655Y0074071D03*
D42*
X0659545Y0076984D03*
D43*
X0895647Y0187181D03*
X0884860Y0197181D03*
X0895647Y0207181D03*
X0884860Y0217181D03*
X1227380Y0238520D03*
X1238167Y0248520D03*
X1227380Y0258520D03*
X1238167Y0228520D03*
D44*
X0839390Y0116401D02*
X0838710Y0117081D01*
X0840964Y0117081D01*
X0842556Y0115489D01*
X0842556Y0113235D01*
X0840964Y0111643D01*
X0838710Y0111643D01*
X0837118Y0113235D01*
X0837118Y0115489D01*
X0838710Y0117081D01*
X0839133Y0116061D01*
X0840541Y0116061D01*
X0841536Y0115066D01*
X0841536Y0113658D01*
X0840541Y0112663D01*
X0839133Y0112663D01*
X0838138Y0113658D01*
X0838138Y0115066D01*
X0839133Y0116061D01*
X0839555Y0115041D01*
X0840119Y0115041D01*
X0840516Y0114644D01*
X0840516Y0114080D01*
X0840119Y0113683D01*
X0839555Y0113683D01*
X0839158Y0114080D01*
X0839158Y0114644D01*
X0839555Y0115041D01*
X0832319Y0109330D02*
X0831639Y0110010D01*
X0833893Y0110010D01*
X0835485Y0108418D01*
X0835485Y0106164D01*
X0833893Y0104572D01*
X0831639Y0104572D01*
X0830047Y0106164D01*
X0830047Y0108418D01*
X0831639Y0110010D01*
X0832062Y0108990D01*
X0833470Y0108990D01*
X0834465Y0107995D01*
X0834465Y0106587D01*
X0833470Y0105592D01*
X0832062Y0105592D01*
X0831067Y0106587D01*
X0831067Y0107995D01*
X0832062Y0108990D01*
X0832484Y0107970D01*
X0833048Y0107970D01*
X0833445Y0107573D01*
X0833445Y0107009D01*
X0833048Y0106612D01*
X0832484Y0106612D01*
X0832087Y0107009D01*
X0832087Y0107573D01*
X0832484Y0107970D01*
X0825247Y0102259D02*
X0824567Y0102939D01*
X0826821Y0102939D01*
X0828413Y0101347D01*
X0828413Y0099093D01*
X0826821Y0097501D01*
X0824567Y0097501D01*
X0822975Y0099093D01*
X0822975Y0101347D01*
X0824567Y0102939D01*
X0824990Y0101919D01*
X0826398Y0101919D01*
X0827393Y0100924D01*
X0827393Y0099516D01*
X0826398Y0098521D01*
X0824990Y0098521D01*
X0823995Y0099516D01*
X0823995Y0100924D01*
X0824990Y0101919D01*
X0825412Y0100899D01*
X0825976Y0100899D01*
X0826373Y0100502D01*
X0826373Y0099938D01*
X0825976Y0099541D01*
X0825412Y0099541D01*
X0825015Y0099938D01*
X0825015Y0100502D01*
X0825412Y0100899D01*
X0818176Y0095188D02*
X0817496Y0095868D01*
X0819750Y0095868D01*
X0821342Y0094276D01*
X0821342Y0092022D01*
X0819750Y0090430D01*
X0817496Y0090430D01*
X0815904Y0092022D01*
X0815904Y0094276D01*
X0817496Y0095868D01*
X0817919Y0094848D01*
X0819327Y0094848D01*
X0820322Y0093853D01*
X0820322Y0092445D01*
X0819327Y0091450D01*
X0817919Y0091450D01*
X0816924Y0092445D01*
X0816924Y0093853D01*
X0817919Y0094848D01*
X0818341Y0093828D01*
X0818905Y0093828D01*
X0819302Y0093431D01*
X0819302Y0092867D01*
X0818905Y0092470D01*
X0818341Y0092470D01*
X0817944Y0092867D01*
X0817944Y0093431D01*
X0818341Y0093828D01*
X0548427Y0092702D02*
X0547747Y0092022D01*
X0547747Y0094276D01*
X0549339Y0095868D01*
X0551593Y0095868D01*
X0553185Y0094276D01*
X0553185Y0092022D01*
X0551593Y0090430D01*
X0549339Y0090430D01*
X0547747Y0092022D01*
X0548767Y0092445D01*
X0548767Y0093853D01*
X0549762Y0094848D01*
X0551170Y0094848D01*
X0552165Y0093853D01*
X0552165Y0092445D01*
X0551170Y0091450D01*
X0549762Y0091450D01*
X0548767Y0092445D01*
X0549787Y0092867D01*
X0549787Y0093431D01*
X0550184Y0093828D01*
X0550748Y0093828D01*
X0551145Y0093431D01*
X0551145Y0092867D01*
X0550748Y0092470D01*
X0550184Y0092470D01*
X0549787Y0092867D01*
X0541356Y0099773D02*
X0540676Y0099093D01*
X0540676Y0101347D01*
X0542268Y0102939D01*
X0544522Y0102939D01*
X0546114Y0101347D01*
X0546114Y0099093D01*
X0544522Y0097501D01*
X0542268Y0097501D01*
X0540676Y0099093D01*
X0541696Y0099516D01*
X0541696Y0100924D01*
X0542691Y0101919D01*
X0544099Y0101919D01*
X0545094Y0100924D01*
X0545094Y0099516D01*
X0544099Y0098521D01*
X0542691Y0098521D01*
X0541696Y0099516D01*
X0542716Y0099938D01*
X0542716Y0100502D01*
X0543113Y0100899D01*
X0543677Y0100899D01*
X0544074Y0100502D01*
X0544074Y0099938D01*
X0543677Y0099541D01*
X0543113Y0099541D01*
X0542716Y0099938D01*
X0534285Y0106844D02*
X0533605Y0106164D01*
X0533605Y0108418D01*
X0535197Y0110010D01*
X0537451Y0110010D01*
X0539043Y0108418D01*
X0539043Y0106164D01*
X0537451Y0104572D01*
X0535197Y0104572D01*
X0533605Y0106164D01*
X0534625Y0106587D01*
X0534625Y0107995D01*
X0535620Y0108990D01*
X0537028Y0108990D01*
X0538023Y0107995D01*
X0538023Y0106587D01*
X0537028Y0105592D01*
X0535620Y0105592D01*
X0534625Y0106587D01*
X0535645Y0107009D01*
X0535645Y0107573D01*
X0536042Y0107970D01*
X0536606Y0107970D01*
X0537003Y0107573D01*
X0537003Y0107009D01*
X0536606Y0106612D01*
X0536042Y0106612D01*
X0535645Y0107009D01*
X0527214Y0113915D02*
X0526534Y0113235D01*
X0526534Y0115489D01*
X0528126Y0117081D01*
X0530380Y0117081D01*
X0531972Y0115489D01*
X0531972Y0113235D01*
X0530380Y0111643D01*
X0528126Y0111643D01*
X0526534Y0113235D01*
X0527554Y0113658D01*
X0527554Y0115066D01*
X0528549Y0116061D01*
X0529957Y0116061D01*
X0530952Y0115066D01*
X0530952Y0113658D01*
X0529957Y0112663D01*
X0528549Y0112663D01*
X0527554Y0113658D01*
X0528574Y0114080D01*
X0528574Y0114644D01*
X0528971Y0115041D01*
X0529535Y0115041D01*
X0529932Y0114644D01*
X0529932Y0114080D01*
X0529535Y0113683D01*
X0528971Y0113683D01*
X0528574Y0114080D01*
D45*
X0900884Y0156118D03*
X1222143Y0155724D03*
D46*
X1107183Y0148244D03*
M02*
