G75*
%MOIN*%
%OFA0B0*%
%FSLAX25Y25*%
%IPPOS*%
%LPD*%
%AMOC8*
5,1,8,0,0,1.08239X$1,22.5*
%
%ADD10C,0.12611*%
%ADD11C,0.16548*%
%ADD12C,0.02500*%
%ADD13OC8,0.06800*%
%ADD14C,0.07887*%
%ADD15C,0.07800*%
%ADD16C,0.13068*%
%ADD17C,0.06500*%
%ADD18R,0.08200X0.08200*%
%ADD19C,0.08200*%
%ADD20R,0.06800X0.06800*%
%ADD21OC8,0.17005*%
%ADD22OC8,0.14052*%
%ADD23C,0.07099*%
%ADD24OC8,0.15036*%
%ADD25C,0.01360*%
%ADD26OC8,0.12611*%
%ADD27C,0.02165*%
%ADD28C,0.01417*%
D10*
X0445331Y0075606D03*
X0793126Y0075606D03*
X0793126Y0310016D03*
X0445331Y0310016D03*
D11*
X0390370Y0282890D03*
X0203362Y0308480D03*
X0095094Y0282890D03*
X0095094Y0160843D03*
X0077378Y0135252D03*
X0360843Y0113598D03*
X0390370Y0160843D03*
D12*
X0482783Y0152703D02*
X0489050Y0152703D01*
X0491927Y0152703D02*
X0494433Y0141423D01*
X0496940Y0148943D01*
X0499447Y0141423D01*
X0501953Y0152703D01*
X0505332Y0152703D02*
X0507839Y0152703D01*
X0506586Y0152703D02*
X0506586Y0141423D01*
X0507839Y0141423D02*
X0505332Y0141423D01*
X0512942Y0148003D02*
X0516389Y0146123D01*
X0515135Y0141423D02*
X0514991Y0141425D01*
X0514847Y0141431D01*
X0514703Y0141441D01*
X0514559Y0141454D01*
X0514416Y0141472D01*
X0514274Y0141493D01*
X0514132Y0141519D01*
X0513991Y0141548D01*
X0513850Y0141581D01*
X0513711Y0141618D01*
X0513573Y0141659D01*
X0513436Y0141703D01*
X0513300Y0141751D01*
X0513165Y0141803D01*
X0513032Y0141858D01*
X0512901Y0141918D01*
X0512771Y0141980D01*
X0512643Y0142046D01*
X0512516Y0142116D01*
X0512392Y0142189D01*
X0512270Y0142265D01*
X0512150Y0142345D01*
X0512032Y0142428D01*
X0511916Y0142514D01*
X0511803Y0142603D01*
X0511692Y0142695D01*
X0511584Y0142790D01*
X0511478Y0142889D01*
X0511375Y0142990D01*
X0516389Y0146123D02*
X0516472Y0146072D01*
X0516553Y0146018D01*
X0516632Y0145960D01*
X0516709Y0145900D01*
X0516784Y0145836D01*
X0516856Y0145770D01*
X0516925Y0145701D01*
X0516992Y0145629D01*
X0517056Y0145555D01*
X0517117Y0145478D01*
X0517175Y0145400D01*
X0517230Y0145319D01*
X0517282Y0145235D01*
X0517330Y0145150D01*
X0517376Y0145064D01*
X0517418Y0144975D01*
X0517456Y0144885D01*
X0517491Y0144794D01*
X0517522Y0144701D01*
X0517550Y0144607D01*
X0517575Y0144512D01*
X0517595Y0144417D01*
X0517612Y0144320D01*
X0517625Y0144223D01*
X0517634Y0144126D01*
X0517640Y0144028D01*
X0517642Y0143930D01*
X0517640Y0143832D01*
X0517634Y0143733D01*
X0517625Y0143635D01*
X0517611Y0143538D01*
X0517594Y0143441D01*
X0517573Y0143345D01*
X0517548Y0143250D01*
X0517519Y0143155D01*
X0517487Y0143062D01*
X0517451Y0142971D01*
X0517412Y0142880D01*
X0517369Y0142792D01*
X0517322Y0142705D01*
X0517273Y0142620D01*
X0517219Y0142537D01*
X0517163Y0142456D01*
X0517104Y0142378D01*
X0517041Y0142302D01*
X0516976Y0142228D01*
X0516908Y0142157D01*
X0516837Y0142089D01*
X0516763Y0142024D01*
X0516687Y0141961D01*
X0516609Y0141902D01*
X0516528Y0141846D01*
X0516445Y0141792D01*
X0516360Y0141743D01*
X0516273Y0141696D01*
X0516185Y0141653D01*
X0516094Y0141614D01*
X0516003Y0141578D01*
X0515910Y0141546D01*
X0515816Y0141517D01*
X0515720Y0141492D01*
X0515624Y0141471D01*
X0515527Y0141454D01*
X0515430Y0141440D01*
X0515332Y0141431D01*
X0515233Y0141425D01*
X0515135Y0141423D01*
X0517016Y0151763D02*
X0516910Y0151840D01*
X0516801Y0151915D01*
X0516691Y0151986D01*
X0516578Y0152054D01*
X0516464Y0152119D01*
X0516348Y0152181D01*
X0516230Y0152240D01*
X0516111Y0152295D01*
X0515990Y0152347D01*
X0515868Y0152396D01*
X0515744Y0152441D01*
X0515620Y0152482D01*
X0515494Y0152520D01*
X0515367Y0152555D01*
X0515239Y0152586D01*
X0515111Y0152613D01*
X0514981Y0152637D01*
X0514851Y0152657D01*
X0514721Y0152674D01*
X0514590Y0152686D01*
X0514459Y0152696D01*
X0514327Y0152701D01*
X0514196Y0152703D01*
X0514098Y0152701D01*
X0513999Y0152695D01*
X0513901Y0152686D01*
X0513804Y0152672D01*
X0513707Y0152655D01*
X0513611Y0152634D01*
X0513515Y0152609D01*
X0513421Y0152580D01*
X0513328Y0152548D01*
X0513237Y0152512D01*
X0513146Y0152473D01*
X0513058Y0152430D01*
X0512971Y0152383D01*
X0512886Y0152334D01*
X0512803Y0152280D01*
X0512722Y0152224D01*
X0512644Y0152165D01*
X0512568Y0152102D01*
X0512494Y0152037D01*
X0512423Y0151969D01*
X0512355Y0151898D01*
X0512290Y0151824D01*
X0512227Y0151748D01*
X0512168Y0151670D01*
X0512112Y0151589D01*
X0512058Y0151506D01*
X0512009Y0151421D01*
X0511962Y0151334D01*
X0511919Y0151246D01*
X0511880Y0151155D01*
X0511844Y0151064D01*
X0511812Y0150971D01*
X0511783Y0150877D01*
X0511758Y0150781D01*
X0511737Y0150685D01*
X0511720Y0150588D01*
X0511706Y0150491D01*
X0511697Y0150393D01*
X0511691Y0150294D01*
X0511689Y0150196D01*
X0511691Y0150098D01*
X0511697Y0150000D01*
X0511706Y0149903D01*
X0511719Y0149806D01*
X0511736Y0149709D01*
X0511756Y0149614D01*
X0511781Y0149519D01*
X0511809Y0149425D01*
X0511840Y0149332D01*
X0511875Y0149241D01*
X0511913Y0149151D01*
X0511955Y0149062D01*
X0512001Y0148976D01*
X0512049Y0148891D01*
X0512101Y0148807D01*
X0512156Y0148726D01*
X0512214Y0148648D01*
X0512275Y0148571D01*
X0512339Y0148497D01*
X0512406Y0148425D01*
X0512475Y0148356D01*
X0512547Y0148290D01*
X0512622Y0148226D01*
X0512699Y0148166D01*
X0512778Y0148108D01*
X0512859Y0148054D01*
X0512942Y0148003D01*
X0520677Y0152703D02*
X0526943Y0152703D01*
X0523810Y0152703D02*
X0523810Y0141423D01*
X0530688Y0141423D02*
X0530688Y0152703D01*
X0535701Y0152703D01*
X0539668Y0152703D02*
X0542801Y0152703D01*
X0539668Y0152703D02*
X0539668Y0141423D01*
X0535701Y0141423D02*
X0530688Y0141423D01*
X0530688Y0147690D02*
X0534448Y0147690D01*
X0539668Y0146436D02*
X0542801Y0146436D01*
X0543428Y0146436D02*
X0545935Y0141423D01*
X0555470Y0141423D02*
X0558603Y0141423D01*
X0558715Y0141425D01*
X0558827Y0141431D01*
X0558938Y0141441D01*
X0559049Y0141455D01*
X0559159Y0141473D01*
X0559269Y0141495D01*
X0559378Y0141520D01*
X0559486Y0141550D01*
X0559592Y0141583D01*
X0559698Y0141621D01*
X0559802Y0141661D01*
X0559904Y0141706D01*
X0560005Y0141754D01*
X0560104Y0141806D01*
X0560202Y0141862D01*
X0560297Y0141920D01*
X0560390Y0141982D01*
X0560481Y0142048D01*
X0560569Y0142117D01*
X0560655Y0142188D01*
X0560738Y0142263D01*
X0560818Y0142341D01*
X0560896Y0142421D01*
X0560971Y0142504D01*
X0561042Y0142590D01*
X0561111Y0142678D01*
X0561177Y0142769D01*
X0561239Y0142862D01*
X0561297Y0142957D01*
X0561353Y0143055D01*
X0561405Y0143154D01*
X0561453Y0143255D01*
X0561498Y0143357D01*
X0561538Y0143461D01*
X0561576Y0143567D01*
X0561609Y0143673D01*
X0561639Y0143781D01*
X0561664Y0143890D01*
X0561686Y0144000D01*
X0561704Y0144110D01*
X0561718Y0144221D01*
X0561728Y0144332D01*
X0561734Y0144444D01*
X0561736Y0144556D01*
X0561734Y0144668D01*
X0561728Y0144780D01*
X0561718Y0144891D01*
X0561704Y0145002D01*
X0561686Y0145112D01*
X0561664Y0145222D01*
X0561639Y0145331D01*
X0561609Y0145439D01*
X0561576Y0145545D01*
X0561538Y0145651D01*
X0561498Y0145755D01*
X0561453Y0145857D01*
X0561405Y0145958D01*
X0561353Y0146057D01*
X0561297Y0146155D01*
X0561239Y0146250D01*
X0561177Y0146343D01*
X0561111Y0146434D01*
X0561042Y0146522D01*
X0560971Y0146608D01*
X0560896Y0146691D01*
X0560818Y0146771D01*
X0560738Y0146849D01*
X0560655Y0146924D01*
X0560569Y0146995D01*
X0560481Y0147064D01*
X0560390Y0147130D01*
X0560297Y0147192D01*
X0560202Y0147250D01*
X0560104Y0147306D01*
X0560005Y0147358D01*
X0559904Y0147406D01*
X0559802Y0147451D01*
X0559698Y0147491D01*
X0559592Y0147529D01*
X0559486Y0147562D01*
X0559378Y0147592D01*
X0559269Y0147617D01*
X0559159Y0147639D01*
X0559049Y0147657D01*
X0558938Y0147671D01*
X0558827Y0147681D01*
X0558715Y0147687D01*
X0558603Y0147689D01*
X0559230Y0147690D02*
X0556723Y0147690D01*
X0559230Y0147689D02*
X0559328Y0147691D01*
X0559427Y0147697D01*
X0559525Y0147706D01*
X0559622Y0147720D01*
X0559719Y0147737D01*
X0559815Y0147758D01*
X0559911Y0147783D01*
X0560005Y0147812D01*
X0560098Y0147844D01*
X0560189Y0147880D01*
X0560280Y0147919D01*
X0560368Y0147962D01*
X0560455Y0148009D01*
X0560540Y0148058D01*
X0560623Y0148112D01*
X0560704Y0148168D01*
X0560782Y0148227D01*
X0560858Y0148290D01*
X0560932Y0148355D01*
X0561003Y0148423D01*
X0561071Y0148494D01*
X0561136Y0148568D01*
X0561199Y0148644D01*
X0561258Y0148722D01*
X0561314Y0148803D01*
X0561368Y0148886D01*
X0561417Y0148971D01*
X0561464Y0149058D01*
X0561507Y0149146D01*
X0561546Y0149237D01*
X0561582Y0149328D01*
X0561614Y0149421D01*
X0561643Y0149515D01*
X0561668Y0149611D01*
X0561689Y0149707D01*
X0561706Y0149804D01*
X0561720Y0149901D01*
X0561729Y0149999D01*
X0561735Y0150098D01*
X0561737Y0150196D01*
X0561735Y0150294D01*
X0561729Y0150393D01*
X0561720Y0150491D01*
X0561706Y0150588D01*
X0561689Y0150685D01*
X0561668Y0150781D01*
X0561643Y0150877D01*
X0561614Y0150971D01*
X0561582Y0151064D01*
X0561546Y0151155D01*
X0561507Y0151246D01*
X0561464Y0151334D01*
X0561417Y0151421D01*
X0561368Y0151506D01*
X0561314Y0151589D01*
X0561258Y0151670D01*
X0561199Y0151748D01*
X0561136Y0151824D01*
X0561071Y0151898D01*
X0561003Y0151969D01*
X0560932Y0152037D01*
X0560858Y0152102D01*
X0560782Y0152165D01*
X0560704Y0152224D01*
X0560623Y0152280D01*
X0560540Y0152334D01*
X0560455Y0152383D01*
X0560368Y0152430D01*
X0560280Y0152473D01*
X0560189Y0152512D01*
X0560098Y0152548D01*
X0560005Y0152580D01*
X0559911Y0152609D01*
X0559815Y0152634D01*
X0559719Y0152655D01*
X0559622Y0152672D01*
X0559525Y0152686D01*
X0559427Y0152695D01*
X0559328Y0152701D01*
X0559230Y0152703D01*
X0555470Y0152703D01*
X0542801Y0152703D02*
X0542913Y0152701D01*
X0543025Y0152695D01*
X0543136Y0152685D01*
X0543247Y0152671D01*
X0543357Y0152653D01*
X0543467Y0152631D01*
X0543576Y0152606D01*
X0543684Y0152576D01*
X0543790Y0152543D01*
X0543896Y0152505D01*
X0544000Y0152465D01*
X0544102Y0152420D01*
X0544203Y0152372D01*
X0544302Y0152320D01*
X0544400Y0152264D01*
X0544495Y0152206D01*
X0544588Y0152144D01*
X0544679Y0152078D01*
X0544767Y0152009D01*
X0544853Y0151938D01*
X0544936Y0151863D01*
X0545016Y0151785D01*
X0545094Y0151705D01*
X0545169Y0151622D01*
X0545240Y0151536D01*
X0545309Y0151448D01*
X0545375Y0151357D01*
X0545437Y0151264D01*
X0545495Y0151169D01*
X0545551Y0151071D01*
X0545603Y0150972D01*
X0545651Y0150871D01*
X0545696Y0150769D01*
X0545736Y0150665D01*
X0545774Y0150559D01*
X0545807Y0150453D01*
X0545837Y0150345D01*
X0545862Y0150236D01*
X0545884Y0150126D01*
X0545902Y0150016D01*
X0545916Y0149905D01*
X0545926Y0149794D01*
X0545932Y0149682D01*
X0545934Y0149570D01*
X0545932Y0149458D01*
X0545926Y0149346D01*
X0545916Y0149235D01*
X0545902Y0149124D01*
X0545884Y0149014D01*
X0545862Y0148904D01*
X0545837Y0148795D01*
X0545807Y0148687D01*
X0545774Y0148581D01*
X0545736Y0148475D01*
X0545696Y0148371D01*
X0545651Y0148269D01*
X0545603Y0148168D01*
X0545551Y0148069D01*
X0545495Y0147971D01*
X0545437Y0147876D01*
X0545375Y0147783D01*
X0545309Y0147692D01*
X0545240Y0147604D01*
X0545169Y0147518D01*
X0545094Y0147435D01*
X0545016Y0147355D01*
X0544936Y0147277D01*
X0544853Y0147202D01*
X0544767Y0147131D01*
X0544679Y0147062D01*
X0544588Y0146996D01*
X0544495Y0146934D01*
X0544400Y0146876D01*
X0544302Y0146820D01*
X0544203Y0146768D01*
X0544102Y0146720D01*
X0544000Y0146675D01*
X0543896Y0146635D01*
X0543790Y0146597D01*
X0543684Y0146564D01*
X0543576Y0146534D01*
X0543467Y0146509D01*
X0543357Y0146487D01*
X0543247Y0146469D01*
X0543136Y0146455D01*
X0543025Y0146445D01*
X0542913Y0146439D01*
X0542801Y0146437D01*
X0485916Y0141423D02*
X0485916Y0152703D01*
D13*
X0287354Y0193031D03*
X0277354Y0193031D03*
X0267354Y0193031D03*
X0257354Y0193031D03*
X0247354Y0193031D03*
X0237354Y0193031D03*
X0227354Y0193031D03*
X0237354Y0243031D03*
X0247354Y0243031D03*
X0257354Y0243031D03*
X0267354Y0243031D03*
X0277354Y0243031D03*
X0287354Y0243031D03*
X0297354Y0243031D03*
X0297102Y0308480D03*
X0287102Y0308480D03*
X0277102Y0308480D03*
X0267102Y0308480D03*
X0603717Y0308480D03*
X0613717Y0308480D03*
X0623717Y0308480D03*
X0633717Y0308480D03*
D14*
X0319504Y0078165D03*
X0309661Y0078165D03*
X0299819Y0078165D03*
D15*
X0301787Y0135252D03*
X0293913Y0135252D03*
X0309661Y0135252D03*
X0317535Y0135252D03*
X0325409Y0135252D03*
D16*
X0331512Y0107693D03*
X0287811Y0107693D03*
D17*
X0143047Y0073323D03*
X0143047Y0083323D03*
X0143047Y0093323D03*
X0143047Y0103323D03*
X0143047Y0113323D03*
X0143047Y0123323D03*
X0143047Y0133323D03*
X0143047Y0143323D03*
X0143047Y0153323D03*
X0143047Y0163323D03*
X0143047Y0173323D03*
X0143047Y0183323D03*
X0143047Y0193323D03*
X0143047Y0203323D03*
X0173047Y0193323D03*
X0183047Y0193323D03*
X0203047Y0193323D03*
X0203047Y0203323D03*
X0203047Y0183323D03*
X0203047Y0173323D03*
X0203047Y0163323D03*
X0203047Y0153323D03*
X0183047Y0153323D03*
X0173047Y0153323D03*
X0173047Y0163323D03*
X0183047Y0163323D03*
X0183047Y0173323D03*
X0173047Y0173323D03*
X0173047Y0183323D03*
X0183047Y0183323D03*
X0183047Y0143323D03*
X0173047Y0143323D03*
X0173047Y0133323D03*
X0183047Y0133323D03*
X0193047Y0123323D03*
X0203047Y0123323D03*
X0203047Y0133323D03*
X0203047Y0143323D03*
X0203047Y0113323D03*
X0193047Y0113323D03*
X0203047Y0103323D03*
X0203047Y0093323D03*
X0203047Y0083323D03*
X0203047Y0073323D03*
D18*
X0116748Y0282890D03*
D19*
X0126748Y0282890D03*
X0136748Y0282890D03*
X0146748Y0282890D03*
X0156748Y0282890D03*
X0166748Y0282890D03*
X0176748Y0282890D03*
X0186748Y0282890D03*
X0196748Y0282890D03*
X0206748Y0282890D03*
X0216748Y0282890D03*
X0226748Y0282890D03*
X0236748Y0282890D03*
X0246748Y0282890D03*
X0256748Y0282890D03*
X0266748Y0282890D03*
D20*
X0227354Y0243031D03*
X0297354Y0193031D03*
D21*
X0333283Y0276984D03*
D22*
X0333283Y0300606D03*
D23*
X0333283Y0312417D03*
D24*
X0315567Y0304528D03*
X0351000Y0304528D03*
D25*
X0084417Y0113915D02*
X0083737Y0113235D01*
X0083737Y0115489D01*
X0085329Y0117081D01*
X0087583Y0117081D01*
X0089175Y0115489D01*
X0089175Y0113235D01*
X0087583Y0111643D01*
X0085329Y0111643D01*
X0083737Y0113235D01*
X0084757Y0113658D01*
X0084757Y0115066D01*
X0085752Y0116061D01*
X0087160Y0116061D01*
X0088155Y0115066D01*
X0088155Y0113658D01*
X0087160Y0112663D01*
X0085752Y0112663D01*
X0084757Y0113658D01*
X0085777Y0114080D01*
X0085777Y0114644D01*
X0086174Y0115041D01*
X0086738Y0115041D01*
X0087135Y0114644D01*
X0087135Y0114080D01*
X0086738Y0113683D01*
X0086174Y0113683D01*
X0085777Y0114080D01*
X0091488Y0106844D02*
X0090808Y0106164D01*
X0090808Y0108418D01*
X0092400Y0110010D01*
X0094654Y0110010D01*
X0096246Y0108418D01*
X0096246Y0106164D01*
X0094654Y0104572D01*
X0092400Y0104572D01*
X0090808Y0106164D01*
X0091828Y0106587D01*
X0091828Y0107995D01*
X0092823Y0108990D01*
X0094231Y0108990D01*
X0095226Y0107995D01*
X0095226Y0106587D01*
X0094231Y0105592D01*
X0092823Y0105592D01*
X0091828Y0106587D01*
X0092848Y0107009D01*
X0092848Y0107573D01*
X0093245Y0107970D01*
X0093809Y0107970D01*
X0094206Y0107573D01*
X0094206Y0107009D01*
X0093809Y0106612D01*
X0093245Y0106612D01*
X0092848Y0107009D01*
X0098560Y0099773D02*
X0097880Y0099093D01*
X0097880Y0101347D01*
X0099472Y0102939D01*
X0101726Y0102939D01*
X0103318Y0101347D01*
X0103318Y0099093D01*
X0101726Y0097501D01*
X0099472Y0097501D01*
X0097880Y0099093D01*
X0098900Y0099516D01*
X0098900Y0100924D01*
X0099895Y0101919D01*
X0101303Y0101919D01*
X0102298Y0100924D01*
X0102298Y0099516D01*
X0101303Y0098521D01*
X0099895Y0098521D01*
X0098900Y0099516D01*
X0099920Y0099938D01*
X0099920Y0100502D01*
X0100317Y0100899D01*
X0100881Y0100899D01*
X0101278Y0100502D01*
X0101278Y0099938D01*
X0100881Y0099541D01*
X0100317Y0099541D01*
X0099920Y0099938D01*
X0105631Y0092702D02*
X0104951Y0092022D01*
X0104951Y0094276D01*
X0106543Y0095868D01*
X0108797Y0095868D01*
X0110389Y0094276D01*
X0110389Y0092022D01*
X0108797Y0090430D01*
X0106543Y0090430D01*
X0104951Y0092022D01*
X0105971Y0092445D01*
X0105971Y0093853D01*
X0106966Y0094848D01*
X0108374Y0094848D01*
X0109369Y0093853D01*
X0109369Y0092445D01*
X0108374Y0091450D01*
X0106966Y0091450D01*
X0105971Y0092445D01*
X0106991Y0092867D01*
X0106991Y0093431D01*
X0107388Y0093828D01*
X0107952Y0093828D01*
X0108349Y0093431D01*
X0108349Y0092867D01*
X0107952Y0092470D01*
X0107388Y0092470D01*
X0106991Y0092867D01*
X0375379Y0091251D02*
X0374699Y0091931D01*
X0376953Y0091931D01*
X0378545Y0090339D01*
X0378545Y0088085D01*
X0376953Y0086493D01*
X0374699Y0086493D01*
X0373107Y0088085D01*
X0373107Y0090339D01*
X0374699Y0091931D01*
X0375122Y0090911D01*
X0376530Y0090911D01*
X0377525Y0089916D01*
X0377525Y0088508D01*
X0376530Y0087513D01*
X0375122Y0087513D01*
X0374127Y0088508D01*
X0374127Y0089916D01*
X0375122Y0090911D01*
X0375544Y0089891D01*
X0376108Y0089891D01*
X0376505Y0089494D01*
X0376505Y0088930D01*
X0376108Y0088533D01*
X0375544Y0088533D01*
X0375147Y0088930D01*
X0375147Y0089494D01*
X0375544Y0089891D01*
X0382451Y0098322D02*
X0381771Y0099002D01*
X0384025Y0099002D01*
X0385617Y0097410D01*
X0385617Y0095156D01*
X0384025Y0093564D01*
X0381771Y0093564D01*
X0380179Y0095156D01*
X0380179Y0097410D01*
X0381771Y0099002D01*
X0382194Y0097982D01*
X0383602Y0097982D01*
X0384597Y0096987D01*
X0384597Y0095579D01*
X0383602Y0094584D01*
X0382194Y0094584D01*
X0381199Y0095579D01*
X0381199Y0096987D01*
X0382194Y0097982D01*
X0382616Y0096962D01*
X0383180Y0096962D01*
X0383577Y0096565D01*
X0383577Y0096001D01*
X0383180Y0095604D01*
X0382616Y0095604D01*
X0382219Y0096001D01*
X0382219Y0096565D01*
X0382616Y0096962D01*
X0389522Y0105393D02*
X0388842Y0106073D01*
X0391096Y0106073D01*
X0392688Y0104481D01*
X0392688Y0102227D01*
X0391096Y0100635D01*
X0388842Y0100635D01*
X0387250Y0102227D01*
X0387250Y0104481D01*
X0388842Y0106073D01*
X0389265Y0105053D01*
X0390673Y0105053D01*
X0391668Y0104058D01*
X0391668Y0102650D01*
X0390673Y0101655D01*
X0389265Y0101655D01*
X0388270Y0102650D01*
X0388270Y0104058D01*
X0389265Y0105053D01*
X0389687Y0104033D01*
X0390251Y0104033D01*
X0390648Y0103636D01*
X0390648Y0103072D01*
X0390251Y0102675D01*
X0389687Y0102675D01*
X0389290Y0103072D01*
X0389290Y0103636D01*
X0389687Y0104033D01*
X0396593Y0112464D02*
X0395913Y0113144D01*
X0398167Y0113144D01*
X0399759Y0111552D01*
X0399759Y0109298D01*
X0398167Y0107706D01*
X0395913Y0107706D01*
X0394321Y0109298D01*
X0394321Y0111552D01*
X0395913Y0113144D01*
X0396336Y0112124D01*
X0397744Y0112124D01*
X0398739Y0111129D01*
X0398739Y0109721D01*
X0397744Y0108726D01*
X0396336Y0108726D01*
X0395341Y0109721D01*
X0395341Y0111129D01*
X0396336Y0112124D01*
X0396758Y0111104D01*
X0397322Y0111104D01*
X0397719Y0110707D01*
X0397719Y0110143D01*
X0397322Y0109746D01*
X0396758Y0109746D01*
X0396361Y0110143D01*
X0396361Y0110707D01*
X0396758Y0111104D01*
D26*
X0288795Y0162417D03*
X0206118Y0232102D03*
X0410055Y0237614D03*
X0410449Y0260055D03*
D27*
X0512811Y0118717D02*
X0519898Y0101394D01*
X0503362Y0113205D01*
X0517535Y0093520D01*
X0512811Y0118717D01*
X0503362Y0113205D02*
X0493126Y0103756D01*
X0519898Y0101394D01*
X0517535Y0093520D01*
X0493126Y0103756D01*
D28*
X0493205Y0088323D02*
X0490843Y0088323D01*
X0490843Y0081394D01*
X0493205Y0081394D01*
X0493279Y0081396D01*
X0493353Y0081402D01*
X0493427Y0081411D01*
X0493500Y0081425D01*
X0493572Y0081442D01*
X0493643Y0081463D01*
X0493713Y0081488D01*
X0493781Y0081517D01*
X0493848Y0081548D01*
X0493914Y0081584D01*
X0493977Y0081623D01*
X0494038Y0081665D01*
X0494097Y0081710D01*
X0494153Y0081758D01*
X0494207Y0081809D01*
X0494258Y0081863D01*
X0494306Y0081919D01*
X0494351Y0081978D01*
X0494393Y0082039D01*
X0494432Y0082103D01*
X0494468Y0082168D01*
X0494499Y0082235D01*
X0494528Y0082303D01*
X0494553Y0082373D01*
X0494574Y0082444D01*
X0494591Y0082516D01*
X0494605Y0082589D01*
X0494614Y0082663D01*
X0494620Y0082737D01*
X0494622Y0082811D01*
X0494622Y0086906D01*
X0494620Y0086980D01*
X0494614Y0087054D01*
X0494605Y0087128D01*
X0494591Y0087201D01*
X0494574Y0087273D01*
X0494553Y0087344D01*
X0494528Y0087414D01*
X0494499Y0087482D01*
X0494468Y0087549D01*
X0494432Y0087615D01*
X0494393Y0087678D01*
X0494351Y0087739D01*
X0494306Y0087798D01*
X0494258Y0087854D01*
X0494207Y0087908D01*
X0494153Y0087959D01*
X0494097Y0088007D01*
X0494038Y0088052D01*
X0493977Y0088094D01*
X0493914Y0088133D01*
X0493848Y0088169D01*
X0493781Y0088200D01*
X0493713Y0088229D01*
X0493643Y0088254D01*
X0493572Y0088275D01*
X0493500Y0088292D01*
X0493427Y0088306D01*
X0493353Y0088315D01*
X0493279Y0088321D01*
X0493205Y0088323D01*
X0497220Y0086906D02*
X0497220Y0082811D01*
X0497221Y0082811D02*
X0497223Y0082737D01*
X0497229Y0082663D01*
X0497238Y0082589D01*
X0497252Y0082516D01*
X0497269Y0082444D01*
X0497290Y0082373D01*
X0497315Y0082303D01*
X0497344Y0082235D01*
X0497375Y0082168D01*
X0497411Y0082103D01*
X0497450Y0082039D01*
X0497492Y0081978D01*
X0497537Y0081919D01*
X0497585Y0081863D01*
X0497636Y0081809D01*
X0497690Y0081758D01*
X0497746Y0081710D01*
X0497805Y0081665D01*
X0497866Y0081623D01*
X0497930Y0081584D01*
X0497995Y0081548D01*
X0498062Y0081517D01*
X0498130Y0081488D01*
X0498200Y0081463D01*
X0498271Y0081442D01*
X0498343Y0081425D01*
X0498416Y0081411D01*
X0498490Y0081402D01*
X0498564Y0081396D01*
X0498638Y0081394D01*
X0500055Y0081394D01*
X0500101Y0081396D01*
X0500146Y0081402D01*
X0500190Y0081411D01*
X0500234Y0081424D01*
X0500276Y0081440D01*
X0500317Y0081460D01*
X0500356Y0081484D01*
X0500393Y0081510D01*
X0500428Y0081540D01*
X0500460Y0081572D01*
X0500490Y0081607D01*
X0500516Y0081644D01*
X0500540Y0081683D01*
X0500560Y0081724D01*
X0500576Y0081766D01*
X0500589Y0081810D01*
X0500598Y0081854D01*
X0500604Y0081899D01*
X0500606Y0081945D01*
X0501000Y0084858D02*
X0501000Y0086748D01*
X0501000Y0086906D02*
X0500998Y0086980D01*
X0500992Y0087054D01*
X0500983Y0087128D01*
X0500969Y0087201D01*
X0500952Y0087273D01*
X0500931Y0087344D01*
X0500906Y0087414D01*
X0500877Y0087482D01*
X0500846Y0087549D01*
X0500810Y0087615D01*
X0500771Y0087678D01*
X0500729Y0087739D01*
X0500684Y0087798D01*
X0500636Y0087854D01*
X0500585Y0087908D01*
X0500531Y0087959D01*
X0500475Y0088007D01*
X0500416Y0088052D01*
X0500355Y0088094D01*
X0500292Y0088133D01*
X0500226Y0088169D01*
X0500159Y0088200D01*
X0500091Y0088229D01*
X0500021Y0088254D01*
X0499950Y0088275D01*
X0499878Y0088292D01*
X0499805Y0088306D01*
X0499731Y0088315D01*
X0499657Y0088321D01*
X0499583Y0088323D01*
X0498638Y0088323D01*
X0498564Y0088321D01*
X0498490Y0088315D01*
X0498416Y0088306D01*
X0498343Y0088292D01*
X0498271Y0088275D01*
X0498200Y0088254D01*
X0498130Y0088229D01*
X0498062Y0088200D01*
X0497995Y0088169D01*
X0497930Y0088133D01*
X0497866Y0088094D01*
X0497805Y0088052D01*
X0497746Y0088007D01*
X0497690Y0087959D01*
X0497636Y0087908D01*
X0497585Y0087854D01*
X0497537Y0087798D01*
X0497492Y0087739D01*
X0497450Y0087678D01*
X0497411Y0087615D01*
X0497375Y0087549D01*
X0497344Y0087482D01*
X0497315Y0087414D01*
X0497290Y0087344D01*
X0497269Y0087273D01*
X0497252Y0087201D01*
X0497238Y0087128D01*
X0497229Y0087054D01*
X0497223Y0086980D01*
X0497221Y0086906D01*
X0497693Y0084858D02*
X0501000Y0084858D01*
X0503677Y0081394D02*
X0503677Y0088323D01*
X0506039Y0088323D01*
X0506113Y0088321D01*
X0506187Y0088315D01*
X0506261Y0088306D01*
X0506334Y0088292D01*
X0506406Y0088275D01*
X0506477Y0088254D01*
X0506547Y0088229D01*
X0506615Y0088200D01*
X0506682Y0088169D01*
X0506748Y0088133D01*
X0506811Y0088094D01*
X0506872Y0088052D01*
X0506931Y0088007D01*
X0506987Y0087959D01*
X0507041Y0087908D01*
X0507092Y0087854D01*
X0507140Y0087798D01*
X0507185Y0087739D01*
X0507227Y0087678D01*
X0507266Y0087615D01*
X0507302Y0087549D01*
X0507333Y0087482D01*
X0507362Y0087414D01*
X0507387Y0087344D01*
X0507408Y0087273D01*
X0507425Y0087201D01*
X0507439Y0087128D01*
X0507448Y0087054D01*
X0507454Y0086980D01*
X0507456Y0086906D01*
X0507457Y0086906D02*
X0507457Y0081394D01*
X0513126Y0082811D02*
X0513126Y0086906D01*
X0513128Y0086980D01*
X0513134Y0087054D01*
X0513143Y0087128D01*
X0513157Y0087201D01*
X0513174Y0087273D01*
X0513195Y0087344D01*
X0513220Y0087414D01*
X0513249Y0087482D01*
X0513280Y0087549D01*
X0513316Y0087615D01*
X0513355Y0087678D01*
X0513397Y0087739D01*
X0513442Y0087798D01*
X0513490Y0087854D01*
X0513541Y0087908D01*
X0513595Y0087959D01*
X0513651Y0088007D01*
X0513710Y0088052D01*
X0513771Y0088094D01*
X0513835Y0088133D01*
X0513900Y0088169D01*
X0513967Y0088200D01*
X0514035Y0088229D01*
X0514105Y0088254D01*
X0514176Y0088275D01*
X0514248Y0088292D01*
X0514321Y0088306D01*
X0514395Y0088315D01*
X0514469Y0088321D01*
X0514543Y0088323D01*
X0515488Y0088323D01*
X0515562Y0088321D01*
X0515636Y0088315D01*
X0515710Y0088306D01*
X0515783Y0088292D01*
X0515855Y0088275D01*
X0515926Y0088254D01*
X0515996Y0088229D01*
X0516064Y0088200D01*
X0516131Y0088169D01*
X0516197Y0088133D01*
X0516260Y0088094D01*
X0516321Y0088052D01*
X0516380Y0088007D01*
X0516436Y0087959D01*
X0516490Y0087908D01*
X0516541Y0087854D01*
X0516589Y0087798D01*
X0516634Y0087739D01*
X0516676Y0087678D01*
X0516715Y0087615D01*
X0516751Y0087549D01*
X0516782Y0087482D01*
X0516811Y0087414D01*
X0516836Y0087344D01*
X0516857Y0087273D01*
X0516874Y0087201D01*
X0516888Y0087128D01*
X0516897Y0087054D01*
X0516903Y0086980D01*
X0516905Y0086906D01*
X0516906Y0086748D02*
X0516906Y0084858D01*
X0513598Y0084858D01*
X0513126Y0082811D02*
X0513128Y0082737D01*
X0513134Y0082663D01*
X0513143Y0082589D01*
X0513157Y0082516D01*
X0513174Y0082444D01*
X0513195Y0082373D01*
X0513220Y0082303D01*
X0513249Y0082235D01*
X0513280Y0082168D01*
X0513316Y0082103D01*
X0513355Y0082039D01*
X0513397Y0081978D01*
X0513442Y0081919D01*
X0513490Y0081863D01*
X0513541Y0081809D01*
X0513595Y0081758D01*
X0513651Y0081710D01*
X0513710Y0081665D01*
X0513771Y0081623D01*
X0513835Y0081584D01*
X0513900Y0081548D01*
X0513967Y0081517D01*
X0514035Y0081488D01*
X0514105Y0081463D01*
X0514176Y0081442D01*
X0514248Y0081425D01*
X0514321Y0081411D01*
X0514395Y0081402D01*
X0514469Y0081396D01*
X0514543Y0081394D01*
X0515961Y0081394D01*
X0516007Y0081396D01*
X0516052Y0081402D01*
X0516096Y0081411D01*
X0516140Y0081424D01*
X0516182Y0081440D01*
X0516223Y0081460D01*
X0516262Y0081484D01*
X0516299Y0081510D01*
X0516334Y0081540D01*
X0516366Y0081572D01*
X0516396Y0081607D01*
X0516422Y0081644D01*
X0516446Y0081683D01*
X0516466Y0081724D01*
X0516482Y0081766D01*
X0516495Y0081810D01*
X0516504Y0081854D01*
X0516510Y0081899D01*
X0516512Y0081945D01*
X0519425Y0081394D02*
X0521787Y0081394D01*
X0521861Y0081396D01*
X0521935Y0081402D01*
X0522009Y0081411D01*
X0522082Y0081425D01*
X0522154Y0081442D01*
X0522225Y0081463D01*
X0522295Y0081488D01*
X0522363Y0081517D01*
X0522430Y0081548D01*
X0522496Y0081584D01*
X0522559Y0081623D01*
X0522620Y0081665D01*
X0522679Y0081710D01*
X0522735Y0081758D01*
X0522789Y0081809D01*
X0522840Y0081863D01*
X0522888Y0081919D01*
X0522933Y0081978D01*
X0522975Y0082039D01*
X0523014Y0082103D01*
X0523050Y0082168D01*
X0523081Y0082235D01*
X0523110Y0082303D01*
X0523135Y0082373D01*
X0523156Y0082444D01*
X0523173Y0082516D01*
X0523187Y0082589D01*
X0523196Y0082663D01*
X0523202Y0082737D01*
X0523204Y0082811D01*
X0523205Y0082811D02*
X0523205Y0086906D01*
X0523204Y0086906D02*
X0523202Y0086980D01*
X0523196Y0087054D01*
X0523187Y0087128D01*
X0523173Y0087201D01*
X0523156Y0087273D01*
X0523135Y0087344D01*
X0523110Y0087414D01*
X0523081Y0087482D01*
X0523050Y0087549D01*
X0523014Y0087615D01*
X0522975Y0087678D01*
X0522933Y0087739D01*
X0522888Y0087798D01*
X0522840Y0087854D01*
X0522789Y0087908D01*
X0522735Y0087959D01*
X0522679Y0088007D01*
X0522620Y0088052D01*
X0522559Y0088094D01*
X0522496Y0088133D01*
X0522430Y0088169D01*
X0522363Y0088200D01*
X0522295Y0088229D01*
X0522225Y0088254D01*
X0522154Y0088275D01*
X0522082Y0088292D01*
X0522009Y0088306D01*
X0521935Y0088315D01*
X0521861Y0088321D01*
X0521787Y0088323D01*
X0519425Y0088323D01*
X0519425Y0081394D01*
X0519425Y0081315D02*
X0519425Y0077220D01*
X0526039Y0081472D02*
X0526039Y0092654D01*
X0526591Y0088323D02*
X0528402Y0088323D01*
X0528476Y0088321D01*
X0528550Y0088315D01*
X0528624Y0088306D01*
X0528697Y0088292D01*
X0528769Y0088275D01*
X0528840Y0088254D01*
X0528910Y0088229D01*
X0528978Y0088200D01*
X0529045Y0088169D01*
X0529111Y0088133D01*
X0529174Y0088094D01*
X0529235Y0088052D01*
X0529294Y0088007D01*
X0529350Y0087959D01*
X0529404Y0087908D01*
X0529455Y0087854D01*
X0529503Y0087798D01*
X0529548Y0087739D01*
X0529590Y0087678D01*
X0529629Y0087615D01*
X0529665Y0087549D01*
X0529696Y0087482D01*
X0529725Y0087414D01*
X0529750Y0087344D01*
X0529771Y0087273D01*
X0529788Y0087201D01*
X0529802Y0087128D01*
X0529811Y0087054D01*
X0529817Y0086980D01*
X0529819Y0086906D01*
X0529898Y0081394D01*
X0534228Y0081472D02*
X0531630Y0089031D01*
X0536669Y0089031D02*
X0533362Y0078402D01*
X0533283Y0078244D02*
X0532732Y0077457D01*
X0532024Y0077299D01*
X0531630Y0077299D01*
X0538480Y0081787D02*
X0538480Y0081945D01*
X0538480Y0081787D02*
X0538638Y0081551D01*
X0539031Y0081315D01*
X0539346Y0081157D01*
X0539425Y0081157D02*
X0540370Y0081157D01*
X0540370Y0081158D02*
X0540444Y0081160D01*
X0540518Y0081166D01*
X0540592Y0081175D01*
X0540665Y0081189D01*
X0540737Y0081206D01*
X0540808Y0081227D01*
X0540878Y0081252D01*
X0540946Y0081281D01*
X0541013Y0081312D01*
X0541079Y0081348D01*
X0541142Y0081387D01*
X0541203Y0081429D01*
X0541262Y0081474D01*
X0541318Y0081522D01*
X0541372Y0081573D01*
X0541423Y0081627D01*
X0541471Y0081683D01*
X0541516Y0081742D01*
X0541558Y0081803D01*
X0541597Y0081867D01*
X0541633Y0081932D01*
X0541664Y0081999D01*
X0541693Y0082067D01*
X0541718Y0082137D01*
X0541739Y0082208D01*
X0541756Y0082280D01*
X0541770Y0082353D01*
X0541779Y0082427D01*
X0541785Y0082501D01*
X0541787Y0082575D01*
X0541787Y0082654D02*
X0541787Y0083047D01*
X0541709Y0083441D01*
X0541000Y0084150D01*
X0539740Y0085094D01*
X0539976Y0084937D02*
X0538717Y0085882D01*
X0538402Y0086354D01*
X0538323Y0086748D01*
X0538323Y0087142D01*
X0538323Y0087220D02*
X0538325Y0087294D01*
X0538331Y0087368D01*
X0538340Y0087442D01*
X0538354Y0087515D01*
X0538371Y0087587D01*
X0538392Y0087658D01*
X0538417Y0087728D01*
X0538446Y0087796D01*
X0538477Y0087863D01*
X0538513Y0087929D01*
X0538552Y0087992D01*
X0538594Y0088053D01*
X0538639Y0088112D01*
X0538687Y0088168D01*
X0538738Y0088222D01*
X0538792Y0088273D01*
X0538848Y0088321D01*
X0538907Y0088366D01*
X0538968Y0088408D01*
X0539032Y0088447D01*
X0539097Y0088483D01*
X0539164Y0088514D01*
X0539232Y0088543D01*
X0539302Y0088568D01*
X0539373Y0088589D01*
X0539445Y0088606D01*
X0539518Y0088620D01*
X0539592Y0088629D01*
X0539666Y0088635D01*
X0539740Y0088637D01*
X0539740Y0088638D02*
X0540685Y0088638D01*
X0540764Y0088638D02*
X0541079Y0088480D01*
X0541472Y0088244D01*
X0541630Y0088008D01*
X0541630Y0087850D01*
X0490843Y0081315D02*
X0490843Y0077220D01*
X0486669Y0081394D02*
X0485921Y0081394D01*
X0485882Y0081394D02*
X0485808Y0081396D01*
X0485734Y0081402D01*
X0485660Y0081411D01*
X0485587Y0081425D01*
X0485515Y0081442D01*
X0485444Y0081463D01*
X0485374Y0081488D01*
X0485306Y0081517D01*
X0485239Y0081548D01*
X0485174Y0081584D01*
X0485110Y0081623D01*
X0485049Y0081665D01*
X0484990Y0081710D01*
X0484934Y0081758D01*
X0484880Y0081809D01*
X0484829Y0081863D01*
X0484781Y0081919D01*
X0484736Y0081978D01*
X0484694Y0082039D01*
X0484655Y0082103D01*
X0484619Y0082168D01*
X0484588Y0082235D01*
X0484559Y0082303D01*
X0484534Y0082373D01*
X0484513Y0082444D01*
X0484496Y0082516D01*
X0484482Y0082589D01*
X0484473Y0082663D01*
X0484467Y0082737D01*
X0484465Y0082811D01*
X0484465Y0086906D01*
X0484467Y0086980D01*
X0484473Y0087054D01*
X0484482Y0087128D01*
X0484496Y0087201D01*
X0484513Y0087273D01*
X0484534Y0087344D01*
X0484559Y0087414D01*
X0484588Y0087482D01*
X0484619Y0087549D01*
X0484655Y0087615D01*
X0484694Y0087678D01*
X0484736Y0087739D01*
X0484781Y0087798D01*
X0484829Y0087854D01*
X0484880Y0087908D01*
X0484934Y0087959D01*
X0484990Y0088007D01*
X0485049Y0088052D01*
X0485110Y0088094D01*
X0485174Y0088133D01*
X0485239Y0088169D01*
X0485306Y0088200D01*
X0485374Y0088229D01*
X0485444Y0088254D01*
X0485515Y0088275D01*
X0485587Y0088292D01*
X0485660Y0088306D01*
X0485734Y0088315D01*
X0485808Y0088321D01*
X0485882Y0088323D01*
X0486000Y0088323D02*
X0486787Y0088323D01*
X0486861Y0088321D01*
X0486935Y0088315D01*
X0487009Y0088306D01*
X0487082Y0088292D01*
X0487154Y0088275D01*
X0487225Y0088254D01*
X0487295Y0088229D01*
X0487363Y0088200D01*
X0487430Y0088169D01*
X0487496Y0088133D01*
X0487559Y0088094D01*
X0487620Y0088052D01*
X0487679Y0088007D01*
X0487735Y0087959D01*
X0487789Y0087908D01*
X0487840Y0087854D01*
X0487888Y0087798D01*
X0487933Y0087739D01*
X0487975Y0087678D01*
X0488014Y0087615D01*
X0488050Y0087549D01*
X0488081Y0087482D01*
X0488110Y0087414D01*
X0488135Y0087344D01*
X0488156Y0087273D01*
X0488173Y0087201D01*
X0488187Y0087128D01*
X0488196Y0087054D01*
X0488202Y0086980D01*
X0488204Y0086906D01*
X0488205Y0086906D02*
X0488205Y0082811D01*
X0488204Y0082811D02*
X0488202Y0082737D01*
X0488196Y0082663D01*
X0488187Y0082589D01*
X0488173Y0082516D01*
X0488156Y0082444D01*
X0488135Y0082373D01*
X0488110Y0082303D01*
X0488081Y0082235D01*
X0488050Y0082168D01*
X0488014Y0082103D01*
X0487975Y0082039D01*
X0487933Y0081978D01*
X0487888Y0081919D01*
X0487840Y0081863D01*
X0487789Y0081809D01*
X0487735Y0081758D01*
X0487679Y0081710D01*
X0487620Y0081665D01*
X0487559Y0081623D01*
X0487496Y0081584D01*
X0487430Y0081548D01*
X0487363Y0081517D01*
X0487295Y0081488D01*
X0487225Y0081463D01*
X0487154Y0081442D01*
X0487082Y0081425D01*
X0487009Y0081411D01*
X0486935Y0081402D01*
X0486861Y0081396D01*
X0486787Y0081394D01*
M02*
