G75*
%MOIN*%
%OFA0B0*%
%FSLAX25Y25*%
%IPPOS*%
%LPD*%
%AMOC8*
5,1,8,0,0,1.08239X$1,22.5*
%
%ADD10R,0.03800X0.06000*%
%ADD11R,0.06000X0.03800*%
%ADD12OC8,0.06000*%
%ADD13R,0.04200X0.03500*%
%ADD14C,0.07087*%
%ADD15C,0.07000*%
%ADD16C,0.12268*%
%ADD17C,0.05700*%
%ADD18R,0.02165X0.05157*%
%ADD19R,0.03701X0.05157*%
%ADD20R,0.07400X0.07400*%
%ADD21C,0.07400*%
%ADD22R,0.06000X0.06000*%
%ADD23R,0.02700X0.03000*%
%ADD24C,0.00205*%
%ADD25R,0.01024X0.02756*%
%ADD26C,0.00472*%
%ADD27R,0.18110X0.14173*%
%ADD28R,0.06496X0.09449*%
%ADD29R,0.03150X0.01102*%
%ADD30R,0.02500X0.07000*%
%ADD31R,0.15157X0.21654*%
%ADD32R,0.04800X0.03600*%
%ADD33R,0.21654X0.15157*%
%ADD34R,0.05000X0.13386*%
%ADD35OC8,0.16205*%
%ADD36OC8,0.13252*%
%ADD37OC8,0.14236*%
%ADD38OC8,0.05906*%
%ADD39C,0.05906*%
%ADD40R,0.13386X0.05000*%
%ADD41C,0.01200*%
%ADD42R,0.11024X0.07874*%
%ADD43R,0.07874X0.11024*%
%ADD44C,0.00787*%
%ADD45C,0.00709*%
%ADD46C,0.01981*%
%ADD47C,0.00984*%
%ADD48C,0.03937*%
%ADD49C,0.00669*%
%ADD50R,0.02375X0.02375*%
%ADD51C,0.02953*%
%ADD52C,0.01969*%
%ADD53C,0.02178*%
%ADD54C,0.00630*%
%ADD55C,0.01000*%
%ADD56C,0.01600*%
%ADD57C,0.01181*%
%ADD58C,0.05906*%
%ADD59C,0.02375*%
%ADD60C,0.11811*%
%ADD61C,0.07874*%
D10*
X0667256Y0124228D03*
X0675456Y0124228D03*
X0675456Y0133677D03*
X0667256Y0133677D03*
X0752728Y0145449D03*
X0760928Y0145449D03*
X0721125Y0099819D03*
X0712925Y0099819D03*
X0705377Y0099819D03*
X0697177Y0099819D03*
X0697177Y0089976D03*
X0705377Y0089976D03*
X0712925Y0089976D03*
X0721125Y0089976D03*
X0721125Y0080134D03*
X0712925Y0080134D03*
X0705377Y0080134D03*
X0697177Y0080134D03*
X0693858Y0212146D03*
X0685658Y0212146D03*
X0731179Y0212638D03*
X0739379Y0212638D03*
D11*
X0693797Y0154313D03*
X0675293Y0151163D03*
X0693797Y0146113D03*
X0706395Y0143289D03*
X0715450Y0143289D03*
X0715450Y0135089D03*
X0706395Y0135089D03*
X0675293Y0142963D03*
X0709545Y0120454D03*
X0709545Y0112254D03*
D12*
X0514269Y0187181D03*
X0514269Y0197181D03*
X0514269Y0207181D03*
X0514269Y0217181D03*
X0670151Y0193031D03*
X0680151Y0193031D03*
X0690151Y0193031D03*
X0700151Y0193031D03*
X0710151Y0193031D03*
X0720151Y0193031D03*
X0730151Y0193031D03*
X0856789Y0228520D03*
X0856789Y0238520D03*
X0856789Y0248520D03*
X0856789Y0258520D03*
X0740151Y0243031D03*
X0730151Y0243031D03*
X0720151Y0243031D03*
X0710151Y0243031D03*
X0700151Y0243031D03*
X0690151Y0243031D03*
X0680151Y0243031D03*
X0709899Y0308480D03*
X0719899Y0308480D03*
X0729899Y0308480D03*
X0739899Y0308480D03*
X1046513Y0308480D03*
X1056513Y0308480D03*
X1066513Y0308480D03*
X1076513Y0308480D03*
D13*
X0741041Y0234321D03*
X0741041Y0227521D03*
X0628443Y0221329D03*
X0614663Y0221329D03*
X0614663Y0214529D03*
X0628443Y0214529D03*
X0687891Y0118967D03*
X0687891Y0112167D03*
D14*
X0742616Y0078165D03*
X0752458Y0078165D03*
X0762301Y0078165D03*
D15*
X0760332Y0135252D03*
X0752458Y0135252D03*
X0744584Y0135252D03*
X0736710Y0135252D03*
X0768206Y0135252D03*
D16*
X0774309Y0107693D03*
X0730608Y0107693D03*
D17*
X0645844Y0103323D03*
X0645844Y0113323D03*
X0635844Y0113323D03*
X0635844Y0123323D03*
X0645844Y0123323D03*
X0645844Y0133323D03*
X0645844Y0143323D03*
X0625844Y0143323D03*
X0615844Y0143323D03*
X0615844Y0133323D03*
X0625844Y0133323D03*
X0585844Y0133323D03*
X0585844Y0143323D03*
X0585844Y0153323D03*
X0585844Y0163323D03*
X0585844Y0173323D03*
X0585844Y0183323D03*
X0585844Y0193323D03*
X0585844Y0203323D03*
X0615844Y0193323D03*
X0625844Y0193323D03*
X0645844Y0193323D03*
X0645844Y0203323D03*
X0645844Y0183323D03*
X0645844Y0173323D03*
X0645844Y0163323D03*
X0645844Y0153323D03*
X0625844Y0153323D03*
X0615844Y0153323D03*
X0615844Y0163323D03*
X0625844Y0163323D03*
X0625844Y0173323D03*
X0615844Y0173323D03*
X0615844Y0183323D03*
X0625844Y0183323D03*
X0585844Y0123323D03*
X0585844Y0113323D03*
X0585844Y0103323D03*
X0585844Y0093323D03*
X0585844Y0083323D03*
X0585844Y0073323D03*
X0645844Y0073323D03*
X0645844Y0083323D03*
X0645844Y0093323D03*
D18*
X0694348Y0111630D03*
X0694348Y0119504D03*
X0701907Y0119504D03*
D19*
X0701159Y0111630D03*
D20*
X0559545Y0282890D03*
D21*
X0569545Y0282890D03*
X0579545Y0282890D03*
X0589545Y0282890D03*
X0599545Y0282890D03*
X0609545Y0282890D03*
X0619545Y0282890D03*
X0629545Y0282890D03*
X0639545Y0282890D03*
X0649545Y0282890D03*
X0659545Y0282890D03*
X0669545Y0282890D03*
X0679545Y0282890D03*
X0689545Y0282890D03*
X0699545Y0282890D03*
X0709545Y0282890D03*
D22*
X0670151Y0243031D03*
X0740151Y0193031D03*
D23*
X0736448Y0223047D03*
X0732248Y0223047D03*
X0730280Y0230134D03*
X0734480Y0230134D03*
X0734480Y0234858D03*
X0730280Y0234858D03*
X0725424Y0234858D03*
X0721224Y0234858D03*
X0721224Y0230134D03*
X0725424Y0230134D03*
X0716369Y0230134D03*
X0712169Y0230134D03*
X0712169Y0234858D03*
X0716369Y0234858D03*
X0690863Y0221551D03*
X0686663Y0221551D03*
X0615960Y0313476D03*
X0611760Y0313476D03*
D24*
X0703947Y0226331D02*
X0703947Y0223779D01*
X0703127Y0223779D01*
X0703127Y0226331D01*
X0703947Y0226331D01*
X0703947Y0223983D02*
X0703127Y0223983D01*
X0703127Y0224187D02*
X0703947Y0224187D01*
X0703947Y0224391D02*
X0703127Y0224391D01*
X0703127Y0224595D02*
X0703947Y0224595D01*
X0703947Y0224799D02*
X0703127Y0224799D01*
X0703127Y0225003D02*
X0703947Y0225003D01*
X0703947Y0225207D02*
X0703127Y0225207D01*
X0703127Y0225411D02*
X0703947Y0225411D01*
X0703947Y0225615D02*
X0703127Y0225615D01*
X0703127Y0225819D02*
X0703947Y0225819D01*
X0703947Y0226023D02*
X0703127Y0226023D01*
X0703127Y0226227D02*
X0703947Y0226227D01*
X0705916Y0226331D02*
X0705916Y0223779D01*
X0705096Y0223779D01*
X0705096Y0226331D01*
X0705916Y0226331D01*
X0705916Y0223983D02*
X0705096Y0223983D01*
X0705096Y0224187D02*
X0705916Y0224187D01*
X0705916Y0224391D02*
X0705096Y0224391D01*
X0705096Y0224595D02*
X0705916Y0224595D01*
X0705916Y0224799D02*
X0705096Y0224799D01*
X0705096Y0225003D02*
X0705916Y0225003D01*
X0705916Y0225207D02*
X0705096Y0225207D01*
X0705096Y0225411D02*
X0705916Y0225411D01*
X0705916Y0225615D02*
X0705096Y0225615D01*
X0705096Y0225819D02*
X0705916Y0225819D01*
X0705916Y0226023D02*
X0705096Y0226023D01*
X0705096Y0226227D02*
X0705916Y0226227D01*
X0707884Y0226331D02*
X0707884Y0223779D01*
X0707064Y0223779D01*
X0707064Y0226331D01*
X0707884Y0226331D01*
X0707884Y0223983D02*
X0707064Y0223983D01*
X0707064Y0224187D02*
X0707884Y0224187D01*
X0707884Y0224391D02*
X0707064Y0224391D01*
X0707064Y0224595D02*
X0707884Y0224595D01*
X0707884Y0224799D02*
X0707064Y0224799D01*
X0707064Y0225003D02*
X0707884Y0225003D01*
X0707884Y0225207D02*
X0707064Y0225207D01*
X0707064Y0225411D02*
X0707884Y0225411D01*
X0707884Y0225615D02*
X0707064Y0225615D01*
X0707064Y0225819D02*
X0707884Y0225819D01*
X0707884Y0226023D02*
X0707064Y0226023D01*
X0707064Y0226227D02*
X0707884Y0226227D01*
X0709853Y0226331D02*
X0709853Y0223779D01*
X0709033Y0223779D01*
X0709033Y0226331D01*
X0709853Y0226331D01*
X0709853Y0223983D02*
X0709033Y0223983D01*
X0709033Y0224187D02*
X0709853Y0224187D01*
X0709853Y0224391D02*
X0709033Y0224391D01*
X0709033Y0224595D02*
X0709853Y0224595D01*
X0709853Y0224799D02*
X0709033Y0224799D01*
X0709033Y0225003D02*
X0709853Y0225003D01*
X0709853Y0225207D02*
X0709033Y0225207D01*
X0709033Y0225411D02*
X0709853Y0225411D01*
X0709853Y0225615D02*
X0709033Y0225615D01*
X0709033Y0225819D02*
X0709853Y0225819D01*
X0709853Y0226023D02*
X0709033Y0226023D01*
X0709033Y0226227D02*
X0709853Y0226227D01*
X0711821Y0226331D02*
X0711821Y0223779D01*
X0711001Y0223779D01*
X0711001Y0226331D01*
X0711821Y0226331D01*
X0711821Y0223983D02*
X0711001Y0223983D01*
X0711001Y0224187D02*
X0711821Y0224187D01*
X0711821Y0224391D02*
X0711001Y0224391D01*
X0711001Y0224595D02*
X0711821Y0224595D01*
X0711821Y0224799D02*
X0711001Y0224799D01*
X0711001Y0225003D02*
X0711821Y0225003D01*
X0711821Y0225207D02*
X0711001Y0225207D01*
X0711001Y0225411D02*
X0711821Y0225411D01*
X0711821Y0225615D02*
X0711001Y0225615D01*
X0711001Y0225819D02*
X0711821Y0225819D01*
X0711821Y0226023D02*
X0711001Y0226023D01*
X0711001Y0226227D02*
X0711821Y0226227D01*
X0713790Y0226331D02*
X0713790Y0221811D01*
X0712970Y0221811D01*
X0712970Y0226331D01*
X0713790Y0226331D01*
X0713790Y0222015D02*
X0712970Y0222015D01*
X0712970Y0222219D02*
X0713790Y0222219D01*
X0713790Y0222423D02*
X0712970Y0222423D01*
X0712970Y0222627D02*
X0713790Y0222627D01*
X0713790Y0222831D02*
X0712970Y0222831D01*
X0712970Y0223035D02*
X0713790Y0223035D01*
X0713790Y0223239D02*
X0712970Y0223239D01*
X0712970Y0223443D02*
X0713790Y0223443D01*
X0713790Y0223647D02*
X0712970Y0223647D01*
X0712970Y0223851D02*
X0713790Y0223851D01*
X0713790Y0224055D02*
X0712970Y0224055D01*
X0712970Y0224259D02*
X0713790Y0224259D01*
X0713790Y0224463D02*
X0712970Y0224463D01*
X0712970Y0224667D02*
X0713790Y0224667D01*
X0713790Y0224871D02*
X0712970Y0224871D01*
X0712970Y0225075D02*
X0713790Y0225075D01*
X0713790Y0225279D02*
X0712970Y0225279D01*
X0712970Y0225483D02*
X0713790Y0225483D01*
X0713790Y0225687D02*
X0712970Y0225687D01*
X0712970Y0225891D02*
X0713790Y0225891D01*
X0713790Y0226095D02*
X0712970Y0226095D01*
X0712970Y0226299D02*
X0713790Y0226299D01*
X0715758Y0226331D02*
X0715758Y0223779D01*
X0714938Y0223779D01*
X0714938Y0226331D01*
X0715758Y0226331D01*
X0715758Y0223983D02*
X0714938Y0223983D01*
X0714938Y0224187D02*
X0715758Y0224187D01*
X0715758Y0224391D02*
X0714938Y0224391D01*
X0714938Y0224595D02*
X0715758Y0224595D01*
X0715758Y0224799D02*
X0714938Y0224799D01*
X0714938Y0225003D02*
X0715758Y0225003D01*
X0715758Y0225207D02*
X0714938Y0225207D01*
X0714938Y0225411D02*
X0715758Y0225411D01*
X0715758Y0225615D02*
X0714938Y0225615D01*
X0714938Y0225819D02*
X0715758Y0225819D01*
X0715758Y0226023D02*
X0714938Y0226023D01*
X0714938Y0226227D02*
X0715758Y0226227D01*
X0717727Y0226331D02*
X0717727Y0223779D01*
X0716907Y0223779D01*
X0716907Y0226331D01*
X0717727Y0226331D01*
X0717727Y0223983D02*
X0716907Y0223983D01*
X0716907Y0224187D02*
X0717727Y0224187D01*
X0717727Y0224391D02*
X0716907Y0224391D01*
X0716907Y0224595D02*
X0717727Y0224595D01*
X0717727Y0224799D02*
X0716907Y0224799D01*
X0716907Y0225003D02*
X0717727Y0225003D01*
X0717727Y0225207D02*
X0716907Y0225207D01*
X0716907Y0225411D02*
X0717727Y0225411D01*
X0717727Y0225615D02*
X0716907Y0225615D01*
X0716907Y0225819D02*
X0717727Y0225819D01*
X0717727Y0226023D02*
X0716907Y0226023D01*
X0716907Y0226227D02*
X0717727Y0226227D01*
X0719695Y0226331D02*
X0719695Y0223779D01*
X0718875Y0223779D01*
X0718875Y0226331D01*
X0719695Y0226331D01*
X0719695Y0223983D02*
X0718875Y0223983D01*
X0718875Y0224187D02*
X0719695Y0224187D01*
X0719695Y0224391D02*
X0718875Y0224391D01*
X0718875Y0224595D02*
X0719695Y0224595D01*
X0719695Y0224799D02*
X0718875Y0224799D01*
X0718875Y0225003D02*
X0719695Y0225003D01*
X0719695Y0225207D02*
X0718875Y0225207D01*
X0718875Y0225411D02*
X0719695Y0225411D01*
X0719695Y0225615D02*
X0718875Y0225615D01*
X0718875Y0225819D02*
X0719695Y0225819D01*
X0719695Y0226023D02*
X0718875Y0226023D01*
X0718875Y0226227D02*
X0719695Y0226227D01*
X0722537Y0222086D02*
X0725089Y0222086D01*
X0722537Y0222086D02*
X0722537Y0222906D01*
X0725089Y0222906D01*
X0725089Y0222086D01*
X0725089Y0222290D02*
X0722537Y0222290D01*
X0722537Y0222494D02*
X0725089Y0222494D01*
X0725089Y0222698D02*
X0722537Y0222698D01*
X0722537Y0222902D02*
X0725089Y0222902D01*
X0725089Y0220118D02*
X0722537Y0220118D01*
X0722537Y0220938D01*
X0725089Y0220938D01*
X0725089Y0220118D01*
X0725089Y0220322D02*
X0722537Y0220322D01*
X0722537Y0220526D02*
X0725089Y0220526D01*
X0725089Y0220730D02*
X0722537Y0220730D01*
X0722537Y0220934D02*
X0725089Y0220934D01*
X0725089Y0218149D02*
X0722537Y0218149D01*
X0722537Y0218969D01*
X0725089Y0218969D01*
X0725089Y0218149D01*
X0725089Y0218353D02*
X0722537Y0218353D01*
X0722537Y0218557D02*
X0725089Y0218557D01*
X0725089Y0218761D02*
X0722537Y0218761D01*
X0722537Y0218965D02*
X0725089Y0218965D01*
X0725089Y0216181D02*
X0722537Y0216181D01*
X0722537Y0217001D01*
X0725089Y0217001D01*
X0725089Y0216181D01*
X0725089Y0216385D02*
X0722537Y0216385D01*
X0722537Y0216589D02*
X0725089Y0216589D01*
X0725089Y0216793D02*
X0722537Y0216793D01*
X0722537Y0216997D02*
X0725089Y0216997D01*
X0725089Y0214212D02*
X0722537Y0214212D01*
X0722537Y0215032D01*
X0725089Y0215032D01*
X0725089Y0214212D01*
X0725089Y0214416D02*
X0722537Y0214416D01*
X0722537Y0214620D02*
X0725089Y0214620D01*
X0725089Y0214824D02*
X0722537Y0214824D01*
X0722537Y0215028D02*
X0725089Y0215028D01*
X0725089Y0212244D02*
X0722537Y0212244D01*
X0722537Y0213064D01*
X0725089Y0213064D01*
X0725089Y0212244D01*
X0725089Y0212448D02*
X0722537Y0212448D01*
X0722537Y0212652D02*
X0725089Y0212652D01*
X0725089Y0212856D02*
X0722537Y0212856D01*
X0722537Y0213060D02*
X0725089Y0213060D01*
X0725088Y0210275D02*
X0720568Y0210275D01*
X0720568Y0211095D01*
X0725088Y0211095D01*
X0725088Y0210275D01*
X0725088Y0210479D02*
X0720568Y0210479D01*
X0720568Y0210683D02*
X0725088Y0210683D01*
X0725088Y0210887D02*
X0720568Y0210887D01*
X0720568Y0211091D02*
X0725088Y0211091D01*
X0725089Y0208307D02*
X0722537Y0208307D01*
X0722537Y0209127D01*
X0725089Y0209127D01*
X0725089Y0208307D01*
X0725089Y0208511D02*
X0722537Y0208511D01*
X0722537Y0208715D02*
X0725089Y0208715D01*
X0725089Y0208919D02*
X0722537Y0208919D01*
X0722537Y0209123D02*
X0725089Y0209123D01*
X0720844Y0207433D02*
X0720844Y0204881D01*
X0720844Y0207433D02*
X0721664Y0207433D01*
X0721664Y0204881D01*
X0720844Y0204881D01*
X0720844Y0205085D02*
X0721664Y0205085D01*
X0721664Y0205289D02*
X0720844Y0205289D01*
X0720844Y0205493D02*
X0721664Y0205493D01*
X0721664Y0205697D02*
X0720844Y0205697D01*
X0720844Y0205901D02*
X0721664Y0205901D01*
X0721664Y0206105D02*
X0720844Y0206105D01*
X0720844Y0206309D02*
X0721664Y0206309D01*
X0721664Y0206513D02*
X0720844Y0206513D01*
X0720844Y0206717D02*
X0721664Y0206717D01*
X0721664Y0206921D02*
X0720844Y0206921D01*
X0720844Y0207125D02*
X0721664Y0207125D01*
X0721664Y0207329D02*
X0720844Y0207329D01*
X0718875Y0207433D02*
X0718875Y0204881D01*
X0718875Y0207433D02*
X0719695Y0207433D01*
X0719695Y0204881D01*
X0718875Y0204881D01*
X0718875Y0205085D02*
X0719695Y0205085D01*
X0719695Y0205289D02*
X0718875Y0205289D01*
X0718875Y0205493D02*
X0719695Y0205493D01*
X0719695Y0205697D02*
X0718875Y0205697D01*
X0718875Y0205901D02*
X0719695Y0205901D01*
X0719695Y0206105D02*
X0718875Y0206105D01*
X0718875Y0206309D02*
X0719695Y0206309D01*
X0719695Y0206513D02*
X0718875Y0206513D01*
X0718875Y0206717D02*
X0719695Y0206717D01*
X0719695Y0206921D02*
X0718875Y0206921D01*
X0718875Y0207125D02*
X0719695Y0207125D01*
X0719695Y0207329D02*
X0718875Y0207329D01*
X0716907Y0207433D02*
X0716907Y0204881D01*
X0716907Y0207433D02*
X0717727Y0207433D01*
X0717727Y0204881D01*
X0716907Y0204881D01*
X0716907Y0205085D02*
X0717727Y0205085D01*
X0717727Y0205289D02*
X0716907Y0205289D01*
X0716907Y0205493D02*
X0717727Y0205493D01*
X0717727Y0205697D02*
X0716907Y0205697D01*
X0716907Y0205901D02*
X0717727Y0205901D01*
X0717727Y0206105D02*
X0716907Y0206105D01*
X0716907Y0206309D02*
X0717727Y0206309D01*
X0717727Y0206513D02*
X0716907Y0206513D01*
X0716907Y0206717D02*
X0717727Y0206717D01*
X0717727Y0206921D02*
X0716907Y0206921D01*
X0716907Y0207125D02*
X0717727Y0207125D01*
X0717727Y0207329D02*
X0716907Y0207329D01*
X0714938Y0207433D02*
X0714938Y0204881D01*
X0714938Y0207433D02*
X0715758Y0207433D01*
X0715758Y0204881D01*
X0714938Y0204881D01*
X0714938Y0205085D02*
X0715758Y0205085D01*
X0715758Y0205289D02*
X0714938Y0205289D01*
X0714938Y0205493D02*
X0715758Y0205493D01*
X0715758Y0205697D02*
X0714938Y0205697D01*
X0714938Y0205901D02*
X0715758Y0205901D01*
X0715758Y0206105D02*
X0714938Y0206105D01*
X0714938Y0206309D02*
X0715758Y0206309D01*
X0715758Y0206513D02*
X0714938Y0206513D01*
X0714938Y0206717D02*
X0715758Y0206717D01*
X0715758Y0206921D02*
X0714938Y0206921D01*
X0714938Y0207125D02*
X0715758Y0207125D01*
X0715758Y0207329D02*
X0714938Y0207329D01*
X0712970Y0207433D02*
X0712970Y0204881D01*
X0712970Y0207433D02*
X0713790Y0207433D01*
X0713790Y0204881D01*
X0712970Y0204881D01*
X0712970Y0205085D02*
X0713790Y0205085D01*
X0713790Y0205289D02*
X0712970Y0205289D01*
X0712970Y0205493D02*
X0713790Y0205493D01*
X0713790Y0205697D02*
X0712970Y0205697D01*
X0712970Y0205901D02*
X0713790Y0205901D01*
X0713790Y0206105D02*
X0712970Y0206105D01*
X0712970Y0206309D02*
X0713790Y0206309D01*
X0713790Y0206513D02*
X0712970Y0206513D01*
X0712970Y0206717D02*
X0713790Y0206717D01*
X0713790Y0206921D02*
X0712970Y0206921D01*
X0712970Y0207125D02*
X0713790Y0207125D01*
X0713790Y0207329D02*
X0712970Y0207329D01*
X0711001Y0207433D02*
X0711001Y0204881D01*
X0711001Y0207433D02*
X0711821Y0207433D01*
X0711821Y0204881D01*
X0711001Y0204881D01*
X0711001Y0205085D02*
X0711821Y0205085D01*
X0711821Y0205289D02*
X0711001Y0205289D01*
X0711001Y0205493D02*
X0711821Y0205493D01*
X0711821Y0205697D02*
X0711001Y0205697D01*
X0711001Y0205901D02*
X0711821Y0205901D01*
X0711821Y0206105D02*
X0711001Y0206105D01*
X0711001Y0206309D02*
X0711821Y0206309D01*
X0711821Y0206513D02*
X0711001Y0206513D01*
X0711001Y0206717D02*
X0711821Y0206717D01*
X0711821Y0206921D02*
X0711001Y0206921D01*
X0711001Y0207125D02*
X0711821Y0207125D01*
X0711821Y0207329D02*
X0711001Y0207329D01*
X0709033Y0207433D02*
X0709033Y0204881D01*
X0709033Y0207433D02*
X0709853Y0207433D01*
X0709853Y0204881D01*
X0709033Y0204881D01*
X0709033Y0205085D02*
X0709853Y0205085D01*
X0709853Y0205289D02*
X0709033Y0205289D01*
X0709033Y0205493D02*
X0709853Y0205493D01*
X0709853Y0205697D02*
X0709033Y0205697D01*
X0709033Y0205901D02*
X0709853Y0205901D01*
X0709853Y0206105D02*
X0709033Y0206105D01*
X0709033Y0206309D02*
X0709853Y0206309D01*
X0709853Y0206513D02*
X0709033Y0206513D01*
X0709033Y0206717D02*
X0709853Y0206717D01*
X0709853Y0206921D02*
X0709033Y0206921D01*
X0709033Y0207125D02*
X0709853Y0207125D01*
X0709853Y0207329D02*
X0709033Y0207329D01*
X0707064Y0207433D02*
X0707064Y0204881D01*
X0707064Y0207433D02*
X0707884Y0207433D01*
X0707884Y0204881D01*
X0707064Y0204881D01*
X0707064Y0205085D02*
X0707884Y0205085D01*
X0707884Y0205289D02*
X0707064Y0205289D01*
X0707064Y0205493D02*
X0707884Y0205493D01*
X0707884Y0205697D02*
X0707064Y0205697D01*
X0707064Y0205901D02*
X0707884Y0205901D01*
X0707884Y0206105D02*
X0707064Y0206105D01*
X0707064Y0206309D02*
X0707884Y0206309D01*
X0707884Y0206513D02*
X0707064Y0206513D01*
X0707064Y0206717D02*
X0707884Y0206717D01*
X0707884Y0206921D02*
X0707064Y0206921D01*
X0707064Y0207125D02*
X0707884Y0207125D01*
X0707884Y0207329D02*
X0707064Y0207329D01*
X0705096Y0207433D02*
X0705096Y0204881D01*
X0705096Y0207433D02*
X0705916Y0207433D01*
X0705916Y0204881D01*
X0705096Y0204881D01*
X0705096Y0205085D02*
X0705916Y0205085D01*
X0705916Y0205289D02*
X0705096Y0205289D01*
X0705096Y0205493D02*
X0705916Y0205493D01*
X0705916Y0205697D02*
X0705096Y0205697D01*
X0705096Y0205901D02*
X0705916Y0205901D01*
X0705916Y0206105D02*
X0705096Y0206105D01*
X0705096Y0206309D02*
X0705916Y0206309D01*
X0705916Y0206513D02*
X0705096Y0206513D01*
X0705096Y0206717D02*
X0705916Y0206717D01*
X0705916Y0206921D02*
X0705096Y0206921D01*
X0705096Y0207125D02*
X0705916Y0207125D01*
X0705916Y0207329D02*
X0705096Y0207329D01*
X0703127Y0207433D02*
X0703127Y0204881D01*
X0703127Y0207433D02*
X0703947Y0207433D01*
X0703947Y0204881D01*
X0703127Y0204881D01*
X0703127Y0205085D02*
X0703947Y0205085D01*
X0703947Y0205289D02*
X0703127Y0205289D01*
X0703127Y0205493D02*
X0703947Y0205493D01*
X0703947Y0205697D02*
X0703127Y0205697D01*
X0703127Y0205901D02*
X0703947Y0205901D01*
X0703947Y0206105D02*
X0703127Y0206105D01*
X0703127Y0206309D02*
X0703947Y0206309D01*
X0703947Y0206513D02*
X0703127Y0206513D01*
X0703127Y0206717D02*
X0703947Y0206717D01*
X0703947Y0206921D02*
X0703127Y0206921D01*
X0703127Y0207125D02*
X0703947Y0207125D01*
X0703947Y0207329D02*
X0703127Y0207329D01*
X0702254Y0209127D02*
X0699702Y0209127D01*
X0702254Y0209127D02*
X0702254Y0208307D01*
X0699702Y0208307D01*
X0699702Y0209127D01*
X0699702Y0208511D02*
X0702254Y0208511D01*
X0702254Y0208715D02*
X0699702Y0208715D01*
X0699702Y0208919D02*
X0702254Y0208919D01*
X0702254Y0209123D02*
X0699702Y0209123D01*
X0699702Y0211095D02*
X0704222Y0211095D01*
X0704222Y0210275D01*
X0699702Y0210275D01*
X0699702Y0211095D01*
X0699702Y0210479D02*
X0704222Y0210479D01*
X0704222Y0210683D02*
X0699702Y0210683D01*
X0699702Y0210887D02*
X0704222Y0210887D01*
X0704222Y0211091D02*
X0699702Y0211091D01*
X0699702Y0213064D02*
X0702254Y0213064D01*
X0702254Y0212244D01*
X0699702Y0212244D01*
X0699702Y0213064D01*
X0699702Y0212448D02*
X0702254Y0212448D01*
X0702254Y0212652D02*
X0699702Y0212652D01*
X0699702Y0212856D02*
X0702254Y0212856D01*
X0702254Y0213060D02*
X0699702Y0213060D01*
X0699702Y0215032D02*
X0702254Y0215032D01*
X0702254Y0214212D01*
X0699702Y0214212D01*
X0699702Y0215032D01*
X0699702Y0214416D02*
X0702254Y0214416D01*
X0702254Y0214620D02*
X0699702Y0214620D01*
X0699702Y0214824D02*
X0702254Y0214824D01*
X0702254Y0215028D02*
X0699702Y0215028D01*
X0699702Y0217001D02*
X0702254Y0217001D01*
X0702254Y0216181D01*
X0699702Y0216181D01*
X0699702Y0217001D01*
X0699702Y0216385D02*
X0702254Y0216385D01*
X0702254Y0216589D02*
X0699702Y0216589D01*
X0699702Y0216793D02*
X0702254Y0216793D01*
X0702254Y0216997D02*
X0699702Y0216997D01*
X0699702Y0218969D02*
X0702254Y0218969D01*
X0702254Y0218149D01*
X0699702Y0218149D01*
X0699702Y0218969D01*
X0699702Y0218353D02*
X0702254Y0218353D01*
X0702254Y0218557D02*
X0699702Y0218557D01*
X0699702Y0218761D02*
X0702254Y0218761D01*
X0702254Y0218965D02*
X0699702Y0218965D01*
X0699702Y0220938D02*
X0702254Y0220938D01*
X0702254Y0220118D01*
X0699702Y0220118D01*
X0699702Y0220938D01*
X0699702Y0220322D02*
X0702254Y0220322D01*
X0702254Y0220526D02*
X0699702Y0220526D01*
X0699702Y0220730D02*
X0702254Y0220730D01*
X0702254Y0220934D02*
X0699702Y0220934D01*
X0699702Y0222906D02*
X0702254Y0222906D01*
X0702254Y0222086D01*
X0699702Y0222086D01*
X0699702Y0222906D01*
X0699702Y0222290D02*
X0702254Y0222290D01*
X0702254Y0222494D02*
X0699702Y0222494D01*
X0699702Y0222698D02*
X0702254Y0222698D01*
X0702254Y0222902D02*
X0699702Y0222902D01*
D25*
X0721254Y0225055D03*
D26*
X0713340Y0216551D02*
X0713340Y0214661D01*
X0711450Y0214661D01*
X0711450Y0216551D01*
X0713340Y0216551D01*
X0713340Y0215132D02*
X0711450Y0215132D01*
X0711450Y0215603D02*
X0713340Y0215603D01*
X0713340Y0216074D02*
X0711450Y0216074D01*
X0711450Y0216545D02*
X0713340Y0216545D01*
D27*
X0712395Y0215606D03*
D28*
X0693049Y0131630D03*
D29*
X0698856Y0131630D03*
X0698856Y0133598D03*
X0698856Y0135567D03*
X0698856Y0129661D03*
X0698856Y0127693D03*
X0687242Y0127693D03*
X0687242Y0129661D03*
X0687242Y0131630D03*
X0687242Y0133598D03*
X0687242Y0135567D03*
D30*
X0810234Y0180472D03*
X0815234Y0180372D03*
X0820234Y0180372D03*
X0825234Y0180372D03*
X0825234Y0202572D03*
X0820234Y0202572D03*
X0815234Y0202572D03*
X0810234Y0202572D03*
D31*
X0802458Y0236039D03*
X0763088Y0236039D03*
D32*
X0797931Y0203362D03*
X0797931Y0189189D03*
D33*
X0775443Y0194331D03*
X0849498Y0180213D03*
X0775443Y0164409D03*
X0849498Y0210134D03*
D34*
G36*
X0904388Y0117049D02*
X0907924Y0113513D01*
X0898460Y0104049D01*
X0894924Y0107585D01*
X0904388Y0117049D01*
G37*
G36*
X0919087Y0117605D02*
X0922623Y0114069D01*
X0913159Y0104605D01*
X0909623Y0108141D01*
X0919087Y0117605D01*
G37*
G36*
X0918530Y0102906D02*
X0922066Y0099370D01*
X0912602Y0089906D01*
X0909066Y0093442D01*
X0918530Y0102906D01*
G37*
G36*
X0933229Y0103463D02*
X0936765Y0099927D01*
X0927301Y0090463D01*
X0923765Y0093999D01*
X0933229Y0103463D01*
G37*
G36*
X1204365Y0101070D02*
X1200829Y0097534D01*
X1191365Y0106998D01*
X1194901Y0110534D01*
X1204365Y0101070D01*
G37*
G36*
X1219064Y0100514D02*
X1215528Y0096978D01*
X1206064Y0106442D01*
X1209600Y0109978D01*
X1219064Y0100514D01*
G37*
G36*
X1204922Y0086371D02*
X1201386Y0082835D01*
X1191922Y0092299D01*
X1195458Y0095835D01*
X1204922Y0086371D01*
G37*
G36*
X1218507Y0115212D02*
X1214971Y0111676D01*
X1205507Y0121140D01*
X1209043Y0124676D01*
X1218507Y0115212D01*
G37*
X1105884Y0303087D03*
X1115884Y0313874D03*
X1095884Y0313874D03*
X1085884Y0303087D03*
D35*
X0776080Y0276984D03*
D36*
X0776080Y0300606D03*
D37*
X0793797Y0304528D03*
X0758364Y0304528D03*
D38*
X0677655Y0094071D03*
X0677655Y0074071D03*
D39*
X0659545Y0076984D03*
D40*
X0895647Y0187181D03*
X0884860Y0197181D03*
X0895647Y0207181D03*
X0884860Y0217181D03*
X1227380Y0238520D03*
X1238167Y0248520D03*
X1227380Y0258520D03*
X1238167Y0228520D03*
D41*
X0527454Y0113968D02*
X0526854Y0113368D01*
X0526854Y0115356D01*
X0528259Y0116761D01*
X0530247Y0116761D01*
X0531652Y0115356D01*
X0531652Y0113368D01*
X0530247Y0111963D01*
X0528259Y0111963D01*
X0526854Y0113368D01*
X0527754Y0113741D01*
X0527754Y0114983D01*
X0528632Y0115861D01*
X0529874Y0115861D01*
X0530752Y0114983D01*
X0530752Y0113741D01*
X0529874Y0112863D01*
X0528632Y0112863D01*
X0527754Y0113741D01*
X0528654Y0114114D01*
X0528654Y0114610D01*
X0529005Y0114961D01*
X0529501Y0114961D01*
X0529852Y0114610D01*
X0529852Y0114114D01*
X0529501Y0113763D01*
X0529005Y0113763D01*
X0528654Y0114114D01*
X0534525Y0106897D02*
X0533925Y0106297D01*
X0533925Y0108285D01*
X0535330Y0109690D01*
X0537318Y0109690D01*
X0538723Y0108285D01*
X0538723Y0106297D01*
X0537318Y0104892D01*
X0535330Y0104892D01*
X0533925Y0106297D01*
X0534825Y0106670D01*
X0534825Y0107912D01*
X0535703Y0108790D01*
X0536945Y0108790D01*
X0537823Y0107912D01*
X0537823Y0106670D01*
X0536945Y0105792D01*
X0535703Y0105792D01*
X0534825Y0106670D01*
X0535725Y0107043D01*
X0535725Y0107539D01*
X0536076Y0107890D01*
X0536572Y0107890D01*
X0536923Y0107539D01*
X0536923Y0107043D01*
X0536572Y0106692D01*
X0536076Y0106692D01*
X0535725Y0107043D01*
X0541596Y0099826D02*
X0540996Y0099226D01*
X0540996Y0101214D01*
X0542401Y0102619D01*
X0544389Y0102619D01*
X0545794Y0101214D01*
X0545794Y0099226D01*
X0544389Y0097821D01*
X0542401Y0097821D01*
X0540996Y0099226D01*
X0541896Y0099599D01*
X0541896Y0100841D01*
X0542774Y0101719D01*
X0544016Y0101719D01*
X0544894Y0100841D01*
X0544894Y0099599D01*
X0544016Y0098721D01*
X0542774Y0098721D01*
X0541896Y0099599D01*
X0542796Y0099972D01*
X0542796Y0100468D01*
X0543147Y0100819D01*
X0543643Y0100819D01*
X0543994Y0100468D01*
X0543994Y0099972D01*
X0543643Y0099621D01*
X0543147Y0099621D01*
X0542796Y0099972D01*
X0548667Y0092755D02*
X0548067Y0092155D01*
X0548067Y0094143D01*
X0549472Y0095548D01*
X0551460Y0095548D01*
X0552865Y0094143D01*
X0552865Y0092155D01*
X0551460Y0090750D01*
X0549472Y0090750D01*
X0548067Y0092155D01*
X0548967Y0092528D01*
X0548967Y0093770D01*
X0549845Y0094648D01*
X0551087Y0094648D01*
X0551965Y0093770D01*
X0551965Y0092528D01*
X0551087Y0091650D01*
X0549845Y0091650D01*
X0548967Y0092528D01*
X0549867Y0092901D01*
X0549867Y0093397D01*
X0550218Y0093748D01*
X0550714Y0093748D01*
X0551065Y0093397D01*
X0551065Y0092901D01*
X0550714Y0092550D01*
X0550218Y0092550D01*
X0549867Y0092901D01*
X0818229Y0094948D02*
X0817629Y0095548D01*
X0819617Y0095548D01*
X0821022Y0094143D01*
X0821022Y0092155D01*
X0819617Y0090750D01*
X0817629Y0090750D01*
X0816224Y0092155D01*
X0816224Y0094143D01*
X0817629Y0095548D01*
X0818002Y0094648D01*
X0819244Y0094648D01*
X0820122Y0093770D01*
X0820122Y0092528D01*
X0819244Y0091650D01*
X0818002Y0091650D01*
X0817124Y0092528D01*
X0817124Y0093770D01*
X0818002Y0094648D01*
X0818375Y0093748D01*
X0818871Y0093748D01*
X0819222Y0093397D01*
X0819222Y0092901D01*
X0818871Y0092550D01*
X0818375Y0092550D01*
X0818024Y0092901D01*
X0818024Y0093397D01*
X0818375Y0093748D01*
X0825300Y0102019D02*
X0824700Y0102619D01*
X0826688Y0102619D01*
X0828093Y0101214D01*
X0828093Y0099226D01*
X0826688Y0097821D01*
X0824700Y0097821D01*
X0823295Y0099226D01*
X0823295Y0101214D01*
X0824700Y0102619D01*
X0825073Y0101719D01*
X0826315Y0101719D01*
X0827193Y0100841D01*
X0827193Y0099599D01*
X0826315Y0098721D01*
X0825073Y0098721D01*
X0824195Y0099599D01*
X0824195Y0100841D01*
X0825073Y0101719D01*
X0825446Y0100819D01*
X0825942Y0100819D01*
X0826293Y0100468D01*
X0826293Y0099972D01*
X0825942Y0099621D01*
X0825446Y0099621D01*
X0825095Y0099972D01*
X0825095Y0100468D01*
X0825446Y0100819D01*
X0832372Y0109090D02*
X0831772Y0109690D01*
X0833760Y0109690D01*
X0835165Y0108285D01*
X0835165Y0106297D01*
X0833760Y0104892D01*
X0831772Y0104892D01*
X0830367Y0106297D01*
X0830367Y0108285D01*
X0831772Y0109690D01*
X0832145Y0108790D01*
X0833387Y0108790D01*
X0834265Y0107912D01*
X0834265Y0106670D01*
X0833387Y0105792D01*
X0832145Y0105792D01*
X0831267Y0106670D01*
X0831267Y0107912D01*
X0832145Y0108790D01*
X0832518Y0107890D01*
X0833014Y0107890D01*
X0833365Y0107539D01*
X0833365Y0107043D01*
X0833014Y0106692D01*
X0832518Y0106692D01*
X0832167Y0107043D01*
X0832167Y0107539D01*
X0832518Y0107890D01*
X0839443Y0116161D02*
X0838843Y0116761D01*
X0840831Y0116761D01*
X0842236Y0115356D01*
X0842236Y0113368D01*
X0840831Y0111963D01*
X0838843Y0111963D01*
X0837438Y0113368D01*
X0837438Y0115356D01*
X0838843Y0116761D01*
X0839216Y0115861D01*
X0840458Y0115861D01*
X0841336Y0114983D01*
X0841336Y0113741D01*
X0840458Y0112863D01*
X0839216Y0112863D01*
X0838338Y0113741D01*
X0838338Y0114983D01*
X0839216Y0115861D01*
X0839589Y0114961D01*
X0840085Y0114961D01*
X0840436Y0114610D01*
X0840436Y0114114D01*
X0840085Y0113763D01*
X0839589Y0113763D01*
X0839238Y0114114D01*
X0839238Y0114610D01*
X0839589Y0114961D01*
D42*
X0900884Y0156118D03*
X1222143Y0155724D03*
D43*
X1107183Y0148244D03*
D44*
X1073324Y0148471D02*
X1248679Y0148471D01*
X1248679Y0147685D02*
X1073324Y0147685D01*
X1073324Y0146899D02*
X1248679Y0146899D01*
X1248679Y0146113D02*
X1073324Y0146113D01*
X1073324Y0145327D02*
X1248679Y0145327D01*
X1248679Y0144541D02*
X1073324Y0144541D01*
X1073324Y0143756D02*
X1248679Y0143756D01*
X1248679Y0142970D02*
X1073324Y0142970D01*
X1073324Y0142184D02*
X1248679Y0142184D01*
X1248679Y0141398D02*
X1073324Y0141398D01*
X1073324Y0140612D02*
X1248679Y0140612D01*
X1248679Y0139826D02*
X1073324Y0139826D01*
X1073324Y0139040D02*
X1248679Y0139040D01*
X1248679Y0138254D02*
X1073324Y0138254D01*
X1073324Y0137468D02*
X1248679Y0137468D01*
X1248679Y0136682D02*
X1073324Y0136682D01*
X1073324Y0135896D02*
X1248679Y0135896D01*
X1248679Y0135111D02*
X1073324Y0135111D01*
X1073324Y0134325D02*
X1248679Y0134325D01*
X1248679Y0133539D02*
X1073324Y0133539D01*
X1073324Y0132753D02*
X1248679Y0132753D01*
X1248679Y0131967D02*
X1073324Y0131967D01*
X1073324Y0131181D02*
X1248679Y0131181D01*
X1248679Y0130395D02*
X1073324Y0130395D01*
X1073324Y0129609D02*
X1248679Y0129609D01*
X1248679Y0128823D02*
X1073324Y0128823D01*
X1073324Y0128037D02*
X1125221Y0128037D01*
X1127025Y0128412D02*
X1121488Y0127262D01*
X1121488Y0127262D01*
X1116466Y0124659D01*
X1112333Y0120799D01*
X1109394Y0115967D01*
X1109394Y0115967D01*
X1107868Y0110521D01*
X1107868Y0104865D01*
X1109394Y0099419D01*
X1112333Y0094587D01*
X1112333Y0094587D01*
X1116466Y0090726D01*
X1116466Y0090726D01*
X1121488Y0088124D01*
X1127025Y0086974D01*
X1127025Y0086974D01*
X1132668Y0087360D01*
X1137997Y0089254D01*
X1142618Y0092515D01*
X1142618Y0092515D01*
X1142618Y0092515D01*
X1146187Y0096902D01*
X1146187Y0096902D01*
X1148440Y0102090D01*
X1149210Y0107693D01*
X1148440Y0113296D01*
X1146187Y0118483D01*
X1142618Y0122871D01*
X1142618Y0122871D01*
X1137997Y0126132D01*
X1132668Y0128026D01*
X1132668Y0128026D01*
X1127025Y0128412D01*
X1127025Y0128412D01*
X1132506Y0128037D02*
X1248679Y0128037D01*
X1248679Y0127251D02*
X1134848Y0127251D01*
X1137059Y0126466D02*
X1248679Y0126466D01*
X1248679Y0125680D02*
X1138638Y0125680D01*
X1139752Y0124894D02*
X1248679Y0124894D01*
X1248679Y0124108D02*
X1140865Y0124108D01*
X1141978Y0123322D02*
X1248679Y0123322D01*
X1248679Y0122536D02*
X1142890Y0122536D01*
X1143529Y0121750D02*
X1248679Y0121750D01*
X1248679Y0120964D02*
X1144169Y0120964D01*
X1144808Y0120178D02*
X1248679Y0120178D01*
X1248679Y0119392D02*
X1145448Y0119392D01*
X1146087Y0118606D02*
X1248679Y0118606D01*
X1248679Y0117820D02*
X1146475Y0117820D01*
X1146816Y0117035D02*
X1248679Y0117035D01*
X1248679Y0116249D02*
X1147158Y0116249D01*
X1147499Y0115463D02*
X1248679Y0115463D01*
X1248679Y0114677D02*
X1147840Y0114677D01*
X1148182Y0113891D02*
X1248679Y0113891D01*
X1248679Y0113105D02*
X1148466Y0113105D01*
X1148440Y0113296D02*
X1148440Y0113296D01*
X1148574Y0112319D02*
X1248679Y0112319D01*
X1248679Y0111533D02*
X1148682Y0111533D01*
X1148790Y0110747D02*
X1248679Y0110747D01*
X1248679Y0109961D02*
X1148898Y0109961D01*
X1149007Y0109175D02*
X1248679Y0109175D01*
X1248679Y0108390D02*
X1149115Y0108390D01*
X1149198Y0107604D02*
X1248679Y0107604D01*
X1248679Y0106818D02*
X1149090Y0106818D01*
X1148982Y0106032D02*
X1248679Y0106032D01*
X1248679Y0105246D02*
X1148874Y0105246D01*
X1148766Y0104460D02*
X1248679Y0104460D01*
X1248679Y0103674D02*
X1148658Y0103674D01*
X1148550Y0102888D02*
X1248679Y0102888D01*
X1248679Y0102102D02*
X1148442Y0102102D01*
X1148440Y0102090D02*
X1148440Y0102090D01*
X1148104Y0101316D02*
X1248679Y0101316D01*
X1248679Y0100530D02*
X1147763Y0100530D01*
X1147421Y0099744D02*
X1248679Y0099744D01*
X1248679Y0098959D02*
X1147080Y0098959D01*
X1146739Y0098173D02*
X1248679Y0098173D01*
X1248679Y0097387D02*
X1146397Y0097387D01*
X1145942Y0096601D02*
X1248679Y0096601D01*
X1248679Y0095815D02*
X1145302Y0095815D01*
X1144663Y0095029D02*
X1248679Y0095029D01*
X1248679Y0094243D02*
X1144023Y0094243D01*
X1143384Y0093457D02*
X1248679Y0093457D01*
X1248679Y0092671D02*
X1142745Y0092671D01*
X1141725Y0091885D02*
X1248679Y0091885D01*
X1248679Y0091099D02*
X1140612Y0091099D01*
X1139499Y0090314D02*
X1248679Y0090314D01*
X1248679Y0089528D02*
X1138385Y0089528D01*
X1137997Y0089254D02*
X1137997Y0089254D01*
X1136557Y0088742D02*
X1248679Y0088742D01*
X1248679Y0087956D02*
X1134345Y0087956D01*
X1132668Y0087360D02*
X1132668Y0087360D01*
X1129894Y0087170D02*
X1248679Y0087170D01*
X1248679Y0086384D02*
X1073324Y0086384D01*
X1073324Y0087170D02*
X1126081Y0087170D01*
X1122299Y0087956D02*
X1073324Y0087956D01*
X1073324Y0088742D02*
X1120296Y0088742D01*
X1121488Y0088124D02*
X1121488Y0088124D01*
X1118780Y0089528D02*
X1073324Y0089528D01*
X1073324Y0090314D02*
X1117263Y0090314D01*
X1116067Y0091099D02*
X1073324Y0091099D01*
X1073324Y0091885D02*
X1115225Y0091885D01*
X1114384Y0092671D02*
X1073324Y0092671D01*
X1073324Y0093457D02*
X1113542Y0093457D01*
X1112701Y0094243D02*
X1073324Y0094243D01*
X1073324Y0095029D02*
X1112064Y0095029D01*
X1111586Y0095815D02*
X1073324Y0095815D01*
X1073324Y0096601D02*
X1111108Y0096601D01*
X1110630Y0097387D02*
X1073324Y0097387D01*
X1073324Y0098173D02*
X1110152Y0098173D01*
X1109674Y0098959D02*
X1073324Y0098959D01*
X1073324Y0099744D02*
X1109303Y0099744D01*
X1109394Y0099419D02*
X1109394Y0099419D01*
X1109083Y0100530D02*
X1073324Y0100530D01*
X1073324Y0101316D02*
X1108863Y0101316D01*
X1108642Y0102102D02*
X1073324Y0102102D01*
X1073324Y0102888D02*
X1108422Y0102888D01*
X1108202Y0103674D02*
X1073324Y0103674D01*
X1073324Y0104460D02*
X1107982Y0104460D01*
X1107868Y0105246D02*
X1073324Y0105246D01*
X1073324Y0106032D02*
X1107868Y0106032D01*
X1107868Y0106818D02*
X1073324Y0106818D01*
X1073324Y0107604D02*
X1107868Y0107604D01*
X1107868Y0108390D02*
X1073324Y0108390D01*
X1073324Y0109175D02*
X1107868Y0109175D01*
X1107868Y0109961D02*
X1073324Y0109961D01*
X1073324Y0110747D02*
X1107932Y0110747D01*
X1108152Y0111533D02*
X1073324Y0111533D01*
X1073324Y0112319D02*
X1108372Y0112319D01*
X1108592Y0113105D02*
X1073324Y0113105D01*
X1073324Y0113891D02*
X1108813Y0113891D01*
X1109033Y0114677D02*
X1073324Y0114677D01*
X1073324Y0115463D02*
X1109253Y0115463D01*
X1109566Y0116249D02*
X1073324Y0116249D01*
X1073324Y0117035D02*
X1110044Y0117035D01*
X1110521Y0117820D02*
X1073324Y0117820D01*
X1073324Y0118606D02*
X1110999Y0118606D01*
X1111477Y0119392D02*
X1073324Y0119392D01*
X1073324Y0120178D02*
X1111955Y0120178D01*
X1112333Y0120799D02*
X1112333Y0120799D01*
X1112509Y0120964D02*
X1073324Y0120964D01*
X1073324Y0121750D02*
X1113351Y0121750D01*
X1114192Y0122536D02*
X1073324Y0122536D01*
X1073324Y0123322D02*
X1115034Y0123322D01*
X1115875Y0124108D02*
X1073324Y0124108D01*
X1073324Y0124894D02*
X1116918Y0124894D01*
X1116466Y0124659D02*
X1116466Y0124659D01*
X1118435Y0125680D02*
X1073324Y0125680D01*
X1073324Y0126466D02*
X1119952Y0126466D01*
X1121468Y0127251D02*
X1073324Y0127251D01*
X1073324Y0149257D02*
X1248679Y0149257D01*
X1248679Y0150043D02*
X1073324Y0150043D01*
X1073324Y0150829D02*
X1248679Y0150829D01*
X1248679Y0151615D02*
X1073324Y0151615D01*
X1073324Y0152401D02*
X1248679Y0152401D01*
X1248679Y0153187D02*
X1073324Y0153187D01*
X1073324Y0153972D02*
X1248679Y0153972D01*
X1248679Y0154758D02*
X1073324Y0154758D01*
X1073324Y0155544D02*
X1248679Y0155544D01*
X1248679Y0156330D02*
X1073324Y0156330D01*
X1073324Y0157116D02*
X1248679Y0157116D01*
X1248679Y0157902D02*
X1073324Y0157902D01*
X1073324Y0158688D02*
X1248679Y0158688D01*
X1248679Y0159474D02*
X1073324Y0159474D01*
X1073324Y0160260D02*
X1248679Y0160260D01*
X1248679Y0161046D02*
X1073324Y0161046D01*
X1073324Y0161832D02*
X1248679Y0161832D01*
X1248679Y0162617D02*
X1073324Y0162617D01*
X1073324Y0163403D02*
X1248679Y0163403D01*
X1248679Y0164189D02*
X1073324Y0164189D01*
X1073324Y0164975D02*
X1200164Y0164975D01*
X1199809Y0165059D02*
X1202379Y0164452D01*
X1202379Y0164452D01*
X1204920Y0165174D01*
X1204920Y0165174D01*
X1206788Y0167042D01*
X1207264Y0168717D01*
X1248679Y0168717D01*
X1248679Y0062417D01*
X1073324Y0062417D01*
X1073324Y0166748D01*
X1197961Y0166748D01*
X1199809Y0165059D01*
X1199809Y0165059D01*
X1199041Y0165761D02*
X1073324Y0165761D01*
X1073324Y0166547D02*
X1198181Y0166547D01*
X1204220Y0164975D02*
X1248679Y0164975D01*
X1248679Y0165761D02*
X1205507Y0165761D01*
X1206293Y0166547D02*
X1248679Y0166547D01*
X1248679Y0167333D02*
X1206871Y0167333D01*
X1206788Y0167042D02*
X1206788Y0167042D01*
X1207094Y0168119D02*
X1248679Y0168119D01*
X1248679Y0174622D02*
X1205214Y0174622D01*
X1205214Y0269731D01*
X1206903Y0271579D01*
X1207510Y0274149D01*
X1207510Y0274150D01*
X1206788Y0276690D01*
X1206788Y0276690D01*
X1204920Y0278558D01*
X1203246Y0279034D01*
X1203246Y0286827D01*
X1248679Y0286827D01*
X1248679Y0174622D01*
X1248679Y0175192D02*
X1205214Y0175192D01*
X1205214Y0175978D02*
X1248679Y0175978D01*
X1248679Y0176764D02*
X1205214Y0176764D01*
X1205214Y0177550D02*
X1248679Y0177550D01*
X1248679Y0178336D02*
X1205214Y0178336D01*
X1205214Y0179122D02*
X1248679Y0179122D01*
X1248679Y0179908D02*
X1205214Y0179908D01*
X1205214Y0180693D02*
X1248679Y0180693D01*
X1248679Y0181479D02*
X1205214Y0181479D01*
X1205214Y0182265D02*
X1248679Y0182265D01*
X1248679Y0183051D02*
X1205214Y0183051D01*
X1205214Y0183837D02*
X1248679Y0183837D01*
X1248679Y0184623D02*
X1205214Y0184623D01*
X1205214Y0185409D02*
X1248679Y0185409D01*
X1248679Y0186195D02*
X1205214Y0186195D01*
X1205214Y0186981D02*
X1248679Y0186981D01*
X1248679Y0187767D02*
X1205214Y0187767D01*
X1205214Y0188553D02*
X1248679Y0188553D01*
X1248679Y0189339D02*
X1205214Y0189339D01*
X1205214Y0190124D02*
X1248679Y0190124D01*
X1248679Y0190910D02*
X1205214Y0190910D01*
X1205214Y0191696D02*
X1248679Y0191696D01*
X1248679Y0192482D02*
X1205214Y0192482D01*
X1205214Y0193268D02*
X1248679Y0193268D01*
X1248679Y0194054D02*
X1205214Y0194054D01*
X1205214Y0194840D02*
X1248679Y0194840D01*
X1248679Y0195626D02*
X1205214Y0195626D01*
X1205214Y0196412D02*
X1248679Y0196412D01*
X1248679Y0197198D02*
X1205214Y0197198D01*
X1205214Y0197984D02*
X1248679Y0197984D01*
X1248679Y0198769D02*
X1205214Y0198769D01*
X1205214Y0199555D02*
X1248679Y0199555D01*
X1248679Y0200341D02*
X1205214Y0200341D01*
X1205214Y0201127D02*
X1248679Y0201127D01*
X1248679Y0201913D02*
X1205214Y0201913D01*
X1205214Y0202699D02*
X1248679Y0202699D01*
X1248679Y0203485D02*
X1205214Y0203485D01*
X1205214Y0204271D02*
X1248679Y0204271D01*
X1248679Y0205057D02*
X1205214Y0205057D01*
X1205214Y0205843D02*
X1248679Y0205843D01*
X1248679Y0206629D02*
X1205214Y0206629D01*
X1205214Y0207415D02*
X1248679Y0207415D01*
X1248679Y0208200D02*
X1205214Y0208200D01*
X1205214Y0208986D02*
X1248679Y0208986D01*
X1248679Y0209772D02*
X1205214Y0209772D01*
X1205214Y0210558D02*
X1248679Y0210558D01*
X1248679Y0211344D02*
X1205214Y0211344D01*
X1205214Y0212130D02*
X1248679Y0212130D01*
X1248679Y0212916D02*
X1205214Y0212916D01*
X1205214Y0213702D02*
X1248679Y0213702D01*
X1248679Y0214488D02*
X1205214Y0214488D01*
X1205214Y0215274D02*
X1248679Y0215274D01*
X1248679Y0216060D02*
X1205214Y0216060D01*
X1205214Y0216845D02*
X1248679Y0216845D01*
X1248679Y0217631D02*
X1205214Y0217631D01*
X1205214Y0218417D02*
X1248679Y0218417D01*
X1248679Y0219203D02*
X1205214Y0219203D01*
X1205214Y0219989D02*
X1248679Y0219989D01*
X1248679Y0220775D02*
X1205214Y0220775D01*
X1205214Y0221561D02*
X1248679Y0221561D01*
X1248679Y0222347D02*
X1205214Y0222347D01*
X1205214Y0223133D02*
X1248679Y0223133D01*
X1248679Y0223919D02*
X1205214Y0223919D01*
X1205214Y0224705D02*
X1248679Y0224705D01*
X1248679Y0225491D02*
X1205214Y0225491D01*
X1205214Y0226276D02*
X1248679Y0226276D01*
X1248679Y0227062D02*
X1205214Y0227062D01*
X1205214Y0227848D02*
X1248679Y0227848D01*
X1248679Y0228634D02*
X1205214Y0228634D01*
X1205214Y0229420D02*
X1248679Y0229420D01*
X1248679Y0230206D02*
X1205214Y0230206D01*
X1205214Y0230992D02*
X1248679Y0230992D01*
X1248679Y0231778D02*
X1205214Y0231778D01*
X1205214Y0232564D02*
X1248679Y0232564D01*
X1248679Y0233350D02*
X1205214Y0233350D01*
X1205214Y0234136D02*
X1248679Y0234136D01*
X1248679Y0234921D02*
X1205214Y0234921D01*
X1205214Y0235707D02*
X1248679Y0235707D01*
X1248679Y0236493D02*
X1205214Y0236493D01*
X1205214Y0237279D02*
X1248679Y0237279D01*
X1248679Y0238065D02*
X1205214Y0238065D01*
X1205214Y0238851D02*
X1248679Y0238851D01*
X1248679Y0239637D02*
X1205214Y0239637D01*
X1205214Y0240423D02*
X1248679Y0240423D01*
X1248679Y0241209D02*
X1205214Y0241209D01*
X1205214Y0241995D02*
X1248679Y0241995D01*
X1248679Y0242781D02*
X1205214Y0242781D01*
X1205214Y0243567D02*
X1248679Y0243567D01*
X1248679Y0244352D02*
X1205214Y0244352D01*
X1205214Y0245138D02*
X1248679Y0245138D01*
X1248679Y0245924D02*
X1205214Y0245924D01*
X1205214Y0246710D02*
X1248679Y0246710D01*
X1248679Y0247496D02*
X1205214Y0247496D01*
X1205214Y0248282D02*
X1248679Y0248282D01*
X1248679Y0249068D02*
X1205214Y0249068D01*
X1205214Y0249854D02*
X1248679Y0249854D01*
X1248679Y0250640D02*
X1205214Y0250640D01*
X1205214Y0251426D02*
X1248679Y0251426D01*
X1248679Y0252212D02*
X1205214Y0252212D01*
X1205214Y0252997D02*
X1248679Y0252997D01*
X1248679Y0253783D02*
X1205214Y0253783D01*
X1205214Y0254569D02*
X1248679Y0254569D01*
X1248679Y0255355D02*
X1205214Y0255355D01*
X1205214Y0256141D02*
X1248679Y0256141D01*
X1248679Y0256927D02*
X1205214Y0256927D01*
X1205214Y0257713D02*
X1248679Y0257713D01*
X1248679Y0258499D02*
X1205214Y0258499D01*
X1205214Y0259285D02*
X1248679Y0259285D01*
X1248679Y0260071D02*
X1205214Y0260071D01*
X1205214Y0260857D02*
X1248679Y0260857D01*
X1248679Y0261643D02*
X1205214Y0261643D01*
X1205214Y0262428D02*
X1248679Y0262428D01*
X1248679Y0263214D02*
X1205214Y0263214D01*
X1205214Y0264000D02*
X1248679Y0264000D01*
X1248679Y0264786D02*
X1205214Y0264786D01*
X1205214Y0265572D02*
X1248679Y0265572D01*
X1248679Y0266358D02*
X1205214Y0266358D01*
X1205214Y0267144D02*
X1248679Y0267144D01*
X1248679Y0267930D02*
X1205214Y0267930D01*
X1205214Y0268716D02*
X1248679Y0268716D01*
X1248679Y0269502D02*
X1205214Y0269502D01*
X1205723Y0270288D02*
X1248679Y0270288D01*
X1248679Y0271073D02*
X1206441Y0271073D01*
X1206903Y0271579D02*
X1206903Y0271579D01*
X1206969Y0271859D02*
X1248679Y0271859D01*
X1248679Y0272645D02*
X1207155Y0272645D01*
X1207340Y0273431D02*
X1248679Y0273431D01*
X1248679Y0274217D02*
X1207491Y0274217D01*
X1207267Y0275003D02*
X1248679Y0275003D01*
X1248679Y0275789D02*
X1207044Y0275789D01*
X1206821Y0276575D02*
X1248679Y0276575D01*
X1248679Y0277361D02*
X1206118Y0277361D01*
X1205332Y0278147D02*
X1248679Y0278147D01*
X1248679Y0278933D02*
X1203602Y0278933D01*
X1203246Y0279719D02*
X1248679Y0279719D01*
X1248679Y0280504D02*
X1203246Y0280504D01*
X1203246Y0281290D02*
X1248679Y0281290D01*
X1248679Y0282076D02*
X1203246Y0282076D01*
X1203246Y0282862D02*
X1248679Y0282862D01*
X1248679Y0283648D02*
X1203246Y0283648D01*
X1203246Y0284434D02*
X1248679Y0284434D01*
X1248679Y0285220D02*
X1203246Y0285220D01*
X1203246Y0286006D02*
X1248679Y0286006D01*
X1248679Y0286792D02*
X1203246Y0286792D01*
X1204920Y0278558D02*
X1204920Y0278558D01*
X0919781Y0279034D02*
X0918107Y0278558D01*
X0918106Y0278558D01*
X0916239Y0276690D01*
X0915517Y0274150D01*
X0915517Y0274149D01*
X0916124Y0271579D01*
X0917813Y0269731D01*
X0917813Y0174002D01*
X0916581Y0172654D01*
X0874506Y0172654D01*
X0874506Y0260421D01*
X0874506Y0288795D01*
X0919781Y0288795D01*
X0919781Y0279034D01*
X0919425Y0278933D02*
X0874506Y0278933D01*
X0874506Y0279719D02*
X0919781Y0279719D01*
X0919781Y0280504D02*
X0874506Y0280504D01*
X0874506Y0281290D02*
X0919781Y0281290D01*
X0919781Y0282076D02*
X0874506Y0282076D01*
X0874506Y0282862D02*
X0919781Y0282862D01*
X0919781Y0283648D02*
X0874506Y0283648D01*
X0874506Y0284434D02*
X0919781Y0284434D01*
X0919781Y0285220D02*
X0874506Y0285220D01*
X0874506Y0286006D02*
X0919781Y0286006D01*
X0919781Y0286792D02*
X0874506Y0286792D01*
X0874506Y0287578D02*
X0919781Y0287578D01*
X0919781Y0288364D02*
X0874506Y0288364D01*
X0874506Y0278147D02*
X0917695Y0278147D01*
X0916909Y0277361D02*
X0874506Y0277361D01*
X0874506Y0276575D02*
X0916206Y0276575D01*
X0916239Y0276690D02*
X0916239Y0276690D01*
X0915983Y0275789D02*
X0874506Y0275789D01*
X0874506Y0275003D02*
X0915759Y0275003D01*
X0915536Y0274217D02*
X0874506Y0274217D01*
X0874506Y0273431D02*
X0915686Y0273431D01*
X0915872Y0272645D02*
X0874506Y0272645D01*
X0874506Y0271859D02*
X0916058Y0271859D01*
X0916124Y0271579D02*
X0916124Y0271579D01*
X0916586Y0271073D02*
X0874506Y0271073D01*
X0874506Y0270288D02*
X0917304Y0270288D01*
X0917813Y0269502D02*
X0874506Y0269502D01*
X0874506Y0268716D02*
X0917813Y0268716D01*
X0917813Y0267930D02*
X0874506Y0267930D01*
X0874506Y0267144D02*
X0917813Y0267144D01*
X0917813Y0266358D02*
X0874506Y0266358D01*
X0874506Y0265572D02*
X0917813Y0265572D01*
X0917813Y0264786D02*
X0874506Y0264786D01*
X0874506Y0264000D02*
X0917813Y0264000D01*
X0917813Y0263214D02*
X0874506Y0263214D01*
X0874506Y0262428D02*
X0917813Y0262428D01*
X0917813Y0261643D02*
X0874506Y0261643D01*
X0874506Y0260857D02*
X0917813Y0260857D01*
X0917813Y0260071D02*
X0874506Y0260071D01*
X0874506Y0259285D02*
X0917813Y0259285D01*
X0917813Y0258499D02*
X0874506Y0258499D01*
X0874506Y0257713D02*
X0917813Y0257713D01*
X0917813Y0256927D02*
X0874506Y0256927D01*
X0874506Y0256141D02*
X0917813Y0256141D01*
X0917813Y0255355D02*
X0874506Y0255355D01*
X0874506Y0254569D02*
X0917813Y0254569D01*
X0917813Y0253783D02*
X0874506Y0253783D01*
X0874506Y0252997D02*
X0917813Y0252997D01*
X0917813Y0252212D02*
X0874506Y0252212D01*
X0874506Y0251426D02*
X0917813Y0251426D01*
X0917813Y0250640D02*
X0874506Y0250640D01*
X0874506Y0249854D02*
X0917813Y0249854D01*
X0917813Y0249068D02*
X0874506Y0249068D01*
X0874506Y0248282D02*
X0917813Y0248282D01*
X0917813Y0247496D02*
X0874506Y0247496D01*
X0874506Y0246710D02*
X0917813Y0246710D01*
X0917813Y0245924D02*
X0874506Y0245924D01*
X0874506Y0245138D02*
X0917813Y0245138D01*
X0917813Y0244352D02*
X0874506Y0244352D01*
X0874506Y0243567D02*
X0917813Y0243567D01*
X0917813Y0242781D02*
X0874506Y0242781D01*
X0874506Y0241995D02*
X0917813Y0241995D01*
X0917813Y0241209D02*
X0874506Y0241209D01*
X0874506Y0240423D02*
X0917813Y0240423D01*
X0917813Y0239637D02*
X0874506Y0239637D01*
X0874506Y0238851D02*
X0917813Y0238851D01*
X0917813Y0238065D02*
X0874506Y0238065D01*
X0874506Y0237279D02*
X0917813Y0237279D01*
X0917813Y0236493D02*
X0874506Y0236493D01*
X0874506Y0235707D02*
X0917813Y0235707D01*
X0917813Y0234921D02*
X0874506Y0234921D01*
X0874506Y0234136D02*
X0917813Y0234136D01*
X0917813Y0233350D02*
X0874506Y0233350D01*
X0874506Y0232564D02*
X0917813Y0232564D01*
X0917813Y0231778D02*
X0874506Y0231778D01*
X0874506Y0230992D02*
X0917813Y0230992D01*
X0917813Y0230206D02*
X0874506Y0230206D01*
X0874506Y0229420D02*
X0917813Y0229420D01*
X0917813Y0228634D02*
X0874506Y0228634D01*
X0874506Y0227848D02*
X0917813Y0227848D01*
X0917813Y0227062D02*
X0874506Y0227062D01*
X0874506Y0226276D02*
X0917813Y0226276D01*
X0917813Y0225491D02*
X0874506Y0225491D01*
X0874506Y0224705D02*
X0917813Y0224705D01*
X0917813Y0223919D02*
X0874506Y0223919D01*
X0874506Y0223133D02*
X0917813Y0223133D01*
X0917813Y0222347D02*
X0874506Y0222347D01*
X0874506Y0221561D02*
X0917813Y0221561D01*
X0917813Y0220775D02*
X0874506Y0220775D01*
X0874506Y0219989D02*
X0917813Y0219989D01*
X0917813Y0219203D02*
X0874506Y0219203D01*
X0874506Y0218417D02*
X0917813Y0218417D01*
X0917813Y0217631D02*
X0874506Y0217631D01*
X0874506Y0216845D02*
X0917813Y0216845D01*
X0917813Y0216060D02*
X0874506Y0216060D01*
X0874506Y0215274D02*
X0917813Y0215274D01*
X0917813Y0214488D02*
X0874506Y0214488D01*
X0874506Y0213702D02*
X0917813Y0213702D01*
X0917813Y0212916D02*
X0874506Y0212916D01*
X0874506Y0212130D02*
X0917813Y0212130D01*
X0917813Y0211344D02*
X0874506Y0211344D01*
X0874506Y0210558D02*
X0917813Y0210558D01*
X0917813Y0209772D02*
X0874506Y0209772D01*
X0874506Y0208986D02*
X0917813Y0208986D01*
X0917813Y0208200D02*
X0874506Y0208200D01*
X0874506Y0207415D02*
X0917813Y0207415D01*
X0917813Y0206629D02*
X0874506Y0206629D01*
X0874506Y0205843D02*
X0917813Y0205843D01*
X0917813Y0205057D02*
X0874506Y0205057D01*
X0874506Y0204271D02*
X0917813Y0204271D01*
X0917813Y0203485D02*
X0874506Y0203485D01*
X0874506Y0202699D02*
X0917813Y0202699D01*
X0917813Y0201913D02*
X0874506Y0201913D01*
X0874506Y0201127D02*
X0917813Y0201127D01*
X0917813Y0200341D02*
X0874506Y0200341D01*
X0874506Y0199555D02*
X0917813Y0199555D01*
X0917813Y0198769D02*
X0874506Y0198769D01*
X0874506Y0197984D02*
X0917813Y0197984D01*
X0917813Y0197198D02*
X0874506Y0197198D01*
X0874506Y0196412D02*
X0917813Y0196412D01*
X0917813Y0195626D02*
X0874506Y0195626D01*
X0874506Y0194840D02*
X0917813Y0194840D01*
X0917813Y0194054D02*
X0874506Y0194054D01*
X0874506Y0193268D02*
X0917813Y0193268D01*
X0917813Y0192482D02*
X0874506Y0192482D01*
X0874506Y0191696D02*
X0917813Y0191696D01*
X0917813Y0190910D02*
X0874506Y0190910D01*
X0874506Y0190124D02*
X0917813Y0190124D01*
X0917813Y0189339D02*
X0874506Y0189339D01*
X0874506Y0188553D02*
X0917813Y0188553D01*
X0917813Y0187767D02*
X0874506Y0187767D01*
X0874506Y0186981D02*
X0917813Y0186981D01*
X0917813Y0186195D02*
X0874506Y0186195D01*
X0874506Y0185409D02*
X0917813Y0185409D01*
X0917813Y0184623D02*
X0874506Y0184623D01*
X0874506Y0183837D02*
X0917813Y0183837D01*
X0917813Y0183051D02*
X0874506Y0183051D01*
X0874506Y0182265D02*
X0917813Y0182265D01*
X0917813Y0181479D02*
X0874506Y0181479D01*
X0874506Y0180693D02*
X0917813Y0180693D01*
X0917813Y0179908D02*
X0874506Y0179908D01*
X0874506Y0179122D02*
X0917813Y0179122D01*
X0917813Y0178336D02*
X0874506Y0178336D01*
X0874506Y0177550D02*
X0917813Y0177550D01*
X0917813Y0176764D02*
X0874506Y0176764D01*
X0874506Y0175978D02*
X0917813Y0175978D01*
X0917813Y0175192D02*
X0874506Y0175192D01*
X0874506Y0174406D02*
X0917813Y0174406D01*
X0917464Y0173620D02*
X0874506Y0173620D01*
X0874506Y0172834D02*
X0916746Y0172834D01*
X0916533Y0166748D02*
X0918106Y0165174D01*
X0918107Y0165174D01*
X0920647Y0164452D01*
X0920647Y0164452D01*
X0923218Y0165059D01*
X0923218Y0165059D01*
X0925066Y0166748D01*
X0984742Y0166748D01*
X0984742Y0062417D01*
X0874506Y0062417D01*
X0874506Y0166748D01*
X0916533Y0166748D01*
X0916734Y0166547D02*
X0874506Y0166547D01*
X0874506Y0165761D02*
X0917519Y0165761D01*
X0918807Y0164975D02*
X0874506Y0164975D01*
X0874506Y0164189D02*
X0984742Y0164189D01*
X0984742Y0163403D02*
X0874506Y0163403D01*
X0874506Y0162617D02*
X0984742Y0162617D01*
X0984742Y0161832D02*
X0874506Y0161832D01*
X0874506Y0161046D02*
X0984742Y0161046D01*
X0984742Y0160260D02*
X0874506Y0160260D01*
X0874506Y0159474D02*
X0984742Y0159474D01*
X0984742Y0158688D02*
X0874506Y0158688D01*
X0874506Y0157902D02*
X0984742Y0157902D01*
X0984742Y0157116D02*
X0874506Y0157116D01*
X0874506Y0156330D02*
X0984742Y0156330D01*
X0984742Y0155544D02*
X0874506Y0155544D01*
X0874506Y0154758D02*
X0984742Y0154758D01*
X0984742Y0153972D02*
X0874506Y0153972D01*
X0874506Y0153187D02*
X0984742Y0153187D01*
X0984742Y0152401D02*
X0874506Y0152401D01*
X0874506Y0151615D02*
X0984742Y0151615D01*
X0984742Y0150829D02*
X0874506Y0150829D01*
X0874506Y0150043D02*
X0984742Y0150043D01*
X0984742Y0149257D02*
X0874506Y0149257D01*
X0874506Y0148471D02*
X0984742Y0148471D01*
X0984742Y0147685D02*
X0874506Y0147685D01*
X0874506Y0146899D02*
X0984742Y0146899D01*
X0984742Y0146113D02*
X0874506Y0146113D01*
X0874506Y0145327D02*
X0984742Y0145327D01*
X0984742Y0144541D02*
X0874506Y0144541D01*
X0874506Y0143756D02*
X0984742Y0143756D01*
X0984742Y0142970D02*
X0874506Y0142970D01*
X0874506Y0142184D02*
X0984742Y0142184D01*
X0984742Y0141398D02*
X0874506Y0141398D01*
X0874506Y0140612D02*
X0984742Y0140612D01*
X0984742Y0139826D02*
X0874506Y0139826D01*
X0874506Y0139040D02*
X0984742Y0139040D01*
X0984742Y0138254D02*
X0874506Y0138254D01*
X0874506Y0137468D02*
X0984742Y0137468D01*
X0984742Y0136682D02*
X0874506Y0136682D01*
X0874506Y0135896D02*
X0984742Y0135896D01*
X0984742Y0135111D02*
X0874506Y0135111D01*
X0874506Y0134325D02*
X0984742Y0134325D01*
X0984742Y0133539D02*
X0874506Y0133539D01*
X0874506Y0132753D02*
X0984742Y0132753D01*
X0984742Y0131967D02*
X0874506Y0131967D01*
X0874506Y0131181D02*
X0984742Y0131181D01*
X0984742Y0130395D02*
X0874506Y0130395D01*
X0874506Y0129609D02*
X0984742Y0129609D01*
X0984742Y0128823D02*
X0874506Y0128823D01*
X0874506Y0128037D02*
X0984742Y0128037D01*
X0984742Y0127251D02*
X0874506Y0127251D01*
X0874506Y0126466D02*
X0984742Y0126466D01*
X0984742Y0125680D02*
X0874506Y0125680D01*
X0874506Y0124894D02*
X0984742Y0124894D01*
X0984742Y0124108D02*
X0874506Y0124108D01*
X0874506Y0123322D02*
X0984742Y0123322D01*
X0984742Y0122536D02*
X0874506Y0122536D01*
X0874506Y0121750D02*
X0984742Y0121750D01*
X0984742Y0120964D02*
X0874506Y0120964D01*
X0874506Y0120178D02*
X0984742Y0120178D01*
X0984742Y0119392D02*
X0874506Y0119392D01*
X0874506Y0118606D02*
X0984742Y0118606D01*
X0984742Y0117820D02*
X0874506Y0117820D01*
X0874506Y0117035D02*
X0984742Y0117035D01*
X0984742Y0116249D02*
X0874506Y0116249D01*
X0874506Y0115463D02*
X0984742Y0115463D01*
X0984742Y0114677D02*
X0874506Y0114677D01*
X0874506Y0113891D02*
X0984742Y0113891D01*
X0984742Y0113105D02*
X0874506Y0113105D01*
X0874506Y0112319D02*
X0984742Y0112319D01*
X0984742Y0111533D02*
X0874506Y0111533D01*
X0874506Y0110747D02*
X0984742Y0110747D01*
X0984742Y0109961D02*
X0874506Y0109961D01*
X0874506Y0109175D02*
X0984742Y0109175D01*
X0984742Y0108390D02*
X0874506Y0108390D01*
X0874506Y0107604D02*
X0984742Y0107604D01*
X0984742Y0106818D02*
X0874506Y0106818D01*
X0874506Y0106032D02*
X0984742Y0106032D01*
X0984742Y0105246D02*
X0874506Y0105246D01*
X0874506Y0104460D02*
X0984742Y0104460D01*
X0984742Y0103674D02*
X0874506Y0103674D01*
X0874506Y0102888D02*
X0984742Y0102888D01*
X0984742Y0102102D02*
X0874506Y0102102D01*
X0874506Y0101316D02*
X0984742Y0101316D01*
X0984742Y0100530D02*
X0874506Y0100530D01*
X0874506Y0099744D02*
X0984742Y0099744D01*
X0984742Y0098959D02*
X0874506Y0098959D01*
X0874506Y0098173D02*
X0984742Y0098173D01*
X0984742Y0097387D02*
X0874506Y0097387D01*
X0874506Y0096601D02*
X0984742Y0096601D01*
X0984742Y0095815D02*
X0874506Y0095815D01*
X0874506Y0095029D02*
X0984742Y0095029D01*
X0984742Y0094243D02*
X0874506Y0094243D01*
X0874506Y0093457D02*
X0984742Y0093457D01*
X0984742Y0092671D02*
X0874506Y0092671D01*
X0874506Y0091885D02*
X0984742Y0091885D01*
X0984742Y0091099D02*
X0874506Y0091099D01*
X0874506Y0090314D02*
X0984742Y0090314D01*
X0984742Y0089528D02*
X0874506Y0089528D01*
X0874506Y0088742D02*
X0984742Y0088742D01*
X0984742Y0087956D02*
X0874506Y0087956D01*
X0874506Y0087170D02*
X0984742Y0087170D01*
X0984742Y0086384D02*
X0874506Y0086384D01*
X0874506Y0085598D02*
X0984742Y0085598D01*
X0984742Y0084812D02*
X0874506Y0084812D01*
X0874506Y0084026D02*
X0984742Y0084026D01*
X0984742Y0083240D02*
X0890273Y0083240D01*
X0889694Y0083480D02*
X0886561Y0083480D01*
X0883667Y0082282D01*
X0881452Y0080067D01*
X0880254Y0077173D01*
X0880254Y0074040D01*
X0881452Y0071146D01*
X0883667Y0068931D01*
X0886561Y0067732D01*
X0889694Y0067732D01*
X0892588Y0068931D01*
X0894803Y0071146D01*
X0896002Y0074040D01*
X0896002Y0077173D01*
X0894803Y0080067D01*
X0892588Y0082282D01*
X0889694Y0083480D01*
X0892171Y0082454D02*
X0984742Y0082454D01*
X0984742Y0081668D02*
X0893201Y0081668D01*
X0893987Y0080883D02*
X0984742Y0080883D01*
X0984742Y0080097D02*
X0894773Y0080097D01*
X0895116Y0079311D02*
X0984742Y0079311D01*
X0984742Y0078525D02*
X0895441Y0078525D01*
X0895767Y0077739D02*
X0984742Y0077739D01*
X0984742Y0076953D02*
X0896002Y0076953D01*
X0896002Y0076167D02*
X0984742Y0076167D01*
X0984742Y0075381D02*
X0896002Y0075381D01*
X0896002Y0074595D02*
X0984742Y0074595D01*
X0984742Y0073809D02*
X0895906Y0073809D01*
X0895581Y0073023D02*
X0984742Y0073023D01*
X0984742Y0072238D02*
X0895255Y0072238D01*
X0894929Y0071452D02*
X0984742Y0071452D01*
X0984742Y0070666D02*
X0894323Y0070666D01*
X0893537Y0069880D02*
X0984742Y0069880D01*
X0984742Y0069094D02*
X0892751Y0069094D01*
X0891084Y0068308D02*
X0984742Y0068308D01*
X0984742Y0067522D02*
X0874506Y0067522D01*
X0874506Y0066736D02*
X0984742Y0066736D01*
X0984742Y0065950D02*
X0874506Y0065950D01*
X0874506Y0065164D02*
X0984742Y0065164D01*
X0984742Y0064378D02*
X0874506Y0064378D01*
X0874506Y0063592D02*
X0984742Y0063592D01*
X0984742Y0062807D02*
X0874506Y0062807D01*
X0874506Y0068308D02*
X0885172Y0068308D01*
X0883505Y0069094D02*
X0874506Y0069094D01*
X0874506Y0069880D02*
X0882719Y0069880D01*
X0881933Y0070666D02*
X0874506Y0070666D01*
X0874506Y0071452D02*
X0881326Y0071452D01*
X0881000Y0072238D02*
X0874506Y0072238D01*
X0874506Y0073023D02*
X0880675Y0073023D01*
X0880349Y0073809D02*
X0874506Y0073809D01*
X0874506Y0074595D02*
X0880254Y0074595D01*
X0880254Y0075381D02*
X0874506Y0075381D01*
X0874506Y0076167D02*
X0880254Y0076167D01*
X0880254Y0076953D02*
X0874506Y0076953D01*
X0874506Y0077739D02*
X0880488Y0077739D01*
X0880814Y0078525D02*
X0874506Y0078525D01*
X0874506Y0079311D02*
X0881139Y0079311D01*
X0881482Y0080097D02*
X0874506Y0080097D01*
X0874506Y0080883D02*
X0882268Y0080883D01*
X0883054Y0081668D02*
X0874506Y0081668D01*
X0874506Y0082454D02*
X0884085Y0082454D01*
X0885982Y0083240D02*
X0874506Y0083240D01*
X0762301Y0078165D02*
X0755608Y0071472D01*
X0710726Y0071472D01*
X0705377Y0076821D01*
X0705377Y0080134D01*
X0705377Y0089976D01*
X0712925Y0089976D02*
X0712925Y0080134D01*
X0713088Y0079971D01*
X0713088Y0076984D01*
X0715844Y0074228D01*
X0738679Y0074228D01*
X0742616Y0078165D01*
X0721125Y0089976D02*
X0721125Y0099819D01*
X0716007Y0104937D01*
X0654230Y0104937D01*
X0645844Y0113323D01*
X0653600Y0115567D02*
X0690411Y0115567D01*
X0694348Y0119504D01*
X0692825Y0123047D02*
X0683954Y0123047D01*
X0683954Y0129740D01*
X0690254Y0129740D01*
X0690254Y0139583D01*
X0696159Y0139583D01*
X0696159Y0123047D01*
X0695871Y0123047D01*
X0695842Y0123076D01*
X0692854Y0123076D01*
X0692825Y0123047D01*
X0696159Y0123322D02*
X0683954Y0123322D01*
X0683954Y0124108D02*
X0696159Y0124108D01*
X0696159Y0124894D02*
X0683954Y0124894D01*
X0683954Y0125680D02*
X0696159Y0125680D01*
X0696159Y0126466D02*
X0683954Y0126466D01*
X0683954Y0127251D02*
X0696159Y0127251D01*
X0696159Y0128037D02*
X0683954Y0128037D01*
X0683954Y0128823D02*
X0696159Y0128823D01*
X0696159Y0129609D02*
X0683954Y0129609D01*
X0682858Y0131630D02*
X0675456Y0124228D01*
X0675456Y0126034D01*
X0672537Y0128953D01*
X0660214Y0128953D01*
X0645844Y0143323D01*
X0645844Y0153323D02*
X0660765Y0138402D01*
X0671356Y0138402D01*
X0675456Y0134302D01*
X0675456Y0133677D01*
X0675535Y0133598D01*
X0687242Y0133598D01*
X0687242Y0131630D02*
X0682858Y0131630D01*
X0682689Y0135567D02*
X0675293Y0142963D01*
X0690254Y0139040D02*
X0696159Y0139040D01*
X0696159Y0138254D02*
X0690254Y0138254D01*
X0690254Y0137468D02*
X0696159Y0137468D01*
X0696159Y0136682D02*
X0690254Y0136682D01*
X0690254Y0135896D02*
X0696159Y0135896D01*
X0696159Y0135111D02*
X0690254Y0135111D01*
X0690254Y0134325D02*
X0696159Y0134325D01*
X0696159Y0133539D02*
X0690254Y0133539D01*
X0690254Y0132753D02*
X0696159Y0132753D01*
X0696159Y0131967D02*
X0690254Y0131967D01*
X0690254Y0131181D02*
X0696159Y0131181D01*
X0696159Y0130395D02*
X0690254Y0130395D01*
X0687242Y0135567D02*
X0682689Y0135567D01*
X0698856Y0135567D02*
X0698856Y0140707D01*
X0694075Y0145488D01*
X0694075Y0146391D01*
X0693797Y0146113D01*
X0693797Y0145488D01*
X0694075Y0145488D01*
X0693797Y0145488D02*
X0691435Y0145488D01*
X0678443Y0158480D01*
X0631002Y0158480D01*
X0625844Y0153323D01*
X0625844Y0163323D02*
X0630844Y0168323D01*
X0705443Y0168323D01*
X0730151Y0193031D01*
X0740151Y0193031D02*
X0710324Y0163205D01*
X0645962Y0163205D01*
X0645844Y0163323D01*
X0645844Y0173323D02*
X0645846Y0173365D01*
X0645851Y0173407D01*
X0645860Y0173449D01*
X0645872Y0173489D01*
X0645887Y0173529D01*
X0645906Y0173567D01*
X0645927Y0173603D01*
X0645952Y0173637D01*
X0645979Y0173670D01*
X0646009Y0173700D01*
X0646042Y0173727D01*
X0646076Y0173752D01*
X0646112Y0173773D01*
X0646150Y0173792D01*
X0646190Y0173807D01*
X0646230Y0173819D01*
X0646272Y0173828D01*
X0646314Y0173833D01*
X0646356Y0173835D01*
X0693010Y0173835D01*
X0705608Y0186433D01*
X0705608Y0200769D01*
X0705167Y0201210D01*
X0705167Y0202853D01*
X0705506Y0203192D01*
X0705506Y0206157D01*
X0703537Y0206157D02*
X0703537Y0204047D01*
X0694978Y0195488D01*
X0694978Y0188402D01*
X0689899Y0183323D01*
X0645844Y0183323D01*
X0641828Y0188008D02*
X0632380Y0178559D01*
X0621080Y0178559D01*
X0615844Y0173323D01*
X0625844Y0173323D02*
X0636471Y0173323D01*
X0641708Y0178559D01*
X0691435Y0178559D01*
X0700151Y0187276D01*
X0700151Y0193031D01*
X0697026Y0204906D02*
X0693901Y0204906D01*
X0693901Y0208152D01*
X0696169Y0208152D01*
X0696751Y0208734D01*
X0696751Y0212738D01*
X0699894Y0212738D01*
X0700188Y0213031D01*
X0702026Y0213031D01*
X0702026Y0212406D01*
X0699526Y0212406D01*
X0699310Y0212191D01*
X0699248Y0212191D01*
X0698606Y0211548D01*
X0698606Y0209822D01*
X0698727Y0209701D01*
X0698606Y0209580D01*
X0698606Y0207853D01*
X0698901Y0207558D01*
X0698901Y0206781D01*
X0697026Y0204906D01*
X0697177Y0205057D02*
X0693901Y0205057D01*
X0693901Y0205843D02*
X0697962Y0205843D01*
X0698748Y0206629D02*
X0693901Y0206629D01*
X0693901Y0207415D02*
X0698901Y0207415D01*
X0698606Y0208200D02*
X0696218Y0208200D01*
X0696751Y0208986D02*
X0698606Y0208986D01*
X0698656Y0209772D02*
X0696751Y0209772D01*
X0696751Y0210558D02*
X0698606Y0210558D01*
X0698606Y0211344D02*
X0696751Y0211344D01*
X0696751Y0212130D02*
X0699188Y0212130D01*
X0700072Y0212916D02*
X0702026Y0212916D01*
X0701811Y0216372D02*
X0698992Y0216372D01*
X0698945Y0216325D01*
X0695141Y0216325D01*
X0694955Y0216139D01*
X0691546Y0216139D01*
X0691050Y0215644D01*
X0690789Y0215639D01*
X0690789Y0216106D01*
X0689976Y0216919D01*
X0689890Y0217004D01*
X0689890Y0218893D01*
X0689921Y0218863D01*
X0695842Y0218863D01*
X0697783Y0216922D01*
X0698933Y0216922D01*
X0699011Y0216922D01*
X0699171Y0216762D01*
X0701811Y0216762D01*
X0701811Y0216372D01*
X0701811Y0218309D02*
X0698358Y0218309D01*
X0696417Y0220250D01*
X0690496Y0220250D01*
X0690496Y0223711D01*
X0694909Y0223711D01*
X0698606Y0220019D01*
X0698606Y0219664D01*
X0699248Y0219022D01*
X0699605Y0219022D01*
X0699842Y0218785D01*
X0701811Y0218785D01*
X0701811Y0218309D01*
X0701811Y0218417D02*
X0698250Y0218417D01*
X0697464Y0219203D02*
X0699067Y0219203D01*
X0698606Y0219989D02*
X0696678Y0219989D01*
X0697849Y0220775D02*
X0690496Y0220775D01*
X0690496Y0221561D02*
X0697062Y0221561D01*
X0696275Y0222347D02*
X0690496Y0222347D01*
X0690496Y0223133D02*
X0695488Y0223133D01*
X0696569Y0226906D02*
X0700978Y0222496D01*
X0701460Y0225055D02*
X0703537Y0225055D01*
X0701460Y0225055D02*
X0697734Y0228781D01*
X0675270Y0228781D01*
X0657528Y0211039D01*
X0641238Y0211039D01*
X0634604Y0204406D01*
X0634604Y0192083D01*
X0625844Y0183323D01*
X0641828Y0188008D02*
X0665128Y0188008D01*
X0670151Y0193031D01*
X0670151Y0210055D01*
X0670151Y0212787D01*
X0674295Y0216931D01*
X0682501Y0216931D01*
X0684485Y0216845D02*
X0688087Y0216845D01*
X0688055Y0216878D02*
X0689401Y0215531D01*
X0689401Y0207781D01*
X0681901Y0207781D01*
X0681901Y0214947D01*
X0683323Y0214947D01*
X0684485Y0216110D01*
X0684485Y0217753D01*
X0683323Y0218916D01*
X0681901Y0218916D01*
X0681901Y0220281D01*
X0688055Y0220325D01*
X0688055Y0216878D01*
X0688055Y0217631D02*
X0684485Y0217631D01*
X0683822Y0218417D02*
X0688055Y0218417D01*
X0688055Y0219203D02*
X0681901Y0219203D01*
X0681901Y0219989D02*
X0688055Y0219989D01*
X0686663Y0221551D02*
X0685529Y0221551D01*
X0685529Y0220685D01*
X0685529Y0221551D02*
X0685529Y0223246D01*
X0686846Y0224563D01*
X0679545Y0226906D02*
X0696569Y0226906D01*
X0712169Y0230134D02*
X0712845Y0229065D01*
X0712845Y0229010D01*
X0713380Y0228475D01*
X0713380Y0224071D01*
X0715348Y0225055D02*
X0715348Y0229113D01*
X0716369Y0230134D01*
X0714513Y0231990D01*
X0714513Y0232045D01*
X0712169Y0234389D01*
X0712169Y0234858D01*
X0709261Y0237766D01*
X0708474Y0237766D01*
X0707576Y0237766D01*
X0666873Y0237766D01*
X0661907Y0242732D01*
X0661907Y0245488D01*
X0658758Y0242732D02*
X0665316Y0236174D01*
X0680411Y0236174D01*
X0701559Y0236174D01*
X0701552Y0234189D02*
X0682859Y0234189D01*
X0680411Y0236039D02*
X0680411Y0236174D01*
X0674702Y0232284D02*
X0668206Y0232284D01*
X0653852Y0217929D01*
X0618063Y0217929D01*
X0614663Y0214529D01*
X0614663Y0194504D01*
X0614665Y0194438D01*
X0614670Y0194372D01*
X0614680Y0194306D01*
X0614693Y0194241D01*
X0614709Y0194177D01*
X0614729Y0194114D01*
X0614753Y0194052D01*
X0614780Y0193992D01*
X0614810Y0193933D01*
X0614844Y0193876D01*
X0614881Y0193821D01*
X0614921Y0193768D01*
X0614963Y0193717D01*
X0615009Y0193669D01*
X0615057Y0193623D01*
X0615108Y0193581D01*
X0615161Y0193541D01*
X0615216Y0193504D01*
X0615273Y0193470D01*
X0615332Y0193440D01*
X0615392Y0193413D01*
X0615454Y0193389D01*
X0615517Y0193369D01*
X0615581Y0193353D01*
X0615646Y0193340D01*
X0615712Y0193330D01*
X0615778Y0193325D01*
X0615844Y0193323D01*
X0625844Y0193323D02*
X0625944Y0193325D01*
X0626043Y0193331D01*
X0626142Y0193340D01*
X0626241Y0193353D01*
X0626339Y0193371D01*
X0626436Y0193391D01*
X0626532Y0193416D01*
X0626628Y0193444D01*
X0626722Y0193476D01*
X0626815Y0193511D01*
X0626907Y0193550D01*
X0626997Y0193593D01*
X0627085Y0193639D01*
X0627172Y0193688D01*
X0627256Y0193740D01*
X0627339Y0193796D01*
X0627419Y0193855D01*
X0627497Y0193917D01*
X0627573Y0193981D01*
X0627646Y0194049D01*
X0627716Y0194119D01*
X0627784Y0194192D01*
X0627848Y0194268D01*
X0627910Y0194346D01*
X0627969Y0194426D01*
X0628025Y0194509D01*
X0628077Y0194593D01*
X0628126Y0194680D01*
X0628172Y0194768D01*
X0628215Y0194858D01*
X0628254Y0194950D01*
X0628289Y0195043D01*
X0628321Y0195137D01*
X0628349Y0195233D01*
X0628374Y0195329D01*
X0628394Y0195426D01*
X0628412Y0195524D01*
X0628425Y0195623D01*
X0628434Y0195722D01*
X0628440Y0195821D01*
X0628442Y0195921D01*
X0628443Y0195921D02*
X0628443Y0214529D01*
X0655490Y0214529D01*
X0671750Y0230788D01*
X0679545Y0226906D02*
X0645962Y0193323D01*
X0645844Y0193323D01*
X0670151Y0210055D02*
X0670151Y0212787D01*
X0681901Y0212916D02*
X0689401Y0212916D01*
X0689401Y0213702D02*
X0681901Y0213702D01*
X0681901Y0214488D02*
X0689401Y0214488D01*
X0689401Y0215274D02*
X0683650Y0215274D01*
X0684435Y0216060D02*
X0688873Y0216060D01*
X0690049Y0216845D02*
X0699087Y0216845D01*
X0697073Y0217631D02*
X0689890Y0217631D01*
X0689890Y0218417D02*
X0696288Y0218417D01*
X0691466Y0216060D02*
X0690789Y0216060D01*
X0689401Y0212130D02*
X0681901Y0212130D01*
X0681901Y0211344D02*
X0689401Y0211344D01*
X0689401Y0210558D02*
X0681901Y0210558D01*
X0681901Y0209772D02*
X0689401Y0209772D01*
X0689401Y0208986D02*
X0681901Y0208986D01*
X0681901Y0208200D02*
X0689401Y0208200D01*
X0713380Y0206157D02*
X0713380Y0202303D01*
X0713651Y0202031D01*
X0715348Y0203585D02*
X0715348Y0206157D01*
X0717317Y0206157D02*
X0717317Y0204116D01*
X0719285Y0204398D02*
X0719285Y0206157D01*
X0726058Y0207588D02*
X0726058Y0207727D01*
X0726184Y0207853D01*
X0726184Y0209580D01*
X0726063Y0209701D01*
X0726184Y0209822D01*
X0726184Y0211548D01*
X0726058Y0211675D01*
X0726058Y0212411D01*
X0722980Y0212411D01*
X0722980Y0212888D01*
X0724758Y0212888D01*
X0724908Y0212738D01*
X0728285Y0212738D01*
X0728285Y0209226D01*
X0728635Y0208876D01*
X0728635Y0208693D01*
X0728819Y0208693D01*
X0728868Y0208644D01*
X0733491Y0208644D01*
X0733540Y0208693D01*
X0735771Y0208693D01*
X0735771Y0205014D01*
X0728878Y0205014D01*
X0726058Y0207588D01*
X0726247Y0207415D02*
X0735771Y0207415D01*
X0735771Y0208200D02*
X0726184Y0208200D01*
X0726184Y0208986D02*
X0728525Y0208986D01*
X0728285Y0209772D02*
X0726135Y0209772D01*
X0726184Y0210558D02*
X0728285Y0210558D01*
X0728285Y0211344D02*
X0726184Y0211344D01*
X0726058Y0212130D02*
X0728285Y0212130D01*
X0728592Y0216356D02*
X0722980Y0216356D01*
X0723151Y0216781D01*
X0724401Y0216781D01*
X0724518Y0216904D01*
X0724975Y0216922D01*
X0725523Y0216922D01*
X0725545Y0216943D01*
X0725575Y0216944D01*
X0725948Y0217347D01*
X0726336Y0217734D01*
X0726336Y0217761D01*
X0728246Y0219769D01*
X0734151Y0219769D01*
X0734402Y0220020D01*
X0736510Y0220020D01*
X0736510Y0216977D01*
X0736264Y0216731D01*
X0736264Y0216583D01*
X0733540Y0216583D01*
X0733491Y0216631D01*
X0728868Y0216631D01*
X0728819Y0216583D01*
X0728635Y0216583D01*
X0728642Y0216406D01*
X0728592Y0216356D01*
X0726960Y0218417D02*
X0736510Y0218417D01*
X0736510Y0217631D02*
X0726233Y0217631D01*
X0725198Y0218579D02*
X0724948Y0218309D01*
X0722980Y0218309D01*
X0722980Y0220691D01*
X0725311Y0220691D01*
X0726401Y0221781D01*
X0726401Y0224293D01*
X0729748Y0227640D01*
X0732041Y0227640D01*
X0732433Y0228031D01*
X0733276Y0228031D01*
X0734526Y0229281D01*
X0735776Y0229281D01*
X0742700Y0229050D01*
X0742700Y0225925D01*
X0733576Y0225856D01*
X0733576Y0221156D01*
X0727651Y0221156D01*
X0725198Y0218579D01*
X0725049Y0218417D02*
X0722980Y0218417D01*
X0722980Y0219203D02*
X0725793Y0219203D01*
X0726541Y0219989D02*
X0722980Y0219989D01*
X0725395Y0220775D02*
X0727288Y0220775D01*
X0726181Y0221561D02*
X0733576Y0221561D01*
X0733576Y0222347D02*
X0726401Y0222347D01*
X0726401Y0223133D02*
X0733576Y0223133D01*
X0733576Y0223919D02*
X0726401Y0223919D01*
X0726812Y0224705D02*
X0733576Y0224705D01*
X0733576Y0225491D02*
X0727598Y0225491D01*
X0728384Y0226276D02*
X0742700Y0226276D01*
X0742700Y0227062D02*
X0729170Y0227062D01*
X0732249Y0227848D02*
X0742700Y0227848D01*
X0742700Y0228634D02*
X0733879Y0228634D01*
X0730280Y0230134D02*
X0723813Y0223667D01*
X0723813Y0222496D01*
X0721254Y0225055D02*
X0725424Y0229226D01*
X0725424Y0230134D01*
X0729370Y0230500D02*
X0730280Y0230134D01*
X0725424Y0234858D02*
X0725120Y0235031D01*
X0721224Y0234858D02*
X0718600Y0234858D01*
X0718713Y0234745D01*
X0718713Y0228222D01*
X0717317Y0226826D01*
X0717317Y0225055D01*
X0719285Y0225055D02*
X0719387Y0225157D01*
X0719387Y0226935D01*
X0721224Y0228772D01*
X0721224Y0230134D01*
X0718600Y0234858D02*
X0716369Y0234858D01*
X0749506Y0234921D02*
X0776080Y0234921D01*
X0776080Y0234136D02*
X0749506Y0234136D01*
X0749506Y0233350D02*
X0776080Y0233350D01*
X0776080Y0232564D02*
X0749506Y0232564D01*
X0749506Y0231778D02*
X0776080Y0231778D01*
X0776080Y0230992D02*
X0749506Y0230992D01*
X0749506Y0230206D02*
X0776080Y0230206D01*
X0776080Y0229420D02*
X0749506Y0229420D01*
X0749506Y0228634D02*
X0776080Y0228634D01*
X0776080Y0227848D02*
X0749506Y0227848D01*
X0749506Y0227062D02*
X0776080Y0227062D01*
X0776080Y0226276D02*
X0749506Y0226276D01*
X0749506Y0225491D02*
X0776080Y0225491D01*
X0776080Y0224705D02*
X0749506Y0224705D01*
X0749506Y0223919D02*
X0776080Y0223919D01*
X0776080Y0223133D02*
X0749506Y0223133D01*
X0749506Y0222347D02*
X0776080Y0222347D01*
X0776080Y0221561D02*
X0749506Y0221561D01*
X0749506Y0220775D02*
X0776080Y0220775D01*
X0776080Y0219989D02*
X0749506Y0219989D01*
X0749506Y0219203D02*
X0776080Y0219203D01*
X0776080Y0218417D02*
X0749506Y0218417D01*
X0749506Y0217631D02*
X0776080Y0217631D01*
X0776080Y0216845D02*
X0749506Y0216845D01*
X0749506Y0216060D02*
X0776080Y0216060D01*
X0776080Y0215274D02*
X0749506Y0215274D01*
X0749506Y0214488D02*
X0776569Y0214488D01*
X0776080Y0214976D02*
X0786907Y0204150D01*
X0786907Y0185449D01*
X0749506Y0185449D01*
X0749506Y0250409D01*
X0776080Y0250409D01*
X0776080Y0214976D01*
X0777355Y0213702D02*
X0749506Y0213702D01*
X0749506Y0212916D02*
X0778141Y0212916D01*
X0778927Y0212130D02*
X0749506Y0212130D01*
X0749506Y0211344D02*
X0779713Y0211344D01*
X0780499Y0210558D02*
X0749506Y0210558D01*
X0749506Y0209772D02*
X0781284Y0209772D01*
X0782070Y0208986D02*
X0749506Y0208986D01*
X0749506Y0208200D02*
X0782856Y0208200D01*
X0783642Y0207415D02*
X0749506Y0207415D01*
X0749506Y0206629D02*
X0784428Y0206629D01*
X0785214Y0205843D02*
X0749506Y0205843D01*
X0749506Y0205057D02*
X0786000Y0205057D01*
X0786786Y0204271D02*
X0749506Y0204271D01*
X0749506Y0203485D02*
X0786907Y0203485D01*
X0786907Y0202699D02*
X0749506Y0202699D01*
X0749506Y0201913D02*
X0786907Y0201913D01*
X0786907Y0201127D02*
X0749506Y0201127D01*
X0749506Y0200341D02*
X0786907Y0200341D01*
X0786907Y0199555D02*
X0749506Y0199555D01*
X0749506Y0198769D02*
X0786907Y0198769D01*
X0786907Y0197984D02*
X0749506Y0197984D01*
X0749506Y0197198D02*
X0786907Y0197198D01*
X0786907Y0196412D02*
X0749506Y0196412D01*
X0749506Y0195626D02*
X0786907Y0195626D01*
X0786907Y0194840D02*
X0749506Y0194840D01*
X0749506Y0194054D02*
X0786907Y0194054D01*
X0786907Y0193268D02*
X0749506Y0193268D01*
X0749506Y0192482D02*
X0786907Y0192482D01*
X0786907Y0191696D02*
X0749506Y0191696D01*
X0749506Y0190910D02*
X0786907Y0190910D01*
X0786907Y0190124D02*
X0749506Y0190124D01*
X0749506Y0189339D02*
X0786907Y0189339D01*
X0786907Y0188553D02*
X0749506Y0188553D01*
X0749506Y0187767D02*
X0786907Y0187767D01*
X0786907Y0186981D02*
X0749506Y0186981D01*
X0749506Y0186195D02*
X0786907Y0186195D01*
X0789860Y0186195D02*
X0870569Y0186195D01*
X0870569Y0186981D02*
X0821699Y0186981D01*
X0822258Y0187539D02*
X0821038Y0186319D01*
X0819312Y0186319D01*
X0818092Y0187539D01*
X0818092Y0189264D01*
X0818197Y0189369D01*
X0818197Y0192159D01*
X0818092Y0192263D01*
X0818092Y0193989D01*
X0818197Y0194093D01*
X0818197Y0195685D01*
X0815049Y0195685D01*
X0815565Y0195170D01*
X0815565Y0193444D01*
X0814573Y0192453D01*
X0815132Y0192453D01*
X0816352Y0191233D01*
X0816352Y0189507D01*
X0815132Y0188287D01*
X0813407Y0188287D01*
X0812187Y0189507D01*
X0812187Y0191233D01*
X0813178Y0192224D01*
X0812619Y0192224D01*
X0811399Y0193444D01*
X0811399Y0195170D01*
X0811915Y0195685D01*
X0809538Y0195685D01*
X0809659Y0195563D01*
X0809659Y0193838D01*
X0808439Y0192618D01*
X0806714Y0192618D01*
X0805494Y0193838D01*
X0805494Y0195563D01*
X0805615Y0195685D01*
X0799301Y0195685D01*
X0799423Y0195563D01*
X0799423Y0193838D01*
X0798203Y0192618D01*
X0796478Y0192618D01*
X0795258Y0193838D01*
X0795258Y0195563D01*
X0795379Y0195685D01*
X0789860Y0195685D01*
X0789860Y0182496D01*
X0757183Y0182496D01*
X0757183Y0160055D01*
X0774506Y0142732D01*
X0870569Y0142732D01*
X0870569Y0195685D01*
X0822153Y0195685D01*
X0822153Y0194093D01*
X0822258Y0193989D01*
X0822258Y0192263D01*
X0822153Y0192159D01*
X0822153Y0189369D01*
X0822258Y0189264D01*
X0822258Y0187539D01*
X0822258Y0187767D02*
X0870569Y0187767D01*
X0870569Y0188553D02*
X0822258Y0188553D01*
X0822183Y0189339D02*
X0870569Y0189339D01*
X0870569Y0190124D02*
X0822153Y0190124D01*
X0822153Y0190910D02*
X0870569Y0190910D01*
X0870569Y0191696D02*
X0822153Y0191696D01*
X0822258Y0192482D02*
X0870569Y0192482D01*
X0870569Y0193268D02*
X0822258Y0193268D01*
X0822192Y0194054D02*
X0870569Y0194054D01*
X0870569Y0194840D02*
X0822153Y0194840D01*
X0822153Y0195626D02*
X0870569Y0195626D01*
X0866632Y0200213D02*
X0831198Y0200213D01*
X0831198Y0208087D01*
X0822258Y0208087D01*
X0822258Y0208556D01*
X0821038Y0209776D01*
X0819312Y0209776D01*
X0818092Y0208556D01*
X0818092Y0208087D01*
X0815057Y0208087D01*
X0815057Y0221866D01*
X0824506Y0221866D01*
X0824506Y0239102D01*
X0824523Y0239059D01*
X0826738Y0236844D01*
X0829632Y0235646D01*
X0832765Y0235646D01*
X0835659Y0236844D01*
X0837874Y0239059D01*
X0839072Y0241953D01*
X0839072Y0245086D01*
X0837874Y0247980D01*
X0835659Y0250195D01*
X0832765Y0251394D01*
X0829632Y0251394D01*
X0826738Y0250195D01*
X0824523Y0247980D01*
X0824506Y0247937D01*
X0824506Y0265173D01*
X0764269Y0265173D01*
X0764269Y0288795D01*
X0825153Y0288795D01*
X0824823Y0288465D01*
X0823324Y0284848D01*
X0823324Y0280932D01*
X0824823Y0277314D01*
X0827592Y0274546D01*
X0831209Y0273047D01*
X0835125Y0273047D01*
X0838742Y0274546D01*
X0841511Y0277314D01*
X0843009Y0280932D01*
X0843009Y0284848D01*
X0841511Y0288465D01*
X0841181Y0288795D01*
X0842194Y0288795D01*
X0866632Y0264358D01*
X0866632Y0200213D01*
X0866632Y0200341D02*
X0831198Y0200341D01*
X0831198Y0201127D02*
X0866632Y0201127D01*
X0866632Y0201913D02*
X0831198Y0201913D01*
X0831198Y0202699D02*
X0866632Y0202699D01*
X0866632Y0203485D02*
X0831198Y0203485D01*
X0831198Y0204271D02*
X0866632Y0204271D01*
X0866632Y0205057D02*
X0831198Y0205057D01*
X0831198Y0205843D02*
X0866632Y0205843D01*
X0866632Y0206629D02*
X0831198Y0206629D01*
X0831198Y0207415D02*
X0866632Y0207415D01*
X0866632Y0208200D02*
X0822258Y0208200D01*
X0821827Y0208986D02*
X0866632Y0208986D01*
X0866632Y0209772D02*
X0821041Y0209772D01*
X0819309Y0209772D02*
X0815057Y0209772D01*
X0815057Y0208986D02*
X0818523Y0208986D01*
X0818092Y0208200D02*
X0815057Y0208200D01*
X0815057Y0210558D02*
X0866632Y0210558D01*
X0866632Y0211344D02*
X0815057Y0211344D01*
X0815057Y0212130D02*
X0866632Y0212130D01*
X0866632Y0212916D02*
X0815057Y0212916D01*
X0815057Y0213702D02*
X0866632Y0213702D01*
X0866632Y0214488D02*
X0815057Y0214488D01*
X0815057Y0215274D02*
X0866632Y0215274D01*
X0866632Y0216060D02*
X0815057Y0216060D01*
X0815057Y0216845D02*
X0866632Y0216845D01*
X0866632Y0217631D02*
X0815057Y0217631D01*
X0815057Y0218417D02*
X0866632Y0218417D01*
X0866632Y0219203D02*
X0815057Y0219203D01*
X0815057Y0219989D02*
X0866632Y0219989D01*
X0866632Y0220775D02*
X0815057Y0220775D01*
X0815057Y0221561D02*
X0866632Y0221561D01*
X0866632Y0222347D02*
X0824506Y0222347D01*
X0824506Y0223133D02*
X0866632Y0223133D01*
X0866632Y0223919D02*
X0824506Y0223919D01*
X0824506Y0224705D02*
X0854956Y0224705D01*
X0855135Y0224526D02*
X0858443Y0224526D01*
X0860783Y0226865D01*
X0860783Y0230174D01*
X0858443Y0232513D01*
X0855135Y0232513D01*
X0852795Y0230174D01*
X0852795Y0226865D01*
X0855135Y0224526D01*
X0854170Y0225491D02*
X0824506Y0225491D01*
X0824506Y0226276D02*
X0853384Y0226276D01*
X0852795Y0227062D02*
X0824506Y0227062D01*
X0824506Y0227848D02*
X0852795Y0227848D01*
X0852795Y0228634D02*
X0824506Y0228634D01*
X0824506Y0229420D02*
X0852795Y0229420D01*
X0852827Y0230206D02*
X0824506Y0230206D01*
X0824506Y0230992D02*
X0853613Y0230992D01*
X0854399Y0231778D02*
X0824506Y0231778D01*
X0824506Y0232564D02*
X0866632Y0232564D01*
X0866632Y0233350D02*
X0824506Y0233350D01*
X0824506Y0234136D02*
X0866632Y0234136D01*
X0866632Y0234921D02*
X0858839Y0234921D01*
X0858443Y0234526D02*
X0860783Y0236865D01*
X0860783Y0240174D01*
X0858443Y0242513D01*
X0855135Y0242513D01*
X0852795Y0240174D01*
X0852795Y0236865D01*
X0855135Y0234526D01*
X0858443Y0234526D01*
X0859625Y0235707D02*
X0866632Y0235707D01*
X0866632Y0236493D02*
X0860411Y0236493D01*
X0860783Y0237279D02*
X0866632Y0237279D01*
X0866632Y0238065D02*
X0860783Y0238065D01*
X0860783Y0238851D02*
X0866632Y0238851D01*
X0866632Y0239637D02*
X0860783Y0239637D01*
X0860534Y0240423D02*
X0866632Y0240423D01*
X0866632Y0241209D02*
X0859748Y0241209D01*
X0858962Y0241995D02*
X0866632Y0241995D01*
X0866632Y0242781D02*
X0839072Y0242781D01*
X0839072Y0243567D02*
X0866632Y0243567D01*
X0866632Y0244352D02*
X0839072Y0244352D01*
X0839051Y0245138D02*
X0854522Y0245138D01*
X0855135Y0244526D02*
X0858443Y0244526D01*
X0860783Y0246865D01*
X0860783Y0250174D01*
X0858443Y0252513D01*
X0855135Y0252513D01*
X0852795Y0250174D01*
X0852795Y0246865D01*
X0855135Y0244526D01*
X0853737Y0245924D02*
X0838725Y0245924D01*
X0838400Y0246710D02*
X0852951Y0246710D01*
X0852795Y0247496D02*
X0838074Y0247496D01*
X0837572Y0248282D02*
X0852795Y0248282D01*
X0852795Y0249068D02*
X0836786Y0249068D01*
X0836000Y0249854D02*
X0852795Y0249854D01*
X0853261Y0250640D02*
X0834585Y0250640D01*
X0827812Y0250640D02*
X0824506Y0250640D01*
X0824506Y0251426D02*
X0854047Y0251426D01*
X0854833Y0252212D02*
X0824506Y0252212D01*
X0824506Y0252997D02*
X0866632Y0252997D01*
X0866632Y0252212D02*
X0858745Y0252212D01*
X0859531Y0251426D02*
X0866632Y0251426D01*
X0866632Y0250640D02*
X0860317Y0250640D01*
X0860783Y0249854D02*
X0866632Y0249854D01*
X0866632Y0249068D02*
X0860783Y0249068D01*
X0860783Y0248282D02*
X0866632Y0248282D01*
X0866632Y0247496D02*
X0860783Y0247496D01*
X0860627Y0246710D02*
X0866632Y0246710D01*
X0866632Y0245924D02*
X0859842Y0245924D01*
X0859056Y0245138D02*
X0866632Y0245138D01*
X0854616Y0241995D02*
X0839072Y0241995D01*
X0838764Y0241209D02*
X0853830Y0241209D01*
X0853044Y0240423D02*
X0838439Y0240423D01*
X0838113Y0239637D02*
X0852795Y0239637D01*
X0852795Y0238851D02*
X0837665Y0238851D01*
X0836879Y0238065D02*
X0852795Y0238065D01*
X0852795Y0237279D02*
X0836094Y0237279D01*
X0834811Y0236493D02*
X0853167Y0236493D01*
X0853953Y0235707D02*
X0832914Y0235707D01*
X0829483Y0235707D02*
X0824506Y0235707D01*
X0824506Y0234921D02*
X0854739Y0234921D01*
X0859179Y0231778D02*
X0866632Y0231778D01*
X0866632Y0230992D02*
X0859965Y0230992D01*
X0860751Y0230206D02*
X0866632Y0230206D01*
X0866632Y0229420D02*
X0860783Y0229420D01*
X0860783Y0228634D02*
X0866632Y0228634D01*
X0866632Y0227848D02*
X0860783Y0227848D01*
X0860783Y0227062D02*
X0866632Y0227062D01*
X0866632Y0226276D02*
X0860194Y0226276D01*
X0859408Y0225491D02*
X0866632Y0225491D01*
X0866632Y0224705D02*
X0858622Y0224705D01*
X0827586Y0236493D02*
X0824506Y0236493D01*
X0824506Y0237279D02*
X0826303Y0237279D01*
X0825517Y0238065D02*
X0824506Y0238065D01*
X0824506Y0238851D02*
X0824732Y0238851D01*
X0811907Y0238851D02*
X0791828Y0238851D01*
X0791828Y0238065D02*
X0811907Y0238065D01*
X0811907Y0237279D02*
X0791828Y0237279D01*
X0791828Y0236493D02*
X0811907Y0236493D01*
X0811907Y0235707D02*
X0791828Y0235707D01*
X0791828Y0234921D02*
X0811907Y0234921D01*
X0811907Y0234136D02*
X0791828Y0234136D01*
X0791828Y0233350D02*
X0811907Y0233350D01*
X0811907Y0232564D02*
X0791828Y0232564D01*
X0791828Y0231778D02*
X0811907Y0231778D01*
X0811907Y0230992D02*
X0791828Y0230992D01*
X0791828Y0230206D02*
X0811907Y0230206D01*
X0811907Y0229420D02*
X0791828Y0229420D01*
X0791828Y0228634D02*
X0811907Y0228634D01*
X0811907Y0227848D02*
X0791828Y0227848D01*
X0791828Y0227062D02*
X0811907Y0227062D01*
X0811907Y0226276D02*
X0791828Y0226276D01*
X0791828Y0225491D02*
X0811907Y0225491D01*
X0811907Y0224705D02*
X0791828Y0224705D01*
X0791828Y0223919D02*
X0811907Y0223919D01*
X0811907Y0223133D02*
X0791828Y0223133D01*
X0791828Y0222347D02*
X0811907Y0222347D01*
X0811907Y0221561D02*
X0791828Y0221561D01*
X0791828Y0220775D02*
X0811907Y0220775D01*
X0811907Y0219989D02*
X0791828Y0219989D01*
X0791828Y0219203D02*
X0811907Y0219203D01*
X0811907Y0218417D02*
X0791828Y0218417D01*
X0791828Y0217631D02*
X0811907Y0217631D01*
X0811907Y0216845D02*
X0791828Y0216845D01*
X0791828Y0216060D02*
X0811907Y0216060D01*
X0811907Y0215274D02*
X0791828Y0215274D01*
X0791828Y0214488D02*
X0811907Y0214488D01*
X0811907Y0213702D02*
X0791828Y0213702D01*
X0791828Y0212916D02*
X0811907Y0212916D01*
X0811907Y0212130D02*
X0791828Y0212130D01*
X0791828Y0211344D02*
X0811907Y0211344D01*
X0811907Y0210558D02*
X0791828Y0210558D01*
X0791828Y0209772D02*
X0811907Y0209772D01*
X0811907Y0208986D02*
X0791828Y0208986D01*
X0791828Y0208200D02*
X0811907Y0208200D01*
X0811907Y0208087D02*
X0806789Y0208087D01*
X0806789Y0199031D01*
X0791828Y0199031D01*
X0791828Y0250213D01*
X0811907Y0250213D01*
X0811907Y0208087D01*
X0806789Y0207415D02*
X0791828Y0207415D01*
X0791828Y0206629D02*
X0806789Y0206629D01*
X0806789Y0205843D02*
X0791828Y0205843D01*
X0791828Y0205057D02*
X0806789Y0205057D01*
X0806789Y0204271D02*
X0791828Y0204271D01*
X0791828Y0203485D02*
X0806789Y0203485D01*
X0806789Y0202699D02*
X0791828Y0202699D01*
X0791828Y0201913D02*
X0806789Y0201913D01*
X0806789Y0201127D02*
X0791828Y0201127D01*
X0791828Y0200341D02*
X0806789Y0200341D01*
X0806789Y0199555D02*
X0791828Y0199555D01*
X0789860Y0195626D02*
X0795320Y0195626D01*
X0795258Y0194840D02*
X0789860Y0194840D01*
X0789860Y0194054D02*
X0795258Y0194054D01*
X0795828Y0193268D02*
X0789860Y0193268D01*
X0789860Y0192482D02*
X0802019Y0192482D01*
X0801557Y0192020D02*
X0801557Y0190295D01*
X0802777Y0189075D01*
X0804502Y0189075D01*
X0805722Y0190295D01*
X0805722Y0192020D01*
X0804502Y0193240D01*
X0802777Y0193240D01*
X0801557Y0192020D01*
X0801557Y0191696D02*
X0789860Y0191696D01*
X0789860Y0190910D02*
X0801557Y0190910D01*
X0801727Y0190124D02*
X0789860Y0190124D01*
X0789860Y0189339D02*
X0802513Y0189339D01*
X0804766Y0189339D02*
X0806355Y0189339D01*
X0806281Y0189264D02*
X0806281Y0187539D01*
X0807501Y0186319D01*
X0809227Y0186319D01*
X0810447Y0187539D01*
X0810447Y0189264D01*
X0809227Y0190484D01*
X0807501Y0190484D01*
X0806281Y0189264D01*
X0806281Y0188553D02*
X0789860Y0188553D01*
X0789860Y0187767D02*
X0806281Y0187767D01*
X0806839Y0186981D02*
X0789860Y0186981D01*
X0789860Y0185409D02*
X0870569Y0185409D01*
X0870569Y0184623D02*
X0789860Y0184623D01*
X0789860Y0183837D02*
X0870569Y0183837D01*
X0870569Y0183051D02*
X0789860Y0183051D01*
X0809888Y0186981D02*
X0818650Y0186981D01*
X0818092Y0187767D02*
X0810447Y0187767D01*
X0810447Y0188553D02*
X0813141Y0188553D01*
X0812356Y0189339D02*
X0810372Y0189339D01*
X0809586Y0190124D02*
X0812187Y0190124D01*
X0812187Y0190910D02*
X0805722Y0190910D01*
X0805722Y0191696D02*
X0812650Y0191696D01*
X0812361Y0192482D02*
X0805260Y0192482D01*
X0806064Y0193268D02*
X0798853Y0193268D01*
X0799423Y0194054D02*
X0805494Y0194054D01*
X0805494Y0194840D02*
X0799423Y0194840D01*
X0799361Y0195626D02*
X0805556Y0195626D01*
X0809597Y0195626D02*
X0811855Y0195626D01*
X0811399Y0194840D02*
X0809659Y0194840D01*
X0809659Y0194054D02*
X0811399Y0194054D01*
X0811576Y0193268D02*
X0809089Y0193268D01*
X0807141Y0190124D02*
X0805552Y0190124D01*
X0814602Y0192482D02*
X0818092Y0192482D01*
X0818092Y0193268D02*
X0815388Y0193268D01*
X0815565Y0194054D02*
X0818158Y0194054D01*
X0818197Y0194840D02*
X0815565Y0194840D01*
X0815109Y0195626D02*
X0818197Y0195626D01*
X0818197Y0191696D02*
X0815888Y0191696D01*
X0816352Y0190910D02*
X0818197Y0190910D01*
X0818197Y0190124D02*
X0816352Y0190124D01*
X0816183Y0189339D02*
X0818166Y0189339D01*
X0818092Y0188553D02*
X0815397Y0188553D01*
X0870569Y0182265D02*
X0757183Y0182265D01*
X0757183Y0181479D02*
X0870569Y0181479D01*
X0870569Y0180693D02*
X0757183Y0180693D01*
X0757183Y0179908D02*
X0870569Y0179908D01*
X0870569Y0179122D02*
X0757183Y0179122D01*
X0757183Y0178336D02*
X0870569Y0178336D01*
X0870569Y0177550D02*
X0757183Y0177550D01*
X0757183Y0176764D02*
X0870569Y0176764D01*
X0870569Y0175978D02*
X0757183Y0175978D01*
X0757183Y0175192D02*
X0870569Y0175192D01*
X0870569Y0174406D02*
X0757183Y0174406D01*
X0757183Y0173620D02*
X0870569Y0173620D01*
X0870569Y0172834D02*
X0757183Y0172834D01*
X0757183Y0172048D02*
X0870569Y0172048D01*
X0870569Y0171263D02*
X0757183Y0171263D01*
X0757183Y0170477D02*
X0830706Y0170477D01*
X0831209Y0170685D02*
X0827592Y0169187D01*
X0824823Y0166418D01*
X0823324Y0162800D01*
X0823324Y0158885D01*
X0824823Y0155267D01*
X0827592Y0152498D01*
X0831209Y0151000D01*
X0835125Y0151000D01*
X0838742Y0152498D01*
X0841511Y0155267D01*
X0843009Y0158885D01*
X0843009Y0162800D01*
X0841511Y0166418D01*
X0838742Y0169187D01*
X0835125Y0170685D01*
X0831209Y0170685D01*
X0828809Y0169691D02*
X0757183Y0169691D01*
X0757183Y0168905D02*
X0827310Y0168905D01*
X0826524Y0168119D02*
X0757183Y0168119D01*
X0757183Y0167333D02*
X0825738Y0167333D01*
X0824952Y0166547D02*
X0757183Y0166547D01*
X0757183Y0165761D02*
X0824551Y0165761D01*
X0824225Y0164975D02*
X0757183Y0164975D01*
X0757183Y0164189D02*
X0823900Y0164189D01*
X0823574Y0163403D02*
X0757183Y0163403D01*
X0757183Y0162617D02*
X0823324Y0162617D01*
X0823324Y0161832D02*
X0757183Y0161832D01*
X0757183Y0161046D02*
X0823324Y0161046D01*
X0823324Y0160260D02*
X0757183Y0160260D01*
X0757764Y0159474D02*
X0823324Y0159474D01*
X0823406Y0158688D02*
X0758550Y0158688D01*
X0759336Y0157902D02*
X0823732Y0157902D01*
X0824057Y0157116D02*
X0760122Y0157116D01*
X0760908Y0156330D02*
X0824383Y0156330D01*
X0824708Y0155544D02*
X0761694Y0155544D01*
X0762479Y0154758D02*
X0825332Y0154758D01*
X0826118Y0153972D02*
X0763265Y0153972D01*
X0764051Y0153187D02*
X0826904Y0153187D01*
X0827828Y0152401D02*
X0764837Y0152401D01*
X0765623Y0151615D02*
X0829725Y0151615D01*
X0836609Y0151615D02*
X0870569Y0151615D01*
X0870569Y0152401D02*
X0838506Y0152401D01*
X0839430Y0153187D02*
X0870569Y0153187D01*
X0870569Y0153972D02*
X0840216Y0153972D01*
X0841002Y0154758D02*
X0870569Y0154758D01*
X0870569Y0155544D02*
X0841626Y0155544D01*
X0841951Y0156330D02*
X0870569Y0156330D01*
X0870569Y0157116D02*
X0842277Y0157116D01*
X0842602Y0157902D02*
X0870569Y0157902D01*
X0870569Y0158688D02*
X0842928Y0158688D01*
X0843009Y0159474D02*
X0870569Y0159474D01*
X0870569Y0160260D02*
X0843009Y0160260D01*
X0843009Y0161046D02*
X0870569Y0161046D01*
X0870569Y0161832D02*
X0843009Y0161832D01*
X0843009Y0162617D02*
X0870569Y0162617D01*
X0870569Y0163403D02*
X0842760Y0163403D01*
X0842434Y0164189D02*
X0870569Y0164189D01*
X0870569Y0164975D02*
X0842109Y0164975D01*
X0841783Y0165761D02*
X0870569Y0165761D01*
X0870569Y0166547D02*
X0841382Y0166547D01*
X0840596Y0167333D02*
X0870569Y0167333D01*
X0870569Y0168119D02*
X0839810Y0168119D01*
X0839024Y0168905D02*
X0870569Y0168905D01*
X0870569Y0169691D02*
X0837525Y0169691D01*
X0835628Y0170477D02*
X0870569Y0170477D01*
X0870569Y0150829D02*
X0766409Y0150829D01*
X0767195Y0150043D02*
X0870569Y0150043D01*
X0870569Y0149257D02*
X0767981Y0149257D01*
X0768767Y0148471D02*
X0870569Y0148471D01*
X0870569Y0147685D02*
X0769553Y0147685D01*
X0770339Y0146899D02*
X0870569Y0146899D01*
X0870569Y0146113D02*
X0771125Y0146113D01*
X0771910Y0145327D02*
X0870569Y0145327D01*
X0870569Y0144541D02*
X0772696Y0144541D01*
X0773482Y0143756D02*
X0870569Y0143756D01*
X0870569Y0142970D02*
X0774268Y0142970D01*
X0760332Y0135252D02*
X0752773Y0127693D01*
X0698856Y0127693D01*
X0698856Y0129661D02*
X0738994Y0129661D01*
X0744584Y0135252D01*
X0736710Y0135252D02*
X0733088Y0131630D01*
X0698856Y0131630D01*
X0700687Y0124819D02*
X0742025Y0124819D01*
X0700687Y0124819D02*
X0698128Y0122260D01*
X0698128Y0115409D01*
X0694348Y0111630D01*
X0688428Y0111630D01*
X0687891Y0112167D01*
X0697177Y0099819D02*
X0649348Y0099819D01*
X0645844Y0103323D01*
X0660569Y0076984D02*
X0677655Y0094071D01*
X0697177Y0089976D02*
X0697177Y0099819D01*
X0653600Y0115567D02*
X0645844Y0123323D01*
X0659545Y0076984D02*
X0660569Y0076984D01*
X0922863Y0164975D02*
X0984742Y0164975D01*
X0984742Y0165761D02*
X0923986Y0165761D01*
X0924846Y0166547D02*
X0984742Y0166547D01*
X0776080Y0235707D02*
X0749506Y0235707D01*
X0749506Y0236493D02*
X0776080Y0236493D01*
X0776080Y0237279D02*
X0749506Y0237279D01*
X0749506Y0238065D02*
X0776080Y0238065D01*
X0776080Y0238851D02*
X0749506Y0238851D01*
X0749506Y0239637D02*
X0776080Y0239637D01*
X0776080Y0240423D02*
X0749506Y0240423D01*
X0749506Y0241209D02*
X0776080Y0241209D01*
X0776080Y0241995D02*
X0749506Y0241995D01*
X0749506Y0242781D02*
X0776080Y0242781D01*
X0776080Y0243567D02*
X0749506Y0243567D01*
X0749506Y0244352D02*
X0776080Y0244352D01*
X0776080Y0245138D02*
X0749506Y0245138D01*
X0749506Y0245924D02*
X0776080Y0245924D01*
X0776080Y0246710D02*
X0749506Y0246710D01*
X0749506Y0247496D02*
X0776080Y0247496D01*
X0776080Y0248282D02*
X0749506Y0248282D01*
X0749506Y0249068D02*
X0776080Y0249068D01*
X0776080Y0249854D02*
X0749506Y0249854D01*
X0764269Y0265572D02*
X0865417Y0265572D01*
X0864631Y0266358D02*
X0764269Y0266358D01*
X0764269Y0267144D02*
X0863845Y0267144D01*
X0863060Y0267930D02*
X0764269Y0267930D01*
X0764269Y0268716D02*
X0862274Y0268716D01*
X0861488Y0269502D02*
X0764269Y0269502D01*
X0764269Y0270288D02*
X0860702Y0270288D01*
X0859916Y0271073D02*
X0764269Y0271073D01*
X0764269Y0271859D02*
X0859130Y0271859D01*
X0858344Y0272645D02*
X0764269Y0272645D01*
X0764269Y0273431D02*
X0830282Y0273431D01*
X0828385Y0274217D02*
X0764269Y0274217D01*
X0764269Y0275003D02*
X0827134Y0275003D01*
X0826348Y0275789D02*
X0764269Y0275789D01*
X0764269Y0276575D02*
X0825562Y0276575D01*
X0824804Y0277361D02*
X0764269Y0277361D01*
X0764269Y0278147D02*
X0824478Y0278147D01*
X0824153Y0278933D02*
X0764269Y0278933D01*
X0764269Y0279719D02*
X0823827Y0279719D01*
X0823502Y0280504D02*
X0764269Y0280504D01*
X0764269Y0281290D02*
X0823324Y0281290D01*
X0823324Y0282076D02*
X0764269Y0282076D01*
X0764269Y0282862D02*
X0823324Y0282862D01*
X0823324Y0283648D02*
X0764269Y0283648D01*
X0764269Y0284434D02*
X0823324Y0284434D01*
X0823479Y0285220D02*
X0764269Y0285220D01*
X0764269Y0286006D02*
X0823804Y0286006D01*
X0824130Y0286792D02*
X0764269Y0286792D01*
X0764269Y0287578D02*
X0824455Y0287578D01*
X0824781Y0288364D02*
X0764269Y0288364D01*
X0824506Y0264786D02*
X0866203Y0264786D01*
X0866632Y0264000D02*
X0824506Y0264000D01*
X0824506Y0263214D02*
X0866632Y0263214D01*
X0866632Y0262428D02*
X0858528Y0262428D01*
X0858443Y0262513D02*
X0855135Y0262513D01*
X0852795Y0260174D01*
X0852795Y0256865D01*
X0855135Y0254526D01*
X0858443Y0254526D01*
X0860783Y0256865D01*
X0860783Y0260174D01*
X0858443Y0262513D01*
X0859314Y0261643D02*
X0866632Y0261643D01*
X0866632Y0260857D02*
X0860100Y0260857D01*
X0860783Y0260071D02*
X0866632Y0260071D01*
X0866632Y0259285D02*
X0860783Y0259285D01*
X0860783Y0258499D02*
X0866632Y0258499D01*
X0866632Y0257713D02*
X0860783Y0257713D01*
X0860783Y0256927D02*
X0866632Y0256927D01*
X0866632Y0256141D02*
X0860058Y0256141D01*
X0859273Y0255355D02*
X0866632Y0255355D01*
X0866632Y0254569D02*
X0858487Y0254569D01*
X0855091Y0254569D02*
X0824506Y0254569D01*
X0824506Y0253783D02*
X0866632Y0253783D01*
X0854306Y0255355D02*
X0824506Y0255355D01*
X0824506Y0256141D02*
X0853520Y0256141D01*
X0852795Y0256927D02*
X0824506Y0256927D01*
X0824506Y0257713D02*
X0852795Y0257713D01*
X0852795Y0258499D02*
X0824506Y0258499D01*
X0824506Y0259285D02*
X0852795Y0259285D01*
X0852795Y0260071D02*
X0824506Y0260071D01*
X0824506Y0260857D02*
X0853478Y0260857D01*
X0854264Y0261643D02*
X0824506Y0261643D01*
X0824506Y0262428D02*
X0855050Y0262428D01*
X0826397Y0249854D02*
X0824506Y0249854D01*
X0824506Y0249068D02*
X0825611Y0249068D01*
X0824825Y0248282D02*
X0824506Y0248282D01*
X0811907Y0248282D02*
X0791828Y0248282D01*
X0791828Y0249068D02*
X0811907Y0249068D01*
X0811907Y0249854D02*
X0791828Y0249854D01*
X0791828Y0247496D02*
X0811907Y0247496D01*
X0811907Y0246710D02*
X0791828Y0246710D01*
X0791828Y0245924D02*
X0811907Y0245924D01*
X0811907Y0245138D02*
X0791828Y0245138D01*
X0791828Y0244352D02*
X0811907Y0244352D01*
X0811907Y0243567D02*
X0791828Y0243567D01*
X0791828Y0242781D02*
X0811907Y0242781D01*
X0811907Y0241995D02*
X0791828Y0241995D01*
X0791828Y0241209D02*
X0811907Y0241209D01*
X0811907Y0240423D02*
X0791828Y0240423D01*
X0791828Y0239637D02*
X0811907Y0239637D01*
X0743901Y0217406D02*
X0743901Y0208031D01*
X0737651Y0208031D01*
X0737651Y0216156D01*
X0738901Y0217406D01*
X0743901Y0217406D01*
X0743901Y0216845D02*
X0738340Y0216845D01*
X0737651Y0216060D02*
X0743901Y0216060D01*
X0743901Y0215274D02*
X0737651Y0215274D01*
X0737651Y0214488D02*
X0743901Y0214488D01*
X0743901Y0213702D02*
X0737651Y0213702D01*
X0737651Y0212916D02*
X0743901Y0212916D01*
X0743901Y0212130D02*
X0737651Y0212130D01*
X0737651Y0211344D02*
X0743901Y0211344D01*
X0743901Y0210558D02*
X0737651Y0210558D01*
X0737651Y0209772D02*
X0743901Y0209772D01*
X0743901Y0208986D02*
X0737651Y0208986D01*
X0737651Y0208200D02*
X0743901Y0208200D01*
X0735771Y0206629D02*
X0727108Y0206629D01*
X0727969Y0205843D02*
X0735771Y0205843D01*
X0735771Y0205057D02*
X0728830Y0205057D01*
X0724462Y0216845D02*
X0736378Y0216845D01*
X0736510Y0219203D02*
X0727708Y0219203D01*
X0734371Y0219989D02*
X0736510Y0219989D01*
X0712395Y0220035D02*
X0712395Y0215606D01*
X0601080Y0195685D02*
X0598718Y0193323D01*
X0585844Y0193323D01*
X0836052Y0273431D02*
X0857558Y0273431D01*
X0856772Y0274217D02*
X0837949Y0274217D01*
X0839200Y0275003D02*
X0855986Y0275003D01*
X0855200Y0275789D02*
X0839986Y0275789D01*
X0840772Y0276575D02*
X0854415Y0276575D01*
X0853629Y0277361D02*
X0841530Y0277361D01*
X0841856Y0278147D02*
X0852843Y0278147D01*
X0852057Y0278933D02*
X0842181Y0278933D01*
X0842507Y0279719D02*
X0851271Y0279719D01*
X0850485Y0280504D02*
X0842832Y0280504D01*
X0843009Y0281290D02*
X0849699Y0281290D01*
X0848913Y0282076D02*
X0843009Y0282076D01*
X0843009Y0282862D02*
X0848127Y0282862D01*
X0847341Y0283648D02*
X0843009Y0283648D01*
X0843009Y0284434D02*
X0846555Y0284434D01*
X0845770Y0285220D02*
X0842855Y0285220D01*
X0842530Y0286006D02*
X0844984Y0286006D01*
X0844198Y0286792D02*
X0842204Y0286792D01*
X0841879Y0287578D02*
X0843412Y0287578D01*
X0842626Y0288364D02*
X0841553Y0288364D01*
X0634348Y0286827D02*
X0634348Y0278953D01*
X0624506Y0276984D02*
X0624506Y0286827D01*
X1073324Y0085598D02*
X1248679Y0085598D01*
X1248679Y0084812D02*
X1073324Y0084812D01*
X1073324Y0084026D02*
X1248679Y0084026D01*
X1248679Y0083240D02*
X1238069Y0083240D01*
X1237489Y0083480D02*
X1234357Y0083480D01*
X1231463Y0082282D01*
X1229248Y0080067D01*
X1228049Y0077173D01*
X1228049Y0074040D01*
X1229248Y0071146D01*
X1231463Y0068931D01*
X1234357Y0067732D01*
X1237489Y0067732D01*
X1240383Y0068931D01*
X1242598Y0071146D01*
X1243797Y0074040D01*
X1243797Y0077173D01*
X1242598Y0080067D01*
X1240383Y0082282D01*
X1237489Y0083480D01*
X1239966Y0082454D02*
X1248679Y0082454D01*
X1248679Y0081668D02*
X1240996Y0081668D01*
X1241782Y0080883D02*
X1248679Y0080883D01*
X1248679Y0080097D02*
X1242568Y0080097D01*
X1242911Y0079311D02*
X1248679Y0079311D01*
X1248679Y0078525D02*
X1243237Y0078525D01*
X1243562Y0077739D02*
X1248679Y0077739D01*
X1248679Y0076953D02*
X1243797Y0076953D01*
X1243797Y0076167D02*
X1248679Y0076167D01*
X1248679Y0075381D02*
X1243797Y0075381D01*
X1243797Y0074595D02*
X1248679Y0074595D01*
X1248679Y0073809D02*
X1243701Y0073809D01*
X1243376Y0073023D02*
X1248679Y0073023D01*
X1248679Y0072238D02*
X1243050Y0072238D01*
X1242725Y0071452D02*
X1248679Y0071452D01*
X1248679Y0070666D02*
X1242118Y0070666D01*
X1241332Y0069880D02*
X1248679Y0069880D01*
X1248679Y0069094D02*
X1240546Y0069094D01*
X1238879Y0068308D02*
X1248679Y0068308D01*
X1248679Y0067522D02*
X1073324Y0067522D01*
X1073324Y0066736D02*
X1248679Y0066736D01*
X1248679Y0065950D02*
X1073324Y0065950D01*
X1073324Y0065164D02*
X1248679Y0065164D01*
X1248679Y0064378D02*
X1073324Y0064378D01*
X1073324Y0063592D02*
X1248679Y0063592D01*
X1248679Y0062807D02*
X1073324Y0062807D01*
X1073324Y0068308D02*
X1232967Y0068308D01*
X1231300Y0069094D02*
X1073324Y0069094D01*
X1073324Y0069880D02*
X1230514Y0069880D01*
X1229728Y0070666D02*
X1073324Y0070666D01*
X1073324Y0071452D02*
X1229121Y0071452D01*
X1228796Y0072238D02*
X1073324Y0072238D01*
X1073324Y0073023D02*
X1228470Y0073023D01*
X1228144Y0073809D02*
X1073324Y0073809D01*
X1073324Y0074595D02*
X1228049Y0074595D01*
X1228049Y0075381D02*
X1073324Y0075381D01*
X1073324Y0076167D02*
X1228049Y0076167D01*
X1228049Y0076953D02*
X1073324Y0076953D01*
X1073324Y0077739D02*
X1228283Y0077739D01*
X1228609Y0078525D02*
X1073324Y0078525D01*
X1073324Y0079311D02*
X1228935Y0079311D01*
X1229278Y0080097D02*
X1073324Y0080097D01*
X1073324Y0080883D02*
X1230064Y0080883D01*
X1230850Y0081668D02*
X1073324Y0081668D01*
X1073324Y0082454D02*
X1231880Y0082454D01*
X1233777Y0083240D02*
X1073324Y0083240D01*
D45*
X0740151Y0193031D02*
X0735651Y0197531D01*
X0712151Y0197531D01*
X0709443Y0200240D01*
X0709443Y0206157D01*
X0711411Y0206157D02*
X0711411Y0200772D01*
X0713151Y0199031D01*
X0728151Y0199031D01*
X0730151Y0201031D01*
X0724151Y0202031D02*
X0722651Y0203531D01*
X0720151Y0203531D01*
X0719285Y0204398D01*
X0717317Y0204116D02*
X0720151Y0201281D01*
X0720651Y0201281D01*
X0716901Y0201281D02*
X0716901Y0202031D01*
X0715348Y0203585D01*
X0707474Y0202354D02*
X0707151Y0202031D01*
X0707474Y0202354D02*
X0707474Y0206157D01*
X0701069Y0210685D02*
X0700978Y0210594D01*
X0703537Y0225055D02*
X0703537Y0225646D01*
X0703412Y0225646D01*
D46*
X0728143Y0225187D03*
X0728151Y0222531D03*
X0730651Y0217785D03*
X0732901Y0218781D03*
X0735151Y0217785D03*
X0740151Y0218531D03*
X0742651Y0218531D03*
X0742651Y0222531D03*
X0742651Y0207656D03*
X0740151Y0207656D03*
X0734549Y0207232D03*
X0731850Y0207232D03*
X0729100Y0207232D03*
X0727283Y0202335D03*
X0724151Y0202031D03*
X0720651Y0201281D03*
X0716901Y0201281D03*
X0713651Y0202031D03*
X0707151Y0202031D03*
X0700584Y0204764D03*
X0697651Y0207781D03*
X0695401Y0206281D03*
X0697901Y0211781D03*
X0696151Y0217281D03*
X0693651Y0217281D03*
X0691151Y0217281D03*
X0682501Y0216931D03*
X0680153Y0220626D03*
X0680153Y0224563D03*
X0686846Y0224563D03*
X0682859Y0234189D03*
X0707319Y0234799D03*
X0744191Y0237614D03*
X0680071Y0212268D03*
X0675346Y0210299D03*
X0684401Y0206781D03*
X0685901Y0204531D03*
X0687401Y0206781D03*
X0688901Y0204531D03*
X0687401Y0202031D03*
X0684401Y0202031D03*
X0680464Y0204394D03*
X0676921Y0205575D03*
X0673378Y0205181D03*
X0676921Y0200850D03*
X0730151Y0201031D03*
D47*
X0723813Y0206842D02*
X0723813Y0208717D01*
X0723813Y0210685D01*
X0713380Y0220035D02*
X0712395Y0220035D01*
X0713380Y0220035D02*
X0713380Y0224071D01*
X0730280Y0234858D02*
X0730183Y0243000D01*
X0730151Y0243031D01*
X0700978Y0210594D02*
X0700978Y0208717D01*
X0700978Y0206842D01*
D48*
X0670151Y0243031D02*
X0670151Y0253362D01*
X0669781Y0253362D01*
X0760928Y0145449D02*
X0768206Y0138171D01*
X0768206Y0135252D01*
X0645844Y0093323D02*
X0642813Y0093323D01*
X0628443Y0107693D01*
X0628443Y0125606D01*
X0633954Y0131118D01*
X0633954Y0138402D01*
X0629033Y0143323D01*
X0625844Y0143323D01*
D49*
X0667030Y0188031D02*
X0668308Y0189310D01*
X0668521Y0189097D01*
X0671781Y0189097D01*
X0674086Y0191402D01*
X0674086Y0194661D01*
X0671781Y0196966D01*
X0671480Y0196966D01*
X0671480Y0212237D01*
X0674846Y0215603D01*
X0681107Y0215603D01*
X0681704Y0215006D01*
X0682423Y0215006D01*
X0682423Y0212480D01*
X0685323Y0212480D01*
X0685323Y0211811D01*
X0685992Y0211811D01*
X0685992Y0207811D01*
X0687733Y0207811D01*
X0688073Y0207902D01*
X0688377Y0208078D01*
X0688626Y0208326D01*
X0688801Y0208631D01*
X0688892Y0208970D01*
X0688892Y0211811D01*
X0685992Y0211811D01*
X0685992Y0212480D01*
X0688892Y0212480D01*
X0688892Y0214739D01*
X0688960Y0214674D01*
X0689340Y0214294D01*
X0689355Y0214294D01*
X0689365Y0214284D01*
X0689903Y0214294D01*
X0690441Y0214294D01*
X0690451Y0214304D01*
X0691023Y0214315D01*
X0691023Y0208759D01*
X0691570Y0208211D01*
X0692573Y0208211D01*
X0692573Y0204356D01*
X0693351Y0203578D01*
X0697576Y0203578D01*
X0700230Y0206231D01*
X0700230Y0206870D01*
X0700978Y0206870D01*
X0702091Y0206870D01*
X0702091Y0204479D01*
X0694428Y0196817D01*
X0693650Y0196038D01*
X0693650Y0195097D01*
X0691781Y0196966D01*
X0688521Y0196966D01*
X0686217Y0194661D01*
X0686217Y0191402D01*
X0688521Y0189097D01*
X0691781Y0189097D01*
X0693650Y0190966D01*
X0693650Y0188952D01*
X0692729Y0188031D01*
X0667030Y0188031D01*
X0667665Y0188667D02*
X0693365Y0188667D01*
X0693650Y0189335D02*
X0692019Y0189335D01*
X0692687Y0190003D02*
X0693650Y0190003D01*
X0693650Y0190670D02*
X0693354Y0190670D01*
X0693402Y0195345D02*
X0693650Y0195345D01*
X0693650Y0196013D02*
X0692734Y0196013D01*
X0692067Y0196681D02*
X0694292Y0196681D01*
X0694428Y0196817D02*
X0694428Y0196817D01*
X0694960Y0197348D02*
X0671480Y0197348D01*
X0671480Y0198016D02*
X0695627Y0198016D01*
X0696295Y0198684D02*
X0671480Y0198684D01*
X0671480Y0199352D02*
X0696963Y0199352D01*
X0697631Y0200020D02*
X0671480Y0200020D01*
X0671480Y0200687D02*
X0698299Y0200687D01*
X0698966Y0201355D02*
X0671480Y0201355D01*
X0671480Y0202023D02*
X0699634Y0202023D01*
X0700302Y0202691D02*
X0671480Y0202691D01*
X0671480Y0203359D02*
X0700970Y0203359D01*
X0701638Y0204026D02*
X0698025Y0204026D01*
X0698692Y0204694D02*
X0702091Y0204694D01*
X0702091Y0205362D02*
X0699360Y0205362D01*
X0700028Y0206030D02*
X0702091Y0206030D01*
X0702091Y0206698D02*
X0700230Y0206698D01*
X0700978Y0206870D02*
X0700978Y0208716D01*
X0700978Y0206870D01*
X0700978Y0207365D02*
X0700978Y0207365D01*
X0700978Y0208033D02*
X0700978Y0208033D01*
X0700978Y0208701D02*
X0700978Y0208701D01*
X0700978Y0208716D02*
X0700978Y0208716D01*
X0700230Y0210685D02*
X0700230Y0210685D01*
X0701962Y0210685D01*
X0700230Y0210685D01*
X0701962Y0210685D02*
X0701962Y0210685D01*
X0692573Y0208033D02*
X0688300Y0208033D01*
X0688820Y0208701D02*
X0691080Y0208701D01*
X0691023Y0209369D02*
X0688892Y0209369D01*
X0688892Y0210037D02*
X0691023Y0210037D01*
X0691023Y0210704D02*
X0688892Y0210704D01*
X0688892Y0211372D02*
X0691023Y0211372D01*
X0691023Y0212040D02*
X0685992Y0212040D01*
X0685992Y0212480D02*
X0685323Y0212480D01*
X0685323Y0216480D01*
X0684426Y0216480D01*
X0684426Y0217729D01*
X0683299Y0218857D01*
X0681704Y0218857D01*
X0681107Y0218260D01*
X0673745Y0218260D01*
X0669601Y0214116D01*
X0668823Y0213338D01*
X0668823Y0196966D01*
X0668521Y0196966D01*
X0666217Y0194661D01*
X0666217Y0191402D01*
X0666430Y0191189D01*
X0665057Y0189816D01*
X0665057Y0210539D01*
X0680095Y0225577D01*
X0696018Y0225577D01*
X0698665Y0222930D01*
X0698665Y0221837D01*
X0695844Y0224655D01*
X0695459Y0225039D01*
X0695458Y0225039D01*
X0694908Y0225039D01*
X0689946Y0225039D01*
X0689167Y0224261D01*
X0689167Y0223986D01*
X0689126Y0223986D01*
X0689046Y0223906D01*
X0688833Y0224119D01*
X0688529Y0224295D01*
X0688189Y0224386D01*
X0686998Y0224386D01*
X0686998Y0221886D01*
X0686329Y0221886D01*
X0686329Y0224386D01*
X0685138Y0224386D01*
X0684798Y0224295D01*
X0684494Y0224119D01*
X0684245Y0223871D01*
X0684070Y0223566D01*
X0683979Y0223227D01*
X0683979Y0221886D01*
X0686329Y0221886D01*
X0686329Y0221217D01*
X0683979Y0221217D01*
X0683979Y0219875D01*
X0684070Y0219536D01*
X0684245Y0219232D01*
X0684494Y0218983D01*
X0684798Y0218807D01*
X0685138Y0218717D01*
X0686329Y0218717D01*
X0686329Y0221216D01*
X0686998Y0221216D01*
X0686998Y0218717D01*
X0688189Y0218717D01*
X0688529Y0218807D01*
X0688562Y0218827D01*
X0688562Y0216158D01*
X0688552Y0216147D01*
X0688554Y0216037D01*
X0688377Y0216214D01*
X0688073Y0216389D01*
X0687733Y0216480D01*
X0685992Y0216480D01*
X0685992Y0212480D01*
X0685992Y0212708D02*
X0685323Y0212708D01*
X0685323Y0213376D02*
X0685992Y0213376D01*
X0685992Y0214043D02*
X0685323Y0214043D01*
X0685323Y0214711D02*
X0685992Y0214711D01*
X0685992Y0215379D02*
X0685323Y0215379D01*
X0685323Y0216047D02*
X0685992Y0216047D01*
X0684426Y0216715D02*
X0688562Y0216715D01*
X0688562Y0217382D02*
X0684426Y0217382D01*
X0684105Y0218050D02*
X0688562Y0218050D01*
X0688562Y0218718D02*
X0688195Y0218718D01*
X0686998Y0218718D02*
X0686329Y0218718D01*
X0686329Y0219386D02*
X0686998Y0219386D01*
X0686998Y0220054D02*
X0686329Y0220054D01*
X0686329Y0220721D02*
X0686998Y0220721D01*
X0686329Y0221389D02*
X0675907Y0221389D01*
X0675239Y0220721D02*
X0683979Y0220721D01*
X0683979Y0220054D02*
X0674572Y0220054D01*
X0673904Y0219386D02*
X0684156Y0219386D01*
X0683437Y0218718D02*
X0685132Y0218718D01*
X0683979Y0222057D02*
X0676575Y0222057D01*
X0677243Y0222725D02*
X0683979Y0222725D01*
X0684023Y0223393D02*
X0677911Y0223393D01*
X0678578Y0224060D02*
X0684435Y0224060D01*
X0686329Y0224060D02*
X0686998Y0224060D01*
X0686998Y0223393D02*
X0686329Y0223393D01*
X0686329Y0222725D02*
X0686998Y0222725D01*
X0686998Y0222057D02*
X0686329Y0222057D01*
X0688892Y0224060D02*
X0689167Y0224060D01*
X0689635Y0224728D02*
X0679246Y0224728D01*
X0679914Y0225396D02*
X0696199Y0225396D01*
X0695770Y0224728D02*
X0696867Y0224728D01*
X0696439Y0224060D02*
X0697535Y0224060D01*
X0697108Y0223393D02*
X0698203Y0223393D01*
X0697777Y0222725D02*
X0698665Y0222725D01*
X0698665Y0222057D02*
X0698445Y0222057D01*
X0695459Y0225039D02*
X0695459Y0225039D01*
X0703062Y0236438D02*
X0709701Y0229799D01*
X0711835Y0229799D01*
X0711835Y0230468D01*
X0709485Y0230468D01*
X0709485Y0231810D01*
X0709576Y0232149D01*
X0709751Y0232453D01*
X0710000Y0232702D01*
X0710098Y0232758D01*
X0709885Y0232971D01*
X0709885Y0235264D01*
X0708711Y0236438D01*
X0703062Y0236438D01*
X0703419Y0236081D02*
X0709068Y0236081D01*
X0709736Y0235413D02*
X0704087Y0235413D01*
X0704755Y0234745D02*
X0709885Y0234745D01*
X0709885Y0234078D02*
X0705422Y0234078D01*
X0706090Y0233410D02*
X0709885Y0233410D01*
X0710069Y0232742D02*
X0706758Y0232742D01*
X0707426Y0232074D02*
X0709556Y0232074D01*
X0709485Y0231406D02*
X0708094Y0231406D01*
X0708762Y0230738D02*
X0709485Y0230738D01*
X0709429Y0230071D02*
X0711835Y0230071D01*
X0718654Y0236187D02*
X0718654Y0236745D01*
X0718106Y0237293D01*
X0714632Y0237293D01*
X0714269Y0236930D01*
X0713906Y0237293D01*
X0711613Y0237293D01*
X0709812Y0239095D01*
X0709024Y0239095D01*
X0682344Y0239095D01*
X0684486Y0241236D01*
X0684486Y0242697D01*
X0680486Y0242697D01*
X0680486Y0243366D01*
X0684486Y0243366D01*
X0684486Y0244827D01*
X0681947Y0247366D01*
X0680486Y0247366D01*
X0680486Y0243366D01*
X0679817Y0243366D01*
X0679817Y0247366D01*
X0678356Y0247366D01*
X0675817Y0244827D01*
X0675817Y0243366D01*
X0679817Y0243366D01*
X0679817Y0242697D01*
X0675817Y0242697D01*
X0675817Y0241236D01*
X0677958Y0239095D01*
X0667423Y0239095D01*
X0667421Y0239097D01*
X0673538Y0239097D01*
X0674086Y0239644D01*
X0674086Y0246419D01*
X0673538Y0246966D01*
X0673054Y0246966D01*
X0673054Y0248223D01*
X0745151Y0248031D01*
X0745151Y0188031D01*
X0737030Y0188031D01*
X0738095Y0189097D01*
X0743538Y0189097D01*
X0744086Y0189644D01*
X0744086Y0196419D01*
X0743538Y0196966D01*
X0738039Y0196966D01*
X0736185Y0198820D01*
X0729763Y0198820D01*
X0730049Y0199106D01*
X0730949Y0199106D01*
X0732076Y0200234D01*
X0732076Y0201829D01*
X0730949Y0202957D01*
X0729354Y0202957D01*
X0728226Y0201829D01*
X0728226Y0200929D01*
X0727617Y0200320D01*
X0725163Y0200320D01*
X0726076Y0201234D01*
X0726076Y0202829D01*
X0724949Y0203957D01*
X0724049Y0203957D01*
X0723185Y0204820D01*
X0723100Y0204820D01*
X0723100Y0206157D01*
X0721254Y0206157D01*
X0721254Y0206158D01*
X0723100Y0206158D01*
X0723100Y0206870D01*
X0723813Y0206870D01*
X0724873Y0206870D01*
X0725140Y0206627D01*
X0725508Y0206259D01*
X0725543Y0206259D01*
X0727960Y0204053D01*
X0728327Y0203685D01*
X0728363Y0203685D01*
X0728388Y0203662D01*
X0728908Y0203685D01*
X0736322Y0203685D01*
X0737100Y0204464D01*
X0737100Y0208358D01*
X0737303Y0208303D01*
X0739045Y0208303D01*
X0739045Y0212303D01*
X0739714Y0212303D01*
X0739714Y0212972D01*
X0742614Y0212972D01*
X0742614Y0215814D01*
X0742523Y0216153D01*
X0742347Y0216457D01*
X0742099Y0216706D01*
X0741794Y0216881D01*
X0741455Y0216972D01*
X0739714Y0216972D01*
X0739714Y0212972D01*
X0739045Y0212972D01*
X0739045Y0212303D01*
X0736145Y0212303D01*
X0736145Y0210021D01*
X0734014Y0210021D01*
X0734014Y0215254D01*
X0736145Y0215254D01*
X0736145Y0212972D01*
X0739045Y0212972D01*
X0739045Y0216972D01*
X0737838Y0216972D01*
X0737838Y0220213D01*
X0737974Y0220213D01*
X0738313Y0220304D01*
X0738618Y0220479D01*
X0738866Y0220728D01*
X0739042Y0221032D01*
X0739133Y0221372D01*
X0739133Y0222713D01*
X0736783Y0222713D01*
X0736783Y0223382D01*
X0739133Y0223382D01*
X0739133Y0224570D01*
X0742705Y0224597D01*
X0743251Y0224597D01*
X0743255Y0224601D01*
X0743261Y0224601D01*
X0743493Y0224837D01*
X0743528Y0224837D01*
X0744076Y0225384D01*
X0744076Y0229658D01*
X0743528Y0230206D01*
X0743438Y0230206D01*
X0743295Y0230359D01*
X0743269Y0230360D01*
X0743251Y0230379D01*
X0742723Y0230379D01*
X0736764Y0230578D01*
X0736764Y0232021D01*
X0736551Y0232234D01*
X0736649Y0232290D01*
X0736898Y0232539D01*
X0737073Y0232843D01*
X0737164Y0233183D01*
X0737164Y0234524D01*
X0734814Y0234524D01*
X0734814Y0235193D01*
X0734145Y0235193D01*
X0734145Y0237693D01*
X0732954Y0237693D01*
X0732614Y0237602D01*
X0732310Y0237426D01*
X0732097Y0237213D01*
X0732017Y0237293D01*
X0731677Y0237293D01*
X0731656Y0239097D01*
X0731781Y0239097D01*
X0734086Y0241402D01*
X0734086Y0244661D01*
X0731781Y0246966D01*
X0728521Y0246966D01*
X0726217Y0244661D01*
X0726217Y0241402D01*
X0728521Y0239097D01*
X0728802Y0239097D01*
X0728824Y0237293D01*
X0728542Y0237293D01*
X0728040Y0236791D01*
X0728018Y0236873D01*
X0727842Y0237178D01*
X0727594Y0237426D01*
X0727290Y0237602D01*
X0726950Y0237693D01*
X0725759Y0237693D01*
X0725759Y0235193D01*
X0725090Y0235193D01*
X0725090Y0237693D01*
X0723899Y0237693D01*
X0723559Y0237602D01*
X0723255Y0237426D01*
X0723042Y0237213D01*
X0722962Y0237293D01*
X0719487Y0237293D01*
X0718940Y0236745D01*
X0718940Y0236187D01*
X0718654Y0236187D01*
X0718651Y0236749D02*
X0718943Y0236749D01*
X0718521Y0239097D02*
X0721781Y0239097D01*
X0724086Y0241402D01*
X0724086Y0244661D01*
X0721781Y0246966D01*
X0718521Y0246966D01*
X0716217Y0244661D01*
X0716217Y0241402D01*
X0718521Y0239097D01*
X0718198Y0239420D02*
X0712104Y0239420D01*
X0711781Y0239097D02*
X0714086Y0241402D01*
X0714086Y0244661D01*
X0711781Y0246966D01*
X0708521Y0246966D01*
X0706217Y0244661D01*
X0706217Y0241402D01*
X0708521Y0239097D01*
X0711781Y0239097D01*
X0710822Y0238084D02*
X0728814Y0238084D01*
X0728822Y0237417D02*
X0727604Y0237417D01*
X0728806Y0238752D02*
X0710154Y0238752D01*
X0711490Y0237417D02*
X0723245Y0237417D01*
X0725090Y0237417D02*
X0725759Y0237417D01*
X0725759Y0236749D02*
X0725090Y0236749D01*
X0725090Y0236081D02*
X0725759Y0236081D01*
X0725759Y0235413D02*
X0725090Y0235413D01*
X0722104Y0239420D02*
X0728198Y0239420D01*
X0727531Y0240088D02*
X0722772Y0240088D01*
X0723440Y0240756D02*
X0726863Y0240756D01*
X0726217Y0241423D02*
X0724086Y0241423D01*
X0724086Y0242091D02*
X0726217Y0242091D01*
X0726217Y0242759D02*
X0724086Y0242759D01*
X0724086Y0243427D02*
X0726217Y0243427D01*
X0726217Y0244095D02*
X0724086Y0244095D01*
X0723985Y0244762D02*
X0726318Y0244762D01*
X0726985Y0245430D02*
X0723317Y0245430D01*
X0722649Y0246098D02*
X0727653Y0246098D01*
X0728321Y0246766D02*
X0721981Y0246766D01*
X0718828Y0248101D02*
X0673054Y0248101D01*
X0673054Y0247434D02*
X0745151Y0247434D01*
X0745151Y0246766D02*
X0742547Y0246766D01*
X0741947Y0247366D02*
X0740486Y0247366D01*
X0740486Y0243366D01*
X0744486Y0243366D01*
X0744486Y0244827D01*
X0741947Y0247366D01*
X0740486Y0246766D02*
X0739817Y0246766D01*
X0739817Y0247366D02*
X0738356Y0247366D01*
X0735817Y0244827D01*
X0735817Y0243366D01*
X0739817Y0243366D01*
X0739817Y0247366D01*
X0739817Y0246098D02*
X0740486Y0246098D01*
X0740486Y0245430D02*
X0739817Y0245430D01*
X0739817Y0244762D02*
X0740486Y0244762D01*
X0740486Y0244095D02*
X0739817Y0244095D01*
X0739817Y0243427D02*
X0740486Y0243427D01*
X0740486Y0243366D02*
X0739817Y0243366D01*
X0739817Y0242697D01*
X0740486Y0242697D01*
X0740486Y0243366D01*
X0740486Y0242759D02*
X0745151Y0242759D01*
X0745151Y0243427D02*
X0744486Y0243427D01*
X0744486Y0244095D02*
X0745151Y0244095D01*
X0745151Y0244762D02*
X0744486Y0244762D01*
X0743883Y0245430D02*
X0745151Y0245430D01*
X0745151Y0246098D02*
X0743215Y0246098D01*
X0744486Y0242697D02*
X0740486Y0242697D01*
X0740486Y0238697D01*
X0741947Y0238697D01*
X0744486Y0241236D01*
X0744486Y0242697D01*
X0744486Y0242091D02*
X0745151Y0242091D01*
X0745151Y0241423D02*
X0744486Y0241423D01*
X0744005Y0240756D02*
X0745151Y0240756D01*
X0745151Y0240088D02*
X0743338Y0240088D01*
X0742670Y0239420D02*
X0745151Y0239420D01*
X0745151Y0238752D02*
X0742002Y0238752D01*
X0741376Y0237406D02*
X0741376Y0234656D01*
X0744476Y0234656D01*
X0744476Y0236247D01*
X0744385Y0236586D01*
X0744209Y0236891D01*
X0743960Y0237139D01*
X0743656Y0237315D01*
X0743317Y0237406D01*
X0741376Y0237406D01*
X0741376Y0236749D02*
X0740706Y0236749D01*
X0740706Y0237406D02*
X0738765Y0237406D01*
X0738426Y0237315D01*
X0738122Y0237139D01*
X0737873Y0236891D01*
X0737697Y0236586D01*
X0737606Y0236247D01*
X0737606Y0234656D01*
X0740706Y0234656D01*
X0740706Y0233987D01*
X0737606Y0233987D01*
X0737606Y0232396D01*
X0737697Y0232056D01*
X0737873Y0231752D01*
X0738122Y0231503D01*
X0738426Y0231328D01*
X0738765Y0231237D01*
X0740706Y0231237D01*
X0740706Y0233987D01*
X0741376Y0233987D01*
X0741376Y0234656D01*
X0740706Y0234656D01*
X0740706Y0237406D01*
X0740706Y0236081D02*
X0741376Y0236081D01*
X0741376Y0235413D02*
X0740706Y0235413D01*
X0740706Y0234745D02*
X0741376Y0234745D01*
X0741376Y0234078D02*
X0745151Y0234078D01*
X0745151Y0234745D02*
X0744476Y0234745D01*
X0744476Y0235413D02*
X0745151Y0235413D01*
X0745151Y0236081D02*
X0744476Y0236081D01*
X0744291Y0236749D02*
X0745151Y0236749D01*
X0745151Y0237417D02*
X0736659Y0237417D01*
X0736649Y0237426D02*
X0736345Y0237602D01*
X0736005Y0237693D01*
X0734814Y0237693D01*
X0734814Y0235193D01*
X0737164Y0235193D01*
X0737164Y0236534D01*
X0737073Y0236873D01*
X0736898Y0237178D01*
X0736649Y0237426D01*
X0737107Y0236749D02*
X0737791Y0236749D01*
X0737606Y0236081D02*
X0737164Y0236081D01*
X0737164Y0235413D02*
X0737606Y0235413D01*
X0737606Y0234745D02*
X0734814Y0234745D01*
X0734814Y0235413D02*
X0734145Y0235413D01*
X0734145Y0236081D02*
X0734814Y0236081D01*
X0734814Y0236749D02*
X0734145Y0236749D01*
X0734145Y0237417D02*
X0734814Y0237417D01*
X0732300Y0237417D02*
X0731676Y0237417D01*
X0731668Y0238084D02*
X0745151Y0238084D01*
X0744476Y0233987D02*
X0741376Y0233987D01*
X0741376Y0231237D01*
X0743317Y0231237D01*
X0743656Y0231328D01*
X0743960Y0231503D01*
X0744209Y0231752D01*
X0744385Y0232056D01*
X0744476Y0232396D01*
X0744476Y0233987D01*
X0744476Y0233410D02*
X0745151Y0233410D01*
X0745151Y0232742D02*
X0744476Y0232742D01*
X0744390Y0232074D02*
X0745151Y0232074D01*
X0745151Y0231406D02*
X0743793Y0231406D01*
X0743663Y0230071D02*
X0745151Y0230071D01*
X0745151Y0230738D02*
X0736764Y0230738D01*
X0736764Y0231406D02*
X0738289Y0231406D01*
X0737692Y0232074D02*
X0736711Y0232074D01*
X0737015Y0232742D02*
X0737606Y0232742D01*
X0737606Y0233410D02*
X0737164Y0233410D01*
X0737164Y0234078D02*
X0740706Y0234078D01*
X0740706Y0233410D02*
X0741376Y0233410D01*
X0741376Y0232742D02*
X0740706Y0232742D01*
X0740706Y0232074D02*
X0741376Y0232074D01*
X0741376Y0231406D02*
X0740706Y0231406D01*
X0744076Y0229403D02*
X0745151Y0229403D01*
X0745151Y0228735D02*
X0744076Y0228735D01*
X0744076Y0228067D02*
X0745151Y0228067D01*
X0745151Y0227399D02*
X0744076Y0227399D01*
X0744076Y0226732D02*
X0745151Y0226732D01*
X0745151Y0226064D02*
X0744076Y0226064D01*
X0744076Y0225396D02*
X0745151Y0225396D01*
X0745151Y0224728D02*
X0743386Y0224728D01*
X0745151Y0224060D02*
X0739133Y0224060D01*
X0739133Y0223393D02*
X0745151Y0223393D01*
X0745151Y0222725D02*
X0736783Y0222725D01*
X0739133Y0222057D02*
X0745151Y0222057D01*
X0745151Y0221389D02*
X0739133Y0221389D01*
X0738860Y0220721D02*
X0745151Y0220721D01*
X0745151Y0220054D02*
X0737838Y0220054D01*
X0737838Y0219386D02*
X0745151Y0219386D01*
X0745151Y0218718D02*
X0737838Y0218718D01*
X0737838Y0218050D02*
X0745151Y0218050D01*
X0745151Y0217382D02*
X0737838Y0217382D01*
X0739045Y0216715D02*
X0739714Y0216715D01*
X0739714Y0216047D02*
X0739045Y0216047D01*
X0739045Y0215379D02*
X0739714Y0215379D01*
X0739714Y0214711D02*
X0739045Y0214711D01*
X0739045Y0214043D02*
X0739714Y0214043D01*
X0739714Y0213376D02*
X0739045Y0213376D01*
X0739045Y0212708D02*
X0734014Y0212708D01*
X0734014Y0213376D02*
X0736145Y0213376D01*
X0736145Y0214043D02*
X0734014Y0214043D01*
X0734014Y0214711D02*
X0736145Y0214711D01*
X0736145Y0212040D02*
X0734014Y0212040D01*
X0734014Y0211372D02*
X0736145Y0211372D01*
X0736145Y0210704D02*
X0734014Y0210704D01*
X0734014Y0210037D02*
X0736145Y0210037D01*
X0737100Y0208033D02*
X0745151Y0208033D01*
X0745151Y0207365D02*
X0737100Y0207365D01*
X0737100Y0206698D02*
X0745151Y0206698D01*
X0745151Y0206030D02*
X0737100Y0206030D01*
X0737100Y0205362D02*
X0745151Y0205362D01*
X0745151Y0204694D02*
X0737100Y0204694D01*
X0736662Y0204026D02*
X0745151Y0204026D01*
X0745151Y0203359D02*
X0725547Y0203359D01*
X0726076Y0202691D02*
X0729088Y0202691D01*
X0728420Y0202023D02*
X0726076Y0202023D01*
X0726076Y0201355D02*
X0728226Y0201355D01*
X0727984Y0200687D02*
X0725530Y0200687D01*
X0723979Y0204026D02*
X0727986Y0204026D01*
X0727257Y0204694D02*
X0723311Y0204694D01*
X0723100Y0205362D02*
X0726526Y0205362D01*
X0725794Y0206030D02*
X0723100Y0206030D01*
X0723100Y0206698D02*
X0725062Y0206698D01*
X0723813Y0206870D02*
X0723813Y0208716D01*
X0723813Y0208716D01*
X0723813Y0206870D01*
X0723813Y0207365D02*
X0723813Y0207365D01*
X0723813Y0208033D02*
X0723813Y0208033D01*
X0723813Y0208701D02*
X0723813Y0208701D01*
X0724729Y0210685D02*
X0722829Y0210685D01*
X0724729Y0210685D01*
X0724729Y0210685D01*
X0722829Y0210685D02*
X0722829Y0210685D01*
X0739045Y0210704D02*
X0739714Y0210704D01*
X0739714Y0210037D02*
X0739045Y0210037D01*
X0739045Y0209369D02*
X0739714Y0209369D01*
X0739714Y0208701D02*
X0739045Y0208701D01*
X0739714Y0208303D02*
X0741455Y0208303D01*
X0741794Y0208394D01*
X0742099Y0208570D01*
X0742347Y0208818D01*
X0742523Y0209123D01*
X0742614Y0209462D01*
X0742614Y0212303D01*
X0739714Y0212303D01*
X0739714Y0208303D01*
X0742230Y0208701D02*
X0745151Y0208701D01*
X0745151Y0209369D02*
X0742589Y0209369D01*
X0742614Y0210037D02*
X0745151Y0210037D01*
X0745151Y0210704D02*
X0742614Y0210704D01*
X0742614Y0211372D02*
X0745151Y0211372D01*
X0745151Y0212040D02*
X0742614Y0212040D01*
X0742614Y0213376D02*
X0745151Y0213376D01*
X0745151Y0214043D02*
X0742614Y0214043D01*
X0742614Y0214711D02*
X0745151Y0214711D01*
X0745151Y0215379D02*
X0742614Y0215379D01*
X0742551Y0216047D02*
X0745151Y0216047D01*
X0745151Y0216715D02*
X0742083Y0216715D01*
X0739714Y0212708D02*
X0745151Y0212708D01*
X0739714Y0212040D02*
X0739045Y0212040D01*
X0739045Y0211372D02*
X0739714Y0211372D01*
X0745151Y0202691D02*
X0731215Y0202691D01*
X0731882Y0202023D02*
X0745151Y0202023D01*
X0745151Y0201355D02*
X0732076Y0201355D01*
X0732076Y0200687D02*
X0745151Y0200687D01*
X0745151Y0200020D02*
X0731862Y0200020D01*
X0731194Y0199352D02*
X0745151Y0199352D01*
X0745151Y0198684D02*
X0736322Y0198684D01*
X0736989Y0198016D02*
X0745151Y0198016D01*
X0745151Y0197348D02*
X0737657Y0197348D01*
X0743824Y0196681D02*
X0745151Y0196681D01*
X0745151Y0196013D02*
X0744086Y0196013D01*
X0744086Y0195345D02*
X0745151Y0195345D01*
X0745151Y0194677D02*
X0744086Y0194677D01*
X0744086Y0194009D02*
X0745151Y0194009D01*
X0745151Y0193342D02*
X0744086Y0193342D01*
X0744086Y0192674D02*
X0745151Y0192674D01*
X0745151Y0192006D02*
X0744086Y0192006D01*
X0744086Y0191338D02*
X0745151Y0191338D01*
X0745151Y0190670D02*
X0744086Y0190670D01*
X0744086Y0190003D02*
X0745151Y0190003D01*
X0745151Y0189335D02*
X0743776Y0189335D01*
X0745151Y0188667D02*
X0737665Y0188667D01*
X0692903Y0204026D02*
X0671480Y0204026D01*
X0671480Y0204694D02*
X0692573Y0204694D01*
X0692573Y0205362D02*
X0671480Y0205362D01*
X0671480Y0206030D02*
X0692573Y0206030D01*
X0692573Y0206698D02*
X0671480Y0206698D01*
X0671480Y0207365D02*
X0692573Y0207365D01*
X0691023Y0212708D02*
X0688892Y0212708D01*
X0688892Y0213376D02*
X0691023Y0213376D01*
X0691023Y0214043D02*
X0688892Y0214043D01*
X0688892Y0214711D02*
X0688921Y0214711D01*
X0688554Y0216047D02*
X0688544Y0216047D01*
X0685323Y0212040D02*
X0671480Y0212040D01*
X0671480Y0211372D02*
X0682423Y0211372D01*
X0682423Y0211811D02*
X0682423Y0208970D01*
X0682514Y0208631D01*
X0682690Y0208326D01*
X0682938Y0208078D01*
X0683242Y0207902D01*
X0683582Y0207811D01*
X0685323Y0207811D01*
X0685323Y0211811D01*
X0682423Y0211811D01*
X0682423Y0212708D02*
X0671950Y0212708D01*
X0672618Y0213376D02*
X0682423Y0213376D01*
X0682423Y0214043D02*
X0673286Y0214043D01*
X0673954Y0214711D02*
X0682423Y0214711D01*
X0681331Y0215379D02*
X0674621Y0215379D01*
X0672868Y0217382D02*
X0671900Y0217382D01*
X0672200Y0216715D02*
X0671233Y0216715D01*
X0671532Y0216047D02*
X0670565Y0216047D01*
X0670864Y0215379D02*
X0669897Y0215379D01*
X0670197Y0214711D02*
X0669229Y0214711D01*
X0669529Y0214043D02*
X0668561Y0214043D01*
X0668861Y0213376D02*
X0667894Y0213376D01*
X0667226Y0212708D02*
X0668823Y0212708D01*
X0668823Y0212040D02*
X0666558Y0212040D01*
X0665890Y0211372D02*
X0668823Y0211372D01*
X0668823Y0210704D02*
X0665222Y0210704D01*
X0665057Y0210037D02*
X0668823Y0210037D01*
X0668823Y0209369D02*
X0665057Y0209369D01*
X0665057Y0208701D02*
X0668823Y0208701D01*
X0668823Y0208033D02*
X0665057Y0208033D01*
X0665057Y0207365D02*
X0668823Y0207365D01*
X0668823Y0206698D02*
X0665057Y0206698D01*
X0665057Y0206030D02*
X0668823Y0206030D01*
X0668823Y0205362D02*
X0665057Y0205362D01*
X0665057Y0204694D02*
X0668823Y0204694D01*
X0668823Y0204026D02*
X0665057Y0204026D01*
X0665057Y0203359D02*
X0668823Y0203359D01*
X0668823Y0202691D02*
X0665057Y0202691D01*
X0665057Y0202023D02*
X0668823Y0202023D01*
X0668823Y0201355D02*
X0665057Y0201355D01*
X0665057Y0200687D02*
X0668823Y0200687D01*
X0668823Y0200020D02*
X0665057Y0200020D01*
X0665057Y0199352D02*
X0668823Y0199352D01*
X0668823Y0198684D02*
X0665057Y0198684D01*
X0665057Y0198016D02*
X0668823Y0198016D01*
X0668823Y0197348D02*
X0665057Y0197348D01*
X0665057Y0196681D02*
X0668236Y0196681D01*
X0667568Y0196013D02*
X0665057Y0196013D01*
X0665057Y0195345D02*
X0666900Y0195345D01*
X0666232Y0194677D02*
X0665057Y0194677D01*
X0665057Y0194009D02*
X0666217Y0194009D01*
X0666217Y0193342D02*
X0665057Y0193342D01*
X0665057Y0192674D02*
X0666217Y0192674D01*
X0666217Y0192006D02*
X0665057Y0192006D01*
X0665057Y0191338D02*
X0666280Y0191338D01*
X0665912Y0190670D02*
X0665057Y0190670D01*
X0665057Y0190003D02*
X0665244Y0190003D01*
X0672019Y0189335D02*
X0678284Y0189335D01*
X0678521Y0189097D02*
X0681781Y0189097D01*
X0684086Y0191402D01*
X0684086Y0194661D01*
X0681781Y0196966D01*
X0678521Y0196966D01*
X0676217Y0194661D01*
X0676217Y0191402D01*
X0678521Y0189097D01*
X0677616Y0190003D02*
X0672687Y0190003D01*
X0673355Y0190670D02*
X0676948Y0190670D01*
X0676280Y0191338D02*
X0674022Y0191338D01*
X0674086Y0192006D02*
X0676217Y0192006D01*
X0676217Y0192674D02*
X0674086Y0192674D01*
X0674086Y0193342D02*
X0676217Y0193342D01*
X0676217Y0194009D02*
X0674086Y0194009D01*
X0674070Y0194677D02*
X0676232Y0194677D01*
X0676900Y0195345D02*
X0673402Y0195345D01*
X0672734Y0196013D02*
X0677568Y0196013D01*
X0678236Y0196681D02*
X0672067Y0196681D01*
X0682067Y0196681D02*
X0688236Y0196681D01*
X0687568Y0196013D02*
X0682734Y0196013D01*
X0683402Y0195345D02*
X0686900Y0195345D01*
X0686232Y0194677D02*
X0684070Y0194677D01*
X0684086Y0194009D02*
X0686217Y0194009D01*
X0686217Y0193342D02*
X0684086Y0193342D01*
X0684086Y0192674D02*
X0686217Y0192674D01*
X0686217Y0192006D02*
X0684086Y0192006D01*
X0684022Y0191338D02*
X0686280Y0191338D01*
X0686948Y0190670D02*
X0683355Y0190670D01*
X0682687Y0190003D02*
X0687616Y0190003D01*
X0688284Y0189335D02*
X0682019Y0189335D01*
X0683015Y0208033D02*
X0671480Y0208033D01*
X0671480Y0208701D02*
X0682495Y0208701D01*
X0682423Y0209369D02*
X0671480Y0209369D01*
X0671480Y0210037D02*
X0682423Y0210037D01*
X0682423Y0210704D02*
X0671480Y0210704D01*
X0672568Y0218050D02*
X0673536Y0218050D01*
X0673236Y0218718D02*
X0681565Y0218718D01*
X0685323Y0211372D02*
X0685992Y0211372D01*
X0685992Y0210704D02*
X0685323Y0210704D01*
X0685323Y0210037D02*
X0685992Y0210037D01*
X0685992Y0209369D02*
X0685323Y0209369D01*
X0685323Y0208701D02*
X0685992Y0208701D01*
X0685992Y0208033D02*
X0685323Y0208033D01*
X0688521Y0239097D02*
X0691781Y0239097D01*
X0694086Y0241402D01*
X0694086Y0244661D01*
X0691781Y0246966D01*
X0688521Y0246966D01*
X0686217Y0244661D01*
X0686217Y0241402D01*
X0688521Y0239097D01*
X0688198Y0239420D02*
X0682670Y0239420D01*
X0683338Y0240088D02*
X0687531Y0240088D01*
X0686863Y0240756D02*
X0684005Y0240756D01*
X0684486Y0241423D02*
X0686217Y0241423D01*
X0686217Y0242091D02*
X0684486Y0242091D01*
X0684486Y0243427D02*
X0686217Y0243427D01*
X0686217Y0244095D02*
X0684486Y0244095D01*
X0684486Y0244762D02*
X0686318Y0244762D01*
X0686985Y0245430D02*
X0683883Y0245430D01*
X0683215Y0246098D02*
X0687653Y0246098D01*
X0688321Y0246766D02*
X0682547Y0246766D01*
X0680486Y0246766D02*
X0679817Y0246766D01*
X0679817Y0246098D02*
X0680486Y0246098D01*
X0680486Y0245430D02*
X0679817Y0245430D01*
X0679817Y0244762D02*
X0680486Y0244762D01*
X0680486Y0244095D02*
X0679817Y0244095D01*
X0679817Y0243427D02*
X0680486Y0243427D01*
X0680486Y0242759D02*
X0686217Y0242759D01*
X0679817Y0242759D02*
X0674086Y0242759D01*
X0674086Y0243427D02*
X0675817Y0243427D01*
X0675817Y0244095D02*
X0674086Y0244095D01*
X0674086Y0244762D02*
X0675817Y0244762D01*
X0676420Y0245430D02*
X0674086Y0245430D01*
X0674086Y0246098D02*
X0677088Y0246098D01*
X0677755Y0246766D02*
X0673739Y0246766D01*
X0674086Y0242091D02*
X0675817Y0242091D01*
X0675817Y0241423D02*
X0674086Y0241423D01*
X0674086Y0240756D02*
X0676297Y0240756D01*
X0676965Y0240088D02*
X0674086Y0240088D01*
X0673861Y0239420D02*
X0677633Y0239420D01*
X0692104Y0239420D02*
X0698198Y0239420D01*
X0698521Y0239097D02*
X0701781Y0239097D01*
X0704086Y0241402D01*
X0704086Y0244661D01*
X0701781Y0246966D01*
X0698521Y0246966D01*
X0696217Y0244661D01*
X0696217Y0241402D01*
X0698521Y0239097D01*
X0697531Y0240088D02*
X0692772Y0240088D01*
X0693440Y0240756D02*
X0696863Y0240756D01*
X0696217Y0241423D02*
X0694086Y0241423D01*
X0694086Y0242091D02*
X0696217Y0242091D01*
X0696217Y0242759D02*
X0694086Y0242759D01*
X0694086Y0243427D02*
X0696217Y0243427D01*
X0696217Y0244095D02*
X0694086Y0244095D01*
X0693985Y0244762D02*
X0696318Y0244762D01*
X0696985Y0245430D02*
X0693317Y0245430D01*
X0692649Y0246098D02*
X0697653Y0246098D01*
X0698321Y0246766D02*
X0691981Y0246766D01*
X0701981Y0246766D02*
X0708321Y0246766D01*
X0707653Y0246098D02*
X0702649Y0246098D01*
X0703317Y0245430D02*
X0706985Y0245430D01*
X0706318Y0244762D02*
X0703985Y0244762D01*
X0704086Y0244095D02*
X0706217Y0244095D01*
X0706217Y0243427D02*
X0704086Y0243427D01*
X0704086Y0242759D02*
X0706217Y0242759D01*
X0706217Y0242091D02*
X0704086Y0242091D01*
X0704086Y0241423D02*
X0706217Y0241423D01*
X0706863Y0240756D02*
X0703440Y0240756D01*
X0702772Y0240088D02*
X0707531Y0240088D01*
X0708198Y0239420D02*
X0702104Y0239420D01*
X0712772Y0240088D02*
X0717531Y0240088D01*
X0716863Y0240756D02*
X0713440Y0240756D01*
X0714086Y0241423D02*
X0716217Y0241423D01*
X0716217Y0242091D02*
X0714086Y0242091D01*
X0714086Y0242759D02*
X0716217Y0242759D01*
X0716217Y0243427D02*
X0714086Y0243427D01*
X0714086Y0244095D02*
X0716217Y0244095D01*
X0716318Y0244762D02*
X0713985Y0244762D01*
X0713317Y0245430D02*
X0716985Y0245430D01*
X0717653Y0246098D02*
X0712649Y0246098D01*
X0711981Y0246766D02*
X0718321Y0246766D01*
X0731981Y0246766D02*
X0737755Y0246766D01*
X0737088Y0246098D02*
X0732649Y0246098D01*
X0733317Y0245430D02*
X0736420Y0245430D01*
X0735817Y0244762D02*
X0733985Y0244762D01*
X0734086Y0244095D02*
X0735817Y0244095D01*
X0735817Y0243427D02*
X0734086Y0243427D01*
X0734086Y0242759D02*
X0739817Y0242759D01*
X0739817Y0242697D02*
X0735817Y0242697D01*
X0735817Y0241236D01*
X0738356Y0238697D01*
X0739817Y0238697D01*
X0739817Y0242697D01*
X0739817Y0242091D02*
X0740486Y0242091D01*
X0740486Y0241423D02*
X0739817Y0241423D01*
X0739817Y0240756D02*
X0740486Y0240756D01*
X0740486Y0240088D02*
X0739817Y0240088D01*
X0739817Y0239420D02*
X0740486Y0239420D01*
X0740486Y0238752D02*
X0739817Y0238752D01*
X0738300Y0238752D02*
X0731660Y0238752D01*
X0732104Y0239420D02*
X0737633Y0239420D01*
X0736965Y0240088D02*
X0732772Y0240088D01*
X0733440Y0240756D02*
X0736297Y0240756D01*
X0735817Y0241423D02*
X0734086Y0241423D01*
X0734086Y0242091D02*
X0735817Y0242091D01*
D50*
X0719285Y0220035D03*
X0719285Y0217083D03*
X0719285Y0214130D03*
X0719285Y0211177D03*
X0715840Y0211177D03*
X0715840Y0214130D03*
X0715840Y0217083D03*
X0715840Y0220035D03*
X0712395Y0220035D03*
X0712395Y0217083D03*
X0712395Y0214130D03*
X0712395Y0211130D03*
X0708950Y0211177D03*
X0708950Y0214130D03*
X0708950Y0217083D03*
X0708950Y0220035D03*
X0705506Y0220035D03*
X0705506Y0217083D03*
X0705506Y0214130D03*
X0705506Y0211177D03*
D51*
X0757183Y0206512D03*
X0757576Y0214386D03*
X0766632Y0215961D03*
X0778049Y0210449D03*
X0767419Y0209268D03*
X0756395Y0195488D03*
X0756789Y0189583D03*
X0784939Y0187417D03*
X0801671Y0181118D03*
X0794781Y0174228D03*
X0804624Y0171276D03*
X0813482Y0173047D03*
X0824506Y0169504D03*
X0818206Y0162417D03*
X0808364Y0162811D03*
X0799702Y0162417D03*
X0804427Y0156512D03*
X0816632Y0152575D03*
X0803246Y0147850D03*
X0791435Y0147850D03*
X0775293Y0148638D03*
X0764466Y0154740D03*
X0748718Y0144504D03*
X0719781Y0135252D03*
X0694978Y0134858D03*
X0691435Y0134858D03*
X0691435Y0138402D03*
X0694978Y0138402D03*
X0693010Y0131315D03*
X0691435Y0127772D03*
X0694978Y0127772D03*
X0694978Y0124228D03*
X0691435Y0124228D03*
X0683561Y0126984D03*
X0662301Y0124228D03*
X0683364Y0119701D03*
X0715057Y0120291D03*
X0714663Y0112024D03*
X0708954Y0100016D03*
X0725687Y0080528D03*
X0692616Y0079740D03*
X0662301Y0133677D03*
X0706789Y0147850D03*
X0715057Y0147850D03*
X0693994Y0158677D03*
X0669387Y0151394D03*
X0830017Y0181709D03*
X0869387Y0183283D03*
X0861907Y0163598D03*
X0844978Y0162811D03*
X0856789Y0157299D03*
X0852458Y0148638D03*
X0865057Y0147850D03*
X0836710Y0145488D03*
X0828246Y0202181D03*
X0628443Y0225803D03*
X0614663Y0225803D03*
X0592025Y0301591D03*
X0614663Y0306512D03*
X0602852Y0312417D03*
X0564466Y0311433D03*
X0564466Y0301591D03*
D52*
X0602852Y0312417D02*
X0603911Y0313476D01*
X0611760Y0313476D01*
X0615960Y0313476D02*
X0619510Y0313476D01*
X0634348Y0298638D01*
X0634348Y0286827D01*
X0624506Y0286827D02*
X0624506Y0296669D01*
X0614663Y0306512D01*
X0624506Y0276984D02*
X0658758Y0242732D01*
X0661907Y0245488D02*
X0634348Y0273047D01*
X0634348Y0278953D01*
X0628443Y0225803D02*
X0628443Y0221329D01*
X0614663Y0221329D02*
X0614663Y0225803D01*
X0810234Y0202572D02*
X0810234Y0195824D01*
X0810250Y0195808D01*
X0810250Y0192028D01*
X0810332Y0191945D01*
X0820175Y0193126D02*
X0820175Y0197063D01*
X0820175Y0202513D01*
X0820234Y0202572D01*
X0820175Y0202631D01*
X0820175Y0207693D01*
X0815450Y0210055D02*
X0815450Y0202572D01*
X0815234Y0202572D01*
X0825234Y0202572D02*
X0827854Y0202572D01*
X0828246Y0202181D01*
X0820175Y0193126D02*
X0820175Y0188402D01*
X0693994Y0158677D02*
X0693797Y0158480D01*
X0693797Y0154313D01*
X0675293Y0151163D02*
X0675062Y0151394D01*
X0669387Y0151394D01*
X0706395Y0147457D02*
X0706395Y0143289D01*
X0706395Y0147457D02*
X0706789Y0147850D01*
X0715057Y0147850D02*
X0715450Y0147457D01*
X0715450Y0143289D01*
X0715450Y0135089D02*
X0719618Y0135089D01*
X0719781Y0135252D01*
X0715450Y0135089D02*
X0706395Y0135089D01*
X0709545Y0120454D02*
X0714894Y0120454D01*
X0715057Y0120291D01*
X0709545Y0120454D02*
X0702858Y0120454D01*
X0702798Y0120452D01*
X0702739Y0120447D01*
X0702680Y0120437D01*
X0702622Y0120424D01*
X0702564Y0120408D01*
X0702508Y0120387D01*
X0702454Y0120364D01*
X0702400Y0120336D01*
X0702349Y0120306D01*
X0702300Y0120273D01*
X0702252Y0120236D01*
X0702208Y0120197D01*
X0702165Y0120154D01*
X0702126Y0120110D01*
X0702089Y0120062D01*
X0702056Y0120013D01*
X0702026Y0119962D01*
X0701998Y0119908D01*
X0701975Y0119854D01*
X0701954Y0119798D01*
X0701938Y0119740D01*
X0701925Y0119682D01*
X0701915Y0119623D01*
X0701910Y0119564D01*
X0701908Y0119504D01*
X0687891Y0118967D02*
X0684098Y0118967D01*
X0683364Y0119701D01*
X0667256Y0124228D02*
X0662301Y0124228D01*
X0662301Y0133677D02*
X0667256Y0133677D01*
X0701159Y0111630D02*
X0708921Y0111630D01*
X0709545Y0112254D01*
X0714432Y0112254D01*
X0714663Y0112024D01*
X0712925Y0099819D02*
X0709151Y0099819D01*
X0708954Y0100016D01*
X0705574Y0100016D01*
X0705377Y0099819D01*
X0697177Y0080134D02*
X0696784Y0079740D01*
X0692616Y0079740D01*
X0721125Y0080134D02*
X0721519Y0080528D01*
X0725687Y0080528D01*
X0748718Y0144504D02*
X0752728Y0144504D01*
X0752728Y0145449D01*
X0760928Y0145449D02*
X0760928Y0144898D01*
D53*
X0742025Y0124819D03*
X0803639Y0191157D03*
X0807576Y0194701D03*
X0813482Y0194307D03*
X0814269Y0190370D03*
X0808364Y0188402D03*
X0820175Y0188402D03*
X0820175Y0193126D03*
X0820175Y0197063D03*
X0805214Y0204543D03*
X0799309Y0202575D03*
X0802065Y0198244D03*
X0797340Y0194701D03*
X0793797Y0201394D03*
X0793797Y0205724D03*
X0820175Y0207693D03*
X0601080Y0195685D03*
D54*
X0693858Y0212146D02*
X0695884Y0214531D01*
X0705506Y0225055D02*
X0705506Y0226210D01*
X0704368Y0227348D01*
X0704324Y0227348D01*
X0700884Y0230788D01*
X0671750Y0230788D01*
X0673323Y0232284D02*
X0674702Y0232284D01*
X0683167Y0232284D01*
X0683196Y0232255D01*
X0701430Y0232255D01*
X0707474Y0226210D01*
X0707474Y0225055D01*
X0709443Y0225055D02*
X0709443Y0226299D01*
X0701552Y0234189D01*
X0701559Y0236174D02*
X0711411Y0226322D01*
X0711411Y0225055D01*
X0711401Y0225065D01*
X0711401Y0225281D01*
X0711401Y0225065D02*
X0711401Y0224065D01*
X0701144Y0230788D02*
X0700884Y0230788D01*
X0711308Y0235375D02*
X0712169Y0234858D01*
D55*
X0700978Y0214622D02*
X0699242Y0214622D01*
X0699151Y0214531D01*
X0723813Y0214622D02*
X0725561Y0214622D01*
X0725651Y0214531D01*
X0730555Y0213622D02*
X0731179Y0212638D01*
D56*
X0729645Y0214531D01*
X0725651Y0214531D01*
X0699151Y0214531D02*
X0695884Y0214531D01*
D57*
X0706395Y0135089D02*
X0706395Y0133598D01*
X0698856Y0133598D01*
D58*
X0774435Y0193323D02*
X0775443Y0194331D01*
X1046513Y0299858D02*
X1063974Y0282398D01*
X1104328Y0282398D01*
X1115647Y0293717D01*
X1115647Y0313638D01*
X1115884Y0313874D01*
X1095884Y0313874D02*
X1090450Y0319307D01*
X1072340Y0319307D01*
X1066513Y0313480D01*
X1066513Y0308480D01*
X1056513Y0308480D02*
X1056513Y0303638D01*
X1069171Y0290980D01*
X1093777Y0290980D01*
X1105884Y0303087D01*
X1085884Y0303087D02*
X1081907Y0303087D01*
X1076513Y0308480D01*
X1046513Y0308480D02*
X1046513Y0299858D01*
D59*
X0694651Y0221531D03*
D60*
X0679624Y0263205D02*
X0762301Y0263205D01*
X0776080Y0276984D01*
D61*
X0679624Y0263205D02*
X0669781Y0253362D01*
M02*
