G75*
%MOIN*%
%OFA0B0*%
%FSLAX25Y25*%
%IPPOS*%
%LPD*%
%AMOC8*
5,1,8,0,0,1.08239X$1,22.5*
%
%ADD10R,0.03800X0.06000*%
%ADD11R,0.06000X0.03800*%
%ADD12OC8,0.06000*%
%ADD13R,0.04200X0.03500*%
%ADD14C,0.07087*%
%ADD15C,0.07000*%
%ADD16C,0.12268*%
%ADD17C,0.05700*%
%ADD18R,0.02165X0.05157*%
%ADD19R,0.03701X0.05157*%
%ADD20R,0.07400X0.07400*%
%ADD21C,0.07400*%
%ADD22R,0.06000X0.06000*%
%ADD23R,0.02700X0.03000*%
%ADD24C,0.00205*%
%ADD25R,0.01024X0.02756*%
%ADD26C,0.00472*%
%ADD27R,0.18110X0.14173*%
%ADD28R,0.06496X0.09449*%
%ADD29R,0.03150X0.01102*%
%ADD30R,0.02500X0.07000*%
%ADD31R,0.15157X0.21654*%
%ADD32R,0.04800X0.03600*%
%ADD33R,0.21654X0.15157*%
%ADD34R,0.05000X0.13386*%
%ADD35OC8,0.16205*%
%ADD36OC8,0.13252*%
%ADD37OC8,0.14236*%
%ADD38OC8,0.05906*%
%ADD39C,0.05906*%
%ADD40R,0.13386X0.05000*%
%ADD41C,0.01200*%
%ADD42R,0.11024X0.07874*%
%ADD43R,0.07874X0.11024*%
%ADD44C,0.00787*%
%ADD45C,0.00709*%
%ADD46C,0.01981*%
%ADD47C,0.00984*%
%ADD48C,0.03937*%
%ADD49C,0.00669*%
%ADD50R,0.02375X0.02375*%
%ADD51C,0.02953*%
%ADD52C,0.01969*%
%ADD53C,0.02178*%
%ADD54C,0.00630*%
%ADD55C,0.01000*%
%ADD56C,0.01600*%
%ADD57C,0.01181*%
%ADD58C,0.05906*%
%ADD59C,0.02375*%
%ADD60C,0.11811*%
%ADD61C,0.07874*%
D10*
X0667256Y0158118D03*
X0675456Y0158118D03*
X0675456Y0167567D03*
X0667256Y0167567D03*
X0752728Y0179339D03*
X0760928Y0179339D03*
X0721125Y0133709D03*
X0712925Y0133709D03*
X0705377Y0133709D03*
X0697177Y0133709D03*
X0697177Y0123866D03*
X0705377Y0123866D03*
X0712925Y0123866D03*
X0721125Y0123866D03*
X0721125Y0114024D03*
X0712925Y0114024D03*
X0705377Y0114024D03*
X0697177Y0114024D03*
X0693858Y0246035D03*
X0685658Y0246035D03*
X0731179Y0246528D03*
X0739379Y0246528D03*
D11*
X0693797Y0188202D03*
X0693797Y0180002D03*
X0706395Y0177179D03*
X0715450Y0177179D03*
X0715450Y0168979D03*
X0706395Y0168979D03*
X0675293Y0176853D03*
X0675293Y0185053D03*
X0709545Y0154344D03*
X0709545Y0146144D03*
D12*
X0514269Y0221071D03*
X0514269Y0231071D03*
X0514269Y0241071D03*
X0514269Y0251071D03*
X0670151Y0226921D03*
X0680151Y0226921D03*
X0690151Y0226921D03*
X0700151Y0226921D03*
X0710151Y0226921D03*
X0720151Y0226921D03*
X0730151Y0226921D03*
X0856789Y0262409D03*
X0856789Y0272409D03*
X0856789Y0282409D03*
X0856789Y0292409D03*
X0740151Y0276921D03*
X0730151Y0276921D03*
X0720151Y0276921D03*
X0710151Y0276921D03*
X0700151Y0276921D03*
X0690151Y0276921D03*
X0680151Y0276921D03*
X0709899Y0342370D03*
X0719899Y0342370D03*
X0729899Y0342370D03*
X0739899Y0342370D03*
X1046513Y0342370D03*
X1056513Y0342370D03*
X1066513Y0342370D03*
X1076513Y0342370D03*
D13*
X0741041Y0268211D03*
X0741041Y0261411D03*
X0628443Y0255219D03*
X0614663Y0255219D03*
X0614663Y0248419D03*
X0628443Y0248419D03*
X0687891Y0152857D03*
X0687891Y0146057D03*
D14*
X0742616Y0112055D03*
X0752458Y0112055D03*
X0762301Y0112055D03*
D15*
X0760332Y0169142D03*
X0752458Y0169142D03*
X0744584Y0169142D03*
X0736710Y0169142D03*
X0768206Y0169142D03*
D16*
X0774309Y0141583D03*
X0730608Y0141583D03*
D17*
X0645844Y0137213D03*
X0645844Y0147213D03*
X0635844Y0147213D03*
X0635844Y0157213D03*
X0645844Y0157213D03*
X0645844Y0167213D03*
X0645844Y0177213D03*
X0645844Y0187213D03*
X0645844Y0197213D03*
X0645844Y0207213D03*
X0625844Y0207213D03*
X0615844Y0207213D03*
X0615844Y0197213D03*
X0625844Y0197213D03*
X0625844Y0187213D03*
X0615844Y0187213D03*
X0615844Y0177213D03*
X0625844Y0177213D03*
X0625844Y0167213D03*
X0615844Y0167213D03*
X0585844Y0167213D03*
X0585844Y0177213D03*
X0585844Y0187213D03*
X0585844Y0197213D03*
X0585844Y0207213D03*
X0585844Y0217213D03*
X0585844Y0227213D03*
X0585844Y0237213D03*
X0615844Y0227213D03*
X0625844Y0227213D03*
X0625844Y0217213D03*
X0615844Y0217213D03*
X0645844Y0217213D03*
X0645844Y0227213D03*
X0645844Y0237213D03*
X0585844Y0157213D03*
X0585844Y0147213D03*
X0585844Y0137213D03*
X0585844Y0127213D03*
X0585844Y0117213D03*
X0585844Y0107213D03*
X0645844Y0107213D03*
X0645844Y0117213D03*
X0645844Y0127213D03*
D18*
X0694348Y0145520D03*
X0694348Y0153394D03*
X0701907Y0153394D03*
D19*
X0701159Y0145520D03*
D20*
X0559545Y0316780D03*
D21*
X0569545Y0316780D03*
X0579545Y0316780D03*
X0589545Y0316780D03*
X0599545Y0316780D03*
X0609545Y0316780D03*
X0619545Y0316780D03*
X0629545Y0316780D03*
X0639545Y0316780D03*
X0649545Y0316780D03*
X0659545Y0316780D03*
X0669545Y0316780D03*
X0679545Y0316780D03*
X0689545Y0316780D03*
X0699545Y0316780D03*
X0709545Y0316780D03*
D22*
X0670151Y0276921D03*
X0740151Y0226921D03*
D23*
X0736448Y0256937D03*
X0732248Y0256937D03*
X0730280Y0264024D03*
X0734480Y0264024D03*
X0734480Y0268748D03*
X0730280Y0268748D03*
X0725424Y0268748D03*
X0721224Y0268748D03*
X0721224Y0264024D03*
X0725424Y0264024D03*
X0716369Y0264024D03*
X0712169Y0264024D03*
X0712169Y0268748D03*
X0716369Y0268748D03*
X0690863Y0255441D03*
X0686663Y0255441D03*
X0615960Y0347366D03*
X0611760Y0347366D03*
D24*
X0699702Y0256796D02*
X0702254Y0256796D01*
X0702254Y0255976D01*
X0699702Y0255976D01*
X0699702Y0256796D01*
X0699702Y0256180D02*
X0702254Y0256180D01*
X0702254Y0256384D02*
X0699702Y0256384D01*
X0699702Y0256588D02*
X0702254Y0256588D01*
X0702254Y0256792D02*
X0699702Y0256792D01*
X0699702Y0254827D02*
X0702254Y0254827D01*
X0702254Y0254007D01*
X0699702Y0254007D01*
X0699702Y0254827D01*
X0699702Y0254211D02*
X0702254Y0254211D01*
X0702254Y0254415D02*
X0699702Y0254415D01*
X0699702Y0254619D02*
X0702254Y0254619D01*
X0702254Y0254823D02*
X0699702Y0254823D01*
X0699702Y0252859D02*
X0702254Y0252859D01*
X0702254Y0252039D01*
X0699702Y0252039D01*
X0699702Y0252859D01*
X0699702Y0252243D02*
X0702254Y0252243D01*
X0702254Y0252447D02*
X0699702Y0252447D01*
X0699702Y0252651D02*
X0702254Y0252651D01*
X0702254Y0252855D02*
X0699702Y0252855D01*
X0699702Y0250890D02*
X0702254Y0250890D01*
X0702254Y0250070D01*
X0699702Y0250070D01*
X0699702Y0250890D01*
X0699702Y0250274D02*
X0702254Y0250274D01*
X0702254Y0250478D02*
X0699702Y0250478D01*
X0699702Y0250682D02*
X0702254Y0250682D01*
X0702254Y0250886D02*
X0699702Y0250886D01*
X0699702Y0248922D02*
X0702254Y0248922D01*
X0702254Y0248102D01*
X0699702Y0248102D01*
X0699702Y0248922D01*
X0699702Y0248306D02*
X0702254Y0248306D01*
X0702254Y0248510D02*
X0699702Y0248510D01*
X0699702Y0248714D02*
X0702254Y0248714D01*
X0702254Y0248918D02*
X0699702Y0248918D01*
X0699702Y0246953D02*
X0702254Y0246953D01*
X0702254Y0246133D01*
X0699702Y0246133D01*
X0699702Y0246953D01*
X0699702Y0246337D02*
X0702254Y0246337D01*
X0702254Y0246541D02*
X0699702Y0246541D01*
X0699702Y0246745D02*
X0702254Y0246745D01*
X0702254Y0246949D02*
X0699702Y0246949D01*
X0699702Y0244985D02*
X0704222Y0244985D01*
X0704222Y0244165D01*
X0699702Y0244165D01*
X0699702Y0244985D01*
X0699702Y0244369D02*
X0704222Y0244369D01*
X0704222Y0244573D02*
X0699702Y0244573D01*
X0699702Y0244777D02*
X0704222Y0244777D01*
X0704222Y0244981D02*
X0699702Y0244981D01*
X0699702Y0243016D02*
X0702254Y0243016D01*
X0702254Y0242196D01*
X0699702Y0242196D01*
X0699702Y0243016D01*
X0699702Y0242400D02*
X0702254Y0242400D01*
X0702254Y0242604D02*
X0699702Y0242604D01*
X0699702Y0242808D02*
X0702254Y0242808D01*
X0702254Y0243012D02*
X0699702Y0243012D01*
X0703127Y0241323D02*
X0703127Y0238771D01*
X0703127Y0241323D02*
X0703947Y0241323D01*
X0703947Y0238771D01*
X0703127Y0238771D01*
X0703127Y0238975D02*
X0703947Y0238975D01*
X0703947Y0239179D02*
X0703127Y0239179D01*
X0703127Y0239383D02*
X0703947Y0239383D01*
X0703947Y0239587D02*
X0703127Y0239587D01*
X0703127Y0239791D02*
X0703947Y0239791D01*
X0703947Y0239995D02*
X0703127Y0239995D01*
X0703127Y0240199D02*
X0703947Y0240199D01*
X0703947Y0240403D02*
X0703127Y0240403D01*
X0703127Y0240607D02*
X0703947Y0240607D01*
X0703947Y0240811D02*
X0703127Y0240811D01*
X0703127Y0241015D02*
X0703947Y0241015D01*
X0703947Y0241219D02*
X0703127Y0241219D01*
X0705096Y0241323D02*
X0705096Y0238771D01*
X0705096Y0241323D02*
X0705916Y0241323D01*
X0705916Y0238771D01*
X0705096Y0238771D01*
X0705096Y0238975D02*
X0705916Y0238975D01*
X0705916Y0239179D02*
X0705096Y0239179D01*
X0705096Y0239383D02*
X0705916Y0239383D01*
X0705916Y0239587D02*
X0705096Y0239587D01*
X0705096Y0239791D02*
X0705916Y0239791D01*
X0705916Y0239995D02*
X0705096Y0239995D01*
X0705096Y0240199D02*
X0705916Y0240199D01*
X0705916Y0240403D02*
X0705096Y0240403D01*
X0705096Y0240607D02*
X0705916Y0240607D01*
X0705916Y0240811D02*
X0705096Y0240811D01*
X0705096Y0241015D02*
X0705916Y0241015D01*
X0705916Y0241219D02*
X0705096Y0241219D01*
X0707064Y0241323D02*
X0707064Y0238771D01*
X0707064Y0241323D02*
X0707884Y0241323D01*
X0707884Y0238771D01*
X0707064Y0238771D01*
X0707064Y0238975D02*
X0707884Y0238975D01*
X0707884Y0239179D02*
X0707064Y0239179D01*
X0707064Y0239383D02*
X0707884Y0239383D01*
X0707884Y0239587D02*
X0707064Y0239587D01*
X0707064Y0239791D02*
X0707884Y0239791D01*
X0707884Y0239995D02*
X0707064Y0239995D01*
X0707064Y0240199D02*
X0707884Y0240199D01*
X0707884Y0240403D02*
X0707064Y0240403D01*
X0707064Y0240607D02*
X0707884Y0240607D01*
X0707884Y0240811D02*
X0707064Y0240811D01*
X0707064Y0241015D02*
X0707884Y0241015D01*
X0707884Y0241219D02*
X0707064Y0241219D01*
X0709033Y0241323D02*
X0709033Y0238771D01*
X0709033Y0241323D02*
X0709853Y0241323D01*
X0709853Y0238771D01*
X0709033Y0238771D01*
X0709033Y0238975D02*
X0709853Y0238975D01*
X0709853Y0239179D02*
X0709033Y0239179D01*
X0709033Y0239383D02*
X0709853Y0239383D01*
X0709853Y0239587D02*
X0709033Y0239587D01*
X0709033Y0239791D02*
X0709853Y0239791D01*
X0709853Y0239995D02*
X0709033Y0239995D01*
X0709033Y0240199D02*
X0709853Y0240199D01*
X0709853Y0240403D02*
X0709033Y0240403D01*
X0709033Y0240607D02*
X0709853Y0240607D01*
X0709853Y0240811D02*
X0709033Y0240811D01*
X0709033Y0241015D02*
X0709853Y0241015D01*
X0709853Y0241219D02*
X0709033Y0241219D01*
X0711001Y0241323D02*
X0711001Y0238771D01*
X0711001Y0241323D02*
X0711821Y0241323D01*
X0711821Y0238771D01*
X0711001Y0238771D01*
X0711001Y0238975D02*
X0711821Y0238975D01*
X0711821Y0239179D02*
X0711001Y0239179D01*
X0711001Y0239383D02*
X0711821Y0239383D01*
X0711821Y0239587D02*
X0711001Y0239587D01*
X0711001Y0239791D02*
X0711821Y0239791D01*
X0711821Y0239995D02*
X0711001Y0239995D01*
X0711001Y0240199D02*
X0711821Y0240199D01*
X0711821Y0240403D02*
X0711001Y0240403D01*
X0711001Y0240607D02*
X0711821Y0240607D01*
X0711821Y0240811D02*
X0711001Y0240811D01*
X0711001Y0241015D02*
X0711821Y0241015D01*
X0711821Y0241219D02*
X0711001Y0241219D01*
X0712970Y0241323D02*
X0712970Y0238771D01*
X0712970Y0241323D02*
X0713790Y0241323D01*
X0713790Y0238771D01*
X0712970Y0238771D01*
X0712970Y0238975D02*
X0713790Y0238975D01*
X0713790Y0239179D02*
X0712970Y0239179D01*
X0712970Y0239383D02*
X0713790Y0239383D01*
X0713790Y0239587D02*
X0712970Y0239587D01*
X0712970Y0239791D02*
X0713790Y0239791D01*
X0713790Y0239995D02*
X0712970Y0239995D01*
X0712970Y0240199D02*
X0713790Y0240199D01*
X0713790Y0240403D02*
X0712970Y0240403D01*
X0712970Y0240607D02*
X0713790Y0240607D01*
X0713790Y0240811D02*
X0712970Y0240811D01*
X0712970Y0241015D02*
X0713790Y0241015D01*
X0713790Y0241219D02*
X0712970Y0241219D01*
X0714938Y0241323D02*
X0714938Y0238771D01*
X0714938Y0241323D02*
X0715758Y0241323D01*
X0715758Y0238771D01*
X0714938Y0238771D01*
X0714938Y0238975D02*
X0715758Y0238975D01*
X0715758Y0239179D02*
X0714938Y0239179D01*
X0714938Y0239383D02*
X0715758Y0239383D01*
X0715758Y0239587D02*
X0714938Y0239587D01*
X0714938Y0239791D02*
X0715758Y0239791D01*
X0715758Y0239995D02*
X0714938Y0239995D01*
X0714938Y0240199D02*
X0715758Y0240199D01*
X0715758Y0240403D02*
X0714938Y0240403D01*
X0714938Y0240607D02*
X0715758Y0240607D01*
X0715758Y0240811D02*
X0714938Y0240811D01*
X0714938Y0241015D02*
X0715758Y0241015D01*
X0715758Y0241219D02*
X0714938Y0241219D01*
X0716907Y0241323D02*
X0716907Y0238771D01*
X0716907Y0241323D02*
X0717727Y0241323D01*
X0717727Y0238771D01*
X0716907Y0238771D01*
X0716907Y0238975D02*
X0717727Y0238975D01*
X0717727Y0239179D02*
X0716907Y0239179D01*
X0716907Y0239383D02*
X0717727Y0239383D01*
X0717727Y0239587D02*
X0716907Y0239587D01*
X0716907Y0239791D02*
X0717727Y0239791D01*
X0717727Y0239995D02*
X0716907Y0239995D01*
X0716907Y0240199D02*
X0717727Y0240199D01*
X0717727Y0240403D02*
X0716907Y0240403D01*
X0716907Y0240607D02*
X0717727Y0240607D01*
X0717727Y0240811D02*
X0716907Y0240811D01*
X0716907Y0241015D02*
X0717727Y0241015D01*
X0717727Y0241219D02*
X0716907Y0241219D01*
X0718875Y0241323D02*
X0718875Y0238771D01*
X0718875Y0241323D02*
X0719695Y0241323D01*
X0719695Y0238771D01*
X0718875Y0238771D01*
X0718875Y0238975D02*
X0719695Y0238975D01*
X0719695Y0239179D02*
X0718875Y0239179D01*
X0718875Y0239383D02*
X0719695Y0239383D01*
X0719695Y0239587D02*
X0718875Y0239587D01*
X0718875Y0239791D02*
X0719695Y0239791D01*
X0719695Y0239995D02*
X0718875Y0239995D01*
X0718875Y0240199D02*
X0719695Y0240199D01*
X0719695Y0240403D02*
X0718875Y0240403D01*
X0718875Y0240607D02*
X0719695Y0240607D01*
X0719695Y0240811D02*
X0718875Y0240811D01*
X0718875Y0241015D02*
X0719695Y0241015D01*
X0719695Y0241219D02*
X0718875Y0241219D01*
X0720844Y0241323D02*
X0720844Y0238771D01*
X0720844Y0241323D02*
X0721664Y0241323D01*
X0721664Y0238771D01*
X0720844Y0238771D01*
X0720844Y0238975D02*
X0721664Y0238975D01*
X0721664Y0239179D02*
X0720844Y0239179D01*
X0720844Y0239383D02*
X0721664Y0239383D01*
X0721664Y0239587D02*
X0720844Y0239587D01*
X0720844Y0239791D02*
X0721664Y0239791D01*
X0721664Y0239995D02*
X0720844Y0239995D01*
X0720844Y0240199D02*
X0721664Y0240199D01*
X0721664Y0240403D02*
X0720844Y0240403D01*
X0720844Y0240607D02*
X0721664Y0240607D01*
X0721664Y0240811D02*
X0720844Y0240811D01*
X0720844Y0241015D02*
X0721664Y0241015D01*
X0721664Y0241219D02*
X0720844Y0241219D01*
X0722537Y0242196D02*
X0725089Y0242196D01*
X0722537Y0242196D02*
X0722537Y0243016D01*
X0725089Y0243016D01*
X0725089Y0242196D01*
X0725089Y0242400D02*
X0722537Y0242400D01*
X0722537Y0242604D02*
X0725089Y0242604D01*
X0725089Y0242808D02*
X0722537Y0242808D01*
X0722537Y0243012D02*
X0725089Y0243012D01*
X0725088Y0244165D02*
X0720568Y0244165D01*
X0720568Y0244985D01*
X0725088Y0244985D01*
X0725088Y0244165D01*
X0725088Y0244369D02*
X0720568Y0244369D01*
X0720568Y0244573D02*
X0725088Y0244573D01*
X0725088Y0244777D02*
X0720568Y0244777D01*
X0720568Y0244981D02*
X0725088Y0244981D01*
X0725089Y0246133D02*
X0722537Y0246133D01*
X0722537Y0246953D01*
X0725089Y0246953D01*
X0725089Y0246133D01*
X0725089Y0246337D02*
X0722537Y0246337D01*
X0722537Y0246541D02*
X0725089Y0246541D01*
X0725089Y0246745D02*
X0722537Y0246745D01*
X0722537Y0246949D02*
X0725089Y0246949D01*
X0725089Y0248102D02*
X0722537Y0248102D01*
X0722537Y0248922D01*
X0725089Y0248922D01*
X0725089Y0248102D01*
X0725089Y0248306D02*
X0722537Y0248306D01*
X0722537Y0248510D02*
X0725089Y0248510D01*
X0725089Y0248714D02*
X0722537Y0248714D01*
X0722537Y0248918D02*
X0725089Y0248918D01*
X0725089Y0250070D02*
X0722537Y0250070D01*
X0722537Y0250890D01*
X0725089Y0250890D01*
X0725089Y0250070D01*
X0725089Y0250274D02*
X0722537Y0250274D01*
X0722537Y0250478D02*
X0725089Y0250478D01*
X0725089Y0250682D02*
X0722537Y0250682D01*
X0722537Y0250886D02*
X0725089Y0250886D01*
X0725089Y0252039D02*
X0722537Y0252039D01*
X0722537Y0252859D01*
X0725089Y0252859D01*
X0725089Y0252039D01*
X0725089Y0252243D02*
X0722537Y0252243D01*
X0722537Y0252447D02*
X0725089Y0252447D01*
X0725089Y0252651D02*
X0722537Y0252651D01*
X0722537Y0252855D02*
X0725089Y0252855D01*
X0725089Y0254007D02*
X0722537Y0254007D01*
X0722537Y0254827D01*
X0725089Y0254827D01*
X0725089Y0254007D01*
X0725089Y0254211D02*
X0722537Y0254211D01*
X0722537Y0254415D02*
X0725089Y0254415D01*
X0725089Y0254619D02*
X0722537Y0254619D01*
X0722537Y0254823D02*
X0725089Y0254823D01*
X0725089Y0255976D02*
X0722537Y0255976D01*
X0722537Y0256796D01*
X0725089Y0256796D01*
X0725089Y0255976D01*
X0725089Y0256180D02*
X0722537Y0256180D01*
X0722537Y0256384D02*
X0725089Y0256384D01*
X0725089Y0256588D02*
X0722537Y0256588D01*
X0722537Y0256792D02*
X0725089Y0256792D01*
X0719695Y0257669D02*
X0719695Y0260221D01*
X0719695Y0257669D02*
X0718875Y0257669D01*
X0718875Y0260221D01*
X0719695Y0260221D01*
X0719695Y0257873D02*
X0718875Y0257873D01*
X0718875Y0258077D02*
X0719695Y0258077D01*
X0719695Y0258281D02*
X0718875Y0258281D01*
X0718875Y0258485D02*
X0719695Y0258485D01*
X0719695Y0258689D02*
X0718875Y0258689D01*
X0718875Y0258893D02*
X0719695Y0258893D01*
X0719695Y0259097D02*
X0718875Y0259097D01*
X0718875Y0259301D02*
X0719695Y0259301D01*
X0719695Y0259505D02*
X0718875Y0259505D01*
X0718875Y0259709D02*
X0719695Y0259709D01*
X0719695Y0259913D02*
X0718875Y0259913D01*
X0718875Y0260117D02*
X0719695Y0260117D01*
X0717727Y0260221D02*
X0717727Y0257669D01*
X0716907Y0257669D01*
X0716907Y0260221D01*
X0717727Y0260221D01*
X0717727Y0257873D02*
X0716907Y0257873D01*
X0716907Y0258077D02*
X0717727Y0258077D01*
X0717727Y0258281D02*
X0716907Y0258281D01*
X0716907Y0258485D02*
X0717727Y0258485D01*
X0717727Y0258689D02*
X0716907Y0258689D01*
X0716907Y0258893D02*
X0717727Y0258893D01*
X0717727Y0259097D02*
X0716907Y0259097D01*
X0716907Y0259301D02*
X0717727Y0259301D01*
X0717727Y0259505D02*
X0716907Y0259505D01*
X0716907Y0259709D02*
X0717727Y0259709D01*
X0717727Y0259913D02*
X0716907Y0259913D01*
X0716907Y0260117D02*
X0717727Y0260117D01*
X0715758Y0260221D02*
X0715758Y0257669D01*
X0714938Y0257669D01*
X0714938Y0260221D01*
X0715758Y0260221D01*
X0715758Y0257873D02*
X0714938Y0257873D01*
X0714938Y0258077D02*
X0715758Y0258077D01*
X0715758Y0258281D02*
X0714938Y0258281D01*
X0714938Y0258485D02*
X0715758Y0258485D01*
X0715758Y0258689D02*
X0714938Y0258689D01*
X0714938Y0258893D02*
X0715758Y0258893D01*
X0715758Y0259097D02*
X0714938Y0259097D01*
X0714938Y0259301D02*
X0715758Y0259301D01*
X0715758Y0259505D02*
X0714938Y0259505D01*
X0714938Y0259709D02*
X0715758Y0259709D01*
X0715758Y0259913D02*
X0714938Y0259913D01*
X0714938Y0260117D02*
X0715758Y0260117D01*
X0713790Y0260221D02*
X0713790Y0255701D01*
X0712970Y0255701D01*
X0712970Y0260221D01*
X0713790Y0260221D01*
X0713790Y0255905D02*
X0712970Y0255905D01*
X0712970Y0256109D02*
X0713790Y0256109D01*
X0713790Y0256313D02*
X0712970Y0256313D01*
X0712970Y0256517D02*
X0713790Y0256517D01*
X0713790Y0256721D02*
X0712970Y0256721D01*
X0712970Y0256925D02*
X0713790Y0256925D01*
X0713790Y0257129D02*
X0712970Y0257129D01*
X0712970Y0257333D02*
X0713790Y0257333D01*
X0713790Y0257537D02*
X0712970Y0257537D01*
X0712970Y0257741D02*
X0713790Y0257741D01*
X0713790Y0257945D02*
X0712970Y0257945D01*
X0712970Y0258149D02*
X0713790Y0258149D01*
X0713790Y0258353D02*
X0712970Y0258353D01*
X0712970Y0258557D02*
X0713790Y0258557D01*
X0713790Y0258761D02*
X0712970Y0258761D01*
X0712970Y0258965D02*
X0713790Y0258965D01*
X0713790Y0259169D02*
X0712970Y0259169D01*
X0712970Y0259373D02*
X0713790Y0259373D01*
X0713790Y0259577D02*
X0712970Y0259577D01*
X0712970Y0259781D02*
X0713790Y0259781D01*
X0713790Y0259985D02*
X0712970Y0259985D01*
X0712970Y0260189D02*
X0713790Y0260189D01*
X0711821Y0260221D02*
X0711821Y0257669D01*
X0711001Y0257669D01*
X0711001Y0260221D01*
X0711821Y0260221D01*
X0711821Y0257873D02*
X0711001Y0257873D01*
X0711001Y0258077D02*
X0711821Y0258077D01*
X0711821Y0258281D02*
X0711001Y0258281D01*
X0711001Y0258485D02*
X0711821Y0258485D01*
X0711821Y0258689D02*
X0711001Y0258689D01*
X0711001Y0258893D02*
X0711821Y0258893D01*
X0711821Y0259097D02*
X0711001Y0259097D01*
X0711001Y0259301D02*
X0711821Y0259301D01*
X0711821Y0259505D02*
X0711001Y0259505D01*
X0711001Y0259709D02*
X0711821Y0259709D01*
X0711821Y0259913D02*
X0711001Y0259913D01*
X0711001Y0260117D02*
X0711821Y0260117D01*
X0709853Y0260221D02*
X0709853Y0257669D01*
X0709033Y0257669D01*
X0709033Y0260221D01*
X0709853Y0260221D01*
X0709853Y0257873D02*
X0709033Y0257873D01*
X0709033Y0258077D02*
X0709853Y0258077D01*
X0709853Y0258281D02*
X0709033Y0258281D01*
X0709033Y0258485D02*
X0709853Y0258485D01*
X0709853Y0258689D02*
X0709033Y0258689D01*
X0709033Y0258893D02*
X0709853Y0258893D01*
X0709853Y0259097D02*
X0709033Y0259097D01*
X0709033Y0259301D02*
X0709853Y0259301D01*
X0709853Y0259505D02*
X0709033Y0259505D01*
X0709033Y0259709D02*
X0709853Y0259709D01*
X0709853Y0259913D02*
X0709033Y0259913D01*
X0709033Y0260117D02*
X0709853Y0260117D01*
X0707884Y0260221D02*
X0707884Y0257669D01*
X0707064Y0257669D01*
X0707064Y0260221D01*
X0707884Y0260221D01*
X0707884Y0257873D02*
X0707064Y0257873D01*
X0707064Y0258077D02*
X0707884Y0258077D01*
X0707884Y0258281D02*
X0707064Y0258281D01*
X0707064Y0258485D02*
X0707884Y0258485D01*
X0707884Y0258689D02*
X0707064Y0258689D01*
X0707064Y0258893D02*
X0707884Y0258893D01*
X0707884Y0259097D02*
X0707064Y0259097D01*
X0707064Y0259301D02*
X0707884Y0259301D01*
X0707884Y0259505D02*
X0707064Y0259505D01*
X0707064Y0259709D02*
X0707884Y0259709D01*
X0707884Y0259913D02*
X0707064Y0259913D01*
X0707064Y0260117D02*
X0707884Y0260117D01*
X0705916Y0260221D02*
X0705916Y0257669D01*
X0705096Y0257669D01*
X0705096Y0260221D01*
X0705916Y0260221D01*
X0705916Y0257873D02*
X0705096Y0257873D01*
X0705096Y0258077D02*
X0705916Y0258077D01*
X0705916Y0258281D02*
X0705096Y0258281D01*
X0705096Y0258485D02*
X0705916Y0258485D01*
X0705916Y0258689D02*
X0705096Y0258689D01*
X0705096Y0258893D02*
X0705916Y0258893D01*
X0705916Y0259097D02*
X0705096Y0259097D01*
X0705096Y0259301D02*
X0705916Y0259301D01*
X0705916Y0259505D02*
X0705096Y0259505D01*
X0705096Y0259709D02*
X0705916Y0259709D01*
X0705916Y0259913D02*
X0705096Y0259913D01*
X0705096Y0260117D02*
X0705916Y0260117D01*
X0703947Y0260221D02*
X0703947Y0257669D01*
X0703127Y0257669D01*
X0703127Y0260221D01*
X0703947Y0260221D01*
X0703947Y0257873D02*
X0703127Y0257873D01*
X0703127Y0258077D02*
X0703947Y0258077D01*
X0703947Y0258281D02*
X0703127Y0258281D01*
X0703127Y0258485D02*
X0703947Y0258485D01*
X0703947Y0258689D02*
X0703127Y0258689D01*
X0703127Y0258893D02*
X0703947Y0258893D01*
X0703947Y0259097D02*
X0703127Y0259097D01*
X0703127Y0259301D02*
X0703947Y0259301D01*
X0703947Y0259505D02*
X0703127Y0259505D01*
X0703127Y0259709D02*
X0703947Y0259709D01*
X0703947Y0259913D02*
X0703127Y0259913D01*
X0703127Y0260117D02*
X0703947Y0260117D01*
D25*
X0721254Y0258945D03*
D26*
X0713340Y0250441D02*
X0713340Y0248551D01*
X0711450Y0248551D01*
X0711450Y0250441D01*
X0713340Y0250441D01*
X0713340Y0249022D02*
X0711450Y0249022D01*
X0711450Y0249493D02*
X0713340Y0249493D01*
X0713340Y0249964D02*
X0711450Y0249964D01*
X0711450Y0250435D02*
X0713340Y0250435D01*
D27*
X0712395Y0249496D03*
D28*
X0693049Y0165520D03*
D29*
X0698856Y0165520D03*
X0698856Y0167488D03*
X0698856Y0169457D03*
X0698856Y0163551D03*
X0698856Y0161583D03*
X0687242Y0161583D03*
X0687242Y0163551D03*
X0687242Y0165520D03*
X0687242Y0167488D03*
X0687242Y0169457D03*
D30*
X0810234Y0214362D03*
X0815234Y0214262D03*
X0820234Y0214262D03*
X0825234Y0214262D03*
X0825234Y0236462D03*
X0820234Y0236462D03*
X0815234Y0236462D03*
X0810234Y0236462D03*
D31*
X0802458Y0269929D03*
X0763088Y0269929D03*
D32*
X0797931Y0237252D03*
X0797931Y0223079D03*
D33*
X0775443Y0228220D03*
X0849498Y0214102D03*
X0775443Y0198299D03*
X0849498Y0244024D03*
D34*
X1085884Y0336976D03*
X1095884Y0347764D03*
X1115884Y0347764D03*
X1105884Y0336976D03*
G36*
X1218507Y0149102D02*
X1214971Y0145566D01*
X1205507Y0155030D01*
X1209043Y0158566D01*
X1218507Y0149102D01*
G37*
G36*
X1219064Y0134403D02*
X1215528Y0130867D01*
X1206064Y0140331D01*
X1209600Y0143867D01*
X1219064Y0134403D01*
G37*
G36*
X1204365Y0134960D02*
X1200829Y0131424D01*
X1191365Y0140888D01*
X1194901Y0144424D01*
X1204365Y0134960D01*
G37*
G36*
X1204922Y0120261D02*
X1201386Y0116725D01*
X1191922Y0126189D01*
X1195458Y0129725D01*
X1204922Y0120261D01*
G37*
G36*
X0933229Y0137353D02*
X0936765Y0133817D01*
X0927301Y0124353D01*
X0923765Y0127889D01*
X0933229Y0137353D01*
G37*
G36*
X0919087Y0151495D02*
X0922623Y0147959D01*
X0913159Y0138495D01*
X0909623Y0142031D01*
X0919087Y0151495D01*
G37*
G36*
X0904388Y0150938D02*
X0907924Y0147402D01*
X0898460Y0137938D01*
X0894924Y0141474D01*
X0904388Y0150938D01*
G37*
G36*
X0918530Y0136796D02*
X0922066Y0133260D01*
X0912602Y0123796D01*
X0909066Y0127332D01*
X0918530Y0136796D01*
G37*
D35*
X0776080Y0310874D03*
D36*
X0776080Y0334496D03*
D37*
X0793797Y0338418D03*
X0758364Y0338418D03*
D38*
X0677655Y0127961D03*
X0677655Y0107961D03*
D39*
X0659545Y0110874D03*
D40*
X0895647Y0221071D03*
X0884860Y0231071D03*
X0895647Y0241071D03*
X0884860Y0251071D03*
X1227380Y0272409D03*
X1238167Y0262409D03*
X1238167Y0282409D03*
X1227380Y0292409D03*
D41*
X0527454Y0147858D02*
X0526854Y0147258D01*
X0526854Y0149246D01*
X0528259Y0150651D01*
X0530247Y0150651D01*
X0531652Y0149246D01*
X0531652Y0147258D01*
X0530247Y0145853D01*
X0528259Y0145853D01*
X0526854Y0147258D01*
X0527754Y0147631D01*
X0527754Y0148873D01*
X0528632Y0149751D01*
X0529874Y0149751D01*
X0530752Y0148873D01*
X0530752Y0147631D01*
X0529874Y0146753D01*
X0528632Y0146753D01*
X0527754Y0147631D01*
X0528654Y0148004D01*
X0528654Y0148500D01*
X0529005Y0148851D01*
X0529501Y0148851D01*
X0529852Y0148500D01*
X0529852Y0148004D01*
X0529501Y0147653D01*
X0529005Y0147653D01*
X0528654Y0148004D01*
X0534525Y0140787D02*
X0533925Y0140187D01*
X0533925Y0142175D01*
X0535330Y0143580D01*
X0537318Y0143580D01*
X0538723Y0142175D01*
X0538723Y0140187D01*
X0537318Y0138782D01*
X0535330Y0138782D01*
X0533925Y0140187D01*
X0534825Y0140560D01*
X0534825Y0141802D01*
X0535703Y0142680D01*
X0536945Y0142680D01*
X0537823Y0141802D01*
X0537823Y0140560D01*
X0536945Y0139682D01*
X0535703Y0139682D01*
X0534825Y0140560D01*
X0535725Y0140933D01*
X0535725Y0141429D01*
X0536076Y0141780D01*
X0536572Y0141780D01*
X0536923Y0141429D01*
X0536923Y0140933D01*
X0536572Y0140582D01*
X0536076Y0140582D01*
X0535725Y0140933D01*
X0541596Y0133716D02*
X0540996Y0133116D01*
X0540996Y0135104D01*
X0542401Y0136509D01*
X0544389Y0136509D01*
X0545794Y0135104D01*
X0545794Y0133116D01*
X0544389Y0131711D01*
X0542401Y0131711D01*
X0540996Y0133116D01*
X0541896Y0133489D01*
X0541896Y0134731D01*
X0542774Y0135609D01*
X0544016Y0135609D01*
X0544894Y0134731D01*
X0544894Y0133489D01*
X0544016Y0132611D01*
X0542774Y0132611D01*
X0541896Y0133489D01*
X0542796Y0133862D01*
X0542796Y0134358D01*
X0543147Y0134709D01*
X0543643Y0134709D01*
X0543994Y0134358D01*
X0543994Y0133862D01*
X0543643Y0133511D01*
X0543147Y0133511D01*
X0542796Y0133862D01*
X0548667Y0126645D02*
X0548067Y0126045D01*
X0548067Y0128033D01*
X0549472Y0129438D01*
X0551460Y0129438D01*
X0552865Y0128033D01*
X0552865Y0126045D01*
X0551460Y0124640D01*
X0549472Y0124640D01*
X0548067Y0126045D01*
X0548967Y0126418D01*
X0548967Y0127660D01*
X0549845Y0128538D01*
X0551087Y0128538D01*
X0551965Y0127660D01*
X0551965Y0126418D01*
X0551087Y0125540D01*
X0549845Y0125540D01*
X0548967Y0126418D01*
X0549867Y0126791D01*
X0549867Y0127287D01*
X0550218Y0127638D01*
X0550714Y0127638D01*
X0551065Y0127287D01*
X0551065Y0126791D01*
X0550714Y0126440D01*
X0550218Y0126440D01*
X0549867Y0126791D01*
X0818229Y0128838D02*
X0817629Y0129438D01*
X0819617Y0129438D01*
X0821022Y0128033D01*
X0821022Y0126045D01*
X0819617Y0124640D01*
X0817629Y0124640D01*
X0816224Y0126045D01*
X0816224Y0128033D01*
X0817629Y0129438D01*
X0818002Y0128538D01*
X0819244Y0128538D01*
X0820122Y0127660D01*
X0820122Y0126418D01*
X0819244Y0125540D01*
X0818002Y0125540D01*
X0817124Y0126418D01*
X0817124Y0127660D01*
X0818002Y0128538D01*
X0818375Y0127638D01*
X0818871Y0127638D01*
X0819222Y0127287D01*
X0819222Y0126791D01*
X0818871Y0126440D01*
X0818375Y0126440D01*
X0818024Y0126791D01*
X0818024Y0127287D01*
X0818375Y0127638D01*
X0825300Y0135909D02*
X0824700Y0136509D01*
X0826688Y0136509D01*
X0828093Y0135104D01*
X0828093Y0133116D01*
X0826688Y0131711D01*
X0824700Y0131711D01*
X0823295Y0133116D01*
X0823295Y0135104D01*
X0824700Y0136509D01*
X0825073Y0135609D01*
X0826315Y0135609D01*
X0827193Y0134731D01*
X0827193Y0133489D01*
X0826315Y0132611D01*
X0825073Y0132611D01*
X0824195Y0133489D01*
X0824195Y0134731D01*
X0825073Y0135609D01*
X0825446Y0134709D01*
X0825942Y0134709D01*
X0826293Y0134358D01*
X0826293Y0133862D01*
X0825942Y0133511D01*
X0825446Y0133511D01*
X0825095Y0133862D01*
X0825095Y0134358D01*
X0825446Y0134709D01*
X0832372Y0142980D02*
X0831772Y0143580D01*
X0833760Y0143580D01*
X0835165Y0142175D01*
X0835165Y0140187D01*
X0833760Y0138782D01*
X0831772Y0138782D01*
X0830367Y0140187D01*
X0830367Y0142175D01*
X0831772Y0143580D01*
X0832145Y0142680D01*
X0833387Y0142680D01*
X0834265Y0141802D01*
X0834265Y0140560D01*
X0833387Y0139682D01*
X0832145Y0139682D01*
X0831267Y0140560D01*
X0831267Y0141802D01*
X0832145Y0142680D01*
X0832518Y0141780D01*
X0833014Y0141780D01*
X0833365Y0141429D01*
X0833365Y0140933D01*
X0833014Y0140582D01*
X0832518Y0140582D01*
X0832167Y0140933D01*
X0832167Y0141429D01*
X0832518Y0141780D01*
X0839443Y0150051D02*
X0838843Y0150651D01*
X0840831Y0150651D01*
X0842236Y0149246D01*
X0842236Y0147258D01*
X0840831Y0145853D01*
X0838843Y0145853D01*
X0837438Y0147258D01*
X0837438Y0149246D01*
X0838843Y0150651D01*
X0839216Y0149751D01*
X0840458Y0149751D01*
X0841336Y0148873D01*
X0841336Y0147631D01*
X0840458Y0146753D01*
X0839216Y0146753D01*
X0838338Y0147631D01*
X0838338Y0148873D01*
X0839216Y0149751D01*
X0839589Y0148851D01*
X0840085Y0148851D01*
X0840436Y0148500D01*
X0840436Y0148004D01*
X0840085Y0147653D01*
X0839589Y0147653D01*
X0839238Y0148004D01*
X0839238Y0148500D01*
X0839589Y0148851D01*
D42*
X0900884Y0190008D03*
X1222143Y0189614D03*
D43*
X1107183Y0182134D03*
D44*
X1073324Y0182361D02*
X1248679Y0182361D01*
X1248679Y0183147D02*
X1073324Y0183147D01*
X1073324Y0183933D02*
X1248679Y0183933D01*
X1248679Y0184719D02*
X1073324Y0184719D01*
X1073324Y0185504D02*
X1248679Y0185504D01*
X1248679Y0186290D02*
X1073324Y0186290D01*
X1073324Y0187076D02*
X1248679Y0187076D01*
X1248679Y0187862D02*
X1073324Y0187862D01*
X1073324Y0188648D02*
X1248679Y0188648D01*
X1248679Y0189434D02*
X1073324Y0189434D01*
X1073324Y0190220D02*
X1248679Y0190220D01*
X1248679Y0191006D02*
X1073324Y0191006D01*
X1073324Y0191792D02*
X1248679Y0191792D01*
X1248679Y0192578D02*
X1073324Y0192578D01*
X1073324Y0193364D02*
X1248679Y0193364D01*
X1248679Y0194150D02*
X1073324Y0194150D01*
X1073324Y0194935D02*
X1248679Y0194935D01*
X1248679Y0195721D02*
X1073324Y0195721D01*
X1073324Y0196507D02*
X1248679Y0196507D01*
X1248679Y0197293D02*
X1073324Y0197293D01*
X1073324Y0198079D02*
X1248679Y0198079D01*
X1248679Y0198865D02*
X1204220Y0198865D01*
X1204920Y0199064D02*
X1204920Y0199064D01*
X1202379Y0198342D01*
X1202379Y0198342D01*
X1199809Y0198949D01*
X1199809Y0198949D01*
X1197961Y0200638D01*
X1073324Y0200638D01*
X1073324Y0096307D01*
X1248679Y0096307D01*
X1248679Y0202606D01*
X1207264Y0202606D01*
X1206788Y0200932D01*
X1206788Y0200932D01*
X1204920Y0199064D01*
X1205507Y0199651D02*
X1248679Y0199651D01*
X1248679Y0200437D02*
X1206293Y0200437D01*
X1206871Y0201223D02*
X1248679Y0201223D01*
X1248679Y0202009D02*
X1207094Y0202009D01*
X1200164Y0198865D02*
X1073324Y0198865D01*
X1073324Y0199651D02*
X1199041Y0199651D01*
X1198181Y0200437D02*
X1073324Y0200437D01*
X1073324Y0181575D02*
X1248679Y0181575D01*
X1248679Y0180789D02*
X1073324Y0180789D01*
X1073324Y0180003D02*
X1248679Y0180003D01*
X1248679Y0179217D02*
X1073324Y0179217D01*
X1073324Y0178431D02*
X1248679Y0178431D01*
X1248679Y0177645D02*
X1073324Y0177645D01*
X1073324Y0176859D02*
X1248679Y0176859D01*
X1248679Y0176074D02*
X1073324Y0176074D01*
X1073324Y0175288D02*
X1248679Y0175288D01*
X1248679Y0174502D02*
X1073324Y0174502D01*
X1073324Y0173716D02*
X1248679Y0173716D01*
X1248679Y0172930D02*
X1073324Y0172930D01*
X1073324Y0172144D02*
X1248679Y0172144D01*
X1248679Y0171358D02*
X1073324Y0171358D01*
X1073324Y0170572D02*
X1248679Y0170572D01*
X1248679Y0169786D02*
X1073324Y0169786D01*
X1073324Y0169000D02*
X1248679Y0169000D01*
X1248679Y0168214D02*
X1073324Y0168214D01*
X1073324Y0167428D02*
X1248679Y0167428D01*
X1248679Y0166643D02*
X1073324Y0166643D01*
X1073324Y0165857D02*
X1248679Y0165857D01*
X1248679Y0165071D02*
X1073324Y0165071D01*
X1073324Y0164285D02*
X1248679Y0164285D01*
X1248679Y0163499D02*
X1073324Y0163499D01*
X1073324Y0162713D02*
X1248679Y0162713D01*
X1248679Y0161927D02*
X1132506Y0161927D01*
X1132668Y0161916D02*
X1127025Y0162302D01*
X1121488Y0161151D01*
X1116466Y0158549D01*
X1112333Y0154689D01*
X1109394Y0149857D01*
X1109394Y0149857D01*
X1107868Y0144411D01*
X1107868Y0138755D01*
X1109394Y0133309D01*
X1109394Y0133309D01*
X1112333Y0128476D01*
X1116466Y0124616D01*
X1116466Y0124616D01*
X1121488Y0122014D01*
X1127025Y0120863D01*
X1127025Y0120863D01*
X1132668Y0121249D01*
X1137997Y0123143D01*
X1142618Y0126405D01*
X1146187Y0130792D01*
X1146187Y0130792D01*
X1148440Y0135980D01*
X1149210Y0141583D01*
X1148440Y0147186D01*
X1146187Y0152373D01*
X1142618Y0156760D01*
X1137997Y0160022D01*
X1132668Y0161916D01*
X1132668Y0161916D01*
X1134848Y0161141D02*
X1248679Y0161141D01*
X1248679Y0160355D02*
X1137059Y0160355D01*
X1138638Y0159569D02*
X1248679Y0159569D01*
X1248679Y0158783D02*
X1139752Y0158783D01*
X1140865Y0157998D02*
X1248679Y0157998D01*
X1248679Y0157212D02*
X1141978Y0157212D01*
X1142618Y0156760D02*
X1142618Y0156760D01*
X1142890Y0156426D02*
X1248679Y0156426D01*
X1248679Y0155640D02*
X1143529Y0155640D01*
X1144169Y0154854D02*
X1248679Y0154854D01*
X1248679Y0154068D02*
X1144808Y0154068D01*
X1145448Y0153282D02*
X1248679Y0153282D01*
X1248679Y0152496D02*
X1146087Y0152496D01*
X1146475Y0151710D02*
X1248679Y0151710D01*
X1248679Y0150924D02*
X1146816Y0150924D01*
X1147158Y0150138D02*
X1248679Y0150138D01*
X1248679Y0149352D02*
X1147499Y0149352D01*
X1147840Y0148567D02*
X1248679Y0148567D01*
X1248679Y0147781D02*
X1148182Y0147781D01*
X1148440Y0147186D02*
X1148440Y0147186D01*
X1148466Y0146995D02*
X1248679Y0146995D01*
X1248679Y0146209D02*
X1148574Y0146209D01*
X1148682Y0145423D02*
X1248679Y0145423D01*
X1248679Y0144637D02*
X1148790Y0144637D01*
X1148898Y0143851D02*
X1248679Y0143851D01*
X1248679Y0143065D02*
X1149007Y0143065D01*
X1149115Y0142279D02*
X1248679Y0142279D01*
X1248679Y0141493D02*
X1149198Y0141493D01*
X1149090Y0140707D02*
X1248679Y0140707D01*
X1248679Y0139922D02*
X1148982Y0139922D01*
X1148874Y0139136D02*
X1248679Y0139136D01*
X1248679Y0138350D02*
X1148766Y0138350D01*
X1148658Y0137564D02*
X1248679Y0137564D01*
X1248679Y0136778D02*
X1148550Y0136778D01*
X1148442Y0135992D02*
X1248679Y0135992D01*
X1248679Y0135206D02*
X1148104Y0135206D01*
X1148440Y0135980D02*
X1148440Y0135980D01*
X1147763Y0134420D02*
X1248679Y0134420D01*
X1248679Y0133634D02*
X1147421Y0133634D01*
X1147080Y0132848D02*
X1248679Y0132848D01*
X1248679Y0132062D02*
X1146739Y0132062D01*
X1146397Y0131276D02*
X1248679Y0131276D01*
X1248679Y0130491D02*
X1145942Y0130491D01*
X1145302Y0129705D02*
X1248679Y0129705D01*
X1248679Y0128919D02*
X1144663Y0128919D01*
X1144023Y0128133D02*
X1248679Y0128133D01*
X1248679Y0127347D02*
X1143384Y0127347D01*
X1142745Y0126561D02*
X1248679Y0126561D01*
X1248679Y0125775D02*
X1141725Y0125775D01*
X1142618Y0126405D02*
X1142618Y0126405D01*
X1142618Y0126405D01*
X1140612Y0124989D02*
X1248679Y0124989D01*
X1248679Y0124203D02*
X1139499Y0124203D01*
X1138385Y0123417D02*
X1248679Y0123417D01*
X1248679Y0122631D02*
X1136557Y0122631D01*
X1137997Y0123143D02*
X1137997Y0123143D01*
X1134345Y0121846D02*
X1248679Y0121846D01*
X1248679Y0121060D02*
X1129894Y0121060D01*
X1132668Y0121249D02*
X1132668Y0121249D01*
X1126081Y0121060D02*
X1073324Y0121060D01*
X1073324Y0121846D02*
X1122299Y0121846D01*
X1121488Y0122014D02*
X1121488Y0122014D01*
X1120296Y0122631D02*
X1073324Y0122631D01*
X1073324Y0123417D02*
X1118780Y0123417D01*
X1117263Y0124203D02*
X1073324Y0124203D01*
X1073324Y0124989D02*
X1116067Y0124989D01*
X1115225Y0125775D02*
X1073324Y0125775D01*
X1073324Y0126561D02*
X1114384Y0126561D01*
X1113542Y0127347D02*
X1073324Y0127347D01*
X1073324Y0128133D02*
X1112701Y0128133D01*
X1112333Y0128476D02*
X1112333Y0128476D01*
X1112064Y0128919D02*
X1073324Y0128919D01*
X1073324Y0129705D02*
X1111586Y0129705D01*
X1111108Y0130491D02*
X1073324Y0130491D01*
X1073324Y0131276D02*
X1110630Y0131276D01*
X1110152Y0132062D02*
X1073324Y0132062D01*
X1073324Y0132848D02*
X1109674Y0132848D01*
X1109303Y0133634D02*
X1073324Y0133634D01*
X1073324Y0134420D02*
X1109083Y0134420D01*
X1108863Y0135206D02*
X1073324Y0135206D01*
X1073324Y0135992D02*
X1108642Y0135992D01*
X1108422Y0136778D02*
X1073324Y0136778D01*
X1073324Y0137564D02*
X1108202Y0137564D01*
X1107982Y0138350D02*
X1073324Y0138350D01*
X1073324Y0139136D02*
X1107868Y0139136D01*
X1107868Y0139922D02*
X1073324Y0139922D01*
X1073324Y0140707D02*
X1107868Y0140707D01*
X1107868Y0141493D02*
X1073324Y0141493D01*
X1073324Y0142279D02*
X1107868Y0142279D01*
X1107868Y0143065D02*
X1073324Y0143065D01*
X1073324Y0143851D02*
X1107868Y0143851D01*
X1107932Y0144637D02*
X1073324Y0144637D01*
X1073324Y0145423D02*
X1108152Y0145423D01*
X1108372Y0146209D02*
X1073324Y0146209D01*
X1073324Y0146995D02*
X1108592Y0146995D01*
X1108813Y0147781D02*
X1073324Y0147781D01*
X1073324Y0148567D02*
X1109033Y0148567D01*
X1109253Y0149352D02*
X1073324Y0149352D01*
X1073324Y0150138D02*
X1109566Y0150138D01*
X1110044Y0150924D02*
X1073324Y0150924D01*
X1073324Y0151710D02*
X1110521Y0151710D01*
X1110999Y0152496D02*
X1073324Y0152496D01*
X1073324Y0153282D02*
X1111477Y0153282D01*
X1111955Y0154068D02*
X1073324Y0154068D01*
X1073324Y0154854D02*
X1112509Y0154854D01*
X1112333Y0154689D02*
X1112333Y0154689D01*
X1113351Y0155640D02*
X1073324Y0155640D01*
X1073324Y0156426D02*
X1114192Y0156426D01*
X1115034Y0157212D02*
X1073324Y0157212D01*
X1073324Y0157998D02*
X1115875Y0157998D01*
X1116466Y0158549D02*
X1116466Y0158549D01*
X1116918Y0158783D02*
X1073324Y0158783D01*
X1073324Y0159569D02*
X1118435Y0159569D01*
X1119952Y0160355D02*
X1073324Y0160355D01*
X1073324Y0161141D02*
X1121468Y0161141D01*
X1121488Y0161151D02*
X1121488Y0161151D01*
X1125221Y0161927D02*
X1073324Y0161927D01*
X1127025Y0162302D02*
X1127025Y0162302D01*
X1073324Y0120274D02*
X1248679Y0120274D01*
X1248679Y0119488D02*
X1073324Y0119488D01*
X1073324Y0118702D02*
X1248679Y0118702D01*
X1248679Y0117916D02*
X1073324Y0117916D01*
X1073324Y0117130D02*
X1233777Y0117130D01*
X1234357Y0117370D02*
X1231463Y0116171D01*
X1229248Y0113956D01*
X1228049Y0111062D01*
X1228049Y0107930D01*
X1229248Y0105036D01*
X1231463Y0102821D01*
X1234357Y0101622D01*
X1237489Y0101622D01*
X1240383Y0102821D01*
X1242598Y0105036D01*
X1243797Y0107930D01*
X1243797Y0111062D01*
X1242598Y0113956D01*
X1240383Y0116171D01*
X1237489Y0117370D01*
X1234357Y0117370D01*
X1231880Y0116344D02*
X1073324Y0116344D01*
X1073324Y0115558D02*
X1230850Y0115558D01*
X1230064Y0114772D02*
X1073324Y0114772D01*
X1073324Y0113986D02*
X1229278Y0113986D01*
X1228935Y0113200D02*
X1073324Y0113200D01*
X1073324Y0112415D02*
X1228609Y0112415D01*
X1228283Y0111629D02*
X1073324Y0111629D01*
X1073324Y0110843D02*
X1228049Y0110843D01*
X1228049Y0110057D02*
X1073324Y0110057D01*
X1073324Y0109271D02*
X1228049Y0109271D01*
X1228049Y0108485D02*
X1073324Y0108485D01*
X1073324Y0107699D02*
X1228144Y0107699D01*
X1228470Y0106913D02*
X1073324Y0106913D01*
X1073324Y0106127D02*
X1228796Y0106127D01*
X1229121Y0105341D02*
X1073324Y0105341D01*
X1073324Y0104555D02*
X1229728Y0104555D01*
X1230514Y0103770D02*
X1073324Y0103770D01*
X1073324Y0102984D02*
X1231300Y0102984D01*
X1232967Y0102198D02*
X1073324Y0102198D01*
X1073324Y0101412D02*
X1248679Y0101412D01*
X1248679Y0102198D02*
X1238879Y0102198D01*
X1240546Y0102984D02*
X1248679Y0102984D01*
X1248679Y0103770D02*
X1241332Y0103770D01*
X1242118Y0104555D02*
X1248679Y0104555D01*
X1248679Y0105341D02*
X1242725Y0105341D01*
X1243050Y0106127D02*
X1248679Y0106127D01*
X1248679Y0106913D02*
X1243376Y0106913D01*
X1243701Y0107699D02*
X1248679Y0107699D01*
X1248679Y0108485D02*
X1243797Y0108485D01*
X1243797Y0109271D02*
X1248679Y0109271D01*
X1248679Y0110057D02*
X1243797Y0110057D01*
X1243797Y0110843D02*
X1248679Y0110843D01*
X1248679Y0111629D02*
X1243562Y0111629D01*
X1243237Y0112415D02*
X1248679Y0112415D01*
X1248679Y0113200D02*
X1242911Y0113200D01*
X1242568Y0113986D02*
X1248679Y0113986D01*
X1248679Y0114772D02*
X1241782Y0114772D01*
X1240996Y0115558D02*
X1248679Y0115558D01*
X1248679Y0116344D02*
X1239966Y0116344D01*
X1238069Y0117130D02*
X1248679Y0117130D01*
X1248679Y0100626D02*
X1073324Y0100626D01*
X1073324Y0099840D02*
X1248679Y0099840D01*
X1248679Y0099054D02*
X1073324Y0099054D01*
X1073324Y0098268D02*
X1248679Y0098268D01*
X1248679Y0097482D02*
X1073324Y0097482D01*
X1073324Y0096696D02*
X1248679Y0096696D01*
X0984742Y0096696D02*
X0874506Y0096696D01*
X0874506Y0096307D02*
X0874506Y0200638D01*
X0916533Y0200638D01*
X0918106Y0199064D01*
X0918107Y0199064D01*
X0920647Y0198342D01*
X0920647Y0198342D01*
X0923218Y0198949D01*
X0923218Y0198949D01*
X0925066Y0200638D01*
X0984742Y0200638D01*
X0984742Y0096307D01*
X0874506Y0096307D01*
X0874506Y0097482D02*
X0984742Y0097482D01*
X0984742Y0098268D02*
X0874506Y0098268D01*
X0874506Y0099054D02*
X0984742Y0099054D01*
X0984742Y0099840D02*
X0874506Y0099840D01*
X0874506Y0100626D02*
X0984742Y0100626D01*
X0984742Y0101412D02*
X0874506Y0101412D01*
X0874506Y0102198D02*
X0885172Y0102198D01*
X0886561Y0101622D02*
X0889694Y0101622D01*
X0892588Y0102821D01*
X0894803Y0105036D01*
X0896002Y0107930D01*
X0896002Y0111062D01*
X0894803Y0113956D01*
X0892588Y0116171D01*
X0889694Y0117370D01*
X0886561Y0117370D01*
X0883667Y0116171D01*
X0881452Y0113956D01*
X0880254Y0111062D01*
X0880254Y0107930D01*
X0881452Y0105036D01*
X0883667Y0102821D01*
X0886561Y0101622D01*
X0883505Y0102984D02*
X0874506Y0102984D01*
X0874506Y0103770D02*
X0882719Y0103770D01*
X0881933Y0104555D02*
X0874506Y0104555D01*
X0874506Y0105341D02*
X0881326Y0105341D01*
X0881000Y0106127D02*
X0874506Y0106127D01*
X0874506Y0106913D02*
X0880675Y0106913D01*
X0880349Y0107699D02*
X0874506Y0107699D01*
X0874506Y0108485D02*
X0880254Y0108485D01*
X0880254Y0109271D02*
X0874506Y0109271D01*
X0874506Y0110057D02*
X0880254Y0110057D01*
X0880254Y0110843D02*
X0874506Y0110843D01*
X0874506Y0111629D02*
X0880488Y0111629D01*
X0880814Y0112415D02*
X0874506Y0112415D01*
X0874506Y0113200D02*
X0881139Y0113200D01*
X0881482Y0113986D02*
X0874506Y0113986D01*
X0874506Y0114772D02*
X0882268Y0114772D01*
X0883054Y0115558D02*
X0874506Y0115558D01*
X0874506Y0116344D02*
X0884085Y0116344D01*
X0885982Y0117130D02*
X0874506Y0117130D01*
X0874506Y0117916D02*
X0984742Y0117916D01*
X0984742Y0118702D02*
X0874506Y0118702D01*
X0874506Y0119488D02*
X0984742Y0119488D01*
X0984742Y0120274D02*
X0874506Y0120274D01*
X0874506Y0121060D02*
X0984742Y0121060D01*
X0984742Y0121846D02*
X0874506Y0121846D01*
X0874506Y0122631D02*
X0984742Y0122631D01*
X0984742Y0123417D02*
X0874506Y0123417D01*
X0874506Y0124203D02*
X0984742Y0124203D01*
X0984742Y0124989D02*
X0874506Y0124989D01*
X0874506Y0125775D02*
X0984742Y0125775D01*
X0984742Y0126561D02*
X0874506Y0126561D01*
X0874506Y0127347D02*
X0984742Y0127347D01*
X0984742Y0128133D02*
X0874506Y0128133D01*
X0874506Y0128919D02*
X0984742Y0128919D01*
X0984742Y0129705D02*
X0874506Y0129705D01*
X0874506Y0130491D02*
X0984742Y0130491D01*
X0984742Y0131276D02*
X0874506Y0131276D01*
X0874506Y0132062D02*
X0984742Y0132062D01*
X0984742Y0132848D02*
X0874506Y0132848D01*
X0874506Y0133634D02*
X0984742Y0133634D01*
X0984742Y0134420D02*
X0874506Y0134420D01*
X0874506Y0135206D02*
X0984742Y0135206D01*
X0984742Y0135992D02*
X0874506Y0135992D01*
X0874506Y0136778D02*
X0984742Y0136778D01*
X0984742Y0137564D02*
X0874506Y0137564D01*
X0874506Y0138350D02*
X0984742Y0138350D01*
X0984742Y0139136D02*
X0874506Y0139136D01*
X0874506Y0139922D02*
X0984742Y0139922D01*
X0984742Y0140707D02*
X0874506Y0140707D01*
X0874506Y0141493D02*
X0984742Y0141493D01*
X0984742Y0142279D02*
X0874506Y0142279D01*
X0874506Y0143065D02*
X0984742Y0143065D01*
X0984742Y0143851D02*
X0874506Y0143851D01*
X0874506Y0144637D02*
X0984742Y0144637D01*
X0984742Y0145423D02*
X0874506Y0145423D01*
X0874506Y0146209D02*
X0984742Y0146209D01*
X0984742Y0146995D02*
X0874506Y0146995D01*
X0874506Y0147781D02*
X0984742Y0147781D01*
X0984742Y0148567D02*
X0874506Y0148567D01*
X0874506Y0149352D02*
X0984742Y0149352D01*
X0984742Y0150138D02*
X0874506Y0150138D01*
X0874506Y0150924D02*
X0984742Y0150924D01*
X0984742Y0151710D02*
X0874506Y0151710D01*
X0874506Y0152496D02*
X0984742Y0152496D01*
X0984742Y0153282D02*
X0874506Y0153282D01*
X0874506Y0154068D02*
X0984742Y0154068D01*
X0984742Y0154854D02*
X0874506Y0154854D01*
X0874506Y0155640D02*
X0984742Y0155640D01*
X0984742Y0156426D02*
X0874506Y0156426D01*
X0874506Y0157212D02*
X0984742Y0157212D01*
X0984742Y0157998D02*
X0874506Y0157998D01*
X0874506Y0158783D02*
X0984742Y0158783D01*
X0984742Y0159569D02*
X0874506Y0159569D01*
X0874506Y0160355D02*
X0984742Y0160355D01*
X0984742Y0161141D02*
X0874506Y0161141D01*
X0874506Y0161927D02*
X0984742Y0161927D01*
X0984742Y0162713D02*
X0874506Y0162713D01*
X0874506Y0163499D02*
X0984742Y0163499D01*
X0984742Y0164285D02*
X0874506Y0164285D01*
X0874506Y0165071D02*
X0984742Y0165071D01*
X0984742Y0165857D02*
X0874506Y0165857D01*
X0874506Y0166643D02*
X0984742Y0166643D01*
X0984742Y0167428D02*
X0874506Y0167428D01*
X0874506Y0168214D02*
X0984742Y0168214D01*
X0984742Y0169000D02*
X0874506Y0169000D01*
X0874506Y0169786D02*
X0984742Y0169786D01*
X0984742Y0170572D02*
X0874506Y0170572D01*
X0874506Y0171358D02*
X0984742Y0171358D01*
X0984742Y0172144D02*
X0874506Y0172144D01*
X0874506Y0172930D02*
X0984742Y0172930D01*
X0984742Y0173716D02*
X0874506Y0173716D01*
X0874506Y0174502D02*
X0984742Y0174502D01*
X0984742Y0175288D02*
X0874506Y0175288D01*
X0874506Y0176074D02*
X0984742Y0176074D01*
X0984742Y0176859D02*
X0874506Y0176859D01*
X0874506Y0177645D02*
X0984742Y0177645D01*
X0984742Y0178431D02*
X0874506Y0178431D01*
X0874506Y0179217D02*
X0984742Y0179217D01*
X0984742Y0180003D02*
X0874506Y0180003D01*
X0874506Y0180789D02*
X0984742Y0180789D01*
X0984742Y0181575D02*
X0874506Y0181575D01*
X0874506Y0182361D02*
X0984742Y0182361D01*
X0984742Y0183147D02*
X0874506Y0183147D01*
X0874506Y0183933D02*
X0984742Y0183933D01*
X0984742Y0184719D02*
X0874506Y0184719D01*
X0874506Y0185504D02*
X0984742Y0185504D01*
X0984742Y0186290D02*
X0874506Y0186290D01*
X0874506Y0187076D02*
X0984742Y0187076D01*
X0984742Y0187862D02*
X0874506Y0187862D01*
X0874506Y0188648D02*
X0984742Y0188648D01*
X0984742Y0189434D02*
X0874506Y0189434D01*
X0874506Y0190220D02*
X0984742Y0190220D01*
X0984742Y0191006D02*
X0874506Y0191006D01*
X0874506Y0191792D02*
X0984742Y0191792D01*
X0984742Y0192578D02*
X0874506Y0192578D01*
X0874506Y0193364D02*
X0984742Y0193364D01*
X0984742Y0194150D02*
X0874506Y0194150D01*
X0874506Y0194935D02*
X0984742Y0194935D01*
X0984742Y0195721D02*
X0874506Y0195721D01*
X0874506Y0196507D02*
X0984742Y0196507D01*
X0984742Y0197293D02*
X0874506Y0197293D01*
X0874506Y0198079D02*
X0984742Y0198079D01*
X0984742Y0198865D02*
X0922863Y0198865D01*
X0923986Y0199651D02*
X0984742Y0199651D01*
X0984742Y0200437D02*
X0924846Y0200437D01*
X0918807Y0198865D02*
X0874506Y0198865D01*
X0874506Y0199651D02*
X0917519Y0199651D01*
X0916734Y0200437D02*
X0874506Y0200437D01*
X0870569Y0200437D02*
X0838041Y0200437D01*
X0837404Y0201074D02*
X0834655Y0202213D01*
X0831679Y0202213D01*
X0828930Y0201074D01*
X0826825Y0198970D01*
X0825687Y0196220D01*
X0825687Y0193244D01*
X0826825Y0190495D01*
X0828930Y0188391D01*
X0831679Y0187252D01*
X0834655Y0187252D01*
X0837404Y0188391D01*
X0839508Y0190495D01*
X0840647Y0193244D01*
X0840647Y0196220D01*
X0839508Y0198970D01*
X0837404Y0201074D01*
X0837045Y0201223D02*
X0870569Y0201223D01*
X0870569Y0202009D02*
X0835147Y0202009D01*
X0831187Y0202009D02*
X0757183Y0202009D01*
X0757183Y0202795D02*
X0870569Y0202795D01*
X0870569Y0203580D02*
X0757183Y0203580D01*
X0757183Y0204366D02*
X0870569Y0204366D01*
X0870569Y0205152D02*
X0757183Y0205152D01*
X0757183Y0205938D02*
X0870569Y0205938D01*
X0870569Y0206724D02*
X0757183Y0206724D01*
X0757183Y0207510D02*
X0870569Y0207510D01*
X0870569Y0208296D02*
X0757183Y0208296D01*
X0757183Y0209082D02*
X0870569Y0209082D01*
X0870569Y0209868D02*
X0757183Y0209868D01*
X0757183Y0210654D02*
X0870569Y0210654D01*
X0870569Y0211440D02*
X0757183Y0211440D01*
X0757183Y0212226D02*
X0870569Y0212226D01*
X0870569Y0213011D02*
X0757183Y0213011D01*
X0757183Y0213797D02*
X0870569Y0213797D01*
X0870569Y0214583D02*
X0757183Y0214583D01*
X0757183Y0215369D02*
X0870569Y0215369D01*
X0870569Y0216155D02*
X0757183Y0216155D01*
X0757183Y0216386D02*
X0789860Y0216386D01*
X0789860Y0229575D01*
X0795379Y0229575D01*
X0795258Y0229453D01*
X0795258Y0227728D01*
X0796478Y0226508D01*
X0798203Y0226508D01*
X0799423Y0227728D01*
X0799423Y0229453D01*
X0799301Y0229575D01*
X0805615Y0229575D01*
X0805494Y0229453D01*
X0805494Y0227728D01*
X0806714Y0226508D01*
X0808439Y0226508D01*
X0809659Y0227728D01*
X0809659Y0229453D01*
X0809538Y0229575D01*
X0811915Y0229575D01*
X0811399Y0229060D01*
X0811399Y0227334D01*
X0812619Y0226114D01*
X0813178Y0226114D01*
X0812187Y0225123D01*
X0812187Y0223397D01*
X0813407Y0222177D01*
X0815132Y0222177D01*
X0816352Y0223397D01*
X0816352Y0225123D01*
X0815132Y0226343D01*
X0814573Y0226343D01*
X0815565Y0227334D01*
X0815565Y0229060D01*
X0815049Y0229575D01*
X0818197Y0229575D01*
X0818197Y0227983D01*
X0818092Y0227878D01*
X0818092Y0226153D01*
X0818197Y0226048D01*
X0818197Y0223259D01*
X0818092Y0223154D01*
X0818092Y0221429D01*
X0819312Y0220209D01*
X0821038Y0220209D01*
X0822258Y0221429D01*
X0822258Y0223154D01*
X0822153Y0223259D01*
X0822153Y0226048D01*
X0822258Y0226153D01*
X0822258Y0227878D01*
X0822153Y0227983D01*
X0822153Y0229575D01*
X0870569Y0229575D01*
X0870569Y0176622D01*
X0774506Y0176622D01*
X0757183Y0193945D01*
X0757183Y0216386D01*
X0749506Y0219339D02*
X0786907Y0219339D01*
X0786907Y0238039D01*
X0776080Y0248866D01*
X0776080Y0284299D01*
X0749506Y0284299D01*
X0749506Y0219339D01*
X0749506Y0220085D02*
X0786907Y0220085D01*
X0786907Y0220871D02*
X0749506Y0220871D01*
X0749506Y0221656D02*
X0786907Y0221656D01*
X0786907Y0222442D02*
X0749506Y0222442D01*
X0749506Y0223228D02*
X0786907Y0223228D01*
X0786907Y0224014D02*
X0749506Y0224014D01*
X0749506Y0224800D02*
X0786907Y0224800D01*
X0786907Y0225586D02*
X0749506Y0225586D01*
X0749506Y0226372D02*
X0786907Y0226372D01*
X0786907Y0227158D02*
X0749506Y0227158D01*
X0749506Y0227944D02*
X0786907Y0227944D01*
X0786907Y0228730D02*
X0749506Y0228730D01*
X0749506Y0229516D02*
X0786907Y0229516D01*
X0786907Y0230302D02*
X0749506Y0230302D01*
X0749506Y0231087D02*
X0786907Y0231087D01*
X0786907Y0231873D02*
X0749506Y0231873D01*
X0749506Y0232659D02*
X0786907Y0232659D01*
X0786907Y0233445D02*
X0749506Y0233445D01*
X0749506Y0234231D02*
X0786907Y0234231D01*
X0786907Y0235017D02*
X0749506Y0235017D01*
X0749506Y0235803D02*
X0786907Y0235803D01*
X0786907Y0236589D02*
X0749506Y0236589D01*
X0749506Y0237375D02*
X0786907Y0237375D01*
X0786786Y0238161D02*
X0749506Y0238161D01*
X0749506Y0238947D02*
X0786000Y0238947D01*
X0785214Y0239732D02*
X0749506Y0239732D01*
X0749506Y0240518D02*
X0784428Y0240518D01*
X0783642Y0241304D02*
X0749506Y0241304D01*
X0749506Y0242090D02*
X0782856Y0242090D01*
X0782070Y0242876D02*
X0749506Y0242876D01*
X0749506Y0243662D02*
X0781284Y0243662D01*
X0780499Y0244448D02*
X0749506Y0244448D01*
X0749506Y0245234D02*
X0779713Y0245234D01*
X0778927Y0246020D02*
X0749506Y0246020D01*
X0749506Y0246806D02*
X0778141Y0246806D01*
X0777355Y0247592D02*
X0749506Y0247592D01*
X0749506Y0248378D02*
X0776569Y0248378D01*
X0776080Y0249163D02*
X0749506Y0249163D01*
X0749506Y0249949D02*
X0776080Y0249949D01*
X0776080Y0250735D02*
X0749506Y0250735D01*
X0749506Y0251521D02*
X0776080Y0251521D01*
X0776080Y0252307D02*
X0749506Y0252307D01*
X0749506Y0253093D02*
X0776080Y0253093D01*
X0776080Y0253879D02*
X0749506Y0253879D01*
X0749506Y0254665D02*
X0776080Y0254665D01*
X0776080Y0255451D02*
X0749506Y0255451D01*
X0749506Y0256237D02*
X0776080Y0256237D01*
X0776080Y0257023D02*
X0749506Y0257023D01*
X0749506Y0257808D02*
X0776080Y0257808D01*
X0776080Y0258594D02*
X0749506Y0258594D01*
X0749506Y0259380D02*
X0776080Y0259380D01*
X0776080Y0260166D02*
X0749506Y0260166D01*
X0749506Y0260952D02*
X0776080Y0260952D01*
X0776080Y0261738D02*
X0749506Y0261738D01*
X0749506Y0262524D02*
X0776080Y0262524D01*
X0776080Y0263310D02*
X0749506Y0263310D01*
X0749506Y0264096D02*
X0776080Y0264096D01*
X0776080Y0264882D02*
X0749506Y0264882D01*
X0749506Y0265668D02*
X0776080Y0265668D01*
X0776080Y0266454D02*
X0749506Y0266454D01*
X0749506Y0267239D02*
X0776080Y0267239D01*
X0776080Y0268025D02*
X0749506Y0268025D01*
X0749506Y0268811D02*
X0776080Y0268811D01*
X0776080Y0269597D02*
X0749506Y0269597D01*
X0749506Y0270383D02*
X0776080Y0270383D01*
X0776080Y0271169D02*
X0749506Y0271169D01*
X0749506Y0271955D02*
X0776080Y0271955D01*
X0776080Y0272741D02*
X0749506Y0272741D01*
X0749506Y0273527D02*
X0776080Y0273527D01*
X0776080Y0274313D02*
X0749506Y0274313D01*
X0749506Y0275099D02*
X0776080Y0275099D01*
X0776080Y0275884D02*
X0749506Y0275884D01*
X0749506Y0276670D02*
X0776080Y0276670D01*
X0776080Y0277456D02*
X0749506Y0277456D01*
X0749506Y0278242D02*
X0776080Y0278242D01*
X0776080Y0279028D02*
X0749506Y0279028D01*
X0749506Y0279814D02*
X0776080Y0279814D01*
X0776080Y0280600D02*
X0749506Y0280600D01*
X0749506Y0281386D02*
X0776080Y0281386D01*
X0776080Y0282172D02*
X0749506Y0282172D01*
X0749506Y0282958D02*
X0776080Y0282958D01*
X0776080Y0283744D02*
X0749506Y0283744D01*
X0764269Y0299063D02*
X0831198Y0299063D01*
X0831198Y0255756D01*
X0815057Y0255756D01*
X0815057Y0241976D01*
X0818092Y0241976D01*
X0818092Y0242445D01*
X0819312Y0243665D01*
X0821038Y0243665D01*
X0822258Y0242445D01*
X0822258Y0241976D01*
X0831198Y0241976D01*
X0831198Y0234102D01*
X0866632Y0234102D01*
X0866632Y0298248D01*
X0842194Y0322685D01*
X0837840Y0322685D01*
X0839508Y0321017D01*
X0840647Y0318267D01*
X0840647Y0315292D01*
X0839508Y0312542D01*
X0837404Y0310438D01*
X0834655Y0309299D01*
X0831679Y0309299D01*
X0828930Y0310438D01*
X0826825Y0312542D01*
X0825687Y0315292D01*
X0825687Y0318267D01*
X0826825Y0321017D01*
X0828494Y0322685D01*
X0764269Y0322685D01*
X0764269Y0299063D01*
X0764269Y0299462D02*
X0865417Y0299462D01*
X0864631Y0300248D02*
X0764269Y0300248D01*
X0764269Y0301034D02*
X0863845Y0301034D01*
X0863060Y0301820D02*
X0764269Y0301820D01*
X0764269Y0302605D02*
X0862274Y0302605D01*
X0861488Y0303391D02*
X0764269Y0303391D01*
X0764269Y0304177D02*
X0860702Y0304177D01*
X0859916Y0304963D02*
X0764269Y0304963D01*
X0764269Y0305749D02*
X0859130Y0305749D01*
X0858344Y0306535D02*
X0764269Y0306535D01*
X0764269Y0307321D02*
X0857558Y0307321D01*
X0856772Y0308107D02*
X0764269Y0308107D01*
X0764269Y0308893D02*
X0855986Y0308893D01*
X0855200Y0309679D02*
X0835571Y0309679D01*
X0837431Y0310465D02*
X0854415Y0310465D01*
X0853629Y0311251D02*
X0838217Y0311251D01*
X0839003Y0312036D02*
X0852843Y0312036D01*
X0852057Y0312822D02*
X0839625Y0312822D01*
X0839950Y0313608D02*
X0851271Y0313608D01*
X0850485Y0314394D02*
X0840276Y0314394D01*
X0840601Y0315180D02*
X0849699Y0315180D01*
X0848913Y0315966D02*
X0840647Y0315966D01*
X0840647Y0316752D02*
X0848127Y0316752D01*
X0847341Y0317538D02*
X0840647Y0317538D01*
X0840624Y0318324D02*
X0846555Y0318324D01*
X0845770Y0319110D02*
X0840298Y0319110D01*
X0839973Y0319896D02*
X0844984Y0319896D01*
X0844198Y0320681D02*
X0839647Y0320681D01*
X0839058Y0321467D02*
X0843412Y0321467D01*
X0842626Y0322253D02*
X0838272Y0322253D01*
X0828062Y0322253D02*
X0764269Y0322253D01*
X0764269Y0321467D02*
X0827276Y0321467D01*
X0826687Y0320681D02*
X0764269Y0320681D01*
X0764269Y0319896D02*
X0826361Y0319896D01*
X0826036Y0319110D02*
X0764269Y0319110D01*
X0764269Y0318324D02*
X0825710Y0318324D01*
X0825687Y0317538D02*
X0764269Y0317538D01*
X0764269Y0316752D02*
X0825687Y0316752D01*
X0825687Y0315966D02*
X0764269Y0315966D01*
X0764269Y0315180D02*
X0825733Y0315180D01*
X0826058Y0314394D02*
X0764269Y0314394D01*
X0764269Y0313608D02*
X0826384Y0313608D01*
X0826709Y0312822D02*
X0764269Y0312822D01*
X0764269Y0312036D02*
X0827331Y0312036D01*
X0828117Y0311251D02*
X0764269Y0311251D01*
X0764269Y0310465D02*
X0828903Y0310465D01*
X0830763Y0309679D02*
X0764269Y0309679D01*
X0791828Y0284102D02*
X0791828Y0232921D01*
X0806789Y0232921D01*
X0806789Y0241976D01*
X0811907Y0241976D01*
X0811907Y0284102D01*
X0791828Y0284102D01*
X0791828Y0283744D02*
X0811907Y0283744D01*
X0811907Y0282958D02*
X0791828Y0282958D01*
X0791828Y0282172D02*
X0811907Y0282172D01*
X0811907Y0281386D02*
X0791828Y0281386D01*
X0791828Y0280600D02*
X0811907Y0280600D01*
X0811907Y0279814D02*
X0791828Y0279814D01*
X0791828Y0279028D02*
X0811907Y0279028D01*
X0811907Y0278242D02*
X0791828Y0278242D01*
X0791828Y0277456D02*
X0811907Y0277456D01*
X0811907Y0276670D02*
X0791828Y0276670D01*
X0791828Y0275884D02*
X0811907Y0275884D01*
X0811907Y0275099D02*
X0791828Y0275099D01*
X0791828Y0274313D02*
X0811907Y0274313D01*
X0811907Y0273527D02*
X0791828Y0273527D01*
X0791828Y0272741D02*
X0811907Y0272741D01*
X0811907Y0271955D02*
X0791828Y0271955D01*
X0791828Y0271169D02*
X0811907Y0271169D01*
X0811907Y0270383D02*
X0791828Y0270383D01*
X0791828Y0269597D02*
X0811907Y0269597D01*
X0811907Y0268811D02*
X0791828Y0268811D01*
X0791828Y0268025D02*
X0811907Y0268025D01*
X0811907Y0267239D02*
X0791828Y0267239D01*
X0791828Y0266454D02*
X0811907Y0266454D01*
X0811907Y0265668D02*
X0791828Y0265668D01*
X0791828Y0264882D02*
X0811907Y0264882D01*
X0811907Y0264096D02*
X0791828Y0264096D01*
X0791828Y0263310D02*
X0811907Y0263310D01*
X0811907Y0262524D02*
X0791828Y0262524D01*
X0791828Y0261738D02*
X0811907Y0261738D01*
X0811907Y0260952D02*
X0791828Y0260952D01*
X0791828Y0260166D02*
X0811907Y0260166D01*
X0811907Y0259380D02*
X0791828Y0259380D01*
X0791828Y0258594D02*
X0811907Y0258594D01*
X0811907Y0257808D02*
X0791828Y0257808D01*
X0791828Y0257023D02*
X0811907Y0257023D01*
X0811907Y0256237D02*
X0791828Y0256237D01*
X0791828Y0255451D02*
X0811907Y0255451D01*
X0811907Y0254665D02*
X0791828Y0254665D01*
X0791828Y0253879D02*
X0811907Y0253879D01*
X0811907Y0253093D02*
X0791828Y0253093D01*
X0791828Y0252307D02*
X0811907Y0252307D01*
X0811907Y0251521D02*
X0791828Y0251521D01*
X0791828Y0250735D02*
X0811907Y0250735D01*
X0811907Y0249949D02*
X0791828Y0249949D01*
X0791828Y0249163D02*
X0811907Y0249163D01*
X0811907Y0248378D02*
X0791828Y0248378D01*
X0791828Y0247592D02*
X0811907Y0247592D01*
X0811907Y0246806D02*
X0791828Y0246806D01*
X0791828Y0246020D02*
X0811907Y0246020D01*
X0811907Y0245234D02*
X0791828Y0245234D01*
X0791828Y0244448D02*
X0811907Y0244448D01*
X0811907Y0243662D02*
X0791828Y0243662D01*
X0791828Y0242876D02*
X0811907Y0242876D01*
X0811907Y0242090D02*
X0791828Y0242090D01*
X0791828Y0241304D02*
X0806789Y0241304D01*
X0806789Y0240518D02*
X0791828Y0240518D01*
X0791828Y0239732D02*
X0806789Y0239732D01*
X0806789Y0238947D02*
X0791828Y0238947D01*
X0791828Y0238161D02*
X0806789Y0238161D01*
X0806789Y0237375D02*
X0791828Y0237375D01*
X0791828Y0236589D02*
X0806789Y0236589D01*
X0806789Y0235803D02*
X0791828Y0235803D01*
X0791828Y0235017D02*
X0806789Y0235017D01*
X0806789Y0234231D02*
X0791828Y0234231D01*
X0791828Y0233445D02*
X0806789Y0233445D01*
X0805556Y0229516D02*
X0799361Y0229516D01*
X0799423Y0228730D02*
X0805494Y0228730D01*
X0805494Y0227944D02*
X0799423Y0227944D01*
X0798853Y0227158D02*
X0806064Y0227158D01*
X0805260Y0226372D02*
X0812361Y0226372D01*
X0812650Y0225586D02*
X0805722Y0225586D01*
X0805722Y0225910D02*
X0804502Y0227130D01*
X0802777Y0227130D01*
X0801557Y0225910D01*
X0801557Y0224185D01*
X0802777Y0222965D01*
X0804502Y0222965D01*
X0805722Y0224185D01*
X0805722Y0225910D01*
X0805722Y0224800D02*
X0812187Y0224800D01*
X0812187Y0224014D02*
X0809586Y0224014D01*
X0809227Y0224374D02*
X0807501Y0224374D01*
X0806281Y0223154D01*
X0806281Y0221429D01*
X0807501Y0220209D01*
X0809227Y0220209D01*
X0810447Y0221429D01*
X0810447Y0223154D01*
X0809227Y0224374D01*
X0810372Y0223228D02*
X0812356Y0223228D01*
X0813141Y0222442D02*
X0810447Y0222442D01*
X0810447Y0221656D02*
X0818092Y0221656D01*
X0818092Y0222442D02*
X0815397Y0222442D01*
X0816183Y0223228D02*
X0818166Y0223228D01*
X0818197Y0224014D02*
X0816352Y0224014D01*
X0816352Y0224800D02*
X0818197Y0224800D01*
X0818197Y0225586D02*
X0815888Y0225586D01*
X0814602Y0226372D02*
X0818092Y0226372D01*
X0818092Y0227158D02*
X0815388Y0227158D01*
X0815565Y0227944D02*
X0818158Y0227944D01*
X0818197Y0228730D02*
X0815565Y0228730D01*
X0815109Y0229516D02*
X0818197Y0229516D01*
X0822153Y0229516D02*
X0870569Y0229516D01*
X0870569Y0228730D02*
X0822153Y0228730D01*
X0822192Y0227944D02*
X0870569Y0227944D01*
X0870569Y0227158D02*
X0822258Y0227158D01*
X0822258Y0226372D02*
X0870569Y0226372D01*
X0870569Y0225586D02*
X0822153Y0225586D01*
X0822153Y0224800D02*
X0870569Y0224800D01*
X0870569Y0224014D02*
X0822153Y0224014D01*
X0822183Y0223228D02*
X0870569Y0223228D01*
X0870569Y0222442D02*
X0822258Y0222442D01*
X0822258Y0221656D02*
X0870569Y0221656D01*
X0870569Y0220871D02*
X0821699Y0220871D01*
X0818650Y0220871D02*
X0809888Y0220871D01*
X0806839Y0220871D02*
X0789860Y0220871D01*
X0789860Y0221656D02*
X0806281Y0221656D01*
X0806281Y0222442D02*
X0789860Y0222442D01*
X0789860Y0223228D02*
X0802513Y0223228D01*
X0801727Y0224014D02*
X0789860Y0224014D01*
X0789860Y0224800D02*
X0801557Y0224800D01*
X0801557Y0225586D02*
X0789860Y0225586D01*
X0789860Y0226372D02*
X0802019Y0226372D01*
X0804766Y0223228D02*
X0806355Y0223228D01*
X0807141Y0224014D02*
X0805552Y0224014D01*
X0809089Y0227158D02*
X0811576Y0227158D01*
X0811399Y0227944D02*
X0809659Y0227944D01*
X0809659Y0228730D02*
X0811399Y0228730D01*
X0811855Y0229516D02*
X0809597Y0229516D01*
X0795828Y0227158D02*
X0789860Y0227158D01*
X0789860Y0227944D02*
X0795258Y0227944D01*
X0795258Y0228730D02*
X0789860Y0228730D01*
X0789860Y0229516D02*
X0795320Y0229516D01*
X0789860Y0220085D02*
X0870569Y0220085D01*
X0870569Y0219299D02*
X0789860Y0219299D01*
X0789860Y0218513D02*
X0870569Y0218513D01*
X0870569Y0217727D02*
X0789860Y0217727D01*
X0789860Y0216941D02*
X0870569Y0216941D01*
X0874506Y0216941D02*
X0917813Y0216941D01*
X0917813Y0216155D02*
X0874506Y0216155D01*
X0874506Y0215369D02*
X0917813Y0215369D01*
X0917813Y0214583D02*
X0874506Y0214583D01*
X0874506Y0213797D02*
X0917813Y0213797D01*
X0917813Y0213011D02*
X0874506Y0213011D01*
X0874506Y0212226D02*
X0917813Y0212226D01*
X0917813Y0211440D02*
X0874506Y0211440D01*
X0874506Y0210654D02*
X0917813Y0210654D01*
X0917813Y0209868D02*
X0874506Y0209868D01*
X0874506Y0209082D02*
X0917813Y0209082D01*
X0917813Y0208296D02*
X0874506Y0208296D01*
X0874506Y0207510D02*
X0917464Y0207510D01*
X0917813Y0207891D02*
X0916581Y0206543D01*
X0874506Y0206543D01*
X0874506Y0294311D01*
X0874506Y0322685D01*
X0919781Y0322685D01*
X0919781Y0312924D01*
X0918107Y0312448D01*
X0918106Y0312448D01*
X0916239Y0310580D01*
X0915517Y0308039D01*
X0916124Y0305469D01*
X0916124Y0305468D01*
X0917813Y0303620D01*
X0917813Y0207891D01*
X0916746Y0206724D02*
X0874506Y0206724D01*
X0870569Y0199651D02*
X0838827Y0199651D01*
X0839552Y0198865D02*
X0870569Y0198865D01*
X0870569Y0198079D02*
X0839877Y0198079D01*
X0840203Y0197293D02*
X0870569Y0197293D01*
X0870569Y0196507D02*
X0840528Y0196507D01*
X0840647Y0195721D02*
X0870569Y0195721D01*
X0870569Y0194935D02*
X0840647Y0194935D01*
X0840647Y0194150D02*
X0870569Y0194150D01*
X0870569Y0193364D02*
X0840647Y0193364D01*
X0840371Y0192578D02*
X0870569Y0192578D01*
X0870569Y0191792D02*
X0840046Y0191792D01*
X0839720Y0191006D02*
X0870569Y0191006D01*
X0870569Y0190220D02*
X0839233Y0190220D01*
X0838448Y0189434D02*
X0870569Y0189434D01*
X0870569Y0188648D02*
X0837662Y0188648D01*
X0836128Y0187862D02*
X0870569Y0187862D01*
X0870569Y0187076D02*
X0764051Y0187076D01*
X0763265Y0187862D02*
X0830206Y0187862D01*
X0828672Y0188648D02*
X0762479Y0188648D01*
X0761694Y0189434D02*
X0827886Y0189434D01*
X0827101Y0190220D02*
X0760908Y0190220D01*
X0760122Y0191006D02*
X0826614Y0191006D01*
X0826288Y0191792D02*
X0759336Y0191792D01*
X0758550Y0192578D02*
X0825963Y0192578D01*
X0825687Y0193364D02*
X0757764Y0193364D01*
X0757183Y0194150D02*
X0825687Y0194150D01*
X0825687Y0194935D02*
X0757183Y0194935D01*
X0757183Y0195721D02*
X0825687Y0195721D01*
X0825806Y0196507D02*
X0757183Y0196507D01*
X0757183Y0197293D02*
X0826131Y0197293D01*
X0826457Y0198079D02*
X0757183Y0198079D01*
X0757183Y0198865D02*
X0826782Y0198865D01*
X0827507Y0199651D02*
X0757183Y0199651D01*
X0757183Y0200437D02*
X0828293Y0200437D01*
X0829289Y0201223D02*
X0757183Y0201223D01*
X0764837Y0186290D02*
X0870569Y0186290D01*
X0870569Y0185504D02*
X0765623Y0185504D01*
X0766409Y0184719D02*
X0870569Y0184719D01*
X0870569Y0183933D02*
X0767195Y0183933D01*
X0767981Y0183147D02*
X0870569Y0183147D01*
X0870569Y0182361D02*
X0768767Y0182361D01*
X0769553Y0181575D02*
X0870569Y0181575D01*
X0870569Y0180789D02*
X0770339Y0180789D01*
X0771125Y0180003D02*
X0870569Y0180003D01*
X0870569Y0179217D02*
X0771910Y0179217D01*
X0772696Y0178431D02*
X0870569Y0178431D01*
X0870569Y0177645D02*
X0773482Y0177645D01*
X0774268Y0176859D02*
X0870569Y0176859D01*
X0760332Y0169142D02*
X0752773Y0161583D01*
X0698856Y0161583D01*
X0698856Y0163551D02*
X0738994Y0163551D01*
X0744584Y0169142D01*
X0736710Y0169142D02*
X0733088Y0165520D01*
X0698856Y0165520D01*
X0696159Y0165857D02*
X0690254Y0165857D01*
X0690254Y0166643D02*
X0696159Y0166643D01*
X0696159Y0167428D02*
X0690254Y0167428D01*
X0690254Y0168214D02*
X0696159Y0168214D01*
X0696159Y0169000D02*
X0690254Y0169000D01*
X0690254Y0169786D02*
X0696159Y0169786D01*
X0696159Y0170572D02*
X0690254Y0170572D01*
X0690254Y0171358D02*
X0696159Y0171358D01*
X0696159Y0172144D02*
X0690254Y0172144D01*
X0690254Y0172930D02*
X0696159Y0172930D01*
X0696159Y0173472D02*
X0696159Y0156937D01*
X0695871Y0156937D01*
X0695842Y0156966D01*
X0692854Y0156966D01*
X0692825Y0156937D01*
X0683954Y0156937D01*
X0683954Y0163630D01*
X0690254Y0163630D01*
X0690254Y0173472D01*
X0696159Y0173472D01*
X0698856Y0174597D02*
X0698856Y0169457D01*
X0696159Y0165071D02*
X0690254Y0165071D01*
X0690254Y0164285D02*
X0696159Y0164285D01*
X0696159Y0163499D02*
X0683954Y0163499D01*
X0683954Y0162713D02*
X0696159Y0162713D01*
X0696159Y0161927D02*
X0683954Y0161927D01*
X0683954Y0161141D02*
X0696159Y0161141D01*
X0696159Y0160355D02*
X0683954Y0160355D01*
X0683954Y0159569D02*
X0696159Y0159569D01*
X0696159Y0158783D02*
X0683954Y0158783D01*
X0683954Y0157998D02*
X0696159Y0157998D01*
X0696159Y0157212D02*
X0683954Y0157212D01*
X0682858Y0165520D02*
X0675456Y0158118D01*
X0675456Y0159924D01*
X0672537Y0162843D01*
X0660214Y0162843D01*
X0645844Y0177213D01*
X0645844Y0187213D02*
X0660765Y0172291D01*
X0671356Y0172291D01*
X0675456Y0168191D01*
X0675456Y0167567D01*
X0675535Y0167488D01*
X0687242Y0167488D01*
X0687242Y0165520D02*
X0682858Y0165520D01*
X0682689Y0169457D02*
X0675293Y0176853D01*
X0678443Y0192370D02*
X0691435Y0179378D01*
X0693797Y0179378D01*
X0693797Y0180002D01*
X0694075Y0180281D01*
X0694075Y0179378D01*
X0693797Y0179378D01*
X0694075Y0179378D02*
X0698856Y0174597D01*
X0687242Y0169457D02*
X0682689Y0169457D01*
X0698128Y0156150D02*
X0700687Y0158709D01*
X0742025Y0158709D01*
X0698128Y0156150D02*
X0698128Y0149299D01*
X0694348Y0145520D01*
X0688428Y0145520D01*
X0687891Y0146057D01*
X0690411Y0149457D02*
X0653600Y0149457D01*
X0645844Y0157213D01*
X0645844Y0147213D02*
X0654230Y0138827D01*
X0716007Y0138827D01*
X0721125Y0133709D01*
X0721125Y0123866D01*
X0712925Y0123866D02*
X0712925Y0114024D01*
X0713088Y0113861D01*
X0713088Y0110874D01*
X0715844Y0108118D01*
X0738679Y0108118D01*
X0742616Y0112055D01*
X0755608Y0105362D02*
X0710726Y0105362D01*
X0705377Y0110711D01*
X0705377Y0114024D01*
X0705377Y0123866D01*
X0697177Y0123866D02*
X0697177Y0133709D01*
X0649348Y0133709D01*
X0645844Y0137213D01*
X0660569Y0110874D02*
X0677655Y0127961D01*
X0660569Y0110874D02*
X0659545Y0110874D01*
X0755608Y0105362D02*
X0762301Y0112055D01*
X0694348Y0153394D02*
X0690411Y0149457D01*
X0631002Y0192370D02*
X0625844Y0187213D01*
X0631002Y0192370D02*
X0678443Y0192370D01*
X0705443Y0202213D02*
X0630844Y0202213D01*
X0625844Y0197213D01*
X0625844Y0207213D02*
X0636471Y0207213D01*
X0641708Y0212449D01*
X0691435Y0212449D01*
X0700151Y0221165D01*
X0700151Y0226921D01*
X0694978Y0229378D02*
X0694978Y0222291D01*
X0689899Y0217213D01*
X0645844Y0217213D01*
X0641828Y0221898D02*
X0632380Y0212449D01*
X0621080Y0212449D01*
X0615844Y0207213D01*
X0645844Y0207213D02*
X0645846Y0207255D01*
X0645851Y0207297D01*
X0645860Y0207339D01*
X0645872Y0207379D01*
X0645887Y0207419D01*
X0645906Y0207457D01*
X0645927Y0207493D01*
X0645952Y0207527D01*
X0645979Y0207560D01*
X0646009Y0207590D01*
X0646042Y0207617D01*
X0646076Y0207642D01*
X0646112Y0207663D01*
X0646150Y0207682D01*
X0646190Y0207697D01*
X0646230Y0207709D01*
X0646272Y0207718D01*
X0646314Y0207723D01*
X0646356Y0207725D01*
X0646356Y0207724D02*
X0693010Y0207724D01*
X0705608Y0220323D01*
X0705608Y0234658D01*
X0705167Y0235099D01*
X0705167Y0236743D01*
X0705506Y0237082D01*
X0705506Y0240047D01*
X0703537Y0240047D02*
X0703537Y0237937D01*
X0694978Y0229378D01*
X0693901Y0238796D02*
X0693901Y0242042D01*
X0696169Y0242042D01*
X0696751Y0242624D01*
X0696751Y0246628D01*
X0699894Y0246628D01*
X0700188Y0246921D01*
X0702026Y0246921D01*
X0702026Y0246296D01*
X0699526Y0246296D01*
X0699310Y0246080D01*
X0699248Y0246080D01*
X0698606Y0245438D01*
X0698606Y0243711D01*
X0698727Y0243591D01*
X0698606Y0243470D01*
X0698606Y0241743D01*
X0698901Y0241448D01*
X0698901Y0240671D01*
X0697026Y0238796D01*
X0693901Y0238796D01*
X0693901Y0238947D02*
X0697177Y0238947D01*
X0697962Y0239732D02*
X0693901Y0239732D01*
X0693901Y0240518D02*
X0698748Y0240518D01*
X0698901Y0241304D02*
X0693901Y0241304D01*
X0696218Y0242090D02*
X0698606Y0242090D01*
X0698606Y0242876D02*
X0696751Y0242876D01*
X0696751Y0243662D02*
X0698656Y0243662D01*
X0698606Y0244448D02*
X0696751Y0244448D01*
X0696751Y0245234D02*
X0698606Y0245234D01*
X0699188Y0246020D02*
X0696751Y0246020D01*
X0700072Y0246806D02*
X0702026Y0246806D01*
X0701811Y0250262D02*
X0698992Y0250262D01*
X0698945Y0250215D01*
X0695141Y0250215D01*
X0694955Y0250029D01*
X0691546Y0250029D01*
X0691050Y0249534D01*
X0690789Y0249529D01*
X0690789Y0249996D01*
X0689976Y0250809D01*
X0689890Y0250894D01*
X0689890Y0252783D01*
X0689921Y0252752D01*
X0695842Y0252752D01*
X0697783Y0250811D01*
X0698933Y0250811D01*
X0699011Y0250811D01*
X0699171Y0250652D01*
X0701811Y0250652D01*
X0701811Y0250262D01*
X0701811Y0252199D02*
X0698358Y0252199D01*
X0696417Y0254140D01*
X0690496Y0254140D01*
X0690496Y0257600D01*
X0694909Y0257600D01*
X0698606Y0253909D01*
X0698606Y0253554D01*
X0699248Y0252912D01*
X0699605Y0252912D01*
X0699842Y0252675D01*
X0701811Y0252675D01*
X0701811Y0252199D01*
X0701811Y0252307D02*
X0698250Y0252307D01*
X0697464Y0253093D02*
X0699067Y0253093D01*
X0698606Y0253879D02*
X0696678Y0253879D01*
X0697849Y0254665D02*
X0690496Y0254665D01*
X0690496Y0255451D02*
X0697062Y0255451D01*
X0696275Y0256237D02*
X0690496Y0256237D01*
X0690496Y0257023D02*
X0695488Y0257023D01*
X0696569Y0260795D02*
X0700978Y0256386D01*
X0701460Y0258945D02*
X0697734Y0262671D01*
X0675270Y0262671D01*
X0657528Y0244929D01*
X0641238Y0244929D01*
X0634604Y0238295D01*
X0634604Y0225972D01*
X0625844Y0217213D01*
X0641828Y0221898D02*
X0665128Y0221898D01*
X0670151Y0226921D01*
X0670151Y0243945D01*
X0670151Y0246677D01*
X0674295Y0250821D01*
X0682501Y0250821D01*
X0684485Y0250735D02*
X0688087Y0250735D01*
X0688055Y0250768D02*
X0689401Y0249421D01*
X0689401Y0241671D01*
X0681901Y0241671D01*
X0681901Y0248837D01*
X0683323Y0248837D01*
X0684485Y0249999D01*
X0684485Y0251643D01*
X0683323Y0252805D01*
X0681901Y0252805D01*
X0681901Y0254171D01*
X0688055Y0254215D01*
X0688055Y0250768D01*
X0688055Y0251521D02*
X0684485Y0251521D01*
X0683822Y0252307D02*
X0688055Y0252307D01*
X0688055Y0253093D02*
X0681901Y0253093D01*
X0681901Y0253879D02*
X0688055Y0253879D01*
X0686663Y0255441D02*
X0685529Y0255441D01*
X0685529Y0254575D01*
X0685529Y0255441D02*
X0685529Y0257136D01*
X0686846Y0258453D01*
X0689890Y0252307D02*
X0696288Y0252307D01*
X0697073Y0251521D02*
X0689890Y0251521D01*
X0690049Y0250735D02*
X0699087Y0250735D01*
X0691466Y0249949D02*
X0690789Y0249949D01*
X0689401Y0249163D02*
X0683650Y0249163D01*
X0684435Y0249949D02*
X0688873Y0249949D01*
X0689401Y0248378D02*
X0681901Y0248378D01*
X0681901Y0247592D02*
X0689401Y0247592D01*
X0689401Y0246806D02*
X0681901Y0246806D01*
X0681901Y0246020D02*
X0689401Y0246020D01*
X0689401Y0245234D02*
X0681901Y0245234D01*
X0681901Y0244448D02*
X0689401Y0244448D01*
X0689401Y0243662D02*
X0681901Y0243662D01*
X0681901Y0242876D02*
X0689401Y0242876D01*
X0689401Y0242090D02*
X0681901Y0242090D01*
X0670151Y0243945D02*
X0670151Y0246677D01*
X0655490Y0248419D02*
X0671750Y0264678D01*
X0674702Y0266174D02*
X0668206Y0266174D01*
X0653852Y0251819D01*
X0618063Y0251819D01*
X0614663Y0248419D01*
X0614663Y0228394D01*
X0614665Y0228328D01*
X0614670Y0228262D01*
X0614680Y0228196D01*
X0614693Y0228131D01*
X0614709Y0228067D01*
X0614729Y0228004D01*
X0614753Y0227942D01*
X0614780Y0227882D01*
X0614810Y0227823D01*
X0614844Y0227766D01*
X0614881Y0227711D01*
X0614921Y0227658D01*
X0614963Y0227607D01*
X0615009Y0227559D01*
X0615057Y0227513D01*
X0615108Y0227471D01*
X0615161Y0227431D01*
X0615216Y0227394D01*
X0615273Y0227360D01*
X0615332Y0227330D01*
X0615392Y0227303D01*
X0615454Y0227279D01*
X0615517Y0227259D01*
X0615581Y0227243D01*
X0615646Y0227230D01*
X0615712Y0227220D01*
X0615778Y0227215D01*
X0615844Y0227213D01*
X0625844Y0227213D02*
X0625944Y0227215D01*
X0626043Y0227221D01*
X0626142Y0227230D01*
X0626241Y0227243D01*
X0626339Y0227261D01*
X0626436Y0227281D01*
X0626532Y0227306D01*
X0626628Y0227334D01*
X0626722Y0227366D01*
X0626815Y0227401D01*
X0626907Y0227440D01*
X0626997Y0227483D01*
X0627085Y0227529D01*
X0627172Y0227578D01*
X0627256Y0227630D01*
X0627339Y0227686D01*
X0627419Y0227745D01*
X0627497Y0227807D01*
X0627573Y0227871D01*
X0627646Y0227939D01*
X0627716Y0228009D01*
X0627784Y0228082D01*
X0627848Y0228158D01*
X0627910Y0228236D01*
X0627969Y0228316D01*
X0628025Y0228399D01*
X0628077Y0228483D01*
X0628126Y0228570D01*
X0628172Y0228658D01*
X0628215Y0228748D01*
X0628254Y0228840D01*
X0628289Y0228933D01*
X0628321Y0229027D01*
X0628349Y0229123D01*
X0628374Y0229219D01*
X0628394Y0229316D01*
X0628412Y0229414D01*
X0628425Y0229513D01*
X0628434Y0229612D01*
X0628440Y0229711D01*
X0628442Y0229811D01*
X0628443Y0229811D02*
X0628443Y0248419D01*
X0655490Y0248419D01*
X0645962Y0227213D02*
X0679545Y0260795D01*
X0696569Y0260795D01*
X0701460Y0258945D02*
X0703537Y0258945D01*
X0713380Y0257961D02*
X0713380Y0262364D01*
X0712845Y0262899D01*
X0712845Y0262955D01*
X0712169Y0264024D01*
X0714513Y0265880D02*
X0716369Y0264024D01*
X0715348Y0263002D01*
X0715348Y0258945D01*
X0717317Y0258945D02*
X0717317Y0260716D01*
X0718713Y0262112D01*
X0718713Y0268635D01*
X0718600Y0268748D01*
X0721224Y0268748D01*
X0718600Y0268748D02*
X0716369Y0268748D01*
X0714513Y0265935D02*
X0712169Y0268279D01*
X0712169Y0268748D01*
X0709261Y0271656D01*
X0708474Y0271656D01*
X0707576Y0271656D01*
X0666873Y0271656D01*
X0661907Y0276622D01*
X0661907Y0279378D01*
X0658758Y0276622D02*
X0665316Y0270063D01*
X0680411Y0270063D01*
X0701559Y0270063D01*
X0701552Y0268079D02*
X0682859Y0268079D01*
X0680411Y0269929D02*
X0680411Y0270063D01*
X0714513Y0265935D02*
X0714513Y0265880D01*
X0721224Y0264024D02*
X0721224Y0262661D01*
X0719387Y0260824D01*
X0719387Y0259047D01*
X0719285Y0258945D01*
X0721254Y0258945D02*
X0725424Y0263116D01*
X0725424Y0264024D01*
X0729370Y0264390D02*
X0730280Y0264024D01*
X0723813Y0257557D01*
X0723813Y0256386D01*
X0722980Y0254581D02*
X0725311Y0254581D01*
X0726401Y0255671D01*
X0726401Y0258183D01*
X0729748Y0261530D01*
X0732041Y0261530D01*
X0732433Y0261921D01*
X0733276Y0261921D01*
X0734526Y0263171D01*
X0735776Y0263171D01*
X0742700Y0262940D01*
X0742700Y0259815D01*
X0733576Y0259746D01*
X0733576Y0255046D01*
X0727651Y0255046D01*
X0725198Y0252469D01*
X0724948Y0252199D01*
X0722980Y0252199D01*
X0722980Y0254581D01*
X0722980Y0253879D02*
X0726541Y0253879D01*
X0727288Y0254665D02*
X0725395Y0254665D01*
X0726181Y0255451D02*
X0733576Y0255451D01*
X0733576Y0256237D02*
X0726401Y0256237D01*
X0726401Y0257023D02*
X0733576Y0257023D01*
X0733576Y0257808D02*
X0726401Y0257808D01*
X0726812Y0258594D02*
X0733576Y0258594D01*
X0733576Y0259380D02*
X0727598Y0259380D01*
X0728384Y0260166D02*
X0742700Y0260166D01*
X0742700Y0260952D02*
X0729170Y0260952D01*
X0732249Y0261738D02*
X0742700Y0261738D01*
X0742700Y0262524D02*
X0733879Y0262524D01*
X0725424Y0268748D02*
X0725120Y0268921D01*
X0728246Y0253659D02*
X0734151Y0253659D01*
X0734402Y0253909D01*
X0736510Y0253909D01*
X0736510Y0250867D01*
X0736264Y0250621D01*
X0736264Y0250472D01*
X0733540Y0250472D01*
X0733491Y0250521D01*
X0728868Y0250521D01*
X0728819Y0250472D01*
X0728635Y0250472D01*
X0728642Y0250295D01*
X0728592Y0250246D01*
X0722980Y0250246D01*
X0723151Y0250671D01*
X0724401Y0250671D01*
X0724518Y0250794D01*
X0724975Y0250811D01*
X0725523Y0250811D01*
X0725545Y0250833D01*
X0725575Y0250834D01*
X0725948Y0251236D01*
X0726336Y0251624D01*
X0726336Y0251651D01*
X0728246Y0253659D01*
X0727708Y0253093D02*
X0736510Y0253093D01*
X0736510Y0253879D02*
X0734371Y0253879D01*
X0736510Y0252307D02*
X0726960Y0252307D01*
X0726233Y0251521D02*
X0736510Y0251521D01*
X0736378Y0250735D02*
X0724462Y0250735D01*
X0725049Y0252307D02*
X0722980Y0252307D01*
X0722980Y0253093D02*
X0725793Y0253093D01*
X0724758Y0246778D02*
X0724908Y0246628D01*
X0728285Y0246628D01*
X0728285Y0243116D01*
X0728635Y0242766D01*
X0728635Y0242583D01*
X0728819Y0242583D01*
X0728868Y0242534D01*
X0733491Y0242534D01*
X0733540Y0242583D01*
X0735771Y0242583D01*
X0735771Y0238904D01*
X0728878Y0238904D01*
X0726058Y0241477D01*
X0726058Y0241616D01*
X0726184Y0241743D01*
X0726184Y0243470D01*
X0726063Y0243591D01*
X0726184Y0243711D01*
X0726184Y0245438D01*
X0726058Y0245565D01*
X0726058Y0246301D01*
X0722980Y0246301D01*
X0722980Y0246778D01*
X0724758Y0246778D01*
X0726058Y0246020D02*
X0728285Y0246020D01*
X0728285Y0245234D02*
X0726184Y0245234D01*
X0726184Y0244448D02*
X0728285Y0244448D01*
X0728285Y0243662D02*
X0726135Y0243662D01*
X0726184Y0242876D02*
X0728525Y0242876D01*
X0726184Y0242090D02*
X0735771Y0242090D01*
X0735771Y0241304D02*
X0726247Y0241304D01*
X0727108Y0240518D02*
X0735771Y0240518D01*
X0735771Y0239732D02*
X0727969Y0239732D01*
X0728830Y0238947D02*
X0735771Y0238947D01*
X0737651Y0241921D02*
X0743901Y0241921D01*
X0743901Y0251296D01*
X0738901Y0251296D01*
X0737651Y0250046D01*
X0737651Y0241921D01*
X0737651Y0242090D02*
X0743901Y0242090D01*
X0743901Y0242876D02*
X0737651Y0242876D01*
X0737651Y0243662D02*
X0743901Y0243662D01*
X0743901Y0244448D02*
X0737651Y0244448D01*
X0737651Y0245234D02*
X0743901Y0245234D01*
X0743901Y0246020D02*
X0737651Y0246020D01*
X0737651Y0246806D02*
X0743901Y0246806D01*
X0743901Y0247592D02*
X0737651Y0247592D01*
X0737651Y0248378D02*
X0743901Y0248378D01*
X0743901Y0249163D02*
X0737651Y0249163D01*
X0737651Y0249949D02*
X0743901Y0249949D01*
X0743901Y0250735D02*
X0738340Y0250735D01*
X0712395Y0249496D02*
X0712395Y0253925D01*
X0713380Y0240047D02*
X0713380Y0236193D01*
X0713651Y0235921D01*
X0715348Y0237474D02*
X0715348Y0240047D01*
X0717317Y0240047D02*
X0717317Y0238006D01*
X0719285Y0238287D02*
X0719285Y0240047D01*
X0730151Y0226921D02*
X0705443Y0202213D01*
X0710324Y0197094D02*
X0740151Y0226921D01*
X0815057Y0242090D02*
X0818092Y0242090D01*
X0818523Y0242876D02*
X0815057Y0242876D01*
X0815057Y0243662D02*
X0819309Y0243662D01*
X0821041Y0243662D02*
X0866632Y0243662D01*
X0866632Y0242876D02*
X0821827Y0242876D01*
X0822258Y0242090D02*
X0866632Y0242090D01*
X0866632Y0241304D02*
X0831198Y0241304D01*
X0831198Y0240518D02*
X0866632Y0240518D01*
X0866632Y0239732D02*
X0831198Y0239732D01*
X0831198Y0238947D02*
X0866632Y0238947D01*
X0866632Y0238161D02*
X0831198Y0238161D01*
X0831198Y0237375D02*
X0866632Y0237375D01*
X0866632Y0236589D02*
X0831198Y0236589D01*
X0831198Y0235803D02*
X0866632Y0235803D01*
X0866632Y0235017D02*
X0831198Y0235017D01*
X0831198Y0234231D02*
X0866632Y0234231D01*
X0874506Y0234231D02*
X0917813Y0234231D01*
X0917813Y0233445D02*
X0874506Y0233445D01*
X0874506Y0232659D02*
X0917813Y0232659D01*
X0917813Y0231873D02*
X0874506Y0231873D01*
X0874506Y0231087D02*
X0917813Y0231087D01*
X0917813Y0230302D02*
X0874506Y0230302D01*
X0874506Y0229516D02*
X0917813Y0229516D01*
X0917813Y0228730D02*
X0874506Y0228730D01*
X0874506Y0227944D02*
X0917813Y0227944D01*
X0917813Y0227158D02*
X0874506Y0227158D01*
X0874506Y0226372D02*
X0917813Y0226372D01*
X0917813Y0225586D02*
X0874506Y0225586D01*
X0874506Y0224800D02*
X0917813Y0224800D01*
X0917813Y0224014D02*
X0874506Y0224014D01*
X0874506Y0223228D02*
X0917813Y0223228D01*
X0917813Y0222442D02*
X0874506Y0222442D01*
X0874506Y0221656D02*
X0917813Y0221656D01*
X0917813Y0220871D02*
X0874506Y0220871D01*
X0874506Y0220085D02*
X0917813Y0220085D01*
X0917813Y0219299D02*
X0874506Y0219299D01*
X0874506Y0218513D02*
X0917813Y0218513D01*
X0917813Y0217727D02*
X0874506Y0217727D01*
X0874506Y0235017D02*
X0917813Y0235017D01*
X0917813Y0235803D02*
X0874506Y0235803D01*
X0874506Y0236589D02*
X0917813Y0236589D01*
X0917813Y0237375D02*
X0874506Y0237375D01*
X0874506Y0238161D02*
X0917813Y0238161D01*
X0917813Y0238947D02*
X0874506Y0238947D01*
X0874506Y0239732D02*
X0917813Y0239732D01*
X0917813Y0240518D02*
X0874506Y0240518D01*
X0874506Y0241304D02*
X0917813Y0241304D01*
X0917813Y0242090D02*
X0874506Y0242090D01*
X0874506Y0242876D02*
X0917813Y0242876D01*
X0917813Y0243662D02*
X0874506Y0243662D01*
X0874506Y0244448D02*
X0917813Y0244448D01*
X0917813Y0245234D02*
X0874506Y0245234D01*
X0874506Y0246020D02*
X0917813Y0246020D01*
X0917813Y0246806D02*
X0874506Y0246806D01*
X0874506Y0247592D02*
X0917813Y0247592D01*
X0917813Y0248378D02*
X0874506Y0248378D01*
X0874506Y0249163D02*
X0917813Y0249163D01*
X0917813Y0249949D02*
X0874506Y0249949D01*
X0874506Y0250735D02*
X0917813Y0250735D01*
X0917813Y0251521D02*
X0874506Y0251521D01*
X0874506Y0252307D02*
X0917813Y0252307D01*
X0917813Y0253093D02*
X0874506Y0253093D01*
X0874506Y0253879D02*
X0917813Y0253879D01*
X0917813Y0254665D02*
X0874506Y0254665D01*
X0874506Y0255451D02*
X0917813Y0255451D01*
X0917813Y0256237D02*
X0874506Y0256237D01*
X0874506Y0257023D02*
X0917813Y0257023D01*
X0917813Y0257808D02*
X0874506Y0257808D01*
X0874506Y0258594D02*
X0917813Y0258594D01*
X0917813Y0259380D02*
X0874506Y0259380D01*
X0874506Y0260166D02*
X0917813Y0260166D01*
X0917813Y0260952D02*
X0874506Y0260952D01*
X0874506Y0261738D02*
X0917813Y0261738D01*
X0917813Y0262524D02*
X0874506Y0262524D01*
X0874506Y0263310D02*
X0917813Y0263310D01*
X0917813Y0264096D02*
X0874506Y0264096D01*
X0874506Y0264882D02*
X0917813Y0264882D01*
X0917813Y0265668D02*
X0874506Y0265668D01*
X0874506Y0266454D02*
X0917813Y0266454D01*
X0917813Y0267239D02*
X0874506Y0267239D01*
X0874506Y0268025D02*
X0917813Y0268025D01*
X0917813Y0268811D02*
X0874506Y0268811D01*
X0874506Y0269597D02*
X0917813Y0269597D01*
X0917813Y0270383D02*
X0874506Y0270383D01*
X0874506Y0271169D02*
X0917813Y0271169D01*
X0917813Y0271955D02*
X0874506Y0271955D01*
X0874506Y0272741D02*
X0917813Y0272741D01*
X0917813Y0273527D02*
X0874506Y0273527D01*
X0874506Y0274313D02*
X0917813Y0274313D01*
X0917813Y0275099D02*
X0874506Y0275099D01*
X0874506Y0275884D02*
X0917813Y0275884D01*
X0917813Y0276670D02*
X0874506Y0276670D01*
X0874506Y0277456D02*
X0917813Y0277456D01*
X0917813Y0278242D02*
X0874506Y0278242D01*
X0874506Y0279028D02*
X0917813Y0279028D01*
X0917813Y0279814D02*
X0874506Y0279814D01*
X0874506Y0280600D02*
X0917813Y0280600D01*
X0917813Y0281386D02*
X0874506Y0281386D01*
X0874506Y0282172D02*
X0917813Y0282172D01*
X0917813Y0282958D02*
X0874506Y0282958D01*
X0874506Y0283744D02*
X0917813Y0283744D01*
X0917813Y0284530D02*
X0874506Y0284530D01*
X0874506Y0285315D02*
X0917813Y0285315D01*
X0917813Y0286101D02*
X0874506Y0286101D01*
X0874506Y0286887D02*
X0917813Y0286887D01*
X0917813Y0287673D02*
X0874506Y0287673D01*
X0874506Y0288459D02*
X0917813Y0288459D01*
X0917813Y0289245D02*
X0874506Y0289245D01*
X0874506Y0290031D02*
X0917813Y0290031D01*
X0917813Y0290817D02*
X0874506Y0290817D01*
X0874506Y0291603D02*
X0917813Y0291603D01*
X0917813Y0292389D02*
X0874506Y0292389D01*
X0874506Y0293175D02*
X0917813Y0293175D01*
X0917813Y0293960D02*
X0874506Y0293960D01*
X0874506Y0294746D02*
X0917813Y0294746D01*
X0917813Y0295532D02*
X0874506Y0295532D01*
X0874506Y0296318D02*
X0917813Y0296318D01*
X0917813Y0297104D02*
X0874506Y0297104D01*
X0874506Y0297890D02*
X0917813Y0297890D01*
X0917813Y0298676D02*
X0874506Y0298676D01*
X0874506Y0299462D02*
X0917813Y0299462D01*
X0917813Y0300248D02*
X0874506Y0300248D01*
X0874506Y0301034D02*
X0917813Y0301034D01*
X0917813Y0301820D02*
X0874506Y0301820D01*
X0874506Y0302605D02*
X0917813Y0302605D01*
X0917813Y0303391D02*
X0874506Y0303391D01*
X0874506Y0304177D02*
X0917304Y0304177D01*
X0916586Y0304963D02*
X0874506Y0304963D01*
X0874506Y0305749D02*
X0916058Y0305749D01*
X0915872Y0306535D02*
X0874506Y0306535D01*
X0874506Y0307321D02*
X0915686Y0307321D01*
X0915517Y0308039D02*
X0915517Y0308039D01*
X0915536Y0308107D02*
X0874506Y0308107D01*
X0874506Y0308893D02*
X0915759Y0308893D01*
X0915983Y0309679D02*
X0874506Y0309679D01*
X0874506Y0310465D02*
X0916206Y0310465D01*
X0916239Y0310580D02*
X0916239Y0310580D01*
X0916909Y0311251D02*
X0874506Y0311251D01*
X0874506Y0312036D02*
X0917695Y0312036D01*
X0919425Y0312822D02*
X0874506Y0312822D01*
X0874506Y0313608D02*
X0919781Y0313608D01*
X0919781Y0314394D02*
X0874506Y0314394D01*
X0874506Y0315180D02*
X0919781Y0315180D01*
X0919781Y0315966D02*
X0874506Y0315966D01*
X0874506Y0316752D02*
X0919781Y0316752D01*
X0919781Y0317538D02*
X0874506Y0317538D01*
X0874506Y0318324D02*
X0919781Y0318324D01*
X0919781Y0319110D02*
X0874506Y0319110D01*
X0874506Y0319896D02*
X0919781Y0319896D01*
X0919781Y0320681D02*
X0874506Y0320681D01*
X0874506Y0321467D02*
X0919781Y0321467D01*
X0919781Y0322253D02*
X0874506Y0322253D01*
X0866203Y0298676D02*
X0831198Y0298676D01*
X0831198Y0297890D02*
X0866632Y0297890D01*
X0866632Y0297104D02*
X0831198Y0297104D01*
X0831198Y0296318D02*
X0855050Y0296318D01*
X0855135Y0296403D02*
X0852795Y0294064D01*
X0852795Y0290755D01*
X0855135Y0288416D01*
X0858443Y0288416D01*
X0860783Y0290755D01*
X0860783Y0294064D01*
X0858443Y0296403D01*
X0855135Y0296403D01*
X0854264Y0295532D02*
X0831198Y0295532D01*
X0831198Y0294746D02*
X0853478Y0294746D01*
X0852795Y0293960D02*
X0831198Y0293960D01*
X0831198Y0293175D02*
X0852795Y0293175D01*
X0852795Y0292389D02*
X0831198Y0292389D01*
X0831198Y0291603D02*
X0852795Y0291603D01*
X0852795Y0290817D02*
X0831198Y0290817D01*
X0831198Y0290031D02*
X0853520Y0290031D01*
X0854306Y0289245D02*
X0831198Y0289245D01*
X0831198Y0288459D02*
X0855091Y0288459D01*
X0855135Y0286403D02*
X0852795Y0284064D01*
X0852795Y0280755D01*
X0855135Y0278416D01*
X0858443Y0278416D01*
X0860783Y0280755D01*
X0860783Y0284064D01*
X0858443Y0286403D01*
X0855135Y0286403D01*
X0854833Y0286101D02*
X0831198Y0286101D01*
X0831198Y0285315D02*
X0854047Y0285315D01*
X0853261Y0284530D02*
X0831198Y0284530D01*
X0831198Y0283744D02*
X0852795Y0283744D01*
X0852795Y0282958D02*
X0831198Y0282958D01*
X0831198Y0282172D02*
X0852795Y0282172D01*
X0852795Y0281386D02*
X0831198Y0281386D01*
X0831198Y0280600D02*
X0852951Y0280600D01*
X0853737Y0279814D02*
X0831198Y0279814D01*
X0831198Y0279028D02*
X0854522Y0279028D01*
X0855135Y0276403D02*
X0852795Y0274064D01*
X0852795Y0270755D01*
X0855135Y0268416D01*
X0858443Y0268416D01*
X0860783Y0270755D01*
X0860783Y0274064D01*
X0858443Y0276403D01*
X0855135Y0276403D01*
X0854616Y0275884D02*
X0831198Y0275884D01*
X0831198Y0275099D02*
X0853830Y0275099D01*
X0853044Y0274313D02*
X0831198Y0274313D01*
X0831198Y0273527D02*
X0852795Y0273527D01*
X0852795Y0272741D02*
X0831198Y0272741D01*
X0831198Y0271955D02*
X0852795Y0271955D01*
X0852795Y0271169D02*
X0831198Y0271169D01*
X0831198Y0270383D02*
X0853167Y0270383D01*
X0853953Y0269597D02*
X0831198Y0269597D01*
X0831198Y0268811D02*
X0854739Y0268811D01*
X0855135Y0266403D02*
X0852795Y0264064D01*
X0852795Y0260755D01*
X0855135Y0258416D01*
X0858443Y0258416D01*
X0860783Y0260755D01*
X0860783Y0264064D01*
X0858443Y0266403D01*
X0855135Y0266403D01*
X0854399Y0265668D02*
X0831198Y0265668D01*
X0831198Y0266454D02*
X0866632Y0266454D01*
X0866632Y0267239D02*
X0831198Y0267239D01*
X0831198Y0268025D02*
X0866632Y0268025D01*
X0866632Y0268811D02*
X0858839Y0268811D01*
X0859625Y0269597D02*
X0866632Y0269597D01*
X0866632Y0270383D02*
X0860411Y0270383D01*
X0860783Y0271169D02*
X0866632Y0271169D01*
X0866632Y0271955D02*
X0860783Y0271955D01*
X0860783Y0272741D02*
X0866632Y0272741D01*
X0866632Y0273527D02*
X0860783Y0273527D01*
X0860534Y0274313D02*
X0866632Y0274313D01*
X0866632Y0275099D02*
X0859748Y0275099D01*
X0858962Y0275884D02*
X0866632Y0275884D01*
X0866632Y0276670D02*
X0831198Y0276670D01*
X0831198Y0277456D02*
X0866632Y0277456D01*
X0866632Y0278242D02*
X0831198Y0278242D01*
X0831198Y0286887D02*
X0866632Y0286887D01*
X0866632Y0286101D02*
X0858745Y0286101D01*
X0859531Y0285315D02*
X0866632Y0285315D01*
X0866632Y0284530D02*
X0860317Y0284530D01*
X0860783Y0283744D02*
X0866632Y0283744D01*
X0866632Y0282958D02*
X0860783Y0282958D01*
X0860783Y0282172D02*
X0866632Y0282172D01*
X0866632Y0281386D02*
X0860783Y0281386D01*
X0860627Y0280600D02*
X0866632Y0280600D01*
X0866632Y0279814D02*
X0859842Y0279814D01*
X0859056Y0279028D02*
X0866632Y0279028D01*
X0866632Y0287673D02*
X0831198Y0287673D01*
X0858487Y0288459D02*
X0866632Y0288459D01*
X0866632Y0289245D02*
X0859273Y0289245D01*
X0860058Y0290031D02*
X0866632Y0290031D01*
X0866632Y0290817D02*
X0860783Y0290817D01*
X0860783Y0291603D02*
X0866632Y0291603D01*
X0866632Y0292389D02*
X0860783Y0292389D01*
X0860783Y0293175D02*
X0866632Y0293175D01*
X0866632Y0293960D02*
X0860783Y0293960D01*
X0860100Y0294746D02*
X0866632Y0294746D01*
X0866632Y0295532D02*
X0859314Y0295532D01*
X0858528Y0296318D02*
X0866632Y0296318D01*
X0866632Y0265668D02*
X0859179Y0265668D01*
X0859965Y0264882D02*
X0866632Y0264882D01*
X0866632Y0264096D02*
X0860751Y0264096D01*
X0860783Y0263310D02*
X0866632Y0263310D01*
X0866632Y0262524D02*
X0860783Y0262524D01*
X0860783Y0261738D02*
X0866632Y0261738D01*
X0866632Y0260952D02*
X0860783Y0260952D01*
X0860194Y0260166D02*
X0866632Y0260166D01*
X0866632Y0259380D02*
X0859408Y0259380D01*
X0858622Y0258594D02*
X0866632Y0258594D01*
X0866632Y0257808D02*
X0831198Y0257808D01*
X0831198Y0257023D02*
X0866632Y0257023D01*
X0866632Y0256237D02*
X0831198Y0256237D01*
X0831198Y0258594D02*
X0854956Y0258594D01*
X0854170Y0259380D02*
X0831198Y0259380D01*
X0831198Y0260166D02*
X0853384Y0260166D01*
X0852795Y0260952D02*
X0831198Y0260952D01*
X0831198Y0261738D02*
X0852795Y0261738D01*
X0852795Y0262524D02*
X0831198Y0262524D01*
X0831198Y0263310D02*
X0852795Y0263310D01*
X0852827Y0264096D02*
X0831198Y0264096D01*
X0831198Y0264882D02*
X0853613Y0264882D01*
X0866632Y0255451D02*
X0815057Y0255451D01*
X0815057Y0254665D02*
X0866632Y0254665D01*
X0866632Y0253879D02*
X0815057Y0253879D01*
X0815057Y0253093D02*
X0866632Y0253093D01*
X0866632Y0252307D02*
X0815057Y0252307D01*
X0815057Y0251521D02*
X0866632Y0251521D01*
X0866632Y0250735D02*
X0815057Y0250735D01*
X0815057Y0249949D02*
X0866632Y0249949D01*
X0866632Y0249163D02*
X0815057Y0249163D01*
X0815057Y0248378D02*
X0866632Y0248378D01*
X0866632Y0247592D02*
X0815057Y0247592D01*
X0815057Y0246806D02*
X0866632Y0246806D01*
X0866632Y0246020D02*
X0815057Y0246020D01*
X0815057Y0245234D02*
X0866632Y0245234D01*
X0866632Y0244448D02*
X0815057Y0244448D01*
X0710324Y0197094D02*
X0645962Y0197094D01*
X0645844Y0197213D01*
X0645962Y0227213D02*
X0645844Y0227213D01*
X0601080Y0229575D02*
X0598718Y0227213D01*
X0585844Y0227213D01*
X0624506Y0310874D02*
X0624506Y0320717D01*
X0634348Y0320717D02*
X0634348Y0312843D01*
X1203246Y0312924D02*
X1203246Y0320717D01*
X1248679Y0320717D01*
X1248679Y0208512D01*
X1205214Y0208512D01*
X1205214Y0303620D01*
X1206903Y0305468D01*
X1206903Y0305469D01*
X1207510Y0308039D01*
X1207510Y0308039D01*
X1206788Y0310580D01*
X1206788Y0310580D01*
X1204920Y0312448D01*
X1203246Y0312924D01*
X1203602Y0312822D02*
X1248679Y0312822D01*
X1248679Y0312036D02*
X1205332Y0312036D01*
X1204920Y0312448D02*
X1204920Y0312448D01*
X1206118Y0311251D02*
X1248679Y0311251D01*
X1248679Y0310465D02*
X1206821Y0310465D01*
X1207044Y0309679D02*
X1248679Y0309679D01*
X1248679Y0308893D02*
X1207267Y0308893D01*
X1207491Y0308107D02*
X1248679Y0308107D01*
X1248679Y0307321D02*
X1207340Y0307321D01*
X1207155Y0306535D02*
X1248679Y0306535D01*
X1248679Y0305749D02*
X1206969Y0305749D01*
X1206441Y0304963D02*
X1248679Y0304963D01*
X1248679Y0304177D02*
X1205723Y0304177D01*
X1205214Y0303391D02*
X1248679Y0303391D01*
X1248679Y0302605D02*
X1205214Y0302605D01*
X1205214Y0301820D02*
X1248679Y0301820D01*
X1248679Y0301034D02*
X1205214Y0301034D01*
X1205214Y0300248D02*
X1248679Y0300248D01*
X1248679Y0299462D02*
X1205214Y0299462D01*
X1205214Y0298676D02*
X1248679Y0298676D01*
X1248679Y0297890D02*
X1205214Y0297890D01*
X1205214Y0297104D02*
X1248679Y0297104D01*
X1248679Y0296318D02*
X1205214Y0296318D01*
X1205214Y0295532D02*
X1248679Y0295532D01*
X1248679Y0294746D02*
X1205214Y0294746D01*
X1205214Y0293960D02*
X1248679Y0293960D01*
X1248679Y0293175D02*
X1205214Y0293175D01*
X1205214Y0292389D02*
X1248679Y0292389D01*
X1248679Y0291603D02*
X1205214Y0291603D01*
X1205214Y0290817D02*
X1248679Y0290817D01*
X1248679Y0290031D02*
X1205214Y0290031D01*
X1205214Y0289245D02*
X1248679Y0289245D01*
X1248679Y0288459D02*
X1205214Y0288459D01*
X1205214Y0287673D02*
X1248679Y0287673D01*
X1248679Y0286887D02*
X1205214Y0286887D01*
X1205214Y0286101D02*
X1248679Y0286101D01*
X1248679Y0285315D02*
X1205214Y0285315D01*
X1205214Y0284530D02*
X1248679Y0284530D01*
X1248679Y0283744D02*
X1205214Y0283744D01*
X1205214Y0282958D02*
X1248679Y0282958D01*
X1248679Y0282172D02*
X1205214Y0282172D01*
X1205214Y0281386D02*
X1248679Y0281386D01*
X1248679Y0280600D02*
X1205214Y0280600D01*
X1205214Y0279814D02*
X1248679Y0279814D01*
X1248679Y0279028D02*
X1205214Y0279028D01*
X1205214Y0278242D02*
X1248679Y0278242D01*
X1248679Y0277456D02*
X1205214Y0277456D01*
X1205214Y0276670D02*
X1248679Y0276670D01*
X1248679Y0275884D02*
X1205214Y0275884D01*
X1205214Y0275099D02*
X1248679Y0275099D01*
X1248679Y0274313D02*
X1205214Y0274313D01*
X1205214Y0273527D02*
X1248679Y0273527D01*
X1248679Y0272741D02*
X1205214Y0272741D01*
X1205214Y0271955D02*
X1248679Y0271955D01*
X1248679Y0271169D02*
X1205214Y0271169D01*
X1205214Y0270383D02*
X1248679Y0270383D01*
X1248679Y0269597D02*
X1205214Y0269597D01*
X1205214Y0268811D02*
X1248679Y0268811D01*
X1248679Y0268025D02*
X1205214Y0268025D01*
X1205214Y0267239D02*
X1248679Y0267239D01*
X1248679Y0266454D02*
X1205214Y0266454D01*
X1205214Y0265668D02*
X1248679Y0265668D01*
X1248679Y0264882D02*
X1205214Y0264882D01*
X1205214Y0264096D02*
X1248679Y0264096D01*
X1248679Y0263310D02*
X1205214Y0263310D01*
X1205214Y0262524D02*
X1248679Y0262524D01*
X1248679Y0261738D02*
X1205214Y0261738D01*
X1205214Y0260952D02*
X1248679Y0260952D01*
X1248679Y0260166D02*
X1205214Y0260166D01*
X1205214Y0259380D02*
X1248679Y0259380D01*
X1248679Y0258594D02*
X1205214Y0258594D01*
X1205214Y0257808D02*
X1248679Y0257808D01*
X1248679Y0257023D02*
X1205214Y0257023D01*
X1205214Y0256237D02*
X1248679Y0256237D01*
X1248679Y0255451D02*
X1205214Y0255451D01*
X1205214Y0254665D02*
X1248679Y0254665D01*
X1248679Y0253879D02*
X1205214Y0253879D01*
X1205214Y0253093D02*
X1248679Y0253093D01*
X1248679Y0252307D02*
X1205214Y0252307D01*
X1205214Y0251521D02*
X1248679Y0251521D01*
X1248679Y0250735D02*
X1205214Y0250735D01*
X1205214Y0249949D02*
X1248679Y0249949D01*
X1248679Y0249163D02*
X1205214Y0249163D01*
X1205214Y0248378D02*
X1248679Y0248378D01*
X1248679Y0247592D02*
X1205214Y0247592D01*
X1205214Y0246806D02*
X1248679Y0246806D01*
X1248679Y0246020D02*
X1205214Y0246020D01*
X1205214Y0245234D02*
X1248679Y0245234D01*
X1248679Y0244448D02*
X1205214Y0244448D01*
X1205214Y0243662D02*
X1248679Y0243662D01*
X1248679Y0242876D02*
X1205214Y0242876D01*
X1205214Y0242090D02*
X1248679Y0242090D01*
X1248679Y0241304D02*
X1205214Y0241304D01*
X1205214Y0240518D02*
X1248679Y0240518D01*
X1248679Y0239732D02*
X1205214Y0239732D01*
X1205214Y0238947D02*
X1248679Y0238947D01*
X1248679Y0238161D02*
X1205214Y0238161D01*
X1205214Y0237375D02*
X1248679Y0237375D01*
X1248679Y0236589D02*
X1205214Y0236589D01*
X1205214Y0235803D02*
X1248679Y0235803D01*
X1248679Y0235017D02*
X1205214Y0235017D01*
X1205214Y0234231D02*
X1248679Y0234231D01*
X1248679Y0233445D02*
X1205214Y0233445D01*
X1205214Y0232659D02*
X1248679Y0232659D01*
X1248679Y0231873D02*
X1205214Y0231873D01*
X1205214Y0231087D02*
X1248679Y0231087D01*
X1248679Y0230302D02*
X1205214Y0230302D01*
X1205214Y0229516D02*
X1248679Y0229516D01*
X1248679Y0228730D02*
X1205214Y0228730D01*
X1205214Y0227944D02*
X1248679Y0227944D01*
X1248679Y0227158D02*
X1205214Y0227158D01*
X1205214Y0226372D02*
X1248679Y0226372D01*
X1248679Y0225586D02*
X1205214Y0225586D01*
X1205214Y0224800D02*
X1248679Y0224800D01*
X1248679Y0224014D02*
X1205214Y0224014D01*
X1205214Y0223228D02*
X1248679Y0223228D01*
X1248679Y0222442D02*
X1205214Y0222442D01*
X1205214Y0221656D02*
X1248679Y0221656D01*
X1248679Y0220871D02*
X1205214Y0220871D01*
X1205214Y0220085D02*
X1248679Y0220085D01*
X1248679Y0219299D02*
X1205214Y0219299D01*
X1205214Y0218513D02*
X1248679Y0218513D01*
X1248679Y0217727D02*
X1205214Y0217727D01*
X1205214Y0216941D02*
X1248679Y0216941D01*
X1248679Y0216155D02*
X1205214Y0216155D01*
X1205214Y0215369D02*
X1248679Y0215369D01*
X1248679Y0214583D02*
X1205214Y0214583D01*
X1205214Y0213797D02*
X1248679Y0213797D01*
X1248679Y0213011D02*
X1205214Y0213011D01*
X1205214Y0212226D02*
X1248679Y0212226D01*
X1248679Y0211440D02*
X1205214Y0211440D01*
X1205214Y0210654D02*
X1248679Y0210654D01*
X1248679Y0209868D02*
X1205214Y0209868D01*
X1205214Y0209082D02*
X1248679Y0209082D01*
X0984742Y0117130D02*
X0890273Y0117130D01*
X0892171Y0116344D02*
X0984742Y0116344D01*
X0984742Y0115558D02*
X0893201Y0115558D01*
X0893987Y0114772D02*
X0984742Y0114772D01*
X0984742Y0113986D02*
X0894773Y0113986D01*
X0895116Y0113200D02*
X0984742Y0113200D01*
X0984742Y0112415D02*
X0895441Y0112415D01*
X0895767Y0111629D02*
X0984742Y0111629D01*
X0984742Y0110843D02*
X0896002Y0110843D01*
X0896002Y0110057D02*
X0984742Y0110057D01*
X0984742Y0109271D02*
X0896002Y0109271D01*
X0896002Y0108485D02*
X0984742Y0108485D01*
X0984742Y0107699D02*
X0895906Y0107699D01*
X0895581Y0106913D02*
X0984742Y0106913D01*
X0984742Y0106127D02*
X0895255Y0106127D01*
X0894929Y0105341D02*
X0984742Y0105341D01*
X0984742Y0104555D02*
X0894323Y0104555D01*
X0893537Y0103770D02*
X0984742Y0103770D01*
X0984742Y0102984D02*
X0892751Y0102984D01*
X0891084Y0102198D02*
X0984742Y0102198D01*
X1203246Y0313608D02*
X1248679Y0313608D01*
X1248679Y0314394D02*
X1203246Y0314394D01*
X1203246Y0315180D02*
X1248679Y0315180D01*
X1248679Y0315966D02*
X1203246Y0315966D01*
X1203246Y0316752D02*
X1248679Y0316752D01*
X1248679Y0317538D02*
X1203246Y0317538D01*
X1203246Y0318324D02*
X1248679Y0318324D01*
X1248679Y0319110D02*
X1203246Y0319110D01*
X1203246Y0319896D02*
X1248679Y0319896D01*
X1248679Y0320681D02*
X1203246Y0320681D01*
D45*
X0740151Y0226921D02*
X0735651Y0231421D01*
X0712151Y0231421D01*
X0709443Y0234130D01*
X0709443Y0240047D01*
X0711411Y0240047D02*
X0711411Y0234661D01*
X0713151Y0232921D01*
X0728151Y0232921D01*
X0730151Y0234921D01*
X0724151Y0235921D02*
X0722651Y0237421D01*
X0720151Y0237421D01*
X0719285Y0238287D01*
X0717317Y0238006D02*
X0720151Y0235171D01*
X0720651Y0235171D01*
X0716901Y0235171D02*
X0716901Y0235921D01*
X0715348Y0237474D01*
X0707474Y0236244D02*
X0707151Y0235921D01*
X0707474Y0236244D02*
X0707474Y0240047D01*
X0701069Y0244575D02*
X0700978Y0244484D01*
X0703537Y0258945D02*
X0703537Y0259535D01*
X0703412Y0259535D01*
D46*
X0707319Y0268689D03*
X0686846Y0258453D03*
X0680153Y0258453D03*
X0680153Y0254516D03*
X0682501Y0250821D03*
X0680071Y0246157D03*
X0675346Y0244189D03*
X0676921Y0239465D03*
X0673378Y0239071D03*
X0676921Y0234740D03*
X0680464Y0238283D03*
X0684401Y0235921D03*
X0685901Y0238421D03*
X0684401Y0240671D03*
X0687401Y0240671D03*
X0688901Y0238421D03*
X0687401Y0235921D03*
X0695401Y0240171D03*
X0697651Y0241671D03*
X0697901Y0245671D03*
X0696151Y0251171D03*
X0693651Y0251171D03*
X0691151Y0251171D03*
X0728151Y0256421D03*
X0728143Y0259077D03*
X0730651Y0251675D03*
X0732901Y0252671D03*
X0735151Y0251675D03*
X0740151Y0252421D03*
X0742651Y0252421D03*
X0742651Y0256421D03*
X0742651Y0241546D03*
X0740151Y0241546D03*
X0734549Y0241122D03*
X0731850Y0241122D03*
X0729100Y0241122D03*
X0727283Y0236224D03*
X0724151Y0235921D03*
X0720651Y0235171D03*
X0716901Y0235171D03*
X0713651Y0235921D03*
X0707151Y0235921D03*
X0700584Y0238654D03*
X0730151Y0234921D03*
X0682859Y0268079D03*
X0744191Y0271504D03*
D47*
X0730280Y0268748D02*
X0730183Y0276890D01*
X0730151Y0276921D01*
X0713380Y0257961D02*
X0713380Y0253925D01*
X0712395Y0253925D01*
X0723813Y0244575D02*
X0723813Y0242606D01*
X0723813Y0240731D01*
X0700978Y0240731D02*
X0700978Y0242606D01*
X0700978Y0244484D01*
D48*
X0670151Y0276921D02*
X0670151Y0287252D01*
X0669781Y0287252D01*
X0760928Y0179339D02*
X0768206Y0172061D01*
X0768206Y0169142D01*
X0645844Y0127213D02*
X0642813Y0127213D01*
X0628443Y0141583D01*
X0628443Y0159496D01*
X0633954Y0165008D01*
X0633954Y0172291D01*
X0629033Y0177213D01*
X0625844Y0177213D01*
D49*
X0667030Y0221921D02*
X0668308Y0223200D01*
X0668521Y0222987D01*
X0671781Y0222987D01*
X0674086Y0225291D01*
X0674086Y0228551D01*
X0671781Y0230856D01*
X0671480Y0230856D01*
X0671480Y0246127D01*
X0674846Y0249493D01*
X0681107Y0249493D01*
X0681704Y0248896D01*
X0682423Y0248896D01*
X0682423Y0246370D01*
X0685323Y0246370D01*
X0685323Y0250370D01*
X0684426Y0250370D01*
X0684426Y0251619D01*
X0683299Y0252746D01*
X0681704Y0252746D01*
X0681107Y0252150D01*
X0673745Y0252150D01*
X0669601Y0248005D01*
X0668823Y0247227D01*
X0668823Y0230856D01*
X0668521Y0230856D01*
X0666217Y0228551D01*
X0666217Y0225291D01*
X0666430Y0225078D01*
X0665057Y0223705D01*
X0665057Y0244429D01*
X0680095Y0259467D01*
X0696018Y0259467D01*
X0698665Y0256820D01*
X0698665Y0255727D01*
X0695844Y0258544D01*
X0695459Y0258929D01*
X0695458Y0258929D01*
X0694908Y0258929D01*
X0689946Y0258929D01*
X0689167Y0258151D01*
X0689167Y0257876D01*
X0689126Y0257876D01*
X0689046Y0257796D01*
X0688833Y0258009D01*
X0688529Y0258185D01*
X0688189Y0258276D01*
X0686998Y0258276D01*
X0686998Y0255776D01*
X0686329Y0255776D01*
X0686329Y0258276D01*
X0685138Y0258276D01*
X0684798Y0258185D01*
X0684494Y0258009D01*
X0684245Y0257760D01*
X0684070Y0257456D01*
X0683979Y0257117D01*
X0683979Y0255776D01*
X0686329Y0255776D01*
X0686329Y0255106D01*
X0686998Y0255106D01*
X0686998Y0252606D01*
X0688189Y0252606D01*
X0688529Y0252697D01*
X0688562Y0252717D01*
X0688562Y0250048D01*
X0688552Y0250037D01*
X0688554Y0249926D01*
X0688377Y0250103D01*
X0688073Y0250279D01*
X0687733Y0250370D01*
X0685992Y0250370D01*
X0685992Y0246370D01*
X0685323Y0246370D01*
X0685323Y0245701D01*
X0682423Y0245701D01*
X0682423Y0242860D01*
X0682514Y0242520D01*
X0682690Y0242216D01*
X0682938Y0241967D01*
X0683242Y0241792D01*
X0683582Y0241701D01*
X0685323Y0241701D01*
X0685323Y0245701D01*
X0685992Y0245701D01*
X0685992Y0246370D01*
X0688892Y0246370D01*
X0688892Y0248629D01*
X0688960Y0248564D01*
X0689340Y0248183D01*
X0689355Y0248183D01*
X0689365Y0248173D01*
X0689903Y0248183D01*
X0690441Y0248183D01*
X0690451Y0248194D01*
X0691023Y0248204D01*
X0691023Y0242648D01*
X0691570Y0242101D01*
X0692573Y0242101D01*
X0692573Y0238246D01*
X0693351Y0237468D01*
X0697576Y0237468D01*
X0698355Y0238246D01*
X0700230Y0240121D01*
X0700230Y0240760D01*
X0700978Y0240760D01*
X0702091Y0240760D01*
X0702091Y0238369D01*
X0693650Y0229928D01*
X0693650Y0228987D01*
X0691781Y0230856D01*
X0688521Y0230856D01*
X0686217Y0228551D01*
X0686217Y0225291D01*
X0688521Y0222987D01*
X0691781Y0222987D01*
X0693650Y0224855D01*
X0693650Y0222842D01*
X0692729Y0221921D01*
X0667030Y0221921D01*
X0667665Y0222557D02*
X0693365Y0222557D01*
X0693650Y0223224D02*
X0692019Y0223224D01*
X0692687Y0223892D02*
X0693650Y0223892D01*
X0693650Y0224560D02*
X0693354Y0224560D01*
X0693402Y0229235D02*
X0693650Y0229235D01*
X0693650Y0229903D02*
X0692734Y0229903D01*
X0692067Y0230570D02*
X0694292Y0230570D01*
X0694960Y0231238D02*
X0671480Y0231238D01*
X0671480Y0231906D02*
X0695627Y0231906D01*
X0696295Y0232574D02*
X0671480Y0232574D01*
X0671480Y0233242D02*
X0696963Y0233242D01*
X0697631Y0233909D02*
X0671480Y0233909D01*
X0671480Y0234577D02*
X0698299Y0234577D01*
X0698966Y0235245D02*
X0671480Y0235245D01*
X0671480Y0235913D02*
X0699634Y0235913D01*
X0700302Y0236581D02*
X0671480Y0236581D01*
X0671480Y0237248D02*
X0700970Y0237248D01*
X0701638Y0237916D02*
X0698025Y0237916D01*
X0698692Y0238584D02*
X0702091Y0238584D01*
X0702091Y0239252D02*
X0699360Y0239252D01*
X0700028Y0239920D02*
X0702091Y0239920D01*
X0702091Y0240587D02*
X0700230Y0240587D01*
X0700978Y0240760D02*
X0700978Y0242606D01*
X0700978Y0240760D01*
X0700978Y0241255D02*
X0700978Y0241255D01*
X0700978Y0241923D02*
X0700978Y0241923D01*
X0700978Y0242591D02*
X0700978Y0242591D01*
X0700978Y0242606D02*
X0700978Y0242606D01*
X0700230Y0244575D02*
X0700230Y0244575D01*
X0701962Y0244575D01*
X0701962Y0244575D01*
X0700230Y0244575D01*
X0692573Y0241923D02*
X0688300Y0241923D01*
X0688377Y0241967D02*
X0688626Y0242216D01*
X0688801Y0242520D01*
X0688892Y0242860D01*
X0688892Y0245701D01*
X0685992Y0245701D01*
X0685992Y0241701D01*
X0687733Y0241701D01*
X0688073Y0241792D01*
X0688377Y0241967D01*
X0688820Y0242591D02*
X0691080Y0242591D01*
X0691023Y0243259D02*
X0688892Y0243259D01*
X0688892Y0243926D02*
X0691023Y0243926D01*
X0691023Y0244594D02*
X0688892Y0244594D01*
X0688892Y0245262D02*
X0691023Y0245262D01*
X0691023Y0245930D02*
X0685992Y0245930D01*
X0685992Y0246598D02*
X0685323Y0246598D01*
X0685323Y0247265D02*
X0685992Y0247265D01*
X0685992Y0247933D02*
X0685323Y0247933D01*
X0685323Y0248601D02*
X0685992Y0248601D01*
X0685992Y0249269D02*
X0685323Y0249269D01*
X0685323Y0249937D02*
X0685992Y0249937D01*
X0684426Y0250604D02*
X0688562Y0250604D01*
X0688544Y0249937D02*
X0688554Y0249937D01*
X0688562Y0251272D02*
X0684426Y0251272D01*
X0684105Y0251940D02*
X0688562Y0251940D01*
X0688562Y0252608D02*
X0688195Y0252608D01*
X0686998Y0252608D02*
X0686329Y0252608D01*
X0686329Y0252606D02*
X0685138Y0252606D01*
X0684798Y0252697D01*
X0684494Y0252873D01*
X0684245Y0253121D01*
X0684070Y0253426D01*
X0683979Y0253765D01*
X0683979Y0255106D01*
X0686329Y0255106D01*
X0686329Y0252606D01*
X0686329Y0253276D02*
X0686998Y0253276D01*
X0686998Y0253943D02*
X0686329Y0253943D01*
X0686329Y0254611D02*
X0686998Y0254611D01*
X0686329Y0255279D02*
X0675907Y0255279D01*
X0675239Y0254611D02*
X0683979Y0254611D01*
X0683979Y0253943D02*
X0674572Y0253943D01*
X0673904Y0253276D02*
X0684156Y0253276D01*
X0683437Y0252608D02*
X0685132Y0252608D01*
X0683979Y0255947D02*
X0676575Y0255947D01*
X0677243Y0256615D02*
X0683979Y0256615D01*
X0684023Y0257282D02*
X0677911Y0257282D01*
X0678578Y0257950D02*
X0684435Y0257950D01*
X0686329Y0257950D02*
X0686998Y0257950D01*
X0686998Y0257282D02*
X0686329Y0257282D01*
X0686329Y0256615D02*
X0686998Y0256615D01*
X0686998Y0255947D02*
X0686329Y0255947D01*
X0688892Y0257950D02*
X0689167Y0257950D01*
X0689635Y0258618D02*
X0679246Y0258618D01*
X0679914Y0259286D02*
X0696199Y0259286D01*
X0695770Y0258618D02*
X0696867Y0258618D01*
X0696439Y0257950D02*
X0697535Y0257950D01*
X0697108Y0257282D02*
X0698203Y0257282D01*
X0697777Y0256615D02*
X0698665Y0256615D01*
X0698665Y0255947D02*
X0698445Y0255947D01*
X0695459Y0258929D02*
X0695459Y0258929D01*
X0703062Y0270328D02*
X0709701Y0263689D01*
X0711835Y0263689D01*
X0711835Y0264358D01*
X0709485Y0264358D01*
X0709485Y0265699D01*
X0709576Y0266039D01*
X0709751Y0266343D01*
X0710000Y0266592D01*
X0710098Y0266648D01*
X0709885Y0266861D01*
X0709885Y0269154D01*
X0708711Y0270328D01*
X0703062Y0270328D01*
X0703419Y0269971D02*
X0709068Y0269971D01*
X0709736Y0269303D02*
X0704087Y0269303D01*
X0704755Y0268635D02*
X0709885Y0268635D01*
X0709885Y0267967D02*
X0705422Y0267967D01*
X0706090Y0267299D02*
X0709885Y0267299D01*
X0710069Y0266632D02*
X0706758Y0266632D01*
X0707426Y0265964D02*
X0709556Y0265964D01*
X0709485Y0265296D02*
X0708094Y0265296D01*
X0708762Y0264628D02*
X0709485Y0264628D01*
X0709429Y0263960D02*
X0711835Y0263960D01*
X0711613Y0271183D02*
X0709812Y0272984D01*
X0709024Y0272984D01*
X0682344Y0272984D01*
X0684486Y0275126D01*
X0684486Y0276587D01*
X0680486Y0276587D01*
X0680486Y0277256D01*
X0679817Y0277256D01*
X0679817Y0281256D01*
X0678356Y0281256D01*
X0675817Y0278717D01*
X0675817Y0277256D01*
X0679817Y0277256D01*
X0679817Y0276587D01*
X0675817Y0276587D01*
X0675817Y0275126D01*
X0677958Y0272984D01*
X0667423Y0272984D01*
X0667421Y0272987D01*
X0673538Y0272987D01*
X0674086Y0273534D01*
X0674086Y0280308D01*
X0673538Y0280856D01*
X0673054Y0280856D01*
X0673054Y0282113D01*
X0745151Y0281921D01*
X0745151Y0221921D01*
X0737030Y0221921D01*
X0738095Y0222987D01*
X0743538Y0222987D01*
X0744086Y0223534D01*
X0744086Y0230308D01*
X0743538Y0230856D01*
X0738039Y0230856D01*
X0736185Y0232710D01*
X0729763Y0232710D01*
X0730049Y0232996D01*
X0730949Y0232996D01*
X0732076Y0234124D01*
X0732076Y0235719D01*
X0730949Y0236846D01*
X0729354Y0236846D01*
X0728226Y0235719D01*
X0728226Y0234819D01*
X0727617Y0234210D01*
X0725163Y0234210D01*
X0726076Y0235124D01*
X0726076Y0236719D01*
X0724949Y0237846D01*
X0724049Y0237846D01*
X0723185Y0238710D01*
X0723100Y0238710D01*
X0723100Y0240047D01*
X0721254Y0240047D01*
X0721254Y0240047D01*
X0723100Y0240047D01*
X0723100Y0240760D01*
X0723813Y0240760D01*
X0724873Y0240760D01*
X0725140Y0240517D01*
X0725508Y0240149D01*
X0725543Y0240149D01*
X0727960Y0237943D01*
X0728327Y0237575D01*
X0728363Y0237575D01*
X0728388Y0237552D01*
X0728908Y0237575D01*
X0736322Y0237575D01*
X0737100Y0238353D01*
X0737100Y0242248D01*
X0737303Y0242193D01*
X0739045Y0242193D01*
X0739045Y0246193D01*
X0739714Y0246193D01*
X0739714Y0246862D01*
X0742614Y0246862D01*
X0742614Y0249703D01*
X0742523Y0250043D01*
X0742347Y0250347D01*
X0742099Y0250596D01*
X0741794Y0250771D01*
X0741455Y0250862D01*
X0739714Y0250862D01*
X0739714Y0246862D01*
X0739045Y0246862D01*
X0739045Y0250862D01*
X0737838Y0250862D01*
X0737838Y0254102D01*
X0737974Y0254102D01*
X0738313Y0254193D01*
X0738618Y0254369D01*
X0738866Y0254618D01*
X0739042Y0254922D01*
X0739133Y0255261D01*
X0739133Y0256602D01*
X0736783Y0256602D01*
X0736783Y0257272D01*
X0739133Y0257272D01*
X0739133Y0258460D01*
X0742705Y0258487D01*
X0743251Y0258487D01*
X0743255Y0258491D01*
X0743261Y0258491D01*
X0743493Y0258726D01*
X0743528Y0258726D01*
X0744076Y0259274D01*
X0744076Y0263548D01*
X0743528Y0264096D01*
X0743438Y0264096D01*
X0743295Y0264249D01*
X0743269Y0264250D01*
X0743251Y0264268D01*
X0742723Y0264268D01*
X0736764Y0264467D01*
X0736764Y0265911D01*
X0736551Y0266124D01*
X0736649Y0266180D01*
X0736898Y0266429D01*
X0737073Y0266733D01*
X0737164Y0267072D01*
X0737164Y0268413D01*
X0734814Y0268413D01*
X0734814Y0269083D01*
X0734145Y0269083D01*
X0734145Y0271583D01*
X0732954Y0271583D01*
X0732614Y0271492D01*
X0732310Y0271316D01*
X0732097Y0271103D01*
X0732017Y0271183D01*
X0731677Y0271183D01*
X0731656Y0272987D01*
X0731781Y0272987D01*
X0734086Y0275291D01*
X0734086Y0278551D01*
X0731781Y0280856D01*
X0728521Y0280856D01*
X0726217Y0278551D01*
X0726217Y0275291D01*
X0728521Y0272987D01*
X0728802Y0272987D01*
X0728824Y0271183D01*
X0728542Y0271183D01*
X0728040Y0270681D01*
X0728018Y0270763D01*
X0727842Y0271068D01*
X0727594Y0271316D01*
X0727290Y0271492D01*
X0726950Y0271583D01*
X0725759Y0271583D01*
X0725759Y0269083D01*
X0725090Y0269083D01*
X0725090Y0271583D01*
X0723899Y0271583D01*
X0723559Y0271492D01*
X0723255Y0271316D01*
X0723042Y0271103D01*
X0722962Y0271183D01*
X0719487Y0271183D01*
X0718940Y0270635D01*
X0718940Y0270076D01*
X0718654Y0270076D01*
X0718654Y0270635D01*
X0718106Y0271183D01*
X0714632Y0271183D01*
X0714269Y0270820D01*
X0713906Y0271183D01*
X0711613Y0271183D01*
X0711490Y0271306D02*
X0723245Y0271306D01*
X0725090Y0271306D02*
X0725759Y0271306D01*
X0725759Y0270638D02*
X0725090Y0270638D01*
X0725090Y0269971D02*
X0725759Y0269971D01*
X0725759Y0269303D02*
X0725090Y0269303D01*
X0727604Y0271306D02*
X0728822Y0271306D01*
X0728814Y0271974D02*
X0710822Y0271974D01*
X0710154Y0272642D02*
X0728806Y0272642D01*
X0728198Y0273310D02*
X0722104Y0273310D01*
X0721781Y0272987D02*
X0724086Y0275291D01*
X0724086Y0278551D01*
X0721781Y0280856D01*
X0718521Y0280856D01*
X0716217Y0278551D01*
X0716217Y0275291D01*
X0718521Y0272987D01*
X0721781Y0272987D01*
X0722772Y0273977D02*
X0727531Y0273977D01*
X0726863Y0274645D02*
X0723440Y0274645D01*
X0724086Y0275313D02*
X0726217Y0275313D01*
X0726217Y0275981D02*
X0724086Y0275981D01*
X0724086Y0276649D02*
X0726217Y0276649D01*
X0726217Y0277317D02*
X0724086Y0277317D01*
X0724086Y0277984D02*
X0726217Y0277984D01*
X0726318Y0278652D02*
X0723985Y0278652D01*
X0723317Y0279320D02*
X0726985Y0279320D01*
X0727653Y0279988D02*
X0722649Y0279988D01*
X0721981Y0280656D02*
X0728321Y0280656D01*
X0731981Y0280656D02*
X0737755Y0280656D01*
X0738356Y0281256D02*
X0735817Y0278717D01*
X0735817Y0277256D01*
X0739817Y0277256D01*
X0739817Y0281256D01*
X0738356Y0281256D01*
X0739817Y0280656D02*
X0740486Y0280656D01*
X0740486Y0281256D02*
X0741947Y0281256D01*
X0744486Y0278717D01*
X0744486Y0277256D01*
X0740486Y0277256D01*
X0740486Y0276587D01*
X0744486Y0276587D01*
X0744486Y0275126D01*
X0741947Y0272587D01*
X0740486Y0272587D01*
X0740486Y0276587D01*
X0739817Y0276587D01*
X0739817Y0272587D01*
X0738356Y0272587D01*
X0735817Y0275126D01*
X0735817Y0276587D01*
X0739817Y0276587D01*
X0739817Y0277256D01*
X0740486Y0277256D01*
X0740486Y0281256D01*
X0740486Y0279988D02*
X0739817Y0279988D01*
X0739817Y0279320D02*
X0740486Y0279320D01*
X0740486Y0278652D02*
X0739817Y0278652D01*
X0739817Y0277984D02*
X0740486Y0277984D01*
X0740486Y0277317D02*
X0739817Y0277317D01*
X0739817Y0276649D02*
X0734086Y0276649D01*
X0734086Y0277317D02*
X0735817Y0277317D01*
X0735817Y0277984D02*
X0734086Y0277984D01*
X0733985Y0278652D02*
X0735817Y0278652D01*
X0736420Y0279320D02*
X0733317Y0279320D01*
X0732649Y0279988D02*
X0737088Y0279988D01*
X0735817Y0275981D02*
X0734086Y0275981D01*
X0734086Y0275313D02*
X0735817Y0275313D01*
X0736297Y0274645D02*
X0733440Y0274645D01*
X0732772Y0273977D02*
X0736965Y0273977D01*
X0737633Y0273310D02*
X0732104Y0273310D01*
X0731660Y0272642D02*
X0738300Y0272642D01*
X0738765Y0271296D02*
X0738426Y0271205D01*
X0738122Y0271029D01*
X0737873Y0270781D01*
X0737697Y0270476D01*
X0737606Y0270137D01*
X0737606Y0268546D01*
X0740706Y0268546D01*
X0740706Y0271296D01*
X0738765Y0271296D01*
X0737791Y0270638D02*
X0737107Y0270638D01*
X0737073Y0270763D02*
X0736898Y0271068D01*
X0736649Y0271316D01*
X0736345Y0271492D01*
X0736005Y0271583D01*
X0734814Y0271583D01*
X0734814Y0269083D01*
X0737164Y0269083D01*
X0737164Y0270424D01*
X0737073Y0270763D01*
X0736659Y0271306D02*
X0745151Y0271306D01*
X0745151Y0270638D02*
X0744291Y0270638D01*
X0744209Y0270781D02*
X0743960Y0271029D01*
X0743656Y0271205D01*
X0743317Y0271296D01*
X0741376Y0271296D01*
X0741376Y0268546D01*
X0740706Y0268546D01*
X0740706Y0267876D01*
X0741376Y0267876D01*
X0741376Y0268546D01*
X0744476Y0268546D01*
X0744476Y0270137D01*
X0744385Y0270476D01*
X0744209Y0270781D01*
X0744476Y0269971D02*
X0745151Y0269971D01*
X0745151Y0269303D02*
X0744476Y0269303D01*
X0744476Y0268635D02*
X0745151Y0268635D01*
X0745151Y0267967D02*
X0741376Y0267967D01*
X0741376Y0267876D02*
X0744476Y0267876D01*
X0744476Y0266285D01*
X0744385Y0265946D01*
X0744209Y0265642D01*
X0743960Y0265393D01*
X0743656Y0265217D01*
X0743317Y0265126D01*
X0741376Y0265126D01*
X0741376Y0267876D01*
X0741376Y0267299D02*
X0740706Y0267299D01*
X0740706Y0267876D02*
X0740706Y0265126D01*
X0738765Y0265126D01*
X0738426Y0265217D01*
X0738122Y0265393D01*
X0737873Y0265642D01*
X0737697Y0265946D01*
X0737606Y0266285D01*
X0737606Y0267876D01*
X0740706Y0267876D01*
X0740706Y0267967D02*
X0737164Y0267967D01*
X0737164Y0267299D02*
X0737606Y0267299D01*
X0737606Y0266632D02*
X0737015Y0266632D01*
X0736711Y0265964D02*
X0737692Y0265964D01*
X0738289Y0265296D02*
X0736764Y0265296D01*
X0736764Y0264628D02*
X0745151Y0264628D01*
X0745151Y0263960D02*
X0743663Y0263960D01*
X0744076Y0263293D02*
X0745151Y0263293D01*
X0745151Y0262625D02*
X0744076Y0262625D01*
X0744076Y0261957D02*
X0745151Y0261957D01*
X0745151Y0261289D02*
X0744076Y0261289D01*
X0744076Y0260621D02*
X0745151Y0260621D01*
X0745151Y0259954D02*
X0744076Y0259954D01*
X0744076Y0259286D02*
X0745151Y0259286D01*
X0745151Y0258618D02*
X0743386Y0258618D01*
X0745151Y0257950D02*
X0739133Y0257950D01*
X0739133Y0257282D02*
X0745151Y0257282D01*
X0745151Y0256615D02*
X0736783Y0256615D01*
X0739133Y0255947D02*
X0745151Y0255947D01*
X0745151Y0255279D02*
X0739133Y0255279D01*
X0738860Y0254611D02*
X0745151Y0254611D01*
X0745151Y0253943D02*
X0737838Y0253943D01*
X0737838Y0253276D02*
X0745151Y0253276D01*
X0745151Y0252608D02*
X0737838Y0252608D01*
X0737838Y0251940D02*
X0745151Y0251940D01*
X0745151Y0251272D02*
X0737838Y0251272D01*
X0739045Y0250604D02*
X0739714Y0250604D01*
X0739714Y0249937D02*
X0739045Y0249937D01*
X0739045Y0249269D02*
X0739714Y0249269D01*
X0739714Y0248601D02*
X0739045Y0248601D01*
X0739045Y0247933D02*
X0739714Y0247933D01*
X0739714Y0247265D02*
X0739045Y0247265D01*
X0739045Y0246862D02*
X0739045Y0246193D01*
X0736145Y0246193D01*
X0736145Y0243911D01*
X0734014Y0243911D01*
X0734014Y0249144D01*
X0736145Y0249144D01*
X0736145Y0246862D01*
X0739045Y0246862D01*
X0739045Y0246598D02*
X0734014Y0246598D01*
X0734014Y0247265D02*
X0736145Y0247265D01*
X0736145Y0247933D02*
X0734014Y0247933D01*
X0734014Y0248601D02*
X0736145Y0248601D01*
X0736145Y0245930D02*
X0734014Y0245930D01*
X0734014Y0245262D02*
X0736145Y0245262D01*
X0736145Y0244594D02*
X0734014Y0244594D01*
X0734014Y0243926D02*
X0736145Y0243926D01*
X0737100Y0241923D02*
X0745151Y0241923D01*
X0745151Y0242591D02*
X0742230Y0242591D01*
X0742347Y0242708D02*
X0742523Y0243012D01*
X0742614Y0243352D01*
X0742614Y0246193D01*
X0739714Y0246193D01*
X0739714Y0242193D01*
X0741455Y0242193D01*
X0741794Y0242284D01*
X0742099Y0242460D01*
X0742347Y0242708D01*
X0742589Y0243259D02*
X0745151Y0243259D01*
X0745151Y0243926D02*
X0742614Y0243926D01*
X0742614Y0244594D02*
X0745151Y0244594D01*
X0745151Y0245262D02*
X0742614Y0245262D01*
X0742614Y0245930D02*
X0745151Y0245930D01*
X0745151Y0246598D02*
X0739714Y0246598D01*
X0739714Y0245930D02*
X0739045Y0245930D01*
X0739045Y0245262D02*
X0739714Y0245262D01*
X0739714Y0244594D02*
X0739045Y0244594D01*
X0739045Y0243926D02*
X0739714Y0243926D01*
X0739714Y0243259D02*
X0739045Y0243259D01*
X0739045Y0242591D02*
X0739714Y0242591D01*
X0737100Y0241255D02*
X0745151Y0241255D01*
X0745151Y0240587D02*
X0737100Y0240587D01*
X0737100Y0239920D02*
X0745151Y0239920D01*
X0745151Y0239252D02*
X0737100Y0239252D01*
X0737100Y0238584D02*
X0745151Y0238584D01*
X0745151Y0237916D02*
X0736662Y0237916D01*
X0731882Y0235913D02*
X0745151Y0235913D01*
X0745151Y0236581D02*
X0731215Y0236581D01*
X0732076Y0235245D02*
X0745151Y0235245D01*
X0745151Y0234577D02*
X0732076Y0234577D01*
X0731862Y0233909D02*
X0745151Y0233909D01*
X0745151Y0233242D02*
X0731194Y0233242D01*
X0727984Y0234577D02*
X0725530Y0234577D01*
X0726076Y0235245D02*
X0728226Y0235245D01*
X0728420Y0235913D02*
X0726076Y0235913D01*
X0726076Y0236581D02*
X0729088Y0236581D01*
X0727986Y0237916D02*
X0723979Y0237916D01*
X0723311Y0238584D02*
X0727257Y0238584D01*
X0726526Y0239252D02*
X0723100Y0239252D01*
X0723100Y0239920D02*
X0725794Y0239920D01*
X0725062Y0240587D02*
X0723100Y0240587D01*
X0723813Y0240760D02*
X0723813Y0242606D01*
X0723813Y0240760D01*
X0723813Y0241255D02*
X0723813Y0241255D01*
X0723813Y0241923D02*
X0723813Y0241923D01*
X0723813Y0242591D02*
X0723813Y0242591D01*
X0723813Y0242606D02*
X0723813Y0242606D01*
X0724729Y0244575D02*
X0722829Y0244575D01*
X0724729Y0244575D01*
X0724729Y0244575D01*
X0722829Y0244575D02*
X0722829Y0244575D01*
X0725547Y0237248D02*
X0745151Y0237248D01*
X0745151Y0232574D02*
X0736322Y0232574D01*
X0736989Y0231906D02*
X0745151Y0231906D01*
X0745151Y0231238D02*
X0737657Y0231238D01*
X0743824Y0230570D02*
X0745151Y0230570D01*
X0745151Y0229903D02*
X0744086Y0229903D01*
X0744086Y0229235D02*
X0745151Y0229235D01*
X0745151Y0228567D02*
X0744086Y0228567D01*
X0744086Y0227899D02*
X0745151Y0227899D01*
X0745151Y0227231D02*
X0744086Y0227231D01*
X0744086Y0226564D02*
X0745151Y0226564D01*
X0745151Y0225896D02*
X0744086Y0225896D01*
X0744086Y0225228D02*
X0745151Y0225228D01*
X0745151Y0224560D02*
X0744086Y0224560D01*
X0744086Y0223892D02*
X0745151Y0223892D01*
X0745151Y0223224D02*
X0743776Y0223224D01*
X0745151Y0222557D02*
X0737665Y0222557D01*
X0692903Y0237916D02*
X0671480Y0237916D01*
X0671480Y0238584D02*
X0692573Y0238584D01*
X0692573Y0239252D02*
X0671480Y0239252D01*
X0671480Y0239920D02*
X0692573Y0239920D01*
X0692573Y0240587D02*
X0671480Y0240587D01*
X0671480Y0241255D02*
X0692573Y0241255D01*
X0691023Y0246598D02*
X0688892Y0246598D01*
X0688892Y0247265D02*
X0691023Y0247265D01*
X0691023Y0247933D02*
X0688892Y0247933D01*
X0688892Y0248601D02*
X0688921Y0248601D01*
X0685992Y0245262D02*
X0685323Y0245262D01*
X0685323Y0245930D02*
X0671480Y0245930D01*
X0671480Y0245262D02*
X0682423Y0245262D01*
X0682423Y0244594D02*
X0671480Y0244594D01*
X0671480Y0243926D02*
X0682423Y0243926D01*
X0682423Y0243259D02*
X0671480Y0243259D01*
X0671480Y0242591D02*
X0682495Y0242591D01*
X0683015Y0241923D02*
X0671480Y0241923D01*
X0668823Y0241923D02*
X0665057Y0241923D01*
X0665057Y0242591D02*
X0668823Y0242591D01*
X0668823Y0243259D02*
X0665057Y0243259D01*
X0665057Y0243926D02*
X0668823Y0243926D01*
X0668823Y0244594D02*
X0665222Y0244594D01*
X0665890Y0245262D02*
X0668823Y0245262D01*
X0668823Y0245930D02*
X0666558Y0245930D01*
X0667226Y0246598D02*
X0668823Y0246598D01*
X0668861Y0247265D02*
X0667894Y0247265D01*
X0668561Y0247933D02*
X0669529Y0247933D01*
X0669229Y0248601D02*
X0670197Y0248601D01*
X0669897Y0249269D02*
X0670864Y0249269D01*
X0670565Y0249937D02*
X0671532Y0249937D01*
X0671233Y0250604D02*
X0672200Y0250604D01*
X0671900Y0251272D02*
X0672868Y0251272D01*
X0672568Y0251940D02*
X0673536Y0251940D01*
X0673236Y0252608D02*
X0681565Y0252608D01*
X0681331Y0249269D02*
X0674621Y0249269D01*
X0673954Y0248601D02*
X0682423Y0248601D01*
X0682423Y0247933D02*
X0673286Y0247933D01*
X0672618Y0247265D02*
X0682423Y0247265D01*
X0682423Y0246598D02*
X0671950Y0246598D01*
X0668823Y0241255D02*
X0665057Y0241255D01*
X0665057Y0240587D02*
X0668823Y0240587D01*
X0668823Y0239920D02*
X0665057Y0239920D01*
X0665057Y0239252D02*
X0668823Y0239252D01*
X0668823Y0238584D02*
X0665057Y0238584D01*
X0665057Y0237916D02*
X0668823Y0237916D01*
X0668823Y0237248D02*
X0665057Y0237248D01*
X0665057Y0236581D02*
X0668823Y0236581D01*
X0668823Y0235913D02*
X0665057Y0235913D01*
X0665057Y0235245D02*
X0668823Y0235245D01*
X0668823Y0234577D02*
X0665057Y0234577D01*
X0665057Y0233909D02*
X0668823Y0233909D01*
X0668823Y0233242D02*
X0665057Y0233242D01*
X0665057Y0232574D02*
X0668823Y0232574D01*
X0668823Y0231906D02*
X0665057Y0231906D01*
X0665057Y0231238D02*
X0668823Y0231238D01*
X0668236Y0230570D02*
X0665057Y0230570D01*
X0665057Y0229903D02*
X0667568Y0229903D01*
X0666900Y0229235D02*
X0665057Y0229235D01*
X0665057Y0228567D02*
X0666232Y0228567D01*
X0666217Y0227899D02*
X0665057Y0227899D01*
X0665057Y0227231D02*
X0666217Y0227231D01*
X0666217Y0226564D02*
X0665057Y0226564D01*
X0665057Y0225896D02*
X0666217Y0225896D01*
X0666280Y0225228D02*
X0665057Y0225228D01*
X0665057Y0224560D02*
X0665912Y0224560D01*
X0665244Y0223892D02*
X0665057Y0223892D01*
X0672019Y0223224D02*
X0678284Y0223224D01*
X0678521Y0222987D02*
X0681781Y0222987D01*
X0684086Y0225291D01*
X0684086Y0228551D01*
X0681781Y0230856D01*
X0678521Y0230856D01*
X0676217Y0228551D01*
X0676217Y0225291D01*
X0678521Y0222987D01*
X0677616Y0223892D02*
X0672687Y0223892D01*
X0673355Y0224560D02*
X0676948Y0224560D01*
X0676280Y0225228D02*
X0674022Y0225228D01*
X0674086Y0225896D02*
X0676217Y0225896D01*
X0676217Y0226564D02*
X0674086Y0226564D01*
X0674086Y0227231D02*
X0676217Y0227231D01*
X0676217Y0227899D02*
X0674086Y0227899D01*
X0674070Y0228567D02*
X0676232Y0228567D01*
X0676900Y0229235D02*
X0673402Y0229235D01*
X0672734Y0229903D02*
X0677568Y0229903D01*
X0678236Y0230570D02*
X0672067Y0230570D01*
X0682067Y0230570D02*
X0688236Y0230570D01*
X0687568Y0229903D02*
X0682734Y0229903D01*
X0683402Y0229235D02*
X0686900Y0229235D01*
X0686232Y0228567D02*
X0684070Y0228567D01*
X0684086Y0227899D02*
X0686217Y0227899D01*
X0686217Y0227231D02*
X0684086Y0227231D01*
X0684086Y0226564D02*
X0686217Y0226564D01*
X0686217Y0225896D02*
X0684086Y0225896D01*
X0684022Y0225228D02*
X0686280Y0225228D01*
X0686948Y0224560D02*
X0683355Y0224560D01*
X0682687Y0223892D02*
X0687616Y0223892D01*
X0688284Y0223224D02*
X0682019Y0223224D01*
X0685323Y0241923D02*
X0685992Y0241923D01*
X0685992Y0242591D02*
X0685323Y0242591D01*
X0685323Y0243259D02*
X0685992Y0243259D01*
X0685992Y0243926D02*
X0685323Y0243926D01*
X0685323Y0244594D02*
X0685992Y0244594D01*
X0742083Y0250604D02*
X0745151Y0250604D01*
X0745151Y0249937D02*
X0742551Y0249937D01*
X0742614Y0249269D02*
X0745151Y0249269D01*
X0745151Y0248601D02*
X0742614Y0248601D01*
X0742614Y0247933D02*
X0745151Y0247933D01*
X0745151Y0247265D02*
X0742614Y0247265D01*
X0743793Y0265296D02*
X0745151Y0265296D01*
X0745151Y0265964D02*
X0744390Y0265964D01*
X0744476Y0266632D02*
X0745151Y0266632D01*
X0745151Y0267299D02*
X0744476Y0267299D01*
X0741376Y0266632D02*
X0740706Y0266632D01*
X0740706Y0265964D02*
X0741376Y0265964D01*
X0741376Y0265296D02*
X0740706Y0265296D01*
X0740706Y0268635D02*
X0741376Y0268635D01*
X0741376Y0269303D02*
X0740706Y0269303D01*
X0740706Y0269971D02*
X0741376Y0269971D01*
X0741376Y0270638D02*
X0740706Y0270638D01*
X0740486Y0272642D02*
X0739817Y0272642D01*
X0739817Y0273310D02*
X0740486Y0273310D01*
X0740486Y0273977D02*
X0739817Y0273977D01*
X0739817Y0274645D02*
X0740486Y0274645D01*
X0740486Y0275313D02*
X0739817Y0275313D01*
X0739817Y0275981D02*
X0740486Y0275981D01*
X0740486Y0276649D02*
X0745151Y0276649D01*
X0745151Y0277317D02*
X0744486Y0277317D01*
X0744486Y0277984D02*
X0745151Y0277984D01*
X0745151Y0278652D02*
X0744486Y0278652D01*
X0743883Y0279320D02*
X0745151Y0279320D01*
X0745151Y0279988D02*
X0743215Y0279988D01*
X0742547Y0280656D02*
X0745151Y0280656D01*
X0745151Y0281323D02*
X0673054Y0281323D01*
X0673054Y0281991D02*
X0718828Y0281991D01*
X0718321Y0280656D02*
X0711981Y0280656D01*
X0711781Y0280856D02*
X0708521Y0280856D01*
X0706217Y0278551D01*
X0706217Y0275291D01*
X0708521Y0272987D01*
X0711781Y0272987D01*
X0714086Y0275291D01*
X0714086Y0278551D01*
X0711781Y0280856D01*
X0712649Y0279988D02*
X0717653Y0279988D01*
X0716985Y0279320D02*
X0713317Y0279320D01*
X0713985Y0278652D02*
X0716318Y0278652D01*
X0716217Y0277984D02*
X0714086Y0277984D01*
X0714086Y0277317D02*
X0716217Y0277317D01*
X0716217Y0276649D02*
X0714086Y0276649D01*
X0714086Y0275981D02*
X0716217Y0275981D01*
X0716217Y0275313D02*
X0714086Y0275313D01*
X0713440Y0274645D02*
X0716863Y0274645D01*
X0717531Y0273977D02*
X0712772Y0273977D01*
X0712104Y0273310D02*
X0718198Y0273310D01*
X0718651Y0270638D02*
X0718943Y0270638D01*
X0708198Y0273310D02*
X0702104Y0273310D01*
X0701781Y0272987D02*
X0704086Y0275291D01*
X0704086Y0278551D01*
X0701781Y0280856D01*
X0698521Y0280856D01*
X0696217Y0278551D01*
X0696217Y0275291D01*
X0698521Y0272987D01*
X0701781Y0272987D01*
X0702772Y0273977D02*
X0707531Y0273977D01*
X0706863Y0274645D02*
X0703440Y0274645D01*
X0704086Y0275313D02*
X0706217Y0275313D01*
X0706217Y0275981D02*
X0704086Y0275981D01*
X0704086Y0276649D02*
X0706217Y0276649D01*
X0706217Y0277317D02*
X0704086Y0277317D01*
X0704086Y0277984D02*
X0706217Y0277984D01*
X0706318Y0278652D02*
X0703985Y0278652D01*
X0703317Y0279320D02*
X0706985Y0279320D01*
X0707653Y0279988D02*
X0702649Y0279988D01*
X0701981Y0280656D02*
X0708321Y0280656D01*
X0698321Y0280656D02*
X0691981Y0280656D01*
X0691781Y0280856D02*
X0688521Y0280856D01*
X0686217Y0278551D01*
X0686217Y0275291D01*
X0688521Y0272987D01*
X0691781Y0272987D01*
X0694086Y0275291D01*
X0694086Y0278551D01*
X0691781Y0280856D01*
X0692649Y0279988D02*
X0697653Y0279988D01*
X0696985Y0279320D02*
X0693317Y0279320D01*
X0693985Y0278652D02*
X0696318Y0278652D01*
X0696217Y0277984D02*
X0694086Y0277984D01*
X0694086Y0277317D02*
X0696217Y0277317D01*
X0696217Y0276649D02*
X0694086Y0276649D01*
X0694086Y0275981D02*
X0696217Y0275981D01*
X0696217Y0275313D02*
X0694086Y0275313D01*
X0693440Y0274645D02*
X0696863Y0274645D01*
X0697531Y0273977D02*
X0692772Y0273977D01*
X0692104Y0273310D02*
X0698198Y0273310D01*
X0688198Y0273310D02*
X0682670Y0273310D01*
X0683338Y0273977D02*
X0687531Y0273977D01*
X0686863Y0274645D02*
X0684005Y0274645D01*
X0684486Y0275313D02*
X0686217Y0275313D01*
X0686217Y0275981D02*
X0684486Y0275981D01*
X0684486Y0277256D02*
X0684486Y0278717D01*
X0681947Y0281256D01*
X0680486Y0281256D01*
X0680486Y0277256D01*
X0684486Y0277256D01*
X0684486Y0277317D02*
X0686217Y0277317D01*
X0686217Y0277984D02*
X0684486Y0277984D01*
X0684486Y0278652D02*
X0686318Y0278652D01*
X0686985Y0279320D02*
X0683883Y0279320D01*
X0683215Y0279988D02*
X0687653Y0279988D01*
X0688321Y0280656D02*
X0682547Y0280656D01*
X0680486Y0280656D02*
X0679817Y0280656D01*
X0679817Y0279988D02*
X0680486Y0279988D01*
X0680486Y0279320D02*
X0679817Y0279320D01*
X0679817Y0278652D02*
X0680486Y0278652D01*
X0680486Y0277984D02*
X0679817Y0277984D01*
X0679817Y0277317D02*
X0680486Y0277317D01*
X0680486Y0276649D02*
X0686217Y0276649D01*
X0679817Y0276649D02*
X0674086Y0276649D01*
X0674086Y0277317D02*
X0675817Y0277317D01*
X0675817Y0277984D02*
X0674086Y0277984D01*
X0674086Y0278652D02*
X0675817Y0278652D01*
X0676420Y0279320D02*
X0674086Y0279320D01*
X0674086Y0279988D02*
X0677088Y0279988D01*
X0677755Y0280656D02*
X0673739Y0280656D01*
X0674086Y0275981D02*
X0675817Y0275981D01*
X0675817Y0275313D02*
X0674086Y0275313D01*
X0674086Y0274645D02*
X0676297Y0274645D01*
X0676965Y0273977D02*
X0674086Y0273977D01*
X0673861Y0273310D02*
X0677633Y0273310D01*
X0731668Y0271974D02*
X0745151Y0271974D01*
X0745151Y0272642D02*
X0742002Y0272642D01*
X0742670Y0273310D02*
X0745151Y0273310D01*
X0745151Y0273977D02*
X0743338Y0273977D01*
X0744005Y0274645D02*
X0745151Y0274645D01*
X0745151Y0275313D02*
X0744486Y0275313D01*
X0744486Y0275981D02*
X0745151Y0275981D01*
X0737606Y0269971D02*
X0737164Y0269971D01*
X0737164Y0269303D02*
X0737606Y0269303D01*
X0737606Y0268635D02*
X0734814Y0268635D01*
X0734814Y0269303D02*
X0734145Y0269303D01*
X0734145Y0269971D02*
X0734814Y0269971D01*
X0734814Y0270638D02*
X0734145Y0270638D01*
X0734145Y0271306D02*
X0734814Y0271306D01*
X0732300Y0271306D02*
X0731676Y0271306D01*
D50*
X0719285Y0253925D03*
X0719285Y0250972D03*
X0719285Y0248020D03*
X0719285Y0245067D03*
X0715840Y0245067D03*
X0715840Y0248020D03*
X0715840Y0250972D03*
X0715840Y0253925D03*
X0712395Y0253925D03*
X0712395Y0250972D03*
X0712395Y0248020D03*
X0712395Y0245020D03*
X0708950Y0245067D03*
X0708950Y0248020D03*
X0708950Y0250972D03*
X0708950Y0253925D03*
X0705506Y0253925D03*
X0705506Y0250972D03*
X0705506Y0248020D03*
X0705506Y0245067D03*
D51*
X0757183Y0240402D03*
X0767419Y0243157D03*
X0766632Y0249850D03*
X0757576Y0248276D03*
X0778049Y0244339D03*
X0756395Y0229378D03*
X0756789Y0223472D03*
X0784939Y0221307D03*
X0794781Y0208118D03*
X0801671Y0215008D03*
X0804624Y0205165D03*
X0813482Y0206937D03*
X0824506Y0203394D03*
X0818206Y0196307D03*
X0808364Y0196701D03*
X0804427Y0190402D03*
X0799702Y0196307D03*
X0816632Y0186465D03*
X0803246Y0181740D03*
X0791435Y0181740D03*
X0775293Y0182528D03*
X0764466Y0188630D03*
X0748718Y0178394D03*
X0719781Y0169142D03*
X0694978Y0168748D03*
X0691435Y0168748D03*
X0691435Y0172291D03*
X0694978Y0172291D03*
X0693010Y0165205D03*
X0691435Y0161661D03*
X0691435Y0158118D03*
X0694978Y0158118D03*
X0694978Y0161661D03*
X0683561Y0160874D03*
X0662301Y0158118D03*
X0683364Y0153591D03*
X0715057Y0154181D03*
X0714663Y0145913D03*
X0708954Y0133906D03*
X0725687Y0114417D03*
X0692616Y0113630D03*
X0662301Y0167567D03*
X0706789Y0181740D03*
X0715057Y0181740D03*
X0693994Y0192567D03*
X0669387Y0185283D03*
X0828246Y0236071D03*
X0869387Y0217173D03*
X0830017Y0215598D03*
X0844978Y0196701D03*
X0856789Y0191189D03*
X0861907Y0197488D03*
X0865057Y0181740D03*
X0852458Y0182528D03*
X0836710Y0179378D03*
X0628443Y0259693D03*
X0614663Y0259693D03*
X0592025Y0335480D03*
X0614663Y0340402D03*
X0602852Y0346307D03*
X0564466Y0345323D03*
X0564466Y0335480D03*
D52*
X0602852Y0346307D02*
X0603911Y0347366D01*
X0611760Y0347366D01*
X0615960Y0347366D02*
X0619510Y0347366D01*
X0634348Y0332528D01*
X0634348Y0320717D01*
X0634348Y0312843D02*
X0634348Y0306937D01*
X0661907Y0279378D01*
X0658758Y0276622D02*
X0624506Y0310874D01*
X0624506Y0320717D02*
X0624506Y0330559D01*
X0614663Y0340402D01*
X0614663Y0259693D02*
X0614663Y0255219D01*
X0628443Y0255219D02*
X0628443Y0259693D01*
X0810234Y0236462D02*
X0810234Y0229714D01*
X0810250Y0229698D01*
X0810250Y0225917D01*
X0810332Y0225835D01*
X0820175Y0227016D02*
X0820175Y0230953D01*
X0820175Y0236403D01*
X0820234Y0236462D01*
X0820175Y0236521D01*
X0820175Y0241583D01*
X0815450Y0243945D02*
X0815450Y0236462D01*
X0815234Y0236462D01*
X0825234Y0236462D02*
X0827854Y0236462D01*
X0828246Y0236071D01*
X0820175Y0227016D02*
X0820175Y0222291D01*
X0760928Y0179339D02*
X0760928Y0178787D01*
X0752728Y0178394D02*
X0752728Y0179339D01*
X0752728Y0178394D02*
X0748718Y0178394D01*
X0719781Y0169142D02*
X0719618Y0168979D01*
X0715450Y0168979D01*
X0706395Y0168979D01*
X0706395Y0177179D02*
X0706395Y0181346D01*
X0706789Y0181740D01*
X0715057Y0181740D02*
X0715450Y0181346D01*
X0715450Y0177179D01*
X0693797Y0188202D02*
X0693797Y0192370D01*
X0693994Y0192567D01*
X0675293Y0185053D02*
X0675062Y0185283D01*
X0669387Y0185283D01*
X0667256Y0167567D02*
X0662301Y0167567D01*
X0662301Y0158118D02*
X0667256Y0158118D01*
X0683364Y0153591D02*
X0684098Y0152857D01*
X0687891Y0152857D01*
X0701908Y0153394D02*
X0701910Y0153454D01*
X0701915Y0153513D01*
X0701925Y0153572D01*
X0701938Y0153630D01*
X0701954Y0153688D01*
X0701975Y0153744D01*
X0701998Y0153798D01*
X0702026Y0153852D01*
X0702056Y0153903D01*
X0702089Y0153952D01*
X0702126Y0154000D01*
X0702165Y0154044D01*
X0702208Y0154087D01*
X0702252Y0154126D01*
X0702300Y0154163D01*
X0702349Y0154196D01*
X0702400Y0154226D01*
X0702454Y0154254D01*
X0702508Y0154277D01*
X0702564Y0154298D01*
X0702622Y0154314D01*
X0702680Y0154327D01*
X0702739Y0154337D01*
X0702798Y0154342D01*
X0702858Y0154344D01*
X0709545Y0154344D01*
X0714894Y0154344D01*
X0715057Y0154181D01*
X0714432Y0146144D02*
X0709545Y0146144D01*
X0708921Y0145520D01*
X0701159Y0145520D01*
X0714432Y0146144D02*
X0714663Y0145913D01*
X0712925Y0133709D02*
X0709151Y0133709D01*
X0708954Y0133906D01*
X0705574Y0133906D01*
X0705377Y0133709D01*
X0697177Y0114024D02*
X0696784Y0113630D01*
X0692616Y0113630D01*
X0721125Y0114024D02*
X0721519Y0114417D01*
X0725687Y0114417D01*
D53*
X0742025Y0158709D03*
X0803639Y0225047D03*
X0807576Y0228591D03*
X0813482Y0228197D03*
X0814269Y0224260D03*
X0808364Y0222291D03*
X0820175Y0222291D03*
X0820175Y0227016D03*
X0820175Y0230953D03*
X0802065Y0232134D03*
X0799309Y0236465D03*
X0793797Y0235283D03*
X0793797Y0239614D03*
X0805214Y0238433D03*
X0820175Y0241583D03*
X0797340Y0228591D03*
X0601080Y0229575D03*
D54*
X0693858Y0246035D02*
X0695884Y0248421D01*
X0705506Y0258945D02*
X0705506Y0260100D01*
X0704368Y0261238D01*
X0704324Y0261238D01*
X0700884Y0264678D01*
X0671750Y0264678D01*
X0673323Y0266174D02*
X0674702Y0266174D01*
X0683167Y0266174D01*
X0683196Y0266145D01*
X0701430Y0266145D01*
X0707474Y0260100D01*
X0707474Y0258945D01*
X0709443Y0258945D02*
X0709443Y0260189D01*
X0701552Y0268079D01*
X0701559Y0270063D02*
X0711411Y0260211D01*
X0711411Y0258945D01*
X0711401Y0258955D01*
X0711401Y0259171D01*
X0711401Y0258955D02*
X0711401Y0257955D01*
X0712169Y0268748D02*
X0711308Y0269265D01*
X0701144Y0264678D02*
X0700884Y0264678D01*
D55*
X0700978Y0248512D02*
X0699242Y0248512D01*
X0699151Y0248421D01*
X0723813Y0248512D02*
X0725561Y0248512D01*
X0725651Y0248421D01*
X0730555Y0247512D02*
X0731179Y0246528D01*
D56*
X0729645Y0248421D01*
X0725651Y0248421D01*
X0699151Y0248421D02*
X0695884Y0248421D01*
D57*
X0706395Y0168979D02*
X0706395Y0167488D01*
X0698856Y0167488D01*
D58*
X0774435Y0227213D02*
X0775443Y0228220D01*
X1046513Y0333748D02*
X1063974Y0316287D01*
X1104328Y0316287D01*
X1115647Y0327606D01*
X1115647Y0347528D01*
X1115884Y0347764D01*
X1095884Y0347764D02*
X1090450Y0353197D01*
X1072340Y0353197D01*
X1066513Y0347370D01*
X1066513Y0342370D01*
X1056513Y0342370D02*
X1056513Y0337528D01*
X1069171Y0324870D01*
X1093777Y0324870D01*
X1105884Y0336976D01*
X1085884Y0336976D02*
X1081907Y0336976D01*
X1076513Y0342370D01*
X1046513Y0342370D02*
X1046513Y0333748D01*
D59*
X0694651Y0255421D03*
D60*
X0679624Y0297094D02*
X0762301Y0297094D01*
X0776080Y0310874D01*
D61*
X0679624Y0297094D02*
X0669781Y0287252D01*
M02*
