G75*
%MOIN*%
%OFA0B0*%
%FSLAX25Y25*%
%IPPOS*%
%LPD*%
%AMOC8*
5,1,8,0,0,1.08239X$1,22.5*
%
%ADD10C,0.00000*%
%ADD11C,0.00197*%
%ADD12C,0.00600*%
D10*
X0116748Y0062417D02*
X0368717Y0062417D01*
X0429740Y0123441D01*
X0429740Y0261236D01*
X0366748Y0324228D01*
X0118717Y0324228D01*
X0055724Y0261236D01*
X0055724Y0123441D01*
X0116748Y0062417D01*
X0069504Y0135252D02*
X0069506Y0135445D01*
X0069513Y0135638D01*
X0069525Y0135831D01*
X0069542Y0136024D01*
X0069563Y0136216D01*
X0069589Y0136407D01*
X0069620Y0136598D01*
X0069655Y0136788D01*
X0069695Y0136977D01*
X0069740Y0137165D01*
X0069789Y0137352D01*
X0069843Y0137538D01*
X0069901Y0137722D01*
X0069964Y0137905D01*
X0070032Y0138086D01*
X0070103Y0138265D01*
X0070180Y0138443D01*
X0070260Y0138619D01*
X0070345Y0138792D01*
X0070434Y0138964D01*
X0070527Y0139133D01*
X0070624Y0139300D01*
X0070726Y0139465D01*
X0070831Y0139627D01*
X0070940Y0139786D01*
X0071054Y0139943D01*
X0071171Y0140096D01*
X0071291Y0140247D01*
X0071416Y0140395D01*
X0071544Y0140540D01*
X0071675Y0140681D01*
X0071810Y0140820D01*
X0071949Y0140955D01*
X0072090Y0141086D01*
X0072235Y0141214D01*
X0072383Y0141339D01*
X0072534Y0141459D01*
X0072687Y0141576D01*
X0072844Y0141690D01*
X0073003Y0141799D01*
X0073165Y0141904D01*
X0073330Y0142006D01*
X0073497Y0142103D01*
X0073666Y0142196D01*
X0073838Y0142285D01*
X0074011Y0142370D01*
X0074187Y0142450D01*
X0074365Y0142527D01*
X0074544Y0142598D01*
X0074725Y0142666D01*
X0074908Y0142729D01*
X0075092Y0142787D01*
X0075278Y0142841D01*
X0075465Y0142890D01*
X0075653Y0142935D01*
X0075842Y0142975D01*
X0076032Y0143010D01*
X0076223Y0143041D01*
X0076414Y0143067D01*
X0076606Y0143088D01*
X0076799Y0143105D01*
X0076992Y0143117D01*
X0077185Y0143124D01*
X0077378Y0143126D01*
X0077571Y0143124D01*
X0077764Y0143117D01*
X0077957Y0143105D01*
X0078150Y0143088D01*
X0078342Y0143067D01*
X0078533Y0143041D01*
X0078724Y0143010D01*
X0078914Y0142975D01*
X0079103Y0142935D01*
X0079291Y0142890D01*
X0079478Y0142841D01*
X0079664Y0142787D01*
X0079848Y0142729D01*
X0080031Y0142666D01*
X0080212Y0142598D01*
X0080391Y0142527D01*
X0080569Y0142450D01*
X0080745Y0142370D01*
X0080918Y0142285D01*
X0081090Y0142196D01*
X0081259Y0142103D01*
X0081426Y0142006D01*
X0081591Y0141904D01*
X0081753Y0141799D01*
X0081912Y0141690D01*
X0082069Y0141576D01*
X0082222Y0141459D01*
X0082373Y0141339D01*
X0082521Y0141214D01*
X0082666Y0141086D01*
X0082807Y0140955D01*
X0082946Y0140820D01*
X0083081Y0140681D01*
X0083212Y0140540D01*
X0083340Y0140395D01*
X0083465Y0140247D01*
X0083585Y0140096D01*
X0083702Y0139943D01*
X0083816Y0139786D01*
X0083925Y0139627D01*
X0084030Y0139465D01*
X0084132Y0139300D01*
X0084229Y0139133D01*
X0084322Y0138964D01*
X0084411Y0138792D01*
X0084496Y0138619D01*
X0084576Y0138443D01*
X0084653Y0138265D01*
X0084724Y0138086D01*
X0084792Y0137905D01*
X0084855Y0137722D01*
X0084913Y0137538D01*
X0084967Y0137352D01*
X0085016Y0137165D01*
X0085061Y0136977D01*
X0085101Y0136788D01*
X0085136Y0136598D01*
X0085167Y0136407D01*
X0085193Y0136216D01*
X0085214Y0136024D01*
X0085231Y0135831D01*
X0085243Y0135638D01*
X0085250Y0135445D01*
X0085252Y0135252D01*
X0085250Y0135059D01*
X0085243Y0134866D01*
X0085231Y0134673D01*
X0085214Y0134480D01*
X0085193Y0134288D01*
X0085167Y0134097D01*
X0085136Y0133906D01*
X0085101Y0133716D01*
X0085061Y0133527D01*
X0085016Y0133339D01*
X0084967Y0133152D01*
X0084913Y0132966D01*
X0084855Y0132782D01*
X0084792Y0132599D01*
X0084724Y0132418D01*
X0084653Y0132239D01*
X0084576Y0132061D01*
X0084496Y0131885D01*
X0084411Y0131712D01*
X0084322Y0131540D01*
X0084229Y0131371D01*
X0084132Y0131204D01*
X0084030Y0131039D01*
X0083925Y0130877D01*
X0083816Y0130718D01*
X0083702Y0130561D01*
X0083585Y0130408D01*
X0083465Y0130257D01*
X0083340Y0130109D01*
X0083212Y0129964D01*
X0083081Y0129823D01*
X0082946Y0129684D01*
X0082807Y0129549D01*
X0082666Y0129418D01*
X0082521Y0129290D01*
X0082373Y0129165D01*
X0082222Y0129045D01*
X0082069Y0128928D01*
X0081912Y0128814D01*
X0081753Y0128705D01*
X0081591Y0128600D01*
X0081426Y0128498D01*
X0081259Y0128401D01*
X0081090Y0128308D01*
X0080918Y0128219D01*
X0080745Y0128134D01*
X0080569Y0128054D01*
X0080391Y0127977D01*
X0080212Y0127906D01*
X0080031Y0127838D01*
X0079848Y0127775D01*
X0079664Y0127717D01*
X0079478Y0127663D01*
X0079291Y0127614D01*
X0079103Y0127569D01*
X0078914Y0127529D01*
X0078724Y0127494D01*
X0078533Y0127463D01*
X0078342Y0127437D01*
X0078150Y0127416D01*
X0077957Y0127399D01*
X0077764Y0127387D01*
X0077571Y0127380D01*
X0077378Y0127378D01*
X0077185Y0127380D01*
X0076992Y0127387D01*
X0076799Y0127399D01*
X0076606Y0127416D01*
X0076414Y0127437D01*
X0076223Y0127463D01*
X0076032Y0127494D01*
X0075842Y0127529D01*
X0075653Y0127569D01*
X0075465Y0127614D01*
X0075278Y0127663D01*
X0075092Y0127717D01*
X0074908Y0127775D01*
X0074725Y0127838D01*
X0074544Y0127906D01*
X0074365Y0127977D01*
X0074187Y0128054D01*
X0074011Y0128134D01*
X0073838Y0128219D01*
X0073666Y0128308D01*
X0073497Y0128401D01*
X0073330Y0128498D01*
X0073165Y0128600D01*
X0073003Y0128705D01*
X0072844Y0128814D01*
X0072687Y0128928D01*
X0072534Y0129045D01*
X0072383Y0129165D01*
X0072235Y0129290D01*
X0072090Y0129418D01*
X0071949Y0129549D01*
X0071810Y0129684D01*
X0071675Y0129823D01*
X0071544Y0129964D01*
X0071416Y0130109D01*
X0071291Y0130257D01*
X0071171Y0130408D01*
X0071054Y0130561D01*
X0070940Y0130718D01*
X0070831Y0130877D01*
X0070726Y0131039D01*
X0070624Y0131204D01*
X0070527Y0131371D01*
X0070434Y0131540D01*
X0070345Y0131712D01*
X0070260Y0131885D01*
X0070180Y0132061D01*
X0070103Y0132239D01*
X0070032Y0132418D01*
X0069964Y0132599D01*
X0069901Y0132782D01*
X0069843Y0132966D01*
X0069789Y0133152D01*
X0069740Y0133339D01*
X0069695Y0133527D01*
X0069655Y0133716D01*
X0069620Y0133906D01*
X0069589Y0134097D01*
X0069563Y0134288D01*
X0069542Y0134480D01*
X0069525Y0134673D01*
X0069513Y0134866D01*
X0069506Y0135059D01*
X0069504Y0135252D01*
X0087220Y0160843D02*
X0087222Y0161036D01*
X0087229Y0161229D01*
X0087241Y0161422D01*
X0087258Y0161615D01*
X0087279Y0161807D01*
X0087305Y0161998D01*
X0087336Y0162189D01*
X0087371Y0162379D01*
X0087411Y0162568D01*
X0087456Y0162756D01*
X0087505Y0162943D01*
X0087559Y0163129D01*
X0087617Y0163313D01*
X0087680Y0163496D01*
X0087748Y0163677D01*
X0087819Y0163856D01*
X0087896Y0164034D01*
X0087976Y0164210D01*
X0088061Y0164383D01*
X0088150Y0164555D01*
X0088243Y0164724D01*
X0088340Y0164891D01*
X0088442Y0165056D01*
X0088547Y0165218D01*
X0088656Y0165377D01*
X0088770Y0165534D01*
X0088887Y0165687D01*
X0089007Y0165838D01*
X0089132Y0165986D01*
X0089260Y0166131D01*
X0089391Y0166272D01*
X0089526Y0166411D01*
X0089665Y0166546D01*
X0089806Y0166677D01*
X0089951Y0166805D01*
X0090099Y0166930D01*
X0090250Y0167050D01*
X0090403Y0167167D01*
X0090560Y0167281D01*
X0090719Y0167390D01*
X0090881Y0167495D01*
X0091046Y0167597D01*
X0091213Y0167694D01*
X0091382Y0167787D01*
X0091554Y0167876D01*
X0091727Y0167961D01*
X0091903Y0168041D01*
X0092081Y0168118D01*
X0092260Y0168189D01*
X0092441Y0168257D01*
X0092624Y0168320D01*
X0092808Y0168378D01*
X0092994Y0168432D01*
X0093181Y0168481D01*
X0093369Y0168526D01*
X0093558Y0168566D01*
X0093748Y0168601D01*
X0093939Y0168632D01*
X0094130Y0168658D01*
X0094322Y0168679D01*
X0094515Y0168696D01*
X0094708Y0168708D01*
X0094901Y0168715D01*
X0095094Y0168717D01*
X0095287Y0168715D01*
X0095480Y0168708D01*
X0095673Y0168696D01*
X0095866Y0168679D01*
X0096058Y0168658D01*
X0096249Y0168632D01*
X0096440Y0168601D01*
X0096630Y0168566D01*
X0096819Y0168526D01*
X0097007Y0168481D01*
X0097194Y0168432D01*
X0097380Y0168378D01*
X0097564Y0168320D01*
X0097747Y0168257D01*
X0097928Y0168189D01*
X0098107Y0168118D01*
X0098285Y0168041D01*
X0098461Y0167961D01*
X0098634Y0167876D01*
X0098806Y0167787D01*
X0098975Y0167694D01*
X0099142Y0167597D01*
X0099307Y0167495D01*
X0099469Y0167390D01*
X0099628Y0167281D01*
X0099785Y0167167D01*
X0099938Y0167050D01*
X0100089Y0166930D01*
X0100237Y0166805D01*
X0100382Y0166677D01*
X0100523Y0166546D01*
X0100662Y0166411D01*
X0100797Y0166272D01*
X0100928Y0166131D01*
X0101056Y0165986D01*
X0101181Y0165838D01*
X0101301Y0165687D01*
X0101418Y0165534D01*
X0101532Y0165377D01*
X0101641Y0165218D01*
X0101746Y0165056D01*
X0101848Y0164891D01*
X0101945Y0164724D01*
X0102038Y0164555D01*
X0102127Y0164383D01*
X0102212Y0164210D01*
X0102292Y0164034D01*
X0102369Y0163856D01*
X0102440Y0163677D01*
X0102508Y0163496D01*
X0102571Y0163313D01*
X0102629Y0163129D01*
X0102683Y0162943D01*
X0102732Y0162756D01*
X0102777Y0162568D01*
X0102817Y0162379D01*
X0102852Y0162189D01*
X0102883Y0161998D01*
X0102909Y0161807D01*
X0102930Y0161615D01*
X0102947Y0161422D01*
X0102959Y0161229D01*
X0102966Y0161036D01*
X0102968Y0160843D01*
X0102966Y0160650D01*
X0102959Y0160457D01*
X0102947Y0160264D01*
X0102930Y0160071D01*
X0102909Y0159879D01*
X0102883Y0159688D01*
X0102852Y0159497D01*
X0102817Y0159307D01*
X0102777Y0159118D01*
X0102732Y0158930D01*
X0102683Y0158743D01*
X0102629Y0158557D01*
X0102571Y0158373D01*
X0102508Y0158190D01*
X0102440Y0158009D01*
X0102369Y0157830D01*
X0102292Y0157652D01*
X0102212Y0157476D01*
X0102127Y0157303D01*
X0102038Y0157131D01*
X0101945Y0156962D01*
X0101848Y0156795D01*
X0101746Y0156630D01*
X0101641Y0156468D01*
X0101532Y0156309D01*
X0101418Y0156152D01*
X0101301Y0155999D01*
X0101181Y0155848D01*
X0101056Y0155700D01*
X0100928Y0155555D01*
X0100797Y0155414D01*
X0100662Y0155275D01*
X0100523Y0155140D01*
X0100382Y0155009D01*
X0100237Y0154881D01*
X0100089Y0154756D01*
X0099938Y0154636D01*
X0099785Y0154519D01*
X0099628Y0154405D01*
X0099469Y0154296D01*
X0099307Y0154191D01*
X0099142Y0154089D01*
X0098975Y0153992D01*
X0098806Y0153899D01*
X0098634Y0153810D01*
X0098461Y0153725D01*
X0098285Y0153645D01*
X0098107Y0153568D01*
X0097928Y0153497D01*
X0097747Y0153429D01*
X0097564Y0153366D01*
X0097380Y0153308D01*
X0097194Y0153254D01*
X0097007Y0153205D01*
X0096819Y0153160D01*
X0096630Y0153120D01*
X0096440Y0153085D01*
X0096249Y0153054D01*
X0096058Y0153028D01*
X0095866Y0153007D01*
X0095673Y0152990D01*
X0095480Y0152978D01*
X0095287Y0152971D01*
X0095094Y0152969D01*
X0094901Y0152971D01*
X0094708Y0152978D01*
X0094515Y0152990D01*
X0094322Y0153007D01*
X0094130Y0153028D01*
X0093939Y0153054D01*
X0093748Y0153085D01*
X0093558Y0153120D01*
X0093369Y0153160D01*
X0093181Y0153205D01*
X0092994Y0153254D01*
X0092808Y0153308D01*
X0092624Y0153366D01*
X0092441Y0153429D01*
X0092260Y0153497D01*
X0092081Y0153568D01*
X0091903Y0153645D01*
X0091727Y0153725D01*
X0091554Y0153810D01*
X0091382Y0153899D01*
X0091213Y0153992D01*
X0091046Y0154089D01*
X0090881Y0154191D01*
X0090719Y0154296D01*
X0090560Y0154405D01*
X0090403Y0154519D01*
X0090250Y0154636D01*
X0090099Y0154756D01*
X0089951Y0154881D01*
X0089806Y0155009D01*
X0089665Y0155140D01*
X0089526Y0155275D01*
X0089391Y0155414D01*
X0089260Y0155555D01*
X0089132Y0155700D01*
X0089007Y0155848D01*
X0088887Y0155999D01*
X0088770Y0156152D01*
X0088656Y0156309D01*
X0088547Y0156468D01*
X0088442Y0156630D01*
X0088340Y0156795D01*
X0088243Y0156962D01*
X0088150Y0157131D01*
X0088061Y0157303D01*
X0087976Y0157476D01*
X0087896Y0157652D01*
X0087819Y0157830D01*
X0087748Y0158009D01*
X0087680Y0158190D01*
X0087617Y0158373D01*
X0087559Y0158557D01*
X0087505Y0158743D01*
X0087456Y0158930D01*
X0087411Y0159118D01*
X0087371Y0159307D01*
X0087336Y0159497D01*
X0087305Y0159688D01*
X0087279Y0159879D01*
X0087258Y0160071D01*
X0087241Y0160264D01*
X0087229Y0160457D01*
X0087222Y0160650D01*
X0087220Y0160843D01*
X0087220Y0282890D02*
X0087222Y0283083D01*
X0087229Y0283276D01*
X0087241Y0283469D01*
X0087258Y0283662D01*
X0087279Y0283854D01*
X0087305Y0284045D01*
X0087336Y0284236D01*
X0087371Y0284426D01*
X0087411Y0284615D01*
X0087456Y0284803D01*
X0087505Y0284990D01*
X0087559Y0285176D01*
X0087617Y0285360D01*
X0087680Y0285543D01*
X0087748Y0285724D01*
X0087819Y0285903D01*
X0087896Y0286081D01*
X0087976Y0286257D01*
X0088061Y0286430D01*
X0088150Y0286602D01*
X0088243Y0286771D01*
X0088340Y0286938D01*
X0088442Y0287103D01*
X0088547Y0287265D01*
X0088656Y0287424D01*
X0088770Y0287581D01*
X0088887Y0287734D01*
X0089007Y0287885D01*
X0089132Y0288033D01*
X0089260Y0288178D01*
X0089391Y0288319D01*
X0089526Y0288458D01*
X0089665Y0288593D01*
X0089806Y0288724D01*
X0089951Y0288852D01*
X0090099Y0288977D01*
X0090250Y0289097D01*
X0090403Y0289214D01*
X0090560Y0289328D01*
X0090719Y0289437D01*
X0090881Y0289542D01*
X0091046Y0289644D01*
X0091213Y0289741D01*
X0091382Y0289834D01*
X0091554Y0289923D01*
X0091727Y0290008D01*
X0091903Y0290088D01*
X0092081Y0290165D01*
X0092260Y0290236D01*
X0092441Y0290304D01*
X0092624Y0290367D01*
X0092808Y0290425D01*
X0092994Y0290479D01*
X0093181Y0290528D01*
X0093369Y0290573D01*
X0093558Y0290613D01*
X0093748Y0290648D01*
X0093939Y0290679D01*
X0094130Y0290705D01*
X0094322Y0290726D01*
X0094515Y0290743D01*
X0094708Y0290755D01*
X0094901Y0290762D01*
X0095094Y0290764D01*
X0095287Y0290762D01*
X0095480Y0290755D01*
X0095673Y0290743D01*
X0095866Y0290726D01*
X0096058Y0290705D01*
X0096249Y0290679D01*
X0096440Y0290648D01*
X0096630Y0290613D01*
X0096819Y0290573D01*
X0097007Y0290528D01*
X0097194Y0290479D01*
X0097380Y0290425D01*
X0097564Y0290367D01*
X0097747Y0290304D01*
X0097928Y0290236D01*
X0098107Y0290165D01*
X0098285Y0290088D01*
X0098461Y0290008D01*
X0098634Y0289923D01*
X0098806Y0289834D01*
X0098975Y0289741D01*
X0099142Y0289644D01*
X0099307Y0289542D01*
X0099469Y0289437D01*
X0099628Y0289328D01*
X0099785Y0289214D01*
X0099938Y0289097D01*
X0100089Y0288977D01*
X0100237Y0288852D01*
X0100382Y0288724D01*
X0100523Y0288593D01*
X0100662Y0288458D01*
X0100797Y0288319D01*
X0100928Y0288178D01*
X0101056Y0288033D01*
X0101181Y0287885D01*
X0101301Y0287734D01*
X0101418Y0287581D01*
X0101532Y0287424D01*
X0101641Y0287265D01*
X0101746Y0287103D01*
X0101848Y0286938D01*
X0101945Y0286771D01*
X0102038Y0286602D01*
X0102127Y0286430D01*
X0102212Y0286257D01*
X0102292Y0286081D01*
X0102369Y0285903D01*
X0102440Y0285724D01*
X0102508Y0285543D01*
X0102571Y0285360D01*
X0102629Y0285176D01*
X0102683Y0284990D01*
X0102732Y0284803D01*
X0102777Y0284615D01*
X0102817Y0284426D01*
X0102852Y0284236D01*
X0102883Y0284045D01*
X0102909Y0283854D01*
X0102930Y0283662D01*
X0102947Y0283469D01*
X0102959Y0283276D01*
X0102966Y0283083D01*
X0102968Y0282890D01*
X0102966Y0282697D01*
X0102959Y0282504D01*
X0102947Y0282311D01*
X0102930Y0282118D01*
X0102909Y0281926D01*
X0102883Y0281735D01*
X0102852Y0281544D01*
X0102817Y0281354D01*
X0102777Y0281165D01*
X0102732Y0280977D01*
X0102683Y0280790D01*
X0102629Y0280604D01*
X0102571Y0280420D01*
X0102508Y0280237D01*
X0102440Y0280056D01*
X0102369Y0279877D01*
X0102292Y0279699D01*
X0102212Y0279523D01*
X0102127Y0279350D01*
X0102038Y0279178D01*
X0101945Y0279009D01*
X0101848Y0278842D01*
X0101746Y0278677D01*
X0101641Y0278515D01*
X0101532Y0278356D01*
X0101418Y0278199D01*
X0101301Y0278046D01*
X0101181Y0277895D01*
X0101056Y0277747D01*
X0100928Y0277602D01*
X0100797Y0277461D01*
X0100662Y0277322D01*
X0100523Y0277187D01*
X0100382Y0277056D01*
X0100237Y0276928D01*
X0100089Y0276803D01*
X0099938Y0276683D01*
X0099785Y0276566D01*
X0099628Y0276452D01*
X0099469Y0276343D01*
X0099307Y0276238D01*
X0099142Y0276136D01*
X0098975Y0276039D01*
X0098806Y0275946D01*
X0098634Y0275857D01*
X0098461Y0275772D01*
X0098285Y0275692D01*
X0098107Y0275615D01*
X0097928Y0275544D01*
X0097747Y0275476D01*
X0097564Y0275413D01*
X0097380Y0275355D01*
X0097194Y0275301D01*
X0097007Y0275252D01*
X0096819Y0275207D01*
X0096630Y0275167D01*
X0096440Y0275132D01*
X0096249Y0275101D01*
X0096058Y0275075D01*
X0095866Y0275054D01*
X0095673Y0275037D01*
X0095480Y0275025D01*
X0095287Y0275018D01*
X0095094Y0275016D01*
X0094901Y0275018D01*
X0094708Y0275025D01*
X0094515Y0275037D01*
X0094322Y0275054D01*
X0094130Y0275075D01*
X0093939Y0275101D01*
X0093748Y0275132D01*
X0093558Y0275167D01*
X0093369Y0275207D01*
X0093181Y0275252D01*
X0092994Y0275301D01*
X0092808Y0275355D01*
X0092624Y0275413D01*
X0092441Y0275476D01*
X0092260Y0275544D01*
X0092081Y0275615D01*
X0091903Y0275692D01*
X0091727Y0275772D01*
X0091554Y0275857D01*
X0091382Y0275946D01*
X0091213Y0276039D01*
X0091046Y0276136D01*
X0090881Y0276238D01*
X0090719Y0276343D01*
X0090560Y0276452D01*
X0090403Y0276566D01*
X0090250Y0276683D01*
X0090099Y0276803D01*
X0089951Y0276928D01*
X0089806Y0277056D01*
X0089665Y0277187D01*
X0089526Y0277322D01*
X0089391Y0277461D01*
X0089260Y0277602D01*
X0089132Y0277747D01*
X0089007Y0277895D01*
X0088887Y0278046D01*
X0088770Y0278199D01*
X0088656Y0278356D01*
X0088547Y0278515D01*
X0088442Y0278677D01*
X0088340Y0278842D01*
X0088243Y0279009D01*
X0088150Y0279178D01*
X0088061Y0279350D01*
X0087976Y0279523D01*
X0087896Y0279699D01*
X0087819Y0279877D01*
X0087748Y0280056D01*
X0087680Y0280237D01*
X0087617Y0280420D01*
X0087559Y0280604D01*
X0087505Y0280790D01*
X0087456Y0280977D01*
X0087411Y0281165D01*
X0087371Y0281354D01*
X0087336Y0281544D01*
X0087305Y0281735D01*
X0087279Y0281926D01*
X0087258Y0282118D01*
X0087241Y0282311D01*
X0087229Y0282504D01*
X0087222Y0282697D01*
X0087220Y0282890D01*
X0195488Y0308480D02*
X0195490Y0308673D01*
X0195497Y0308866D01*
X0195509Y0309059D01*
X0195526Y0309252D01*
X0195547Y0309444D01*
X0195573Y0309635D01*
X0195604Y0309826D01*
X0195639Y0310016D01*
X0195679Y0310205D01*
X0195724Y0310393D01*
X0195773Y0310580D01*
X0195827Y0310766D01*
X0195885Y0310950D01*
X0195948Y0311133D01*
X0196016Y0311314D01*
X0196087Y0311493D01*
X0196164Y0311671D01*
X0196244Y0311847D01*
X0196329Y0312020D01*
X0196418Y0312192D01*
X0196511Y0312361D01*
X0196608Y0312528D01*
X0196710Y0312693D01*
X0196815Y0312855D01*
X0196924Y0313014D01*
X0197038Y0313171D01*
X0197155Y0313324D01*
X0197275Y0313475D01*
X0197400Y0313623D01*
X0197528Y0313768D01*
X0197659Y0313909D01*
X0197794Y0314048D01*
X0197933Y0314183D01*
X0198074Y0314314D01*
X0198219Y0314442D01*
X0198367Y0314567D01*
X0198518Y0314687D01*
X0198671Y0314804D01*
X0198828Y0314918D01*
X0198987Y0315027D01*
X0199149Y0315132D01*
X0199314Y0315234D01*
X0199481Y0315331D01*
X0199650Y0315424D01*
X0199822Y0315513D01*
X0199995Y0315598D01*
X0200171Y0315678D01*
X0200349Y0315755D01*
X0200528Y0315826D01*
X0200709Y0315894D01*
X0200892Y0315957D01*
X0201076Y0316015D01*
X0201262Y0316069D01*
X0201449Y0316118D01*
X0201637Y0316163D01*
X0201826Y0316203D01*
X0202016Y0316238D01*
X0202207Y0316269D01*
X0202398Y0316295D01*
X0202590Y0316316D01*
X0202783Y0316333D01*
X0202976Y0316345D01*
X0203169Y0316352D01*
X0203362Y0316354D01*
X0203555Y0316352D01*
X0203748Y0316345D01*
X0203941Y0316333D01*
X0204134Y0316316D01*
X0204326Y0316295D01*
X0204517Y0316269D01*
X0204708Y0316238D01*
X0204898Y0316203D01*
X0205087Y0316163D01*
X0205275Y0316118D01*
X0205462Y0316069D01*
X0205648Y0316015D01*
X0205832Y0315957D01*
X0206015Y0315894D01*
X0206196Y0315826D01*
X0206375Y0315755D01*
X0206553Y0315678D01*
X0206729Y0315598D01*
X0206902Y0315513D01*
X0207074Y0315424D01*
X0207243Y0315331D01*
X0207410Y0315234D01*
X0207575Y0315132D01*
X0207737Y0315027D01*
X0207896Y0314918D01*
X0208053Y0314804D01*
X0208206Y0314687D01*
X0208357Y0314567D01*
X0208505Y0314442D01*
X0208650Y0314314D01*
X0208791Y0314183D01*
X0208930Y0314048D01*
X0209065Y0313909D01*
X0209196Y0313768D01*
X0209324Y0313623D01*
X0209449Y0313475D01*
X0209569Y0313324D01*
X0209686Y0313171D01*
X0209800Y0313014D01*
X0209909Y0312855D01*
X0210014Y0312693D01*
X0210116Y0312528D01*
X0210213Y0312361D01*
X0210306Y0312192D01*
X0210395Y0312020D01*
X0210480Y0311847D01*
X0210560Y0311671D01*
X0210637Y0311493D01*
X0210708Y0311314D01*
X0210776Y0311133D01*
X0210839Y0310950D01*
X0210897Y0310766D01*
X0210951Y0310580D01*
X0211000Y0310393D01*
X0211045Y0310205D01*
X0211085Y0310016D01*
X0211120Y0309826D01*
X0211151Y0309635D01*
X0211177Y0309444D01*
X0211198Y0309252D01*
X0211215Y0309059D01*
X0211227Y0308866D01*
X0211234Y0308673D01*
X0211236Y0308480D01*
X0211234Y0308287D01*
X0211227Y0308094D01*
X0211215Y0307901D01*
X0211198Y0307708D01*
X0211177Y0307516D01*
X0211151Y0307325D01*
X0211120Y0307134D01*
X0211085Y0306944D01*
X0211045Y0306755D01*
X0211000Y0306567D01*
X0210951Y0306380D01*
X0210897Y0306194D01*
X0210839Y0306010D01*
X0210776Y0305827D01*
X0210708Y0305646D01*
X0210637Y0305467D01*
X0210560Y0305289D01*
X0210480Y0305113D01*
X0210395Y0304940D01*
X0210306Y0304768D01*
X0210213Y0304599D01*
X0210116Y0304432D01*
X0210014Y0304267D01*
X0209909Y0304105D01*
X0209800Y0303946D01*
X0209686Y0303789D01*
X0209569Y0303636D01*
X0209449Y0303485D01*
X0209324Y0303337D01*
X0209196Y0303192D01*
X0209065Y0303051D01*
X0208930Y0302912D01*
X0208791Y0302777D01*
X0208650Y0302646D01*
X0208505Y0302518D01*
X0208357Y0302393D01*
X0208206Y0302273D01*
X0208053Y0302156D01*
X0207896Y0302042D01*
X0207737Y0301933D01*
X0207575Y0301828D01*
X0207410Y0301726D01*
X0207243Y0301629D01*
X0207074Y0301536D01*
X0206902Y0301447D01*
X0206729Y0301362D01*
X0206553Y0301282D01*
X0206375Y0301205D01*
X0206196Y0301134D01*
X0206015Y0301066D01*
X0205832Y0301003D01*
X0205648Y0300945D01*
X0205462Y0300891D01*
X0205275Y0300842D01*
X0205087Y0300797D01*
X0204898Y0300757D01*
X0204708Y0300722D01*
X0204517Y0300691D01*
X0204326Y0300665D01*
X0204134Y0300644D01*
X0203941Y0300627D01*
X0203748Y0300615D01*
X0203555Y0300608D01*
X0203362Y0300606D01*
X0203169Y0300608D01*
X0202976Y0300615D01*
X0202783Y0300627D01*
X0202590Y0300644D01*
X0202398Y0300665D01*
X0202207Y0300691D01*
X0202016Y0300722D01*
X0201826Y0300757D01*
X0201637Y0300797D01*
X0201449Y0300842D01*
X0201262Y0300891D01*
X0201076Y0300945D01*
X0200892Y0301003D01*
X0200709Y0301066D01*
X0200528Y0301134D01*
X0200349Y0301205D01*
X0200171Y0301282D01*
X0199995Y0301362D01*
X0199822Y0301447D01*
X0199650Y0301536D01*
X0199481Y0301629D01*
X0199314Y0301726D01*
X0199149Y0301828D01*
X0198987Y0301933D01*
X0198828Y0302042D01*
X0198671Y0302156D01*
X0198518Y0302273D01*
X0198367Y0302393D01*
X0198219Y0302518D01*
X0198074Y0302646D01*
X0197933Y0302777D01*
X0197794Y0302912D01*
X0197659Y0303051D01*
X0197528Y0303192D01*
X0197400Y0303337D01*
X0197275Y0303485D01*
X0197155Y0303636D01*
X0197038Y0303789D01*
X0196924Y0303946D01*
X0196815Y0304105D01*
X0196710Y0304267D01*
X0196608Y0304432D01*
X0196511Y0304599D01*
X0196418Y0304768D01*
X0196329Y0304940D01*
X0196244Y0305113D01*
X0196164Y0305289D01*
X0196087Y0305467D01*
X0196016Y0305646D01*
X0195948Y0305827D01*
X0195885Y0306010D01*
X0195827Y0306194D01*
X0195773Y0306380D01*
X0195724Y0306567D01*
X0195679Y0306755D01*
X0195639Y0306944D01*
X0195604Y0307134D01*
X0195573Y0307325D01*
X0195547Y0307516D01*
X0195526Y0307708D01*
X0195509Y0307901D01*
X0195497Y0308094D01*
X0195490Y0308287D01*
X0195488Y0308480D01*
X0330133Y0312417D02*
X0330135Y0312529D01*
X0330141Y0312640D01*
X0330151Y0312752D01*
X0330165Y0312863D01*
X0330182Y0312973D01*
X0330204Y0313083D01*
X0330230Y0313192D01*
X0330259Y0313300D01*
X0330292Y0313406D01*
X0330329Y0313512D01*
X0330370Y0313616D01*
X0330415Y0313719D01*
X0330463Y0313820D01*
X0330514Y0313919D01*
X0330569Y0314016D01*
X0330628Y0314111D01*
X0330689Y0314205D01*
X0330754Y0314296D01*
X0330823Y0314384D01*
X0330894Y0314470D01*
X0330968Y0314554D01*
X0331046Y0314634D01*
X0331126Y0314712D01*
X0331209Y0314788D01*
X0331294Y0314860D01*
X0331382Y0314929D01*
X0331472Y0314995D01*
X0331565Y0315057D01*
X0331660Y0315117D01*
X0331757Y0315173D01*
X0331855Y0315225D01*
X0331956Y0315274D01*
X0332058Y0315319D01*
X0332162Y0315361D01*
X0332267Y0315399D01*
X0332374Y0315433D01*
X0332481Y0315463D01*
X0332590Y0315490D01*
X0332699Y0315512D01*
X0332810Y0315531D01*
X0332920Y0315546D01*
X0333032Y0315557D01*
X0333143Y0315564D01*
X0333255Y0315567D01*
X0333367Y0315566D01*
X0333479Y0315561D01*
X0333590Y0315552D01*
X0333701Y0315539D01*
X0333812Y0315522D01*
X0333922Y0315502D01*
X0334031Y0315477D01*
X0334139Y0315449D01*
X0334246Y0315416D01*
X0334352Y0315380D01*
X0334456Y0315340D01*
X0334559Y0315297D01*
X0334661Y0315250D01*
X0334760Y0315199D01*
X0334858Y0315145D01*
X0334954Y0315087D01*
X0335048Y0315026D01*
X0335139Y0314962D01*
X0335228Y0314895D01*
X0335315Y0314824D01*
X0335399Y0314750D01*
X0335481Y0314674D01*
X0335559Y0314594D01*
X0335635Y0314512D01*
X0335708Y0314427D01*
X0335778Y0314340D01*
X0335844Y0314250D01*
X0335908Y0314158D01*
X0335968Y0314064D01*
X0336025Y0313968D01*
X0336078Y0313869D01*
X0336128Y0313769D01*
X0336174Y0313668D01*
X0336217Y0313564D01*
X0336256Y0313459D01*
X0336291Y0313353D01*
X0336322Y0313246D01*
X0336350Y0313137D01*
X0336373Y0313028D01*
X0336393Y0312918D01*
X0336409Y0312807D01*
X0336421Y0312696D01*
X0336429Y0312585D01*
X0336433Y0312473D01*
X0336433Y0312361D01*
X0336429Y0312249D01*
X0336421Y0312138D01*
X0336409Y0312027D01*
X0336393Y0311916D01*
X0336373Y0311806D01*
X0336350Y0311697D01*
X0336322Y0311588D01*
X0336291Y0311481D01*
X0336256Y0311375D01*
X0336217Y0311270D01*
X0336174Y0311166D01*
X0336128Y0311065D01*
X0336078Y0310965D01*
X0336025Y0310866D01*
X0335968Y0310770D01*
X0335908Y0310676D01*
X0335844Y0310584D01*
X0335778Y0310494D01*
X0335708Y0310407D01*
X0335635Y0310322D01*
X0335559Y0310240D01*
X0335481Y0310160D01*
X0335399Y0310084D01*
X0335315Y0310010D01*
X0335228Y0309939D01*
X0335139Y0309872D01*
X0335048Y0309808D01*
X0334954Y0309747D01*
X0334858Y0309689D01*
X0334760Y0309635D01*
X0334661Y0309584D01*
X0334559Y0309537D01*
X0334456Y0309494D01*
X0334352Y0309454D01*
X0334246Y0309418D01*
X0334139Y0309385D01*
X0334031Y0309357D01*
X0333922Y0309332D01*
X0333812Y0309312D01*
X0333701Y0309295D01*
X0333590Y0309282D01*
X0333479Y0309273D01*
X0333367Y0309268D01*
X0333255Y0309267D01*
X0333143Y0309270D01*
X0333032Y0309277D01*
X0332920Y0309288D01*
X0332810Y0309303D01*
X0332699Y0309322D01*
X0332590Y0309344D01*
X0332481Y0309371D01*
X0332374Y0309401D01*
X0332267Y0309435D01*
X0332162Y0309473D01*
X0332058Y0309515D01*
X0331956Y0309560D01*
X0331855Y0309609D01*
X0331757Y0309661D01*
X0331660Y0309717D01*
X0331565Y0309777D01*
X0331472Y0309839D01*
X0331382Y0309905D01*
X0331294Y0309974D01*
X0331209Y0310046D01*
X0331126Y0310122D01*
X0331046Y0310200D01*
X0330968Y0310280D01*
X0330894Y0310364D01*
X0330823Y0310450D01*
X0330754Y0310538D01*
X0330689Y0310629D01*
X0330628Y0310723D01*
X0330569Y0310818D01*
X0330514Y0310915D01*
X0330463Y0311014D01*
X0330415Y0311115D01*
X0330370Y0311218D01*
X0330329Y0311322D01*
X0330292Y0311428D01*
X0330259Y0311534D01*
X0330230Y0311642D01*
X0330204Y0311751D01*
X0330182Y0311861D01*
X0330165Y0311971D01*
X0330151Y0312082D01*
X0330141Y0312194D01*
X0330135Y0312305D01*
X0330133Y0312417D01*
X0382496Y0282890D02*
X0382498Y0283083D01*
X0382505Y0283276D01*
X0382517Y0283469D01*
X0382534Y0283662D01*
X0382555Y0283854D01*
X0382581Y0284045D01*
X0382612Y0284236D01*
X0382647Y0284426D01*
X0382687Y0284615D01*
X0382732Y0284803D01*
X0382781Y0284990D01*
X0382835Y0285176D01*
X0382893Y0285360D01*
X0382956Y0285543D01*
X0383024Y0285724D01*
X0383095Y0285903D01*
X0383172Y0286081D01*
X0383252Y0286257D01*
X0383337Y0286430D01*
X0383426Y0286602D01*
X0383519Y0286771D01*
X0383616Y0286938D01*
X0383718Y0287103D01*
X0383823Y0287265D01*
X0383932Y0287424D01*
X0384046Y0287581D01*
X0384163Y0287734D01*
X0384283Y0287885D01*
X0384408Y0288033D01*
X0384536Y0288178D01*
X0384667Y0288319D01*
X0384802Y0288458D01*
X0384941Y0288593D01*
X0385082Y0288724D01*
X0385227Y0288852D01*
X0385375Y0288977D01*
X0385526Y0289097D01*
X0385679Y0289214D01*
X0385836Y0289328D01*
X0385995Y0289437D01*
X0386157Y0289542D01*
X0386322Y0289644D01*
X0386489Y0289741D01*
X0386658Y0289834D01*
X0386830Y0289923D01*
X0387003Y0290008D01*
X0387179Y0290088D01*
X0387357Y0290165D01*
X0387536Y0290236D01*
X0387717Y0290304D01*
X0387900Y0290367D01*
X0388084Y0290425D01*
X0388270Y0290479D01*
X0388457Y0290528D01*
X0388645Y0290573D01*
X0388834Y0290613D01*
X0389024Y0290648D01*
X0389215Y0290679D01*
X0389406Y0290705D01*
X0389598Y0290726D01*
X0389791Y0290743D01*
X0389984Y0290755D01*
X0390177Y0290762D01*
X0390370Y0290764D01*
X0390563Y0290762D01*
X0390756Y0290755D01*
X0390949Y0290743D01*
X0391142Y0290726D01*
X0391334Y0290705D01*
X0391525Y0290679D01*
X0391716Y0290648D01*
X0391906Y0290613D01*
X0392095Y0290573D01*
X0392283Y0290528D01*
X0392470Y0290479D01*
X0392656Y0290425D01*
X0392840Y0290367D01*
X0393023Y0290304D01*
X0393204Y0290236D01*
X0393383Y0290165D01*
X0393561Y0290088D01*
X0393737Y0290008D01*
X0393910Y0289923D01*
X0394082Y0289834D01*
X0394251Y0289741D01*
X0394418Y0289644D01*
X0394583Y0289542D01*
X0394745Y0289437D01*
X0394904Y0289328D01*
X0395061Y0289214D01*
X0395214Y0289097D01*
X0395365Y0288977D01*
X0395513Y0288852D01*
X0395658Y0288724D01*
X0395799Y0288593D01*
X0395938Y0288458D01*
X0396073Y0288319D01*
X0396204Y0288178D01*
X0396332Y0288033D01*
X0396457Y0287885D01*
X0396577Y0287734D01*
X0396694Y0287581D01*
X0396808Y0287424D01*
X0396917Y0287265D01*
X0397022Y0287103D01*
X0397124Y0286938D01*
X0397221Y0286771D01*
X0397314Y0286602D01*
X0397403Y0286430D01*
X0397488Y0286257D01*
X0397568Y0286081D01*
X0397645Y0285903D01*
X0397716Y0285724D01*
X0397784Y0285543D01*
X0397847Y0285360D01*
X0397905Y0285176D01*
X0397959Y0284990D01*
X0398008Y0284803D01*
X0398053Y0284615D01*
X0398093Y0284426D01*
X0398128Y0284236D01*
X0398159Y0284045D01*
X0398185Y0283854D01*
X0398206Y0283662D01*
X0398223Y0283469D01*
X0398235Y0283276D01*
X0398242Y0283083D01*
X0398244Y0282890D01*
X0398242Y0282697D01*
X0398235Y0282504D01*
X0398223Y0282311D01*
X0398206Y0282118D01*
X0398185Y0281926D01*
X0398159Y0281735D01*
X0398128Y0281544D01*
X0398093Y0281354D01*
X0398053Y0281165D01*
X0398008Y0280977D01*
X0397959Y0280790D01*
X0397905Y0280604D01*
X0397847Y0280420D01*
X0397784Y0280237D01*
X0397716Y0280056D01*
X0397645Y0279877D01*
X0397568Y0279699D01*
X0397488Y0279523D01*
X0397403Y0279350D01*
X0397314Y0279178D01*
X0397221Y0279009D01*
X0397124Y0278842D01*
X0397022Y0278677D01*
X0396917Y0278515D01*
X0396808Y0278356D01*
X0396694Y0278199D01*
X0396577Y0278046D01*
X0396457Y0277895D01*
X0396332Y0277747D01*
X0396204Y0277602D01*
X0396073Y0277461D01*
X0395938Y0277322D01*
X0395799Y0277187D01*
X0395658Y0277056D01*
X0395513Y0276928D01*
X0395365Y0276803D01*
X0395214Y0276683D01*
X0395061Y0276566D01*
X0394904Y0276452D01*
X0394745Y0276343D01*
X0394583Y0276238D01*
X0394418Y0276136D01*
X0394251Y0276039D01*
X0394082Y0275946D01*
X0393910Y0275857D01*
X0393737Y0275772D01*
X0393561Y0275692D01*
X0393383Y0275615D01*
X0393204Y0275544D01*
X0393023Y0275476D01*
X0392840Y0275413D01*
X0392656Y0275355D01*
X0392470Y0275301D01*
X0392283Y0275252D01*
X0392095Y0275207D01*
X0391906Y0275167D01*
X0391716Y0275132D01*
X0391525Y0275101D01*
X0391334Y0275075D01*
X0391142Y0275054D01*
X0390949Y0275037D01*
X0390756Y0275025D01*
X0390563Y0275018D01*
X0390370Y0275016D01*
X0390177Y0275018D01*
X0389984Y0275025D01*
X0389791Y0275037D01*
X0389598Y0275054D01*
X0389406Y0275075D01*
X0389215Y0275101D01*
X0389024Y0275132D01*
X0388834Y0275167D01*
X0388645Y0275207D01*
X0388457Y0275252D01*
X0388270Y0275301D01*
X0388084Y0275355D01*
X0387900Y0275413D01*
X0387717Y0275476D01*
X0387536Y0275544D01*
X0387357Y0275615D01*
X0387179Y0275692D01*
X0387003Y0275772D01*
X0386830Y0275857D01*
X0386658Y0275946D01*
X0386489Y0276039D01*
X0386322Y0276136D01*
X0386157Y0276238D01*
X0385995Y0276343D01*
X0385836Y0276452D01*
X0385679Y0276566D01*
X0385526Y0276683D01*
X0385375Y0276803D01*
X0385227Y0276928D01*
X0385082Y0277056D01*
X0384941Y0277187D01*
X0384802Y0277322D01*
X0384667Y0277461D01*
X0384536Y0277602D01*
X0384408Y0277747D01*
X0384283Y0277895D01*
X0384163Y0278046D01*
X0384046Y0278199D01*
X0383932Y0278356D01*
X0383823Y0278515D01*
X0383718Y0278677D01*
X0383616Y0278842D01*
X0383519Y0279009D01*
X0383426Y0279178D01*
X0383337Y0279350D01*
X0383252Y0279523D01*
X0383172Y0279699D01*
X0383095Y0279877D01*
X0383024Y0280056D01*
X0382956Y0280237D01*
X0382893Y0280420D01*
X0382835Y0280604D01*
X0382781Y0280790D01*
X0382732Y0280977D01*
X0382687Y0281165D01*
X0382647Y0281354D01*
X0382612Y0281544D01*
X0382581Y0281735D01*
X0382555Y0281926D01*
X0382534Y0282118D01*
X0382517Y0282311D01*
X0382505Y0282504D01*
X0382498Y0282697D01*
X0382496Y0282890D01*
X0439425Y0310016D02*
X0439427Y0310169D01*
X0439433Y0310323D01*
X0439443Y0310476D01*
X0439457Y0310628D01*
X0439475Y0310781D01*
X0439497Y0310932D01*
X0439522Y0311083D01*
X0439552Y0311234D01*
X0439586Y0311384D01*
X0439623Y0311532D01*
X0439664Y0311680D01*
X0439709Y0311826D01*
X0439758Y0311972D01*
X0439811Y0312116D01*
X0439867Y0312258D01*
X0439927Y0312399D01*
X0439991Y0312539D01*
X0440058Y0312677D01*
X0440129Y0312813D01*
X0440204Y0312947D01*
X0440281Y0313079D01*
X0440363Y0313209D01*
X0440447Y0313337D01*
X0440535Y0313463D01*
X0440626Y0313586D01*
X0440720Y0313707D01*
X0440818Y0313825D01*
X0440918Y0313941D01*
X0441022Y0314054D01*
X0441128Y0314165D01*
X0441237Y0314273D01*
X0441349Y0314378D01*
X0441463Y0314479D01*
X0441581Y0314578D01*
X0441700Y0314674D01*
X0441822Y0314767D01*
X0441947Y0314856D01*
X0442074Y0314943D01*
X0442203Y0315025D01*
X0442334Y0315105D01*
X0442467Y0315181D01*
X0442602Y0315254D01*
X0442739Y0315323D01*
X0442878Y0315388D01*
X0443018Y0315450D01*
X0443160Y0315508D01*
X0443303Y0315563D01*
X0443448Y0315614D01*
X0443594Y0315661D01*
X0443741Y0315704D01*
X0443889Y0315743D01*
X0444038Y0315779D01*
X0444188Y0315810D01*
X0444339Y0315838D01*
X0444490Y0315862D01*
X0444643Y0315882D01*
X0444795Y0315898D01*
X0444948Y0315910D01*
X0445101Y0315918D01*
X0445254Y0315922D01*
X0445408Y0315922D01*
X0445561Y0315918D01*
X0445714Y0315910D01*
X0445867Y0315898D01*
X0446019Y0315882D01*
X0446172Y0315862D01*
X0446323Y0315838D01*
X0446474Y0315810D01*
X0446624Y0315779D01*
X0446773Y0315743D01*
X0446921Y0315704D01*
X0447068Y0315661D01*
X0447214Y0315614D01*
X0447359Y0315563D01*
X0447502Y0315508D01*
X0447644Y0315450D01*
X0447784Y0315388D01*
X0447923Y0315323D01*
X0448060Y0315254D01*
X0448195Y0315181D01*
X0448328Y0315105D01*
X0448459Y0315025D01*
X0448588Y0314943D01*
X0448715Y0314856D01*
X0448840Y0314767D01*
X0448962Y0314674D01*
X0449081Y0314578D01*
X0449199Y0314479D01*
X0449313Y0314378D01*
X0449425Y0314273D01*
X0449534Y0314165D01*
X0449640Y0314054D01*
X0449744Y0313941D01*
X0449844Y0313825D01*
X0449942Y0313707D01*
X0450036Y0313586D01*
X0450127Y0313463D01*
X0450215Y0313337D01*
X0450299Y0313209D01*
X0450381Y0313079D01*
X0450458Y0312947D01*
X0450533Y0312813D01*
X0450604Y0312677D01*
X0450671Y0312539D01*
X0450735Y0312399D01*
X0450795Y0312258D01*
X0450851Y0312116D01*
X0450904Y0311972D01*
X0450953Y0311826D01*
X0450998Y0311680D01*
X0451039Y0311532D01*
X0451076Y0311384D01*
X0451110Y0311234D01*
X0451140Y0311083D01*
X0451165Y0310932D01*
X0451187Y0310781D01*
X0451205Y0310628D01*
X0451219Y0310476D01*
X0451229Y0310323D01*
X0451235Y0310169D01*
X0451237Y0310016D01*
X0451235Y0309863D01*
X0451229Y0309709D01*
X0451219Y0309556D01*
X0451205Y0309404D01*
X0451187Y0309251D01*
X0451165Y0309100D01*
X0451140Y0308949D01*
X0451110Y0308798D01*
X0451076Y0308648D01*
X0451039Y0308500D01*
X0450998Y0308352D01*
X0450953Y0308206D01*
X0450904Y0308060D01*
X0450851Y0307916D01*
X0450795Y0307774D01*
X0450735Y0307633D01*
X0450671Y0307493D01*
X0450604Y0307355D01*
X0450533Y0307219D01*
X0450458Y0307085D01*
X0450381Y0306953D01*
X0450299Y0306823D01*
X0450215Y0306695D01*
X0450127Y0306569D01*
X0450036Y0306446D01*
X0449942Y0306325D01*
X0449844Y0306207D01*
X0449744Y0306091D01*
X0449640Y0305978D01*
X0449534Y0305867D01*
X0449425Y0305759D01*
X0449313Y0305654D01*
X0449199Y0305553D01*
X0449081Y0305454D01*
X0448962Y0305358D01*
X0448840Y0305265D01*
X0448715Y0305176D01*
X0448588Y0305089D01*
X0448459Y0305007D01*
X0448328Y0304927D01*
X0448195Y0304851D01*
X0448060Y0304778D01*
X0447923Y0304709D01*
X0447784Y0304644D01*
X0447644Y0304582D01*
X0447502Y0304524D01*
X0447359Y0304469D01*
X0447214Y0304418D01*
X0447068Y0304371D01*
X0446921Y0304328D01*
X0446773Y0304289D01*
X0446624Y0304253D01*
X0446474Y0304222D01*
X0446323Y0304194D01*
X0446172Y0304170D01*
X0446019Y0304150D01*
X0445867Y0304134D01*
X0445714Y0304122D01*
X0445561Y0304114D01*
X0445408Y0304110D01*
X0445254Y0304110D01*
X0445101Y0304114D01*
X0444948Y0304122D01*
X0444795Y0304134D01*
X0444643Y0304150D01*
X0444490Y0304170D01*
X0444339Y0304194D01*
X0444188Y0304222D01*
X0444038Y0304253D01*
X0443889Y0304289D01*
X0443741Y0304328D01*
X0443594Y0304371D01*
X0443448Y0304418D01*
X0443303Y0304469D01*
X0443160Y0304524D01*
X0443018Y0304582D01*
X0442878Y0304644D01*
X0442739Y0304709D01*
X0442602Y0304778D01*
X0442467Y0304851D01*
X0442334Y0304927D01*
X0442203Y0305007D01*
X0442074Y0305089D01*
X0441947Y0305176D01*
X0441822Y0305265D01*
X0441700Y0305358D01*
X0441581Y0305454D01*
X0441463Y0305553D01*
X0441349Y0305654D01*
X0441237Y0305759D01*
X0441128Y0305867D01*
X0441022Y0305978D01*
X0440918Y0306091D01*
X0440818Y0306207D01*
X0440720Y0306325D01*
X0440626Y0306446D01*
X0440535Y0306569D01*
X0440447Y0306695D01*
X0440363Y0306823D01*
X0440281Y0306953D01*
X0440204Y0307085D01*
X0440129Y0307219D01*
X0440058Y0307355D01*
X0439991Y0307493D01*
X0439927Y0307633D01*
X0439867Y0307774D01*
X0439811Y0307916D01*
X0439758Y0308060D01*
X0439709Y0308206D01*
X0439664Y0308352D01*
X0439623Y0308500D01*
X0439586Y0308648D01*
X0439552Y0308798D01*
X0439522Y0308949D01*
X0439497Y0309100D01*
X0439475Y0309251D01*
X0439457Y0309404D01*
X0439443Y0309556D01*
X0439433Y0309709D01*
X0439427Y0309863D01*
X0439425Y0310016D01*
X0429740Y0326039D02*
X0429740Y0060449D01*
X0807850Y0060449D01*
X0807850Y0326039D01*
X0429740Y0326039D01*
X0429740Y0379346D02*
X0429740Y0023047D01*
X0439425Y0075606D02*
X0439427Y0075759D01*
X0439433Y0075913D01*
X0439443Y0076066D01*
X0439457Y0076218D01*
X0439475Y0076371D01*
X0439497Y0076522D01*
X0439522Y0076673D01*
X0439552Y0076824D01*
X0439586Y0076974D01*
X0439623Y0077122D01*
X0439664Y0077270D01*
X0439709Y0077416D01*
X0439758Y0077562D01*
X0439811Y0077706D01*
X0439867Y0077848D01*
X0439927Y0077989D01*
X0439991Y0078129D01*
X0440058Y0078267D01*
X0440129Y0078403D01*
X0440204Y0078537D01*
X0440281Y0078669D01*
X0440363Y0078799D01*
X0440447Y0078927D01*
X0440535Y0079053D01*
X0440626Y0079176D01*
X0440720Y0079297D01*
X0440818Y0079415D01*
X0440918Y0079531D01*
X0441022Y0079644D01*
X0441128Y0079755D01*
X0441237Y0079863D01*
X0441349Y0079968D01*
X0441463Y0080069D01*
X0441581Y0080168D01*
X0441700Y0080264D01*
X0441822Y0080357D01*
X0441947Y0080446D01*
X0442074Y0080533D01*
X0442203Y0080615D01*
X0442334Y0080695D01*
X0442467Y0080771D01*
X0442602Y0080844D01*
X0442739Y0080913D01*
X0442878Y0080978D01*
X0443018Y0081040D01*
X0443160Y0081098D01*
X0443303Y0081153D01*
X0443448Y0081204D01*
X0443594Y0081251D01*
X0443741Y0081294D01*
X0443889Y0081333D01*
X0444038Y0081369D01*
X0444188Y0081400D01*
X0444339Y0081428D01*
X0444490Y0081452D01*
X0444643Y0081472D01*
X0444795Y0081488D01*
X0444948Y0081500D01*
X0445101Y0081508D01*
X0445254Y0081512D01*
X0445408Y0081512D01*
X0445561Y0081508D01*
X0445714Y0081500D01*
X0445867Y0081488D01*
X0446019Y0081472D01*
X0446172Y0081452D01*
X0446323Y0081428D01*
X0446474Y0081400D01*
X0446624Y0081369D01*
X0446773Y0081333D01*
X0446921Y0081294D01*
X0447068Y0081251D01*
X0447214Y0081204D01*
X0447359Y0081153D01*
X0447502Y0081098D01*
X0447644Y0081040D01*
X0447784Y0080978D01*
X0447923Y0080913D01*
X0448060Y0080844D01*
X0448195Y0080771D01*
X0448328Y0080695D01*
X0448459Y0080615D01*
X0448588Y0080533D01*
X0448715Y0080446D01*
X0448840Y0080357D01*
X0448962Y0080264D01*
X0449081Y0080168D01*
X0449199Y0080069D01*
X0449313Y0079968D01*
X0449425Y0079863D01*
X0449534Y0079755D01*
X0449640Y0079644D01*
X0449744Y0079531D01*
X0449844Y0079415D01*
X0449942Y0079297D01*
X0450036Y0079176D01*
X0450127Y0079053D01*
X0450215Y0078927D01*
X0450299Y0078799D01*
X0450381Y0078669D01*
X0450458Y0078537D01*
X0450533Y0078403D01*
X0450604Y0078267D01*
X0450671Y0078129D01*
X0450735Y0077989D01*
X0450795Y0077848D01*
X0450851Y0077706D01*
X0450904Y0077562D01*
X0450953Y0077416D01*
X0450998Y0077270D01*
X0451039Y0077122D01*
X0451076Y0076974D01*
X0451110Y0076824D01*
X0451140Y0076673D01*
X0451165Y0076522D01*
X0451187Y0076371D01*
X0451205Y0076218D01*
X0451219Y0076066D01*
X0451229Y0075913D01*
X0451235Y0075759D01*
X0451237Y0075606D01*
X0451235Y0075453D01*
X0451229Y0075299D01*
X0451219Y0075146D01*
X0451205Y0074994D01*
X0451187Y0074841D01*
X0451165Y0074690D01*
X0451140Y0074539D01*
X0451110Y0074388D01*
X0451076Y0074238D01*
X0451039Y0074090D01*
X0450998Y0073942D01*
X0450953Y0073796D01*
X0450904Y0073650D01*
X0450851Y0073506D01*
X0450795Y0073364D01*
X0450735Y0073223D01*
X0450671Y0073083D01*
X0450604Y0072945D01*
X0450533Y0072809D01*
X0450458Y0072675D01*
X0450381Y0072543D01*
X0450299Y0072413D01*
X0450215Y0072285D01*
X0450127Y0072159D01*
X0450036Y0072036D01*
X0449942Y0071915D01*
X0449844Y0071797D01*
X0449744Y0071681D01*
X0449640Y0071568D01*
X0449534Y0071457D01*
X0449425Y0071349D01*
X0449313Y0071244D01*
X0449199Y0071143D01*
X0449081Y0071044D01*
X0448962Y0070948D01*
X0448840Y0070855D01*
X0448715Y0070766D01*
X0448588Y0070679D01*
X0448459Y0070597D01*
X0448328Y0070517D01*
X0448195Y0070441D01*
X0448060Y0070368D01*
X0447923Y0070299D01*
X0447784Y0070234D01*
X0447644Y0070172D01*
X0447502Y0070114D01*
X0447359Y0070059D01*
X0447214Y0070008D01*
X0447068Y0069961D01*
X0446921Y0069918D01*
X0446773Y0069879D01*
X0446624Y0069843D01*
X0446474Y0069812D01*
X0446323Y0069784D01*
X0446172Y0069760D01*
X0446019Y0069740D01*
X0445867Y0069724D01*
X0445714Y0069712D01*
X0445561Y0069704D01*
X0445408Y0069700D01*
X0445254Y0069700D01*
X0445101Y0069704D01*
X0444948Y0069712D01*
X0444795Y0069724D01*
X0444643Y0069740D01*
X0444490Y0069760D01*
X0444339Y0069784D01*
X0444188Y0069812D01*
X0444038Y0069843D01*
X0443889Y0069879D01*
X0443741Y0069918D01*
X0443594Y0069961D01*
X0443448Y0070008D01*
X0443303Y0070059D01*
X0443160Y0070114D01*
X0443018Y0070172D01*
X0442878Y0070234D01*
X0442739Y0070299D01*
X0442602Y0070368D01*
X0442467Y0070441D01*
X0442334Y0070517D01*
X0442203Y0070597D01*
X0442074Y0070679D01*
X0441947Y0070766D01*
X0441822Y0070855D01*
X0441700Y0070948D01*
X0441581Y0071044D01*
X0441463Y0071143D01*
X0441349Y0071244D01*
X0441237Y0071349D01*
X0441128Y0071457D01*
X0441022Y0071568D01*
X0440918Y0071681D01*
X0440818Y0071797D01*
X0440720Y0071915D01*
X0440626Y0072036D01*
X0440535Y0072159D01*
X0440447Y0072285D01*
X0440363Y0072413D01*
X0440281Y0072543D01*
X0440204Y0072675D01*
X0440129Y0072809D01*
X0440058Y0072945D01*
X0439991Y0073083D01*
X0439927Y0073223D01*
X0439867Y0073364D01*
X0439811Y0073506D01*
X0439758Y0073650D01*
X0439709Y0073796D01*
X0439664Y0073942D01*
X0439623Y0074090D01*
X0439586Y0074238D01*
X0439552Y0074388D01*
X0439522Y0074539D01*
X0439497Y0074690D01*
X0439475Y0074841D01*
X0439457Y0074994D01*
X0439443Y0075146D01*
X0439433Y0075299D01*
X0439427Y0075453D01*
X0439425Y0075606D01*
X0352969Y0113598D02*
X0352971Y0113791D01*
X0352978Y0113984D01*
X0352990Y0114177D01*
X0353007Y0114370D01*
X0353028Y0114562D01*
X0353054Y0114753D01*
X0353085Y0114944D01*
X0353120Y0115134D01*
X0353160Y0115323D01*
X0353205Y0115511D01*
X0353254Y0115698D01*
X0353308Y0115884D01*
X0353366Y0116068D01*
X0353429Y0116251D01*
X0353497Y0116432D01*
X0353568Y0116611D01*
X0353645Y0116789D01*
X0353725Y0116965D01*
X0353810Y0117138D01*
X0353899Y0117310D01*
X0353992Y0117479D01*
X0354089Y0117646D01*
X0354191Y0117811D01*
X0354296Y0117973D01*
X0354405Y0118132D01*
X0354519Y0118289D01*
X0354636Y0118442D01*
X0354756Y0118593D01*
X0354881Y0118741D01*
X0355009Y0118886D01*
X0355140Y0119027D01*
X0355275Y0119166D01*
X0355414Y0119301D01*
X0355555Y0119432D01*
X0355700Y0119560D01*
X0355848Y0119685D01*
X0355999Y0119805D01*
X0356152Y0119922D01*
X0356309Y0120036D01*
X0356468Y0120145D01*
X0356630Y0120250D01*
X0356795Y0120352D01*
X0356962Y0120449D01*
X0357131Y0120542D01*
X0357303Y0120631D01*
X0357476Y0120716D01*
X0357652Y0120796D01*
X0357830Y0120873D01*
X0358009Y0120944D01*
X0358190Y0121012D01*
X0358373Y0121075D01*
X0358557Y0121133D01*
X0358743Y0121187D01*
X0358930Y0121236D01*
X0359118Y0121281D01*
X0359307Y0121321D01*
X0359497Y0121356D01*
X0359688Y0121387D01*
X0359879Y0121413D01*
X0360071Y0121434D01*
X0360264Y0121451D01*
X0360457Y0121463D01*
X0360650Y0121470D01*
X0360843Y0121472D01*
X0361036Y0121470D01*
X0361229Y0121463D01*
X0361422Y0121451D01*
X0361615Y0121434D01*
X0361807Y0121413D01*
X0361998Y0121387D01*
X0362189Y0121356D01*
X0362379Y0121321D01*
X0362568Y0121281D01*
X0362756Y0121236D01*
X0362943Y0121187D01*
X0363129Y0121133D01*
X0363313Y0121075D01*
X0363496Y0121012D01*
X0363677Y0120944D01*
X0363856Y0120873D01*
X0364034Y0120796D01*
X0364210Y0120716D01*
X0364383Y0120631D01*
X0364555Y0120542D01*
X0364724Y0120449D01*
X0364891Y0120352D01*
X0365056Y0120250D01*
X0365218Y0120145D01*
X0365377Y0120036D01*
X0365534Y0119922D01*
X0365687Y0119805D01*
X0365838Y0119685D01*
X0365986Y0119560D01*
X0366131Y0119432D01*
X0366272Y0119301D01*
X0366411Y0119166D01*
X0366546Y0119027D01*
X0366677Y0118886D01*
X0366805Y0118741D01*
X0366930Y0118593D01*
X0367050Y0118442D01*
X0367167Y0118289D01*
X0367281Y0118132D01*
X0367390Y0117973D01*
X0367495Y0117811D01*
X0367597Y0117646D01*
X0367694Y0117479D01*
X0367787Y0117310D01*
X0367876Y0117138D01*
X0367961Y0116965D01*
X0368041Y0116789D01*
X0368118Y0116611D01*
X0368189Y0116432D01*
X0368257Y0116251D01*
X0368320Y0116068D01*
X0368378Y0115884D01*
X0368432Y0115698D01*
X0368481Y0115511D01*
X0368526Y0115323D01*
X0368566Y0115134D01*
X0368601Y0114944D01*
X0368632Y0114753D01*
X0368658Y0114562D01*
X0368679Y0114370D01*
X0368696Y0114177D01*
X0368708Y0113984D01*
X0368715Y0113791D01*
X0368717Y0113598D01*
X0368715Y0113405D01*
X0368708Y0113212D01*
X0368696Y0113019D01*
X0368679Y0112826D01*
X0368658Y0112634D01*
X0368632Y0112443D01*
X0368601Y0112252D01*
X0368566Y0112062D01*
X0368526Y0111873D01*
X0368481Y0111685D01*
X0368432Y0111498D01*
X0368378Y0111312D01*
X0368320Y0111128D01*
X0368257Y0110945D01*
X0368189Y0110764D01*
X0368118Y0110585D01*
X0368041Y0110407D01*
X0367961Y0110231D01*
X0367876Y0110058D01*
X0367787Y0109886D01*
X0367694Y0109717D01*
X0367597Y0109550D01*
X0367495Y0109385D01*
X0367390Y0109223D01*
X0367281Y0109064D01*
X0367167Y0108907D01*
X0367050Y0108754D01*
X0366930Y0108603D01*
X0366805Y0108455D01*
X0366677Y0108310D01*
X0366546Y0108169D01*
X0366411Y0108030D01*
X0366272Y0107895D01*
X0366131Y0107764D01*
X0365986Y0107636D01*
X0365838Y0107511D01*
X0365687Y0107391D01*
X0365534Y0107274D01*
X0365377Y0107160D01*
X0365218Y0107051D01*
X0365056Y0106946D01*
X0364891Y0106844D01*
X0364724Y0106747D01*
X0364555Y0106654D01*
X0364383Y0106565D01*
X0364210Y0106480D01*
X0364034Y0106400D01*
X0363856Y0106323D01*
X0363677Y0106252D01*
X0363496Y0106184D01*
X0363313Y0106121D01*
X0363129Y0106063D01*
X0362943Y0106009D01*
X0362756Y0105960D01*
X0362568Y0105915D01*
X0362379Y0105875D01*
X0362189Y0105840D01*
X0361998Y0105809D01*
X0361807Y0105783D01*
X0361615Y0105762D01*
X0361422Y0105745D01*
X0361229Y0105733D01*
X0361036Y0105726D01*
X0360843Y0105724D01*
X0360650Y0105726D01*
X0360457Y0105733D01*
X0360264Y0105745D01*
X0360071Y0105762D01*
X0359879Y0105783D01*
X0359688Y0105809D01*
X0359497Y0105840D01*
X0359307Y0105875D01*
X0359118Y0105915D01*
X0358930Y0105960D01*
X0358743Y0106009D01*
X0358557Y0106063D01*
X0358373Y0106121D01*
X0358190Y0106184D01*
X0358009Y0106252D01*
X0357830Y0106323D01*
X0357652Y0106400D01*
X0357476Y0106480D01*
X0357303Y0106565D01*
X0357131Y0106654D01*
X0356962Y0106747D01*
X0356795Y0106844D01*
X0356630Y0106946D01*
X0356468Y0107051D01*
X0356309Y0107160D01*
X0356152Y0107274D01*
X0355999Y0107391D01*
X0355848Y0107511D01*
X0355700Y0107636D01*
X0355555Y0107764D01*
X0355414Y0107895D01*
X0355275Y0108030D01*
X0355140Y0108169D01*
X0355009Y0108310D01*
X0354881Y0108455D01*
X0354756Y0108603D01*
X0354636Y0108754D01*
X0354519Y0108907D01*
X0354405Y0109064D01*
X0354296Y0109223D01*
X0354191Y0109385D01*
X0354089Y0109550D01*
X0353992Y0109717D01*
X0353899Y0109886D01*
X0353810Y0110058D01*
X0353725Y0110231D01*
X0353645Y0110407D01*
X0353568Y0110585D01*
X0353497Y0110764D01*
X0353429Y0110945D01*
X0353366Y0111128D01*
X0353308Y0111312D01*
X0353254Y0111498D01*
X0353205Y0111685D01*
X0353160Y0111873D01*
X0353120Y0112062D01*
X0353085Y0112252D01*
X0353054Y0112443D01*
X0353028Y0112634D01*
X0353007Y0112826D01*
X0352990Y0113019D01*
X0352978Y0113212D01*
X0352971Y0113405D01*
X0352969Y0113598D01*
X0382496Y0160843D02*
X0382498Y0161036D01*
X0382505Y0161229D01*
X0382517Y0161422D01*
X0382534Y0161615D01*
X0382555Y0161807D01*
X0382581Y0161998D01*
X0382612Y0162189D01*
X0382647Y0162379D01*
X0382687Y0162568D01*
X0382732Y0162756D01*
X0382781Y0162943D01*
X0382835Y0163129D01*
X0382893Y0163313D01*
X0382956Y0163496D01*
X0383024Y0163677D01*
X0383095Y0163856D01*
X0383172Y0164034D01*
X0383252Y0164210D01*
X0383337Y0164383D01*
X0383426Y0164555D01*
X0383519Y0164724D01*
X0383616Y0164891D01*
X0383718Y0165056D01*
X0383823Y0165218D01*
X0383932Y0165377D01*
X0384046Y0165534D01*
X0384163Y0165687D01*
X0384283Y0165838D01*
X0384408Y0165986D01*
X0384536Y0166131D01*
X0384667Y0166272D01*
X0384802Y0166411D01*
X0384941Y0166546D01*
X0385082Y0166677D01*
X0385227Y0166805D01*
X0385375Y0166930D01*
X0385526Y0167050D01*
X0385679Y0167167D01*
X0385836Y0167281D01*
X0385995Y0167390D01*
X0386157Y0167495D01*
X0386322Y0167597D01*
X0386489Y0167694D01*
X0386658Y0167787D01*
X0386830Y0167876D01*
X0387003Y0167961D01*
X0387179Y0168041D01*
X0387357Y0168118D01*
X0387536Y0168189D01*
X0387717Y0168257D01*
X0387900Y0168320D01*
X0388084Y0168378D01*
X0388270Y0168432D01*
X0388457Y0168481D01*
X0388645Y0168526D01*
X0388834Y0168566D01*
X0389024Y0168601D01*
X0389215Y0168632D01*
X0389406Y0168658D01*
X0389598Y0168679D01*
X0389791Y0168696D01*
X0389984Y0168708D01*
X0390177Y0168715D01*
X0390370Y0168717D01*
X0390563Y0168715D01*
X0390756Y0168708D01*
X0390949Y0168696D01*
X0391142Y0168679D01*
X0391334Y0168658D01*
X0391525Y0168632D01*
X0391716Y0168601D01*
X0391906Y0168566D01*
X0392095Y0168526D01*
X0392283Y0168481D01*
X0392470Y0168432D01*
X0392656Y0168378D01*
X0392840Y0168320D01*
X0393023Y0168257D01*
X0393204Y0168189D01*
X0393383Y0168118D01*
X0393561Y0168041D01*
X0393737Y0167961D01*
X0393910Y0167876D01*
X0394082Y0167787D01*
X0394251Y0167694D01*
X0394418Y0167597D01*
X0394583Y0167495D01*
X0394745Y0167390D01*
X0394904Y0167281D01*
X0395061Y0167167D01*
X0395214Y0167050D01*
X0395365Y0166930D01*
X0395513Y0166805D01*
X0395658Y0166677D01*
X0395799Y0166546D01*
X0395938Y0166411D01*
X0396073Y0166272D01*
X0396204Y0166131D01*
X0396332Y0165986D01*
X0396457Y0165838D01*
X0396577Y0165687D01*
X0396694Y0165534D01*
X0396808Y0165377D01*
X0396917Y0165218D01*
X0397022Y0165056D01*
X0397124Y0164891D01*
X0397221Y0164724D01*
X0397314Y0164555D01*
X0397403Y0164383D01*
X0397488Y0164210D01*
X0397568Y0164034D01*
X0397645Y0163856D01*
X0397716Y0163677D01*
X0397784Y0163496D01*
X0397847Y0163313D01*
X0397905Y0163129D01*
X0397959Y0162943D01*
X0398008Y0162756D01*
X0398053Y0162568D01*
X0398093Y0162379D01*
X0398128Y0162189D01*
X0398159Y0161998D01*
X0398185Y0161807D01*
X0398206Y0161615D01*
X0398223Y0161422D01*
X0398235Y0161229D01*
X0398242Y0161036D01*
X0398244Y0160843D01*
X0398242Y0160650D01*
X0398235Y0160457D01*
X0398223Y0160264D01*
X0398206Y0160071D01*
X0398185Y0159879D01*
X0398159Y0159688D01*
X0398128Y0159497D01*
X0398093Y0159307D01*
X0398053Y0159118D01*
X0398008Y0158930D01*
X0397959Y0158743D01*
X0397905Y0158557D01*
X0397847Y0158373D01*
X0397784Y0158190D01*
X0397716Y0158009D01*
X0397645Y0157830D01*
X0397568Y0157652D01*
X0397488Y0157476D01*
X0397403Y0157303D01*
X0397314Y0157131D01*
X0397221Y0156962D01*
X0397124Y0156795D01*
X0397022Y0156630D01*
X0396917Y0156468D01*
X0396808Y0156309D01*
X0396694Y0156152D01*
X0396577Y0155999D01*
X0396457Y0155848D01*
X0396332Y0155700D01*
X0396204Y0155555D01*
X0396073Y0155414D01*
X0395938Y0155275D01*
X0395799Y0155140D01*
X0395658Y0155009D01*
X0395513Y0154881D01*
X0395365Y0154756D01*
X0395214Y0154636D01*
X0395061Y0154519D01*
X0394904Y0154405D01*
X0394745Y0154296D01*
X0394583Y0154191D01*
X0394418Y0154089D01*
X0394251Y0153992D01*
X0394082Y0153899D01*
X0393910Y0153810D01*
X0393737Y0153725D01*
X0393561Y0153645D01*
X0393383Y0153568D01*
X0393204Y0153497D01*
X0393023Y0153429D01*
X0392840Y0153366D01*
X0392656Y0153308D01*
X0392470Y0153254D01*
X0392283Y0153205D01*
X0392095Y0153160D01*
X0391906Y0153120D01*
X0391716Y0153085D01*
X0391525Y0153054D01*
X0391334Y0153028D01*
X0391142Y0153007D01*
X0390949Y0152990D01*
X0390756Y0152978D01*
X0390563Y0152971D01*
X0390370Y0152969D01*
X0390177Y0152971D01*
X0389984Y0152978D01*
X0389791Y0152990D01*
X0389598Y0153007D01*
X0389406Y0153028D01*
X0389215Y0153054D01*
X0389024Y0153085D01*
X0388834Y0153120D01*
X0388645Y0153160D01*
X0388457Y0153205D01*
X0388270Y0153254D01*
X0388084Y0153308D01*
X0387900Y0153366D01*
X0387717Y0153429D01*
X0387536Y0153497D01*
X0387357Y0153568D01*
X0387179Y0153645D01*
X0387003Y0153725D01*
X0386830Y0153810D01*
X0386658Y0153899D01*
X0386489Y0153992D01*
X0386322Y0154089D01*
X0386157Y0154191D01*
X0385995Y0154296D01*
X0385836Y0154405D01*
X0385679Y0154519D01*
X0385526Y0154636D01*
X0385375Y0154756D01*
X0385227Y0154881D01*
X0385082Y0155009D01*
X0384941Y0155140D01*
X0384802Y0155275D01*
X0384667Y0155414D01*
X0384536Y0155555D01*
X0384408Y0155700D01*
X0384283Y0155848D01*
X0384163Y0155999D01*
X0384046Y0156152D01*
X0383932Y0156309D01*
X0383823Y0156468D01*
X0383718Y0156630D01*
X0383616Y0156795D01*
X0383519Y0156962D01*
X0383426Y0157131D01*
X0383337Y0157303D01*
X0383252Y0157476D01*
X0383172Y0157652D01*
X0383095Y0157830D01*
X0383024Y0158009D01*
X0382956Y0158190D01*
X0382893Y0158373D01*
X0382835Y0158557D01*
X0382781Y0158743D01*
X0382732Y0158930D01*
X0382687Y0159118D01*
X0382647Y0159307D01*
X0382612Y0159497D01*
X0382581Y0159688D01*
X0382555Y0159879D01*
X0382534Y0160071D01*
X0382517Y0160264D01*
X0382505Y0160457D01*
X0382498Y0160650D01*
X0382496Y0160843D01*
X0476984Y0172654D02*
X0476984Y0271079D01*
X0476986Y0271203D01*
X0476992Y0271326D01*
X0477001Y0271450D01*
X0477015Y0271572D01*
X0477032Y0271695D01*
X0477054Y0271817D01*
X0477079Y0271938D01*
X0477108Y0272058D01*
X0477140Y0272177D01*
X0477177Y0272296D01*
X0477217Y0272413D01*
X0477260Y0272528D01*
X0477308Y0272643D01*
X0477359Y0272755D01*
X0477413Y0272866D01*
X0477471Y0272976D01*
X0477532Y0273083D01*
X0477597Y0273189D01*
X0477665Y0273292D01*
X0477736Y0273393D01*
X0477810Y0273492D01*
X0477887Y0273589D01*
X0477968Y0273683D01*
X0478051Y0273774D01*
X0478137Y0273863D01*
X0478226Y0273949D01*
X0478317Y0274032D01*
X0478411Y0274113D01*
X0478508Y0274190D01*
X0478607Y0274264D01*
X0478708Y0274335D01*
X0478811Y0274403D01*
X0478917Y0274468D01*
X0479024Y0274529D01*
X0479134Y0274587D01*
X0479245Y0274641D01*
X0479357Y0274692D01*
X0479472Y0274740D01*
X0479587Y0274783D01*
X0479704Y0274823D01*
X0479823Y0274860D01*
X0479942Y0274892D01*
X0480062Y0274921D01*
X0480183Y0274946D01*
X0480305Y0274968D01*
X0480428Y0274985D01*
X0480550Y0274999D01*
X0480674Y0275008D01*
X0480797Y0275014D01*
X0480921Y0275016D01*
X0756512Y0275016D01*
X0756636Y0275014D01*
X0756759Y0275008D01*
X0756883Y0274999D01*
X0757005Y0274985D01*
X0757128Y0274968D01*
X0757250Y0274946D01*
X0757371Y0274921D01*
X0757491Y0274892D01*
X0757610Y0274860D01*
X0757729Y0274823D01*
X0757846Y0274783D01*
X0757961Y0274740D01*
X0758076Y0274692D01*
X0758188Y0274641D01*
X0758299Y0274587D01*
X0758409Y0274529D01*
X0758516Y0274468D01*
X0758622Y0274403D01*
X0758725Y0274335D01*
X0758826Y0274264D01*
X0758925Y0274190D01*
X0759022Y0274113D01*
X0759116Y0274032D01*
X0759207Y0273949D01*
X0759296Y0273863D01*
X0759382Y0273774D01*
X0759465Y0273683D01*
X0759546Y0273589D01*
X0759623Y0273492D01*
X0759697Y0273393D01*
X0759768Y0273292D01*
X0759836Y0273189D01*
X0759901Y0273083D01*
X0759962Y0272976D01*
X0760020Y0272866D01*
X0760074Y0272755D01*
X0760125Y0272643D01*
X0760173Y0272528D01*
X0760216Y0272413D01*
X0760256Y0272296D01*
X0760293Y0272177D01*
X0760325Y0272058D01*
X0760354Y0271938D01*
X0760379Y0271817D01*
X0760401Y0271695D01*
X0760418Y0271572D01*
X0760432Y0271450D01*
X0760441Y0271326D01*
X0760447Y0271203D01*
X0760449Y0271079D01*
X0760449Y0172654D01*
X0760447Y0172530D01*
X0760441Y0172407D01*
X0760432Y0172283D01*
X0760418Y0172161D01*
X0760401Y0172038D01*
X0760379Y0171916D01*
X0760354Y0171795D01*
X0760325Y0171675D01*
X0760293Y0171556D01*
X0760256Y0171437D01*
X0760216Y0171320D01*
X0760173Y0171205D01*
X0760125Y0171090D01*
X0760074Y0170978D01*
X0760020Y0170867D01*
X0759962Y0170757D01*
X0759901Y0170650D01*
X0759836Y0170544D01*
X0759768Y0170441D01*
X0759697Y0170340D01*
X0759623Y0170241D01*
X0759546Y0170144D01*
X0759465Y0170050D01*
X0759382Y0169959D01*
X0759296Y0169870D01*
X0759207Y0169784D01*
X0759116Y0169701D01*
X0759022Y0169620D01*
X0758925Y0169543D01*
X0758826Y0169469D01*
X0758725Y0169398D01*
X0758622Y0169330D01*
X0758516Y0169265D01*
X0758409Y0169204D01*
X0758299Y0169146D01*
X0758188Y0169092D01*
X0758076Y0169041D01*
X0757961Y0168993D01*
X0757846Y0168950D01*
X0757729Y0168910D01*
X0757610Y0168873D01*
X0757491Y0168841D01*
X0757371Y0168812D01*
X0757250Y0168787D01*
X0757128Y0168765D01*
X0757005Y0168748D01*
X0756883Y0168734D01*
X0756759Y0168725D01*
X0756636Y0168719D01*
X0756512Y0168717D01*
X0480921Y0168717D01*
X0480797Y0168719D01*
X0480674Y0168725D01*
X0480550Y0168734D01*
X0480428Y0168748D01*
X0480305Y0168765D01*
X0480183Y0168787D01*
X0480062Y0168812D01*
X0479942Y0168841D01*
X0479823Y0168873D01*
X0479704Y0168910D01*
X0479587Y0168950D01*
X0479472Y0168993D01*
X0479357Y0169041D01*
X0479245Y0169092D01*
X0479134Y0169146D01*
X0479024Y0169204D01*
X0478917Y0169265D01*
X0478811Y0169330D01*
X0478708Y0169398D01*
X0478607Y0169469D01*
X0478508Y0169543D01*
X0478411Y0169620D01*
X0478317Y0169701D01*
X0478226Y0169784D01*
X0478137Y0169870D01*
X0478051Y0169959D01*
X0477968Y0170050D01*
X0477887Y0170144D01*
X0477810Y0170241D01*
X0477736Y0170340D01*
X0477665Y0170441D01*
X0477597Y0170544D01*
X0477532Y0170650D01*
X0477471Y0170757D01*
X0477413Y0170867D01*
X0477359Y0170978D01*
X0477308Y0171090D01*
X0477260Y0171205D01*
X0477217Y0171320D01*
X0477177Y0171437D01*
X0477140Y0171556D01*
X0477108Y0171675D01*
X0477079Y0171795D01*
X0477054Y0171916D01*
X0477032Y0172038D01*
X0477015Y0172161D01*
X0477001Y0172283D01*
X0476992Y0172407D01*
X0476986Y0172530D01*
X0476984Y0172654D01*
X0787220Y0075606D02*
X0787222Y0075759D01*
X0787228Y0075913D01*
X0787238Y0076066D01*
X0787252Y0076218D01*
X0787270Y0076371D01*
X0787292Y0076522D01*
X0787317Y0076673D01*
X0787347Y0076824D01*
X0787381Y0076974D01*
X0787418Y0077122D01*
X0787459Y0077270D01*
X0787504Y0077416D01*
X0787553Y0077562D01*
X0787606Y0077706D01*
X0787662Y0077848D01*
X0787722Y0077989D01*
X0787786Y0078129D01*
X0787853Y0078267D01*
X0787924Y0078403D01*
X0787999Y0078537D01*
X0788076Y0078669D01*
X0788158Y0078799D01*
X0788242Y0078927D01*
X0788330Y0079053D01*
X0788421Y0079176D01*
X0788515Y0079297D01*
X0788613Y0079415D01*
X0788713Y0079531D01*
X0788817Y0079644D01*
X0788923Y0079755D01*
X0789032Y0079863D01*
X0789144Y0079968D01*
X0789258Y0080069D01*
X0789376Y0080168D01*
X0789495Y0080264D01*
X0789617Y0080357D01*
X0789742Y0080446D01*
X0789869Y0080533D01*
X0789998Y0080615D01*
X0790129Y0080695D01*
X0790262Y0080771D01*
X0790397Y0080844D01*
X0790534Y0080913D01*
X0790673Y0080978D01*
X0790813Y0081040D01*
X0790955Y0081098D01*
X0791098Y0081153D01*
X0791243Y0081204D01*
X0791389Y0081251D01*
X0791536Y0081294D01*
X0791684Y0081333D01*
X0791833Y0081369D01*
X0791983Y0081400D01*
X0792134Y0081428D01*
X0792285Y0081452D01*
X0792438Y0081472D01*
X0792590Y0081488D01*
X0792743Y0081500D01*
X0792896Y0081508D01*
X0793049Y0081512D01*
X0793203Y0081512D01*
X0793356Y0081508D01*
X0793509Y0081500D01*
X0793662Y0081488D01*
X0793814Y0081472D01*
X0793967Y0081452D01*
X0794118Y0081428D01*
X0794269Y0081400D01*
X0794419Y0081369D01*
X0794568Y0081333D01*
X0794716Y0081294D01*
X0794863Y0081251D01*
X0795009Y0081204D01*
X0795154Y0081153D01*
X0795297Y0081098D01*
X0795439Y0081040D01*
X0795579Y0080978D01*
X0795718Y0080913D01*
X0795855Y0080844D01*
X0795990Y0080771D01*
X0796123Y0080695D01*
X0796254Y0080615D01*
X0796383Y0080533D01*
X0796510Y0080446D01*
X0796635Y0080357D01*
X0796757Y0080264D01*
X0796876Y0080168D01*
X0796994Y0080069D01*
X0797108Y0079968D01*
X0797220Y0079863D01*
X0797329Y0079755D01*
X0797435Y0079644D01*
X0797539Y0079531D01*
X0797639Y0079415D01*
X0797737Y0079297D01*
X0797831Y0079176D01*
X0797922Y0079053D01*
X0798010Y0078927D01*
X0798094Y0078799D01*
X0798176Y0078669D01*
X0798253Y0078537D01*
X0798328Y0078403D01*
X0798399Y0078267D01*
X0798466Y0078129D01*
X0798530Y0077989D01*
X0798590Y0077848D01*
X0798646Y0077706D01*
X0798699Y0077562D01*
X0798748Y0077416D01*
X0798793Y0077270D01*
X0798834Y0077122D01*
X0798871Y0076974D01*
X0798905Y0076824D01*
X0798935Y0076673D01*
X0798960Y0076522D01*
X0798982Y0076371D01*
X0799000Y0076218D01*
X0799014Y0076066D01*
X0799024Y0075913D01*
X0799030Y0075759D01*
X0799032Y0075606D01*
X0799030Y0075453D01*
X0799024Y0075299D01*
X0799014Y0075146D01*
X0799000Y0074994D01*
X0798982Y0074841D01*
X0798960Y0074690D01*
X0798935Y0074539D01*
X0798905Y0074388D01*
X0798871Y0074238D01*
X0798834Y0074090D01*
X0798793Y0073942D01*
X0798748Y0073796D01*
X0798699Y0073650D01*
X0798646Y0073506D01*
X0798590Y0073364D01*
X0798530Y0073223D01*
X0798466Y0073083D01*
X0798399Y0072945D01*
X0798328Y0072809D01*
X0798253Y0072675D01*
X0798176Y0072543D01*
X0798094Y0072413D01*
X0798010Y0072285D01*
X0797922Y0072159D01*
X0797831Y0072036D01*
X0797737Y0071915D01*
X0797639Y0071797D01*
X0797539Y0071681D01*
X0797435Y0071568D01*
X0797329Y0071457D01*
X0797220Y0071349D01*
X0797108Y0071244D01*
X0796994Y0071143D01*
X0796876Y0071044D01*
X0796757Y0070948D01*
X0796635Y0070855D01*
X0796510Y0070766D01*
X0796383Y0070679D01*
X0796254Y0070597D01*
X0796123Y0070517D01*
X0795990Y0070441D01*
X0795855Y0070368D01*
X0795718Y0070299D01*
X0795579Y0070234D01*
X0795439Y0070172D01*
X0795297Y0070114D01*
X0795154Y0070059D01*
X0795009Y0070008D01*
X0794863Y0069961D01*
X0794716Y0069918D01*
X0794568Y0069879D01*
X0794419Y0069843D01*
X0794269Y0069812D01*
X0794118Y0069784D01*
X0793967Y0069760D01*
X0793814Y0069740D01*
X0793662Y0069724D01*
X0793509Y0069712D01*
X0793356Y0069704D01*
X0793203Y0069700D01*
X0793049Y0069700D01*
X0792896Y0069704D01*
X0792743Y0069712D01*
X0792590Y0069724D01*
X0792438Y0069740D01*
X0792285Y0069760D01*
X0792134Y0069784D01*
X0791983Y0069812D01*
X0791833Y0069843D01*
X0791684Y0069879D01*
X0791536Y0069918D01*
X0791389Y0069961D01*
X0791243Y0070008D01*
X0791098Y0070059D01*
X0790955Y0070114D01*
X0790813Y0070172D01*
X0790673Y0070234D01*
X0790534Y0070299D01*
X0790397Y0070368D01*
X0790262Y0070441D01*
X0790129Y0070517D01*
X0789998Y0070597D01*
X0789869Y0070679D01*
X0789742Y0070766D01*
X0789617Y0070855D01*
X0789495Y0070948D01*
X0789376Y0071044D01*
X0789258Y0071143D01*
X0789144Y0071244D01*
X0789032Y0071349D01*
X0788923Y0071457D01*
X0788817Y0071568D01*
X0788713Y0071681D01*
X0788613Y0071797D01*
X0788515Y0071915D01*
X0788421Y0072036D01*
X0788330Y0072159D01*
X0788242Y0072285D01*
X0788158Y0072413D01*
X0788076Y0072543D01*
X0787999Y0072675D01*
X0787924Y0072809D01*
X0787853Y0072945D01*
X0787786Y0073083D01*
X0787722Y0073223D01*
X0787662Y0073364D01*
X0787606Y0073506D01*
X0787553Y0073650D01*
X0787504Y0073796D01*
X0787459Y0073942D01*
X0787418Y0074090D01*
X0787381Y0074238D01*
X0787347Y0074388D01*
X0787317Y0074539D01*
X0787292Y0074690D01*
X0787270Y0074841D01*
X0787252Y0074994D01*
X0787238Y0075146D01*
X0787228Y0075299D01*
X0787222Y0075453D01*
X0787220Y0075606D01*
X0787220Y0310016D02*
X0787222Y0310169D01*
X0787228Y0310323D01*
X0787238Y0310476D01*
X0787252Y0310628D01*
X0787270Y0310781D01*
X0787292Y0310932D01*
X0787317Y0311083D01*
X0787347Y0311234D01*
X0787381Y0311384D01*
X0787418Y0311532D01*
X0787459Y0311680D01*
X0787504Y0311826D01*
X0787553Y0311972D01*
X0787606Y0312116D01*
X0787662Y0312258D01*
X0787722Y0312399D01*
X0787786Y0312539D01*
X0787853Y0312677D01*
X0787924Y0312813D01*
X0787999Y0312947D01*
X0788076Y0313079D01*
X0788158Y0313209D01*
X0788242Y0313337D01*
X0788330Y0313463D01*
X0788421Y0313586D01*
X0788515Y0313707D01*
X0788613Y0313825D01*
X0788713Y0313941D01*
X0788817Y0314054D01*
X0788923Y0314165D01*
X0789032Y0314273D01*
X0789144Y0314378D01*
X0789258Y0314479D01*
X0789376Y0314578D01*
X0789495Y0314674D01*
X0789617Y0314767D01*
X0789742Y0314856D01*
X0789869Y0314943D01*
X0789998Y0315025D01*
X0790129Y0315105D01*
X0790262Y0315181D01*
X0790397Y0315254D01*
X0790534Y0315323D01*
X0790673Y0315388D01*
X0790813Y0315450D01*
X0790955Y0315508D01*
X0791098Y0315563D01*
X0791243Y0315614D01*
X0791389Y0315661D01*
X0791536Y0315704D01*
X0791684Y0315743D01*
X0791833Y0315779D01*
X0791983Y0315810D01*
X0792134Y0315838D01*
X0792285Y0315862D01*
X0792438Y0315882D01*
X0792590Y0315898D01*
X0792743Y0315910D01*
X0792896Y0315918D01*
X0793049Y0315922D01*
X0793203Y0315922D01*
X0793356Y0315918D01*
X0793509Y0315910D01*
X0793662Y0315898D01*
X0793814Y0315882D01*
X0793967Y0315862D01*
X0794118Y0315838D01*
X0794269Y0315810D01*
X0794419Y0315779D01*
X0794568Y0315743D01*
X0794716Y0315704D01*
X0794863Y0315661D01*
X0795009Y0315614D01*
X0795154Y0315563D01*
X0795297Y0315508D01*
X0795439Y0315450D01*
X0795579Y0315388D01*
X0795718Y0315323D01*
X0795855Y0315254D01*
X0795990Y0315181D01*
X0796123Y0315105D01*
X0796254Y0315025D01*
X0796383Y0314943D01*
X0796510Y0314856D01*
X0796635Y0314767D01*
X0796757Y0314674D01*
X0796876Y0314578D01*
X0796994Y0314479D01*
X0797108Y0314378D01*
X0797220Y0314273D01*
X0797329Y0314165D01*
X0797435Y0314054D01*
X0797539Y0313941D01*
X0797639Y0313825D01*
X0797737Y0313707D01*
X0797831Y0313586D01*
X0797922Y0313463D01*
X0798010Y0313337D01*
X0798094Y0313209D01*
X0798176Y0313079D01*
X0798253Y0312947D01*
X0798328Y0312813D01*
X0798399Y0312677D01*
X0798466Y0312539D01*
X0798530Y0312399D01*
X0798590Y0312258D01*
X0798646Y0312116D01*
X0798699Y0311972D01*
X0798748Y0311826D01*
X0798793Y0311680D01*
X0798834Y0311532D01*
X0798871Y0311384D01*
X0798905Y0311234D01*
X0798935Y0311083D01*
X0798960Y0310932D01*
X0798982Y0310781D01*
X0799000Y0310628D01*
X0799014Y0310476D01*
X0799024Y0310323D01*
X0799030Y0310169D01*
X0799032Y0310016D01*
X0799030Y0309863D01*
X0799024Y0309709D01*
X0799014Y0309556D01*
X0799000Y0309404D01*
X0798982Y0309251D01*
X0798960Y0309100D01*
X0798935Y0308949D01*
X0798905Y0308798D01*
X0798871Y0308648D01*
X0798834Y0308500D01*
X0798793Y0308352D01*
X0798748Y0308206D01*
X0798699Y0308060D01*
X0798646Y0307916D01*
X0798590Y0307774D01*
X0798530Y0307633D01*
X0798466Y0307493D01*
X0798399Y0307355D01*
X0798328Y0307219D01*
X0798253Y0307085D01*
X0798176Y0306953D01*
X0798094Y0306823D01*
X0798010Y0306695D01*
X0797922Y0306569D01*
X0797831Y0306446D01*
X0797737Y0306325D01*
X0797639Y0306207D01*
X0797539Y0306091D01*
X0797435Y0305978D01*
X0797329Y0305867D01*
X0797220Y0305759D01*
X0797108Y0305654D01*
X0796994Y0305553D01*
X0796876Y0305454D01*
X0796757Y0305358D01*
X0796635Y0305265D01*
X0796510Y0305176D01*
X0796383Y0305089D01*
X0796254Y0305007D01*
X0796123Y0304927D01*
X0795990Y0304851D01*
X0795855Y0304778D01*
X0795718Y0304709D01*
X0795579Y0304644D01*
X0795439Y0304582D01*
X0795297Y0304524D01*
X0795154Y0304469D01*
X0795009Y0304418D01*
X0794863Y0304371D01*
X0794716Y0304328D01*
X0794568Y0304289D01*
X0794419Y0304253D01*
X0794269Y0304222D01*
X0794118Y0304194D01*
X0793967Y0304170D01*
X0793814Y0304150D01*
X0793662Y0304134D01*
X0793509Y0304122D01*
X0793356Y0304114D01*
X0793203Y0304110D01*
X0793049Y0304110D01*
X0792896Y0304114D01*
X0792743Y0304122D01*
X0792590Y0304134D01*
X0792438Y0304150D01*
X0792285Y0304170D01*
X0792134Y0304194D01*
X0791983Y0304222D01*
X0791833Y0304253D01*
X0791684Y0304289D01*
X0791536Y0304328D01*
X0791389Y0304371D01*
X0791243Y0304418D01*
X0791098Y0304469D01*
X0790955Y0304524D01*
X0790813Y0304582D01*
X0790673Y0304644D01*
X0790534Y0304709D01*
X0790397Y0304778D01*
X0790262Y0304851D01*
X0790129Y0304927D01*
X0789998Y0305007D01*
X0789869Y0305089D01*
X0789742Y0305176D01*
X0789617Y0305265D01*
X0789495Y0305358D01*
X0789376Y0305454D01*
X0789258Y0305553D01*
X0789144Y0305654D01*
X0789032Y0305759D01*
X0788923Y0305867D01*
X0788817Y0305978D01*
X0788713Y0306091D01*
X0788613Y0306207D01*
X0788515Y0306325D01*
X0788421Y0306446D01*
X0788330Y0306569D01*
X0788242Y0306695D01*
X0788158Y0306823D01*
X0788076Y0306953D01*
X0787999Y0307085D01*
X0787924Y0307219D01*
X0787853Y0307355D01*
X0787786Y0307493D01*
X0787722Y0307633D01*
X0787662Y0307774D01*
X0787606Y0307916D01*
X0787553Y0308060D01*
X0787504Y0308206D01*
X0787459Y0308352D01*
X0787418Y0308500D01*
X0787381Y0308648D01*
X0787347Y0308798D01*
X0787317Y0308949D01*
X0787292Y0309100D01*
X0787270Y0309251D01*
X0787252Y0309404D01*
X0787238Y0309556D01*
X0787228Y0309709D01*
X0787222Y0309863D01*
X0787220Y0310016D01*
D11*
X0672654Y0107693D02*
X0672658Y0108012D01*
X0672670Y0108330D01*
X0672689Y0108649D01*
X0672717Y0108966D01*
X0672752Y0109283D01*
X0672795Y0109599D01*
X0672845Y0109914D01*
X0672904Y0110228D01*
X0672970Y0110540D01*
X0673043Y0110850D01*
X0673125Y0111158D01*
X0673213Y0111464D01*
X0673310Y0111768D01*
X0673413Y0112070D01*
X0673525Y0112369D01*
X0673643Y0112665D01*
X0673769Y0112958D01*
X0673901Y0113248D01*
X0674041Y0113534D01*
X0674188Y0113817D01*
X0674342Y0114097D01*
X0674502Y0114372D01*
X0674670Y0114644D01*
X0674844Y0114911D01*
X0675024Y0115174D01*
X0675211Y0115432D01*
X0675404Y0115686D01*
X0675603Y0115935D01*
X0675808Y0116179D01*
X0676020Y0116418D01*
X0676237Y0116652D01*
X0676459Y0116880D01*
X0676687Y0117102D01*
X0676921Y0117319D01*
X0677160Y0117531D01*
X0677404Y0117736D01*
X0677653Y0117935D01*
X0677907Y0118128D01*
X0678165Y0118315D01*
X0678428Y0118495D01*
X0678695Y0118669D01*
X0678967Y0118837D01*
X0679242Y0118997D01*
X0679522Y0119151D01*
X0679805Y0119298D01*
X0680091Y0119438D01*
X0680381Y0119570D01*
X0680674Y0119696D01*
X0680970Y0119814D01*
X0681269Y0119926D01*
X0681571Y0120029D01*
X0681875Y0120126D01*
X0682181Y0120214D01*
X0682489Y0120296D01*
X0682799Y0120369D01*
X0683111Y0120435D01*
X0683425Y0120494D01*
X0683740Y0120544D01*
X0684056Y0120587D01*
X0684373Y0120622D01*
X0684690Y0120650D01*
X0685009Y0120669D01*
X0685327Y0120681D01*
X0685646Y0120685D01*
X0685965Y0120681D01*
X0686283Y0120669D01*
X0686602Y0120650D01*
X0686919Y0120622D01*
X0687236Y0120587D01*
X0687552Y0120544D01*
X0687867Y0120494D01*
X0688181Y0120435D01*
X0688493Y0120369D01*
X0688803Y0120296D01*
X0689111Y0120214D01*
X0689417Y0120126D01*
X0689721Y0120029D01*
X0690023Y0119926D01*
X0690322Y0119814D01*
X0690618Y0119696D01*
X0690911Y0119570D01*
X0691201Y0119438D01*
X0691487Y0119298D01*
X0691770Y0119151D01*
X0692050Y0118997D01*
X0692325Y0118837D01*
X0692597Y0118669D01*
X0692864Y0118495D01*
X0693127Y0118315D01*
X0693385Y0118128D01*
X0693639Y0117935D01*
X0693888Y0117736D01*
X0694132Y0117531D01*
X0694371Y0117319D01*
X0694605Y0117102D01*
X0694833Y0116880D01*
X0695055Y0116652D01*
X0695272Y0116418D01*
X0695484Y0116179D01*
X0695689Y0115935D01*
X0695888Y0115686D01*
X0696081Y0115432D01*
X0696268Y0115174D01*
X0696448Y0114911D01*
X0696622Y0114644D01*
X0696790Y0114372D01*
X0696950Y0114097D01*
X0697104Y0113817D01*
X0697251Y0113534D01*
X0697391Y0113248D01*
X0697523Y0112958D01*
X0697649Y0112665D01*
X0697767Y0112369D01*
X0697879Y0112070D01*
X0697982Y0111768D01*
X0698079Y0111464D01*
X0698167Y0111158D01*
X0698249Y0110850D01*
X0698322Y0110540D01*
X0698388Y0110228D01*
X0698447Y0109914D01*
X0698497Y0109599D01*
X0698540Y0109283D01*
X0698575Y0108966D01*
X0698603Y0108649D01*
X0698622Y0108330D01*
X0698634Y0108012D01*
X0698638Y0107693D01*
X0698634Y0107374D01*
X0698622Y0107056D01*
X0698603Y0106737D01*
X0698575Y0106420D01*
X0698540Y0106103D01*
X0698497Y0105787D01*
X0698447Y0105472D01*
X0698388Y0105158D01*
X0698322Y0104846D01*
X0698249Y0104536D01*
X0698167Y0104228D01*
X0698079Y0103922D01*
X0697982Y0103618D01*
X0697879Y0103316D01*
X0697767Y0103017D01*
X0697649Y0102721D01*
X0697523Y0102428D01*
X0697391Y0102138D01*
X0697251Y0101852D01*
X0697104Y0101569D01*
X0696950Y0101289D01*
X0696790Y0101014D01*
X0696622Y0100742D01*
X0696448Y0100475D01*
X0696268Y0100212D01*
X0696081Y0099954D01*
X0695888Y0099700D01*
X0695689Y0099451D01*
X0695484Y0099207D01*
X0695272Y0098968D01*
X0695055Y0098734D01*
X0694833Y0098506D01*
X0694605Y0098284D01*
X0694371Y0098067D01*
X0694132Y0097855D01*
X0693888Y0097650D01*
X0693639Y0097451D01*
X0693385Y0097258D01*
X0693127Y0097071D01*
X0692864Y0096891D01*
X0692597Y0096717D01*
X0692325Y0096549D01*
X0692050Y0096389D01*
X0691770Y0096235D01*
X0691487Y0096088D01*
X0691201Y0095948D01*
X0690911Y0095816D01*
X0690618Y0095690D01*
X0690322Y0095572D01*
X0690023Y0095460D01*
X0689721Y0095357D01*
X0689417Y0095260D01*
X0689111Y0095172D01*
X0688803Y0095090D01*
X0688493Y0095017D01*
X0688181Y0094951D01*
X0687867Y0094892D01*
X0687552Y0094842D01*
X0687236Y0094799D01*
X0686919Y0094764D01*
X0686602Y0094736D01*
X0686283Y0094717D01*
X0685965Y0094705D01*
X0685646Y0094701D01*
X0685327Y0094705D01*
X0685009Y0094717D01*
X0684690Y0094736D01*
X0684373Y0094764D01*
X0684056Y0094799D01*
X0683740Y0094842D01*
X0683425Y0094892D01*
X0683111Y0094951D01*
X0682799Y0095017D01*
X0682489Y0095090D01*
X0682181Y0095172D01*
X0681875Y0095260D01*
X0681571Y0095357D01*
X0681269Y0095460D01*
X0680970Y0095572D01*
X0680674Y0095690D01*
X0680381Y0095816D01*
X0680091Y0095948D01*
X0679805Y0096088D01*
X0679522Y0096235D01*
X0679242Y0096389D01*
X0678967Y0096549D01*
X0678695Y0096717D01*
X0678428Y0096891D01*
X0678165Y0097071D01*
X0677907Y0097258D01*
X0677653Y0097451D01*
X0677404Y0097650D01*
X0677160Y0097855D01*
X0676921Y0098067D01*
X0676687Y0098284D01*
X0676459Y0098506D01*
X0676237Y0098734D01*
X0676020Y0098968D01*
X0675808Y0099207D01*
X0675603Y0099451D01*
X0675404Y0099700D01*
X0675211Y0099954D01*
X0675024Y0100212D01*
X0674844Y0100475D01*
X0674670Y0100742D01*
X0674502Y0101014D01*
X0674342Y0101289D01*
X0674188Y0101569D01*
X0674041Y0101852D01*
X0673901Y0102138D01*
X0673769Y0102428D01*
X0673643Y0102721D01*
X0673525Y0103017D01*
X0673413Y0103316D01*
X0673310Y0103618D01*
X0673213Y0103922D01*
X0673125Y0104228D01*
X0673043Y0104536D01*
X0672970Y0104846D01*
X0672904Y0105158D01*
X0672845Y0105472D01*
X0672795Y0105787D01*
X0672752Y0106103D01*
X0672717Y0106420D01*
X0672689Y0106737D01*
X0672670Y0107056D01*
X0672658Y0107374D01*
X0672654Y0107693D01*
D12*
X0446551Y0019905D02*
X0442996Y0019905D01*
X0444773Y0019905D02*
X0444773Y0013505D01*
X0440602Y0015282D02*
X0440602Y0019905D01*
X0437047Y0019905D02*
X0437047Y0015282D01*
X0437049Y0015199D01*
X0437055Y0015116D01*
X0437065Y0015033D01*
X0437078Y0014950D01*
X0437096Y0014869D01*
X0437117Y0014788D01*
X0437142Y0014709D01*
X0437171Y0014631D01*
X0437203Y0014554D01*
X0437239Y0014479D01*
X0437278Y0014405D01*
X0437321Y0014334D01*
X0437367Y0014264D01*
X0437417Y0014197D01*
X0437469Y0014132D01*
X0437524Y0014070D01*
X0437583Y0014010D01*
X0437644Y0013953D01*
X0437707Y0013899D01*
X0437773Y0013848D01*
X0437842Y0013801D01*
X0437912Y0013756D01*
X0437985Y0013715D01*
X0438059Y0013678D01*
X0438135Y0013643D01*
X0438213Y0013613D01*
X0438291Y0013586D01*
X0438372Y0013563D01*
X0438453Y0013543D01*
X0438535Y0013528D01*
X0438617Y0013516D01*
X0438700Y0013508D01*
X0438783Y0013504D01*
X0438867Y0013504D01*
X0438950Y0013508D01*
X0439033Y0013516D01*
X0439115Y0013528D01*
X0439197Y0013543D01*
X0439278Y0013563D01*
X0439359Y0013586D01*
X0439437Y0013613D01*
X0439515Y0013643D01*
X0439591Y0013678D01*
X0439665Y0013715D01*
X0439738Y0013756D01*
X0439808Y0013801D01*
X0439877Y0013848D01*
X0439943Y0013899D01*
X0440006Y0013953D01*
X0440067Y0014010D01*
X0440126Y0014070D01*
X0440181Y0014132D01*
X0440233Y0014197D01*
X0440283Y0014264D01*
X0440329Y0014334D01*
X0440372Y0014405D01*
X0440411Y0014479D01*
X0440447Y0014554D01*
X0440479Y0014631D01*
X0440508Y0014709D01*
X0440533Y0014788D01*
X0440554Y0014869D01*
X0440572Y0014950D01*
X0440585Y0015033D01*
X0440595Y0015116D01*
X0440601Y0015199D01*
X0440603Y0015282D01*
X0434542Y0013505D02*
X0433120Y0013505D01*
X0433046Y0013507D01*
X0432971Y0013513D01*
X0432898Y0013523D01*
X0432824Y0013536D01*
X0432752Y0013553D01*
X0432681Y0013575D01*
X0432610Y0013599D01*
X0432542Y0013628D01*
X0432474Y0013660D01*
X0432409Y0013696D01*
X0432346Y0013734D01*
X0432284Y0013777D01*
X0432225Y0013822D01*
X0432168Y0013870D01*
X0432114Y0013921D01*
X0432063Y0013975D01*
X0432015Y0014032D01*
X0431970Y0014091D01*
X0431927Y0014153D01*
X0431889Y0014216D01*
X0431853Y0014281D01*
X0431821Y0014349D01*
X0431792Y0014417D01*
X0431768Y0014488D01*
X0431746Y0014559D01*
X0431729Y0014631D01*
X0431716Y0014705D01*
X0431706Y0014778D01*
X0431700Y0014853D01*
X0431698Y0014927D01*
X0431698Y0018482D01*
X0431700Y0018556D01*
X0431706Y0018631D01*
X0431716Y0018704D01*
X0431729Y0018778D01*
X0431746Y0018850D01*
X0431768Y0018921D01*
X0431792Y0018992D01*
X0431821Y0019060D01*
X0431853Y0019128D01*
X0431889Y0019193D01*
X0431927Y0019256D01*
X0431970Y0019318D01*
X0432015Y0019377D01*
X0432063Y0019433D01*
X0432114Y0019488D01*
X0432168Y0019539D01*
X0432225Y0019587D01*
X0432284Y0019632D01*
X0432346Y0019675D01*
X0432409Y0019713D01*
X0432474Y0019749D01*
X0432542Y0019781D01*
X0432610Y0019810D01*
X0432681Y0019834D01*
X0432752Y0019856D01*
X0432824Y0019873D01*
X0432898Y0019886D01*
X0432971Y0019896D01*
X0433046Y0019902D01*
X0433120Y0019904D01*
X0433120Y0019905D02*
X0434542Y0019905D01*
X0429060Y0015994D02*
X0424793Y0015994D01*
X0422496Y0019905D02*
X0420362Y0013505D01*
X0418229Y0019905D01*
X0420362Y0383583D02*
X0422496Y0389983D01*
X0418229Y0389983D02*
X0420362Y0383583D01*
X0424793Y0386072D02*
X0429060Y0386072D01*
X0431698Y0385006D02*
X0431698Y0388561D01*
X0431700Y0388635D01*
X0431706Y0388710D01*
X0431716Y0388783D01*
X0431729Y0388857D01*
X0431746Y0388929D01*
X0431768Y0389000D01*
X0431792Y0389071D01*
X0431821Y0389139D01*
X0431853Y0389207D01*
X0431889Y0389272D01*
X0431927Y0389335D01*
X0431970Y0389397D01*
X0432015Y0389456D01*
X0432063Y0389512D01*
X0432114Y0389567D01*
X0432168Y0389618D01*
X0432225Y0389666D01*
X0432284Y0389711D01*
X0432346Y0389754D01*
X0432409Y0389792D01*
X0432474Y0389828D01*
X0432542Y0389860D01*
X0432610Y0389889D01*
X0432681Y0389913D01*
X0432752Y0389935D01*
X0432824Y0389952D01*
X0432898Y0389965D01*
X0432971Y0389975D01*
X0433046Y0389981D01*
X0433120Y0389983D01*
X0434542Y0389983D01*
X0437047Y0389983D02*
X0437047Y0385361D01*
X0437049Y0385278D01*
X0437055Y0385195D01*
X0437065Y0385112D01*
X0437078Y0385029D01*
X0437096Y0384948D01*
X0437117Y0384867D01*
X0437142Y0384788D01*
X0437171Y0384710D01*
X0437203Y0384633D01*
X0437239Y0384558D01*
X0437278Y0384484D01*
X0437321Y0384413D01*
X0437367Y0384343D01*
X0437417Y0384276D01*
X0437469Y0384211D01*
X0437524Y0384149D01*
X0437583Y0384089D01*
X0437644Y0384032D01*
X0437707Y0383978D01*
X0437773Y0383927D01*
X0437842Y0383880D01*
X0437912Y0383835D01*
X0437985Y0383794D01*
X0438059Y0383757D01*
X0438135Y0383722D01*
X0438213Y0383692D01*
X0438291Y0383665D01*
X0438372Y0383642D01*
X0438453Y0383622D01*
X0438535Y0383607D01*
X0438617Y0383595D01*
X0438700Y0383587D01*
X0438783Y0383583D01*
X0438867Y0383583D01*
X0438950Y0383587D01*
X0439033Y0383595D01*
X0439115Y0383607D01*
X0439197Y0383622D01*
X0439278Y0383642D01*
X0439359Y0383665D01*
X0439437Y0383692D01*
X0439515Y0383722D01*
X0439591Y0383757D01*
X0439665Y0383794D01*
X0439738Y0383835D01*
X0439808Y0383880D01*
X0439877Y0383927D01*
X0439943Y0383978D01*
X0440006Y0384032D01*
X0440067Y0384089D01*
X0440126Y0384149D01*
X0440181Y0384211D01*
X0440233Y0384276D01*
X0440283Y0384343D01*
X0440329Y0384413D01*
X0440372Y0384484D01*
X0440411Y0384558D01*
X0440447Y0384633D01*
X0440479Y0384710D01*
X0440508Y0384788D01*
X0440533Y0384867D01*
X0440554Y0384948D01*
X0440572Y0385029D01*
X0440585Y0385112D01*
X0440595Y0385195D01*
X0440601Y0385278D01*
X0440603Y0385361D01*
X0440602Y0385361D02*
X0440602Y0389983D01*
X0442996Y0389983D02*
X0446551Y0389983D01*
X0444773Y0389983D02*
X0444773Y0383583D01*
X0434542Y0383583D02*
X0433120Y0383583D01*
X0433120Y0383584D02*
X0433046Y0383586D01*
X0432971Y0383592D01*
X0432898Y0383602D01*
X0432824Y0383615D01*
X0432752Y0383632D01*
X0432681Y0383654D01*
X0432610Y0383678D01*
X0432542Y0383707D01*
X0432474Y0383739D01*
X0432409Y0383775D01*
X0432346Y0383813D01*
X0432284Y0383856D01*
X0432225Y0383901D01*
X0432168Y0383949D01*
X0432114Y0384000D01*
X0432063Y0384054D01*
X0432015Y0384111D01*
X0431970Y0384170D01*
X0431927Y0384232D01*
X0431889Y0384295D01*
X0431853Y0384360D01*
X0431821Y0384428D01*
X0431792Y0384496D01*
X0431768Y0384567D01*
X0431746Y0384638D01*
X0431729Y0384710D01*
X0431716Y0384784D01*
X0431706Y0384857D01*
X0431700Y0384932D01*
X0431698Y0385006D01*
M02*
