%
M48
M72
T01C0.01181
T02C0.01378
T03C0.01575
T04C0.01969
T05C0.03800
T06C0.03937
T07C0.04000
T08C0.04331
T09C0.06299
T10C0.08268
T11C0.09252
T12C0.10236
T13C0.11024
T14C0.11811
T15C0.12205
%
T01
X676921Y234740
X676921Y239465
X673378Y239071
X675346Y244189
X680071Y246157
X682501Y250821
X680153Y254516
X680153Y258453
X686846Y258453
X691151Y251171
X693651Y251171
X696151Y251171
X697901Y245671
X697651Y241671
X695401Y240171
X700584Y238654
X707151Y235921
X713651Y235921
X716901Y235171
X720651Y235171
X724151Y235921
X727283Y236224
X730151Y234921
X729100Y241122
X731850Y241122
X734549Y241122
X740151Y241546
X742651Y241546
X742651Y252421
X740151Y252421
X742651Y256421
X735151Y251675
X732901Y252671
X730651Y251675
X728151Y256421
X728143Y259077
X707319Y268689
X682859Y268079
X684401Y240671
X685901Y238421
X687401Y240671
X688901Y238421
X687401Y235921
X684401Y235921
X680464Y238283
X744191Y271504
T02
X820175Y241583
X805214Y238433
X799309Y236465
X802065Y232134
X797340Y228591
X803639Y225047
X807576Y228591
X813482Y228197
X814269Y224260
X808364Y222291
X820175Y222291
X820175Y227016
X820175Y230953
X793797Y235283
X793797Y239614
X601080Y229575
X742025Y158709
T03
X719285Y245067
X719285Y248020
X719285Y250972
X719285Y253925
X715840Y253925
X715840Y250972
X715840Y248020
X715840Y245067
X712395Y245020
X712395Y248020
X712395Y250972
X712395Y253925
X708950Y253925
X708950Y250972
X708950Y248020
X708950Y245067
X705506Y245067
X705506Y248020
X705506Y250972
X705506Y253925
X694651Y255421
T04
X757576Y248276
X766632Y249850
X767419Y243157
X757183Y240402
X756395Y229378
X756789Y223472
X784939Y221307
X794781Y208118
X801671Y215008
X804624Y205165
X813482Y206937
X824506Y203394
X818206Y196307
X808364Y196701
X804427Y190402
X799702Y196307
X816632Y186465
X803246Y181740
X791435Y181740
X775293Y182528
X764466Y188630
X748718Y178394
X719781Y169142
X694978Y168748
X691435Y168748
X691435Y172291
X694978Y172291
X693010Y165205
X691435Y161661
X691435Y158118
X694978Y158118
X694978Y161661
X683561Y160874
X662301Y158118
X683364Y153591
X715057Y154181
X714663Y145913
X708954Y133906
X725687Y114417
X692616Y113630
X662301Y167567
X706789Y181740
X715057Y181740
X693994Y192567
X669387Y185283
X828246Y236071
X778049Y244339
X830017Y215598
X869387Y217173
X861907Y197488
X856789Y191189
X844978Y196701
X852458Y182528
X865057Y181740
X836710Y179378
X628443Y259693
X614663Y259693
X592025Y335480
X614663Y340402
X602852Y346307
X564466Y345323
X564466Y335480
T05
X585844Y237213
X585844Y227213
X585844Y217213
X585844Y207213
X585844Y197213
X585844Y187213
X585844Y177213
X585844Y167213
X585844Y157213
X585844Y147213
X585844Y137213
X585844Y127213
X585844Y117213
X585844Y107213
X645844Y107213
X645844Y117213
X645844Y127213
X645844Y137213
X645844Y147213
X635844Y147213
X635844Y157213
X645844Y157213
X645844Y167213
X645844Y177213
X645844Y187213
X645844Y197213
X645844Y207213
X625844Y207213
X615844Y207213
X615844Y197213
X625844Y197213
X625844Y187213
X615844Y187213
X615844Y177213
X625844Y177213
X625844Y167213
X615844Y167213
X615844Y217213
X625844Y217213
X625844Y227213
X615844Y227213
X645844Y227213
X645844Y237213
X645844Y217213
T06
X677655Y127961
X659545Y110874
X677655Y107961
T07
X529253Y148252
X536324Y141181
X543395Y134110
X550466Y127039
X818623Y127039
X825694Y134110
X832766Y141181
X839837Y148252
X740151Y226921
X730151Y226921
X720151Y226921
X710151Y226921
X700151Y226921
X690151Y226921
X680151Y226921
X670151Y226921
X670151Y276921
X680151Y276921
X690151Y276921
X700151Y276921
X710151Y276921
X720151Y276921
X730151Y276921
X740151Y276921
X856789Y272409
X856789Y262409
X856789Y282409
X856789Y292409
X709545Y316780
X699545Y316780
X689545Y316780
X679545Y316780
X669545Y316780
X659545Y316780
X649545Y316780
X639545Y316780
X629545Y316780
X619545Y316780
X609545Y316780
X599545Y316780
X589545Y316780
X579545Y316780
X569545Y316780
X559545Y316780
X709899Y342370
X719899Y342370
X729899Y342370
X739899Y342370
X514269Y251071
X514269Y241071
X514269Y231071
X514269Y221071
X1046513Y342370
X1056513Y342370
X1066513Y342370
X1076513Y342370
T08
X768206Y169142
X760332Y169142
X752458Y169142
X744584Y169142
X736710Y169142
X742616Y112055
X752458Y112055
X762301Y112055
T09
X776080Y346307
T10
X774309Y141583
X730608Y141583
T11
X776080Y334496
T12
X793797Y338418
X758364Y338418
T13
X833167Y316780
X537891Y316780
X537891Y194732
X833167Y194732
T14
X888128Y109496
X1235923Y109496
X986317Y335677
X958758Y335677
X888128Y343906
X1235923Y343906
T15
X776080Y310874
M30
