G75*
%MOIN*%
%OFA0B0*%
%FSLAX25Y25*%
%IPPOS*%
%LPD*%
%AMOC8*
5,1,8,0,0,1.08239X$1,22.5*
%
%ADD10C,0.00000*%
%ADD11C,0.00197*%
%ADD12C,0.00600*%
D10*
X0116748Y0062417D02*
X0368717Y0062417D01*
X0429740Y0123441D01*
X0429740Y0261236D01*
X0366748Y0324228D01*
X0118717Y0324228D01*
X0055724Y0261236D01*
X0055724Y0123441D01*
X0116748Y0062417D01*
X0071472Y0135252D02*
X0071474Y0135405D01*
X0071480Y0135559D01*
X0071490Y0135712D01*
X0071504Y0135864D01*
X0071522Y0136017D01*
X0071544Y0136168D01*
X0071569Y0136319D01*
X0071599Y0136470D01*
X0071633Y0136620D01*
X0071670Y0136768D01*
X0071711Y0136916D01*
X0071756Y0137062D01*
X0071805Y0137208D01*
X0071858Y0137352D01*
X0071914Y0137494D01*
X0071974Y0137635D01*
X0072038Y0137775D01*
X0072105Y0137913D01*
X0072176Y0138049D01*
X0072251Y0138183D01*
X0072328Y0138315D01*
X0072410Y0138445D01*
X0072494Y0138573D01*
X0072582Y0138699D01*
X0072673Y0138822D01*
X0072767Y0138943D01*
X0072865Y0139061D01*
X0072965Y0139177D01*
X0073069Y0139290D01*
X0073175Y0139401D01*
X0073284Y0139509D01*
X0073396Y0139614D01*
X0073510Y0139715D01*
X0073628Y0139814D01*
X0073747Y0139910D01*
X0073869Y0140003D01*
X0073994Y0140092D01*
X0074121Y0140179D01*
X0074250Y0140261D01*
X0074381Y0140341D01*
X0074514Y0140417D01*
X0074649Y0140490D01*
X0074786Y0140559D01*
X0074925Y0140624D01*
X0075065Y0140686D01*
X0075207Y0140744D01*
X0075350Y0140799D01*
X0075495Y0140850D01*
X0075641Y0140897D01*
X0075788Y0140940D01*
X0075936Y0140979D01*
X0076085Y0141015D01*
X0076235Y0141046D01*
X0076386Y0141074D01*
X0076537Y0141098D01*
X0076690Y0141118D01*
X0076842Y0141134D01*
X0076995Y0141146D01*
X0077148Y0141154D01*
X0077301Y0141158D01*
X0077455Y0141158D01*
X0077608Y0141154D01*
X0077761Y0141146D01*
X0077914Y0141134D01*
X0078066Y0141118D01*
X0078219Y0141098D01*
X0078370Y0141074D01*
X0078521Y0141046D01*
X0078671Y0141015D01*
X0078820Y0140979D01*
X0078968Y0140940D01*
X0079115Y0140897D01*
X0079261Y0140850D01*
X0079406Y0140799D01*
X0079549Y0140744D01*
X0079691Y0140686D01*
X0079831Y0140624D01*
X0079970Y0140559D01*
X0080107Y0140490D01*
X0080242Y0140417D01*
X0080375Y0140341D01*
X0080506Y0140261D01*
X0080635Y0140179D01*
X0080762Y0140092D01*
X0080887Y0140003D01*
X0081009Y0139910D01*
X0081128Y0139814D01*
X0081246Y0139715D01*
X0081360Y0139614D01*
X0081472Y0139509D01*
X0081581Y0139401D01*
X0081687Y0139290D01*
X0081791Y0139177D01*
X0081891Y0139061D01*
X0081989Y0138943D01*
X0082083Y0138822D01*
X0082174Y0138699D01*
X0082262Y0138573D01*
X0082346Y0138445D01*
X0082428Y0138315D01*
X0082505Y0138183D01*
X0082580Y0138049D01*
X0082651Y0137913D01*
X0082718Y0137775D01*
X0082782Y0137635D01*
X0082842Y0137494D01*
X0082898Y0137352D01*
X0082951Y0137208D01*
X0083000Y0137062D01*
X0083045Y0136916D01*
X0083086Y0136768D01*
X0083123Y0136620D01*
X0083157Y0136470D01*
X0083187Y0136319D01*
X0083212Y0136168D01*
X0083234Y0136017D01*
X0083252Y0135864D01*
X0083266Y0135712D01*
X0083276Y0135559D01*
X0083282Y0135405D01*
X0083284Y0135252D01*
X0083282Y0135099D01*
X0083276Y0134945D01*
X0083266Y0134792D01*
X0083252Y0134640D01*
X0083234Y0134487D01*
X0083212Y0134336D01*
X0083187Y0134185D01*
X0083157Y0134034D01*
X0083123Y0133884D01*
X0083086Y0133736D01*
X0083045Y0133588D01*
X0083000Y0133442D01*
X0082951Y0133296D01*
X0082898Y0133152D01*
X0082842Y0133010D01*
X0082782Y0132869D01*
X0082718Y0132729D01*
X0082651Y0132591D01*
X0082580Y0132455D01*
X0082505Y0132321D01*
X0082428Y0132189D01*
X0082346Y0132059D01*
X0082262Y0131931D01*
X0082174Y0131805D01*
X0082083Y0131682D01*
X0081989Y0131561D01*
X0081891Y0131443D01*
X0081791Y0131327D01*
X0081687Y0131214D01*
X0081581Y0131103D01*
X0081472Y0130995D01*
X0081360Y0130890D01*
X0081246Y0130789D01*
X0081128Y0130690D01*
X0081009Y0130594D01*
X0080887Y0130501D01*
X0080762Y0130412D01*
X0080635Y0130325D01*
X0080506Y0130243D01*
X0080375Y0130163D01*
X0080242Y0130087D01*
X0080107Y0130014D01*
X0079970Y0129945D01*
X0079831Y0129880D01*
X0079691Y0129818D01*
X0079549Y0129760D01*
X0079406Y0129705D01*
X0079261Y0129654D01*
X0079115Y0129607D01*
X0078968Y0129564D01*
X0078820Y0129525D01*
X0078671Y0129489D01*
X0078521Y0129458D01*
X0078370Y0129430D01*
X0078219Y0129406D01*
X0078066Y0129386D01*
X0077914Y0129370D01*
X0077761Y0129358D01*
X0077608Y0129350D01*
X0077455Y0129346D01*
X0077301Y0129346D01*
X0077148Y0129350D01*
X0076995Y0129358D01*
X0076842Y0129370D01*
X0076690Y0129386D01*
X0076537Y0129406D01*
X0076386Y0129430D01*
X0076235Y0129458D01*
X0076085Y0129489D01*
X0075936Y0129525D01*
X0075788Y0129564D01*
X0075641Y0129607D01*
X0075495Y0129654D01*
X0075350Y0129705D01*
X0075207Y0129760D01*
X0075065Y0129818D01*
X0074925Y0129880D01*
X0074786Y0129945D01*
X0074649Y0130014D01*
X0074514Y0130087D01*
X0074381Y0130163D01*
X0074250Y0130243D01*
X0074121Y0130325D01*
X0073994Y0130412D01*
X0073869Y0130501D01*
X0073747Y0130594D01*
X0073628Y0130690D01*
X0073510Y0130789D01*
X0073396Y0130890D01*
X0073284Y0130995D01*
X0073175Y0131103D01*
X0073069Y0131214D01*
X0072965Y0131327D01*
X0072865Y0131443D01*
X0072767Y0131561D01*
X0072673Y0131682D01*
X0072582Y0131805D01*
X0072494Y0131931D01*
X0072410Y0132059D01*
X0072328Y0132189D01*
X0072251Y0132321D01*
X0072176Y0132455D01*
X0072105Y0132591D01*
X0072038Y0132729D01*
X0071974Y0132869D01*
X0071914Y0133010D01*
X0071858Y0133152D01*
X0071805Y0133296D01*
X0071756Y0133442D01*
X0071711Y0133588D01*
X0071670Y0133736D01*
X0071633Y0133884D01*
X0071599Y0134034D01*
X0071569Y0134185D01*
X0071544Y0134336D01*
X0071522Y0134487D01*
X0071504Y0134640D01*
X0071490Y0134792D01*
X0071480Y0134945D01*
X0071474Y0135099D01*
X0071472Y0135252D01*
X0087220Y0160843D02*
X0087222Y0161036D01*
X0087229Y0161229D01*
X0087241Y0161422D01*
X0087258Y0161615D01*
X0087279Y0161807D01*
X0087305Y0161998D01*
X0087336Y0162189D01*
X0087371Y0162379D01*
X0087411Y0162568D01*
X0087456Y0162756D01*
X0087505Y0162943D01*
X0087559Y0163129D01*
X0087617Y0163313D01*
X0087680Y0163496D01*
X0087748Y0163677D01*
X0087819Y0163856D01*
X0087896Y0164034D01*
X0087976Y0164210D01*
X0088061Y0164383D01*
X0088150Y0164555D01*
X0088243Y0164724D01*
X0088340Y0164891D01*
X0088442Y0165056D01*
X0088547Y0165218D01*
X0088656Y0165377D01*
X0088770Y0165534D01*
X0088887Y0165687D01*
X0089007Y0165838D01*
X0089132Y0165986D01*
X0089260Y0166131D01*
X0089391Y0166272D01*
X0089526Y0166411D01*
X0089665Y0166546D01*
X0089806Y0166677D01*
X0089951Y0166805D01*
X0090099Y0166930D01*
X0090250Y0167050D01*
X0090403Y0167167D01*
X0090560Y0167281D01*
X0090719Y0167390D01*
X0090881Y0167495D01*
X0091046Y0167597D01*
X0091213Y0167694D01*
X0091382Y0167787D01*
X0091554Y0167876D01*
X0091727Y0167961D01*
X0091903Y0168041D01*
X0092081Y0168118D01*
X0092260Y0168189D01*
X0092441Y0168257D01*
X0092624Y0168320D01*
X0092808Y0168378D01*
X0092994Y0168432D01*
X0093181Y0168481D01*
X0093369Y0168526D01*
X0093558Y0168566D01*
X0093748Y0168601D01*
X0093939Y0168632D01*
X0094130Y0168658D01*
X0094322Y0168679D01*
X0094515Y0168696D01*
X0094708Y0168708D01*
X0094901Y0168715D01*
X0095094Y0168717D01*
X0095287Y0168715D01*
X0095480Y0168708D01*
X0095673Y0168696D01*
X0095866Y0168679D01*
X0096058Y0168658D01*
X0096249Y0168632D01*
X0096440Y0168601D01*
X0096630Y0168566D01*
X0096819Y0168526D01*
X0097007Y0168481D01*
X0097194Y0168432D01*
X0097380Y0168378D01*
X0097564Y0168320D01*
X0097747Y0168257D01*
X0097928Y0168189D01*
X0098107Y0168118D01*
X0098285Y0168041D01*
X0098461Y0167961D01*
X0098634Y0167876D01*
X0098806Y0167787D01*
X0098975Y0167694D01*
X0099142Y0167597D01*
X0099307Y0167495D01*
X0099469Y0167390D01*
X0099628Y0167281D01*
X0099785Y0167167D01*
X0099938Y0167050D01*
X0100089Y0166930D01*
X0100237Y0166805D01*
X0100382Y0166677D01*
X0100523Y0166546D01*
X0100662Y0166411D01*
X0100797Y0166272D01*
X0100928Y0166131D01*
X0101056Y0165986D01*
X0101181Y0165838D01*
X0101301Y0165687D01*
X0101418Y0165534D01*
X0101532Y0165377D01*
X0101641Y0165218D01*
X0101746Y0165056D01*
X0101848Y0164891D01*
X0101945Y0164724D01*
X0102038Y0164555D01*
X0102127Y0164383D01*
X0102212Y0164210D01*
X0102292Y0164034D01*
X0102369Y0163856D01*
X0102440Y0163677D01*
X0102508Y0163496D01*
X0102571Y0163313D01*
X0102629Y0163129D01*
X0102683Y0162943D01*
X0102732Y0162756D01*
X0102777Y0162568D01*
X0102817Y0162379D01*
X0102852Y0162189D01*
X0102883Y0161998D01*
X0102909Y0161807D01*
X0102930Y0161615D01*
X0102947Y0161422D01*
X0102959Y0161229D01*
X0102966Y0161036D01*
X0102968Y0160843D01*
X0102966Y0160650D01*
X0102959Y0160457D01*
X0102947Y0160264D01*
X0102930Y0160071D01*
X0102909Y0159879D01*
X0102883Y0159688D01*
X0102852Y0159497D01*
X0102817Y0159307D01*
X0102777Y0159118D01*
X0102732Y0158930D01*
X0102683Y0158743D01*
X0102629Y0158557D01*
X0102571Y0158373D01*
X0102508Y0158190D01*
X0102440Y0158009D01*
X0102369Y0157830D01*
X0102292Y0157652D01*
X0102212Y0157476D01*
X0102127Y0157303D01*
X0102038Y0157131D01*
X0101945Y0156962D01*
X0101848Y0156795D01*
X0101746Y0156630D01*
X0101641Y0156468D01*
X0101532Y0156309D01*
X0101418Y0156152D01*
X0101301Y0155999D01*
X0101181Y0155848D01*
X0101056Y0155700D01*
X0100928Y0155555D01*
X0100797Y0155414D01*
X0100662Y0155275D01*
X0100523Y0155140D01*
X0100382Y0155009D01*
X0100237Y0154881D01*
X0100089Y0154756D01*
X0099938Y0154636D01*
X0099785Y0154519D01*
X0099628Y0154405D01*
X0099469Y0154296D01*
X0099307Y0154191D01*
X0099142Y0154089D01*
X0098975Y0153992D01*
X0098806Y0153899D01*
X0098634Y0153810D01*
X0098461Y0153725D01*
X0098285Y0153645D01*
X0098107Y0153568D01*
X0097928Y0153497D01*
X0097747Y0153429D01*
X0097564Y0153366D01*
X0097380Y0153308D01*
X0097194Y0153254D01*
X0097007Y0153205D01*
X0096819Y0153160D01*
X0096630Y0153120D01*
X0096440Y0153085D01*
X0096249Y0153054D01*
X0096058Y0153028D01*
X0095866Y0153007D01*
X0095673Y0152990D01*
X0095480Y0152978D01*
X0095287Y0152971D01*
X0095094Y0152969D01*
X0094901Y0152971D01*
X0094708Y0152978D01*
X0094515Y0152990D01*
X0094322Y0153007D01*
X0094130Y0153028D01*
X0093939Y0153054D01*
X0093748Y0153085D01*
X0093558Y0153120D01*
X0093369Y0153160D01*
X0093181Y0153205D01*
X0092994Y0153254D01*
X0092808Y0153308D01*
X0092624Y0153366D01*
X0092441Y0153429D01*
X0092260Y0153497D01*
X0092081Y0153568D01*
X0091903Y0153645D01*
X0091727Y0153725D01*
X0091554Y0153810D01*
X0091382Y0153899D01*
X0091213Y0153992D01*
X0091046Y0154089D01*
X0090881Y0154191D01*
X0090719Y0154296D01*
X0090560Y0154405D01*
X0090403Y0154519D01*
X0090250Y0154636D01*
X0090099Y0154756D01*
X0089951Y0154881D01*
X0089806Y0155009D01*
X0089665Y0155140D01*
X0089526Y0155275D01*
X0089391Y0155414D01*
X0089260Y0155555D01*
X0089132Y0155700D01*
X0089007Y0155848D01*
X0088887Y0155999D01*
X0088770Y0156152D01*
X0088656Y0156309D01*
X0088547Y0156468D01*
X0088442Y0156630D01*
X0088340Y0156795D01*
X0088243Y0156962D01*
X0088150Y0157131D01*
X0088061Y0157303D01*
X0087976Y0157476D01*
X0087896Y0157652D01*
X0087819Y0157830D01*
X0087748Y0158009D01*
X0087680Y0158190D01*
X0087617Y0158373D01*
X0087559Y0158557D01*
X0087505Y0158743D01*
X0087456Y0158930D01*
X0087411Y0159118D01*
X0087371Y0159307D01*
X0087336Y0159497D01*
X0087305Y0159688D01*
X0087279Y0159879D01*
X0087258Y0160071D01*
X0087241Y0160264D01*
X0087229Y0160457D01*
X0087222Y0160650D01*
X0087220Y0160843D01*
X0087220Y0282890D02*
X0087222Y0283083D01*
X0087229Y0283276D01*
X0087241Y0283469D01*
X0087258Y0283662D01*
X0087279Y0283854D01*
X0087305Y0284045D01*
X0087336Y0284236D01*
X0087371Y0284426D01*
X0087411Y0284615D01*
X0087456Y0284803D01*
X0087505Y0284990D01*
X0087559Y0285176D01*
X0087617Y0285360D01*
X0087680Y0285543D01*
X0087748Y0285724D01*
X0087819Y0285903D01*
X0087896Y0286081D01*
X0087976Y0286257D01*
X0088061Y0286430D01*
X0088150Y0286602D01*
X0088243Y0286771D01*
X0088340Y0286938D01*
X0088442Y0287103D01*
X0088547Y0287265D01*
X0088656Y0287424D01*
X0088770Y0287581D01*
X0088887Y0287734D01*
X0089007Y0287885D01*
X0089132Y0288033D01*
X0089260Y0288178D01*
X0089391Y0288319D01*
X0089526Y0288458D01*
X0089665Y0288593D01*
X0089806Y0288724D01*
X0089951Y0288852D01*
X0090099Y0288977D01*
X0090250Y0289097D01*
X0090403Y0289214D01*
X0090560Y0289328D01*
X0090719Y0289437D01*
X0090881Y0289542D01*
X0091046Y0289644D01*
X0091213Y0289741D01*
X0091382Y0289834D01*
X0091554Y0289923D01*
X0091727Y0290008D01*
X0091903Y0290088D01*
X0092081Y0290165D01*
X0092260Y0290236D01*
X0092441Y0290304D01*
X0092624Y0290367D01*
X0092808Y0290425D01*
X0092994Y0290479D01*
X0093181Y0290528D01*
X0093369Y0290573D01*
X0093558Y0290613D01*
X0093748Y0290648D01*
X0093939Y0290679D01*
X0094130Y0290705D01*
X0094322Y0290726D01*
X0094515Y0290743D01*
X0094708Y0290755D01*
X0094901Y0290762D01*
X0095094Y0290764D01*
X0095287Y0290762D01*
X0095480Y0290755D01*
X0095673Y0290743D01*
X0095866Y0290726D01*
X0096058Y0290705D01*
X0096249Y0290679D01*
X0096440Y0290648D01*
X0096630Y0290613D01*
X0096819Y0290573D01*
X0097007Y0290528D01*
X0097194Y0290479D01*
X0097380Y0290425D01*
X0097564Y0290367D01*
X0097747Y0290304D01*
X0097928Y0290236D01*
X0098107Y0290165D01*
X0098285Y0290088D01*
X0098461Y0290008D01*
X0098634Y0289923D01*
X0098806Y0289834D01*
X0098975Y0289741D01*
X0099142Y0289644D01*
X0099307Y0289542D01*
X0099469Y0289437D01*
X0099628Y0289328D01*
X0099785Y0289214D01*
X0099938Y0289097D01*
X0100089Y0288977D01*
X0100237Y0288852D01*
X0100382Y0288724D01*
X0100523Y0288593D01*
X0100662Y0288458D01*
X0100797Y0288319D01*
X0100928Y0288178D01*
X0101056Y0288033D01*
X0101181Y0287885D01*
X0101301Y0287734D01*
X0101418Y0287581D01*
X0101532Y0287424D01*
X0101641Y0287265D01*
X0101746Y0287103D01*
X0101848Y0286938D01*
X0101945Y0286771D01*
X0102038Y0286602D01*
X0102127Y0286430D01*
X0102212Y0286257D01*
X0102292Y0286081D01*
X0102369Y0285903D01*
X0102440Y0285724D01*
X0102508Y0285543D01*
X0102571Y0285360D01*
X0102629Y0285176D01*
X0102683Y0284990D01*
X0102732Y0284803D01*
X0102777Y0284615D01*
X0102817Y0284426D01*
X0102852Y0284236D01*
X0102883Y0284045D01*
X0102909Y0283854D01*
X0102930Y0283662D01*
X0102947Y0283469D01*
X0102959Y0283276D01*
X0102966Y0283083D01*
X0102968Y0282890D01*
X0102966Y0282697D01*
X0102959Y0282504D01*
X0102947Y0282311D01*
X0102930Y0282118D01*
X0102909Y0281926D01*
X0102883Y0281735D01*
X0102852Y0281544D01*
X0102817Y0281354D01*
X0102777Y0281165D01*
X0102732Y0280977D01*
X0102683Y0280790D01*
X0102629Y0280604D01*
X0102571Y0280420D01*
X0102508Y0280237D01*
X0102440Y0280056D01*
X0102369Y0279877D01*
X0102292Y0279699D01*
X0102212Y0279523D01*
X0102127Y0279350D01*
X0102038Y0279178D01*
X0101945Y0279009D01*
X0101848Y0278842D01*
X0101746Y0278677D01*
X0101641Y0278515D01*
X0101532Y0278356D01*
X0101418Y0278199D01*
X0101301Y0278046D01*
X0101181Y0277895D01*
X0101056Y0277747D01*
X0100928Y0277602D01*
X0100797Y0277461D01*
X0100662Y0277322D01*
X0100523Y0277187D01*
X0100382Y0277056D01*
X0100237Y0276928D01*
X0100089Y0276803D01*
X0099938Y0276683D01*
X0099785Y0276566D01*
X0099628Y0276452D01*
X0099469Y0276343D01*
X0099307Y0276238D01*
X0099142Y0276136D01*
X0098975Y0276039D01*
X0098806Y0275946D01*
X0098634Y0275857D01*
X0098461Y0275772D01*
X0098285Y0275692D01*
X0098107Y0275615D01*
X0097928Y0275544D01*
X0097747Y0275476D01*
X0097564Y0275413D01*
X0097380Y0275355D01*
X0097194Y0275301D01*
X0097007Y0275252D01*
X0096819Y0275207D01*
X0096630Y0275167D01*
X0096440Y0275132D01*
X0096249Y0275101D01*
X0096058Y0275075D01*
X0095866Y0275054D01*
X0095673Y0275037D01*
X0095480Y0275025D01*
X0095287Y0275018D01*
X0095094Y0275016D01*
X0094901Y0275018D01*
X0094708Y0275025D01*
X0094515Y0275037D01*
X0094322Y0275054D01*
X0094130Y0275075D01*
X0093939Y0275101D01*
X0093748Y0275132D01*
X0093558Y0275167D01*
X0093369Y0275207D01*
X0093181Y0275252D01*
X0092994Y0275301D01*
X0092808Y0275355D01*
X0092624Y0275413D01*
X0092441Y0275476D01*
X0092260Y0275544D01*
X0092081Y0275615D01*
X0091903Y0275692D01*
X0091727Y0275772D01*
X0091554Y0275857D01*
X0091382Y0275946D01*
X0091213Y0276039D01*
X0091046Y0276136D01*
X0090881Y0276238D01*
X0090719Y0276343D01*
X0090560Y0276452D01*
X0090403Y0276566D01*
X0090250Y0276683D01*
X0090099Y0276803D01*
X0089951Y0276928D01*
X0089806Y0277056D01*
X0089665Y0277187D01*
X0089526Y0277322D01*
X0089391Y0277461D01*
X0089260Y0277602D01*
X0089132Y0277747D01*
X0089007Y0277895D01*
X0088887Y0278046D01*
X0088770Y0278199D01*
X0088656Y0278356D01*
X0088547Y0278515D01*
X0088442Y0278677D01*
X0088340Y0278842D01*
X0088243Y0279009D01*
X0088150Y0279178D01*
X0088061Y0279350D01*
X0087976Y0279523D01*
X0087896Y0279699D01*
X0087819Y0279877D01*
X0087748Y0280056D01*
X0087680Y0280237D01*
X0087617Y0280420D01*
X0087559Y0280604D01*
X0087505Y0280790D01*
X0087456Y0280977D01*
X0087411Y0281165D01*
X0087371Y0281354D01*
X0087336Y0281544D01*
X0087305Y0281735D01*
X0087279Y0281926D01*
X0087258Y0282118D01*
X0087241Y0282311D01*
X0087229Y0282504D01*
X0087222Y0282697D01*
X0087220Y0282890D01*
X0197456Y0308480D02*
X0197458Y0308633D01*
X0197464Y0308787D01*
X0197474Y0308940D01*
X0197488Y0309092D01*
X0197506Y0309245D01*
X0197528Y0309396D01*
X0197553Y0309547D01*
X0197583Y0309698D01*
X0197617Y0309848D01*
X0197654Y0309996D01*
X0197695Y0310144D01*
X0197740Y0310290D01*
X0197789Y0310436D01*
X0197842Y0310580D01*
X0197898Y0310722D01*
X0197958Y0310863D01*
X0198022Y0311003D01*
X0198089Y0311141D01*
X0198160Y0311277D01*
X0198235Y0311411D01*
X0198312Y0311543D01*
X0198394Y0311673D01*
X0198478Y0311801D01*
X0198566Y0311927D01*
X0198657Y0312050D01*
X0198751Y0312171D01*
X0198849Y0312289D01*
X0198949Y0312405D01*
X0199053Y0312518D01*
X0199159Y0312629D01*
X0199268Y0312737D01*
X0199380Y0312842D01*
X0199494Y0312943D01*
X0199612Y0313042D01*
X0199731Y0313138D01*
X0199853Y0313231D01*
X0199978Y0313320D01*
X0200105Y0313407D01*
X0200234Y0313489D01*
X0200365Y0313569D01*
X0200498Y0313645D01*
X0200633Y0313718D01*
X0200770Y0313787D01*
X0200909Y0313852D01*
X0201049Y0313914D01*
X0201191Y0313972D01*
X0201334Y0314027D01*
X0201479Y0314078D01*
X0201625Y0314125D01*
X0201772Y0314168D01*
X0201920Y0314207D01*
X0202069Y0314243D01*
X0202219Y0314274D01*
X0202370Y0314302D01*
X0202521Y0314326D01*
X0202674Y0314346D01*
X0202826Y0314362D01*
X0202979Y0314374D01*
X0203132Y0314382D01*
X0203285Y0314386D01*
X0203439Y0314386D01*
X0203592Y0314382D01*
X0203745Y0314374D01*
X0203898Y0314362D01*
X0204050Y0314346D01*
X0204203Y0314326D01*
X0204354Y0314302D01*
X0204505Y0314274D01*
X0204655Y0314243D01*
X0204804Y0314207D01*
X0204952Y0314168D01*
X0205099Y0314125D01*
X0205245Y0314078D01*
X0205390Y0314027D01*
X0205533Y0313972D01*
X0205675Y0313914D01*
X0205815Y0313852D01*
X0205954Y0313787D01*
X0206091Y0313718D01*
X0206226Y0313645D01*
X0206359Y0313569D01*
X0206490Y0313489D01*
X0206619Y0313407D01*
X0206746Y0313320D01*
X0206871Y0313231D01*
X0206993Y0313138D01*
X0207112Y0313042D01*
X0207230Y0312943D01*
X0207344Y0312842D01*
X0207456Y0312737D01*
X0207565Y0312629D01*
X0207671Y0312518D01*
X0207775Y0312405D01*
X0207875Y0312289D01*
X0207973Y0312171D01*
X0208067Y0312050D01*
X0208158Y0311927D01*
X0208246Y0311801D01*
X0208330Y0311673D01*
X0208412Y0311543D01*
X0208489Y0311411D01*
X0208564Y0311277D01*
X0208635Y0311141D01*
X0208702Y0311003D01*
X0208766Y0310863D01*
X0208826Y0310722D01*
X0208882Y0310580D01*
X0208935Y0310436D01*
X0208984Y0310290D01*
X0209029Y0310144D01*
X0209070Y0309996D01*
X0209107Y0309848D01*
X0209141Y0309698D01*
X0209171Y0309547D01*
X0209196Y0309396D01*
X0209218Y0309245D01*
X0209236Y0309092D01*
X0209250Y0308940D01*
X0209260Y0308787D01*
X0209266Y0308633D01*
X0209268Y0308480D01*
X0209266Y0308327D01*
X0209260Y0308173D01*
X0209250Y0308020D01*
X0209236Y0307868D01*
X0209218Y0307715D01*
X0209196Y0307564D01*
X0209171Y0307413D01*
X0209141Y0307262D01*
X0209107Y0307112D01*
X0209070Y0306964D01*
X0209029Y0306816D01*
X0208984Y0306670D01*
X0208935Y0306524D01*
X0208882Y0306380D01*
X0208826Y0306238D01*
X0208766Y0306097D01*
X0208702Y0305957D01*
X0208635Y0305819D01*
X0208564Y0305683D01*
X0208489Y0305549D01*
X0208412Y0305417D01*
X0208330Y0305287D01*
X0208246Y0305159D01*
X0208158Y0305033D01*
X0208067Y0304910D01*
X0207973Y0304789D01*
X0207875Y0304671D01*
X0207775Y0304555D01*
X0207671Y0304442D01*
X0207565Y0304331D01*
X0207456Y0304223D01*
X0207344Y0304118D01*
X0207230Y0304017D01*
X0207112Y0303918D01*
X0206993Y0303822D01*
X0206871Y0303729D01*
X0206746Y0303640D01*
X0206619Y0303553D01*
X0206490Y0303471D01*
X0206359Y0303391D01*
X0206226Y0303315D01*
X0206091Y0303242D01*
X0205954Y0303173D01*
X0205815Y0303108D01*
X0205675Y0303046D01*
X0205533Y0302988D01*
X0205390Y0302933D01*
X0205245Y0302882D01*
X0205099Y0302835D01*
X0204952Y0302792D01*
X0204804Y0302753D01*
X0204655Y0302717D01*
X0204505Y0302686D01*
X0204354Y0302658D01*
X0204203Y0302634D01*
X0204050Y0302614D01*
X0203898Y0302598D01*
X0203745Y0302586D01*
X0203592Y0302578D01*
X0203439Y0302574D01*
X0203285Y0302574D01*
X0203132Y0302578D01*
X0202979Y0302586D01*
X0202826Y0302598D01*
X0202674Y0302614D01*
X0202521Y0302634D01*
X0202370Y0302658D01*
X0202219Y0302686D01*
X0202069Y0302717D01*
X0201920Y0302753D01*
X0201772Y0302792D01*
X0201625Y0302835D01*
X0201479Y0302882D01*
X0201334Y0302933D01*
X0201191Y0302988D01*
X0201049Y0303046D01*
X0200909Y0303108D01*
X0200770Y0303173D01*
X0200633Y0303242D01*
X0200498Y0303315D01*
X0200365Y0303391D01*
X0200234Y0303471D01*
X0200105Y0303553D01*
X0199978Y0303640D01*
X0199853Y0303729D01*
X0199731Y0303822D01*
X0199612Y0303918D01*
X0199494Y0304017D01*
X0199380Y0304118D01*
X0199268Y0304223D01*
X0199159Y0304331D01*
X0199053Y0304442D01*
X0198949Y0304555D01*
X0198849Y0304671D01*
X0198751Y0304789D01*
X0198657Y0304910D01*
X0198566Y0305033D01*
X0198478Y0305159D01*
X0198394Y0305287D01*
X0198312Y0305417D01*
X0198235Y0305549D01*
X0198160Y0305683D01*
X0198089Y0305819D01*
X0198022Y0305957D01*
X0197958Y0306097D01*
X0197898Y0306238D01*
X0197842Y0306380D01*
X0197789Y0306524D01*
X0197740Y0306670D01*
X0197695Y0306816D01*
X0197654Y0306964D01*
X0197617Y0307112D01*
X0197583Y0307262D01*
X0197553Y0307413D01*
X0197528Y0307564D01*
X0197506Y0307715D01*
X0197488Y0307868D01*
X0197474Y0308020D01*
X0197464Y0308173D01*
X0197458Y0308327D01*
X0197456Y0308480D01*
X0330133Y0312417D02*
X0330135Y0312529D01*
X0330141Y0312640D01*
X0330151Y0312752D01*
X0330165Y0312863D01*
X0330182Y0312973D01*
X0330204Y0313083D01*
X0330230Y0313192D01*
X0330259Y0313300D01*
X0330292Y0313406D01*
X0330329Y0313512D01*
X0330370Y0313616D01*
X0330415Y0313719D01*
X0330463Y0313820D01*
X0330514Y0313919D01*
X0330569Y0314016D01*
X0330628Y0314111D01*
X0330689Y0314205D01*
X0330754Y0314296D01*
X0330823Y0314384D01*
X0330894Y0314470D01*
X0330968Y0314554D01*
X0331046Y0314634D01*
X0331126Y0314712D01*
X0331209Y0314788D01*
X0331294Y0314860D01*
X0331382Y0314929D01*
X0331472Y0314995D01*
X0331565Y0315057D01*
X0331660Y0315117D01*
X0331757Y0315173D01*
X0331855Y0315225D01*
X0331956Y0315274D01*
X0332058Y0315319D01*
X0332162Y0315361D01*
X0332267Y0315399D01*
X0332374Y0315433D01*
X0332481Y0315463D01*
X0332590Y0315490D01*
X0332699Y0315512D01*
X0332810Y0315531D01*
X0332920Y0315546D01*
X0333032Y0315557D01*
X0333143Y0315564D01*
X0333255Y0315567D01*
X0333367Y0315566D01*
X0333479Y0315561D01*
X0333590Y0315552D01*
X0333701Y0315539D01*
X0333812Y0315522D01*
X0333922Y0315502D01*
X0334031Y0315477D01*
X0334139Y0315449D01*
X0334246Y0315416D01*
X0334352Y0315380D01*
X0334456Y0315340D01*
X0334559Y0315297D01*
X0334661Y0315250D01*
X0334760Y0315199D01*
X0334858Y0315145D01*
X0334954Y0315087D01*
X0335048Y0315026D01*
X0335139Y0314962D01*
X0335228Y0314895D01*
X0335315Y0314824D01*
X0335399Y0314750D01*
X0335481Y0314674D01*
X0335559Y0314594D01*
X0335635Y0314512D01*
X0335708Y0314427D01*
X0335778Y0314340D01*
X0335844Y0314250D01*
X0335908Y0314158D01*
X0335968Y0314064D01*
X0336025Y0313968D01*
X0336078Y0313869D01*
X0336128Y0313769D01*
X0336174Y0313668D01*
X0336217Y0313564D01*
X0336256Y0313459D01*
X0336291Y0313353D01*
X0336322Y0313246D01*
X0336350Y0313137D01*
X0336373Y0313028D01*
X0336393Y0312918D01*
X0336409Y0312807D01*
X0336421Y0312696D01*
X0336429Y0312585D01*
X0336433Y0312473D01*
X0336433Y0312361D01*
X0336429Y0312249D01*
X0336421Y0312138D01*
X0336409Y0312027D01*
X0336393Y0311916D01*
X0336373Y0311806D01*
X0336350Y0311697D01*
X0336322Y0311588D01*
X0336291Y0311481D01*
X0336256Y0311375D01*
X0336217Y0311270D01*
X0336174Y0311166D01*
X0336128Y0311065D01*
X0336078Y0310965D01*
X0336025Y0310866D01*
X0335968Y0310770D01*
X0335908Y0310676D01*
X0335844Y0310584D01*
X0335778Y0310494D01*
X0335708Y0310407D01*
X0335635Y0310322D01*
X0335559Y0310240D01*
X0335481Y0310160D01*
X0335399Y0310084D01*
X0335315Y0310010D01*
X0335228Y0309939D01*
X0335139Y0309872D01*
X0335048Y0309808D01*
X0334954Y0309747D01*
X0334858Y0309689D01*
X0334760Y0309635D01*
X0334661Y0309584D01*
X0334559Y0309537D01*
X0334456Y0309494D01*
X0334352Y0309454D01*
X0334246Y0309418D01*
X0334139Y0309385D01*
X0334031Y0309357D01*
X0333922Y0309332D01*
X0333812Y0309312D01*
X0333701Y0309295D01*
X0333590Y0309282D01*
X0333479Y0309273D01*
X0333367Y0309268D01*
X0333255Y0309267D01*
X0333143Y0309270D01*
X0333032Y0309277D01*
X0332920Y0309288D01*
X0332810Y0309303D01*
X0332699Y0309322D01*
X0332590Y0309344D01*
X0332481Y0309371D01*
X0332374Y0309401D01*
X0332267Y0309435D01*
X0332162Y0309473D01*
X0332058Y0309515D01*
X0331956Y0309560D01*
X0331855Y0309609D01*
X0331757Y0309661D01*
X0331660Y0309717D01*
X0331565Y0309777D01*
X0331472Y0309839D01*
X0331382Y0309905D01*
X0331294Y0309974D01*
X0331209Y0310046D01*
X0331126Y0310122D01*
X0331046Y0310200D01*
X0330968Y0310280D01*
X0330894Y0310364D01*
X0330823Y0310450D01*
X0330754Y0310538D01*
X0330689Y0310629D01*
X0330628Y0310723D01*
X0330569Y0310818D01*
X0330514Y0310915D01*
X0330463Y0311014D01*
X0330415Y0311115D01*
X0330370Y0311218D01*
X0330329Y0311322D01*
X0330292Y0311428D01*
X0330259Y0311534D01*
X0330230Y0311642D01*
X0330204Y0311751D01*
X0330182Y0311861D01*
X0330165Y0311971D01*
X0330151Y0312082D01*
X0330141Y0312194D01*
X0330135Y0312305D01*
X0330133Y0312417D01*
X0382496Y0282890D02*
X0382498Y0283083D01*
X0382505Y0283276D01*
X0382517Y0283469D01*
X0382534Y0283662D01*
X0382555Y0283854D01*
X0382581Y0284045D01*
X0382612Y0284236D01*
X0382647Y0284426D01*
X0382687Y0284615D01*
X0382732Y0284803D01*
X0382781Y0284990D01*
X0382835Y0285176D01*
X0382893Y0285360D01*
X0382956Y0285543D01*
X0383024Y0285724D01*
X0383095Y0285903D01*
X0383172Y0286081D01*
X0383252Y0286257D01*
X0383337Y0286430D01*
X0383426Y0286602D01*
X0383519Y0286771D01*
X0383616Y0286938D01*
X0383718Y0287103D01*
X0383823Y0287265D01*
X0383932Y0287424D01*
X0384046Y0287581D01*
X0384163Y0287734D01*
X0384283Y0287885D01*
X0384408Y0288033D01*
X0384536Y0288178D01*
X0384667Y0288319D01*
X0384802Y0288458D01*
X0384941Y0288593D01*
X0385082Y0288724D01*
X0385227Y0288852D01*
X0385375Y0288977D01*
X0385526Y0289097D01*
X0385679Y0289214D01*
X0385836Y0289328D01*
X0385995Y0289437D01*
X0386157Y0289542D01*
X0386322Y0289644D01*
X0386489Y0289741D01*
X0386658Y0289834D01*
X0386830Y0289923D01*
X0387003Y0290008D01*
X0387179Y0290088D01*
X0387357Y0290165D01*
X0387536Y0290236D01*
X0387717Y0290304D01*
X0387900Y0290367D01*
X0388084Y0290425D01*
X0388270Y0290479D01*
X0388457Y0290528D01*
X0388645Y0290573D01*
X0388834Y0290613D01*
X0389024Y0290648D01*
X0389215Y0290679D01*
X0389406Y0290705D01*
X0389598Y0290726D01*
X0389791Y0290743D01*
X0389984Y0290755D01*
X0390177Y0290762D01*
X0390370Y0290764D01*
X0390563Y0290762D01*
X0390756Y0290755D01*
X0390949Y0290743D01*
X0391142Y0290726D01*
X0391334Y0290705D01*
X0391525Y0290679D01*
X0391716Y0290648D01*
X0391906Y0290613D01*
X0392095Y0290573D01*
X0392283Y0290528D01*
X0392470Y0290479D01*
X0392656Y0290425D01*
X0392840Y0290367D01*
X0393023Y0290304D01*
X0393204Y0290236D01*
X0393383Y0290165D01*
X0393561Y0290088D01*
X0393737Y0290008D01*
X0393910Y0289923D01*
X0394082Y0289834D01*
X0394251Y0289741D01*
X0394418Y0289644D01*
X0394583Y0289542D01*
X0394745Y0289437D01*
X0394904Y0289328D01*
X0395061Y0289214D01*
X0395214Y0289097D01*
X0395365Y0288977D01*
X0395513Y0288852D01*
X0395658Y0288724D01*
X0395799Y0288593D01*
X0395938Y0288458D01*
X0396073Y0288319D01*
X0396204Y0288178D01*
X0396332Y0288033D01*
X0396457Y0287885D01*
X0396577Y0287734D01*
X0396694Y0287581D01*
X0396808Y0287424D01*
X0396917Y0287265D01*
X0397022Y0287103D01*
X0397124Y0286938D01*
X0397221Y0286771D01*
X0397314Y0286602D01*
X0397403Y0286430D01*
X0397488Y0286257D01*
X0397568Y0286081D01*
X0397645Y0285903D01*
X0397716Y0285724D01*
X0397784Y0285543D01*
X0397847Y0285360D01*
X0397905Y0285176D01*
X0397959Y0284990D01*
X0398008Y0284803D01*
X0398053Y0284615D01*
X0398093Y0284426D01*
X0398128Y0284236D01*
X0398159Y0284045D01*
X0398185Y0283854D01*
X0398206Y0283662D01*
X0398223Y0283469D01*
X0398235Y0283276D01*
X0398242Y0283083D01*
X0398244Y0282890D01*
X0398242Y0282697D01*
X0398235Y0282504D01*
X0398223Y0282311D01*
X0398206Y0282118D01*
X0398185Y0281926D01*
X0398159Y0281735D01*
X0398128Y0281544D01*
X0398093Y0281354D01*
X0398053Y0281165D01*
X0398008Y0280977D01*
X0397959Y0280790D01*
X0397905Y0280604D01*
X0397847Y0280420D01*
X0397784Y0280237D01*
X0397716Y0280056D01*
X0397645Y0279877D01*
X0397568Y0279699D01*
X0397488Y0279523D01*
X0397403Y0279350D01*
X0397314Y0279178D01*
X0397221Y0279009D01*
X0397124Y0278842D01*
X0397022Y0278677D01*
X0396917Y0278515D01*
X0396808Y0278356D01*
X0396694Y0278199D01*
X0396577Y0278046D01*
X0396457Y0277895D01*
X0396332Y0277747D01*
X0396204Y0277602D01*
X0396073Y0277461D01*
X0395938Y0277322D01*
X0395799Y0277187D01*
X0395658Y0277056D01*
X0395513Y0276928D01*
X0395365Y0276803D01*
X0395214Y0276683D01*
X0395061Y0276566D01*
X0394904Y0276452D01*
X0394745Y0276343D01*
X0394583Y0276238D01*
X0394418Y0276136D01*
X0394251Y0276039D01*
X0394082Y0275946D01*
X0393910Y0275857D01*
X0393737Y0275772D01*
X0393561Y0275692D01*
X0393383Y0275615D01*
X0393204Y0275544D01*
X0393023Y0275476D01*
X0392840Y0275413D01*
X0392656Y0275355D01*
X0392470Y0275301D01*
X0392283Y0275252D01*
X0392095Y0275207D01*
X0391906Y0275167D01*
X0391716Y0275132D01*
X0391525Y0275101D01*
X0391334Y0275075D01*
X0391142Y0275054D01*
X0390949Y0275037D01*
X0390756Y0275025D01*
X0390563Y0275018D01*
X0390370Y0275016D01*
X0390177Y0275018D01*
X0389984Y0275025D01*
X0389791Y0275037D01*
X0389598Y0275054D01*
X0389406Y0275075D01*
X0389215Y0275101D01*
X0389024Y0275132D01*
X0388834Y0275167D01*
X0388645Y0275207D01*
X0388457Y0275252D01*
X0388270Y0275301D01*
X0388084Y0275355D01*
X0387900Y0275413D01*
X0387717Y0275476D01*
X0387536Y0275544D01*
X0387357Y0275615D01*
X0387179Y0275692D01*
X0387003Y0275772D01*
X0386830Y0275857D01*
X0386658Y0275946D01*
X0386489Y0276039D01*
X0386322Y0276136D01*
X0386157Y0276238D01*
X0385995Y0276343D01*
X0385836Y0276452D01*
X0385679Y0276566D01*
X0385526Y0276683D01*
X0385375Y0276803D01*
X0385227Y0276928D01*
X0385082Y0277056D01*
X0384941Y0277187D01*
X0384802Y0277322D01*
X0384667Y0277461D01*
X0384536Y0277602D01*
X0384408Y0277747D01*
X0384283Y0277895D01*
X0384163Y0278046D01*
X0384046Y0278199D01*
X0383932Y0278356D01*
X0383823Y0278515D01*
X0383718Y0278677D01*
X0383616Y0278842D01*
X0383519Y0279009D01*
X0383426Y0279178D01*
X0383337Y0279350D01*
X0383252Y0279523D01*
X0383172Y0279699D01*
X0383095Y0279877D01*
X0383024Y0280056D01*
X0382956Y0280237D01*
X0382893Y0280420D01*
X0382835Y0280604D01*
X0382781Y0280790D01*
X0382732Y0280977D01*
X0382687Y0281165D01*
X0382647Y0281354D01*
X0382612Y0281544D01*
X0382581Y0281735D01*
X0382555Y0281926D01*
X0382534Y0282118D01*
X0382517Y0282311D01*
X0382505Y0282504D01*
X0382498Y0282697D01*
X0382496Y0282890D01*
X0439425Y0310016D02*
X0439427Y0310169D01*
X0439433Y0310323D01*
X0439443Y0310476D01*
X0439457Y0310628D01*
X0439475Y0310781D01*
X0439497Y0310932D01*
X0439522Y0311083D01*
X0439552Y0311234D01*
X0439586Y0311384D01*
X0439623Y0311532D01*
X0439664Y0311680D01*
X0439709Y0311826D01*
X0439758Y0311972D01*
X0439811Y0312116D01*
X0439867Y0312258D01*
X0439927Y0312399D01*
X0439991Y0312539D01*
X0440058Y0312677D01*
X0440129Y0312813D01*
X0440204Y0312947D01*
X0440281Y0313079D01*
X0440363Y0313209D01*
X0440447Y0313337D01*
X0440535Y0313463D01*
X0440626Y0313586D01*
X0440720Y0313707D01*
X0440818Y0313825D01*
X0440918Y0313941D01*
X0441022Y0314054D01*
X0441128Y0314165D01*
X0441237Y0314273D01*
X0441349Y0314378D01*
X0441463Y0314479D01*
X0441581Y0314578D01*
X0441700Y0314674D01*
X0441822Y0314767D01*
X0441947Y0314856D01*
X0442074Y0314943D01*
X0442203Y0315025D01*
X0442334Y0315105D01*
X0442467Y0315181D01*
X0442602Y0315254D01*
X0442739Y0315323D01*
X0442878Y0315388D01*
X0443018Y0315450D01*
X0443160Y0315508D01*
X0443303Y0315563D01*
X0443448Y0315614D01*
X0443594Y0315661D01*
X0443741Y0315704D01*
X0443889Y0315743D01*
X0444038Y0315779D01*
X0444188Y0315810D01*
X0444339Y0315838D01*
X0444490Y0315862D01*
X0444643Y0315882D01*
X0444795Y0315898D01*
X0444948Y0315910D01*
X0445101Y0315918D01*
X0445254Y0315922D01*
X0445408Y0315922D01*
X0445561Y0315918D01*
X0445714Y0315910D01*
X0445867Y0315898D01*
X0446019Y0315882D01*
X0446172Y0315862D01*
X0446323Y0315838D01*
X0446474Y0315810D01*
X0446624Y0315779D01*
X0446773Y0315743D01*
X0446921Y0315704D01*
X0447068Y0315661D01*
X0447214Y0315614D01*
X0447359Y0315563D01*
X0447502Y0315508D01*
X0447644Y0315450D01*
X0447784Y0315388D01*
X0447923Y0315323D01*
X0448060Y0315254D01*
X0448195Y0315181D01*
X0448328Y0315105D01*
X0448459Y0315025D01*
X0448588Y0314943D01*
X0448715Y0314856D01*
X0448840Y0314767D01*
X0448962Y0314674D01*
X0449081Y0314578D01*
X0449199Y0314479D01*
X0449313Y0314378D01*
X0449425Y0314273D01*
X0449534Y0314165D01*
X0449640Y0314054D01*
X0449744Y0313941D01*
X0449844Y0313825D01*
X0449942Y0313707D01*
X0450036Y0313586D01*
X0450127Y0313463D01*
X0450215Y0313337D01*
X0450299Y0313209D01*
X0450381Y0313079D01*
X0450458Y0312947D01*
X0450533Y0312813D01*
X0450604Y0312677D01*
X0450671Y0312539D01*
X0450735Y0312399D01*
X0450795Y0312258D01*
X0450851Y0312116D01*
X0450904Y0311972D01*
X0450953Y0311826D01*
X0450998Y0311680D01*
X0451039Y0311532D01*
X0451076Y0311384D01*
X0451110Y0311234D01*
X0451140Y0311083D01*
X0451165Y0310932D01*
X0451187Y0310781D01*
X0451205Y0310628D01*
X0451219Y0310476D01*
X0451229Y0310323D01*
X0451235Y0310169D01*
X0451237Y0310016D01*
X0451235Y0309863D01*
X0451229Y0309709D01*
X0451219Y0309556D01*
X0451205Y0309404D01*
X0451187Y0309251D01*
X0451165Y0309100D01*
X0451140Y0308949D01*
X0451110Y0308798D01*
X0451076Y0308648D01*
X0451039Y0308500D01*
X0450998Y0308352D01*
X0450953Y0308206D01*
X0450904Y0308060D01*
X0450851Y0307916D01*
X0450795Y0307774D01*
X0450735Y0307633D01*
X0450671Y0307493D01*
X0450604Y0307355D01*
X0450533Y0307219D01*
X0450458Y0307085D01*
X0450381Y0306953D01*
X0450299Y0306823D01*
X0450215Y0306695D01*
X0450127Y0306569D01*
X0450036Y0306446D01*
X0449942Y0306325D01*
X0449844Y0306207D01*
X0449744Y0306091D01*
X0449640Y0305978D01*
X0449534Y0305867D01*
X0449425Y0305759D01*
X0449313Y0305654D01*
X0449199Y0305553D01*
X0449081Y0305454D01*
X0448962Y0305358D01*
X0448840Y0305265D01*
X0448715Y0305176D01*
X0448588Y0305089D01*
X0448459Y0305007D01*
X0448328Y0304927D01*
X0448195Y0304851D01*
X0448060Y0304778D01*
X0447923Y0304709D01*
X0447784Y0304644D01*
X0447644Y0304582D01*
X0447502Y0304524D01*
X0447359Y0304469D01*
X0447214Y0304418D01*
X0447068Y0304371D01*
X0446921Y0304328D01*
X0446773Y0304289D01*
X0446624Y0304253D01*
X0446474Y0304222D01*
X0446323Y0304194D01*
X0446172Y0304170D01*
X0446019Y0304150D01*
X0445867Y0304134D01*
X0445714Y0304122D01*
X0445561Y0304114D01*
X0445408Y0304110D01*
X0445254Y0304110D01*
X0445101Y0304114D01*
X0444948Y0304122D01*
X0444795Y0304134D01*
X0444643Y0304150D01*
X0444490Y0304170D01*
X0444339Y0304194D01*
X0444188Y0304222D01*
X0444038Y0304253D01*
X0443889Y0304289D01*
X0443741Y0304328D01*
X0443594Y0304371D01*
X0443448Y0304418D01*
X0443303Y0304469D01*
X0443160Y0304524D01*
X0443018Y0304582D01*
X0442878Y0304644D01*
X0442739Y0304709D01*
X0442602Y0304778D01*
X0442467Y0304851D01*
X0442334Y0304927D01*
X0442203Y0305007D01*
X0442074Y0305089D01*
X0441947Y0305176D01*
X0441822Y0305265D01*
X0441700Y0305358D01*
X0441581Y0305454D01*
X0441463Y0305553D01*
X0441349Y0305654D01*
X0441237Y0305759D01*
X0441128Y0305867D01*
X0441022Y0305978D01*
X0440918Y0306091D01*
X0440818Y0306207D01*
X0440720Y0306325D01*
X0440626Y0306446D01*
X0440535Y0306569D01*
X0440447Y0306695D01*
X0440363Y0306823D01*
X0440281Y0306953D01*
X0440204Y0307085D01*
X0440129Y0307219D01*
X0440058Y0307355D01*
X0439991Y0307493D01*
X0439927Y0307633D01*
X0439867Y0307774D01*
X0439811Y0307916D01*
X0439758Y0308060D01*
X0439709Y0308206D01*
X0439664Y0308352D01*
X0439623Y0308500D01*
X0439586Y0308648D01*
X0439552Y0308798D01*
X0439522Y0308949D01*
X0439497Y0309100D01*
X0439475Y0309251D01*
X0439457Y0309404D01*
X0439443Y0309556D01*
X0439433Y0309709D01*
X0439427Y0309863D01*
X0439425Y0310016D01*
X0429740Y0326039D02*
X0429740Y0060449D01*
X0807850Y0060449D01*
X0807850Y0326039D01*
X0429740Y0326039D01*
X0502574Y0306512D02*
X0502576Y0306665D01*
X0502582Y0306819D01*
X0502592Y0306972D01*
X0502606Y0307124D01*
X0502624Y0307277D01*
X0502646Y0307428D01*
X0502671Y0307579D01*
X0502701Y0307730D01*
X0502735Y0307880D01*
X0502772Y0308028D01*
X0502813Y0308176D01*
X0502858Y0308322D01*
X0502907Y0308468D01*
X0502960Y0308612D01*
X0503016Y0308754D01*
X0503076Y0308895D01*
X0503140Y0309035D01*
X0503207Y0309173D01*
X0503278Y0309309D01*
X0503353Y0309443D01*
X0503430Y0309575D01*
X0503512Y0309705D01*
X0503596Y0309833D01*
X0503684Y0309959D01*
X0503775Y0310082D01*
X0503869Y0310203D01*
X0503967Y0310321D01*
X0504067Y0310437D01*
X0504171Y0310550D01*
X0504277Y0310661D01*
X0504386Y0310769D01*
X0504498Y0310874D01*
X0504612Y0310975D01*
X0504730Y0311074D01*
X0504849Y0311170D01*
X0504971Y0311263D01*
X0505096Y0311352D01*
X0505223Y0311439D01*
X0505352Y0311521D01*
X0505483Y0311601D01*
X0505616Y0311677D01*
X0505751Y0311750D01*
X0505888Y0311819D01*
X0506027Y0311884D01*
X0506167Y0311946D01*
X0506309Y0312004D01*
X0506452Y0312059D01*
X0506597Y0312110D01*
X0506743Y0312157D01*
X0506890Y0312200D01*
X0507038Y0312239D01*
X0507187Y0312275D01*
X0507337Y0312306D01*
X0507488Y0312334D01*
X0507639Y0312358D01*
X0507792Y0312378D01*
X0507944Y0312394D01*
X0508097Y0312406D01*
X0508250Y0312414D01*
X0508403Y0312418D01*
X0508557Y0312418D01*
X0508710Y0312414D01*
X0508863Y0312406D01*
X0509016Y0312394D01*
X0509168Y0312378D01*
X0509321Y0312358D01*
X0509472Y0312334D01*
X0509623Y0312306D01*
X0509773Y0312275D01*
X0509922Y0312239D01*
X0510070Y0312200D01*
X0510217Y0312157D01*
X0510363Y0312110D01*
X0510508Y0312059D01*
X0510651Y0312004D01*
X0510793Y0311946D01*
X0510933Y0311884D01*
X0511072Y0311819D01*
X0511209Y0311750D01*
X0511344Y0311677D01*
X0511477Y0311601D01*
X0511608Y0311521D01*
X0511737Y0311439D01*
X0511864Y0311352D01*
X0511989Y0311263D01*
X0512111Y0311170D01*
X0512230Y0311074D01*
X0512348Y0310975D01*
X0512462Y0310874D01*
X0512574Y0310769D01*
X0512683Y0310661D01*
X0512789Y0310550D01*
X0512893Y0310437D01*
X0512993Y0310321D01*
X0513091Y0310203D01*
X0513185Y0310082D01*
X0513276Y0309959D01*
X0513364Y0309833D01*
X0513448Y0309705D01*
X0513530Y0309575D01*
X0513607Y0309443D01*
X0513682Y0309309D01*
X0513753Y0309173D01*
X0513820Y0309035D01*
X0513884Y0308895D01*
X0513944Y0308754D01*
X0514000Y0308612D01*
X0514053Y0308468D01*
X0514102Y0308322D01*
X0514147Y0308176D01*
X0514188Y0308028D01*
X0514225Y0307880D01*
X0514259Y0307730D01*
X0514289Y0307579D01*
X0514314Y0307428D01*
X0514336Y0307277D01*
X0514354Y0307124D01*
X0514368Y0306972D01*
X0514378Y0306819D01*
X0514384Y0306665D01*
X0514386Y0306512D01*
X0514384Y0306359D01*
X0514378Y0306205D01*
X0514368Y0306052D01*
X0514354Y0305900D01*
X0514336Y0305747D01*
X0514314Y0305596D01*
X0514289Y0305445D01*
X0514259Y0305294D01*
X0514225Y0305144D01*
X0514188Y0304996D01*
X0514147Y0304848D01*
X0514102Y0304702D01*
X0514053Y0304556D01*
X0514000Y0304412D01*
X0513944Y0304270D01*
X0513884Y0304129D01*
X0513820Y0303989D01*
X0513753Y0303851D01*
X0513682Y0303715D01*
X0513607Y0303581D01*
X0513530Y0303449D01*
X0513448Y0303319D01*
X0513364Y0303191D01*
X0513276Y0303065D01*
X0513185Y0302942D01*
X0513091Y0302821D01*
X0512993Y0302703D01*
X0512893Y0302587D01*
X0512789Y0302474D01*
X0512683Y0302363D01*
X0512574Y0302255D01*
X0512462Y0302150D01*
X0512348Y0302049D01*
X0512230Y0301950D01*
X0512111Y0301854D01*
X0511989Y0301761D01*
X0511864Y0301672D01*
X0511737Y0301585D01*
X0511608Y0301503D01*
X0511477Y0301423D01*
X0511344Y0301347D01*
X0511209Y0301274D01*
X0511072Y0301205D01*
X0510933Y0301140D01*
X0510793Y0301078D01*
X0510651Y0301020D01*
X0510508Y0300965D01*
X0510363Y0300914D01*
X0510217Y0300867D01*
X0510070Y0300824D01*
X0509922Y0300785D01*
X0509773Y0300749D01*
X0509623Y0300718D01*
X0509472Y0300690D01*
X0509321Y0300666D01*
X0509168Y0300646D01*
X0509016Y0300630D01*
X0508863Y0300618D01*
X0508710Y0300610D01*
X0508557Y0300606D01*
X0508403Y0300606D01*
X0508250Y0300610D01*
X0508097Y0300618D01*
X0507944Y0300630D01*
X0507792Y0300646D01*
X0507639Y0300666D01*
X0507488Y0300690D01*
X0507337Y0300718D01*
X0507187Y0300749D01*
X0507038Y0300785D01*
X0506890Y0300824D01*
X0506743Y0300867D01*
X0506597Y0300914D01*
X0506452Y0300965D01*
X0506309Y0301020D01*
X0506167Y0301078D01*
X0506027Y0301140D01*
X0505888Y0301205D01*
X0505751Y0301274D01*
X0505616Y0301347D01*
X0505483Y0301423D01*
X0505352Y0301503D01*
X0505223Y0301585D01*
X0505096Y0301672D01*
X0504971Y0301761D01*
X0504849Y0301854D01*
X0504730Y0301950D01*
X0504612Y0302049D01*
X0504498Y0302150D01*
X0504386Y0302255D01*
X0504277Y0302363D01*
X0504171Y0302474D01*
X0504067Y0302587D01*
X0503967Y0302703D01*
X0503869Y0302821D01*
X0503775Y0302942D01*
X0503684Y0303065D01*
X0503596Y0303191D01*
X0503512Y0303319D01*
X0503430Y0303449D01*
X0503353Y0303581D01*
X0503278Y0303715D01*
X0503207Y0303851D01*
X0503140Y0303989D01*
X0503076Y0304129D01*
X0503016Y0304270D01*
X0502960Y0304412D01*
X0502907Y0304556D01*
X0502858Y0304702D01*
X0502813Y0304848D01*
X0502772Y0304996D01*
X0502735Y0305144D01*
X0502701Y0305294D01*
X0502671Y0305445D01*
X0502646Y0305596D01*
X0502624Y0305747D01*
X0502606Y0305900D01*
X0502592Y0306052D01*
X0502582Y0306205D01*
X0502576Y0306359D01*
X0502574Y0306512D01*
X0534070Y0306512D02*
X0534072Y0306665D01*
X0534078Y0306819D01*
X0534088Y0306972D01*
X0534102Y0307124D01*
X0534120Y0307277D01*
X0534142Y0307428D01*
X0534167Y0307579D01*
X0534197Y0307730D01*
X0534231Y0307880D01*
X0534268Y0308028D01*
X0534309Y0308176D01*
X0534354Y0308322D01*
X0534403Y0308468D01*
X0534456Y0308612D01*
X0534512Y0308754D01*
X0534572Y0308895D01*
X0534636Y0309035D01*
X0534703Y0309173D01*
X0534774Y0309309D01*
X0534849Y0309443D01*
X0534926Y0309575D01*
X0535008Y0309705D01*
X0535092Y0309833D01*
X0535180Y0309959D01*
X0535271Y0310082D01*
X0535365Y0310203D01*
X0535463Y0310321D01*
X0535563Y0310437D01*
X0535667Y0310550D01*
X0535773Y0310661D01*
X0535882Y0310769D01*
X0535994Y0310874D01*
X0536108Y0310975D01*
X0536226Y0311074D01*
X0536345Y0311170D01*
X0536467Y0311263D01*
X0536592Y0311352D01*
X0536719Y0311439D01*
X0536848Y0311521D01*
X0536979Y0311601D01*
X0537112Y0311677D01*
X0537247Y0311750D01*
X0537384Y0311819D01*
X0537523Y0311884D01*
X0537663Y0311946D01*
X0537805Y0312004D01*
X0537948Y0312059D01*
X0538093Y0312110D01*
X0538239Y0312157D01*
X0538386Y0312200D01*
X0538534Y0312239D01*
X0538683Y0312275D01*
X0538833Y0312306D01*
X0538984Y0312334D01*
X0539135Y0312358D01*
X0539288Y0312378D01*
X0539440Y0312394D01*
X0539593Y0312406D01*
X0539746Y0312414D01*
X0539899Y0312418D01*
X0540053Y0312418D01*
X0540206Y0312414D01*
X0540359Y0312406D01*
X0540512Y0312394D01*
X0540664Y0312378D01*
X0540817Y0312358D01*
X0540968Y0312334D01*
X0541119Y0312306D01*
X0541269Y0312275D01*
X0541418Y0312239D01*
X0541566Y0312200D01*
X0541713Y0312157D01*
X0541859Y0312110D01*
X0542004Y0312059D01*
X0542147Y0312004D01*
X0542289Y0311946D01*
X0542429Y0311884D01*
X0542568Y0311819D01*
X0542705Y0311750D01*
X0542840Y0311677D01*
X0542973Y0311601D01*
X0543104Y0311521D01*
X0543233Y0311439D01*
X0543360Y0311352D01*
X0543485Y0311263D01*
X0543607Y0311170D01*
X0543726Y0311074D01*
X0543844Y0310975D01*
X0543958Y0310874D01*
X0544070Y0310769D01*
X0544179Y0310661D01*
X0544285Y0310550D01*
X0544389Y0310437D01*
X0544489Y0310321D01*
X0544587Y0310203D01*
X0544681Y0310082D01*
X0544772Y0309959D01*
X0544860Y0309833D01*
X0544944Y0309705D01*
X0545026Y0309575D01*
X0545103Y0309443D01*
X0545178Y0309309D01*
X0545249Y0309173D01*
X0545316Y0309035D01*
X0545380Y0308895D01*
X0545440Y0308754D01*
X0545496Y0308612D01*
X0545549Y0308468D01*
X0545598Y0308322D01*
X0545643Y0308176D01*
X0545684Y0308028D01*
X0545721Y0307880D01*
X0545755Y0307730D01*
X0545785Y0307579D01*
X0545810Y0307428D01*
X0545832Y0307277D01*
X0545850Y0307124D01*
X0545864Y0306972D01*
X0545874Y0306819D01*
X0545880Y0306665D01*
X0545882Y0306512D01*
X0545880Y0306359D01*
X0545874Y0306205D01*
X0545864Y0306052D01*
X0545850Y0305900D01*
X0545832Y0305747D01*
X0545810Y0305596D01*
X0545785Y0305445D01*
X0545755Y0305294D01*
X0545721Y0305144D01*
X0545684Y0304996D01*
X0545643Y0304848D01*
X0545598Y0304702D01*
X0545549Y0304556D01*
X0545496Y0304412D01*
X0545440Y0304270D01*
X0545380Y0304129D01*
X0545316Y0303989D01*
X0545249Y0303851D01*
X0545178Y0303715D01*
X0545103Y0303581D01*
X0545026Y0303449D01*
X0544944Y0303319D01*
X0544860Y0303191D01*
X0544772Y0303065D01*
X0544681Y0302942D01*
X0544587Y0302821D01*
X0544489Y0302703D01*
X0544389Y0302587D01*
X0544285Y0302474D01*
X0544179Y0302363D01*
X0544070Y0302255D01*
X0543958Y0302150D01*
X0543844Y0302049D01*
X0543726Y0301950D01*
X0543607Y0301854D01*
X0543485Y0301761D01*
X0543360Y0301672D01*
X0543233Y0301585D01*
X0543104Y0301503D01*
X0542973Y0301423D01*
X0542840Y0301347D01*
X0542705Y0301274D01*
X0542568Y0301205D01*
X0542429Y0301140D01*
X0542289Y0301078D01*
X0542147Y0301020D01*
X0542004Y0300965D01*
X0541859Y0300914D01*
X0541713Y0300867D01*
X0541566Y0300824D01*
X0541418Y0300785D01*
X0541269Y0300749D01*
X0541119Y0300718D01*
X0540968Y0300690D01*
X0540817Y0300666D01*
X0540664Y0300646D01*
X0540512Y0300630D01*
X0540359Y0300618D01*
X0540206Y0300610D01*
X0540053Y0300606D01*
X0539899Y0300606D01*
X0539746Y0300610D01*
X0539593Y0300618D01*
X0539440Y0300630D01*
X0539288Y0300646D01*
X0539135Y0300666D01*
X0538984Y0300690D01*
X0538833Y0300718D01*
X0538683Y0300749D01*
X0538534Y0300785D01*
X0538386Y0300824D01*
X0538239Y0300867D01*
X0538093Y0300914D01*
X0537948Y0300965D01*
X0537805Y0301020D01*
X0537663Y0301078D01*
X0537523Y0301140D01*
X0537384Y0301205D01*
X0537247Y0301274D01*
X0537112Y0301347D01*
X0536979Y0301423D01*
X0536848Y0301503D01*
X0536719Y0301585D01*
X0536592Y0301672D01*
X0536467Y0301761D01*
X0536345Y0301854D01*
X0536226Y0301950D01*
X0536108Y0302049D01*
X0535994Y0302150D01*
X0535882Y0302255D01*
X0535773Y0302363D01*
X0535667Y0302474D01*
X0535563Y0302587D01*
X0535463Y0302703D01*
X0535365Y0302821D01*
X0535271Y0302942D01*
X0535180Y0303065D01*
X0535092Y0303191D01*
X0535008Y0303319D01*
X0534926Y0303449D01*
X0534849Y0303581D01*
X0534774Y0303715D01*
X0534703Y0303851D01*
X0534636Y0303989D01*
X0534572Y0304129D01*
X0534512Y0304270D01*
X0534456Y0304412D01*
X0534403Y0304556D01*
X0534354Y0304702D01*
X0534309Y0304848D01*
X0534268Y0304996D01*
X0534231Y0305144D01*
X0534197Y0305294D01*
X0534167Y0305445D01*
X0534142Y0305596D01*
X0534120Y0305747D01*
X0534102Y0305900D01*
X0534088Y0306052D01*
X0534078Y0306205D01*
X0534072Y0306359D01*
X0534070Y0306512D01*
X0480921Y0275016D02*
X0756512Y0275016D01*
X0756513Y0275015D02*
X0756550Y0275120D01*
X0756590Y0275223D01*
X0756635Y0275325D01*
X0756683Y0275425D01*
X0756734Y0275524D01*
X0756789Y0275620D01*
X0756848Y0275715D01*
X0756909Y0275807D01*
X0756974Y0275897D01*
X0757043Y0275985D01*
X0757114Y0276070D01*
X0757188Y0276152D01*
X0757265Y0276232D01*
X0757345Y0276309D01*
X0757428Y0276384D01*
X0757513Y0276455D01*
X0757601Y0276523D01*
X0757691Y0276588D01*
X0757783Y0276649D01*
X0757878Y0276708D01*
X0757974Y0276763D01*
X0758073Y0276814D01*
X0758173Y0276862D01*
X0758275Y0276906D01*
X0758378Y0276947D01*
X0758483Y0276984D01*
X0758589Y0277017D01*
X0758696Y0277047D01*
X0758804Y0277072D01*
X0758913Y0277094D01*
X0759023Y0277111D01*
X0759133Y0277125D01*
X0759244Y0277135D01*
X0759354Y0277141D01*
X0759466Y0277143D01*
X0759577Y0277141D01*
X0759687Y0277135D01*
X0759798Y0277125D01*
X0759908Y0277111D01*
X0760018Y0277093D01*
X0760127Y0277072D01*
X0760235Y0277046D01*
X0760342Y0277017D01*
X0760448Y0276984D01*
X0760553Y0276947D01*
X0760656Y0276906D01*
X0760758Y0276862D01*
X0760858Y0276814D01*
X0760957Y0276762D01*
X0761053Y0276707D01*
X0761148Y0276649D01*
X0761240Y0276587D01*
X0761330Y0276522D01*
X0761418Y0276454D01*
X0761503Y0276383D01*
X0761586Y0276309D01*
X0761666Y0276232D01*
X0761743Y0276152D01*
X0761817Y0276069D01*
X0761888Y0275984D01*
X0761956Y0275896D01*
X0762021Y0275806D01*
X0762083Y0275714D01*
X0762141Y0275619D01*
X0762196Y0275523D01*
X0762248Y0275424D01*
X0762296Y0275324D01*
X0762340Y0275222D01*
X0762381Y0275119D01*
X0762418Y0275014D01*
X0762451Y0274908D01*
X0762480Y0274801D01*
X0762506Y0274693D01*
X0762527Y0274584D01*
X0762545Y0274474D01*
X0762559Y0274364D01*
X0762569Y0274253D01*
X0762575Y0274143D01*
X0762577Y0274032D01*
X0762575Y0273920D01*
X0762569Y0273810D01*
X0762559Y0273699D01*
X0762545Y0273589D01*
X0762528Y0273479D01*
X0762506Y0273370D01*
X0762481Y0273262D01*
X0762451Y0273155D01*
X0762418Y0273049D01*
X0762381Y0272944D01*
X0762340Y0272841D01*
X0762296Y0272739D01*
X0762248Y0272639D01*
X0762197Y0272540D01*
X0762142Y0272444D01*
X0762083Y0272349D01*
X0762022Y0272257D01*
X0761957Y0272167D01*
X0761889Y0272079D01*
X0761818Y0271994D01*
X0761743Y0271911D01*
X0761666Y0271831D01*
X0761586Y0271754D01*
X0761504Y0271680D01*
X0761419Y0271609D01*
X0761331Y0271540D01*
X0761241Y0271475D01*
X0761149Y0271414D01*
X0761054Y0271355D01*
X0760958Y0271300D01*
X0760859Y0271249D01*
X0760759Y0271201D01*
X0760657Y0271156D01*
X0760554Y0271116D01*
X0760449Y0271079D01*
X0760449Y0172654D01*
X0760449Y0172653D02*
X0760554Y0172616D01*
X0760657Y0172576D01*
X0760759Y0172531D01*
X0760859Y0172483D01*
X0760958Y0172432D01*
X0761054Y0172377D01*
X0761149Y0172318D01*
X0761241Y0172257D01*
X0761331Y0172192D01*
X0761419Y0172123D01*
X0761504Y0172052D01*
X0761586Y0171978D01*
X0761666Y0171901D01*
X0761743Y0171821D01*
X0761818Y0171738D01*
X0761889Y0171653D01*
X0761957Y0171565D01*
X0762022Y0171475D01*
X0762083Y0171383D01*
X0762142Y0171288D01*
X0762197Y0171192D01*
X0762248Y0171093D01*
X0762296Y0170993D01*
X0762340Y0170891D01*
X0762381Y0170788D01*
X0762418Y0170683D01*
X0762451Y0170577D01*
X0762481Y0170470D01*
X0762506Y0170362D01*
X0762528Y0170253D01*
X0762545Y0170143D01*
X0762559Y0170033D01*
X0762569Y0169922D01*
X0762575Y0169812D01*
X0762577Y0169700D01*
X0762575Y0169589D01*
X0762569Y0169479D01*
X0762559Y0169368D01*
X0762545Y0169258D01*
X0762527Y0169148D01*
X0762506Y0169039D01*
X0762480Y0168931D01*
X0762451Y0168824D01*
X0762418Y0168718D01*
X0762381Y0168613D01*
X0762340Y0168510D01*
X0762296Y0168408D01*
X0762248Y0168308D01*
X0762196Y0168209D01*
X0762141Y0168113D01*
X0762083Y0168018D01*
X0762021Y0167926D01*
X0761956Y0167836D01*
X0761888Y0167748D01*
X0761817Y0167663D01*
X0761743Y0167580D01*
X0761666Y0167500D01*
X0761586Y0167423D01*
X0761503Y0167349D01*
X0761418Y0167278D01*
X0761330Y0167210D01*
X0761240Y0167145D01*
X0761148Y0167083D01*
X0761053Y0167025D01*
X0760957Y0166970D01*
X0760858Y0166918D01*
X0760758Y0166870D01*
X0760656Y0166826D01*
X0760553Y0166785D01*
X0760448Y0166748D01*
X0760342Y0166715D01*
X0760235Y0166686D01*
X0760127Y0166660D01*
X0760018Y0166639D01*
X0759908Y0166621D01*
X0759798Y0166607D01*
X0759687Y0166597D01*
X0759577Y0166591D01*
X0759466Y0166589D01*
X0759354Y0166591D01*
X0759244Y0166597D01*
X0759133Y0166607D01*
X0759023Y0166621D01*
X0758913Y0166638D01*
X0758804Y0166660D01*
X0758696Y0166685D01*
X0758589Y0166715D01*
X0758483Y0166748D01*
X0758378Y0166785D01*
X0758275Y0166826D01*
X0758173Y0166870D01*
X0758073Y0166918D01*
X0757974Y0166969D01*
X0757878Y0167024D01*
X0757783Y0167083D01*
X0757691Y0167144D01*
X0757601Y0167209D01*
X0757513Y0167277D01*
X0757428Y0167348D01*
X0757345Y0167423D01*
X0757265Y0167500D01*
X0757188Y0167580D01*
X0757114Y0167662D01*
X0757043Y0167747D01*
X0756974Y0167835D01*
X0756909Y0167925D01*
X0756848Y0168017D01*
X0756789Y0168112D01*
X0756734Y0168208D01*
X0756683Y0168307D01*
X0756635Y0168407D01*
X0756590Y0168509D01*
X0756550Y0168612D01*
X0756513Y0168717D01*
X0756512Y0168717D02*
X0480921Y0168717D01*
X0480884Y0168612D01*
X0480844Y0168509D01*
X0480799Y0168407D01*
X0480751Y0168307D01*
X0480700Y0168208D01*
X0480645Y0168112D01*
X0480586Y0168017D01*
X0480525Y0167925D01*
X0480460Y0167835D01*
X0480391Y0167747D01*
X0480320Y0167662D01*
X0480246Y0167580D01*
X0480169Y0167500D01*
X0480089Y0167423D01*
X0480006Y0167348D01*
X0479921Y0167277D01*
X0479833Y0167209D01*
X0479743Y0167144D01*
X0479651Y0167083D01*
X0479556Y0167024D01*
X0479460Y0166969D01*
X0479361Y0166918D01*
X0479261Y0166870D01*
X0479159Y0166826D01*
X0479056Y0166785D01*
X0478951Y0166748D01*
X0478845Y0166715D01*
X0478738Y0166685D01*
X0478630Y0166660D01*
X0478521Y0166638D01*
X0478411Y0166621D01*
X0478301Y0166607D01*
X0478190Y0166597D01*
X0478080Y0166591D01*
X0477968Y0166589D01*
X0477857Y0166591D01*
X0477747Y0166597D01*
X0477636Y0166607D01*
X0477526Y0166621D01*
X0477416Y0166639D01*
X0477307Y0166660D01*
X0477199Y0166686D01*
X0477092Y0166715D01*
X0476986Y0166748D01*
X0476881Y0166785D01*
X0476778Y0166826D01*
X0476676Y0166870D01*
X0476576Y0166918D01*
X0476477Y0166970D01*
X0476381Y0167025D01*
X0476286Y0167083D01*
X0476194Y0167145D01*
X0476104Y0167210D01*
X0476016Y0167278D01*
X0475931Y0167349D01*
X0475848Y0167423D01*
X0475768Y0167500D01*
X0475691Y0167580D01*
X0475617Y0167663D01*
X0475546Y0167748D01*
X0475478Y0167836D01*
X0475413Y0167926D01*
X0475351Y0168018D01*
X0475293Y0168113D01*
X0475238Y0168209D01*
X0475186Y0168308D01*
X0475138Y0168408D01*
X0475094Y0168510D01*
X0475053Y0168613D01*
X0475016Y0168718D01*
X0474983Y0168824D01*
X0474954Y0168931D01*
X0474928Y0169039D01*
X0474907Y0169148D01*
X0474889Y0169258D01*
X0474875Y0169368D01*
X0474865Y0169479D01*
X0474859Y0169589D01*
X0474857Y0169700D01*
X0474859Y0169812D01*
X0474865Y0169922D01*
X0474875Y0170033D01*
X0474889Y0170143D01*
X0474906Y0170253D01*
X0474928Y0170362D01*
X0474953Y0170470D01*
X0474983Y0170577D01*
X0475016Y0170683D01*
X0475053Y0170788D01*
X0475094Y0170891D01*
X0475138Y0170993D01*
X0475186Y0171093D01*
X0475237Y0171192D01*
X0475292Y0171288D01*
X0475351Y0171383D01*
X0475412Y0171475D01*
X0475477Y0171565D01*
X0475545Y0171653D01*
X0475616Y0171738D01*
X0475691Y0171821D01*
X0475768Y0171901D01*
X0475848Y0171978D01*
X0475930Y0172052D01*
X0476015Y0172123D01*
X0476103Y0172192D01*
X0476193Y0172257D01*
X0476285Y0172318D01*
X0476380Y0172377D01*
X0476476Y0172432D01*
X0476575Y0172483D01*
X0476675Y0172531D01*
X0476777Y0172576D01*
X0476880Y0172616D01*
X0476985Y0172653D01*
X0476984Y0172654D02*
X0476984Y0271079D01*
X0476985Y0271079D02*
X0476880Y0271116D01*
X0476777Y0271156D01*
X0476675Y0271201D01*
X0476575Y0271249D01*
X0476476Y0271300D01*
X0476380Y0271355D01*
X0476285Y0271414D01*
X0476193Y0271475D01*
X0476103Y0271540D01*
X0476015Y0271609D01*
X0475930Y0271680D01*
X0475848Y0271754D01*
X0475768Y0271831D01*
X0475691Y0271911D01*
X0475616Y0271994D01*
X0475545Y0272079D01*
X0475477Y0272167D01*
X0475412Y0272257D01*
X0475351Y0272349D01*
X0475292Y0272444D01*
X0475237Y0272540D01*
X0475186Y0272639D01*
X0475138Y0272739D01*
X0475094Y0272841D01*
X0475053Y0272944D01*
X0475016Y0273049D01*
X0474983Y0273155D01*
X0474953Y0273262D01*
X0474928Y0273370D01*
X0474906Y0273479D01*
X0474889Y0273589D01*
X0474875Y0273699D01*
X0474865Y0273810D01*
X0474859Y0273920D01*
X0474857Y0274032D01*
X0474859Y0274143D01*
X0474865Y0274253D01*
X0474875Y0274364D01*
X0474889Y0274474D01*
X0474907Y0274584D01*
X0474928Y0274693D01*
X0474954Y0274801D01*
X0474983Y0274908D01*
X0475016Y0275014D01*
X0475053Y0275119D01*
X0475094Y0275222D01*
X0475138Y0275324D01*
X0475186Y0275424D01*
X0475238Y0275523D01*
X0475293Y0275619D01*
X0475351Y0275714D01*
X0475413Y0275806D01*
X0475478Y0275896D01*
X0475546Y0275984D01*
X0475617Y0276069D01*
X0475691Y0276152D01*
X0475768Y0276232D01*
X0475848Y0276309D01*
X0475931Y0276383D01*
X0476016Y0276454D01*
X0476104Y0276522D01*
X0476194Y0276587D01*
X0476286Y0276649D01*
X0476381Y0276707D01*
X0476477Y0276762D01*
X0476576Y0276814D01*
X0476676Y0276862D01*
X0476778Y0276906D01*
X0476881Y0276947D01*
X0476986Y0276984D01*
X0477092Y0277017D01*
X0477199Y0277046D01*
X0477307Y0277072D01*
X0477416Y0277093D01*
X0477526Y0277111D01*
X0477636Y0277125D01*
X0477747Y0277135D01*
X0477857Y0277141D01*
X0477968Y0277143D01*
X0478080Y0277141D01*
X0478190Y0277135D01*
X0478301Y0277125D01*
X0478411Y0277111D01*
X0478521Y0277094D01*
X0478630Y0277072D01*
X0478738Y0277047D01*
X0478845Y0277017D01*
X0478951Y0276984D01*
X0479056Y0276947D01*
X0479159Y0276906D01*
X0479261Y0276862D01*
X0479361Y0276814D01*
X0479460Y0276763D01*
X0479556Y0276708D01*
X0479651Y0276649D01*
X0479743Y0276588D01*
X0479833Y0276523D01*
X0479921Y0276455D01*
X0480006Y0276384D01*
X0480089Y0276309D01*
X0480169Y0276232D01*
X0480246Y0276152D01*
X0480320Y0276070D01*
X0480391Y0275985D01*
X0480460Y0275897D01*
X0480525Y0275807D01*
X0480586Y0275715D01*
X0480645Y0275620D01*
X0480700Y0275524D01*
X0480751Y0275425D01*
X0480799Y0275325D01*
X0480844Y0275223D01*
X0480884Y0275120D01*
X0480921Y0275015D01*
X0429740Y0379346D02*
X0429740Y0023047D01*
X0439425Y0075606D02*
X0439427Y0075759D01*
X0439433Y0075913D01*
X0439443Y0076066D01*
X0439457Y0076218D01*
X0439475Y0076371D01*
X0439497Y0076522D01*
X0439522Y0076673D01*
X0439552Y0076824D01*
X0439586Y0076974D01*
X0439623Y0077122D01*
X0439664Y0077270D01*
X0439709Y0077416D01*
X0439758Y0077562D01*
X0439811Y0077706D01*
X0439867Y0077848D01*
X0439927Y0077989D01*
X0439991Y0078129D01*
X0440058Y0078267D01*
X0440129Y0078403D01*
X0440204Y0078537D01*
X0440281Y0078669D01*
X0440363Y0078799D01*
X0440447Y0078927D01*
X0440535Y0079053D01*
X0440626Y0079176D01*
X0440720Y0079297D01*
X0440818Y0079415D01*
X0440918Y0079531D01*
X0441022Y0079644D01*
X0441128Y0079755D01*
X0441237Y0079863D01*
X0441349Y0079968D01*
X0441463Y0080069D01*
X0441581Y0080168D01*
X0441700Y0080264D01*
X0441822Y0080357D01*
X0441947Y0080446D01*
X0442074Y0080533D01*
X0442203Y0080615D01*
X0442334Y0080695D01*
X0442467Y0080771D01*
X0442602Y0080844D01*
X0442739Y0080913D01*
X0442878Y0080978D01*
X0443018Y0081040D01*
X0443160Y0081098D01*
X0443303Y0081153D01*
X0443448Y0081204D01*
X0443594Y0081251D01*
X0443741Y0081294D01*
X0443889Y0081333D01*
X0444038Y0081369D01*
X0444188Y0081400D01*
X0444339Y0081428D01*
X0444490Y0081452D01*
X0444643Y0081472D01*
X0444795Y0081488D01*
X0444948Y0081500D01*
X0445101Y0081508D01*
X0445254Y0081512D01*
X0445408Y0081512D01*
X0445561Y0081508D01*
X0445714Y0081500D01*
X0445867Y0081488D01*
X0446019Y0081472D01*
X0446172Y0081452D01*
X0446323Y0081428D01*
X0446474Y0081400D01*
X0446624Y0081369D01*
X0446773Y0081333D01*
X0446921Y0081294D01*
X0447068Y0081251D01*
X0447214Y0081204D01*
X0447359Y0081153D01*
X0447502Y0081098D01*
X0447644Y0081040D01*
X0447784Y0080978D01*
X0447923Y0080913D01*
X0448060Y0080844D01*
X0448195Y0080771D01*
X0448328Y0080695D01*
X0448459Y0080615D01*
X0448588Y0080533D01*
X0448715Y0080446D01*
X0448840Y0080357D01*
X0448962Y0080264D01*
X0449081Y0080168D01*
X0449199Y0080069D01*
X0449313Y0079968D01*
X0449425Y0079863D01*
X0449534Y0079755D01*
X0449640Y0079644D01*
X0449744Y0079531D01*
X0449844Y0079415D01*
X0449942Y0079297D01*
X0450036Y0079176D01*
X0450127Y0079053D01*
X0450215Y0078927D01*
X0450299Y0078799D01*
X0450381Y0078669D01*
X0450458Y0078537D01*
X0450533Y0078403D01*
X0450604Y0078267D01*
X0450671Y0078129D01*
X0450735Y0077989D01*
X0450795Y0077848D01*
X0450851Y0077706D01*
X0450904Y0077562D01*
X0450953Y0077416D01*
X0450998Y0077270D01*
X0451039Y0077122D01*
X0451076Y0076974D01*
X0451110Y0076824D01*
X0451140Y0076673D01*
X0451165Y0076522D01*
X0451187Y0076371D01*
X0451205Y0076218D01*
X0451219Y0076066D01*
X0451229Y0075913D01*
X0451235Y0075759D01*
X0451237Y0075606D01*
X0451235Y0075453D01*
X0451229Y0075299D01*
X0451219Y0075146D01*
X0451205Y0074994D01*
X0451187Y0074841D01*
X0451165Y0074690D01*
X0451140Y0074539D01*
X0451110Y0074388D01*
X0451076Y0074238D01*
X0451039Y0074090D01*
X0450998Y0073942D01*
X0450953Y0073796D01*
X0450904Y0073650D01*
X0450851Y0073506D01*
X0450795Y0073364D01*
X0450735Y0073223D01*
X0450671Y0073083D01*
X0450604Y0072945D01*
X0450533Y0072809D01*
X0450458Y0072675D01*
X0450381Y0072543D01*
X0450299Y0072413D01*
X0450215Y0072285D01*
X0450127Y0072159D01*
X0450036Y0072036D01*
X0449942Y0071915D01*
X0449844Y0071797D01*
X0449744Y0071681D01*
X0449640Y0071568D01*
X0449534Y0071457D01*
X0449425Y0071349D01*
X0449313Y0071244D01*
X0449199Y0071143D01*
X0449081Y0071044D01*
X0448962Y0070948D01*
X0448840Y0070855D01*
X0448715Y0070766D01*
X0448588Y0070679D01*
X0448459Y0070597D01*
X0448328Y0070517D01*
X0448195Y0070441D01*
X0448060Y0070368D01*
X0447923Y0070299D01*
X0447784Y0070234D01*
X0447644Y0070172D01*
X0447502Y0070114D01*
X0447359Y0070059D01*
X0447214Y0070008D01*
X0447068Y0069961D01*
X0446921Y0069918D01*
X0446773Y0069879D01*
X0446624Y0069843D01*
X0446474Y0069812D01*
X0446323Y0069784D01*
X0446172Y0069760D01*
X0446019Y0069740D01*
X0445867Y0069724D01*
X0445714Y0069712D01*
X0445561Y0069704D01*
X0445408Y0069700D01*
X0445254Y0069700D01*
X0445101Y0069704D01*
X0444948Y0069712D01*
X0444795Y0069724D01*
X0444643Y0069740D01*
X0444490Y0069760D01*
X0444339Y0069784D01*
X0444188Y0069812D01*
X0444038Y0069843D01*
X0443889Y0069879D01*
X0443741Y0069918D01*
X0443594Y0069961D01*
X0443448Y0070008D01*
X0443303Y0070059D01*
X0443160Y0070114D01*
X0443018Y0070172D01*
X0442878Y0070234D01*
X0442739Y0070299D01*
X0442602Y0070368D01*
X0442467Y0070441D01*
X0442334Y0070517D01*
X0442203Y0070597D01*
X0442074Y0070679D01*
X0441947Y0070766D01*
X0441822Y0070855D01*
X0441700Y0070948D01*
X0441581Y0071044D01*
X0441463Y0071143D01*
X0441349Y0071244D01*
X0441237Y0071349D01*
X0441128Y0071457D01*
X0441022Y0071568D01*
X0440918Y0071681D01*
X0440818Y0071797D01*
X0440720Y0071915D01*
X0440626Y0072036D01*
X0440535Y0072159D01*
X0440447Y0072285D01*
X0440363Y0072413D01*
X0440281Y0072543D01*
X0440204Y0072675D01*
X0440129Y0072809D01*
X0440058Y0072945D01*
X0439991Y0073083D01*
X0439927Y0073223D01*
X0439867Y0073364D01*
X0439811Y0073506D01*
X0439758Y0073650D01*
X0439709Y0073796D01*
X0439664Y0073942D01*
X0439623Y0074090D01*
X0439586Y0074238D01*
X0439552Y0074388D01*
X0439522Y0074539D01*
X0439497Y0074690D01*
X0439475Y0074841D01*
X0439457Y0074994D01*
X0439443Y0075146D01*
X0439433Y0075299D01*
X0439427Y0075453D01*
X0439425Y0075606D01*
X0354937Y0113598D02*
X0354939Y0113751D01*
X0354945Y0113905D01*
X0354955Y0114058D01*
X0354969Y0114210D01*
X0354987Y0114363D01*
X0355009Y0114514D01*
X0355034Y0114665D01*
X0355064Y0114816D01*
X0355098Y0114966D01*
X0355135Y0115114D01*
X0355176Y0115262D01*
X0355221Y0115408D01*
X0355270Y0115554D01*
X0355323Y0115698D01*
X0355379Y0115840D01*
X0355439Y0115981D01*
X0355503Y0116121D01*
X0355570Y0116259D01*
X0355641Y0116395D01*
X0355716Y0116529D01*
X0355793Y0116661D01*
X0355875Y0116791D01*
X0355959Y0116919D01*
X0356047Y0117045D01*
X0356138Y0117168D01*
X0356232Y0117289D01*
X0356330Y0117407D01*
X0356430Y0117523D01*
X0356534Y0117636D01*
X0356640Y0117747D01*
X0356749Y0117855D01*
X0356861Y0117960D01*
X0356975Y0118061D01*
X0357093Y0118160D01*
X0357212Y0118256D01*
X0357334Y0118349D01*
X0357459Y0118438D01*
X0357586Y0118525D01*
X0357715Y0118607D01*
X0357846Y0118687D01*
X0357979Y0118763D01*
X0358114Y0118836D01*
X0358251Y0118905D01*
X0358390Y0118970D01*
X0358530Y0119032D01*
X0358672Y0119090D01*
X0358815Y0119145D01*
X0358960Y0119196D01*
X0359106Y0119243D01*
X0359253Y0119286D01*
X0359401Y0119325D01*
X0359550Y0119361D01*
X0359700Y0119392D01*
X0359851Y0119420D01*
X0360002Y0119444D01*
X0360155Y0119464D01*
X0360307Y0119480D01*
X0360460Y0119492D01*
X0360613Y0119500D01*
X0360766Y0119504D01*
X0360920Y0119504D01*
X0361073Y0119500D01*
X0361226Y0119492D01*
X0361379Y0119480D01*
X0361531Y0119464D01*
X0361684Y0119444D01*
X0361835Y0119420D01*
X0361986Y0119392D01*
X0362136Y0119361D01*
X0362285Y0119325D01*
X0362433Y0119286D01*
X0362580Y0119243D01*
X0362726Y0119196D01*
X0362871Y0119145D01*
X0363014Y0119090D01*
X0363156Y0119032D01*
X0363296Y0118970D01*
X0363435Y0118905D01*
X0363572Y0118836D01*
X0363707Y0118763D01*
X0363840Y0118687D01*
X0363971Y0118607D01*
X0364100Y0118525D01*
X0364227Y0118438D01*
X0364352Y0118349D01*
X0364474Y0118256D01*
X0364593Y0118160D01*
X0364711Y0118061D01*
X0364825Y0117960D01*
X0364937Y0117855D01*
X0365046Y0117747D01*
X0365152Y0117636D01*
X0365256Y0117523D01*
X0365356Y0117407D01*
X0365454Y0117289D01*
X0365548Y0117168D01*
X0365639Y0117045D01*
X0365727Y0116919D01*
X0365811Y0116791D01*
X0365893Y0116661D01*
X0365970Y0116529D01*
X0366045Y0116395D01*
X0366116Y0116259D01*
X0366183Y0116121D01*
X0366247Y0115981D01*
X0366307Y0115840D01*
X0366363Y0115698D01*
X0366416Y0115554D01*
X0366465Y0115408D01*
X0366510Y0115262D01*
X0366551Y0115114D01*
X0366588Y0114966D01*
X0366622Y0114816D01*
X0366652Y0114665D01*
X0366677Y0114514D01*
X0366699Y0114363D01*
X0366717Y0114210D01*
X0366731Y0114058D01*
X0366741Y0113905D01*
X0366747Y0113751D01*
X0366749Y0113598D01*
X0366747Y0113445D01*
X0366741Y0113291D01*
X0366731Y0113138D01*
X0366717Y0112986D01*
X0366699Y0112833D01*
X0366677Y0112682D01*
X0366652Y0112531D01*
X0366622Y0112380D01*
X0366588Y0112230D01*
X0366551Y0112082D01*
X0366510Y0111934D01*
X0366465Y0111788D01*
X0366416Y0111642D01*
X0366363Y0111498D01*
X0366307Y0111356D01*
X0366247Y0111215D01*
X0366183Y0111075D01*
X0366116Y0110937D01*
X0366045Y0110801D01*
X0365970Y0110667D01*
X0365893Y0110535D01*
X0365811Y0110405D01*
X0365727Y0110277D01*
X0365639Y0110151D01*
X0365548Y0110028D01*
X0365454Y0109907D01*
X0365356Y0109789D01*
X0365256Y0109673D01*
X0365152Y0109560D01*
X0365046Y0109449D01*
X0364937Y0109341D01*
X0364825Y0109236D01*
X0364711Y0109135D01*
X0364593Y0109036D01*
X0364474Y0108940D01*
X0364352Y0108847D01*
X0364227Y0108758D01*
X0364100Y0108671D01*
X0363971Y0108589D01*
X0363840Y0108509D01*
X0363707Y0108433D01*
X0363572Y0108360D01*
X0363435Y0108291D01*
X0363296Y0108226D01*
X0363156Y0108164D01*
X0363014Y0108106D01*
X0362871Y0108051D01*
X0362726Y0108000D01*
X0362580Y0107953D01*
X0362433Y0107910D01*
X0362285Y0107871D01*
X0362136Y0107835D01*
X0361986Y0107804D01*
X0361835Y0107776D01*
X0361684Y0107752D01*
X0361531Y0107732D01*
X0361379Y0107716D01*
X0361226Y0107704D01*
X0361073Y0107696D01*
X0360920Y0107692D01*
X0360766Y0107692D01*
X0360613Y0107696D01*
X0360460Y0107704D01*
X0360307Y0107716D01*
X0360155Y0107732D01*
X0360002Y0107752D01*
X0359851Y0107776D01*
X0359700Y0107804D01*
X0359550Y0107835D01*
X0359401Y0107871D01*
X0359253Y0107910D01*
X0359106Y0107953D01*
X0358960Y0108000D01*
X0358815Y0108051D01*
X0358672Y0108106D01*
X0358530Y0108164D01*
X0358390Y0108226D01*
X0358251Y0108291D01*
X0358114Y0108360D01*
X0357979Y0108433D01*
X0357846Y0108509D01*
X0357715Y0108589D01*
X0357586Y0108671D01*
X0357459Y0108758D01*
X0357334Y0108847D01*
X0357212Y0108940D01*
X0357093Y0109036D01*
X0356975Y0109135D01*
X0356861Y0109236D01*
X0356749Y0109341D01*
X0356640Y0109449D01*
X0356534Y0109560D01*
X0356430Y0109673D01*
X0356330Y0109789D01*
X0356232Y0109907D01*
X0356138Y0110028D01*
X0356047Y0110151D01*
X0355959Y0110277D01*
X0355875Y0110405D01*
X0355793Y0110535D01*
X0355716Y0110667D01*
X0355641Y0110801D01*
X0355570Y0110937D01*
X0355503Y0111075D01*
X0355439Y0111215D01*
X0355379Y0111356D01*
X0355323Y0111498D01*
X0355270Y0111642D01*
X0355221Y0111788D01*
X0355176Y0111934D01*
X0355135Y0112082D01*
X0355098Y0112230D01*
X0355064Y0112380D01*
X0355034Y0112531D01*
X0355009Y0112682D01*
X0354987Y0112833D01*
X0354969Y0112986D01*
X0354955Y0113138D01*
X0354945Y0113291D01*
X0354939Y0113445D01*
X0354937Y0113598D01*
X0382496Y0160843D02*
X0382498Y0161036D01*
X0382505Y0161229D01*
X0382517Y0161422D01*
X0382534Y0161615D01*
X0382555Y0161807D01*
X0382581Y0161998D01*
X0382612Y0162189D01*
X0382647Y0162379D01*
X0382687Y0162568D01*
X0382732Y0162756D01*
X0382781Y0162943D01*
X0382835Y0163129D01*
X0382893Y0163313D01*
X0382956Y0163496D01*
X0383024Y0163677D01*
X0383095Y0163856D01*
X0383172Y0164034D01*
X0383252Y0164210D01*
X0383337Y0164383D01*
X0383426Y0164555D01*
X0383519Y0164724D01*
X0383616Y0164891D01*
X0383718Y0165056D01*
X0383823Y0165218D01*
X0383932Y0165377D01*
X0384046Y0165534D01*
X0384163Y0165687D01*
X0384283Y0165838D01*
X0384408Y0165986D01*
X0384536Y0166131D01*
X0384667Y0166272D01*
X0384802Y0166411D01*
X0384941Y0166546D01*
X0385082Y0166677D01*
X0385227Y0166805D01*
X0385375Y0166930D01*
X0385526Y0167050D01*
X0385679Y0167167D01*
X0385836Y0167281D01*
X0385995Y0167390D01*
X0386157Y0167495D01*
X0386322Y0167597D01*
X0386489Y0167694D01*
X0386658Y0167787D01*
X0386830Y0167876D01*
X0387003Y0167961D01*
X0387179Y0168041D01*
X0387357Y0168118D01*
X0387536Y0168189D01*
X0387717Y0168257D01*
X0387900Y0168320D01*
X0388084Y0168378D01*
X0388270Y0168432D01*
X0388457Y0168481D01*
X0388645Y0168526D01*
X0388834Y0168566D01*
X0389024Y0168601D01*
X0389215Y0168632D01*
X0389406Y0168658D01*
X0389598Y0168679D01*
X0389791Y0168696D01*
X0389984Y0168708D01*
X0390177Y0168715D01*
X0390370Y0168717D01*
X0390563Y0168715D01*
X0390756Y0168708D01*
X0390949Y0168696D01*
X0391142Y0168679D01*
X0391334Y0168658D01*
X0391525Y0168632D01*
X0391716Y0168601D01*
X0391906Y0168566D01*
X0392095Y0168526D01*
X0392283Y0168481D01*
X0392470Y0168432D01*
X0392656Y0168378D01*
X0392840Y0168320D01*
X0393023Y0168257D01*
X0393204Y0168189D01*
X0393383Y0168118D01*
X0393561Y0168041D01*
X0393737Y0167961D01*
X0393910Y0167876D01*
X0394082Y0167787D01*
X0394251Y0167694D01*
X0394418Y0167597D01*
X0394583Y0167495D01*
X0394745Y0167390D01*
X0394904Y0167281D01*
X0395061Y0167167D01*
X0395214Y0167050D01*
X0395365Y0166930D01*
X0395513Y0166805D01*
X0395658Y0166677D01*
X0395799Y0166546D01*
X0395938Y0166411D01*
X0396073Y0166272D01*
X0396204Y0166131D01*
X0396332Y0165986D01*
X0396457Y0165838D01*
X0396577Y0165687D01*
X0396694Y0165534D01*
X0396808Y0165377D01*
X0396917Y0165218D01*
X0397022Y0165056D01*
X0397124Y0164891D01*
X0397221Y0164724D01*
X0397314Y0164555D01*
X0397403Y0164383D01*
X0397488Y0164210D01*
X0397568Y0164034D01*
X0397645Y0163856D01*
X0397716Y0163677D01*
X0397784Y0163496D01*
X0397847Y0163313D01*
X0397905Y0163129D01*
X0397959Y0162943D01*
X0398008Y0162756D01*
X0398053Y0162568D01*
X0398093Y0162379D01*
X0398128Y0162189D01*
X0398159Y0161998D01*
X0398185Y0161807D01*
X0398206Y0161615D01*
X0398223Y0161422D01*
X0398235Y0161229D01*
X0398242Y0161036D01*
X0398244Y0160843D01*
X0398242Y0160650D01*
X0398235Y0160457D01*
X0398223Y0160264D01*
X0398206Y0160071D01*
X0398185Y0159879D01*
X0398159Y0159688D01*
X0398128Y0159497D01*
X0398093Y0159307D01*
X0398053Y0159118D01*
X0398008Y0158930D01*
X0397959Y0158743D01*
X0397905Y0158557D01*
X0397847Y0158373D01*
X0397784Y0158190D01*
X0397716Y0158009D01*
X0397645Y0157830D01*
X0397568Y0157652D01*
X0397488Y0157476D01*
X0397403Y0157303D01*
X0397314Y0157131D01*
X0397221Y0156962D01*
X0397124Y0156795D01*
X0397022Y0156630D01*
X0396917Y0156468D01*
X0396808Y0156309D01*
X0396694Y0156152D01*
X0396577Y0155999D01*
X0396457Y0155848D01*
X0396332Y0155700D01*
X0396204Y0155555D01*
X0396073Y0155414D01*
X0395938Y0155275D01*
X0395799Y0155140D01*
X0395658Y0155009D01*
X0395513Y0154881D01*
X0395365Y0154756D01*
X0395214Y0154636D01*
X0395061Y0154519D01*
X0394904Y0154405D01*
X0394745Y0154296D01*
X0394583Y0154191D01*
X0394418Y0154089D01*
X0394251Y0153992D01*
X0394082Y0153899D01*
X0393910Y0153810D01*
X0393737Y0153725D01*
X0393561Y0153645D01*
X0393383Y0153568D01*
X0393204Y0153497D01*
X0393023Y0153429D01*
X0392840Y0153366D01*
X0392656Y0153308D01*
X0392470Y0153254D01*
X0392283Y0153205D01*
X0392095Y0153160D01*
X0391906Y0153120D01*
X0391716Y0153085D01*
X0391525Y0153054D01*
X0391334Y0153028D01*
X0391142Y0153007D01*
X0390949Y0152990D01*
X0390756Y0152978D01*
X0390563Y0152971D01*
X0390370Y0152969D01*
X0390177Y0152971D01*
X0389984Y0152978D01*
X0389791Y0152990D01*
X0389598Y0153007D01*
X0389406Y0153028D01*
X0389215Y0153054D01*
X0389024Y0153085D01*
X0388834Y0153120D01*
X0388645Y0153160D01*
X0388457Y0153205D01*
X0388270Y0153254D01*
X0388084Y0153308D01*
X0387900Y0153366D01*
X0387717Y0153429D01*
X0387536Y0153497D01*
X0387357Y0153568D01*
X0387179Y0153645D01*
X0387003Y0153725D01*
X0386830Y0153810D01*
X0386658Y0153899D01*
X0386489Y0153992D01*
X0386322Y0154089D01*
X0386157Y0154191D01*
X0385995Y0154296D01*
X0385836Y0154405D01*
X0385679Y0154519D01*
X0385526Y0154636D01*
X0385375Y0154756D01*
X0385227Y0154881D01*
X0385082Y0155009D01*
X0384941Y0155140D01*
X0384802Y0155275D01*
X0384667Y0155414D01*
X0384536Y0155555D01*
X0384408Y0155700D01*
X0384283Y0155848D01*
X0384163Y0155999D01*
X0384046Y0156152D01*
X0383932Y0156309D01*
X0383823Y0156468D01*
X0383718Y0156630D01*
X0383616Y0156795D01*
X0383519Y0156962D01*
X0383426Y0157131D01*
X0383337Y0157303D01*
X0383252Y0157476D01*
X0383172Y0157652D01*
X0383095Y0157830D01*
X0383024Y0158009D01*
X0382956Y0158190D01*
X0382893Y0158373D01*
X0382835Y0158557D01*
X0382781Y0158743D01*
X0382732Y0158930D01*
X0382687Y0159118D01*
X0382647Y0159307D01*
X0382612Y0159497D01*
X0382581Y0159688D01*
X0382555Y0159879D01*
X0382534Y0160071D01*
X0382517Y0160264D01*
X0382505Y0160457D01*
X0382498Y0160650D01*
X0382496Y0160843D01*
X0787220Y0075606D02*
X0787222Y0075759D01*
X0787228Y0075913D01*
X0787238Y0076066D01*
X0787252Y0076218D01*
X0787270Y0076371D01*
X0787292Y0076522D01*
X0787317Y0076673D01*
X0787347Y0076824D01*
X0787381Y0076974D01*
X0787418Y0077122D01*
X0787459Y0077270D01*
X0787504Y0077416D01*
X0787553Y0077562D01*
X0787606Y0077706D01*
X0787662Y0077848D01*
X0787722Y0077989D01*
X0787786Y0078129D01*
X0787853Y0078267D01*
X0787924Y0078403D01*
X0787999Y0078537D01*
X0788076Y0078669D01*
X0788158Y0078799D01*
X0788242Y0078927D01*
X0788330Y0079053D01*
X0788421Y0079176D01*
X0788515Y0079297D01*
X0788613Y0079415D01*
X0788713Y0079531D01*
X0788817Y0079644D01*
X0788923Y0079755D01*
X0789032Y0079863D01*
X0789144Y0079968D01*
X0789258Y0080069D01*
X0789376Y0080168D01*
X0789495Y0080264D01*
X0789617Y0080357D01*
X0789742Y0080446D01*
X0789869Y0080533D01*
X0789998Y0080615D01*
X0790129Y0080695D01*
X0790262Y0080771D01*
X0790397Y0080844D01*
X0790534Y0080913D01*
X0790673Y0080978D01*
X0790813Y0081040D01*
X0790955Y0081098D01*
X0791098Y0081153D01*
X0791243Y0081204D01*
X0791389Y0081251D01*
X0791536Y0081294D01*
X0791684Y0081333D01*
X0791833Y0081369D01*
X0791983Y0081400D01*
X0792134Y0081428D01*
X0792285Y0081452D01*
X0792438Y0081472D01*
X0792590Y0081488D01*
X0792743Y0081500D01*
X0792896Y0081508D01*
X0793049Y0081512D01*
X0793203Y0081512D01*
X0793356Y0081508D01*
X0793509Y0081500D01*
X0793662Y0081488D01*
X0793814Y0081472D01*
X0793967Y0081452D01*
X0794118Y0081428D01*
X0794269Y0081400D01*
X0794419Y0081369D01*
X0794568Y0081333D01*
X0794716Y0081294D01*
X0794863Y0081251D01*
X0795009Y0081204D01*
X0795154Y0081153D01*
X0795297Y0081098D01*
X0795439Y0081040D01*
X0795579Y0080978D01*
X0795718Y0080913D01*
X0795855Y0080844D01*
X0795990Y0080771D01*
X0796123Y0080695D01*
X0796254Y0080615D01*
X0796383Y0080533D01*
X0796510Y0080446D01*
X0796635Y0080357D01*
X0796757Y0080264D01*
X0796876Y0080168D01*
X0796994Y0080069D01*
X0797108Y0079968D01*
X0797220Y0079863D01*
X0797329Y0079755D01*
X0797435Y0079644D01*
X0797539Y0079531D01*
X0797639Y0079415D01*
X0797737Y0079297D01*
X0797831Y0079176D01*
X0797922Y0079053D01*
X0798010Y0078927D01*
X0798094Y0078799D01*
X0798176Y0078669D01*
X0798253Y0078537D01*
X0798328Y0078403D01*
X0798399Y0078267D01*
X0798466Y0078129D01*
X0798530Y0077989D01*
X0798590Y0077848D01*
X0798646Y0077706D01*
X0798699Y0077562D01*
X0798748Y0077416D01*
X0798793Y0077270D01*
X0798834Y0077122D01*
X0798871Y0076974D01*
X0798905Y0076824D01*
X0798935Y0076673D01*
X0798960Y0076522D01*
X0798982Y0076371D01*
X0799000Y0076218D01*
X0799014Y0076066D01*
X0799024Y0075913D01*
X0799030Y0075759D01*
X0799032Y0075606D01*
X0799030Y0075453D01*
X0799024Y0075299D01*
X0799014Y0075146D01*
X0799000Y0074994D01*
X0798982Y0074841D01*
X0798960Y0074690D01*
X0798935Y0074539D01*
X0798905Y0074388D01*
X0798871Y0074238D01*
X0798834Y0074090D01*
X0798793Y0073942D01*
X0798748Y0073796D01*
X0798699Y0073650D01*
X0798646Y0073506D01*
X0798590Y0073364D01*
X0798530Y0073223D01*
X0798466Y0073083D01*
X0798399Y0072945D01*
X0798328Y0072809D01*
X0798253Y0072675D01*
X0798176Y0072543D01*
X0798094Y0072413D01*
X0798010Y0072285D01*
X0797922Y0072159D01*
X0797831Y0072036D01*
X0797737Y0071915D01*
X0797639Y0071797D01*
X0797539Y0071681D01*
X0797435Y0071568D01*
X0797329Y0071457D01*
X0797220Y0071349D01*
X0797108Y0071244D01*
X0796994Y0071143D01*
X0796876Y0071044D01*
X0796757Y0070948D01*
X0796635Y0070855D01*
X0796510Y0070766D01*
X0796383Y0070679D01*
X0796254Y0070597D01*
X0796123Y0070517D01*
X0795990Y0070441D01*
X0795855Y0070368D01*
X0795718Y0070299D01*
X0795579Y0070234D01*
X0795439Y0070172D01*
X0795297Y0070114D01*
X0795154Y0070059D01*
X0795009Y0070008D01*
X0794863Y0069961D01*
X0794716Y0069918D01*
X0794568Y0069879D01*
X0794419Y0069843D01*
X0794269Y0069812D01*
X0794118Y0069784D01*
X0793967Y0069760D01*
X0793814Y0069740D01*
X0793662Y0069724D01*
X0793509Y0069712D01*
X0793356Y0069704D01*
X0793203Y0069700D01*
X0793049Y0069700D01*
X0792896Y0069704D01*
X0792743Y0069712D01*
X0792590Y0069724D01*
X0792438Y0069740D01*
X0792285Y0069760D01*
X0792134Y0069784D01*
X0791983Y0069812D01*
X0791833Y0069843D01*
X0791684Y0069879D01*
X0791536Y0069918D01*
X0791389Y0069961D01*
X0791243Y0070008D01*
X0791098Y0070059D01*
X0790955Y0070114D01*
X0790813Y0070172D01*
X0790673Y0070234D01*
X0790534Y0070299D01*
X0790397Y0070368D01*
X0790262Y0070441D01*
X0790129Y0070517D01*
X0789998Y0070597D01*
X0789869Y0070679D01*
X0789742Y0070766D01*
X0789617Y0070855D01*
X0789495Y0070948D01*
X0789376Y0071044D01*
X0789258Y0071143D01*
X0789144Y0071244D01*
X0789032Y0071349D01*
X0788923Y0071457D01*
X0788817Y0071568D01*
X0788713Y0071681D01*
X0788613Y0071797D01*
X0788515Y0071915D01*
X0788421Y0072036D01*
X0788330Y0072159D01*
X0788242Y0072285D01*
X0788158Y0072413D01*
X0788076Y0072543D01*
X0787999Y0072675D01*
X0787924Y0072809D01*
X0787853Y0072945D01*
X0787786Y0073083D01*
X0787722Y0073223D01*
X0787662Y0073364D01*
X0787606Y0073506D01*
X0787553Y0073650D01*
X0787504Y0073796D01*
X0787459Y0073942D01*
X0787418Y0074090D01*
X0787381Y0074238D01*
X0787347Y0074388D01*
X0787317Y0074539D01*
X0787292Y0074690D01*
X0787270Y0074841D01*
X0787252Y0074994D01*
X0787238Y0075146D01*
X0787228Y0075299D01*
X0787222Y0075453D01*
X0787220Y0075606D01*
X0787220Y0310016D02*
X0787222Y0310169D01*
X0787228Y0310323D01*
X0787238Y0310476D01*
X0787252Y0310628D01*
X0787270Y0310781D01*
X0787292Y0310932D01*
X0787317Y0311083D01*
X0787347Y0311234D01*
X0787381Y0311384D01*
X0787418Y0311532D01*
X0787459Y0311680D01*
X0787504Y0311826D01*
X0787553Y0311972D01*
X0787606Y0312116D01*
X0787662Y0312258D01*
X0787722Y0312399D01*
X0787786Y0312539D01*
X0787853Y0312677D01*
X0787924Y0312813D01*
X0787999Y0312947D01*
X0788076Y0313079D01*
X0788158Y0313209D01*
X0788242Y0313337D01*
X0788330Y0313463D01*
X0788421Y0313586D01*
X0788515Y0313707D01*
X0788613Y0313825D01*
X0788713Y0313941D01*
X0788817Y0314054D01*
X0788923Y0314165D01*
X0789032Y0314273D01*
X0789144Y0314378D01*
X0789258Y0314479D01*
X0789376Y0314578D01*
X0789495Y0314674D01*
X0789617Y0314767D01*
X0789742Y0314856D01*
X0789869Y0314943D01*
X0789998Y0315025D01*
X0790129Y0315105D01*
X0790262Y0315181D01*
X0790397Y0315254D01*
X0790534Y0315323D01*
X0790673Y0315388D01*
X0790813Y0315450D01*
X0790955Y0315508D01*
X0791098Y0315563D01*
X0791243Y0315614D01*
X0791389Y0315661D01*
X0791536Y0315704D01*
X0791684Y0315743D01*
X0791833Y0315779D01*
X0791983Y0315810D01*
X0792134Y0315838D01*
X0792285Y0315862D01*
X0792438Y0315882D01*
X0792590Y0315898D01*
X0792743Y0315910D01*
X0792896Y0315918D01*
X0793049Y0315922D01*
X0793203Y0315922D01*
X0793356Y0315918D01*
X0793509Y0315910D01*
X0793662Y0315898D01*
X0793814Y0315882D01*
X0793967Y0315862D01*
X0794118Y0315838D01*
X0794269Y0315810D01*
X0794419Y0315779D01*
X0794568Y0315743D01*
X0794716Y0315704D01*
X0794863Y0315661D01*
X0795009Y0315614D01*
X0795154Y0315563D01*
X0795297Y0315508D01*
X0795439Y0315450D01*
X0795579Y0315388D01*
X0795718Y0315323D01*
X0795855Y0315254D01*
X0795990Y0315181D01*
X0796123Y0315105D01*
X0796254Y0315025D01*
X0796383Y0314943D01*
X0796510Y0314856D01*
X0796635Y0314767D01*
X0796757Y0314674D01*
X0796876Y0314578D01*
X0796994Y0314479D01*
X0797108Y0314378D01*
X0797220Y0314273D01*
X0797329Y0314165D01*
X0797435Y0314054D01*
X0797539Y0313941D01*
X0797639Y0313825D01*
X0797737Y0313707D01*
X0797831Y0313586D01*
X0797922Y0313463D01*
X0798010Y0313337D01*
X0798094Y0313209D01*
X0798176Y0313079D01*
X0798253Y0312947D01*
X0798328Y0312813D01*
X0798399Y0312677D01*
X0798466Y0312539D01*
X0798530Y0312399D01*
X0798590Y0312258D01*
X0798646Y0312116D01*
X0798699Y0311972D01*
X0798748Y0311826D01*
X0798793Y0311680D01*
X0798834Y0311532D01*
X0798871Y0311384D01*
X0798905Y0311234D01*
X0798935Y0311083D01*
X0798960Y0310932D01*
X0798982Y0310781D01*
X0799000Y0310628D01*
X0799014Y0310476D01*
X0799024Y0310323D01*
X0799030Y0310169D01*
X0799032Y0310016D01*
X0799030Y0309863D01*
X0799024Y0309709D01*
X0799014Y0309556D01*
X0799000Y0309404D01*
X0798982Y0309251D01*
X0798960Y0309100D01*
X0798935Y0308949D01*
X0798905Y0308798D01*
X0798871Y0308648D01*
X0798834Y0308500D01*
X0798793Y0308352D01*
X0798748Y0308206D01*
X0798699Y0308060D01*
X0798646Y0307916D01*
X0798590Y0307774D01*
X0798530Y0307633D01*
X0798466Y0307493D01*
X0798399Y0307355D01*
X0798328Y0307219D01*
X0798253Y0307085D01*
X0798176Y0306953D01*
X0798094Y0306823D01*
X0798010Y0306695D01*
X0797922Y0306569D01*
X0797831Y0306446D01*
X0797737Y0306325D01*
X0797639Y0306207D01*
X0797539Y0306091D01*
X0797435Y0305978D01*
X0797329Y0305867D01*
X0797220Y0305759D01*
X0797108Y0305654D01*
X0796994Y0305553D01*
X0796876Y0305454D01*
X0796757Y0305358D01*
X0796635Y0305265D01*
X0796510Y0305176D01*
X0796383Y0305089D01*
X0796254Y0305007D01*
X0796123Y0304927D01*
X0795990Y0304851D01*
X0795855Y0304778D01*
X0795718Y0304709D01*
X0795579Y0304644D01*
X0795439Y0304582D01*
X0795297Y0304524D01*
X0795154Y0304469D01*
X0795009Y0304418D01*
X0794863Y0304371D01*
X0794716Y0304328D01*
X0794568Y0304289D01*
X0794419Y0304253D01*
X0794269Y0304222D01*
X0794118Y0304194D01*
X0793967Y0304170D01*
X0793814Y0304150D01*
X0793662Y0304134D01*
X0793509Y0304122D01*
X0793356Y0304114D01*
X0793203Y0304110D01*
X0793049Y0304110D01*
X0792896Y0304114D01*
X0792743Y0304122D01*
X0792590Y0304134D01*
X0792438Y0304150D01*
X0792285Y0304170D01*
X0792134Y0304194D01*
X0791983Y0304222D01*
X0791833Y0304253D01*
X0791684Y0304289D01*
X0791536Y0304328D01*
X0791389Y0304371D01*
X0791243Y0304418D01*
X0791098Y0304469D01*
X0790955Y0304524D01*
X0790813Y0304582D01*
X0790673Y0304644D01*
X0790534Y0304709D01*
X0790397Y0304778D01*
X0790262Y0304851D01*
X0790129Y0304927D01*
X0789998Y0305007D01*
X0789869Y0305089D01*
X0789742Y0305176D01*
X0789617Y0305265D01*
X0789495Y0305358D01*
X0789376Y0305454D01*
X0789258Y0305553D01*
X0789144Y0305654D01*
X0789032Y0305759D01*
X0788923Y0305867D01*
X0788817Y0305978D01*
X0788713Y0306091D01*
X0788613Y0306207D01*
X0788515Y0306325D01*
X0788421Y0306446D01*
X0788330Y0306569D01*
X0788242Y0306695D01*
X0788158Y0306823D01*
X0788076Y0306953D01*
X0787999Y0307085D01*
X0787924Y0307219D01*
X0787853Y0307355D01*
X0787786Y0307493D01*
X0787722Y0307633D01*
X0787662Y0307774D01*
X0787606Y0307916D01*
X0787553Y0308060D01*
X0787504Y0308206D01*
X0787459Y0308352D01*
X0787418Y0308500D01*
X0787381Y0308648D01*
X0787347Y0308798D01*
X0787317Y0308949D01*
X0787292Y0309100D01*
X0787270Y0309251D01*
X0787252Y0309404D01*
X0787238Y0309556D01*
X0787228Y0309709D01*
X0787222Y0309863D01*
X0787220Y0310016D01*
D11*
X0672654Y0107693D02*
X0672658Y0108012D01*
X0672670Y0108330D01*
X0672689Y0108649D01*
X0672717Y0108966D01*
X0672752Y0109283D01*
X0672795Y0109599D01*
X0672845Y0109914D01*
X0672904Y0110228D01*
X0672970Y0110540D01*
X0673043Y0110850D01*
X0673125Y0111158D01*
X0673213Y0111464D01*
X0673310Y0111768D01*
X0673413Y0112070D01*
X0673525Y0112369D01*
X0673643Y0112665D01*
X0673769Y0112958D01*
X0673901Y0113248D01*
X0674041Y0113534D01*
X0674188Y0113817D01*
X0674342Y0114097D01*
X0674502Y0114372D01*
X0674670Y0114644D01*
X0674844Y0114911D01*
X0675024Y0115174D01*
X0675211Y0115432D01*
X0675404Y0115686D01*
X0675603Y0115935D01*
X0675808Y0116179D01*
X0676020Y0116418D01*
X0676237Y0116652D01*
X0676459Y0116880D01*
X0676687Y0117102D01*
X0676921Y0117319D01*
X0677160Y0117531D01*
X0677404Y0117736D01*
X0677653Y0117935D01*
X0677907Y0118128D01*
X0678165Y0118315D01*
X0678428Y0118495D01*
X0678695Y0118669D01*
X0678967Y0118837D01*
X0679242Y0118997D01*
X0679522Y0119151D01*
X0679805Y0119298D01*
X0680091Y0119438D01*
X0680381Y0119570D01*
X0680674Y0119696D01*
X0680970Y0119814D01*
X0681269Y0119926D01*
X0681571Y0120029D01*
X0681875Y0120126D01*
X0682181Y0120214D01*
X0682489Y0120296D01*
X0682799Y0120369D01*
X0683111Y0120435D01*
X0683425Y0120494D01*
X0683740Y0120544D01*
X0684056Y0120587D01*
X0684373Y0120622D01*
X0684690Y0120650D01*
X0685009Y0120669D01*
X0685327Y0120681D01*
X0685646Y0120685D01*
X0685965Y0120681D01*
X0686283Y0120669D01*
X0686602Y0120650D01*
X0686919Y0120622D01*
X0687236Y0120587D01*
X0687552Y0120544D01*
X0687867Y0120494D01*
X0688181Y0120435D01*
X0688493Y0120369D01*
X0688803Y0120296D01*
X0689111Y0120214D01*
X0689417Y0120126D01*
X0689721Y0120029D01*
X0690023Y0119926D01*
X0690322Y0119814D01*
X0690618Y0119696D01*
X0690911Y0119570D01*
X0691201Y0119438D01*
X0691487Y0119298D01*
X0691770Y0119151D01*
X0692050Y0118997D01*
X0692325Y0118837D01*
X0692597Y0118669D01*
X0692864Y0118495D01*
X0693127Y0118315D01*
X0693385Y0118128D01*
X0693639Y0117935D01*
X0693888Y0117736D01*
X0694132Y0117531D01*
X0694371Y0117319D01*
X0694605Y0117102D01*
X0694833Y0116880D01*
X0695055Y0116652D01*
X0695272Y0116418D01*
X0695484Y0116179D01*
X0695689Y0115935D01*
X0695888Y0115686D01*
X0696081Y0115432D01*
X0696268Y0115174D01*
X0696448Y0114911D01*
X0696622Y0114644D01*
X0696790Y0114372D01*
X0696950Y0114097D01*
X0697104Y0113817D01*
X0697251Y0113534D01*
X0697391Y0113248D01*
X0697523Y0112958D01*
X0697649Y0112665D01*
X0697767Y0112369D01*
X0697879Y0112070D01*
X0697982Y0111768D01*
X0698079Y0111464D01*
X0698167Y0111158D01*
X0698249Y0110850D01*
X0698322Y0110540D01*
X0698388Y0110228D01*
X0698447Y0109914D01*
X0698497Y0109599D01*
X0698540Y0109283D01*
X0698575Y0108966D01*
X0698603Y0108649D01*
X0698622Y0108330D01*
X0698634Y0108012D01*
X0698638Y0107693D01*
X0698634Y0107374D01*
X0698622Y0107056D01*
X0698603Y0106737D01*
X0698575Y0106420D01*
X0698540Y0106103D01*
X0698497Y0105787D01*
X0698447Y0105472D01*
X0698388Y0105158D01*
X0698322Y0104846D01*
X0698249Y0104536D01*
X0698167Y0104228D01*
X0698079Y0103922D01*
X0697982Y0103618D01*
X0697879Y0103316D01*
X0697767Y0103017D01*
X0697649Y0102721D01*
X0697523Y0102428D01*
X0697391Y0102138D01*
X0697251Y0101852D01*
X0697104Y0101569D01*
X0696950Y0101289D01*
X0696790Y0101014D01*
X0696622Y0100742D01*
X0696448Y0100475D01*
X0696268Y0100212D01*
X0696081Y0099954D01*
X0695888Y0099700D01*
X0695689Y0099451D01*
X0695484Y0099207D01*
X0695272Y0098968D01*
X0695055Y0098734D01*
X0694833Y0098506D01*
X0694605Y0098284D01*
X0694371Y0098067D01*
X0694132Y0097855D01*
X0693888Y0097650D01*
X0693639Y0097451D01*
X0693385Y0097258D01*
X0693127Y0097071D01*
X0692864Y0096891D01*
X0692597Y0096717D01*
X0692325Y0096549D01*
X0692050Y0096389D01*
X0691770Y0096235D01*
X0691487Y0096088D01*
X0691201Y0095948D01*
X0690911Y0095816D01*
X0690618Y0095690D01*
X0690322Y0095572D01*
X0690023Y0095460D01*
X0689721Y0095357D01*
X0689417Y0095260D01*
X0689111Y0095172D01*
X0688803Y0095090D01*
X0688493Y0095017D01*
X0688181Y0094951D01*
X0687867Y0094892D01*
X0687552Y0094842D01*
X0687236Y0094799D01*
X0686919Y0094764D01*
X0686602Y0094736D01*
X0686283Y0094717D01*
X0685965Y0094705D01*
X0685646Y0094701D01*
X0685327Y0094705D01*
X0685009Y0094717D01*
X0684690Y0094736D01*
X0684373Y0094764D01*
X0684056Y0094799D01*
X0683740Y0094842D01*
X0683425Y0094892D01*
X0683111Y0094951D01*
X0682799Y0095017D01*
X0682489Y0095090D01*
X0682181Y0095172D01*
X0681875Y0095260D01*
X0681571Y0095357D01*
X0681269Y0095460D01*
X0680970Y0095572D01*
X0680674Y0095690D01*
X0680381Y0095816D01*
X0680091Y0095948D01*
X0679805Y0096088D01*
X0679522Y0096235D01*
X0679242Y0096389D01*
X0678967Y0096549D01*
X0678695Y0096717D01*
X0678428Y0096891D01*
X0678165Y0097071D01*
X0677907Y0097258D01*
X0677653Y0097451D01*
X0677404Y0097650D01*
X0677160Y0097855D01*
X0676921Y0098067D01*
X0676687Y0098284D01*
X0676459Y0098506D01*
X0676237Y0098734D01*
X0676020Y0098968D01*
X0675808Y0099207D01*
X0675603Y0099451D01*
X0675404Y0099700D01*
X0675211Y0099954D01*
X0675024Y0100212D01*
X0674844Y0100475D01*
X0674670Y0100742D01*
X0674502Y0101014D01*
X0674342Y0101289D01*
X0674188Y0101569D01*
X0674041Y0101852D01*
X0673901Y0102138D01*
X0673769Y0102428D01*
X0673643Y0102721D01*
X0673525Y0103017D01*
X0673413Y0103316D01*
X0673310Y0103618D01*
X0673213Y0103922D01*
X0673125Y0104228D01*
X0673043Y0104536D01*
X0672970Y0104846D01*
X0672904Y0105158D01*
X0672845Y0105472D01*
X0672795Y0105787D01*
X0672752Y0106103D01*
X0672717Y0106420D01*
X0672689Y0106737D01*
X0672670Y0107056D01*
X0672658Y0107374D01*
X0672654Y0107693D01*
X0605331Y0084071D02*
X0605333Y0084219D01*
X0605339Y0084367D01*
X0605349Y0084515D01*
X0605363Y0084662D01*
X0605381Y0084809D01*
X0605402Y0084955D01*
X0605428Y0085101D01*
X0605458Y0085246D01*
X0605491Y0085390D01*
X0605529Y0085533D01*
X0605570Y0085675D01*
X0605615Y0085816D01*
X0605663Y0085956D01*
X0605716Y0086095D01*
X0605772Y0086232D01*
X0605832Y0086367D01*
X0605895Y0086501D01*
X0605962Y0086633D01*
X0606033Y0086763D01*
X0606107Y0086891D01*
X0606184Y0087017D01*
X0606265Y0087141D01*
X0606349Y0087263D01*
X0606436Y0087382D01*
X0606527Y0087499D01*
X0606621Y0087614D01*
X0606717Y0087726D01*
X0606817Y0087836D01*
X0606919Y0087942D01*
X0607025Y0088046D01*
X0607133Y0088147D01*
X0607244Y0088245D01*
X0607357Y0088341D01*
X0607473Y0088433D01*
X0607591Y0088522D01*
X0607712Y0088607D01*
X0607835Y0088690D01*
X0607960Y0088769D01*
X0608087Y0088845D01*
X0608216Y0088917D01*
X0608347Y0088986D01*
X0608480Y0089051D01*
X0608615Y0089112D01*
X0608751Y0089170D01*
X0608888Y0089225D01*
X0609027Y0089275D01*
X0609168Y0089322D01*
X0609309Y0089365D01*
X0609452Y0089405D01*
X0609596Y0089440D01*
X0609740Y0089472D01*
X0609886Y0089499D01*
X0610032Y0089523D01*
X0610179Y0089543D01*
X0610326Y0089559D01*
X0610473Y0089571D01*
X0610621Y0089579D01*
X0610769Y0089583D01*
X0610917Y0089583D01*
X0611065Y0089579D01*
X0611213Y0089571D01*
X0611360Y0089559D01*
X0611507Y0089543D01*
X0611654Y0089523D01*
X0611800Y0089499D01*
X0611946Y0089472D01*
X0612090Y0089440D01*
X0612234Y0089405D01*
X0612377Y0089365D01*
X0612518Y0089322D01*
X0612659Y0089275D01*
X0612798Y0089225D01*
X0612935Y0089170D01*
X0613071Y0089112D01*
X0613206Y0089051D01*
X0613339Y0088986D01*
X0613470Y0088917D01*
X0613599Y0088845D01*
X0613726Y0088769D01*
X0613851Y0088690D01*
X0613974Y0088607D01*
X0614095Y0088522D01*
X0614213Y0088433D01*
X0614329Y0088341D01*
X0614442Y0088245D01*
X0614553Y0088147D01*
X0614661Y0088046D01*
X0614767Y0087942D01*
X0614869Y0087836D01*
X0614969Y0087726D01*
X0615065Y0087614D01*
X0615159Y0087499D01*
X0615250Y0087382D01*
X0615337Y0087263D01*
X0615421Y0087141D01*
X0615502Y0087017D01*
X0615579Y0086891D01*
X0615653Y0086763D01*
X0615724Y0086633D01*
X0615791Y0086501D01*
X0615854Y0086367D01*
X0615914Y0086232D01*
X0615970Y0086095D01*
X0616023Y0085956D01*
X0616071Y0085816D01*
X0616116Y0085675D01*
X0616157Y0085533D01*
X0616195Y0085390D01*
X0616228Y0085246D01*
X0616258Y0085101D01*
X0616284Y0084955D01*
X0616305Y0084809D01*
X0616323Y0084662D01*
X0616337Y0084515D01*
X0616347Y0084367D01*
X0616353Y0084219D01*
X0616355Y0084071D01*
X0616353Y0083923D01*
X0616347Y0083775D01*
X0616337Y0083627D01*
X0616323Y0083480D01*
X0616305Y0083333D01*
X0616284Y0083187D01*
X0616258Y0083041D01*
X0616228Y0082896D01*
X0616195Y0082752D01*
X0616157Y0082609D01*
X0616116Y0082467D01*
X0616071Y0082326D01*
X0616023Y0082186D01*
X0615970Y0082047D01*
X0615914Y0081910D01*
X0615854Y0081775D01*
X0615791Y0081641D01*
X0615724Y0081509D01*
X0615653Y0081379D01*
X0615579Y0081251D01*
X0615502Y0081125D01*
X0615421Y0081001D01*
X0615337Y0080879D01*
X0615250Y0080760D01*
X0615159Y0080643D01*
X0615065Y0080528D01*
X0614969Y0080416D01*
X0614869Y0080306D01*
X0614767Y0080200D01*
X0614661Y0080096D01*
X0614553Y0079995D01*
X0614442Y0079897D01*
X0614329Y0079801D01*
X0614213Y0079709D01*
X0614095Y0079620D01*
X0613974Y0079535D01*
X0613851Y0079452D01*
X0613726Y0079373D01*
X0613599Y0079297D01*
X0613470Y0079225D01*
X0613339Y0079156D01*
X0613206Y0079091D01*
X0613071Y0079030D01*
X0612935Y0078972D01*
X0612798Y0078917D01*
X0612659Y0078867D01*
X0612518Y0078820D01*
X0612377Y0078777D01*
X0612234Y0078737D01*
X0612090Y0078702D01*
X0611946Y0078670D01*
X0611800Y0078643D01*
X0611654Y0078619D01*
X0611507Y0078599D01*
X0611360Y0078583D01*
X0611213Y0078571D01*
X0611065Y0078563D01*
X0610917Y0078559D01*
X0610769Y0078559D01*
X0610621Y0078563D01*
X0610473Y0078571D01*
X0610326Y0078583D01*
X0610179Y0078599D01*
X0610032Y0078619D01*
X0609886Y0078643D01*
X0609740Y0078670D01*
X0609596Y0078702D01*
X0609452Y0078737D01*
X0609309Y0078777D01*
X0609168Y0078820D01*
X0609027Y0078867D01*
X0608888Y0078917D01*
X0608751Y0078972D01*
X0608615Y0079030D01*
X0608480Y0079091D01*
X0608347Y0079156D01*
X0608216Y0079225D01*
X0608087Y0079297D01*
X0607960Y0079373D01*
X0607835Y0079452D01*
X0607712Y0079535D01*
X0607591Y0079620D01*
X0607473Y0079709D01*
X0607357Y0079801D01*
X0607244Y0079897D01*
X0607133Y0079995D01*
X0607025Y0080096D01*
X0606919Y0080200D01*
X0606817Y0080306D01*
X0606717Y0080416D01*
X0606621Y0080528D01*
X0606527Y0080643D01*
X0606436Y0080760D01*
X0606349Y0080879D01*
X0606265Y0081001D01*
X0606184Y0081125D01*
X0606107Y0081251D01*
X0606033Y0081379D01*
X0605962Y0081509D01*
X0605895Y0081641D01*
X0605832Y0081775D01*
X0605772Y0081910D01*
X0605716Y0082047D01*
X0605663Y0082186D01*
X0605615Y0082326D01*
X0605570Y0082467D01*
X0605529Y0082609D01*
X0605491Y0082752D01*
X0605458Y0082896D01*
X0605428Y0083041D01*
X0605402Y0083187D01*
X0605381Y0083333D01*
X0605363Y0083480D01*
X0605349Y0083627D01*
X0605339Y0083775D01*
X0605333Y0083923D01*
X0605331Y0084071D01*
D12*
X0446551Y0019905D02*
X0442996Y0019905D01*
X0444773Y0019905D02*
X0444773Y0013505D01*
X0440602Y0015282D02*
X0440602Y0019905D01*
X0437047Y0019905D02*
X0437047Y0015282D01*
X0437049Y0015199D01*
X0437055Y0015116D01*
X0437065Y0015033D01*
X0437078Y0014950D01*
X0437096Y0014869D01*
X0437117Y0014788D01*
X0437142Y0014709D01*
X0437171Y0014631D01*
X0437203Y0014554D01*
X0437239Y0014479D01*
X0437278Y0014405D01*
X0437321Y0014334D01*
X0437367Y0014264D01*
X0437417Y0014197D01*
X0437469Y0014132D01*
X0437524Y0014070D01*
X0437583Y0014010D01*
X0437644Y0013953D01*
X0437707Y0013899D01*
X0437773Y0013848D01*
X0437842Y0013801D01*
X0437912Y0013756D01*
X0437985Y0013715D01*
X0438059Y0013678D01*
X0438135Y0013643D01*
X0438213Y0013613D01*
X0438291Y0013586D01*
X0438372Y0013563D01*
X0438453Y0013543D01*
X0438535Y0013528D01*
X0438617Y0013516D01*
X0438700Y0013508D01*
X0438783Y0013504D01*
X0438867Y0013504D01*
X0438950Y0013508D01*
X0439033Y0013516D01*
X0439115Y0013528D01*
X0439197Y0013543D01*
X0439278Y0013563D01*
X0439359Y0013586D01*
X0439437Y0013613D01*
X0439515Y0013643D01*
X0439591Y0013678D01*
X0439665Y0013715D01*
X0439738Y0013756D01*
X0439808Y0013801D01*
X0439877Y0013848D01*
X0439943Y0013899D01*
X0440006Y0013953D01*
X0440067Y0014010D01*
X0440126Y0014070D01*
X0440181Y0014132D01*
X0440233Y0014197D01*
X0440283Y0014264D01*
X0440329Y0014334D01*
X0440372Y0014405D01*
X0440411Y0014479D01*
X0440447Y0014554D01*
X0440479Y0014631D01*
X0440508Y0014709D01*
X0440533Y0014788D01*
X0440554Y0014869D01*
X0440572Y0014950D01*
X0440585Y0015033D01*
X0440595Y0015116D01*
X0440601Y0015199D01*
X0440603Y0015282D01*
X0434542Y0013505D02*
X0433120Y0013505D01*
X0433046Y0013507D01*
X0432971Y0013513D01*
X0432898Y0013523D01*
X0432824Y0013536D01*
X0432752Y0013553D01*
X0432681Y0013575D01*
X0432610Y0013599D01*
X0432542Y0013628D01*
X0432474Y0013660D01*
X0432409Y0013696D01*
X0432346Y0013734D01*
X0432284Y0013777D01*
X0432225Y0013822D01*
X0432168Y0013870D01*
X0432114Y0013921D01*
X0432063Y0013975D01*
X0432015Y0014032D01*
X0431970Y0014091D01*
X0431927Y0014153D01*
X0431889Y0014216D01*
X0431853Y0014281D01*
X0431821Y0014349D01*
X0431792Y0014417D01*
X0431768Y0014488D01*
X0431746Y0014559D01*
X0431729Y0014631D01*
X0431716Y0014705D01*
X0431706Y0014778D01*
X0431700Y0014853D01*
X0431698Y0014927D01*
X0431698Y0018482D01*
X0431700Y0018556D01*
X0431706Y0018631D01*
X0431716Y0018704D01*
X0431729Y0018778D01*
X0431746Y0018850D01*
X0431768Y0018921D01*
X0431792Y0018992D01*
X0431821Y0019060D01*
X0431853Y0019128D01*
X0431889Y0019193D01*
X0431927Y0019256D01*
X0431970Y0019318D01*
X0432015Y0019377D01*
X0432063Y0019433D01*
X0432114Y0019488D01*
X0432168Y0019539D01*
X0432225Y0019587D01*
X0432284Y0019632D01*
X0432346Y0019675D01*
X0432409Y0019713D01*
X0432474Y0019749D01*
X0432542Y0019781D01*
X0432610Y0019810D01*
X0432681Y0019834D01*
X0432752Y0019856D01*
X0432824Y0019873D01*
X0432898Y0019886D01*
X0432971Y0019896D01*
X0433046Y0019902D01*
X0433120Y0019904D01*
X0433120Y0019905D02*
X0434542Y0019905D01*
X0429060Y0015994D02*
X0424793Y0015994D01*
X0422496Y0019905D02*
X0420362Y0013505D01*
X0418229Y0019905D01*
X0420362Y0383583D02*
X0422496Y0389983D01*
X0418229Y0389983D02*
X0420362Y0383583D01*
X0424793Y0386072D02*
X0429060Y0386072D01*
X0431698Y0385006D02*
X0431698Y0388561D01*
X0431700Y0388635D01*
X0431706Y0388710D01*
X0431716Y0388783D01*
X0431729Y0388857D01*
X0431746Y0388929D01*
X0431768Y0389000D01*
X0431792Y0389071D01*
X0431821Y0389139D01*
X0431853Y0389207D01*
X0431889Y0389272D01*
X0431927Y0389335D01*
X0431970Y0389397D01*
X0432015Y0389456D01*
X0432063Y0389512D01*
X0432114Y0389567D01*
X0432168Y0389618D01*
X0432225Y0389666D01*
X0432284Y0389711D01*
X0432346Y0389754D01*
X0432409Y0389792D01*
X0432474Y0389828D01*
X0432542Y0389860D01*
X0432610Y0389889D01*
X0432681Y0389913D01*
X0432752Y0389935D01*
X0432824Y0389952D01*
X0432898Y0389965D01*
X0432971Y0389975D01*
X0433046Y0389981D01*
X0433120Y0389983D01*
X0434542Y0389983D01*
X0437047Y0389983D02*
X0437047Y0385361D01*
X0437049Y0385278D01*
X0437055Y0385195D01*
X0437065Y0385112D01*
X0437078Y0385029D01*
X0437096Y0384948D01*
X0437117Y0384867D01*
X0437142Y0384788D01*
X0437171Y0384710D01*
X0437203Y0384633D01*
X0437239Y0384558D01*
X0437278Y0384484D01*
X0437321Y0384413D01*
X0437367Y0384343D01*
X0437417Y0384276D01*
X0437469Y0384211D01*
X0437524Y0384149D01*
X0437583Y0384089D01*
X0437644Y0384032D01*
X0437707Y0383978D01*
X0437773Y0383927D01*
X0437842Y0383880D01*
X0437912Y0383835D01*
X0437985Y0383794D01*
X0438059Y0383757D01*
X0438135Y0383722D01*
X0438213Y0383692D01*
X0438291Y0383665D01*
X0438372Y0383642D01*
X0438453Y0383622D01*
X0438535Y0383607D01*
X0438617Y0383595D01*
X0438700Y0383587D01*
X0438783Y0383583D01*
X0438867Y0383583D01*
X0438950Y0383587D01*
X0439033Y0383595D01*
X0439115Y0383607D01*
X0439197Y0383622D01*
X0439278Y0383642D01*
X0439359Y0383665D01*
X0439437Y0383692D01*
X0439515Y0383722D01*
X0439591Y0383757D01*
X0439665Y0383794D01*
X0439738Y0383835D01*
X0439808Y0383880D01*
X0439877Y0383927D01*
X0439943Y0383978D01*
X0440006Y0384032D01*
X0440067Y0384089D01*
X0440126Y0384149D01*
X0440181Y0384211D01*
X0440233Y0384276D01*
X0440283Y0384343D01*
X0440329Y0384413D01*
X0440372Y0384484D01*
X0440411Y0384558D01*
X0440447Y0384633D01*
X0440479Y0384710D01*
X0440508Y0384788D01*
X0440533Y0384867D01*
X0440554Y0384948D01*
X0440572Y0385029D01*
X0440585Y0385112D01*
X0440595Y0385195D01*
X0440601Y0385278D01*
X0440603Y0385361D01*
X0440602Y0385361D02*
X0440602Y0389983D01*
X0442996Y0389983D02*
X0446551Y0389983D01*
X0444773Y0389983D02*
X0444773Y0383583D01*
X0434542Y0383583D02*
X0433120Y0383583D01*
X0433120Y0383584D02*
X0433046Y0383586D01*
X0432971Y0383592D01*
X0432898Y0383602D01*
X0432824Y0383615D01*
X0432752Y0383632D01*
X0432681Y0383654D01*
X0432610Y0383678D01*
X0432542Y0383707D01*
X0432474Y0383739D01*
X0432409Y0383775D01*
X0432346Y0383813D01*
X0432284Y0383856D01*
X0432225Y0383901D01*
X0432168Y0383949D01*
X0432114Y0384000D01*
X0432063Y0384054D01*
X0432015Y0384111D01*
X0431970Y0384170D01*
X0431927Y0384232D01*
X0431889Y0384295D01*
X0431853Y0384360D01*
X0431821Y0384428D01*
X0431792Y0384496D01*
X0431768Y0384567D01*
X0431746Y0384638D01*
X0431729Y0384710D01*
X0431716Y0384784D01*
X0431706Y0384857D01*
X0431700Y0384932D01*
X0431698Y0385006D01*
M02*
