G75*
%MOIN*%
%OFA0B0*%
%FSLAX25Y25*%
%IPPOS*%
%LPD*%
%AMOC8*
5,1,8,0,0,1.08239X$1,22.5*
%
%ADD10C,0.06000*%
%ADD11C,0.06496*%
%ADD12C,0.12268*%
%ADD13C,0.05700*%
%ADD14C,0.16205*%
%ADD15C,0.13252*%
%ADD16C,0.14236*%
%ADD17C,0.05906*%
%ADD18C,0.00787*%
%ADD19C,0.01981*%
%ADD20C,0.00709*%
%ADD21C,0.02375*%
%ADD22C,0.00669*%
%ADD23C,0.02953*%
%ADD24C,0.02178*%
%ADD25C,0.01600*%
%ADD26C,0.03200*%
%ADD27C,0.00630*%
D10*
X0529253Y0114362D03*
X0536324Y0107291D03*
X0543395Y0100220D03*
X0550466Y0093149D03*
X0818623Y0093149D03*
X0825694Y0100220D03*
X0832766Y0107291D03*
X0839837Y0114362D03*
X0740151Y0193031D03*
X0730151Y0193031D03*
X0720151Y0193031D03*
X0710151Y0193031D03*
X0700151Y0193031D03*
X0690151Y0193031D03*
X0680151Y0193031D03*
X0670151Y0193031D03*
X0670151Y0243031D03*
X0680151Y0243031D03*
X0690151Y0243031D03*
X0700151Y0243031D03*
X0710151Y0243031D03*
X0720151Y0243031D03*
X0730151Y0243031D03*
X0740151Y0243031D03*
X0856789Y0238520D03*
X0856789Y0248520D03*
X0856789Y0258520D03*
X0856789Y0228520D03*
X0709545Y0282890D03*
X0699545Y0282890D03*
X0689545Y0282890D03*
X0679545Y0282890D03*
X0669545Y0282890D03*
X0659545Y0282890D03*
X0649545Y0282890D03*
X0639545Y0282890D03*
X0629545Y0282890D03*
X0619545Y0282890D03*
X0609545Y0282890D03*
X0599545Y0282890D03*
X0589545Y0282890D03*
X0579545Y0282890D03*
X0569545Y0282890D03*
X0559545Y0282890D03*
X0709899Y0308480D03*
X0719899Y0308480D03*
X0729899Y0308480D03*
X0739899Y0308480D03*
X0514269Y0217181D03*
X0514269Y0207181D03*
X0514269Y0197181D03*
X0514269Y0187181D03*
X1046513Y0308480D03*
X1056513Y0308480D03*
X1066513Y0308480D03*
X1076513Y0308480D03*
D11*
X0768206Y0135252D03*
X0760332Y0135252D03*
X0752458Y0135252D03*
X0744584Y0135252D03*
X0736710Y0135252D03*
X0742616Y0078165D03*
X0752458Y0078165D03*
X0762301Y0078165D03*
D12*
X0774309Y0107693D03*
X0730608Y0107693D03*
D13*
X0645844Y0103323D03*
X0645844Y0113323D03*
X0635844Y0113323D03*
X0635844Y0123323D03*
X0645844Y0123323D03*
X0645844Y0133323D03*
X0645844Y0143323D03*
X0625844Y0143323D03*
X0615844Y0143323D03*
X0615844Y0133323D03*
X0625844Y0133323D03*
X0585844Y0133323D03*
X0585844Y0143323D03*
X0585844Y0153323D03*
X0585844Y0163323D03*
X0585844Y0173323D03*
X0585844Y0183323D03*
X0585844Y0193323D03*
X0585844Y0203323D03*
X0615844Y0193323D03*
X0625844Y0193323D03*
X0645844Y0193323D03*
X0645844Y0203323D03*
X0645844Y0183323D03*
X0645844Y0173323D03*
X0645844Y0163323D03*
X0645844Y0153323D03*
X0625844Y0153323D03*
X0615844Y0153323D03*
X0615844Y0163323D03*
X0625844Y0163323D03*
X0625844Y0173323D03*
X0615844Y0173323D03*
X0615844Y0183323D03*
X0625844Y0183323D03*
X0585844Y0123323D03*
X0585844Y0113323D03*
X0585844Y0103323D03*
X0585844Y0093323D03*
X0585844Y0083323D03*
X0585844Y0073323D03*
X0645844Y0073323D03*
X0645844Y0083323D03*
X0645844Y0093323D03*
D14*
X0776080Y0276984D03*
D15*
X0776080Y0300606D03*
D16*
X0793797Y0304528D03*
X0758364Y0304528D03*
D17*
X0677655Y0094071D03*
X0659545Y0076984D03*
X0677655Y0074071D03*
D18*
X0500490Y0124256D02*
X0500490Y0260421D01*
X0562329Y0322260D01*
X0808730Y0322260D01*
X0870569Y0260421D01*
X0870569Y0124256D01*
X0810698Y0064386D01*
X0560360Y0064386D01*
X0500490Y0124256D01*
X0500638Y0124108D02*
X0582009Y0124108D01*
X0582000Y0124087D02*
X0582000Y0122558D01*
X0582586Y0121146D01*
X0583667Y0120064D01*
X0585080Y0119479D01*
X0586609Y0119479D01*
X0588021Y0120064D01*
X0589103Y0121146D01*
X0589688Y0122558D01*
X0589688Y0124087D01*
X0589103Y0125500D01*
X0588021Y0126581D01*
X0586609Y0127167D01*
X0585080Y0127167D01*
X0583667Y0126581D01*
X0582586Y0125500D01*
X0582000Y0124087D01*
X0582000Y0123322D02*
X0501424Y0123322D01*
X0502210Y0122536D02*
X0582010Y0122536D01*
X0582335Y0121750D02*
X0502996Y0121750D01*
X0503782Y0120964D02*
X0582767Y0120964D01*
X0583553Y0120178D02*
X0504568Y0120178D01*
X0505354Y0119392D02*
X0712756Y0119392D01*
X0712587Y0119800D02*
X0712963Y0118892D01*
X0713658Y0118197D01*
X0714565Y0117821D01*
X0715548Y0117821D01*
X0716456Y0118197D01*
X0717151Y0118892D01*
X0717527Y0119800D01*
X0717527Y0120783D01*
X0717151Y0121691D01*
X0716456Y0122385D01*
X0715548Y0122761D01*
X0714565Y0122761D01*
X0713658Y0122385D01*
X0712963Y0121691D01*
X0712587Y0120783D01*
X0712587Y0119800D01*
X0712587Y0120178D02*
X0648135Y0120178D01*
X0648021Y0120064D02*
X0649103Y0121146D01*
X0649688Y0122558D01*
X0649688Y0124087D01*
X0649103Y0125500D01*
X0648021Y0126581D01*
X0646609Y0127167D01*
X0645080Y0127167D01*
X0643667Y0126581D01*
X0642586Y0125500D01*
X0642000Y0124087D01*
X0642000Y0122558D01*
X0642586Y0121146D01*
X0643667Y0120064D01*
X0645080Y0119479D01*
X0646609Y0119479D01*
X0648021Y0120064D01*
X0648921Y0120964D02*
X0712662Y0120964D01*
X0713022Y0121750D02*
X0649353Y0121750D01*
X0649679Y0122536D02*
X0660500Y0122536D01*
X0660207Y0122829D02*
X0660902Y0122134D01*
X0661810Y0121758D01*
X0662792Y0121758D01*
X0663700Y0122134D01*
X0664395Y0122829D01*
X0664771Y0123737D01*
X0664771Y0124720D01*
X0664395Y0125628D01*
X0663700Y0126322D01*
X0662792Y0126698D01*
X0661810Y0126698D01*
X0660902Y0126322D01*
X0660207Y0125628D01*
X0659831Y0124720D01*
X0659831Y0123737D01*
X0660207Y0122829D01*
X0660003Y0123322D02*
X0649688Y0123322D01*
X0649679Y0124108D02*
X0659831Y0124108D01*
X0659903Y0124894D02*
X0649354Y0124894D01*
X0648923Y0125680D02*
X0660259Y0125680D01*
X0661247Y0126466D02*
X0648137Y0126466D01*
X0646923Y0129609D02*
X0870569Y0129609D01*
X0870569Y0128823D02*
X0524882Y0128823D01*
X0524635Y0128577D02*
X0526850Y0130792D01*
X0528049Y0133686D01*
X0528049Y0136818D01*
X0526850Y0139712D01*
X0524635Y0141927D01*
X0521741Y0143126D01*
X0518609Y0143126D01*
X0515715Y0141927D01*
X0513500Y0139712D01*
X0512301Y0136818D01*
X0512301Y0133686D01*
X0513500Y0130792D01*
X0515715Y0128577D01*
X0518609Y0127378D01*
X0521741Y0127378D01*
X0524635Y0128577D01*
X0523333Y0128037D02*
X0870569Y0128037D01*
X0870569Y0127251D02*
X0500490Y0127251D01*
X0500490Y0126466D02*
X0583551Y0126466D01*
X0582765Y0125680D02*
X0500490Y0125680D01*
X0500490Y0124894D02*
X0582334Y0124894D01*
X0584766Y0129609D02*
X0525668Y0129609D01*
X0526453Y0130395D02*
X0583336Y0130395D01*
X0583667Y0130064D02*
X0585080Y0129479D01*
X0586609Y0129479D01*
X0588021Y0130064D01*
X0589103Y0131146D01*
X0589688Y0132558D01*
X0589688Y0134087D01*
X0589103Y0135500D01*
X0588021Y0136581D01*
X0586609Y0137167D01*
X0585080Y0137167D01*
X0583667Y0136581D01*
X0582586Y0135500D01*
X0582000Y0134087D01*
X0582000Y0132558D01*
X0582586Y0131146D01*
X0583667Y0130064D01*
X0582571Y0131181D02*
X0527011Y0131181D01*
X0527337Y0131967D02*
X0582245Y0131967D01*
X0582000Y0132753D02*
X0527662Y0132753D01*
X0527988Y0133539D02*
X0582000Y0133539D01*
X0582099Y0134325D02*
X0528049Y0134325D01*
X0528049Y0135111D02*
X0582424Y0135111D01*
X0582982Y0135896D02*
X0528049Y0135896D01*
X0528049Y0136682D02*
X0583911Y0136682D01*
X0585080Y0139479D02*
X0586609Y0139479D01*
X0588021Y0140064D01*
X0589103Y0141146D01*
X0589688Y0142558D01*
X0589688Y0144087D01*
X0589103Y0145500D01*
X0588021Y0146581D01*
X0586609Y0147167D01*
X0585080Y0147167D01*
X0583667Y0146581D01*
X0582586Y0145500D01*
X0582000Y0144087D01*
X0582000Y0142558D01*
X0582586Y0141146D01*
X0583667Y0140064D01*
X0585080Y0139479D01*
X0584242Y0139826D02*
X0526736Y0139826D01*
X0527129Y0139040D02*
X0734772Y0139040D01*
X0734308Y0138848D02*
X0733114Y0137655D01*
X0732469Y0136096D01*
X0732469Y0134408D01*
X0733114Y0132849D01*
X0734308Y0131656D01*
X0735867Y0131010D01*
X0737554Y0131010D01*
X0739113Y0131656D01*
X0740306Y0132849D01*
X0740647Y0133673D01*
X0740988Y0132849D01*
X0742182Y0131656D01*
X0743741Y0131010D01*
X0745428Y0131010D01*
X0746987Y0131656D01*
X0748180Y0132849D01*
X0748521Y0133673D01*
X0748862Y0132849D01*
X0750056Y0131656D01*
X0751615Y0131010D01*
X0753302Y0131010D01*
X0754861Y0131656D01*
X0756054Y0132849D01*
X0756395Y0133673D01*
X0756736Y0132849D01*
X0757930Y0131656D01*
X0759489Y0131010D01*
X0761176Y0131010D01*
X0762735Y0131656D01*
X0763928Y0132849D01*
X0764269Y0133673D01*
X0764610Y0132849D01*
X0765804Y0131656D01*
X0767363Y0131010D01*
X0769050Y0131010D01*
X0770609Y0131656D01*
X0771802Y0132849D01*
X0772448Y0134408D01*
X0772448Y0136096D01*
X0771802Y0137655D01*
X0770609Y0138848D01*
X0769050Y0139494D01*
X0767363Y0139494D01*
X0765804Y0138848D01*
X0764610Y0137655D01*
X0764269Y0136831D01*
X0763928Y0137655D01*
X0762735Y0138848D01*
X0761176Y0139494D01*
X0759489Y0139494D01*
X0757930Y0138848D01*
X0756736Y0137655D01*
X0756395Y0136831D01*
X0756054Y0137655D01*
X0754861Y0138848D01*
X0753302Y0139494D01*
X0751615Y0139494D01*
X0750056Y0138848D01*
X0748862Y0137655D01*
X0748521Y0136831D01*
X0748180Y0137655D01*
X0746987Y0138848D01*
X0745428Y0139494D01*
X0743741Y0139494D01*
X0742182Y0138848D01*
X0740988Y0137655D01*
X0740647Y0136831D01*
X0740306Y0137655D01*
X0739113Y0138848D01*
X0737554Y0139494D01*
X0735867Y0139494D01*
X0734308Y0138848D01*
X0733714Y0138254D02*
X0527454Y0138254D01*
X0527780Y0137468D02*
X0718677Y0137468D01*
X0718382Y0137346D02*
X0717687Y0136651D01*
X0717311Y0135743D01*
X0717311Y0134761D01*
X0717687Y0133853D01*
X0718382Y0133158D01*
X0719290Y0132782D01*
X0720272Y0132782D01*
X0721180Y0133158D01*
X0721875Y0133853D01*
X0722251Y0134761D01*
X0722251Y0135743D01*
X0721875Y0136651D01*
X0721180Y0137346D01*
X0720272Y0137722D01*
X0719290Y0137722D01*
X0718382Y0137346D01*
X0717718Y0136682D02*
X0647778Y0136682D01*
X0648021Y0136581D02*
X0646609Y0137167D01*
X0645080Y0137167D01*
X0643667Y0136581D01*
X0642586Y0135500D01*
X0642000Y0134087D01*
X0642000Y0132558D01*
X0642586Y0131146D01*
X0643667Y0130064D01*
X0645080Y0129479D01*
X0646609Y0129479D01*
X0648021Y0130064D01*
X0649103Y0131146D01*
X0649688Y0132558D01*
X0649688Y0134087D01*
X0649103Y0135500D01*
X0648021Y0136581D01*
X0648706Y0135896D02*
X0661204Y0135896D01*
X0660902Y0135771D02*
X0660207Y0135076D01*
X0659831Y0134168D01*
X0659831Y0133186D01*
X0660207Y0132278D01*
X0660902Y0131583D01*
X0661810Y0131207D01*
X0662792Y0131207D01*
X0663700Y0131583D01*
X0664395Y0132278D01*
X0664771Y0133186D01*
X0664771Y0134168D01*
X0664395Y0135076D01*
X0663700Y0135771D01*
X0662792Y0136147D01*
X0661810Y0136147D01*
X0660902Y0135771D01*
X0660241Y0135111D02*
X0649264Y0135111D01*
X0649590Y0134325D02*
X0659895Y0134325D01*
X0659831Y0133539D02*
X0649688Y0133539D01*
X0649688Y0132753D02*
X0660010Y0132753D01*
X0660518Y0131967D02*
X0649443Y0131967D01*
X0649117Y0131181D02*
X0735454Y0131181D01*
X0733997Y0131967D02*
X0664084Y0131967D01*
X0664592Y0132753D02*
X0733211Y0132753D01*
X0732829Y0133539D02*
X0721561Y0133539D01*
X0722071Y0134325D02*
X0732503Y0134325D01*
X0732469Y0135111D02*
X0722251Y0135111D01*
X0722188Y0135896D02*
X0732469Y0135896D01*
X0732712Y0136682D02*
X0721844Y0136682D01*
X0720885Y0137468D02*
X0733037Y0137468D01*
X0738649Y0139040D02*
X0742646Y0139040D01*
X0741588Y0138254D02*
X0739707Y0138254D01*
X0740383Y0137468D02*
X0740911Y0137468D01*
X0740703Y0133539D02*
X0740592Y0133539D01*
X0740210Y0132753D02*
X0741085Y0132753D01*
X0741871Y0131967D02*
X0739424Y0131967D01*
X0737966Y0131181D02*
X0743328Y0131181D01*
X0745840Y0131181D02*
X0751202Y0131181D01*
X0749745Y0131967D02*
X0747298Y0131967D01*
X0748084Y0132753D02*
X0748959Y0132753D01*
X0748577Y0133539D02*
X0748466Y0133539D01*
X0748257Y0137468D02*
X0748785Y0137468D01*
X0749462Y0138254D02*
X0747581Y0138254D01*
X0746523Y0139040D02*
X0750520Y0139040D01*
X0754397Y0139040D02*
X0758394Y0139040D01*
X0757336Y0138254D02*
X0755455Y0138254D01*
X0756132Y0137468D02*
X0756659Y0137468D01*
X0756451Y0133539D02*
X0756340Y0133539D01*
X0755958Y0132753D02*
X0756833Y0132753D01*
X0757619Y0131967D02*
X0755172Y0131967D01*
X0753714Y0131181D02*
X0759076Y0131181D01*
X0761588Y0131181D02*
X0766950Y0131181D01*
X0765493Y0131967D02*
X0763046Y0131967D01*
X0763832Y0132753D02*
X0764707Y0132753D01*
X0764325Y0133539D02*
X0764214Y0133539D01*
X0764006Y0137468D02*
X0764533Y0137468D01*
X0765210Y0138254D02*
X0763329Y0138254D01*
X0762271Y0139040D02*
X0766268Y0139040D01*
X0770145Y0139040D02*
X0870569Y0139040D01*
X0870569Y0138254D02*
X0771203Y0138254D01*
X0771880Y0137468D02*
X0870569Y0137468D01*
X0870569Y0136682D02*
X0772205Y0136682D01*
X0772448Y0135896D02*
X0870569Y0135896D01*
X0870569Y0135111D02*
X0772448Y0135111D01*
X0772413Y0134325D02*
X0870569Y0134325D01*
X0870569Y0133539D02*
X0772088Y0133539D01*
X0771706Y0132753D02*
X0870569Y0132753D01*
X0870569Y0131967D02*
X0770920Y0131967D01*
X0769462Y0131181D02*
X0870569Y0131181D01*
X0870569Y0130395D02*
X0648352Y0130395D01*
X0644766Y0129609D02*
X0626923Y0129609D01*
X0626609Y0129479D02*
X0628021Y0130064D01*
X0629103Y0131146D01*
X0629688Y0132558D01*
X0629688Y0134087D01*
X0629103Y0135500D01*
X0628021Y0136581D01*
X0626609Y0137167D01*
X0625080Y0137167D01*
X0623667Y0136581D01*
X0622586Y0135500D01*
X0622000Y0134087D01*
X0622000Y0132558D01*
X0622586Y0131146D01*
X0623667Y0130064D01*
X0625080Y0129479D01*
X0626609Y0129479D01*
X0624766Y0129609D02*
X0616923Y0129609D01*
X0616609Y0129479D02*
X0618021Y0130064D01*
X0619103Y0131146D01*
X0619688Y0132558D01*
X0619688Y0134087D01*
X0619103Y0135500D01*
X0618021Y0136581D01*
X0616609Y0137167D01*
X0615080Y0137167D01*
X0613667Y0136581D01*
X0612586Y0135500D01*
X0612000Y0134087D01*
X0612000Y0132558D01*
X0612586Y0131146D01*
X0613667Y0130064D01*
X0615080Y0129479D01*
X0616609Y0129479D01*
X0614766Y0129609D02*
X0586923Y0129609D01*
X0588352Y0130395D02*
X0613336Y0130395D01*
X0612571Y0131181D02*
X0589117Y0131181D01*
X0589443Y0131967D02*
X0612245Y0131967D01*
X0612000Y0132753D02*
X0589688Y0132753D01*
X0589688Y0133539D02*
X0612000Y0133539D01*
X0612099Y0134325D02*
X0589590Y0134325D01*
X0589264Y0135111D02*
X0612424Y0135111D01*
X0612982Y0135896D02*
X0588706Y0135896D01*
X0587778Y0136682D02*
X0613911Y0136682D01*
X0617778Y0136682D02*
X0623911Y0136682D01*
X0622982Y0135896D02*
X0618706Y0135896D01*
X0619264Y0135111D02*
X0622424Y0135111D01*
X0622099Y0134325D02*
X0619590Y0134325D01*
X0619688Y0133539D02*
X0622000Y0133539D01*
X0622000Y0132753D02*
X0619688Y0132753D01*
X0619443Y0131967D02*
X0622245Y0131967D01*
X0622571Y0131181D02*
X0619117Y0131181D01*
X0618352Y0130395D02*
X0623336Y0130395D01*
X0628352Y0130395D02*
X0643336Y0130395D01*
X0642571Y0131181D02*
X0629117Y0131181D01*
X0629443Y0131967D02*
X0642245Y0131967D01*
X0642000Y0132753D02*
X0629688Y0132753D01*
X0629688Y0133539D02*
X0642000Y0133539D01*
X0642099Y0134325D02*
X0629590Y0134325D01*
X0629264Y0135111D02*
X0642424Y0135111D01*
X0642982Y0135896D02*
X0628706Y0135896D01*
X0627778Y0136682D02*
X0643911Y0136682D01*
X0645080Y0139479D02*
X0643667Y0140064D01*
X0642586Y0141146D01*
X0642000Y0142558D01*
X0642000Y0144087D01*
X0642586Y0145500D01*
X0643667Y0146581D01*
X0645080Y0147167D01*
X0646609Y0147167D01*
X0648021Y0146581D01*
X0649103Y0145500D01*
X0649688Y0144087D01*
X0649688Y0142558D01*
X0649103Y0141146D01*
X0648021Y0140064D01*
X0646609Y0139479D01*
X0645080Y0139479D01*
X0644242Y0139826D02*
X0627446Y0139826D01*
X0628021Y0140064D02*
X0629103Y0141146D01*
X0629688Y0142558D01*
X0629688Y0144087D01*
X0629103Y0145500D01*
X0628021Y0146581D01*
X0626609Y0147167D01*
X0625080Y0147167D01*
X0623667Y0146581D01*
X0622586Y0145500D01*
X0622000Y0144087D01*
X0622000Y0142558D01*
X0622586Y0141146D01*
X0623667Y0140064D01*
X0625080Y0139479D01*
X0626609Y0139479D01*
X0628021Y0140064D01*
X0628569Y0140612D02*
X0643119Y0140612D01*
X0642481Y0141398D02*
X0629207Y0141398D01*
X0629533Y0142184D02*
X0642156Y0142184D01*
X0642000Y0142970D02*
X0629688Y0142970D01*
X0629688Y0143756D02*
X0642000Y0143756D01*
X0642189Y0144541D02*
X0629500Y0144541D01*
X0629174Y0145327D02*
X0642514Y0145327D01*
X0643199Y0146113D02*
X0628489Y0146113D01*
X0627254Y0146899D02*
X0644434Y0146899D01*
X0645080Y0149479D02*
X0643667Y0150064D01*
X0642586Y0151146D01*
X0642000Y0152558D01*
X0642000Y0154087D01*
X0642586Y0155500D01*
X0643667Y0156581D01*
X0645080Y0157167D01*
X0646609Y0157167D01*
X0648021Y0156581D01*
X0649103Y0155500D01*
X0649688Y0154087D01*
X0649688Y0152558D01*
X0649103Y0151146D01*
X0648021Y0150064D01*
X0646609Y0149479D01*
X0645080Y0149479D01*
X0643719Y0150043D02*
X0627970Y0150043D01*
X0628021Y0150064D02*
X0629103Y0151146D01*
X0629688Y0152558D01*
X0629688Y0154087D01*
X0629103Y0155500D01*
X0628021Y0156581D01*
X0626609Y0157167D01*
X0625080Y0157167D01*
X0623667Y0156581D01*
X0622586Y0155500D01*
X0622000Y0154087D01*
X0622000Y0152558D01*
X0622586Y0151146D01*
X0623667Y0150064D01*
X0625080Y0149479D01*
X0626609Y0149479D01*
X0628021Y0150064D01*
X0628786Y0150829D02*
X0642902Y0150829D01*
X0642391Y0151615D02*
X0629297Y0151615D01*
X0629623Y0152401D02*
X0642066Y0152401D01*
X0642000Y0153187D02*
X0629688Y0153187D01*
X0629688Y0153972D02*
X0642000Y0153972D01*
X0642278Y0154758D02*
X0629410Y0154758D01*
X0629059Y0155544D02*
X0642630Y0155544D01*
X0643416Y0156330D02*
X0628273Y0156330D01*
X0626730Y0157116D02*
X0644958Y0157116D01*
X0646730Y0157116D02*
X0824057Y0157116D01*
X0824383Y0156330D02*
X0648273Y0156330D01*
X0649059Y0155544D02*
X0824708Y0155544D01*
X0824823Y0155267D02*
X0827592Y0152498D01*
X0831209Y0151000D01*
X0835125Y0151000D01*
X0838742Y0152498D01*
X0841511Y0155267D01*
X0843009Y0158885D01*
X0843009Y0162800D01*
X0841511Y0166418D01*
X0838742Y0169187D01*
X0835125Y0170685D01*
X0831209Y0170685D01*
X0827592Y0169187D01*
X0824823Y0166418D01*
X0823324Y0162800D01*
X0823324Y0158885D01*
X0824823Y0155267D01*
X0825332Y0154758D02*
X0649410Y0154758D01*
X0649688Y0153972D02*
X0826118Y0153972D01*
X0826904Y0153187D02*
X0671088Y0153187D01*
X0670787Y0153488D02*
X0671481Y0152793D01*
X0671858Y0151885D01*
X0671858Y0150902D01*
X0671481Y0149995D01*
X0670787Y0149300D01*
X0669879Y0148924D01*
X0668896Y0148924D01*
X0667988Y0149300D01*
X0667293Y0149995D01*
X0666917Y0150902D01*
X0666917Y0151885D01*
X0667293Y0152793D01*
X0667988Y0153488D01*
X0668896Y0153864D01*
X0669879Y0153864D01*
X0670787Y0153488D01*
X0671644Y0152401D02*
X0827828Y0152401D01*
X0829725Y0151615D02*
X0671858Y0151615D01*
X0671827Y0150829D02*
X0870569Y0150829D01*
X0870569Y0151615D02*
X0836609Y0151615D01*
X0838506Y0152401D02*
X0870569Y0152401D01*
X0870569Y0153187D02*
X0839430Y0153187D01*
X0840216Y0153972D02*
X0870569Y0153972D01*
X0870569Y0154758D02*
X0841002Y0154758D01*
X0841626Y0155544D02*
X0870569Y0155544D01*
X0870569Y0156330D02*
X0841951Y0156330D01*
X0842277Y0157116D02*
X0870569Y0157116D01*
X0870569Y0157902D02*
X0842602Y0157902D01*
X0842928Y0158688D02*
X0870569Y0158688D01*
X0870569Y0159474D02*
X0843009Y0159474D01*
X0843009Y0160260D02*
X0870569Y0160260D01*
X0870569Y0161046D02*
X0843009Y0161046D01*
X0843009Y0161832D02*
X0870569Y0161832D01*
X0870569Y0162617D02*
X0843009Y0162617D01*
X0842760Y0163403D02*
X0870569Y0163403D01*
X0870569Y0164189D02*
X0842434Y0164189D01*
X0842109Y0164975D02*
X0870569Y0164975D01*
X0870569Y0165761D02*
X0841783Y0165761D01*
X0841382Y0166547D02*
X0870569Y0166547D01*
X0870569Y0167333D02*
X0840596Y0167333D01*
X0839810Y0168119D02*
X0870569Y0168119D01*
X0870569Y0168905D02*
X0839024Y0168905D01*
X0837525Y0169691D02*
X0870569Y0169691D01*
X0870569Y0170477D02*
X0835628Y0170477D01*
X0830706Y0170477D02*
X0648434Y0170477D01*
X0648021Y0170064D02*
X0649103Y0171146D01*
X0649688Y0172558D01*
X0649688Y0174087D01*
X0649103Y0175500D01*
X0648021Y0176581D01*
X0646609Y0177167D01*
X0645080Y0177167D01*
X0643667Y0176581D01*
X0642586Y0175500D01*
X0642000Y0174087D01*
X0642000Y0172558D01*
X0642586Y0171146D01*
X0643667Y0170064D01*
X0645080Y0169479D01*
X0646609Y0169479D01*
X0648021Y0170064D01*
X0647120Y0169691D02*
X0828809Y0169691D01*
X0827310Y0168905D02*
X0543749Y0168905D01*
X0543467Y0169187D02*
X0539849Y0170685D01*
X0535934Y0170685D01*
X0532316Y0169187D01*
X0529547Y0166418D01*
X0528049Y0162800D01*
X0528049Y0158885D01*
X0529547Y0155267D01*
X0532316Y0152498D01*
X0535934Y0151000D01*
X0539849Y0151000D01*
X0543467Y0152498D01*
X0546235Y0155267D01*
X0547734Y0158885D01*
X0547734Y0162800D01*
X0546235Y0166418D01*
X0543467Y0169187D01*
X0542250Y0169691D02*
X0584569Y0169691D01*
X0585080Y0169479D02*
X0586609Y0169479D01*
X0588021Y0170064D01*
X0589103Y0171146D01*
X0589688Y0172558D01*
X0589688Y0174087D01*
X0589103Y0175500D01*
X0588021Y0176581D01*
X0586609Y0177167D01*
X0585080Y0177167D01*
X0583667Y0176581D01*
X0582586Y0175500D01*
X0582000Y0174087D01*
X0582000Y0172558D01*
X0582586Y0171146D01*
X0583667Y0170064D01*
X0585080Y0169479D01*
X0587120Y0169691D02*
X0614569Y0169691D01*
X0615080Y0169479D02*
X0616609Y0169479D01*
X0618021Y0170064D01*
X0619103Y0171146D01*
X0619688Y0172558D01*
X0619688Y0174087D01*
X0619103Y0175500D01*
X0618021Y0176581D01*
X0616609Y0177167D01*
X0615080Y0177167D01*
X0613667Y0176581D01*
X0612586Y0175500D01*
X0612000Y0174087D01*
X0612000Y0172558D01*
X0612586Y0171146D01*
X0613667Y0170064D01*
X0615080Y0169479D01*
X0617120Y0169691D02*
X0624569Y0169691D01*
X0625080Y0169479D02*
X0626609Y0169479D01*
X0628021Y0170064D01*
X0629103Y0171146D01*
X0629688Y0172558D01*
X0629688Y0174087D01*
X0629103Y0175500D01*
X0628021Y0176581D01*
X0626609Y0177167D01*
X0625080Y0177167D01*
X0623667Y0176581D01*
X0622586Y0175500D01*
X0622000Y0174087D01*
X0622000Y0172558D01*
X0622586Y0171146D01*
X0623667Y0170064D01*
X0625080Y0169479D01*
X0627120Y0169691D02*
X0644569Y0169691D01*
X0643255Y0170477D02*
X0628434Y0170477D01*
X0629151Y0171263D02*
X0642537Y0171263D01*
X0642212Y0172048D02*
X0629477Y0172048D01*
X0629688Y0172834D02*
X0642000Y0172834D01*
X0642000Y0173620D02*
X0629688Y0173620D01*
X0629556Y0174406D02*
X0642133Y0174406D01*
X0642458Y0175192D02*
X0629230Y0175192D01*
X0628625Y0175978D02*
X0643064Y0175978D01*
X0644108Y0176764D02*
X0627581Y0176764D01*
X0626609Y0179479D02*
X0628021Y0180064D01*
X0629103Y0181146D01*
X0629688Y0182558D01*
X0629688Y0184087D01*
X0629103Y0185500D01*
X0628021Y0186581D01*
X0626609Y0187167D01*
X0625080Y0187167D01*
X0623667Y0186581D01*
X0622586Y0185500D01*
X0622000Y0184087D01*
X0622000Y0182558D01*
X0622586Y0181146D01*
X0623667Y0180064D01*
X0625080Y0179479D01*
X0626609Y0179479D01*
X0627643Y0179908D02*
X0644045Y0179908D01*
X0643667Y0180064D02*
X0645080Y0179479D01*
X0646609Y0179479D01*
X0648021Y0180064D01*
X0649103Y0181146D01*
X0649688Y0182558D01*
X0649688Y0184087D01*
X0649103Y0185500D01*
X0648021Y0186581D01*
X0646609Y0187167D01*
X0645080Y0187167D01*
X0643667Y0186581D01*
X0642586Y0185500D01*
X0642000Y0184087D01*
X0642000Y0182558D01*
X0642586Y0181146D01*
X0643667Y0180064D01*
X0643038Y0180693D02*
X0628651Y0180693D01*
X0629241Y0181479D02*
X0642447Y0181479D01*
X0642122Y0182265D02*
X0629566Y0182265D01*
X0629688Y0183051D02*
X0642000Y0183051D01*
X0642000Y0183837D02*
X0629688Y0183837D01*
X0629466Y0184623D02*
X0642222Y0184623D01*
X0642548Y0185409D02*
X0629140Y0185409D01*
X0628408Y0186195D02*
X0643280Y0186195D01*
X0644631Y0186981D02*
X0627057Y0186981D01*
X0624631Y0186981D02*
X0617057Y0186981D01*
X0616609Y0187167D02*
X0615080Y0187167D01*
X0613667Y0186581D01*
X0612586Y0185500D01*
X0612000Y0184087D01*
X0612000Y0182558D01*
X0612586Y0181146D01*
X0613667Y0180064D01*
X0615080Y0179479D01*
X0616609Y0179479D01*
X0618021Y0180064D01*
X0619103Y0181146D01*
X0619688Y0182558D01*
X0619688Y0184087D01*
X0619103Y0185500D01*
X0618021Y0186581D01*
X0616609Y0187167D01*
X0614631Y0186981D02*
X0587057Y0186981D01*
X0586609Y0187167D02*
X0588021Y0186581D01*
X0589103Y0185500D01*
X0589688Y0184087D01*
X0589688Y0182558D01*
X0589103Y0181146D01*
X0588021Y0180064D01*
X0586609Y0179479D01*
X0585080Y0179479D01*
X0583667Y0180064D01*
X0582586Y0181146D01*
X0582000Y0182558D01*
X0582000Y0184087D01*
X0582586Y0185500D01*
X0583667Y0186581D01*
X0585080Y0187167D01*
X0586609Y0187167D01*
X0584631Y0186981D02*
X0518263Y0186981D01*
X0518263Y0186387D02*
X0517655Y0184919D01*
X0516532Y0183795D01*
X0515064Y0183187D01*
X0513475Y0183187D01*
X0512007Y0183795D01*
X0510884Y0184919D01*
X0510276Y0186387D01*
X0510276Y0187975D01*
X0510884Y0189443D01*
X0512007Y0190567D01*
X0513475Y0191175D01*
X0515064Y0191175D01*
X0516532Y0190567D01*
X0517655Y0189443D01*
X0518263Y0187975D01*
X0518263Y0186387D01*
X0518184Y0186195D02*
X0583280Y0186195D01*
X0582548Y0185409D02*
X0517858Y0185409D01*
X0517359Y0184623D02*
X0582222Y0184623D01*
X0582000Y0183837D02*
X0516573Y0183837D01*
X0518263Y0187767D02*
X0704209Y0187767D01*
X0704209Y0187551D02*
X0705021Y0186739D01*
X0745671Y0186739D01*
X0746484Y0187551D01*
X0746484Y0248701D01*
X0745671Y0249513D01*
X0724990Y0249513D01*
X0724789Y0249312D01*
X0724646Y0249454D01*
X0665646Y0249454D01*
X0664546Y0249454D01*
X0663768Y0248676D01*
X0663768Y0214576D01*
X0664546Y0213798D01*
X0696851Y0213798D01*
X0696889Y0213764D01*
X0697394Y0213798D01*
X0697900Y0213798D01*
X0697936Y0213834D01*
X0697987Y0213837D01*
X0698321Y0214218D01*
X0698678Y0214576D01*
X0698678Y0214627D01*
X0704953Y0221798D01*
X0719546Y0221798D01*
X0723768Y0217576D01*
X0724546Y0216798D01*
X0728833Y0216798D01*
X0729829Y0215801D01*
X0730204Y0215801D01*
X0730208Y0212700D01*
X0724521Y0207013D01*
X0705021Y0207013D01*
X0704209Y0206201D01*
X0704209Y0187551D01*
X0704779Y0186981D02*
X0647057Y0186981D01*
X0648408Y0186195D02*
X0782771Y0186195D01*
X0782845Y0186018D02*
X0783539Y0185323D01*
X0784447Y0184947D01*
X0785430Y0184947D01*
X0786338Y0185323D01*
X0787033Y0186018D01*
X0787409Y0186926D01*
X0787409Y0187909D01*
X0787033Y0188816D01*
X0786338Y0189511D01*
X0785430Y0189887D01*
X0784447Y0189887D01*
X0783539Y0189511D01*
X0782845Y0188816D01*
X0782469Y0187909D01*
X0782469Y0186926D01*
X0782845Y0186018D01*
X0783454Y0185409D02*
X0649140Y0185409D01*
X0649466Y0184623D02*
X0870569Y0184623D01*
X0870569Y0183837D02*
X0649688Y0183837D01*
X0649688Y0183051D02*
X0870569Y0183051D01*
X0870569Y0182265D02*
X0649566Y0182265D01*
X0649241Y0181479D02*
X0870569Y0181479D01*
X0870569Y0180693D02*
X0648651Y0180693D01*
X0647643Y0179908D02*
X0870569Y0179908D01*
X0870569Y0179122D02*
X0500490Y0179122D01*
X0500490Y0179908D02*
X0584045Y0179908D01*
X0583038Y0180693D02*
X0500490Y0180693D01*
X0500490Y0181479D02*
X0582447Y0181479D01*
X0582122Y0182265D02*
X0500490Y0182265D01*
X0500490Y0183051D02*
X0582000Y0183051D01*
X0587643Y0179908D02*
X0614045Y0179908D01*
X0613038Y0180693D02*
X0588651Y0180693D01*
X0589241Y0181479D02*
X0612447Y0181479D01*
X0612122Y0182265D02*
X0589566Y0182265D01*
X0589688Y0183051D02*
X0612000Y0183051D01*
X0612000Y0183837D02*
X0589688Y0183837D01*
X0589466Y0184623D02*
X0612222Y0184623D01*
X0612548Y0185409D02*
X0589140Y0185409D01*
X0588408Y0186195D02*
X0613280Y0186195D01*
X0615080Y0189479D02*
X0616609Y0189479D01*
X0618021Y0190064D01*
X0619103Y0191146D01*
X0619688Y0192558D01*
X0619688Y0194087D01*
X0619103Y0195500D01*
X0618021Y0196581D01*
X0616609Y0197167D01*
X0615080Y0197167D01*
X0613667Y0196581D01*
X0612586Y0195500D01*
X0612000Y0194087D01*
X0612000Y0192558D01*
X0612586Y0191146D01*
X0613667Y0190064D01*
X0615080Y0189479D01*
X0613607Y0190124D02*
X0588082Y0190124D01*
X0588021Y0190064D02*
X0589103Y0191146D01*
X0589688Y0192558D01*
X0589688Y0194087D01*
X0589103Y0195500D01*
X0588021Y0196581D01*
X0586609Y0197167D01*
X0585080Y0197167D01*
X0583667Y0196581D01*
X0582586Y0195500D01*
X0582000Y0194087D01*
X0582000Y0192558D01*
X0582586Y0191146D01*
X0583667Y0190064D01*
X0585080Y0189479D01*
X0586609Y0189479D01*
X0588021Y0190064D01*
X0588867Y0190910D02*
X0612821Y0190910D01*
X0612357Y0191696D02*
X0589331Y0191696D01*
X0589656Y0192482D02*
X0612032Y0192482D01*
X0612000Y0193268D02*
X0589688Y0193268D01*
X0589688Y0194054D02*
X0599766Y0194054D01*
X0600218Y0193602D02*
X0601943Y0193602D01*
X0603163Y0194822D01*
X0603163Y0196548D01*
X0601943Y0197768D01*
X0600218Y0197768D01*
X0598998Y0196548D01*
X0598998Y0194822D01*
X0600218Y0193602D01*
X0598998Y0194840D02*
X0589376Y0194840D01*
X0588977Y0195626D02*
X0598998Y0195626D01*
X0598998Y0196412D02*
X0588191Y0196412D01*
X0586793Y0199555D02*
X0644895Y0199555D01*
X0645080Y0199479D02*
X0646609Y0199479D01*
X0648021Y0200064D01*
X0649103Y0201146D01*
X0649688Y0202558D01*
X0649688Y0204087D01*
X0649103Y0205500D01*
X0648021Y0206581D01*
X0646609Y0207167D01*
X0645080Y0207167D01*
X0643667Y0206581D01*
X0642586Y0205500D01*
X0642000Y0204087D01*
X0642000Y0202558D01*
X0642586Y0201146D01*
X0643667Y0200064D01*
X0645080Y0199479D01*
X0646793Y0199555D02*
X0704209Y0199555D01*
X0704209Y0198769D02*
X0517934Y0198769D01*
X0517655Y0199443D02*
X0516532Y0200567D01*
X0515064Y0201175D01*
X0513475Y0201175D01*
X0512007Y0200567D01*
X0510884Y0199443D01*
X0510276Y0197975D01*
X0510276Y0196387D01*
X0510884Y0194919D01*
X0512007Y0193795D01*
X0513475Y0193187D01*
X0515064Y0193187D01*
X0516532Y0193795D01*
X0517655Y0194919D01*
X0518263Y0196387D01*
X0518263Y0197975D01*
X0517655Y0199443D01*
X0517543Y0199555D02*
X0584895Y0199555D01*
X0585080Y0199479D02*
X0586609Y0199479D01*
X0588021Y0200064D01*
X0589103Y0201146D01*
X0589688Y0202558D01*
X0589688Y0204087D01*
X0589103Y0205500D01*
X0588021Y0206581D01*
X0586609Y0207167D01*
X0585080Y0207167D01*
X0583667Y0206581D01*
X0582586Y0205500D01*
X0582000Y0204087D01*
X0582000Y0202558D01*
X0582586Y0201146D01*
X0583667Y0200064D01*
X0585080Y0199479D01*
X0583390Y0200341D02*
X0516757Y0200341D01*
X0515179Y0201127D02*
X0582604Y0201127D01*
X0582268Y0201913D02*
X0500490Y0201913D01*
X0500490Y0201127D02*
X0513360Y0201127D01*
X0511782Y0200341D02*
X0500490Y0200341D01*
X0500490Y0199555D02*
X0510996Y0199555D01*
X0510605Y0198769D02*
X0500490Y0198769D01*
X0500490Y0197984D02*
X0510279Y0197984D01*
X0510276Y0197198D02*
X0500490Y0197198D01*
X0500490Y0196412D02*
X0510276Y0196412D01*
X0510591Y0195626D02*
X0500490Y0195626D01*
X0500490Y0194840D02*
X0510963Y0194840D01*
X0511748Y0194054D02*
X0500490Y0194054D01*
X0500490Y0193268D02*
X0513280Y0193268D01*
X0515259Y0193268D02*
X0582000Y0193268D01*
X0582000Y0194054D02*
X0516790Y0194054D01*
X0517576Y0194840D02*
X0582312Y0194840D01*
X0582711Y0195626D02*
X0517948Y0195626D01*
X0518263Y0196412D02*
X0583497Y0196412D01*
X0582032Y0192482D02*
X0500490Y0192482D01*
X0500490Y0191696D02*
X0582357Y0191696D01*
X0582821Y0190910D02*
X0515702Y0190910D01*
X0516974Y0190124D02*
X0583607Y0190124D01*
X0588298Y0200341D02*
X0643390Y0200341D01*
X0642604Y0201127D02*
X0589084Y0201127D01*
X0589421Y0201913D02*
X0642268Y0201913D01*
X0642000Y0202699D02*
X0589688Y0202699D01*
X0589688Y0203485D02*
X0642000Y0203485D01*
X0642076Y0204271D02*
X0589612Y0204271D01*
X0589286Y0205057D02*
X0642402Y0205057D01*
X0642928Y0205843D02*
X0588760Y0205843D01*
X0587907Y0206629D02*
X0643781Y0206629D01*
X0647907Y0206629D02*
X0693417Y0206629D01*
X0693417Y0207103D02*
X0693417Y0205460D01*
X0694579Y0204297D01*
X0696223Y0204297D01*
X0697385Y0205460D01*
X0697385Y0205797D01*
X0698473Y0205797D01*
X0699635Y0206960D01*
X0699635Y0208603D01*
X0698473Y0209766D01*
X0696829Y0209766D01*
X0695667Y0208603D01*
X0695667Y0208266D01*
X0694579Y0208266D01*
X0693417Y0207103D01*
X0693728Y0207415D02*
X0518263Y0207415D01*
X0518263Y0207975D02*
X0517655Y0209443D01*
X0516532Y0210567D01*
X0515064Y0211175D01*
X0513475Y0211175D01*
X0512007Y0210567D01*
X0510884Y0209443D01*
X0510276Y0207975D01*
X0510276Y0206387D01*
X0510884Y0204919D01*
X0512007Y0203795D01*
X0513475Y0203187D01*
X0515064Y0203187D01*
X0516532Y0203795D01*
X0517655Y0204919D01*
X0518263Y0206387D01*
X0518263Y0207975D01*
X0518170Y0208200D02*
X0694514Y0208200D01*
X0696050Y0208986D02*
X0517844Y0208986D01*
X0517326Y0209772D02*
X0727280Y0209772D01*
X0726494Y0208986D02*
X0699253Y0208986D01*
X0699635Y0208200D02*
X0725709Y0208200D01*
X0724923Y0207415D02*
X0699635Y0207415D01*
X0699305Y0206629D02*
X0704637Y0206629D01*
X0704209Y0205843D02*
X0698519Y0205843D01*
X0696983Y0205057D02*
X0704209Y0205057D01*
X0704209Y0204271D02*
X0649612Y0204271D01*
X0649688Y0203485D02*
X0704209Y0203485D01*
X0704209Y0202699D02*
X0649688Y0202699D01*
X0649421Y0201913D02*
X0704209Y0201913D01*
X0704209Y0201127D02*
X0649084Y0201127D01*
X0648298Y0200341D02*
X0704209Y0200341D01*
X0705596Y0200341D02*
X0712325Y0200341D01*
X0712327Y0200549D02*
X0712293Y0197157D01*
X0711819Y0196663D01*
X0710946Y0197025D01*
X0709357Y0197025D01*
X0707889Y0196417D01*
X0706766Y0195294D01*
X0706158Y0193826D01*
X0706158Y0192237D01*
X0706766Y0190769D01*
X0707889Y0189646D01*
X0709357Y0189038D01*
X0710946Y0189038D01*
X0712413Y0189646D01*
X0713537Y0190769D01*
X0714145Y0192237D01*
X0714145Y0193826D01*
X0713716Y0194860D01*
X0714527Y0195706D01*
X0714899Y0196071D01*
X0714899Y0196095D01*
X0714916Y0196112D01*
X0714905Y0196633D01*
X0714944Y0200433D01*
X0716079Y0199297D01*
X0717723Y0199297D01*
X0718776Y0200350D01*
X0719829Y0199297D01*
X0721473Y0199297D01*
X0722635Y0200460D01*
X0722635Y0200741D01*
X0723329Y0200047D01*
X0724973Y0200047D01*
X0725869Y0200943D01*
X0726461Y0200350D01*
X0728105Y0200350D01*
X0728167Y0200412D01*
X0728167Y0200210D01*
X0729329Y0199047D01*
X0730973Y0199047D01*
X0732135Y0200210D01*
X0732135Y0201853D01*
X0730973Y0203016D01*
X0729329Y0203016D01*
X0729267Y0202954D01*
X0729267Y0203157D01*
X0728105Y0204319D01*
X0726461Y0204319D01*
X0725566Y0203423D01*
X0724973Y0204016D01*
X0723329Y0204016D01*
X0722167Y0202853D01*
X0722167Y0202572D01*
X0721473Y0203266D01*
X0719829Y0203266D01*
X0718776Y0202213D01*
X0717723Y0203266D01*
X0716079Y0203266D01*
X0715635Y0202822D01*
X0715635Y0202853D01*
X0714473Y0204016D01*
X0712829Y0204016D01*
X0711667Y0202853D01*
X0711667Y0201210D01*
X0712327Y0200549D01*
X0711749Y0201127D02*
X0705596Y0201127D01*
X0705596Y0201913D02*
X0711667Y0201913D01*
X0711667Y0202699D02*
X0705596Y0202699D01*
X0705596Y0203485D02*
X0712299Y0203485D01*
X0715004Y0203485D02*
X0722799Y0203485D01*
X0722167Y0202699D02*
X0722040Y0202699D01*
X0722517Y0200341D02*
X0723035Y0200341D01*
X0721731Y0199555D02*
X0728821Y0199555D01*
X0728167Y0200341D02*
X0725267Y0200341D01*
X0725504Y0203485D02*
X0725627Y0203485D01*
X0726413Y0204271D02*
X0705596Y0204271D01*
X0705596Y0205057D02*
X0745096Y0205057D01*
X0745096Y0205843D02*
X0743644Y0205843D01*
X0743473Y0205672D02*
X0744635Y0206835D01*
X0744635Y0208478D01*
X0743473Y0209641D01*
X0741829Y0209641D01*
X0741401Y0209213D01*
X0740973Y0209641D01*
X0739329Y0209641D01*
X0738167Y0208478D01*
X0738167Y0206835D01*
X0739329Y0205672D01*
X0740973Y0205672D01*
X0741401Y0206100D01*
X0741829Y0205672D01*
X0743473Y0205672D01*
X0744430Y0206629D02*
X0745096Y0206629D01*
X0745096Y0207415D02*
X0744635Y0207415D01*
X0744635Y0208200D02*
X0745096Y0208200D01*
X0745096Y0208986D02*
X0744128Y0208986D01*
X0745096Y0209772D02*
X0729242Y0209772D01*
X0728687Y0209217D02*
X0731596Y0212126D01*
X0731591Y0215919D01*
X0732469Y0216797D01*
X0733333Y0216797D01*
X0734329Y0215801D01*
X0735973Y0215801D01*
X0737135Y0216964D01*
X0737135Y0218607D01*
X0735973Y0219770D01*
X0734719Y0219770D01*
X0733723Y0220766D01*
X0732079Y0220766D01*
X0731585Y0220271D01*
X0731565Y0234626D01*
X0725565Y0240657D01*
X0725565Y0248126D01*
X0745096Y0248126D01*
X0745096Y0239515D01*
X0745013Y0239598D01*
X0743369Y0239598D01*
X0742206Y0238436D01*
X0742206Y0236792D01*
X0743369Y0235630D01*
X0745013Y0235630D01*
X0745096Y0235714D01*
X0745096Y0188126D01*
X0705596Y0188126D01*
X0705596Y0205626D01*
X0725096Y0205626D01*
X0727116Y0207646D01*
X0727116Y0206410D01*
X0728278Y0205248D01*
X0729922Y0205248D01*
X0730475Y0205801D01*
X0731028Y0205248D01*
X0732672Y0205248D01*
X0733199Y0205776D01*
X0733727Y0205248D01*
X0735371Y0205248D01*
X0736533Y0206410D01*
X0736533Y0208054D01*
X0735371Y0209217D01*
X0733727Y0209217D01*
X0733199Y0208689D01*
X0732672Y0209217D01*
X0731028Y0209217D01*
X0730475Y0208663D01*
X0729922Y0209217D01*
X0728687Y0209217D01*
X0728066Y0210558D02*
X0699484Y0210558D01*
X0699885Y0210960D02*
X0698723Y0209797D01*
X0697079Y0209797D01*
X0695917Y0210960D01*
X0695917Y0212603D01*
X0697079Y0213766D01*
X0698723Y0213766D01*
X0699885Y0212603D01*
X0699885Y0210960D01*
X0699885Y0211344D02*
X0728852Y0211344D01*
X0729638Y0212130D02*
X0699885Y0212130D01*
X0699573Y0212916D02*
X0730208Y0212916D01*
X0730207Y0213702D02*
X0698787Y0213702D01*
X0698590Y0214488D02*
X0730205Y0214488D01*
X0730204Y0215274D02*
X0699244Y0215274D01*
X0699932Y0216060D02*
X0729571Y0216060D01*
X0731732Y0216060D02*
X0734071Y0216060D01*
X0736232Y0216060D02*
X0745096Y0216060D01*
X0745096Y0216845D02*
X0743771Y0216845D01*
X0743473Y0216547D02*
X0744635Y0217710D01*
X0744635Y0219353D01*
X0743473Y0220516D01*
X0741829Y0220516D01*
X0741401Y0220088D01*
X0740973Y0220516D01*
X0739329Y0220516D01*
X0738167Y0219353D01*
X0738167Y0217710D01*
X0739329Y0216547D01*
X0740973Y0216547D01*
X0741401Y0216975D01*
X0741829Y0216547D01*
X0743473Y0216547D01*
X0744557Y0217631D02*
X0745096Y0217631D01*
X0745096Y0218417D02*
X0744635Y0218417D01*
X0744635Y0219203D02*
X0745096Y0219203D01*
X0745096Y0219989D02*
X0744000Y0219989D01*
X0743473Y0220547D02*
X0744635Y0221710D01*
X0744635Y0223353D01*
X0743473Y0224516D01*
X0741829Y0224516D01*
X0740667Y0223353D01*
X0740667Y0221710D01*
X0741829Y0220547D01*
X0743473Y0220547D01*
X0743701Y0220775D02*
X0745096Y0220775D01*
X0745096Y0221561D02*
X0744487Y0221561D01*
X0744635Y0222347D02*
X0745096Y0222347D01*
X0745096Y0223133D02*
X0744635Y0223133D01*
X0745096Y0223919D02*
X0744070Y0223919D01*
X0745096Y0224705D02*
X0731579Y0224705D01*
X0731577Y0225491D02*
X0745096Y0225491D01*
X0745096Y0226276D02*
X0731576Y0226276D01*
X0731575Y0227062D02*
X0745096Y0227062D01*
X0745096Y0227848D02*
X0731574Y0227848D01*
X0731573Y0228634D02*
X0745096Y0228634D01*
X0745096Y0229420D02*
X0731572Y0229420D01*
X0731571Y0230206D02*
X0745096Y0230206D01*
X0745096Y0230992D02*
X0731570Y0230992D01*
X0731569Y0231778D02*
X0745096Y0231778D01*
X0745096Y0232564D02*
X0731568Y0232564D01*
X0731566Y0233350D02*
X0745096Y0233350D01*
X0745096Y0234136D02*
X0731565Y0234136D01*
X0731271Y0234921D02*
X0745096Y0234921D01*
X0745090Y0235707D02*
X0745096Y0235707D01*
X0746484Y0235707D02*
X0829483Y0235707D01*
X0829632Y0235646D02*
X0832765Y0235646D01*
X0835659Y0236844D01*
X0837874Y0239059D01*
X0839072Y0241953D01*
X0839072Y0245086D01*
X0837874Y0247980D01*
X0835659Y0250195D01*
X0832765Y0251394D01*
X0829632Y0251394D01*
X0826738Y0250195D01*
X0824523Y0247980D01*
X0823324Y0245086D01*
X0823324Y0241953D01*
X0824523Y0239059D01*
X0826738Y0236844D01*
X0829632Y0235646D01*
X0827586Y0236493D02*
X0746484Y0236493D01*
X0746484Y0237279D02*
X0826303Y0237279D01*
X0825517Y0238065D02*
X0746484Y0238065D01*
X0746484Y0238851D02*
X0824732Y0238851D01*
X0824284Y0239637D02*
X0746484Y0239637D01*
X0746484Y0240423D02*
X0823958Y0240423D01*
X0823633Y0241209D02*
X0746484Y0241209D01*
X0746484Y0241995D02*
X0823324Y0241995D01*
X0823324Y0242781D02*
X0746484Y0242781D01*
X0746484Y0243567D02*
X0823324Y0243567D01*
X0823324Y0244352D02*
X0746484Y0244352D01*
X0746484Y0245138D02*
X0823346Y0245138D01*
X0823672Y0245924D02*
X0746484Y0245924D01*
X0746484Y0246710D02*
X0823997Y0246710D01*
X0824323Y0247496D02*
X0746484Y0247496D01*
X0746484Y0248282D02*
X0824825Y0248282D01*
X0825611Y0249068D02*
X0746116Y0249068D01*
X0745096Y0247496D02*
X0725565Y0247496D01*
X0725565Y0246710D02*
X0727740Y0246710D01*
X0727848Y0246789D02*
X0727289Y0246383D01*
X0726800Y0245894D01*
X0726393Y0245334D01*
X0726079Y0244718D01*
X0725866Y0244060D01*
X0725765Y0243425D01*
X0729757Y0243425D01*
X0729757Y0242638D01*
X0725765Y0242638D01*
X0725866Y0242003D01*
X0726079Y0241345D01*
X0726393Y0240729D01*
X0726800Y0240169D01*
X0727289Y0239680D01*
X0727848Y0239274D01*
X0728465Y0238960D01*
X0729122Y0238746D01*
X0729758Y0238645D01*
X0729758Y0242638D01*
X0730545Y0242638D01*
X0730545Y0243425D01*
X0734537Y0243425D01*
X0734437Y0244060D01*
X0734223Y0244718D01*
X0733909Y0245334D01*
X0733503Y0245894D01*
X0733014Y0246383D01*
X0732454Y0246789D01*
X0731838Y0247103D01*
X0731180Y0247317D01*
X0730545Y0247418D01*
X0730545Y0243425D01*
X0729758Y0243425D01*
X0729758Y0247418D01*
X0729122Y0247317D01*
X0728465Y0247103D01*
X0727848Y0246789D01*
X0726830Y0245924D02*
X0725565Y0245924D01*
X0725565Y0245138D02*
X0726294Y0245138D01*
X0725961Y0244352D02*
X0725565Y0244352D01*
X0725565Y0243567D02*
X0725788Y0243567D01*
X0725565Y0242781D02*
X0729757Y0242781D01*
X0729758Y0243567D02*
X0730545Y0243567D01*
X0730545Y0244352D02*
X0729758Y0244352D01*
X0729758Y0245138D02*
X0730545Y0245138D01*
X0730545Y0245924D02*
X0729758Y0245924D01*
X0729758Y0246710D02*
X0730545Y0246710D01*
X0732563Y0246710D02*
X0738596Y0246710D01*
X0737889Y0246417D02*
X0736766Y0245294D01*
X0736158Y0243826D01*
X0736158Y0242237D01*
X0736766Y0240769D01*
X0737889Y0239646D01*
X0739357Y0239038D01*
X0740946Y0239038D01*
X0742413Y0239646D01*
X0743537Y0240769D01*
X0744145Y0242237D01*
X0744145Y0243826D01*
X0743537Y0245294D01*
X0742413Y0246417D01*
X0740946Y0247025D01*
X0739357Y0247025D01*
X0737889Y0246417D01*
X0737396Y0245924D02*
X0733472Y0245924D01*
X0734009Y0245138D02*
X0736701Y0245138D01*
X0736376Y0244352D02*
X0734342Y0244352D01*
X0734515Y0243567D02*
X0736158Y0243567D01*
X0736158Y0242781D02*
X0730545Y0242781D01*
X0730545Y0242638D02*
X0734537Y0242638D01*
X0734437Y0242003D01*
X0734223Y0241345D01*
X0733909Y0240729D01*
X0733503Y0240169D01*
X0733014Y0239680D01*
X0732454Y0239274D01*
X0731838Y0238960D01*
X0731180Y0238746D01*
X0730545Y0238645D01*
X0730545Y0242638D01*
X0730545Y0241995D02*
X0729758Y0241995D01*
X0729758Y0241209D02*
X0730545Y0241209D01*
X0730545Y0240423D02*
X0729758Y0240423D01*
X0729758Y0239637D02*
X0730545Y0239637D01*
X0730545Y0238851D02*
X0729758Y0238851D01*
X0728799Y0238851D02*
X0727362Y0238851D01*
X0727348Y0239637D02*
X0726580Y0239637D01*
X0726616Y0240423D02*
X0725798Y0240423D01*
X0725565Y0241209D02*
X0726149Y0241209D01*
X0725868Y0241995D02*
X0725565Y0241995D01*
X0728143Y0238065D02*
X0742206Y0238065D01*
X0742206Y0237279D02*
X0728925Y0237279D01*
X0729707Y0236493D02*
X0742505Y0236493D01*
X0743291Y0235707D02*
X0730489Y0235707D01*
X0731503Y0238851D02*
X0742621Y0238851D01*
X0742392Y0239637D02*
X0745096Y0239637D01*
X0745096Y0240423D02*
X0743191Y0240423D01*
X0743719Y0241209D02*
X0745096Y0241209D01*
X0745096Y0241995D02*
X0744045Y0241995D01*
X0744145Y0242781D02*
X0745096Y0242781D01*
X0745096Y0243567D02*
X0744145Y0243567D01*
X0743927Y0244352D02*
X0745096Y0244352D01*
X0745096Y0245138D02*
X0743601Y0245138D01*
X0742906Y0245924D02*
X0745096Y0245924D01*
X0745096Y0246710D02*
X0741706Y0246710D01*
X0736258Y0241995D02*
X0734434Y0241995D01*
X0734154Y0241209D02*
X0736583Y0241209D01*
X0737112Y0240423D02*
X0733687Y0240423D01*
X0732954Y0239637D02*
X0737910Y0239637D01*
X0746484Y0234921D02*
X0855040Y0234921D01*
X0854527Y0235134D02*
X0855995Y0234526D01*
X0857583Y0234526D01*
X0859051Y0235134D01*
X0860175Y0236257D01*
X0860783Y0237725D01*
X0860783Y0239314D01*
X0860175Y0240782D01*
X0859051Y0241905D01*
X0857583Y0242513D01*
X0855995Y0242513D01*
X0854527Y0241905D01*
X0853403Y0240782D01*
X0852795Y0239314D01*
X0852795Y0237725D01*
X0853403Y0236257D01*
X0854527Y0235134D01*
X0853953Y0235707D02*
X0832914Y0235707D01*
X0834811Y0236493D02*
X0853306Y0236493D01*
X0852980Y0237279D02*
X0836094Y0237279D01*
X0836879Y0238065D02*
X0852795Y0238065D01*
X0852795Y0238851D02*
X0837665Y0238851D01*
X0838113Y0239637D02*
X0852929Y0239637D01*
X0853255Y0240423D02*
X0838439Y0240423D01*
X0838764Y0241209D02*
X0853830Y0241209D01*
X0854742Y0241995D02*
X0839072Y0241995D01*
X0839072Y0242781D02*
X0870569Y0242781D01*
X0870569Y0243567D02*
X0839072Y0243567D01*
X0839072Y0244352D02*
X0870569Y0244352D01*
X0870569Y0245138D02*
X0859056Y0245138D01*
X0859051Y0245134D02*
X0860175Y0246257D01*
X0860783Y0247725D01*
X0860783Y0249314D01*
X0860175Y0250782D01*
X0859051Y0251905D01*
X0857583Y0252513D01*
X0855995Y0252513D01*
X0854527Y0251905D01*
X0853403Y0250782D01*
X0852795Y0249314D01*
X0852795Y0247725D01*
X0853403Y0246257D01*
X0854527Y0245134D01*
X0855995Y0244526D01*
X0857583Y0244526D01*
X0859051Y0245134D01*
X0859842Y0245924D02*
X0870569Y0245924D01*
X0870569Y0246710D02*
X0860362Y0246710D01*
X0860688Y0247496D02*
X0870569Y0247496D01*
X0870569Y0248282D02*
X0860783Y0248282D01*
X0860783Y0249068D02*
X0870569Y0249068D01*
X0870569Y0249854D02*
X0860559Y0249854D01*
X0860234Y0250640D02*
X0870569Y0250640D01*
X0870569Y0251426D02*
X0859531Y0251426D01*
X0858312Y0252212D02*
X0870569Y0252212D01*
X0870569Y0252997D02*
X0529186Y0252997D01*
X0529512Y0252212D02*
X0855266Y0252212D01*
X0854047Y0251426D02*
X0529838Y0251426D01*
X0530017Y0250991D02*
X0528819Y0253885D01*
X0526604Y0256100D01*
X0523710Y0257299D01*
X0520577Y0257299D01*
X0517683Y0256100D01*
X0515468Y0253885D01*
X0514269Y0250991D01*
X0514269Y0247859D01*
X0515468Y0244965D01*
X0517683Y0242750D01*
X0520577Y0241551D01*
X0523710Y0241551D01*
X0526604Y0242750D01*
X0528819Y0244965D01*
X0530017Y0247859D01*
X0530017Y0250991D01*
X0530017Y0250640D02*
X0827812Y0250640D01*
X0826397Y0249854D02*
X0530017Y0249854D01*
X0530017Y0249068D02*
X0664159Y0249068D01*
X0663768Y0248282D02*
X0530017Y0248282D01*
X0529867Y0247496D02*
X0663768Y0247496D01*
X0663768Y0246710D02*
X0529542Y0246710D01*
X0529216Y0245924D02*
X0663768Y0245924D01*
X0663768Y0245138D02*
X0528890Y0245138D01*
X0528206Y0244352D02*
X0663768Y0244352D01*
X0663768Y0243567D02*
X0527420Y0243567D01*
X0526634Y0242781D02*
X0663768Y0242781D01*
X0663768Y0241995D02*
X0524780Y0241995D01*
X0519506Y0241995D02*
X0500490Y0241995D01*
X0500490Y0242781D02*
X0517652Y0242781D01*
X0516866Y0243567D02*
X0500490Y0243567D01*
X0500490Y0244352D02*
X0516081Y0244352D01*
X0515396Y0245138D02*
X0500490Y0245138D01*
X0500490Y0245924D02*
X0515071Y0245924D01*
X0514745Y0246710D02*
X0500490Y0246710D01*
X0500490Y0247496D02*
X0514420Y0247496D01*
X0514269Y0248282D02*
X0500490Y0248282D01*
X0500490Y0249068D02*
X0514269Y0249068D01*
X0514269Y0249854D02*
X0500490Y0249854D01*
X0500490Y0250640D02*
X0514269Y0250640D01*
X0514449Y0251426D02*
X0500490Y0251426D01*
X0500490Y0252212D02*
X0514775Y0252212D01*
X0515100Y0252997D02*
X0500490Y0252997D01*
X0500490Y0253783D02*
X0515426Y0253783D01*
X0516152Y0254569D02*
X0500490Y0254569D01*
X0500490Y0255355D02*
X0516938Y0255355D01*
X0517781Y0256141D02*
X0500490Y0256141D01*
X0500490Y0256927D02*
X0519679Y0256927D01*
X0524608Y0256927D02*
X0853126Y0256927D01*
X0853403Y0256257D02*
X0854527Y0255134D01*
X0855995Y0254526D01*
X0857583Y0254526D01*
X0859051Y0255134D01*
X0860175Y0256257D01*
X0860783Y0257725D01*
X0860783Y0259314D01*
X0860175Y0260782D01*
X0859051Y0261905D01*
X0857583Y0262513D01*
X0855995Y0262513D01*
X0854527Y0261905D01*
X0853403Y0260782D01*
X0852795Y0259314D01*
X0852795Y0257725D01*
X0853403Y0256257D01*
X0853520Y0256141D02*
X0526505Y0256141D01*
X0527349Y0255355D02*
X0854306Y0255355D01*
X0855890Y0254569D02*
X0528135Y0254569D01*
X0528861Y0253783D02*
X0870569Y0253783D01*
X0870569Y0254569D02*
X0857688Y0254569D01*
X0859273Y0255355D02*
X0870569Y0255355D01*
X0870569Y0256141D02*
X0860058Y0256141D01*
X0860452Y0256927D02*
X0870569Y0256927D01*
X0870569Y0257713D02*
X0860778Y0257713D01*
X0860783Y0258499D02*
X0870569Y0258499D01*
X0870569Y0259285D02*
X0860783Y0259285D01*
X0860469Y0260071D02*
X0870569Y0260071D01*
X0870133Y0260857D02*
X0860100Y0260857D01*
X0859314Y0261643D02*
X0869347Y0261643D01*
X0868561Y0262428D02*
X0857788Y0262428D01*
X0855790Y0262428D02*
X0502497Y0262428D01*
X0501712Y0261643D02*
X0854264Y0261643D01*
X0853478Y0260857D02*
X0500926Y0260857D01*
X0500490Y0260071D02*
X0853109Y0260071D01*
X0852795Y0259285D02*
X0500490Y0259285D01*
X0500490Y0258499D02*
X0852795Y0258499D01*
X0852800Y0257713D02*
X0500490Y0257713D01*
X0503283Y0263214D02*
X0867775Y0263214D01*
X0866989Y0264000D02*
X0504069Y0264000D01*
X0504855Y0264786D02*
X0866203Y0264786D01*
X0865417Y0265572D02*
X0505641Y0265572D01*
X0506427Y0266358D02*
X0864631Y0266358D01*
X0863845Y0267144D02*
X0507213Y0267144D01*
X0507999Y0267930D02*
X0774171Y0267930D01*
X0774271Y0267888D02*
X0777890Y0267888D01*
X0781233Y0269273D01*
X0783792Y0271832D01*
X0785176Y0275175D01*
X0785176Y0278794D01*
X0783792Y0282137D01*
X0781233Y0284696D01*
X0777890Y0286080D01*
X0774271Y0286080D01*
X0770928Y0284696D01*
X0768369Y0282137D01*
X0766984Y0278794D01*
X0766984Y0275175D01*
X0768369Y0271832D01*
X0770928Y0269273D01*
X0774271Y0267888D01*
X0772273Y0268716D02*
X0508785Y0268716D01*
X0509571Y0269502D02*
X0770699Y0269502D01*
X0769913Y0270288D02*
X0510357Y0270288D01*
X0511142Y0271073D02*
X0769127Y0271073D01*
X0768358Y0271859D02*
X0511928Y0271859D01*
X0512714Y0272645D02*
X0768032Y0272645D01*
X0767707Y0273431D02*
X0540776Y0273431D01*
X0539849Y0273047D02*
X0543467Y0274546D01*
X0546235Y0277314D01*
X0547734Y0280932D01*
X0547734Y0284848D01*
X0546235Y0288465D01*
X0543467Y0291234D01*
X0539849Y0292732D01*
X0535934Y0292732D01*
X0532316Y0291234D01*
X0529547Y0288465D01*
X0528049Y0284848D01*
X0528049Y0280932D01*
X0529547Y0277314D01*
X0532316Y0274546D01*
X0535934Y0273047D01*
X0539849Y0273047D01*
X0542674Y0274217D02*
X0767381Y0274217D01*
X0767055Y0275003D02*
X0543924Y0275003D01*
X0544710Y0275789D02*
X0766984Y0275789D01*
X0766984Y0276575D02*
X0545496Y0276575D01*
X0546255Y0277361D02*
X0766984Y0277361D01*
X0766984Y0278147D02*
X0546580Y0278147D01*
X0546906Y0278933D02*
X0568662Y0278933D01*
X0568751Y0278896D02*
X0570339Y0278896D01*
X0571807Y0279504D01*
X0572931Y0280628D01*
X0573539Y0282095D01*
X0573539Y0283684D01*
X0572931Y0285152D01*
X0571807Y0286275D01*
X0570339Y0286883D01*
X0568751Y0286883D01*
X0567283Y0286275D01*
X0566159Y0285152D01*
X0565551Y0283684D01*
X0565551Y0282095D01*
X0566159Y0280628D01*
X0567283Y0279504D01*
X0568751Y0278896D01*
X0570428Y0278933D02*
X0578662Y0278933D01*
X0578751Y0278896D02*
X0580339Y0278896D01*
X0581807Y0279504D01*
X0582931Y0280628D01*
X0583539Y0282095D01*
X0583539Y0283684D01*
X0582931Y0285152D01*
X0581807Y0286275D01*
X0580339Y0286883D01*
X0578751Y0286883D01*
X0577283Y0286275D01*
X0576159Y0285152D01*
X0575551Y0283684D01*
X0575551Y0282095D01*
X0576159Y0280628D01*
X0577283Y0279504D01*
X0578751Y0278896D01*
X0580428Y0278933D02*
X0588662Y0278933D01*
X0588751Y0278896D02*
X0590339Y0278896D01*
X0591807Y0279504D01*
X0592931Y0280628D01*
X0593539Y0282095D01*
X0593539Y0283684D01*
X0592931Y0285152D01*
X0591807Y0286275D01*
X0590339Y0286883D01*
X0588751Y0286883D01*
X0587283Y0286275D01*
X0586159Y0285152D01*
X0585551Y0283684D01*
X0585551Y0282095D01*
X0586159Y0280628D01*
X0587283Y0279504D01*
X0588751Y0278896D01*
X0590428Y0278933D02*
X0598662Y0278933D01*
X0598751Y0278896D02*
X0600339Y0278896D01*
X0601807Y0279504D01*
X0602931Y0280628D01*
X0603539Y0282095D01*
X0603539Y0283684D01*
X0602931Y0285152D01*
X0601807Y0286275D01*
X0600339Y0286883D01*
X0598751Y0286883D01*
X0597283Y0286275D01*
X0596159Y0285152D01*
X0595551Y0283684D01*
X0595551Y0282095D01*
X0596159Y0280628D01*
X0597283Y0279504D01*
X0598751Y0278896D01*
X0600428Y0278933D02*
X0608662Y0278933D01*
X0608751Y0278896D02*
X0610339Y0278896D01*
X0611807Y0279504D01*
X0612931Y0280628D01*
X0613539Y0282095D01*
X0613539Y0283684D01*
X0612931Y0285152D01*
X0611807Y0286275D01*
X0610339Y0286883D01*
X0608751Y0286883D01*
X0607283Y0286275D01*
X0606159Y0285152D01*
X0605551Y0283684D01*
X0605551Y0282095D01*
X0606159Y0280628D01*
X0607283Y0279504D01*
X0608751Y0278896D01*
X0610428Y0278933D02*
X0618662Y0278933D01*
X0618751Y0278896D02*
X0620339Y0278896D01*
X0621807Y0279504D01*
X0622931Y0280628D01*
X0623539Y0282095D01*
X0623539Y0283684D01*
X0622931Y0285152D01*
X0621807Y0286275D01*
X0620339Y0286883D01*
X0618751Y0286883D01*
X0617283Y0286275D01*
X0616159Y0285152D01*
X0615551Y0283684D01*
X0615551Y0282095D01*
X0616159Y0280628D01*
X0617283Y0279504D01*
X0618751Y0278896D01*
X0620428Y0278933D02*
X0628662Y0278933D01*
X0628751Y0278896D02*
X0630339Y0278896D01*
X0631807Y0279504D01*
X0632931Y0280628D01*
X0633539Y0282095D01*
X0633539Y0283684D01*
X0632931Y0285152D01*
X0631807Y0286275D01*
X0630339Y0286883D01*
X0628751Y0286883D01*
X0627283Y0286275D01*
X0626159Y0285152D01*
X0625551Y0283684D01*
X0625551Y0282095D01*
X0626159Y0280628D01*
X0627283Y0279504D01*
X0628751Y0278896D01*
X0630428Y0278933D02*
X0638662Y0278933D01*
X0638751Y0278896D02*
X0640339Y0278896D01*
X0641807Y0279504D01*
X0642931Y0280628D01*
X0643539Y0282095D01*
X0643539Y0283684D01*
X0642931Y0285152D01*
X0641807Y0286275D01*
X0640339Y0286883D01*
X0638751Y0286883D01*
X0637283Y0286275D01*
X0636159Y0285152D01*
X0635551Y0283684D01*
X0635551Y0282095D01*
X0636159Y0280628D01*
X0637283Y0279504D01*
X0638751Y0278896D01*
X0640428Y0278933D02*
X0648662Y0278933D01*
X0648751Y0278896D02*
X0650339Y0278896D01*
X0651807Y0279504D01*
X0652931Y0280628D01*
X0653539Y0282095D01*
X0653539Y0283684D01*
X0652931Y0285152D01*
X0651807Y0286275D01*
X0650339Y0286883D01*
X0648751Y0286883D01*
X0647283Y0286275D01*
X0646159Y0285152D01*
X0645551Y0283684D01*
X0645551Y0282095D01*
X0646159Y0280628D01*
X0647283Y0279504D01*
X0648751Y0278896D01*
X0650428Y0278933D02*
X0658662Y0278933D01*
X0658751Y0278896D02*
X0660339Y0278896D01*
X0661807Y0279504D01*
X0662931Y0280628D01*
X0663539Y0282095D01*
X0663539Y0283684D01*
X0662931Y0285152D01*
X0661807Y0286275D01*
X0660339Y0286883D01*
X0658751Y0286883D01*
X0657283Y0286275D01*
X0656159Y0285152D01*
X0655551Y0283684D01*
X0655551Y0282095D01*
X0656159Y0280628D01*
X0657283Y0279504D01*
X0658751Y0278896D01*
X0660428Y0278933D02*
X0668662Y0278933D01*
X0668751Y0278896D02*
X0670339Y0278896D01*
X0671807Y0279504D01*
X0672931Y0280628D01*
X0673539Y0282095D01*
X0673539Y0283684D01*
X0672931Y0285152D01*
X0671807Y0286275D01*
X0670339Y0286883D01*
X0668751Y0286883D01*
X0667283Y0286275D01*
X0666159Y0285152D01*
X0665551Y0283684D01*
X0665551Y0282095D01*
X0666159Y0280628D01*
X0667283Y0279504D01*
X0668751Y0278896D01*
X0670428Y0278933D02*
X0678662Y0278933D01*
X0678751Y0278896D02*
X0680339Y0278896D01*
X0681807Y0279504D01*
X0682931Y0280628D01*
X0683539Y0282095D01*
X0683539Y0283684D01*
X0682931Y0285152D01*
X0681807Y0286275D01*
X0680339Y0286883D01*
X0678751Y0286883D01*
X0677283Y0286275D01*
X0676159Y0285152D01*
X0675551Y0283684D01*
X0675551Y0282095D01*
X0676159Y0280628D01*
X0677283Y0279504D01*
X0678751Y0278896D01*
X0680428Y0278933D02*
X0688662Y0278933D01*
X0688751Y0278896D02*
X0690339Y0278896D01*
X0691807Y0279504D01*
X0692931Y0280628D01*
X0693539Y0282095D01*
X0693539Y0283684D01*
X0692931Y0285152D01*
X0691807Y0286275D01*
X0690339Y0286883D01*
X0688751Y0286883D01*
X0687283Y0286275D01*
X0686159Y0285152D01*
X0685551Y0283684D01*
X0685551Y0282095D01*
X0686159Y0280628D01*
X0687283Y0279504D01*
X0688751Y0278896D01*
X0690428Y0278933D02*
X0698662Y0278933D01*
X0698751Y0278896D02*
X0700339Y0278896D01*
X0701807Y0279504D01*
X0702931Y0280628D01*
X0703539Y0282095D01*
X0703539Y0283684D01*
X0702931Y0285152D01*
X0701807Y0286275D01*
X0700339Y0286883D01*
X0698751Y0286883D01*
X0697283Y0286275D01*
X0696159Y0285152D01*
X0695551Y0283684D01*
X0695551Y0282095D01*
X0696159Y0280628D01*
X0697283Y0279504D01*
X0698751Y0278896D01*
X0700428Y0278933D02*
X0767042Y0278933D01*
X0767367Y0279719D02*
X0702022Y0279719D01*
X0702808Y0280504D02*
X0767693Y0280504D01*
X0768019Y0281290D02*
X0703205Y0281290D01*
X0703531Y0282076D02*
X0768344Y0282076D01*
X0769095Y0282862D02*
X0703539Y0282862D01*
X0703539Y0283648D02*
X0769880Y0283648D01*
X0770666Y0284434D02*
X0703228Y0284434D01*
X0702863Y0285220D02*
X0772194Y0285220D01*
X0774091Y0286006D02*
X0702077Y0286006D01*
X0700561Y0286792D02*
X0824130Y0286792D01*
X0824455Y0287578D02*
X0546603Y0287578D01*
X0546278Y0288364D02*
X0824781Y0288364D01*
X0824823Y0288465D02*
X0823324Y0284848D01*
X0823324Y0280932D01*
X0824823Y0277314D01*
X0827592Y0274546D01*
X0831209Y0273047D01*
X0835125Y0273047D01*
X0838742Y0274546D01*
X0841511Y0277314D01*
X0843009Y0280932D01*
X0843009Y0284848D01*
X0841511Y0288465D01*
X0838742Y0291234D01*
X0835125Y0292732D01*
X0831209Y0292732D01*
X0827592Y0291234D01*
X0824823Y0288465D01*
X0825507Y0289149D02*
X0545551Y0289149D01*
X0544765Y0289935D02*
X0826293Y0289935D01*
X0827079Y0290721D02*
X0543979Y0290721D01*
X0542807Y0291507D02*
X0828252Y0291507D01*
X0830149Y0292293D02*
X0540909Y0292293D01*
X0534873Y0292293D02*
X0532362Y0292293D01*
X0532976Y0291507D02*
X0531576Y0291507D01*
X0531804Y0290721D02*
X0530790Y0290721D01*
X0531018Y0289935D02*
X0530004Y0289935D01*
X0530232Y0289149D02*
X0529218Y0289149D01*
X0529505Y0288364D02*
X0528433Y0288364D01*
X0529180Y0287578D02*
X0527647Y0287578D01*
X0526861Y0286792D02*
X0528854Y0286792D01*
X0528529Y0286006D02*
X0526075Y0286006D01*
X0525289Y0285220D02*
X0528203Y0285220D01*
X0528049Y0284434D02*
X0524503Y0284434D01*
X0523717Y0283648D02*
X0528049Y0283648D01*
X0528049Y0282862D02*
X0522931Y0282862D01*
X0522145Y0282076D02*
X0528049Y0282076D01*
X0528049Y0281290D02*
X0521359Y0281290D01*
X0520573Y0280504D02*
X0528226Y0280504D01*
X0528552Y0279719D02*
X0519787Y0279719D01*
X0519002Y0278933D02*
X0528877Y0278933D01*
X0529203Y0278147D02*
X0518216Y0278147D01*
X0517430Y0277361D02*
X0529528Y0277361D01*
X0530287Y0276575D02*
X0516644Y0276575D01*
X0515858Y0275789D02*
X0531073Y0275789D01*
X0531859Y0275003D02*
X0515072Y0275003D01*
X0514286Y0274217D02*
X0533109Y0274217D01*
X0535007Y0273431D02*
X0513500Y0273431D01*
X0547231Y0279719D02*
X0567068Y0279719D01*
X0566282Y0280504D02*
X0547557Y0280504D01*
X0547734Y0281290D02*
X0565885Y0281290D01*
X0565559Y0282076D02*
X0547734Y0282076D01*
X0547734Y0282862D02*
X0565551Y0282862D01*
X0565551Y0283648D02*
X0547734Y0283648D01*
X0547734Y0284434D02*
X0565862Y0284434D01*
X0566227Y0285220D02*
X0547580Y0285220D01*
X0547254Y0286006D02*
X0567013Y0286006D01*
X0568529Y0286792D02*
X0546929Y0286792D01*
X0533148Y0293079D02*
X0837910Y0293079D01*
X0837124Y0293865D02*
X0533934Y0293865D01*
X0534720Y0294651D02*
X0836339Y0294651D01*
X0835553Y0295437D02*
X0535506Y0295437D01*
X0536292Y0296223D02*
X0834767Y0296223D01*
X0833981Y0297009D02*
X0796840Y0297009D01*
X0795410Y0296417D02*
X0798392Y0297651D01*
X0800674Y0299933D01*
X0801909Y0302915D01*
X0801909Y0306142D01*
X0800674Y0309123D01*
X0798392Y0311405D01*
X0795410Y0312640D01*
X0792183Y0312640D01*
X0789202Y0311405D01*
X0786920Y0309123D01*
X0785685Y0306142D01*
X0785685Y0302915D01*
X0786920Y0299933D01*
X0789202Y0297651D01*
X0792183Y0296417D01*
X0795410Y0296417D01*
X0798535Y0297795D02*
X0833195Y0297795D01*
X0832409Y0298580D02*
X0799321Y0298580D01*
X0800107Y0299366D02*
X0831623Y0299366D01*
X0830837Y0300152D02*
X0800764Y0300152D01*
X0801090Y0300938D02*
X0830051Y0300938D01*
X0829265Y0301724D02*
X0801415Y0301724D01*
X0801741Y0302510D02*
X0828479Y0302510D01*
X0827693Y0303296D02*
X0801909Y0303296D01*
X0801909Y0304082D02*
X0826908Y0304082D01*
X0826122Y0304868D02*
X0801909Y0304868D01*
X0801909Y0305654D02*
X0825336Y0305654D01*
X0824550Y0306440D02*
X0801785Y0306440D01*
X0801460Y0307225D02*
X0823764Y0307225D01*
X0822978Y0308011D02*
X0801134Y0308011D01*
X0800809Y0308797D02*
X0822192Y0308797D01*
X0821406Y0309583D02*
X0800214Y0309583D01*
X0799428Y0310369D02*
X0820620Y0310369D01*
X0819834Y0311155D02*
X0798642Y0311155D01*
X0797098Y0311941D02*
X0819048Y0311941D01*
X0818263Y0312727D02*
X0781198Y0312727D01*
X0781198Y0313435D02*
X0780419Y0315316D01*
X0778980Y0316756D01*
X0777098Y0317535D01*
X0775062Y0317535D01*
X0773181Y0316756D01*
X0771741Y0315316D01*
X0770962Y0313435D01*
X0770962Y0311399D01*
X0771741Y0309518D01*
X0773181Y0308078D01*
X0775062Y0307299D01*
X0777098Y0307299D01*
X0778980Y0308078D01*
X0780419Y0309518D01*
X0781198Y0311399D01*
X0781198Y0313435D01*
X0781166Y0313513D02*
X0817477Y0313513D01*
X0816691Y0314299D02*
X0780841Y0314299D01*
X0780515Y0315085D02*
X0815905Y0315085D01*
X0815119Y0315871D02*
X0779865Y0315871D01*
X0779079Y0316656D02*
X0814333Y0316656D01*
X0813547Y0317442D02*
X0777323Y0317442D01*
X0774838Y0317442D02*
X0557511Y0317442D01*
X0556725Y0316656D02*
X0773081Y0316656D01*
X0772295Y0315871D02*
X0678421Y0315871D01*
X0677253Y0316354D02*
X0674120Y0316354D01*
X0671226Y0315156D01*
X0669011Y0312941D01*
X0667813Y0310047D01*
X0667813Y0306914D01*
X0669011Y0304020D01*
X0671226Y0301805D01*
X0674120Y0300606D01*
X0677253Y0300606D01*
X0680147Y0301805D01*
X0682362Y0304020D01*
X0683561Y0306914D01*
X0683561Y0310047D01*
X0682362Y0312941D01*
X0680147Y0315156D01*
X0677253Y0316354D01*
X0680218Y0315085D02*
X0771645Y0315085D01*
X0771320Y0314299D02*
X0681004Y0314299D01*
X0681790Y0313513D02*
X0770994Y0313513D01*
X0770962Y0312727D02*
X0682450Y0312727D01*
X0682776Y0311941D02*
X0707818Y0311941D01*
X0707637Y0311866D02*
X0706514Y0310743D01*
X0705906Y0309275D01*
X0705906Y0307686D01*
X0706514Y0306218D01*
X0707637Y0305095D01*
X0709105Y0304487D01*
X0710694Y0304487D01*
X0712162Y0305095D01*
X0713285Y0306218D01*
X0713893Y0307686D01*
X0713893Y0309275D01*
X0713285Y0310743D01*
X0712162Y0311866D01*
X0710694Y0312474D01*
X0709105Y0312474D01*
X0707637Y0311866D01*
X0706926Y0311155D02*
X0683102Y0311155D01*
X0683427Y0310369D02*
X0706359Y0310369D01*
X0706033Y0309583D02*
X0683561Y0309583D01*
X0683561Y0308797D02*
X0705906Y0308797D01*
X0705906Y0308011D02*
X0683561Y0308011D01*
X0683561Y0307225D02*
X0706096Y0307225D01*
X0706422Y0306440D02*
X0683364Y0306440D01*
X0683039Y0305654D02*
X0707078Y0305654D01*
X0708185Y0304868D02*
X0682713Y0304868D01*
X0682388Y0304082D02*
X0750252Y0304082D01*
X0750252Y0304868D02*
X0741614Y0304868D01*
X0742162Y0305095D02*
X0743285Y0306218D01*
X0743893Y0307686D01*
X0743893Y0309275D01*
X0743285Y0310743D01*
X0742162Y0311866D01*
X0740694Y0312474D01*
X0739105Y0312474D01*
X0737637Y0311866D01*
X0736514Y0310743D01*
X0735906Y0309275D01*
X0735906Y0307686D01*
X0736514Y0306218D01*
X0737637Y0305095D01*
X0739105Y0304487D01*
X0740694Y0304487D01*
X0742162Y0305095D01*
X0742721Y0305654D02*
X0750252Y0305654D01*
X0750252Y0306142D02*
X0750252Y0302915D01*
X0751487Y0299933D01*
X0753769Y0297651D01*
X0756750Y0296417D01*
X0759977Y0296417D01*
X0762959Y0297651D01*
X0765241Y0299933D01*
X0766476Y0302915D01*
X0766476Y0306142D01*
X0765241Y0309123D01*
X0762959Y0311405D01*
X0759977Y0312640D01*
X0756750Y0312640D01*
X0753769Y0311405D01*
X0751487Y0309123D01*
X0750252Y0306142D01*
X0750375Y0306440D02*
X0743377Y0306440D01*
X0743702Y0307225D02*
X0750701Y0307225D01*
X0751026Y0308011D02*
X0743893Y0308011D01*
X0743893Y0308797D02*
X0751352Y0308797D01*
X0751947Y0309583D02*
X0743765Y0309583D01*
X0743440Y0310369D02*
X0752733Y0310369D01*
X0753519Y0311155D02*
X0742872Y0311155D01*
X0741981Y0311941D02*
X0755062Y0311941D01*
X0761665Y0311941D02*
X0770962Y0311941D01*
X0771063Y0311155D02*
X0763209Y0311155D01*
X0763995Y0310369D02*
X0771389Y0310369D01*
X0771714Y0309583D02*
X0764781Y0309583D01*
X0765376Y0308797D02*
X0772462Y0308797D01*
X0773343Y0308011D02*
X0765701Y0308011D01*
X0766027Y0307225D02*
X0786134Y0307225D01*
X0785808Y0306440D02*
X0766352Y0306440D01*
X0766476Y0305654D02*
X0785685Y0305654D01*
X0785685Y0304868D02*
X0766476Y0304868D01*
X0766476Y0304082D02*
X0785685Y0304082D01*
X0785685Y0303296D02*
X0766476Y0303296D01*
X0766308Y0302510D02*
X0785853Y0302510D01*
X0786178Y0301724D02*
X0765982Y0301724D01*
X0765657Y0300938D02*
X0786504Y0300938D01*
X0786829Y0300152D02*
X0765331Y0300152D01*
X0764674Y0299366D02*
X0787487Y0299366D01*
X0788273Y0298580D02*
X0763888Y0298580D01*
X0763102Y0297795D02*
X0789059Y0297795D01*
X0790754Y0297009D02*
X0761407Y0297009D01*
X0755321Y0297009D02*
X0537078Y0297009D01*
X0537863Y0297795D02*
X0753626Y0297795D01*
X0752840Y0298580D02*
X0538649Y0298580D01*
X0539435Y0299366D02*
X0752054Y0299366D01*
X0751396Y0300152D02*
X0540221Y0300152D01*
X0541007Y0300938D02*
X0673319Y0300938D01*
X0671422Y0301724D02*
X0541793Y0301724D01*
X0542579Y0302510D02*
X0670521Y0302510D01*
X0669736Y0303296D02*
X0543365Y0303296D01*
X0544151Y0304082D02*
X0614075Y0304082D01*
X0614172Y0304042D02*
X0615154Y0304042D01*
X0616062Y0304418D01*
X0616757Y0305113D01*
X0617133Y0306020D01*
X0617133Y0307003D01*
X0616757Y0307911D01*
X0616062Y0308606D01*
X0615154Y0308982D01*
X0614172Y0308982D01*
X0613264Y0308606D01*
X0612569Y0307911D01*
X0612193Y0307003D01*
X0612193Y0306020D01*
X0612569Y0305113D01*
X0613264Y0304418D01*
X0614172Y0304042D01*
X0615251Y0304082D02*
X0668986Y0304082D01*
X0668660Y0304868D02*
X0616512Y0304868D01*
X0616981Y0305654D02*
X0668335Y0305654D01*
X0668009Y0306440D02*
X0617133Y0306440D01*
X0617041Y0307225D02*
X0667813Y0307225D01*
X0667813Y0308011D02*
X0616657Y0308011D01*
X0615600Y0308797D02*
X0667813Y0308797D01*
X0667813Y0309583D02*
X0566110Y0309583D01*
X0565865Y0309339D02*
X0566560Y0310034D01*
X0566936Y0310942D01*
X0566936Y0311924D01*
X0566560Y0312832D01*
X0565865Y0313527D01*
X0564958Y0313903D01*
X0563975Y0313903D01*
X0563067Y0313527D01*
X0562372Y0312832D01*
X0561996Y0311924D01*
X0561996Y0310942D01*
X0562372Y0310034D01*
X0563067Y0309339D01*
X0563975Y0308963D01*
X0564958Y0308963D01*
X0565865Y0309339D01*
X0566699Y0310369D02*
X0601407Y0310369D01*
X0601453Y0310323D02*
X0602361Y0309947D01*
X0603343Y0309947D01*
X0604251Y0310323D01*
X0604946Y0311018D01*
X0605322Y0311926D01*
X0605322Y0312909D01*
X0604946Y0313816D01*
X0604251Y0314511D01*
X0603343Y0314887D01*
X0602361Y0314887D01*
X0601453Y0314511D01*
X0600758Y0313816D01*
X0600382Y0312909D01*
X0600382Y0311926D01*
X0600758Y0311018D01*
X0601453Y0310323D01*
X0600701Y0311155D02*
X0566936Y0311155D01*
X0566929Y0311941D02*
X0600382Y0311941D01*
X0600382Y0312727D02*
X0566604Y0312727D01*
X0565880Y0313513D02*
X0600632Y0313513D01*
X0601240Y0314299D02*
X0554368Y0314299D01*
X0555154Y0315085D02*
X0671155Y0315085D01*
X0670370Y0314299D02*
X0604464Y0314299D01*
X0605072Y0313513D02*
X0669584Y0313513D01*
X0668923Y0312727D02*
X0605322Y0312727D01*
X0605322Y0311941D02*
X0668597Y0311941D01*
X0668272Y0311155D02*
X0605003Y0311155D01*
X0604297Y0310369D02*
X0667946Y0310369D01*
X0680852Y0302510D02*
X0750420Y0302510D01*
X0750252Y0303296D02*
X0681638Y0303296D01*
X0679951Y0301724D02*
X0750745Y0301724D01*
X0751071Y0300938D02*
X0678054Y0300938D01*
X0711614Y0304868D02*
X0718185Y0304868D01*
X0717637Y0305095D02*
X0719105Y0304487D01*
X0720694Y0304487D01*
X0722162Y0305095D01*
X0723285Y0306218D01*
X0723893Y0307686D01*
X0723893Y0309275D01*
X0723285Y0310743D01*
X0722162Y0311866D01*
X0720694Y0312474D01*
X0719105Y0312474D01*
X0717637Y0311866D01*
X0716514Y0310743D01*
X0715906Y0309275D01*
X0715906Y0307686D01*
X0716514Y0306218D01*
X0717637Y0305095D01*
X0717078Y0305654D02*
X0712721Y0305654D01*
X0713377Y0306440D02*
X0716422Y0306440D01*
X0716096Y0307225D02*
X0713702Y0307225D01*
X0713893Y0308011D02*
X0715906Y0308011D01*
X0715906Y0308797D02*
X0713893Y0308797D01*
X0713765Y0309583D02*
X0716033Y0309583D01*
X0716359Y0310369D02*
X0713440Y0310369D01*
X0712872Y0311155D02*
X0716926Y0311155D01*
X0717818Y0311941D02*
X0711981Y0311941D01*
X0721981Y0311941D02*
X0727818Y0311941D01*
X0727637Y0311866D02*
X0726514Y0310743D01*
X0725906Y0309275D01*
X0725906Y0307686D01*
X0726514Y0306218D01*
X0727637Y0305095D01*
X0729105Y0304487D01*
X0730694Y0304487D01*
X0732162Y0305095D01*
X0733285Y0306218D01*
X0733893Y0307686D01*
X0733893Y0309275D01*
X0733285Y0310743D01*
X0732162Y0311866D01*
X0730694Y0312474D01*
X0729105Y0312474D01*
X0727637Y0311866D01*
X0726926Y0311155D02*
X0722872Y0311155D01*
X0723440Y0310369D02*
X0726359Y0310369D01*
X0726033Y0309583D02*
X0723765Y0309583D01*
X0723893Y0308797D02*
X0725906Y0308797D01*
X0725906Y0308011D02*
X0723893Y0308011D01*
X0723702Y0307225D02*
X0726096Y0307225D01*
X0726422Y0306440D02*
X0723377Y0306440D01*
X0722721Y0305654D02*
X0727078Y0305654D01*
X0728185Y0304868D02*
X0721614Y0304868D01*
X0731614Y0304868D02*
X0738185Y0304868D01*
X0737078Y0305654D02*
X0732721Y0305654D01*
X0733377Y0306440D02*
X0736422Y0306440D01*
X0736096Y0307225D02*
X0733702Y0307225D01*
X0733893Y0308011D02*
X0735906Y0308011D01*
X0735906Y0308797D02*
X0733893Y0308797D01*
X0733765Y0309583D02*
X0736033Y0309583D01*
X0736359Y0310369D02*
X0733440Y0310369D01*
X0732872Y0311155D02*
X0736926Y0311155D01*
X0737818Y0311941D02*
X0731981Y0311941D01*
X0778818Y0308011D02*
X0786459Y0308011D01*
X0786785Y0308797D02*
X0779698Y0308797D01*
X0780446Y0309583D02*
X0787380Y0309583D01*
X0788166Y0310369D02*
X0780772Y0310369D01*
X0781097Y0311155D02*
X0788952Y0311155D01*
X0790495Y0311941D02*
X0781198Y0311941D01*
X0808832Y0322158D02*
X0562227Y0322158D01*
X0561441Y0321372D02*
X0809617Y0321372D01*
X0810403Y0320586D02*
X0560655Y0320586D01*
X0559869Y0319800D02*
X0811189Y0319800D01*
X0811975Y0319014D02*
X0559083Y0319014D01*
X0558297Y0318228D02*
X0812761Y0318228D01*
X0836185Y0292293D02*
X0838696Y0292293D01*
X0838082Y0291507D02*
X0839482Y0291507D01*
X0839255Y0290721D02*
X0840268Y0290721D01*
X0840041Y0289935D02*
X0841054Y0289935D01*
X0840827Y0289149D02*
X0841840Y0289149D01*
X0841553Y0288364D02*
X0842626Y0288364D01*
X0841879Y0287578D02*
X0843412Y0287578D01*
X0844198Y0286792D02*
X0842204Y0286792D01*
X0842530Y0286006D02*
X0844984Y0286006D01*
X0845769Y0285220D02*
X0842855Y0285220D01*
X0843009Y0284434D02*
X0846555Y0284434D01*
X0847341Y0283648D02*
X0843009Y0283648D01*
X0843009Y0282862D02*
X0848127Y0282862D01*
X0848913Y0282076D02*
X0843009Y0282076D01*
X0843009Y0281290D02*
X0849699Y0281290D01*
X0850485Y0280504D02*
X0842832Y0280504D01*
X0842507Y0279719D02*
X0851271Y0279719D01*
X0852057Y0278933D02*
X0842181Y0278933D01*
X0841856Y0278147D02*
X0852843Y0278147D01*
X0853629Y0277361D02*
X0841530Y0277361D01*
X0840772Y0276575D02*
X0854415Y0276575D01*
X0855200Y0275789D02*
X0839986Y0275789D01*
X0839200Y0275003D02*
X0855986Y0275003D01*
X0856772Y0274217D02*
X0837949Y0274217D01*
X0836052Y0273431D02*
X0857558Y0273431D01*
X0858344Y0272645D02*
X0784129Y0272645D01*
X0783803Y0271859D02*
X0859130Y0271859D01*
X0859916Y0271073D02*
X0783033Y0271073D01*
X0782247Y0270288D02*
X0860702Y0270288D01*
X0861488Y0269502D02*
X0781462Y0269502D01*
X0779888Y0268716D02*
X0862274Y0268716D01*
X0863060Y0267930D02*
X0777990Y0267930D01*
X0784454Y0273431D02*
X0830282Y0273431D01*
X0828385Y0274217D02*
X0784780Y0274217D01*
X0785105Y0275003D02*
X0827134Y0275003D01*
X0826348Y0275789D02*
X0785176Y0275789D01*
X0785176Y0276575D02*
X0825562Y0276575D01*
X0824804Y0277361D02*
X0785176Y0277361D01*
X0785176Y0278147D02*
X0824478Y0278147D01*
X0824153Y0278933D02*
X0785119Y0278933D01*
X0784793Y0279719D02*
X0823827Y0279719D01*
X0823502Y0280504D02*
X0784468Y0280504D01*
X0784142Y0281290D02*
X0823324Y0281290D01*
X0823324Y0282076D02*
X0783817Y0282076D01*
X0783066Y0282862D02*
X0823324Y0282862D01*
X0823324Y0283648D02*
X0782280Y0283648D01*
X0781494Y0284434D02*
X0823324Y0284434D01*
X0823479Y0285220D02*
X0779967Y0285220D01*
X0778070Y0286006D02*
X0823804Y0286006D01*
X0834585Y0250640D02*
X0853344Y0250640D01*
X0853019Y0249854D02*
X0836000Y0249854D01*
X0836786Y0249068D02*
X0852795Y0249068D01*
X0852795Y0248282D02*
X0837572Y0248282D01*
X0838074Y0247496D02*
X0852890Y0247496D01*
X0853216Y0246710D02*
X0838400Y0246710D01*
X0838725Y0245924D02*
X0853737Y0245924D01*
X0854522Y0245138D02*
X0839051Y0245138D01*
X0858836Y0241995D02*
X0870569Y0241995D01*
X0870569Y0241209D02*
X0859748Y0241209D01*
X0860323Y0240423D02*
X0870569Y0240423D01*
X0870569Y0239637D02*
X0860649Y0239637D01*
X0860783Y0238851D02*
X0870569Y0238851D01*
X0870569Y0238065D02*
X0860783Y0238065D01*
X0860598Y0237279D02*
X0870569Y0237279D01*
X0870569Y0236493D02*
X0860272Y0236493D01*
X0859625Y0235707D02*
X0870569Y0235707D01*
X0870569Y0234921D02*
X0858538Y0234921D01*
X0857583Y0232513D02*
X0855995Y0232513D01*
X0854527Y0231905D01*
X0853403Y0230782D01*
X0852795Y0229314D01*
X0852795Y0227725D01*
X0853403Y0226257D01*
X0854527Y0225134D01*
X0855995Y0224526D01*
X0857583Y0224526D01*
X0859051Y0225134D01*
X0860175Y0226257D01*
X0860783Y0227725D01*
X0860783Y0229314D01*
X0860175Y0230782D01*
X0859051Y0231905D01*
X0857583Y0232513D01*
X0859179Y0231778D02*
X0870569Y0231778D01*
X0870569Y0232564D02*
X0746484Y0232564D01*
X0746484Y0233350D02*
X0870569Y0233350D01*
X0870569Y0234136D02*
X0746484Y0234136D01*
X0746484Y0231778D02*
X0854399Y0231778D01*
X0853613Y0230992D02*
X0746484Y0230992D01*
X0746484Y0230206D02*
X0853165Y0230206D01*
X0852839Y0229420D02*
X0746484Y0229420D01*
X0746484Y0228634D02*
X0852795Y0228634D01*
X0852795Y0227848D02*
X0746484Y0227848D01*
X0746484Y0227062D02*
X0853070Y0227062D01*
X0853395Y0226276D02*
X0746484Y0226276D01*
X0746484Y0225491D02*
X0854170Y0225491D01*
X0855563Y0224705D02*
X0746484Y0224705D01*
X0746484Y0223919D02*
X0870569Y0223919D01*
X0870569Y0224705D02*
X0858015Y0224705D01*
X0859408Y0225491D02*
X0870569Y0225491D01*
X0870569Y0226276D02*
X0860183Y0226276D01*
X0860508Y0227062D02*
X0870569Y0227062D01*
X0870569Y0227848D02*
X0860783Y0227848D01*
X0860783Y0228634D02*
X0870569Y0228634D01*
X0870569Y0229420D02*
X0860739Y0229420D01*
X0860413Y0230206D02*
X0870569Y0230206D01*
X0870569Y0230992D02*
X0859965Y0230992D01*
X0870569Y0223133D02*
X0746484Y0223133D01*
X0746484Y0222347D02*
X0870569Y0222347D01*
X0870569Y0221561D02*
X0746484Y0221561D01*
X0746484Y0220775D02*
X0870569Y0220775D01*
X0870569Y0219989D02*
X0746484Y0219989D01*
X0746484Y0219203D02*
X0870569Y0219203D01*
X0870569Y0218417D02*
X0767155Y0218417D01*
X0767123Y0218431D02*
X0766140Y0218431D01*
X0765232Y0218055D01*
X0764538Y0217360D01*
X0764161Y0216452D01*
X0764161Y0215469D01*
X0764538Y0214561D01*
X0765232Y0213867D01*
X0766140Y0213491D01*
X0767123Y0213491D01*
X0768031Y0213867D01*
X0768726Y0214561D01*
X0769102Y0215469D01*
X0769102Y0216452D01*
X0768726Y0217360D01*
X0768031Y0218055D01*
X0767123Y0218431D01*
X0766108Y0218417D02*
X0746484Y0218417D01*
X0746484Y0217631D02*
X0764809Y0217631D01*
X0764324Y0216845D02*
X0758093Y0216845D01*
X0758068Y0216856D02*
X0757085Y0216856D01*
X0756177Y0216480D01*
X0755482Y0215785D01*
X0755106Y0214877D01*
X0755106Y0213894D01*
X0755482Y0212987D01*
X0756177Y0212292D01*
X0757085Y0211916D01*
X0758068Y0211916D01*
X0758976Y0212292D01*
X0759670Y0212987D01*
X0760047Y0213894D01*
X0760047Y0214877D01*
X0759670Y0215785D01*
X0758976Y0216480D01*
X0758068Y0216856D01*
X0757060Y0216845D02*
X0746484Y0216845D01*
X0746484Y0216060D02*
X0755757Y0216060D01*
X0755271Y0215274D02*
X0746484Y0215274D01*
X0746484Y0214488D02*
X0755106Y0214488D01*
X0755186Y0213702D02*
X0746484Y0213702D01*
X0746484Y0212916D02*
X0755553Y0212916D01*
X0756568Y0212130D02*
X0746484Y0212130D01*
X0746484Y0211344D02*
X0766002Y0211344D01*
X0766020Y0211362D02*
X0765325Y0210667D01*
X0764949Y0209759D01*
X0764949Y0208776D01*
X0765325Y0207869D01*
X0766020Y0207174D01*
X0766928Y0206798D01*
X0767910Y0206798D01*
X0768818Y0207174D01*
X0769513Y0207869D01*
X0769889Y0208776D01*
X0769889Y0209759D01*
X0769513Y0210667D01*
X0768818Y0211362D01*
X0767910Y0211738D01*
X0766928Y0211738D01*
X0766020Y0211362D01*
X0765280Y0210558D02*
X0746484Y0210558D01*
X0746484Y0209772D02*
X0764954Y0209772D01*
X0764949Y0208986D02*
X0746484Y0208986D01*
X0746484Y0208200D02*
X0755378Y0208200D01*
X0755089Y0207911D02*
X0754713Y0207003D01*
X0754713Y0206020D01*
X0755089Y0205113D01*
X0755784Y0204418D01*
X0756691Y0204042D01*
X0757674Y0204042D01*
X0758582Y0204418D01*
X0759277Y0205113D01*
X0759653Y0206020D01*
X0759653Y0207003D01*
X0759277Y0207911D01*
X0758582Y0208606D01*
X0757674Y0208982D01*
X0756691Y0208982D01*
X0755784Y0208606D01*
X0755089Y0207911D01*
X0754883Y0207415D02*
X0746484Y0207415D01*
X0746484Y0206629D02*
X0754713Y0206629D01*
X0754786Y0205843D02*
X0746484Y0205843D01*
X0746484Y0205057D02*
X0755145Y0205057D01*
X0756138Y0204271D02*
X0746484Y0204271D01*
X0746484Y0203485D02*
X0797274Y0203485D01*
X0797226Y0203437D02*
X0797226Y0201712D01*
X0798446Y0200492D01*
X0800171Y0200492D01*
X0801391Y0201712D01*
X0801391Y0203437D01*
X0800171Y0204657D01*
X0798446Y0204657D01*
X0797226Y0203437D01*
X0797226Y0202699D02*
X0795437Y0202699D01*
X0795880Y0202256D02*
X0794660Y0203476D01*
X0792934Y0203476D01*
X0791714Y0202256D01*
X0791714Y0200531D01*
X0792934Y0199311D01*
X0794660Y0199311D01*
X0795880Y0200531D01*
X0795880Y0202256D01*
X0795880Y0201913D02*
X0797226Y0201913D01*
X0797811Y0201127D02*
X0795880Y0201127D01*
X0795690Y0200341D02*
X0826592Y0200341D01*
X0826847Y0200087D02*
X0827754Y0199711D01*
X0828737Y0199711D01*
X0829645Y0200087D01*
X0830340Y0200782D01*
X0830716Y0201690D01*
X0830716Y0202672D01*
X0830340Y0203580D01*
X0829645Y0204275D01*
X0828737Y0204651D01*
X0827754Y0204651D01*
X0826847Y0204275D01*
X0826152Y0203580D01*
X0825776Y0202672D01*
X0825776Y0201690D01*
X0826152Y0200782D01*
X0826847Y0200087D01*
X0826009Y0201127D02*
X0800806Y0201127D01*
X0801202Y0200327D02*
X0799982Y0199107D01*
X0799982Y0197381D01*
X0801202Y0196161D01*
X0802927Y0196161D01*
X0804147Y0197381D01*
X0804147Y0199107D01*
X0802927Y0200327D01*
X0801202Y0200327D01*
X0800431Y0199555D02*
X0794904Y0199555D01*
X0792690Y0199555D02*
X0746484Y0199555D01*
X0746484Y0198769D02*
X0799982Y0198769D01*
X0799982Y0197984D02*
X0746484Y0197984D01*
X0746484Y0197198D02*
X0754612Y0197198D01*
X0754301Y0196887D02*
X0754996Y0197582D01*
X0755904Y0197958D01*
X0756887Y0197958D01*
X0757795Y0197582D01*
X0758489Y0196887D01*
X0758865Y0195980D01*
X0758865Y0194997D01*
X0758489Y0194089D01*
X0757795Y0193394D01*
X0756887Y0193018D01*
X0755904Y0193018D01*
X0754996Y0193394D01*
X0754301Y0194089D01*
X0753925Y0194997D01*
X0753925Y0195980D01*
X0754301Y0196887D01*
X0754104Y0196412D02*
X0746484Y0196412D01*
X0746484Y0195626D02*
X0753925Y0195626D01*
X0753990Y0194840D02*
X0746484Y0194840D01*
X0746484Y0194054D02*
X0754336Y0194054D01*
X0755300Y0193268D02*
X0746484Y0193268D01*
X0746484Y0192482D02*
X0802019Y0192482D01*
X0801557Y0192020D02*
X0801557Y0190295D01*
X0802777Y0189075D01*
X0804502Y0189075D01*
X0805722Y0190295D01*
X0805722Y0192020D01*
X0804502Y0193240D01*
X0802777Y0193240D01*
X0801557Y0192020D01*
X0801557Y0191696D02*
X0758141Y0191696D01*
X0758188Y0191677D02*
X0757280Y0192053D01*
X0756298Y0192053D01*
X0755390Y0191677D01*
X0754695Y0190982D01*
X0754319Y0190074D01*
X0754319Y0189091D01*
X0754695Y0188183D01*
X0755390Y0187489D01*
X0756298Y0187113D01*
X0757280Y0187113D01*
X0758188Y0187489D01*
X0758883Y0188183D01*
X0759259Y0189091D01*
X0759259Y0190074D01*
X0758883Y0190982D01*
X0758188Y0191677D01*
X0758913Y0190910D02*
X0801557Y0190910D01*
X0801727Y0190124D02*
X0759238Y0190124D01*
X0759259Y0189339D02*
X0783367Y0189339D01*
X0782735Y0188553D02*
X0759036Y0188553D01*
X0758466Y0187767D02*
X0782469Y0187767D01*
X0782469Y0186981D02*
X0745913Y0186981D01*
X0746484Y0187767D02*
X0755112Y0187767D01*
X0754542Y0188553D02*
X0746484Y0188553D01*
X0746484Y0189339D02*
X0754319Y0189339D01*
X0754340Y0190124D02*
X0746484Y0190124D01*
X0746484Y0190910D02*
X0754665Y0190910D01*
X0755437Y0191696D02*
X0746484Y0191696D01*
X0745096Y0191696D02*
X0743921Y0191696D01*
X0744145Y0192237D02*
X0743537Y0190769D01*
X0742413Y0189646D01*
X0740946Y0189038D01*
X0739357Y0189038D01*
X0737889Y0189646D01*
X0736766Y0190769D01*
X0736158Y0192237D01*
X0736158Y0193826D01*
X0736766Y0195294D01*
X0737889Y0196417D01*
X0739357Y0197025D01*
X0740946Y0197025D01*
X0742413Y0196417D01*
X0743537Y0195294D01*
X0744145Y0193826D01*
X0744145Y0192237D01*
X0744145Y0192482D02*
X0745096Y0192482D01*
X0745096Y0193268D02*
X0744145Y0193268D01*
X0744050Y0194054D02*
X0745096Y0194054D01*
X0745096Y0194840D02*
X0743725Y0194840D01*
X0743205Y0195626D02*
X0745096Y0195626D01*
X0745096Y0196412D02*
X0742419Y0196412D01*
X0745096Y0197198D02*
X0714911Y0197198D01*
X0714919Y0197984D02*
X0745096Y0197984D01*
X0745096Y0198769D02*
X0714927Y0198769D01*
X0714935Y0199555D02*
X0715821Y0199555D01*
X0715035Y0200341D02*
X0714943Y0200341D01*
X0712317Y0199555D02*
X0705596Y0199555D01*
X0705596Y0198769D02*
X0712309Y0198769D01*
X0712301Y0197984D02*
X0705596Y0197984D01*
X0705596Y0197198D02*
X0712293Y0197198D01*
X0714450Y0195626D02*
X0717098Y0195626D01*
X0716766Y0195294D02*
X0716158Y0193826D01*
X0716158Y0192237D01*
X0716766Y0190769D01*
X0717889Y0189646D01*
X0719357Y0189038D01*
X0720946Y0189038D01*
X0722413Y0189646D01*
X0723537Y0190769D01*
X0724145Y0192237D01*
X0724145Y0193826D01*
X0723537Y0195294D01*
X0722413Y0196417D01*
X0720946Y0197025D01*
X0719357Y0197025D01*
X0717889Y0196417D01*
X0716766Y0195294D01*
X0716578Y0194840D02*
X0713725Y0194840D01*
X0714050Y0194054D02*
X0716252Y0194054D01*
X0716158Y0193268D02*
X0714145Y0193268D01*
X0714145Y0192482D02*
X0716158Y0192482D01*
X0716382Y0191696D02*
X0713921Y0191696D01*
X0713595Y0190910D02*
X0716707Y0190910D01*
X0717410Y0190124D02*
X0712892Y0190124D01*
X0711672Y0189339D02*
X0718631Y0189339D01*
X0721672Y0189339D02*
X0728631Y0189339D01*
X0729357Y0189038D02*
X0730946Y0189038D01*
X0732413Y0189646D01*
X0733537Y0190769D01*
X0734145Y0192237D01*
X0734145Y0193826D01*
X0733537Y0195294D01*
X0732413Y0196417D01*
X0730946Y0197025D01*
X0729357Y0197025D01*
X0727889Y0196417D01*
X0726766Y0195294D01*
X0726158Y0193826D01*
X0726158Y0192237D01*
X0726766Y0190769D01*
X0727889Y0189646D01*
X0729357Y0189038D01*
X0727410Y0190124D02*
X0722892Y0190124D01*
X0723595Y0190910D02*
X0726707Y0190910D01*
X0726382Y0191696D02*
X0723921Y0191696D01*
X0724145Y0192482D02*
X0726158Y0192482D01*
X0726158Y0193268D02*
X0724145Y0193268D01*
X0724050Y0194054D02*
X0726252Y0194054D01*
X0726578Y0194840D02*
X0723725Y0194840D01*
X0723205Y0195626D02*
X0727098Y0195626D01*
X0727884Y0196412D02*
X0722419Y0196412D01*
X0719571Y0199555D02*
X0717981Y0199555D01*
X0718767Y0200341D02*
X0718785Y0200341D01*
X0719263Y0202699D02*
X0718290Y0202699D01*
X0725313Y0205843D02*
X0727683Y0205843D01*
X0727116Y0206629D02*
X0726099Y0206629D01*
X0726885Y0207415D02*
X0727116Y0207415D01*
X0728153Y0204271D02*
X0745096Y0204271D01*
X0745096Y0203485D02*
X0728939Y0203485D01*
X0731290Y0202699D02*
X0745096Y0202699D01*
X0745096Y0201913D02*
X0732076Y0201913D01*
X0732135Y0201127D02*
X0745096Y0201127D01*
X0745096Y0200341D02*
X0732135Y0200341D01*
X0731481Y0199555D02*
X0745096Y0199555D01*
X0746484Y0200341D02*
X0791904Y0200341D01*
X0791714Y0201127D02*
X0746484Y0201127D01*
X0746484Y0201913D02*
X0791714Y0201913D01*
X0792157Y0202699D02*
X0746484Y0202699D01*
X0741659Y0205843D02*
X0741144Y0205843D01*
X0739159Y0205843D02*
X0735965Y0205843D01*
X0736533Y0206629D02*
X0738373Y0206629D01*
X0738167Y0207415D02*
X0736533Y0207415D01*
X0736387Y0208200D02*
X0738167Y0208200D01*
X0738675Y0208986D02*
X0735601Y0208986D01*
X0733497Y0208986D02*
X0732902Y0208986D01*
X0730798Y0208986D02*
X0730152Y0208986D01*
X0730028Y0210558D02*
X0745096Y0210558D01*
X0745096Y0211344D02*
X0730814Y0211344D01*
X0731596Y0212130D02*
X0745096Y0212130D01*
X0745096Y0212916D02*
X0731595Y0212916D01*
X0731594Y0213702D02*
X0745096Y0213702D01*
X0745096Y0214488D02*
X0731593Y0214488D01*
X0731592Y0215274D02*
X0745096Y0215274D01*
X0741531Y0216845D02*
X0741271Y0216845D01*
X0739031Y0216845D02*
X0737017Y0216845D01*
X0737135Y0217631D02*
X0738245Y0217631D01*
X0738167Y0218417D02*
X0737135Y0218417D01*
X0736540Y0219203D02*
X0738167Y0219203D01*
X0738803Y0219989D02*
X0734500Y0219989D01*
X0731584Y0220775D02*
X0741602Y0220775D01*
X0740816Y0221561D02*
X0731583Y0221561D01*
X0731582Y0222347D02*
X0740667Y0222347D01*
X0740667Y0223133D02*
X0731581Y0223133D01*
X0731580Y0223919D02*
X0741232Y0223919D01*
X0722140Y0219203D02*
X0702683Y0219203D01*
X0703370Y0219989D02*
X0721354Y0219989D01*
X0720568Y0220775D02*
X0704058Y0220775D01*
X0704746Y0221561D02*
X0719783Y0221561D01*
X0722926Y0218417D02*
X0701995Y0218417D01*
X0701307Y0217631D02*
X0723712Y0217631D01*
X0724498Y0216845D02*
X0700620Y0216845D01*
X0697015Y0213702D02*
X0516306Y0213702D01*
X0516532Y0213795D02*
X0517655Y0214919D01*
X0518263Y0216387D01*
X0518263Y0217975D01*
X0517655Y0219443D01*
X0516532Y0220567D01*
X0515064Y0221175D01*
X0513475Y0221175D01*
X0512007Y0220567D01*
X0510884Y0219443D01*
X0510276Y0217975D01*
X0510276Y0216387D01*
X0510884Y0214919D01*
X0512007Y0213795D01*
X0513475Y0213187D01*
X0515064Y0213187D01*
X0516532Y0213795D01*
X0517224Y0214488D02*
X0663856Y0214488D01*
X0663768Y0215274D02*
X0517802Y0215274D01*
X0518128Y0216060D02*
X0663768Y0216060D01*
X0663768Y0216845D02*
X0518263Y0216845D01*
X0518263Y0217631D02*
X0663768Y0217631D01*
X0663768Y0218417D02*
X0518080Y0218417D01*
X0517755Y0219203D02*
X0663768Y0219203D01*
X0663768Y0219989D02*
X0517109Y0219989D01*
X0516029Y0220775D02*
X0663768Y0220775D01*
X0663768Y0221561D02*
X0500490Y0221561D01*
X0500490Y0222347D02*
X0663768Y0222347D01*
X0663768Y0223133D02*
X0500490Y0223133D01*
X0500490Y0223919D02*
X0613054Y0223919D01*
X0613264Y0223709D02*
X0614172Y0223333D01*
X0615154Y0223333D01*
X0616062Y0223709D01*
X0616757Y0224404D01*
X0617133Y0225312D01*
X0617133Y0226294D01*
X0616757Y0227202D01*
X0616062Y0227897D01*
X0615154Y0228273D01*
X0614172Y0228273D01*
X0613264Y0227897D01*
X0612569Y0227202D01*
X0612193Y0226294D01*
X0612193Y0225312D01*
X0612569Y0224404D01*
X0613264Y0223709D01*
X0612444Y0224705D02*
X0500490Y0224705D01*
X0500490Y0225491D02*
X0612193Y0225491D01*
X0612193Y0226276D02*
X0500490Y0226276D01*
X0500490Y0227062D02*
X0612511Y0227062D01*
X0613215Y0227848D02*
X0500490Y0227848D01*
X0500490Y0228634D02*
X0663768Y0228634D01*
X0663768Y0227848D02*
X0629891Y0227848D01*
X0629842Y0227897D02*
X0628934Y0228273D01*
X0627951Y0228273D01*
X0627043Y0227897D01*
X0626349Y0227202D01*
X0625973Y0226294D01*
X0625973Y0225312D01*
X0626349Y0224404D01*
X0627043Y0223709D01*
X0627951Y0223333D01*
X0628934Y0223333D01*
X0629842Y0223709D01*
X0630537Y0224404D01*
X0630913Y0225312D01*
X0630913Y0226294D01*
X0630537Y0227202D01*
X0629842Y0227897D01*
X0630595Y0227062D02*
X0663768Y0227062D01*
X0663768Y0226276D02*
X0630913Y0226276D01*
X0630913Y0225491D02*
X0663768Y0225491D01*
X0663768Y0224705D02*
X0630661Y0224705D01*
X0630051Y0223919D02*
X0663768Y0223919D01*
X0663768Y0229420D02*
X0500490Y0229420D01*
X0500490Y0230206D02*
X0663768Y0230206D01*
X0663768Y0230992D02*
X0500490Y0230992D01*
X0500490Y0231778D02*
X0663768Y0231778D01*
X0663768Y0232564D02*
X0500490Y0232564D01*
X0500490Y0233350D02*
X0663768Y0233350D01*
X0663768Y0234136D02*
X0500490Y0234136D01*
X0500490Y0234921D02*
X0663768Y0234921D01*
X0663768Y0235707D02*
X0500490Y0235707D01*
X0500490Y0236493D02*
X0663768Y0236493D01*
X0663768Y0237279D02*
X0500490Y0237279D01*
X0500490Y0238065D02*
X0663768Y0238065D01*
X0663768Y0238851D02*
X0500490Y0238851D01*
X0500490Y0239637D02*
X0663768Y0239637D01*
X0663768Y0240423D02*
X0500490Y0240423D01*
X0500490Y0241209D02*
X0663768Y0241209D01*
X0626994Y0227848D02*
X0616111Y0227848D01*
X0616815Y0227062D02*
X0626291Y0227062D01*
X0625973Y0226276D02*
X0617133Y0226276D01*
X0617133Y0225491D02*
X0625973Y0225491D01*
X0626224Y0224705D02*
X0616882Y0224705D01*
X0616272Y0223919D02*
X0626834Y0223919D01*
X0648760Y0205843D02*
X0693417Y0205843D01*
X0693820Y0205057D02*
X0649286Y0205057D01*
X0646609Y0197167D02*
X0645080Y0197167D01*
X0643667Y0196581D01*
X0642586Y0195500D01*
X0642000Y0194087D01*
X0642000Y0192558D01*
X0642586Y0191146D01*
X0643667Y0190064D01*
X0645080Y0189479D01*
X0646609Y0189479D01*
X0648021Y0190064D01*
X0649103Y0191146D01*
X0649688Y0192558D01*
X0649688Y0194087D01*
X0649103Y0195500D01*
X0648021Y0196581D01*
X0646609Y0197167D01*
X0648191Y0196412D02*
X0667884Y0196412D01*
X0667889Y0196417D02*
X0666766Y0195294D01*
X0666158Y0193826D01*
X0666158Y0192237D01*
X0666766Y0190769D01*
X0667889Y0189646D01*
X0669357Y0189038D01*
X0670946Y0189038D01*
X0672413Y0189646D01*
X0673537Y0190769D01*
X0674145Y0192237D01*
X0674145Y0193826D01*
X0673537Y0195294D01*
X0672413Y0196417D01*
X0670946Y0197025D01*
X0669357Y0197025D01*
X0667889Y0196417D01*
X0667098Y0195626D02*
X0648977Y0195626D01*
X0649376Y0194840D02*
X0666578Y0194840D01*
X0666252Y0194054D02*
X0649688Y0194054D01*
X0649688Y0193268D02*
X0666158Y0193268D01*
X0666158Y0192482D02*
X0649656Y0192482D01*
X0649331Y0191696D02*
X0666382Y0191696D01*
X0666707Y0190910D02*
X0648867Y0190910D01*
X0648082Y0190124D02*
X0667410Y0190124D01*
X0668631Y0189339D02*
X0517698Y0189339D01*
X0518024Y0188553D02*
X0704209Y0188553D01*
X0704209Y0189339D02*
X0701672Y0189339D01*
X0700946Y0189038D02*
X0702413Y0189646D01*
X0703537Y0190769D01*
X0704145Y0192237D01*
X0704145Y0193826D01*
X0703537Y0195294D01*
X0702413Y0196417D01*
X0700946Y0197025D01*
X0699357Y0197025D01*
X0697889Y0196417D01*
X0696766Y0195294D01*
X0696158Y0193826D01*
X0696158Y0192237D01*
X0696766Y0190769D01*
X0697889Y0189646D01*
X0699357Y0189038D01*
X0700946Y0189038D01*
X0702892Y0190124D02*
X0704209Y0190124D01*
X0704209Y0190910D02*
X0703595Y0190910D01*
X0703921Y0191696D02*
X0704209Y0191696D01*
X0704209Y0192482D02*
X0704145Y0192482D01*
X0704145Y0193268D02*
X0704209Y0193268D01*
X0704209Y0194054D02*
X0704050Y0194054D01*
X0704209Y0194840D02*
X0703725Y0194840D01*
X0704209Y0195626D02*
X0703205Y0195626D01*
X0702419Y0196412D02*
X0704209Y0196412D01*
X0704209Y0197198D02*
X0602513Y0197198D01*
X0603163Y0196412D02*
X0613497Y0196412D01*
X0612711Y0195626D02*
X0603163Y0195626D01*
X0603163Y0194840D02*
X0612312Y0194840D01*
X0612000Y0194054D02*
X0602395Y0194054D01*
X0599648Y0197198D02*
X0518263Y0197198D01*
X0518260Y0197984D02*
X0704209Y0197984D01*
X0705596Y0196412D02*
X0707884Y0196412D01*
X0707098Y0195626D02*
X0705596Y0195626D01*
X0705596Y0194840D02*
X0706578Y0194840D01*
X0706252Y0194054D02*
X0705596Y0194054D01*
X0705596Y0193268D02*
X0706158Y0193268D01*
X0706158Y0192482D02*
X0705596Y0192482D01*
X0705596Y0191696D02*
X0706382Y0191696D01*
X0706707Y0190910D02*
X0705596Y0190910D01*
X0705596Y0190124D02*
X0707410Y0190124D01*
X0708631Y0189339D02*
X0705596Y0189339D01*
X0705596Y0188553D02*
X0745096Y0188553D01*
X0745096Y0189339D02*
X0741672Y0189339D01*
X0742892Y0190124D02*
X0745096Y0190124D01*
X0745096Y0190910D02*
X0743595Y0190910D01*
X0738631Y0189339D02*
X0731672Y0189339D01*
X0732892Y0190124D02*
X0737410Y0190124D01*
X0736707Y0190910D02*
X0733595Y0190910D01*
X0733921Y0191696D02*
X0736382Y0191696D01*
X0736158Y0192482D02*
X0734145Y0192482D01*
X0734145Y0193268D02*
X0736158Y0193268D01*
X0736252Y0194054D02*
X0734050Y0194054D01*
X0733725Y0194840D02*
X0736578Y0194840D01*
X0737098Y0195626D02*
X0733205Y0195626D01*
X0732419Y0196412D02*
X0737884Y0196412D01*
X0757490Y0193268D02*
X0795828Y0193268D01*
X0795258Y0193838D02*
X0796478Y0192618D01*
X0798203Y0192618D01*
X0799423Y0193838D01*
X0799423Y0195563D01*
X0798203Y0196783D01*
X0796478Y0196783D01*
X0795258Y0195563D01*
X0795258Y0193838D01*
X0795258Y0194054D02*
X0758454Y0194054D01*
X0758800Y0194840D02*
X0795258Y0194840D01*
X0795320Y0195626D02*
X0758865Y0195626D01*
X0758686Y0196412D02*
X0796106Y0196412D01*
X0798575Y0196412D02*
X0800952Y0196412D01*
X0800166Y0197198D02*
X0758179Y0197198D01*
X0758227Y0204271D02*
X0792305Y0204271D01*
X0791714Y0204862D02*
X0792934Y0203642D01*
X0794660Y0203642D01*
X0795880Y0204862D01*
X0795880Y0206587D01*
X0794660Y0207807D01*
X0792934Y0207807D01*
X0791714Y0206587D01*
X0791714Y0204862D01*
X0791714Y0205057D02*
X0759221Y0205057D01*
X0759579Y0205843D02*
X0791714Y0205843D01*
X0791756Y0206629D02*
X0759653Y0206629D01*
X0759482Y0207415D02*
X0765779Y0207415D01*
X0765187Y0208200D02*
X0758987Y0208200D01*
X0758585Y0212130D02*
X0776237Y0212130D01*
X0775955Y0211848D02*
X0775579Y0210940D01*
X0775579Y0209957D01*
X0775955Y0209050D01*
X0776650Y0208355D01*
X0777558Y0207979D01*
X0778540Y0207979D01*
X0779448Y0208355D01*
X0780143Y0209050D01*
X0780519Y0209957D01*
X0780519Y0210940D01*
X0780143Y0211848D01*
X0779448Y0212543D01*
X0778540Y0212919D01*
X0777558Y0212919D01*
X0776650Y0212543D01*
X0775955Y0211848D01*
X0775746Y0211344D02*
X0768836Y0211344D01*
X0769558Y0210558D02*
X0775579Y0210558D01*
X0775656Y0209772D02*
X0769884Y0209772D01*
X0769889Y0208986D02*
X0776018Y0208986D01*
X0777022Y0208200D02*
X0769650Y0208200D01*
X0769059Y0207415D02*
X0792542Y0207415D01*
X0795052Y0207415D02*
X0818092Y0207415D01*
X0818092Y0206830D02*
X0819312Y0205610D01*
X0821038Y0205610D01*
X0822258Y0206830D01*
X0822258Y0208556D01*
X0821038Y0209776D01*
X0819312Y0209776D01*
X0818092Y0208556D01*
X0818092Y0206830D01*
X0818294Y0206629D02*
X0795838Y0206629D01*
X0795880Y0205843D02*
X0803568Y0205843D01*
X0803132Y0205406D02*
X0804352Y0206626D01*
X0806077Y0206626D01*
X0807297Y0205406D01*
X0807297Y0203681D01*
X0806077Y0202461D01*
X0804352Y0202461D01*
X0803132Y0203681D01*
X0803132Y0205406D01*
X0803132Y0205057D02*
X0795880Y0205057D01*
X0795289Y0204271D02*
X0798059Y0204271D01*
X0800558Y0204271D02*
X0803132Y0204271D01*
X0803327Y0203485D02*
X0801344Y0203485D01*
X0801391Y0202699D02*
X0804113Y0202699D01*
X0806315Y0202699D02*
X0825787Y0202699D01*
X0825776Y0201913D02*
X0801391Y0201913D01*
X0803699Y0199555D02*
X0870569Y0199555D01*
X0870569Y0198769D02*
X0821414Y0198769D01*
X0821038Y0199146D02*
X0819312Y0199146D01*
X0818092Y0197926D01*
X0818092Y0196200D01*
X0819198Y0195094D01*
X0818092Y0193989D01*
X0818092Y0192263D01*
X0819312Y0191043D01*
X0821038Y0191043D01*
X0822258Y0192263D01*
X0822258Y0193989D01*
X0821152Y0195094D01*
X0822258Y0196200D01*
X0822258Y0197926D01*
X0821038Y0199146D01*
X0822200Y0197984D02*
X0870569Y0197984D01*
X0870569Y0197198D02*
X0822258Y0197198D01*
X0822258Y0196412D02*
X0870569Y0196412D01*
X0870569Y0195626D02*
X0821683Y0195626D01*
X0821406Y0194840D02*
X0870569Y0194840D01*
X0870569Y0194054D02*
X0822192Y0194054D01*
X0822258Y0193268D02*
X0870569Y0193268D01*
X0870569Y0192482D02*
X0822258Y0192482D01*
X0821691Y0191696D02*
X0870569Y0191696D01*
X0870569Y0190910D02*
X0816352Y0190910D01*
X0816352Y0191233D02*
X0815132Y0192453D01*
X0814573Y0192453D01*
X0815565Y0193444D01*
X0815565Y0195170D01*
X0814345Y0196390D01*
X0812619Y0196390D01*
X0811399Y0195170D01*
X0811399Y0193444D01*
X0812619Y0192224D01*
X0813178Y0192224D01*
X0812187Y0191233D01*
X0812187Y0189507D01*
X0813407Y0188287D01*
X0815132Y0188287D01*
X0816352Y0189507D01*
X0816352Y0191233D01*
X0815888Y0191696D02*
X0818659Y0191696D01*
X0818092Y0192482D02*
X0814602Y0192482D01*
X0815388Y0193268D02*
X0818092Y0193268D01*
X0818158Y0194054D02*
X0815565Y0194054D01*
X0815565Y0194840D02*
X0818943Y0194840D01*
X0818667Y0195626D02*
X0815109Y0195626D01*
X0818092Y0196412D02*
X0808811Y0196412D01*
X0808439Y0196783D02*
X0806714Y0196783D01*
X0805494Y0195563D01*
X0805494Y0193838D01*
X0806714Y0192618D01*
X0808439Y0192618D01*
X0809659Y0193838D01*
X0809659Y0195563D01*
X0808439Y0196783D01*
X0809597Y0195626D02*
X0811855Y0195626D01*
X0811399Y0194840D02*
X0809659Y0194840D01*
X0809659Y0194054D02*
X0811399Y0194054D01*
X0811576Y0193268D02*
X0809089Y0193268D01*
X0809227Y0190484D02*
X0807501Y0190484D01*
X0806281Y0189264D01*
X0806281Y0187539D01*
X0807501Y0186319D01*
X0809227Y0186319D01*
X0810447Y0187539D01*
X0810447Y0189264D01*
X0809227Y0190484D01*
X0809586Y0190124D02*
X0812187Y0190124D01*
X0812187Y0190910D02*
X0805722Y0190910D01*
X0805722Y0191696D02*
X0812650Y0191696D01*
X0812361Y0192482D02*
X0805260Y0192482D01*
X0806064Y0193268D02*
X0798853Y0193268D01*
X0799423Y0194054D02*
X0805494Y0194054D01*
X0805494Y0194840D02*
X0799423Y0194840D01*
X0799361Y0195626D02*
X0805556Y0195626D01*
X0806342Y0196412D02*
X0803178Y0196412D01*
X0803964Y0197198D02*
X0818092Y0197198D01*
X0818150Y0197984D02*
X0804147Y0197984D01*
X0804147Y0198769D02*
X0818936Y0198769D01*
X0826112Y0203485D02*
X0807101Y0203485D01*
X0807297Y0204271D02*
X0826842Y0204271D01*
X0829649Y0204271D02*
X0870569Y0204271D01*
X0870569Y0205057D02*
X0807297Y0205057D01*
X0806860Y0205843D02*
X0819080Y0205843D01*
X0821270Y0205843D02*
X0870569Y0205843D01*
X0870569Y0206629D02*
X0822056Y0206629D01*
X0822258Y0207415D02*
X0870569Y0207415D01*
X0870569Y0208200D02*
X0822258Y0208200D01*
X0821827Y0208986D02*
X0870569Y0208986D01*
X0870569Y0209772D02*
X0821041Y0209772D01*
X0819309Y0209772D02*
X0780442Y0209772D01*
X0780519Y0210558D02*
X0870569Y0210558D01*
X0870569Y0211344D02*
X0780352Y0211344D01*
X0779861Y0212130D02*
X0870569Y0212130D01*
X0870569Y0212916D02*
X0778547Y0212916D01*
X0777550Y0212916D02*
X0759600Y0212916D01*
X0759967Y0213702D02*
X0765630Y0213702D01*
X0764611Y0214488D02*
X0760047Y0214488D01*
X0759882Y0215274D02*
X0764243Y0215274D01*
X0764161Y0216060D02*
X0759396Y0216060D01*
X0767633Y0213702D02*
X0870569Y0213702D01*
X0870569Y0214488D02*
X0768652Y0214488D01*
X0769021Y0215274D02*
X0870569Y0215274D01*
X0870569Y0216060D02*
X0769102Y0216060D01*
X0768939Y0216845D02*
X0870569Y0216845D01*
X0870569Y0217631D02*
X0768454Y0217631D01*
X0779075Y0208200D02*
X0818092Y0208200D01*
X0818523Y0208986D02*
X0780080Y0208986D01*
X0829899Y0200341D02*
X0870569Y0200341D01*
X0870569Y0201127D02*
X0830483Y0201127D01*
X0830716Y0201913D02*
X0870569Y0201913D01*
X0870569Y0202699D02*
X0830705Y0202699D01*
X0830379Y0203485D02*
X0870569Y0203485D01*
X0870569Y0190124D02*
X0821397Y0190124D01*
X0821038Y0190484D02*
X0819312Y0190484D01*
X0818092Y0189264D01*
X0818092Y0187539D01*
X0819312Y0186319D01*
X0821038Y0186319D01*
X0822258Y0187539D01*
X0822258Y0189264D01*
X0821038Y0190484D01*
X0822183Y0189339D02*
X0870569Y0189339D01*
X0870569Y0188553D02*
X0822258Y0188553D01*
X0822258Y0187767D02*
X0870569Y0187767D01*
X0870569Y0186981D02*
X0821699Y0186981D01*
X0818650Y0186981D02*
X0809888Y0186981D01*
X0810447Y0187767D02*
X0818092Y0187767D01*
X0818092Y0188553D02*
X0815397Y0188553D01*
X0816183Y0189339D02*
X0818166Y0189339D01*
X0818952Y0190124D02*
X0816352Y0190124D01*
X0813141Y0188553D02*
X0810447Y0188553D01*
X0810372Y0189339D02*
X0812356Y0189339D01*
X0807141Y0190124D02*
X0805552Y0190124D01*
X0804766Y0189339D02*
X0806355Y0189339D01*
X0806281Y0188553D02*
X0787142Y0188553D01*
X0787409Y0187767D02*
X0806281Y0187767D01*
X0806839Y0186981D02*
X0787409Y0186981D01*
X0787106Y0186195D02*
X0870569Y0186195D01*
X0870569Y0185409D02*
X0786423Y0185409D01*
X0786511Y0189339D02*
X0802513Y0189339D01*
X0870569Y0178336D02*
X0500490Y0178336D01*
X0500490Y0177550D02*
X0870569Y0177550D01*
X0870569Y0176764D02*
X0647581Y0176764D01*
X0648625Y0175978D02*
X0870569Y0175978D01*
X0870569Y0175192D02*
X0649230Y0175192D01*
X0649556Y0174406D02*
X0870569Y0174406D01*
X0870569Y0173620D02*
X0649688Y0173620D01*
X0649688Y0172834D02*
X0870569Y0172834D01*
X0870569Y0172048D02*
X0649477Y0172048D01*
X0649151Y0171263D02*
X0870569Y0171263D01*
X0826524Y0168119D02*
X0544534Y0168119D01*
X0545320Y0167333D02*
X0825738Y0167333D01*
X0824952Y0166547D02*
X0648056Y0166547D01*
X0648021Y0166581D02*
X0646609Y0167167D01*
X0645080Y0167167D01*
X0643667Y0166581D01*
X0642586Y0165500D01*
X0642000Y0164087D01*
X0642000Y0162558D01*
X0642586Y0161146D01*
X0643667Y0160064D01*
X0645080Y0159479D01*
X0646609Y0159479D01*
X0648021Y0160064D01*
X0649103Y0161146D01*
X0649688Y0162558D01*
X0649688Y0164087D01*
X0649103Y0165500D01*
X0648021Y0166581D01*
X0648842Y0165761D02*
X0824551Y0165761D01*
X0824225Y0164975D02*
X0649320Y0164975D01*
X0649646Y0164189D02*
X0823900Y0164189D01*
X0823574Y0163403D02*
X0649688Y0163403D01*
X0649688Y0162617D02*
X0823324Y0162617D01*
X0823324Y0161832D02*
X0649387Y0161832D01*
X0649003Y0161046D02*
X0823324Y0161046D01*
X0823324Y0160260D02*
X0648217Y0160260D01*
X0643471Y0160260D02*
X0628217Y0160260D01*
X0628021Y0160064D02*
X0629103Y0161146D01*
X0629688Y0162558D01*
X0629688Y0164087D01*
X0629103Y0165500D01*
X0628021Y0166581D01*
X0626609Y0167167D01*
X0625080Y0167167D01*
X0623667Y0166581D01*
X0622586Y0165500D01*
X0622000Y0164087D01*
X0622000Y0162558D01*
X0622586Y0161146D01*
X0623667Y0160064D01*
X0625080Y0159479D01*
X0626609Y0159479D01*
X0628021Y0160064D01*
X0629003Y0161046D02*
X0642685Y0161046D01*
X0642301Y0161832D02*
X0629387Y0161832D01*
X0629688Y0162617D02*
X0642000Y0162617D01*
X0642000Y0163403D02*
X0629688Y0163403D01*
X0629646Y0164189D02*
X0642043Y0164189D01*
X0642368Y0164975D02*
X0629320Y0164975D01*
X0628842Y0165761D02*
X0642847Y0165761D01*
X0643633Y0166547D02*
X0628056Y0166547D01*
X0623633Y0166547D02*
X0618056Y0166547D01*
X0618021Y0166581D02*
X0616609Y0167167D01*
X0615080Y0167167D01*
X0613667Y0166581D01*
X0612586Y0165500D01*
X0612000Y0164087D01*
X0612000Y0162558D01*
X0612586Y0161146D01*
X0613667Y0160064D01*
X0615080Y0159479D01*
X0616609Y0159479D01*
X0618021Y0160064D01*
X0619103Y0161146D01*
X0619688Y0162558D01*
X0619688Y0164087D01*
X0619103Y0165500D01*
X0618021Y0166581D01*
X0618842Y0165761D02*
X0622847Y0165761D01*
X0622368Y0164975D02*
X0619320Y0164975D01*
X0619646Y0164189D02*
X0622043Y0164189D01*
X0622000Y0163403D02*
X0619688Y0163403D01*
X0619688Y0162617D02*
X0622000Y0162617D01*
X0622301Y0161832D02*
X0619387Y0161832D01*
X0619003Y0161046D02*
X0622685Y0161046D01*
X0623471Y0160260D02*
X0618217Y0160260D01*
X0616730Y0157116D02*
X0624958Y0157116D01*
X0623416Y0156330D02*
X0618273Y0156330D01*
X0618021Y0156581D02*
X0616609Y0157167D01*
X0615080Y0157167D01*
X0613667Y0156581D01*
X0612586Y0155500D01*
X0612000Y0154087D01*
X0612000Y0152558D01*
X0612586Y0151146D01*
X0613667Y0150064D01*
X0615080Y0149479D01*
X0616609Y0149479D01*
X0618021Y0150064D01*
X0619103Y0151146D01*
X0619688Y0152558D01*
X0619688Y0154087D01*
X0619103Y0155500D01*
X0618021Y0156581D01*
X0619059Y0155544D02*
X0622630Y0155544D01*
X0622278Y0154758D02*
X0619410Y0154758D01*
X0619688Y0153972D02*
X0622000Y0153972D01*
X0622000Y0153187D02*
X0619688Y0153187D01*
X0619623Y0152401D02*
X0622066Y0152401D01*
X0622391Y0151615D02*
X0619297Y0151615D01*
X0618786Y0150829D02*
X0622902Y0150829D01*
X0623719Y0150043D02*
X0617970Y0150043D01*
X0613719Y0150043D02*
X0587970Y0150043D01*
X0588021Y0150064D02*
X0589103Y0151146D01*
X0589688Y0152558D01*
X0589688Y0154087D01*
X0589103Y0155500D01*
X0588021Y0156581D01*
X0586609Y0157167D01*
X0585080Y0157167D01*
X0583667Y0156581D01*
X0582586Y0155500D01*
X0582000Y0154087D01*
X0582000Y0152558D01*
X0582586Y0151146D01*
X0583667Y0150064D01*
X0585080Y0149479D01*
X0586609Y0149479D01*
X0588021Y0150064D01*
X0588786Y0150829D02*
X0612902Y0150829D01*
X0612391Y0151615D02*
X0589297Y0151615D01*
X0589623Y0152401D02*
X0612066Y0152401D01*
X0612000Y0153187D02*
X0589688Y0153187D01*
X0589688Y0153972D02*
X0612000Y0153972D01*
X0612278Y0154758D02*
X0589410Y0154758D01*
X0589059Y0155544D02*
X0612630Y0155544D01*
X0613416Y0156330D02*
X0588273Y0156330D01*
X0586730Y0157116D02*
X0614958Y0157116D01*
X0613471Y0160260D02*
X0588217Y0160260D01*
X0588021Y0160064D02*
X0589103Y0161146D01*
X0589688Y0162558D01*
X0589688Y0164087D01*
X0589103Y0165500D01*
X0588021Y0166581D01*
X0586609Y0167167D01*
X0585080Y0167167D01*
X0583667Y0166581D01*
X0582586Y0165500D01*
X0582000Y0164087D01*
X0582000Y0162558D01*
X0582586Y0161146D01*
X0583667Y0160064D01*
X0585080Y0159479D01*
X0586609Y0159479D01*
X0588021Y0160064D01*
X0589003Y0161046D02*
X0612685Y0161046D01*
X0612301Y0161832D02*
X0589387Y0161832D01*
X0589688Y0162617D02*
X0612000Y0162617D01*
X0612000Y0163403D02*
X0589688Y0163403D01*
X0589646Y0164189D02*
X0612043Y0164189D01*
X0612368Y0164975D02*
X0589320Y0164975D01*
X0588842Y0165761D02*
X0612847Y0165761D01*
X0613633Y0166547D02*
X0588056Y0166547D01*
X0588434Y0170477D02*
X0613255Y0170477D01*
X0612537Y0171263D02*
X0589151Y0171263D01*
X0589477Y0172048D02*
X0612212Y0172048D01*
X0612000Y0172834D02*
X0589688Y0172834D01*
X0589688Y0173620D02*
X0612000Y0173620D01*
X0612133Y0174406D02*
X0589556Y0174406D01*
X0589230Y0175192D02*
X0612458Y0175192D01*
X0613064Y0175978D02*
X0588625Y0175978D01*
X0587581Y0176764D02*
X0614108Y0176764D01*
X0617581Y0176764D02*
X0624108Y0176764D01*
X0623064Y0175978D02*
X0618625Y0175978D01*
X0619230Y0175192D02*
X0622458Y0175192D01*
X0622133Y0174406D02*
X0619556Y0174406D01*
X0619688Y0173620D02*
X0622000Y0173620D01*
X0622000Y0172834D02*
X0619688Y0172834D01*
X0619477Y0172048D02*
X0622212Y0172048D01*
X0622537Y0171263D02*
X0619151Y0171263D01*
X0618434Y0170477D02*
X0623255Y0170477D01*
X0624045Y0179908D02*
X0617643Y0179908D01*
X0618651Y0180693D02*
X0623038Y0180693D01*
X0622447Y0181479D02*
X0619241Y0181479D01*
X0619566Y0182265D02*
X0622122Y0182265D01*
X0622000Y0183051D02*
X0619688Y0183051D01*
X0619688Y0183837D02*
X0622000Y0183837D01*
X0622222Y0184623D02*
X0619466Y0184623D01*
X0619140Y0185409D02*
X0622548Y0185409D01*
X0623280Y0186195D02*
X0618408Y0186195D01*
X0618082Y0190124D02*
X0623607Y0190124D01*
X0623667Y0190064D02*
X0625080Y0189479D01*
X0626609Y0189479D01*
X0628021Y0190064D01*
X0629103Y0191146D01*
X0629688Y0192558D01*
X0629688Y0194087D01*
X0629103Y0195500D01*
X0628021Y0196581D01*
X0626609Y0197167D01*
X0625080Y0197167D01*
X0623667Y0196581D01*
X0622586Y0195500D01*
X0622000Y0194087D01*
X0622000Y0192558D01*
X0622586Y0191146D01*
X0623667Y0190064D01*
X0622821Y0190910D02*
X0618867Y0190910D01*
X0619331Y0191696D02*
X0622357Y0191696D01*
X0622032Y0192482D02*
X0619656Y0192482D01*
X0619688Y0193268D02*
X0622000Y0193268D01*
X0622000Y0194054D02*
X0619688Y0194054D01*
X0619376Y0194840D02*
X0622312Y0194840D01*
X0622711Y0195626D02*
X0618977Y0195626D01*
X0618191Y0196412D02*
X0623497Y0196412D01*
X0628191Y0196412D02*
X0643497Y0196412D01*
X0642711Y0195626D02*
X0628977Y0195626D01*
X0629376Y0194840D02*
X0642312Y0194840D01*
X0642000Y0194054D02*
X0629688Y0194054D01*
X0629688Y0193268D02*
X0642000Y0193268D01*
X0642032Y0192482D02*
X0629656Y0192482D01*
X0629331Y0191696D02*
X0642357Y0191696D01*
X0642821Y0190910D02*
X0628867Y0190910D01*
X0628082Y0190124D02*
X0643607Y0190124D01*
X0671672Y0189339D02*
X0678631Y0189339D01*
X0679357Y0189038D02*
X0680946Y0189038D01*
X0682413Y0189646D01*
X0683537Y0190769D01*
X0684145Y0192237D01*
X0684145Y0193826D01*
X0683537Y0195294D01*
X0682413Y0196417D01*
X0680946Y0197025D01*
X0679357Y0197025D01*
X0677889Y0196417D01*
X0676766Y0195294D01*
X0676158Y0193826D01*
X0676158Y0192237D01*
X0676766Y0190769D01*
X0677889Y0189646D01*
X0679357Y0189038D01*
X0677410Y0190124D02*
X0672892Y0190124D01*
X0673595Y0190910D02*
X0676707Y0190910D01*
X0676382Y0191696D02*
X0673921Y0191696D01*
X0674145Y0192482D02*
X0676158Y0192482D01*
X0676158Y0193268D02*
X0674145Y0193268D01*
X0674050Y0194054D02*
X0676252Y0194054D01*
X0676578Y0194840D02*
X0673725Y0194840D01*
X0673205Y0195626D02*
X0677098Y0195626D01*
X0677884Y0196412D02*
X0672419Y0196412D01*
X0682419Y0196412D02*
X0687884Y0196412D01*
X0687889Y0196417D02*
X0686766Y0195294D01*
X0686158Y0193826D01*
X0686158Y0192237D01*
X0686766Y0190769D01*
X0687889Y0189646D01*
X0689357Y0189038D01*
X0690946Y0189038D01*
X0692413Y0189646D01*
X0693537Y0190769D01*
X0694145Y0192237D01*
X0694145Y0193826D01*
X0693537Y0195294D01*
X0692413Y0196417D01*
X0690946Y0197025D01*
X0689357Y0197025D01*
X0687889Y0196417D01*
X0687098Y0195626D02*
X0683205Y0195626D01*
X0683725Y0194840D02*
X0686578Y0194840D01*
X0686252Y0194054D02*
X0684050Y0194054D01*
X0684145Y0193268D02*
X0686158Y0193268D01*
X0686158Y0192482D02*
X0684145Y0192482D01*
X0683921Y0191696D02*
X0686382Y0191696D01*
X0686707Y0190910D02*
X0683595Y0190910D01*
X0682892Y0190124D02*
X0687410Y0190124D01*
X0688631Y0189339D02*
X0681672Y0189339D01*
X0691672Y0189339D02*
X0698631Y0189339D01*
X0697410Y0190124D02*
X0692892Y0190124D01*
X0693595Y0190910D02*
X0696707Y0190910D01*
X0696382Y0191696D02*
X0693921Y0191696D01*
X0694145Y0192482D02*
X0696158Y0192482D01*
X0696158Y0193268D02*
X0694145Y0193268D01*
X0694050Y0194054D02*
X0696252Y0194054D01*
X0696578Y0194840D02*
X0693725Y0194840D01*
X0693205Y0195626D02*
X0697098Y0195626D01*
X0697884Y0196412D02*
X0692419Y0196412D01*
X0714910Y0196412D02*
X0717884Y0196412D01*
X0696318Y0210558D02*
X0516540Y0210558D01*
X0518263Y0206629D02*
X0583781Y0206629D01*
X0582928Y0205843D02*
X0518038Y0205843D01*
X0517712Y0205057D02*
X0582402Y0205057D01*
X0582076Y0204271D02*
X0517007Y0204271D01*
X0515782Y0203485D02*
X0582000Y0203485D01*
X0582000Y0202699D02*
X0500490Y0202699D01*
X0500490Y0203485D02*
X0512757Y0203485D01*
X0511532Y0204271D02*
X0500490Y0204271D01*
X0500490Y0205057D02*
X0510827Y0205057D01*
X0510501Y0205843D02*
X0500490Y0205843D01*
X0500490Y0206629D02*
X0510276Y0206629D01*
X0510276Y0207415D02*
X0500490Y0207415D01*
X0500490Y0208200D02*
X0510369Y0208200D01*
X0510694Y0208986D02*
X0500490Y0208986D01*
X0500490Y0209772D02*
X0511213Y0209772D01*
X0511998Y0210558D02*
X0500490Y0210558D01*
X0500490Y0211344D02*
X0695917Y0211344D01*
X0695917Y0212130D02*
X0500490Y0212130D01*
X0500490Y0212916D02*
X0696230Y0212916D01*
X0584108Y0176764D02*
X0500490Y0176764D01*
X0500490Y0175978D02*
X0583064Y0175978D01*
X0582458Y0175192D02*
X0500490Y0175192D01*
X0500490Y0174406D02*
X0582133Y0174406D01*
X0582000Y0173620D02*
X0500490Y0173620D01*
X0500490Y0172834D02*
X0582000Y0172834D01*
X0582212Y0172048D02*
X0500490Y0172048D01*
X0500490Y0171263D02*
X0582537Y0171263D01*
X0583255Y0170477D02*
X0540352Y0170477D01*
X0535430Y0170477D02*
X0500490Y0170477D01*
X0500490Y0169691D02*
X0533533Y0169691D01*
X0532034Y0168905D02*
X0500490Y0168905D01*
X0500490Y0168119D02*
X0531248Y0168119D01*
X0530462Y0167333D02*
X0500490Y0167333D01*
X0500490Y0166547D02*
X0529677Y0166547D01*
X0529275Y0165761D02*
X0500490Y0165761D01*
X0500490Y0164975D02*
X0528950Y0164975D01*
X0528624Y0164189D02*
X0500490Y0164189D01*
X0500490Y0163403D02*
X0528299Y0163403D01*
X0528049Y0162617D02*
X0500490Y0162617D01*
X0500490Y0161832D02*
X0528049Y0161832D01*
X0528049Y0161046D02*
X0500490Y0161046D01*
X0500490Y0160260D02*
X0528049Y0160260D01*
X0528049Y0159474D02*
X0500490Y0159474D01*
X0500490Y0158688D02*
X0528130Y0158688D01*
X0528456Y0157902D02*
X0500490Y0157902D01*
X0500490Y0157116D02*
X0528781Y0157116D01*
X0529107Y0156330D02*
X0500490Y0156330D01*
X0500490Y0155544D02*
X0529433Y0155544D01*
X0530056Y0154758D02*
X0500490Y0154758D01*
X0500490Y0153972D02*
X0530842Y0153972D01*
X0531628Y0153187D02*
X0500490Y0153187D01*
X0500490Y0152401D02*
X0532552Y0152401D01*
X0534450Y0151615D02*
X0500490Y0151615D01*
X0500490Y0150829D02*
X0582902Y0150829D01*
X0582391Y0151615D02*
X0541333Y0151615D01*
X0543231Y0152401D02*
X0582066Y0152401D01*
X0582000Y0153187D02*
X0544155Y0153187D01*
X0544941Y0153972D02*
X0582000Y0153972D01*
X0582278Y0154758D02*
X0545727Y0154758D01*
X0546350Y0155544D02*
X0582630Y0155544D01*
X0583416Y0156330D02*
X0546676Y0156330D01*
X0547001Y0157116D02*
X0584958Y0157116D01*
X0583471Y0160260D02*
X0547734Y0160260D01*
X0547734Y0161046D02*
X0582685Y0161046D01*
X0582301Y0161832D02*
X0547734Y0161832D01*
X0547734Y0162617D02*
X0582000Y0162617D01*
X0582000Y0163403D02*
X0547484Y0163403D01*
X0547159Y0164189D02*
X0582043Y0164189D01*
X0582368Y0164975D02*
X0546833Y0164975D01*
X0546507Y0165761D02*
X0582847Y0165761D01*
X0583633Y0166547D02*
X0546106Y0166547D01*
X0547734Y0159474D02*
X0823324Y0159474D01*
X0823406Y0158688D02*
X0547652Y0158688D01*
X0547327Y0157902D02*
X0823732Y0157902D01*
X0870569Y0150043D02*
X0671502Y0150043D01*
X0670684Y0149257D02*
X0870569Y0149257D01*
X0870569Y0148471D02*
X0500490Y0148471D01*
X0500490Y0147685D02*
X0870569Y0147685D01*
X0870569Y0146899D02*
X0647254Y0146899D01*
X0648489Y0146113D02*
X0870569Y0146113D01*
X0870569Y0145327D02*
X0649174Y0145327D01*
X0649500Y0144541D02*
X0870569Y0144541D01*
X0870569Y0143756D02*
X0649688Y0143756D01*
X0649688Y0142970D02*
X0870569Y0142970D01*
X0870569Y0142184D02*
X0649533Y0142184D01*
X0649207Y0141398D02*
X0870569Y0141398D01*
X0870569Y0140612D02*
X0648569Y0140612D01*
X0647446Y0139826D02*
X0870569Y0139826D01*
X0870569Y0126466D02*
X0743324Y0126466D01*
X0742888Y0126902D02*
X0741163Y0126902D01*
X0739943Y0125682D01*
X0739943Y0123956D01*
X0741163Y0122736D01*
X0742888Y0122736D01*
X0744108Y0123956D01*
X0744108Y0125682D01*
X0742888Y0126902D01*
X0744108Y0125680D02*
X0870569Y0125680D01*
X0870569Y0124894D02*
X0744108Y0124894D01*
X0744108Y0124108D02*
X0870420Y0124108D01*
X0869634Y0123322D02*
X0743474Y0123322D01*
X0740577Y0123322D02*
X0664599Y0123322D01*
X0664771Y0124108D02*
X0739943Y0124108D01*
X0739943Y0124894D02*
X0664699Y0124894D01*
X0664343Y0125680D02*
X0739943Y0125680D01*
X0740727Y0126466D02*
X0663354Y0126466D01*
X0664102Y0122536D02*
X0714021Y0122536D01*
X0716092Y0122536D02*
X0868848Y0122536D01*
X0868062Y0121750D02*
X0717091Y0121750D01*
X0717452Y0120964D02*
X0800846Y0120964D01*
X0802073Y0121472D02*
X0799179Y0120274D01*
X0796964Y0118059D01*
X0795765Y0115165D01*
X0795765Y0112032D01*
X0796964Y0109138D01*
X0799179Y0106923D01*
X0802073Y0105724D01*
X0805206Y0105724D01*
X0808100Y0106923D01*
X0810315Y0109138D01*
X0811513Y0112032D01*
X0811513Y0115165D01*
X0810315Y0118059D01*
X0808100Y0120274D01*
X0805206Y0121472D01*
X0802073Y0121472D01*
X0799084Y0120178D02*
X0717527Y0120178D01*
X0717358Y0119392D02*
X0798298Y0119392D01*
X0797512Y0118606D02*
X0716865Y0118606D01*
X0713248Y0118606D02*
X0506140Y0118606D01*
X0506926Y0117820D02*
X0527166Y0117820D01*
X0526991Y0117748D02*
X0525868Y0116625D01*
X0525260Y0115157D01*
X0525260Y0113568D01*
X0525868Y0112100D01*
X0526991Y0110977D01*
X0528459Y0110369D01*
X0530048Y0110369D01*
X0531516Y0110977D01*
X0532639Y0112100D01*
X0533247Y0113568D01*
X0533247Y0115157D01*
X0532639Y0116625D01*
X0531516Y0117748D01*
X0530048Y0118356D01*
X0528459Y0118356D01*
X0526991Y0117748D01*
X0526277Y0117035D02*
X0507712Y0117035D01*
X0508498Y0116249D02*
X0525712Y0116249D01*
X0525386Y0115463D02*
X0509283Y0115463D01*
X0510069Y0114677D02*
X0525260Y0114677D01*
X0525260Y0113891D02*
X0510855Y0113891D01*
X0511641Y0113105D02*
X0525451Y0113105D01*
X0525777Y0112319D02*
X0512427Y0112319D01*
X0513213Y0111533D02*
X0526435Y0111533D01*
X0527545Y0110747D02*
X0513999Y0110747D01*
X0514785Y0109961D02*
X0533346Y0109961D01*
X0532939Y0109554D02*
X0532331Y0108086D01*
X0532331Y0106497D01*
X0532939Y0105029D01*
X0534062Y0103906D01*
X0535530Y0103298D01*
X0537119Y0103298D01*
X0538587Y0103906D01*
X0539710Y0105029D01*
X0540318Y0106497D01*
X0540318Y0108086D01*
X0539710Y0109554D01*
X0538587Y0110677D01*
X0537119Y0111285D01*
X0535530Y0111285D01*
X0534062Y0110677D01*
X0532939Y0109554D01*
X0532782Y0109175D02*
X0515571Y0109175D01*
X0516357Y0108390D02*
X0532456Y0108390D01*
X0532331Y0107604D02*
X0517143Y0107604D01*
X0517928Y0106818D02*
X0532331Y0106818D01*
X0532523Y0106032D02*
X0518714Y0106032D01*
X0519500Y0105246D02*
X0532849Y0105246D01*
X0533508Y0104460D02*
X0520286Y0104460D01*
X0521072Y0103674D02*
X0534621Y0103674D01*
X0538027Y0103674D02*
X0541297Y0103674D01*
X0541133Y0103606D02*
X0540010Y0102483D01*
X0539402Y0101015D01*
X0539402Y0099426D01*
X0540010Y0097958D01*
X0541133Y0096835D01*
X0542601Y0096227D01*
X0544190Y0096227D01*
X0545658Y0096835D01*
X0546781Y0097958D01*
X0547389Y0099426D01*
X0547389Y0101015D01*
X0546781Y0102483D01*
X0545658Y0103606D01*
X0544190Y0104214D01*
X0542601Y0104214D01*
X0541133Y0103606D01*
X0540415Y0102888D02*
X0521858Y0102888D01*
X0522644Y0102102D02*
X0539852Y0102102D01*
X0539527Y0101316D02*
X0523430Y0101316D01*
X0524216Y0100530D02*
X0539402Y0100530D01*
X0539402Y0099744D02*
X0525002Y0099744D01*
X0525788Y0098959D02*
X0539595Y0098959D01*
X0539921Y0098173D02*
X0526573Y0098173D01*
X0527359Y0097387D02*
X0540581Y0097387D01*
X0541698Y0096601D02*
X0528145Y0096601D01*
X0528931Y0095815D02*
X0547484Y0095815D01*
X0547081Y0095412D02*
X0546473Y0093944D01*
X0546473Y0092355D01*
X0547081Y0090887D01*
X0548204Y0089764D01*
X0549672Y0089156D01*
X0551261Y0089156D01*
X0552729Y0089764D01*
X0553852Y0090887D01*
X0554460Y0092355D01*
X0554460Y0093944D01*
X0553852Y0095412D01*
X0552729Y0096535D01*
X0551261Y0097143D01*
X0549672Y0097143D01*
X0548204Y0096535D01*
X0547081Y0095412D01*
X0546922Y0095029D02*
X0529717Y0095029D01*
X0530503Y0094243D02*
X0546597Y0094243D01*
X0546473Y0093457D02*
X0531289Y0093457D01*
X0532075Y0092671D02*
X0546473Y0092671D01*
X0546667Y0091885D02*
X0532861Y0091885D01*
X0533647Y0091099D02*
X0546993Y0091099D01*
X0547654Y0090314D02*
X0534433Y0090314D01*
X0535219Y0089528D02*
X0548774Y0089528D01*
X0552159Y0089528D02*
X0584963Y0089528D01*
X0585080Y0089479D02*
X0586609Y0089479D01*
X0588021Y0090064D01*
X0589103Y0091146D01*
X0589688Y0092558D01*
X0589688Y0094087D01*
X0589103Y0095500D01*
X0588021Y0096581D01*
X0586609Y0097167D01*
X0585080Y0097167D01*
X0583667Y0096581D01*
X0582586Y0095500D01*
X0582000Y0094087D01*
X0582000Y0092558D01*
X0582586Y0091146D01*
X0583667Y0090064D01*
X0585080Y0089479D01*
X0586726Y0089528D02*
X0644963Y0089528D01*
X0645080Y0089479D02*
X0646609Y0089479D01*
X0648021Y0090064D01*
X0649103Y0091146D01*
X0649688Y0092558D01*
X0649688Y0094087D01*
X0649103Y0095500D01*
X0648021Y0096581D01*
X0646609Y0097167D01*
X0645080Y0097167D01*
X0643667Y0096581D01*
X0642586Y0095500D01*
X0642000Y0094087D01*
X0642000Y0092558D01*
X0642586Y0091146D01*
X0643667Y0090064D01*
X0645080Y0089479D01*
X0646726Y0089528D02*
X0816931Y0089528D01*
X0816361Y0089764D02*
X0817829Y0089156D01*
X0819418Y0089156D01*
X0820886Y0089764D01*
X0822009Y0090887D01*
X0822617Y0092355D01*
X0822617Y0093944D01*
X0822009Y0095412D01*
X0820886Y0096535D01*
X0819418Y0097143D01*
X0817829Y0097143D01*
X0816361Y0096535D01*
X0815238Y0095412D01*
X0814630Y0093944D01*
X0814630Y0092355D01*
X0815238Y0090887D01*
X0816361Y0089764D01*
X0815811Y0090314D02*
X0678897Y0090314D01*
X0678440Y0090124D02*
X0679891Y0090725D01*
X0681001Y0091835D01*
X0681602Y0093286D01*
X0681602Y0094856D01*
X0681001Y0096306D01*
X0679891Y0097416D01*
X0678440Y0098017D01*
X0676870Y0098017D01*
X0675420Y0097416D01*
X0674310Y0096306D01*
X0673709Y0094856D01*
X0673709Y0093286D01*
X0674310Y0091835D01*
X0675420Y0090725D01*
X0676870Y0090124D01*
X0678440Y0090124D01*
X0676414Y0090314D02*
X0648271Y0090314D01*
X0649057Y0091099D02*
X0675045Y0091099D01*
X0674289Y0091885D02*
X0649409Y0091885D01*
X0649688Y0092671D02*
X0673963Y0092671D01*
X0673709Y0093457D02*
X0649688Y0093457D01*
X0649623Y0094243D02*
X0673709Y0094243D01*
X0673780Y0095029D02*
X0649298Y0095029D01*
X0648788Y0095815D02*
X0674106Y0095815D01*
X0674604Y0096601D02*
X0647974Y0096601D01*
X0646609Y0099479D02*
X0648021Y0100064D01*
X0649103Y0101146D01*
X0649688Y0102558D01*
X0649688Y0104087D01*
X0649103Y0105500D01*
X0648021Y0106581D01*
X0646609Y0107167D01*
X0645080Y0107167D01*
X0643667Y0106581D01*
X0642586Y0105500D01*
X0642000Y0104087D01*
X0642000Y0102558D01*
X0642586Y0101146D01*
X0643667Y0100064D01*
X0645080Y0099479D01*
X0646609Y0099479D01*
X0647249Y0099744D02*
X0821701Y0099744D01*
X0821701Y0099426D02*
X0822309Y0097958D01*
X0823432Y0096835D01*
X0824900Y0096227D01*
X0826489Y0096227D01*
X0827957Y0096835D01*
X0829080Y0097958D01*
X0829688Y0099426D01*
X0829688Y0101015D01*
X0829080Y0102483D01*
X0827957Y0103606D01*
X0826489Y0104214D01*
X0824900Y0104214D01*
X0823432Y0103606D01*
X0822309Y0102483D01*
X0821701Y0101015D01*
X0821701Y0099426D01*
X0821894Y0098959D02*
X0547196Y0098959D01*
X0547389Y0099744D02*
X0584439Y0099744D01*
X0585080Y0099479D02*
X0586609Y0099479D01*
X0588021Y0100064D01*
X0589103Y0101146D01*
X0589688Y0102558D01*
X0589688Y0104087D01*
X0589103Y0105500D01*
X0588021Y0106581D01*
X0586609Y0107167D01*
X0585080Y0107167D01*
X0583667Y0106581D01*
X0582586Y0105500D01*
X0582000Y0104087D01*
X0582000Y0102558D01*
X0582586Y0101146D01*
X0583667Y0100064D01*
X0585080Y0099479D01*
X0583201Y0100530D02*
X0547389Y0100530D01*
X0547264Y0101316D02*
X0582515Y0101316D01*
X0582189Y0102102D02*
X0546939Y0102102D01*
X0546376Y0102888D02*
X0582000Y0102888D01*
X0582000Y0103674D02*
X0545494Y0103674D01*
X0546870Y0098173D02*
X0822220Y0098173D01*
X0822880Y0097387D02*
X0679920Y0097387D01*
X0680706Y0096601D02*
X0816520Y0096601D01*
X0815641Y0095815D02*
X0681204Y0095815D01*
X0681530Y0095029D02*
X0815079Y0095029D01*
X0814754Y0094243D02*
X0681602Y0094243D01*
X0681602Y0093457D02*
X0814630Y0093457D01*
X0814630Y0092671D02*
X0681347Y0092671D01*
X0681022Y0091885D02*
X0814824Y0091885D01*
X0815150Y0091099D02*
X0680265Y0091099D01*
X0675390Y0097387D02*
X0546210Y0097387D01*
X0545093Y0096601D02*
X0548363Y0096601D01*
X0552570Y0096601D02*
X0583714Y0096601D01*
X0582900Y0095815D02*
X0553449Y0095815D01*
X0554011Y0095029D02*
X0582390Y0095029D01*
X0582065Y0094243D02*
X0554336Y0094243D01*
X0554460Y0093457D02*
X0582000Y0093457D01*
X0582000Y0092671D02*
X0554460Y0092671D01*
X0554266Y0091885D02*
X0582279Y0091885D01*
X0582632Y0091099D02*
X0553940Y0091099D01*
X0553279Y0090314D02*
X0583418Y0090314D01*
X0585080Y0087167D02*
X0583667Y0086581D01*
X0582586Y0085500D01*
X0582000Y0084087D01*
X0582000Y0082558D01*
X0582586Y0081146D01*
X0583667Y0080064D01*
X0585080Y0079479D01*
X0586609Y0079479D01*
X0588021Y0080064D01*
X0589103Y0081146D01*
X0589688Y0082558D01*
X0589688Y0084087D01*
X0589103Y0085500D01*
X0588021Y0086581D01*
X0586609Y0087167D01*
X0585080Y0087167D01*
X0583469Y0086384D02*
X0538362Y0086384D01*
X0537576Y0087170D02*
X0833482Y0087170D01*
X0834268Y0087956D02*
X0536790Y0087956D01*
X0536004Y0088742D02*
X0835054Y0088742D01*
X0835840Y0089528D02*
X0820316Y0089528D01*
X0821436Y0090314D02*
X0836626Y0090314D01*
X0837412Y0091099D02*
X0822097Y0091099D01*
X0822423Y0091885D02*
X0838198Y0091885D01*
X0838983Y0092671D02*
X0822617Y0092671D01*
X0822617Y0093457D02*
X0839769Y0093457D01*
X0840555Y0094243D02*
X0822493Y0094243D01*
X0822168Y0095029D02*
X0841341Y0095029D01*
X0842127Y0095815D02*
X0821606Y0095815D01*
X0820727Y0096601D02*
X0823997Y0096601D01*
X0827392Y0096601D02*
X0842913Y0096601D01*
X0843699Y0097387D02*
X0828509Y0097387D01*
X0829169Y0098173D02*
X0844485Y0098173D01*
X0845271Y0098959D02*
X0829495Y0098959D01*
X0829688Y0099744D02*
X0846057Y0099744D01*
X0846843Y0100530D02*
X0829688Y0100530D01*
X0829563Y0101316D02*
X0847629Y0101316D01*
X0848414Y0102102D02*
X0829238Y0102102D01*
X0828675Y0102888D02*
X0849200Y0102888D01*
X0849986Y0103674D02*
X0834468Y0103674D01*
X0835028Y0103906D02*
X0836151Y0105029D01*
X0836759Y0106497D01*
X0836759Y0108086D01*
X0836151Y0109554D01*
X0835028Y0110677D01*
X0833560Y0111285D01*
X0831971Y0111285D01*
X0830503Y0110677D01*
X0829380Y0109554D01*
X0828772Y0108086D01*
X0828772Y0106497D01*
X0829380Y0105029D01*
X0830503Y0103906D01*
X0831971Y0103298D01*
X0833560Y0103298D01*
X0835028Y0103906D01*
X0835582Y0104460D02*
X0850772Y0104460D01*
X0851558Y0105246D02*
X0836241Y0105246D01*
X0836566Y0106032D02*
X0852344Y0106032D01*
X0853130Y0106818D02*
X0836759Y0106818D01*
X0836759Y0107604D02*
X0853916Y0107604D01*
X0854702Y0108390D02*
X0836633Y0108390D01*
X0836308Y0109175D02*
X0855488Y0109175D01*
X0856274Y0109961D02*
X0835744Y0109961D01*
X0834858Y0110747D02*
X0838129Y0110747D01*
X0837574Y0110977D02*
X0839042Y0110369D01*
X0840631Y0110369D01*
X0842099Y0110977D01*
X0843222Y0112100D01*
X0843830Y0113568D01*
X0843830Y0115157D01*
X0843222Y0116625D01*
X0842099Y0117748D01*
X0840631Y0118356D01*
X0839042Y0118356D01*
X0837574Y0117748D01*
X0836451Y0116625D01*
X0835843Y0115157D01*
X0835843Y0113568D01*
X0836451Y0112100D01*
X0837574Y0110977D01*
X0837018Y0111533D02*
X0811307Y0111533D01*
X0811513Y0112319D02*
X0836360Y0112319D01*
X0836035Y0113105D02*
X0811513Y0113105D01*
X0811513Y0113891D02*
X0835843Y0113891D01*
X0835843Y0114677D02*
X0811513Y0114677D01*
X0811390Y0115463D02*
X0835970Y0115463D01*
X0836295Y0116249D02*
X0811064Y0116249D01*
X0810739Y0117035D02*
X0836861Y0117035D01*
X0837749Y0117820D02*
X0810413Y0117820D01*
X0809767Y0118606D02*
X0864919Y0118606D01*
X0865705Y0119392D02*
X0808981Y0119392D01*
X0808195Y0120178D02*
X0866490Y0120178D01*
X0867276Y0120964D02*
X0806433Y0120964D01*
X0796865Y0117820D02*
X0531341Y0117820D01*
X0532229Y0117035D02*
X0584761Y0117035D01*
X0585080Y0117167D02*
X0583667Y0116581D01*
X0582586Y0115500D01*
X0582000Y0114087D01*
X0582000Y0112558D01*
X0582586Y0111146D01*
X0583667Y0110064D01*
X0585080Y0109479D01*
X0586609Y0109479D01*
X0588021Y0110064D01*
X0589103Y0111146D01*
X0589688Y0112558D01*
X0589688Y0114087D01*
X0589103Y0115500D01*
X0588021Y0116581D01*
X0586609Y0117167D01*
X0585080Y0117167D01*
X0586927Y0117035D02*
X0634761Y0117035D01*
X0635080Y0117167D02*
X0633667Y0116581D01*
X0632586Y0115500D01*
X0632000Y0114087D01*
X0632000Y0112558D01*
X0632586Y0111146D01*
X0633667Y0110064D01*
X0635080Y0109479D01*
X0636609Y0109479D01*
X0638021Y0110064D01*
X0639103Y0111146D01*
X0639688Y0112558D01*
X0639688Y0114087D01*
X0639103Y0115500D01*
X0638021Y0116581D01*
X0636609Y0117167D01*
X0635080Y0117167D01*
X0636927Y0117035D02*
X0644761Y0117035D01*
X0645080Y0117167D02*
X0643667Y0116581D01*
X0642586Y0115500D01*
X0642000Y0114087D01*
X0642000Y0112558D01*
X0642586Y0111146D01*
X0643667Y0110064D01*
X0645080Y0109479D01*
X0646609Y0109479D01*
X0648021Y0110064D01*
X0649103Y0111146D01*
X0649688Y0112558D01*
X0649688Y0114087D01*
X0649103Y0115500D01*
X0648021Y0116581D01*
X0646609Y0117167D01*
X0645080Y0117167D01*
X0646927Y0117035D02*
X0796540Y0117035D01*
X0796214Y0116249D02*
X0648354Y0116249D01*
X0649118Y0115463D02*
X0795889Y0115463D01*
X0795765Y0114677D02*
X0776073Y0114677D01*
X0775726Y0114820D02*
X0772891Y0114820D01*
X0770271Y0113735D01*
X0768266Y0111730D01*
X0767181Y0109111D01*
X0767181Y0106275D01*
X0768266Y0103655D01*
X0770271Y0101650D01*
X0772891Y0100565D01*
X0775726Y0100565D01*
X0778346Y0101650D01*
X0780351Y0103655D01*
X0781436Y0106275D01*
X0781436Y0109111D01*
X0780351Y0111730D01*
X0778346Y0113735D01*
X0775726Y0114820D01*
X0777971Y0113891D02*
X0795765Y0113891D01*
X0795765Y0113105D02*
X0778977Y0113105D01*
X0779762Y0112319D02*
X0795765Y0112319D01*
X0795972Y0111533D02*
X0780433Y0111533D01*
X0780758Y0110747D02*
X0796298Y0110747D01*
X0796623Y0109961D02*
X0781084Y0109961D01*
X0781409Y0109175D02*
X0796949Y0109175D01*
X0797713Y0108390D02*
X0781436Y0108390D01*
X0781436Y0107604D02*
X0798499Y0107604D01*
X0799434Y0106818D02*
X0781436Y0106818D01*
X0781335Y0106032D02*
X0801331Y0106032D01*
X0805948Y0106032D02*
X0828965Y0106032D01*
X0828772Y0106818D02*
X0807845Y0106818D01*
X0808780Y0107604D02*
X0828772Y0107604D01*
X0828898Y0108390D02*
X0809566Y0108390D01*
X0810330Y0109175D02*
X0829223Y0109175D01*
X0829787Y0109961D02*
X0810656Y0109961D01*
X0810981Y0110747D02*
X0830673Y0110747D01*
X0829290Y0105246D02*
X0781010Y0105246D01*
X0780684Y0104460D02*
X0829949Y0104460D01*
X0831063Y0103674D02*
X0827793Y0103674D01*
X0823596Y0103674D02*
X0780359Y0103674D01*
X0779584Y0102888D02*
X0822714Y0102888D01*
X0822151Y0102102D02*
X0778798Y0102102D01*
X0777539Y0101316D02*
X0821826Y0101316D01*
X0821701Y0100530D02*
X0648488Y0100530D01*
X0649173Y0101316D02*
X0727377Y0101316D01*
X0726570Y0101650D02*
X0729190Y0100565D01*
X0732026Y0100565D01*
X0734645Y0101650D01*
X0736650Y0103655D01*
X0737735Y0106275D01*
X0737735Y0109111D01*
X0736650Y0111730D01*
X0734645Y0113735D01*
X0732026Y0114820D01*
X0729190Y0114820D01*
X0726570Y0113735D01*
X0724565Y0111730D01*
X0723480Y0109111D01*
X0723480Y0106275D01*
X0724565Y0103655D01*
X0726570Y0101650D01*
X0726119Y0102102D02*
X0649499Y0102102D01*
X0649688Y0102888D02*
X0725333Y0102888D01*
X0724558Y0103674D02*
X0649688Y0103674D01*
X0649534Y0104460D02*
X0724232Y0104460D01*
X0723907Y0105246D02*
X0649208Y0105246D01*
X0648571Y0106032D02*
X0723581Y0106032D01*
X0723480Y0106818D02*
X0647451Y0106818D01*
X0647773Y0109961D02*
X0723833Y0109961D01*
X0723507Y0109175D02*
X0539867Y0109175D01*
X0540192Y0108390D02*
X0723480Y0108390D01*
X0723480Y0107604D02*
X0540318Y0107604D01*
X0540318Y0106818D02*
X0584237Y0106818D01*
X0583117Y0106032D02*
X0540125Y0106032D01*
X0539800Y0105246D02*
X0582480Y0105246D01*
X0582155Y0104460D02*
X0539141Y0104460D01*
X0539302Y0109961D02*
X0583915Y0109961D01*
X0582984Y0110747D02*
X0538417Y0110747D01*
X0534231Y0110747D02*
X0530961Y0110747D01*
X0532072Y0111533D02*
X0582425Y0111533D01*
X0582100Y0112319D02*
X0532730Y0112319D01*
X0533055Y0113105D02*
X0582000Y0113105D01*
X0582000Y0113891D02*
X0533247Y0113891D01*
X0533247Y0114677D02*
X0582245Y0114677D01*
X0582570Y0115463D02*
X0533120Y0115463D01*
X0532795Y0116249D02*
X0583334Y0116249D01*
X0588354Y0116249D02*
X0633334Y0116249D01*
X0632570Y0115463D02*
X0589118Y0115463D01*
X0589444Y0114677D02*
X0632245Y0114677D01*
X0632000Y0113891D02*
X0589688Y0113891D01*
X0589688Y0113105D02*
X0632000Y0113105D01*
X0632100Y0112319D02*
X0589589Y0112319D01*
X0589263Y0111533D02*
X0632425Y0111533D01*
X0632984Y0110747D02*
X0588704Y0110747D01*
X0587773Y0109961D02*
X0633915Y0109961D01*
X0637773Y0109961D02*
X0643915Y0109961D01*
X0642984Y0110747D02*
X0638704Y0110747D01*
X0639263Y0111533D02*
X0642425Y0111533D01*
X0642100Y0112319D02*
X0639589Y0112319D01*
X0639688Y0113105D02*
X0642000Y0113105D01*
X0642000Y0113891D02*
X0639688Y0113891D01*
X0639444Y0114677D02*
X0642245Y0114677D01*
X0642570Y0115463D02*
X0639118Y0115463D01*
X0638354Y0116249D02*
X0643334Y0116249D01*
X0643553Y0120178D02*
X0638135Y0120178D01*
X0638021Y0120064D02*
X0639103Y0121146D01*
X0639688Y0122558D01*
X0639688Y0124087D01*
X0639103Y0125500D01*
X0638021Y0126581D01*
X0636609Y0127167D01*
X0635080Y0127167D01*
X0633667Y0126581D01*
X0632586Y0125500D01*
X0632000Y0124087D01*
X0632000Y0122558D01*
X0632586Y0121146D01*
X0633667Y0120064D01*
X0635080Y0119479D01*
X0636609Y0119479D01*
X0638021Y0120064D01*
X0638921Y0120964D02*
X0642767Y0120964D01*
X0642335Y0121750D02*
X0639353Y0121750D01*
X0639679Y0122536D02*
X0642010Y0122536D01*
X0642000Y0123322D02*
X0639688Y0123322D01*
X0639679Y0124108D02*
X0642009Y0124108D01*
X0642334Y0124894D02*
X0639354Y0124894D01*
X0638923Y0125680D02*
X0642765Y0125680D01*
X0643551Y0126466D02*
X0638137Y0126466D01*
X0633551Y0126466D02*
X0588137Y0126466D01*
X0588923Y0125680D02*
X0632765Y0125680D01*
X0632334Y0124894D02*
X0589354Y0124894D01*
X0589679Y0124108D02*
X0632009Y0124108D01*
X0632000Y0123322D02*
X0589688Y0123322D01*
X0589679Y0122536D02*
X0632010Y0122536D01*
X0632335Y0121750D02*
X0589353Y0121750D01*
X0588921Y0120964D02*
X0632767Y0120964D01*
X0633553Y0120178D02*
X0588135Y0120178D01*
X0587451Y0106818D02*
X0644237Y0106818D01*
X0643117Y0106032D02*
X0588571Y0106032D01*
X0589208Y0105246D02*
X0642480Y0105246D01*
X0642155Y0104460D02*
X0589534Y0104460D01*
X0589688Y0103674D02*
X0642000Y0103674D01*
X0642000Y0102888D02*
X0589688Y0102888D01*
X0589499Y0102102D02*
X0642189Y0102102D01*
X0642515Y0101316D02*
X0589173Y0101316D01*
X0588488Y0100530D02*
X0643201Y0100530D01*
X0644439Y0099744D02*
X0587249Y0099744D01*
X0587974Y0096601D02*
X0643714Y0096601D01*
X0642900Y0095815D02*
X0588788Y0095815D01*
X0589298Y0095029D02*
X0642390Y0095029D01*
X0642065Y0094243D02*
X0589623Y0094243D01*
X0589688Y0093457D02*
X0642000Y0093457D01*
X0642000Y0092671D02*
X0589688Y0092671D01*
X0589409Y0091885D02*
X0642279Y0091885D01*
X0642632Y0091099D02*
X0589057Y0091099D01*
X0588271Y0090314D02*
X0643418Y0090314D01*
X0645080Y0087167D02*
X0643667Y0086581D01*
X0642586Y0085500D01*
X0642000Y0084087D01*
X0642000Y0082558D01*
X0642586Y0081146D01*
X0643667Y0080064D01*
X0645080Y0079479D01*
X0646609Y0079479D01*
X0648021Y0080064D01*
X0649103Y0081146D01*
X0649688Y0082558D01*
X0649688Y0084087D01*
X0649103Y0085500D01*
X0648021Y0086581D01*
X0646609Y0087167D01*
X0645080Y0087167D01*
X0643469Y0086384D02*
X0588219Y0086384D01*
X0589005Y0085598D02*
X0642684Y0085598D01*
X0642301Y0084812D02*
X0589388Y0084812D01*
X0589688Y0084026D02*
X0642000Y0084026D01*
X0642000Y0083240D02*
X0589688Y0083240D01*
X0589645Y0082454D02*
X0642043Y0082454D01*
X0642369Y0081668D02*
X0589319Y0081668D01*
X0588840Y0080883D02*
X0642849Y0080883D01*
X0643635Y0080097D02*
X0588054Y0080097D01*
X0583635Y0080097D02*
X0544649Y0080097D01*
X0543864Y0080883D02*
X0582849Y0080883D01*
X0582369Y0081668D02*
X0543078Y0081668D01*
X0542292Y0082454D02*
X0582043Y0082454D01*
X0582000Y0083240D02*
X0541506Y0083240D01*
X0540720Y0084026D02*
X0582000Y0084026D01*
X0582301Y0084812D02*
X0539934Y0084812D01*
X0539148Y0085598D02*
X0582684Y0085598D01*
X0550151Y0074595D02*
X0642211Y0074595D01*
X0642000Y0074087D02*
X0642586Y0075500D01*
X0643667Y0076581D01*
X0645080Y0077167D01*
X0646609Y0077167D01*
X0648021Y0076581D01*
X0649103Y0075500D01*
X0649688Y0074087D01*
X0649688Y0072558D01*
X0649103Y0071146D01*
X0648021Y0070064D01*
X0646609Y0069479D01*
X0645080Y0069479D01*
X0643667Y0070064D01*
X0642586Y0071146D01*
X0642000Y0072558D01*
X0642000Y0074087D01*
X0642000Y0073809D02*
X0550937Y0073809D01*
X0551723Y0073023D02*
X0642000Y0073023D01*
X0642133Y0072238D02*
X0552509Y0072238D01*
X0553295Y0071452D02*
X0642459Y0071452D01*
X0643065Y0070666D02*
X0554080Y0070666D01*
X0554866Y0069880D02*
X0644112Y0069880D01*
X0647576Y0069880D02*
X0816192Y0069880D01*
X0816978Y0070666D02*
X0648623Y0070666D01*
X0649229Y0071452D02*
X0817764Y0071452D01*
X0818550Y0072238D02*
X0649555Y0072238D01*
X0649688Y0073023D02*
X0819336Y0073023D01*
X0820122Y0073809D02*
X0661951Y0073809D01*
X0661780Y0073639D02*
X0662891Y0074749D01*
X0663491Y0076199D01*
X0663491Y0077769D01*
X0662891Y0079220D01*
X0661780Y0080330D01*
X0660330Y0080931D01*
X0658760Y0080931D01*
X0657309Y0080330D01*
X0656199Y0079220D01*
X0655598Y0077769D01*
X0655598Y0076199D01*
X0656199Y0074749D01*
X0657309Y0073639D01*
X0658760Y0073038D01*
X0660330Y0073038D01*
X0661780Y0073639D01*
X0662737Y0074595D02*
X0740187Y0074595D01*
X0740213Y0074569D02*
X0741772Y0073924D01*
X0743460Y0073924D01*
X0745019Y0074569D01*
X0746212Y0075763D01*
X0746858Y0077322D01*
X0746858Y0079009D01*
X0746212Y0080568D01*
X0745019Y0081761D01*
X0743460Y0082407D01*
X0741772Y0082407D01*
X0740213Y0081761D01*
X0739020Y0080568D01*
X0738374Y0079009D01*
X0738374Y0077322D01*
X0739020Y0075763D01*
X0740213Y0074569D01*
X0739401Y0075381D02*
X0663153Y0075381D01*
X0663478Y0076167D02*
X0738852Y0076167D01*
X0738527Y0076953D02*
X0663491Y0076953D01*
X0663491Y0077739D02*
X0691124Y0077739D01*
X0691217Y0077646D02*
X0692124Y0077270D01*
X0693107Y0077270D01*
X0694015Y0077646D01*
X0694710Y0078341D01*
X0695086Y0079249D01*
X0695086Y0080231D01*
X0694710Y0081139D01*
X0694015Y0081834D01*
X0693107Y0082210D01*
X0692124Y0082210D01*
X0691217Y0081834D01*
X0690522Y0081139D01*
X0690146Y0080231D01*
X0690146Y0079249D01*
X0690522Y0078341D01*
X0691217Y0077646D01*
X0690446Y0078525D02*
X0663178Y0078525D01*
X0662800Y0079311D02*
X0690146Y0079311D01*
X0690146Y0080097D02*
X0662014Y0080097D01*
X0660446Y0080883D02*
X0690415Y0080883D01*
X0691051Y0081668D02*
X0649319Y0081668D01*
X0649645Y0082454D02*
X0724120Y0082454D01*
X0724287Y0082622D02*
X0723593Y0081927D01*
X0723217Y0081019D01*
X0723217Y0080036D01*
X0723593Y0079128D01*
X0724287Y0078434D01*
X0725195Y0078057D01*
X0726178Y0078057D01*
X0727086Y0078434D01*
X0727781Y0079128D01*
X0728157Y0080036D01*
X0728157Y0081019D01*
X0727781Y0081927D01*
X0727086Y0082622D01*
X0726178Y0082998D01*
X0725195Y0082998D01*
X0724287Y0082622D01*
X0723486Y0081668D02*
X0694181Y0081668D01*
X0694816Y0080883D02*
X0723217Y0080883D01*
X0723217Y0080097D02*
X0695086Y0080097D01*
X0695086Y0079311D02*
X0723517Y0079311D01*
X0724196Y0078525D02*
X0694786Y0078525D01*
X0694108Y0077739D02*
X0738374Y0077739D01*
X0738374Y0078525D02*
X0727177Y0078525D01*
X0727856Y0079311D02*
X0738499Y0079311D01*
X0738825Y0080097D02*
X0728157Y0080097D01*
X0728157Y0080883D02*
X0739334Y0080883D01*
X0740120Y0081668D02*
X0727888Y0081668D01*
X0727253Y0082454D02*
X0828767Y0082454D01*
X0827981Y0081668D02*
X0764796Y0081668D01*
X0764704Y0081761D02*
X0763145Y0082407D01*
X0761457Y0082407D01*
X0759898Y0081761D01*
X0758705Y0080568D01*
X0758059Y0079009D01*
X0758059Y0077322D01*
X0758705Y0075763D01*
X0759898Y0074569D01*
X0761457Y0073924D01*
X0763145Y0073924D01*
X0764704Y0074569D01*
X0765897Y0075763D01*
X0766543Y0077322D01*
X0766543Y0079009D01*
X0765897Y0080568D01*
X0764704Y0081761D01*
X0765582Y0080883D02*
X0827195Y0080883D01*
X0826409Y0080097D02*
X0766092Y0080097D01*
X0766418Y0079311D02*
X0825623Y0079311D01*
X0824837Y0078525D02*
X0766543Y0078525D01*
X0766543Y0077739D02*
X0824051Y0077739D01*
X0823265Y0076953D02*
X0766390Y0076953D01*
X0766064Y0076167D02*
X0822479Y0076167D01*
X0821693Y0075381D02*
X0765515Y0075381D01*
X0764729Y0074595D02*
X0820907Y0074595D01*
X0815406Y0069094D02*
X0555652Y0069094D01*
X0556438Y0068308D02*
X0814620Y0068308D01*
X0813834Y0067522D02*
X0557224Y0067522D01*
X0558010Y0066736D02*
X0813048Y0066736D01*
X0812262Y0065950D02*
X0558796Y0065950D01*
X0559582Y0065164D02*
X0811477Y0065164D01*
X0759872Y0074595D02*
X0745044Y0074595D01*
X0745830Y0075381D02*
X0759086Y0075381D01*
X0758537Y0076167D02*
X0746379Y0076167D01*
X0746705Y0076953D02*
X0758212Y0076953D01*
X0758059Y0077739D02*
X0746858Y0077739D01*
X0746858Y0078525D02*
X0758059Y0078525D01*
X0758184Y0079311D02*
X0746733Y0079311D01*
X0746407Y0080097D02*
X0758510Y0080097D01*
X0759019Y0080883D02*
X0745897Y0080883D01*
X0745111Y0081668D02*
X0759805Y0081668D01*
X0829553Y0083240D02*
X0649688Y0083240D01*
X0649688Y0084026D02*
X0830338Y0084026D01*
X0831124Y0084812D02*
X0649388Y0084812D01*
X0649005Y0085598D02*
X0831910Y0085598D01*
X0832696Y0086384D02*
X0648219Y0086384D01*
X0648840Y0080883D02*
X0658644Y0080883D01*
X0657076Y0080097D02*
X0648054Y0080097D01*
X0647124Y0076953D02*
X0655598Y0076953D01*
X0655598Y0077739D02*
X0547007Y0077739D01*
X0546221Y0078525D02*
X0655911Y0078525D01*
X0656290Y0079311D02*
X0545435Y0079311D01*
X0547793Y0076953D02*
X0644564Y0076953D01*
X0643253Y0076167D02*
X0548579Y0076167D01*
X0549365Y0075381D02*
X0642536Y0075381D01*
X0648436Y0076167D02*
X0655612Y0076167D01*
X0655937Y0075381D02*
X0649152Y0075381D01*
X0649477Y0074595D02*
X0656353Y0074595D01*
X0657139Y0073809D02*
X0649688Y0073809D01*
X0733839Y0101316D02*
X0771078Y0101316D01*
X0769820Y0102102D02*
X0735097Y0102102D01*
X0735883Y0102888D02*
X0769034Y0102888D01*
X0768259Y0103674D02*
X0736658Y0103674D01*
X0736984Y0104460D02*
X0767933Y0104460D01*
X0767608Y0105246D02*
X0737309Y0105246D01*
X0737635Y0106032D02*
X0767282Y0106032D01*
X0767181Y0106818D02*
X0737735Y0106818D01*
X0737735Y0107604D02*
X0767181Y0107604D01*
X0767181Y0108390D02*
X0737735Y0108390D01*
X0737709Y0109175D02*
X0767208Y0109175D01*
X0767534Y0109961D02*
X0737383Y0109961D01*
X0737058Y0110747D02*
X0767859Y0110747D01*
X0768185Y0111533D02*
X0736732Y0111533D01*
X0736062Y0112319D02*
X0768855Y0112319D01*
X0769641Y0113105D02*
X0735276Y0113105D01*
X0734270Y0113891D02*
X0770647Y0113891D01*
X0772544Y0114677D02*
X0732373Y0114677D01*
X0728843Y0114677D02*
X0649444Y0114677D01*
X0649688Y0113891D02*
X0726946Y0113891D01*
X0725940Y0113105D02*
X0649688Y0113105D01*
X0649589Y0112319D02*
X0725154Y0112319D01*
X0724484Y0111533D02*
X0649263Y0111533D01*
X0648704Y0110747D02*
X0724158Y0110747D01*
X0718001Y0133539D02*
X0664771Y0133539D01*
X0664706Y0134325D02*
X0717492Y0134325D01*
X0717311Y0135111D02*
X0664361Y0135111D01*
X0663398Y0135896D02*
X0717375Y0135896D01*
X0668091Y0149257D02*
X0500490Y0149257D01*
X0500490Y0150043D02*
X0583719Y0150043D01*
X0584434Y0146899D02*
X0500490Y0146899D01*
X0500490Y0146113D02*
X0583199Y0146113D01*
X0582514Y0145327D02*
X0500490Y0145327D01*
X0500490Y0144541D02*
X0582189Y0144541D01*
X0582000Y0143756D02*
X0500490Y0143756D01*
X0500490Y0142970D02*
X0518231Y0142970D01*
X0516334Y0142184D02*
X0500490Y0142184D01*
X0500490Y0141398D02*
X0515185Y0141398D01*
X0514399Y0140612D02*
X0500490Y0140612D01*
X0500490Y0139826D02*
X0513613Y0139826D01*
X0513221Y0139040D02*
X0500490Y0139040D01*
X0500490Y0138254D02*
X0512896Y0138254D01*
X0512570Y0137468D02*
X0500490Y0137468D01*
X0500490Y0136682D02*
X0512301Y0136682D01*
X0512301Y0135896D02*
X0500490Y0135896D01*
X0500490Y0135111D02*
X0512301Y0135111D01*
X0512301Y0134325D02*
X0500490Y0134325D01*
X0500490Y0133539D02*
X0512362Y0133539D01*
X0512687Y0132753D02*
X0500490Y0132753D01*
X0500490Y0131967D02*
X0513013Y0131967D01*
X0513338Y0131181D02*
X0500490Y0131181D01*
X0500490Y0130395D02*
X0513896Y0130395D01*
X0514682Y0129609D02*
X0500490Y0129609D01*
X0500490Y0128823D02*
X0515468Y0128823D01*
X0517017Y0128037D02*
X0500490Y0128037D01*
X0522118Y0142970D02*
X0582000Y0142970D01*
X0582156Y0142184D02*
X0524016Y0142184D01*
X0525165Y0141398D02*
X0582481Y0141398D01*
X0583119Y0140612D02*
X0525950Y0140612D01*
X0587446Y0139826D02*
X0624242Y0139826D01*
X0623119Y0140612D02*
X0588569Y0140612D01*
X0589207Y0141398D02*
X0622481Y0141398D01*
X0622156Y0142184D02*
X0589533Y0142184D01*
X0589688Y0142970D02*
X0622000Y0142970D01*
X0622000Y0143756D02*
X0589688Y0143756D01*
X0589500Y0144541D02*
X0622189Y0144541D01*
X0622514Y0145327D02*
X0589174Y0145327D01*
X0588489Y0146113D02*
X0623199Y0146113D01*
X0624434Y0146899D02*
X0587254Y0146899D01*
X0647970Y0150043D02*
X0667273Y0150043D01*
X0666948Y0150829D02*
X0648786Y0150829D01*
X0649297Y0151615D02*
X0666917Y0151615D01*
X0667131Y0152401D02*
X0649623Y0152401D01*
X0649688Y0153187D02*
X0667687Y0153187D01*
X0511965Y0183837D02*
X0500490Y0183837D01*
X0500490Y0184623D02*
X0511179Y0184623D01*
X0510681Y0185409D02*
X0500490Y0185409D01*
X0500490Y0186195D02*
X0510355Y0186195D01*
X0510276Y0186981D02*
X0500490Y0186981D01*
X0500490Y0187767D02*
X0510276Y0187767D01*
X0510515Y0188553D02*
X0500490Y0188553D01*
X0500490Y0189339D02*
X0510840Y0189339D01*
X0511565Y0190124D02*
X0500490Y0190124D01*
X0500490Y0190910D02*
X0512837Y0190910D01*
X0512233Y0213702D02*
X0500490Y0213702D01*
X0500490Y0214488D02*
X0511315Y0214488D01*
X0510737Y0215274D02*
X0500490Y0215274D01*
X0500490Y0216060D02*
X0510411Y0216060D01*
X0510276Y0216845D02*
X0500490Y0216845D01*
X0500490Y0217631D02*
X0510276Y0217631D01*
X0510459Y0218417D02*
X0500490Y0218417D01*
X0500490Y0219203D02*
X0510784Y0219203D01*
X0511429Y0219989D02*
X0500490Y0219989D01*
X0500490Y0220775D02*
X0512510Y0220775D01*
X0572022Y0279719D02*
X0577068Y0279719D01*
X0576282Y0280504D02*
X0572808Y0280504D01*
X0573205Y0281290D02*
X0575885Y0281290D01*
X0575559Y0282076D02*
X0573531Y0282076D01*
X0573539Y0282862D02*
X0575551Y0282862D01*
X0575551Y0283648D02*
X0573539Y0283648D01*
X0573228Y0284434D02*
X0575862Y0284434D01*
X0576227Y0285220D02*
X0572863Y0285220D01*
X0572077Y0286006D02*
X0577013Y0286006D01*
X0578529Y0286792D02*
X0570561Y0286792D01*
X0580561Y0286792D02*
X0588529Y0286792D01*
X0587013Y0286006D02*
X0582077Y0286006D01*
X0582863Y0285220D02*
X0586227Y0285220D01*
X0585862Y0284434D02*
X0583228Y0284434D01*
X0583539Y0283648D02*
X0585551Y0283648D01*
X0585551Y0282862D02*
X0583539Y0282862D01*
X0583531Y0282076D02*
X0585559Y0282076D01*
X0585885Y0281290D02*
X0583205Y0281290D01*
X0582808Y0280504D02*
X0586282Y0280504D01*
X0587068Y0279719D02*
X0582022Y0279719D01*
X0592022Y0279719D02*
X0597068Y0279719D01*
X0596282Y0280504D02*
X0592808Y0280504D01*
X0593205Y0281290D02*
X0595885Y0281290D01*
X0595559Y0282076D02*
X0593531Y0282076D01*
X0593539Y0282862D02*
X0595551Y0282862D01*
X0595551Y0283648D02*
X0593539Y0283648D01*
X0593228Y0284434D02*
X0595862Y0284434D01*
X0596227Y0285220D02*
X0592863Y0285220D01*
X0592077Y0286006D02*
X0597013Y0286006D01*
X0598529Y0286792D02*
X0590561Y0286792D01*
X0600561Y0286792D02*
X0608529Y0286792D01*
X0607013Y0286006D02*
X0602077Y0286006D01*
X0602863Y0285220D02*
X0606227Y0285220D01*
X0605862Y0284434D02*
X0603228Y0284434D01*
X0603539Y0283648D02*
X0605551Y0283648D01*
X0605551Y0282862D02*
X0603539Y0282862D01*
X0603531Y0282076D02*
X0605559Y0282076D01*
X0605885Y0281290D02*
X0603205Y0281290D01*
X0602808Y0280504D02*
X0606282Y0280504D01*
X0607068Y0279719D02*
X0602022Y0279719D01*
X0612022Y0279719D02*
X0617068Y0279719D01*
X0616282Y0280504D02*
X0612808Y0280504D01*
X0613205Y0281290D02*
X0615885Y0281290D01*
X0615559Y0282076D02*
X0613531Y0282076D01*
X0613539Y0282862D02*
X0615551Y0282862D01*
X0615551Y0283648D02*
X0613539Y0283648D01*
X0613228Y0284434D02*
X0615862Y0284434D01*
X0616227Y0285220D02*
X0612863Y0285220D01*
X0612077Y0286006D02*
X0617013Y0286006D01*
X0618529Y0286792D02*
X0610561Y0286792D01*
X0620561Y0286792D02*
X0628529Y0286792D01*
X0627013Y0286006D02*
X0622077Y0286006D01*
X0622863Y0285220D02*
X0626227Y0285220D01*
X0625862Y0284434D02*
X0623228Y0284434D01*
X0623539Y0283648D02*
X0625551Y0283648D01*
X0625551Y0282862D02*
X0623539Y0282862D01*
X0623531Y0282076D02*
X0625559Y0282076D01*
X0625885Y0281290D02*
X0623205Y0281290D01*
X0622808Y0280504D02*
X0626282Y0280504D01*
X0627068Y0279719D02*
X0622022Y0279719D01*
X0632022Y0279719D02*
X0637068Y0279719D01*
X0636282Y0280504D02*
X0632808Y0280504D01*
X0633205Y0281290D02*
X0635885Y0281290D01*
X0635559Y0282076D02*
X0633531Y0282076D01*
X0633539Y0282862D02*
X0635551Y0282862D01*
X0635551Y0283648D02*
X0633539Y0283648D01*
X0633228Y0284434D02*
X0635862Y0284434D01*
X0636227Y0285220D02*
X0632863Y0285220D01*
X0632077Y0286006D02*
X0637013Y0286006D01*
X0638529Y0286792D02*
X0630561Y0286792D01*
X0640561Y0286792D02*
X0648529Y0286792D01*
X0647013Y0286006D02*
X0642077Y0286006D01*
X0642863Y0285220D02*
X0646227Y0285220D01*
X0645862Y0284434D02*
X0643228Y0284434D01*
X0643539Y0283648D02*
X0645551Y0283648D01*
X0645551Y0282862D02*
X0643539Y0282862D01*
X0643531Y0282076D02*
X0645559Y0282076D01*
X0645885Y0281290D02*
X0643205Y0281290D01*
X0642808Y0280504D02*
X0646282Y0280504D01*
X0647068Y0279719D02*
X0642022Y0279719D01*
X0652022Y0279719D02*
X0657068Y0279719D01*
X0656282Y0280504D02*
X0652808Y0280504D01*
X0653205Y0281290D02*
X0655885Y0281290D01*
X0655559Y0282076D02*
X0653531Y0282076D01*
X0653539Y0282862D02*
X0655551Y0282862D01*
X0655551Y0283648D02*
X0653539Y0283648D01*
X0653228Y0284434D02*
X0655862Y0284434D01*
X0656227Y0285220D02*
X0652863Y0285220D01*
X0652077Y0286006D02*
X0657013Y0286006D01*
X0658529Y0286792D02*
X0650561Y0286792D01*
X0660561Y0286792D02*
X0668529Y0286792D01*
X0667013Y0286006D02*
X0662077Y0286006D01*
X0662863Y0285220D02*
X0666227Y0285220D01*
X0665862Y0284434D02*
X0663228Y0284434D01*
X0663539Y0283648D02*
X0665551Y0283648D01*
X0665551Y0282862D02*
X0663539Y0282862D01*
X0663531Y0282076D02*
X0665559Y0282076D01*
X0665885Y0281290D02*
X0663205Y0281290D01*
X0662808Y0280504D02*
X0666282Y0280504D01*
X0667068Y0279719D02*
X0662022Y0279719D01*
X0672022Y0279719D02*
X0677068Y0279719D01*
X0676282Y0280504D02*
X0672808Y0280504D01*
X0673205Y0281290D02*
X0675885Y0281290D01*
X0675559Y0282076D02*
X0673531Y0282076D01*
X0673539Y0282862D02*
X0675551Y0282862D01*
X0675551Y0283648D02*
X0673539Y0283648D01*
X0673228Y0284434D02*
X0675862Y0284434D01*
X0676227Y0285220D02*
X0672863Y0285220D01*
X0672077Y0286006D02*
X0677013Y0286006D01*
X0678529Y0286792D02*
X0670561Y0286792D01*
X0680561Y0286792D02*
X0688529Y0286792D01*
X0687013Y0286006D02*
X0682077Y0286006D01*
X0682863Y0285220D02*
X0686227Y0285220D01*
X0685862Y0284434D02*
X0683228Y0284434D01*
X0683539Y0283648D02*
X0685551Y0283648D01*
X0685551Y0282862D02*
X0683539Y0282862D01*
X0683531Y0282076D02*
X0685559Y0282076D01*
X0685885Y0281290D02*
X0683205Y0281290D01*
X0682808Y0280504D02*
X0686282Y0280504D01*
X0687068Y0279719D02*
X0682022Y0279719D01*
X0692022Y0279719D02*
X0697068Y0279719D01*
X0696282Y0280504D02*
X0692808Y0280504D01*
X0693205Y0281290D02*
X0695885Y0281290D01*
X0695559Y0282076D02*
X0693531Y0282076D01*
X0693539Y0282862D02*
X0695551Y0282862D01*
X0695551Y0283648D02*
X0693539Y0283648D01*
X0693228Y0284434D02*
X0695862Y0284434D01*
X0696227Y0285220D02*
X0692863Y0285220D01*
X0692077Y0286006D02*
X0697013Y0286006D01*
X0698529Y0286792D02*
X0690561Y0286792D01*
X0612814Y0304868D02*
X0544937Y0304868D01*
X0545723Y0305654D02*
X0612345Y0305654D01*
X0612193Y0306440D02*
X0546509Y0306440D01*
X0547294Y0307225D02*
X0612285Y0307225D01*
X0612669Y0308011D02*
X0548080Y0308011D01*
X0548866Y0308797D02*
X0613726Y0308797D01*
X0563053Y0313513D02*
X0553582Y0313513D01*
X0552796Y0312727D02*
X0562329Y0312727D01*
X0562003Y0311941D02*
X0552010Y0311941D01*
X0551224Y0311155D02*
X0561996Y0311155D01*
X0562233Y0310369D02*
X0550438Y0310369D01*
X0549652Y0309583D02*
X0562823Y0309583D01*
X0555939Y0315871D02*
X0672952Y0315871D01*
X0841924Y0117820D02*
X0864133Y0117820D01*
X0863347Y0117035D02*
X0842812Y0117035D01*
X0843378Y0116249D02*
X0862561Y0116249D01*
X0861775Y0115463D02*
X0843704Y0115463D01*
X0843830Y0114677D02*
X0860989Y0114677D01*
X0860203Y0113891D02*
X0843830Y0113891D01*
X0843638Y0113105D02*
X0859417Y0113105D01*
X0858631Y0112319D02*
X0843313Y0112319D01*
X0842655Y0111533D02*
X0857845Y0111533D01*
X0857059Y0110747D02*
X0841545Y0110747D01*
D19*
X0730151Y0201031D03*
X0727283Y0202335D03*
X0724151Y0202031D03*
X0720651Y0201281D03*
X0716901Y0201281D03*
X0713651Y0202031D03*
X0707151Y0202031D03*
X0700584Y0204764D03*
X0697651Y0207781D03*
X0695401Y0206281D03*
X0697901Y0211781D03*
X0696151Y0217281D03*
X0693651Y0217281D03*
X0691151Y0217281D03*
X0682501Y0216931D03*
X0680153Y0220626D03*
X0680153Y0224563D03*
X0686846Y0224563D03*
X0682859Y0234189D03*
X0707319Y0234799D03*
X0728143Y0225187D03*
X0728151Y0222531D03*
X0730651Y0217785D03*
X0732901Y0218781D03*
X0735151Y0217785D03*
X0740151Y0218531D03*
X0742651Y0218531D03*
X0742651Y0222531D03*
X0742651Y0207656D03*
X0740151Y0207656D03*
X0734549Y0207232D03*
X0731850Y0207232D03*
X0729100Y0207232D03*
X0688901Y0204531D03*
X0687401Y0206781D03*
X0685901Y0204531D03*
X0684401Y0206781D03*
X0680464Y0204394D03*
X0676921Y0205575D03*
X0673378Y0205181D03*
X0676921Y0200850D03*
X0684401Y0202031D03*
X0687401Y0202031D03*
X0680071Y0212268D03*
X0675346Y0210299D03*
X0744191Y0237614D03*
D20*
X0707151Y0202031D02*
X0706596Y0201626D01*
D21*
X0705506Y0211177D03*
X0705506Y0214130D03*
X0705506Y0217083D03*
X0705506Y0220035D03*
X0708950Y0220035D03*
X0708950Y0217083D03*
X0708950Y0214130D03*
X0708950Y0211177D03*
X0712395Y0211130D03*
X0712395Y0214130D03*
X0712395Y0217083D03*
X0712395Y0220035D03*
X0715840Y0220035D03*
X0715840Y0217083D03*
X0715840Y0214130D03*
X0715840Y0211177D03*
X0719285Y0211177D03*
X0719285Y0214130D03*
X0719285Y0217083D03*
X0719285Y0220035D03*
X0694651Y0221531D03*
D22*
X0694449Y0219207D02*
X0692854Y0219207D01*
X0692401Y0218754D01*
X0691949Y0219207D01*
X0690354Y0219207D01*
X0689226Y0218079D01*
X0689226Y0216484D01*
X0690354Y0215356D01*
X0691949Y0215356D01*
X0692401Y0215809D01*
X0692854Y0215356D01*
X0694449Y0215356D01*
X0694901Y0215809D01*
X0695354Y0215356D01*
X0696949Y0215356D01*
X0698076Y0216484D01*
X0698076Y0218079D01*
X0696949Y0219207D01*
X0695354Y0219207D01*
X0694901Y0218754D01*
X0694449Y0219207D01*
X0697437Y0218718D02*
X0700493Y0218718D01*
X0699909Y0218050D02*
X0698076Y0218050D01*
X0698076Y0217382D02*
X0699324Y0217382D01*
X0698740Y0216715D02*
X0698076Y0216715D01*
X0698156Y0216047D02*
X0697639Y0216047D01*
X0697571Y0215379D02*
X0696971Y0215379D01*
X0697350Y0215126D02*
X0683418Y0215126D01*
X0684426Y0216134D01*
X0684426Y0217729D01*
X0683299Y0218857D01*
X0681704Y0218857D01*
X0680576Y0217729D01*
X0680576Y0216134D01*
X0681584Y0215126D01*
X0665096Y0215126D01*
X0665096Y0248126D01*
X0724096Y0248126D01*
X0724096Y0240126D01*
X0730096Y0234126D01*
X0730096Y0219711D01*
X0729854Y0219711D01*
X0728726Y0218583D01*
X0728726Y0218126D01*
X0725096Y0218126D01*
X0720096Y0223126D01*
X0704350Y0223126D01*
X0697350Y0215126D01*
X0697023Y0213626D02*
X0695976Y0212579D01*
X0695976Y0210984D01*
X0697104Y0209856D01*
X0698699Y0209856D01*
X0699826Y0210984D01*
X0699826Y0212579D01*
X0698699Y0213707D01*
X0698167Y0213707D01*
X0705096Y0221626D01*
X0719596Y0221626D01*
X0724596Y0216626D01*
X0729088Y0216626D01*
X0729854Y0215860D01*
X0730096Y0215860D01*
X0730096Y0212872D01*
X0724350Y0207126D01*
X0704096Y0207126D01*
X0704096Y0188126D01*
X0665096Y0188126D01*
X0665096Y0213626D01*
X0697023Y0213626D01*
X0696773Y0213376D02*
X0665096Y0213376D01*
X0665096Y0212708D02*
X0696105Y0212708D01*
X0695976Y0212040D02*
X0665096Y0212040D01*
X0665096Y0211372D02*
X0695976Y0211372D01*
X0696256Y0210704D02*
X0665096Y0210704D01*
X0665096Y0210037D02*
X0696923Y0210037D01*
X0696854Y0209707D02*
X0695726Y0208579D01*
X0695726Y0208207D01*
X0694604Y0208207D01*
X0693476Y0207079D01*
X0693476Y0205484D01*
X0694604Y0204356D01*
X0696199Y0204356D01*
X0697326Y0205484D01*
X0697326Y0205856D01*
X0698449Y0205856D01*
X0699576Y0206984D01*
X0699576Y0208579D01*
X0698449Y0209707D01*
X0696854Y0209707D01*
X0696516Y0209369D02*
X0665096Y0209369D01*
X0665096Y0208701D02*
X0695848Y0208701D01*
X0694430Y0208033D02*
X0665096Y0208033D01*
X0665096Y0207365D02*
X0693763Y0207365D01*
X0693476Y0206698D02*
X0665096Y0206698D01*
X0665096Y0206030D02*
X0693476Y0206030D01*
X0693598Y0205362D02*
X0665096Y0205362D01*
X0665096Y0204694D02*
X0694266Y0204694D01*
X0696537Y0204694D02*
X0704096Y0204694D01*
X0704096Y0204026D02*
X0665096Y0204026D01*
X0665096Y0203359D02*
X0704096Y0203359D01*
X0704096Y0202691D02*
X0665096Y0202691D01*
X0665096Y0202023D02*
X0704096Y0202023D01*
X0704096Y0201355D02*
X0665096Y0201355D01*
X0665096Y0200687D02*
X0704096Y0200687D01*
X0704096Y0200020D02*
X0665096Y0200020D01*
X0665096Y0199352D02*
X0704096Y0199352D01*
X0704096Y0198684D02*
X0665096Y0198684D01*
X0665096Y0198016D02*
X0704096Y0198016D01*
X0704096Y0197348D02*
X0665096Y0197348D01*
X0665096Y0196681D02*
X0668679Y0196681D01*
X0669369Y0196966D02*
X0667922Y0196367D01*
X0666816Y0195260D01*
X0666217Y0193814D01*
X0666217Y0192249D01*
X0666816Y0190803D01*
X0667922Y0189696D01*
X0669369Y0189097D01*
X0670934Y0189097D01*
X0672380Y0189696D01*
X0673487Y0190803D01*
X0674086Y0192249D01*
X0674086Y0193814D01*
X0673487Y0195260D01*
X0672380Y0196367D01*
X0670934Y0196966D01*
X0669369Y0196966D01*
X0667568Y0196013D02*
X0665096Y0196013D01*
X0665096Y0195345D02*
X0666900Y0195345D01*
X0666574Y0194677D02*
X0665096Y0194677D01*
X0665096Y0194009D02*
X0666297Y0194009D01*
X0666217Y0193342D02*
X0665096Y0193342D01*
X0665096Y0192674D02*
X0666217Y0192674D01*
X0666317Y0192006D02*
X0665096Y0192006D01*
X0665096Y0191338D02*
X0666594Y0191338D01*
X0666948Y0190670D02*
X0665096Y0190670D01*
X0665096Y0190003D02*
X0667616Y0190003D01*
X0668794Y0189335D02*
X0665096Y0189335D01*
X0665096Y0188667D02*
X0704096Y0188667D01*
X0704096Y0189335D02*
X0701508Y0189335D01*
X0700934Y0189097D02*
X0702380Y0189696D01*
X0703487Y0190803D01*
X0704086Y0192249D01*
X0704086Y0193814D01*
X0703487Y0195260D01*
X0702380Y0196367D01*
X0700934Y0196966D01*
X0699369Y0196966D01*
X0697922Y0196367D01*
X0696816Y0195260D01*
X0696217Y0193814D01*
X0696217Y0192249D01*
X0696816Y0190803D01*
X0697922Y0189696D01*
X0699369Y0189097D01*
X0700934Y0189097D01*
X0702687Y0190003D02*
X0704096Y0190003D01*
X0704096Y0190670D02*
X0703355Y0190670D01*
X0703709Y0191338D02*
X0704096Y0191338D01*
X0704096Y0192006D02*
X0703985Y0192006D01*
X0704086Y0192674D02*
X0704096Y0192674D01*
X0704086Y0193342D02*
X0704096Y0193342D01*
X0704096Y0194009D02*
X0704005Y0194009D01*
X0704096Y0194677D02*
X0703728Y0194677D01*
X0703402Y0195345D02*
X0704096Y0195345D01*
X0704096Y0196013D02*
X0702734Y0196013D01*
X0701623Y0196681D02*
X0704096Y0196681D01*
X0698679Y0196681D02*
X0691623Y0196681D01*
X0690934Y0196966D02*
X0689369Y0196966D01*
X0687922Y0196367D01*
X0686816Y0195260D01*
X0686217Y0193814D01*
X0686217Y0192249D01*
X0686816Y0190803D01*
X0687922Y0189696D01*
X0689369Y0189097D01*
X0690934Y0189097D01*
X0692380Y0189696D01*
X0693487Y0190803D01*
X0694086Y0192249D01*
X0694086Y0193814D01*
X0693487Y0195260D01*
X0692380Y0196367D01*
X0690934Y0196966D01*
X0692734Y0196013D02*
X0697568Y0196013D01*
X0696900Y0195345D02*
X0693402Y0195345D01*
X0693728Y0194677D02*
X0696574Y0194677D01*
X0696297Y0194009D02*
X0694005Y0194009D01*
X0694086Y0193342D02*
X0696217Y0193342D01*
X0696217Y0192674D02*
X0694086Y0192674D01*
X0693985Y0192006D02*
X0696317Y0192006D01*
X0696594Y0191338D02*
X0693709Y0191338D01*
X0693355Y0190670D02*
X0696948Y0190670D01*
X0697616Y0190003D02*
X0692687Y0190003D01*
X0691508Y0189335D02*
X0698794Y0189335D01*
X0688794Y0189335D02*
X0681508Y0189335D01*
X0680934Y0189097D02*
X0682380Y0189696D01*
X0683487Y0190803D01*
X0684086Y0192249D01*
X0684086Y0193814D01*
X0683487Y0195260D01*
X0682380Y0196367D01*
X0680934Y0196966D01*
X0679369Y0196966D01*
X0677922Y0196367D01*
X0676816Y0195260D01*
X0676217Y0193814D01*
X0676217Y0192249D01*
X0676816Y0190803D01*
X0677922Y0189696D01*
X0679369Y0189097D01*
X0680934Y0189097D01*
X0682687Y0190003D02*
X0687616Y0190003D01*
X0686948Y0190670D02*
X0683355Y0190670D01*
X0683709Y0191338D02*
X0686594Y0191338D01*
X0686317Y0192006D02*
X0683985Y0192006D01*
X0684086Y0192674D02*
X0686217Y0192674D01*
X0686217Y0193342D02*
X0684086Y0193342D01*
X0684005Y0194009D02*
X0686297Y0194009D01*
X0686574Y0194677D02*
X0683728Y0194677D01*
X0683402Y0195345D02*
X0686900Y0195345D01*
X0687568Y0196013D02*
X0682734Y0196013D01*
X0681623Y0196681D02*
X0688679Y0196681D01*
X0678679Y0196681D02*
X0671623Y0196681D01*
X0672734Y0196013D02*
X0677568Y0196013D01*
X0676900Y0195345D02*
X0673402Y0195345D01*
X0673728Y0194677D02*
X0676574Y0194677D01*
X0676297Y0194009D02*
X0674005Y0194009D01*
X0674086Y0193342D02*
X0676217Y0193342D01*
X0676217Y0192674D02*
X0674086Y0192674D01*
X0673985Y0192006D02*
X0676317Y0192006D01*
X0676594Y0191338D02*
X0673709Y0191338D01*
X0673355Y0190670D02*
X0676948Y0190670D01*
X0677616Y0190003D02*
X0672687Y0190003D01*
X0671508Y0189335D02*
X0678794Y0189335D01*
X0697204Y0205362D02*
X0704096Y0205362D01*
X0704096Y0206030D02*
X0698622Y0206030D01*
X0699290Y0206698D02*
X0704096Y0206698D01*
X0699576Y0207365D02*
X0724589Y0207365D01*
X0725257Y0208033D02*
X0699576Y0208033D01*
X0699454Y0208701D02*
X0725925Y0208701D01*
X0726593Y0209369D02*
X0698787Y0209369D01*
X0698879Y0210037D02*
X0727261Y0210037D01*
X0727928Y0210704D02*
X0699547Y0210704D01*
X0699826Y0211372D02*
X0728596Y0211372D01*
X0729264Y0212040D02*
X0699826Y0212040D01*
X0699698Y0212708D02*
X0729932Y0212708D01*
X0730096Y0213376D02*
X0699030Y0213376D01*
X0698461Y0214043D02*
X0730096Y0214043D01*
X0730096Y0214711D02*
X0699046Y0214711D01*
X0699630Y0215379D02*
X0730096Y0215379D01*
X0729667Y0216047D02*
X0700214Y0216047D01*
X0700799Y0216715D02*
X0724507Y0216715D01*
X0723840Y0217382D02*
X0701383Y0217382D01*
X0701967Y0218050D02*
X0723172Y0218050D01*
X0722504Y0218718D02*
X0702552Y0218718D01*
X0703136Y0219386D02*
X0721836Y0219386D01*
X0721168Y0220054D02*
X0703720Y0220054D01*
X0704305Y0220721D02*
X0720501Y0220721D01*
X0719833Y0221389D02*
X0704889Y0221389D01*
X0703999Y0222725D02*
X0687731Y0222725D01*
X0687644Y0222638D02*
X0688771Y0223766D01*
X0688771Y0225360D01*
X0687644Y0226488D01*
X0686049Y0226488D01*
X0684921Y0225360D01*
X0684921Y0223766D01*
X0686049Y0222638D01*
X0687644Y0222638D01*
X0688398Y0223393D02*
X0730096Y0223393D01*
X0730096Y0224060D02*
X0688771Y0224060D01*
X0688771Y0224728D02*
X0730096Y0224728D01*
X0730096Y0225396D02*
X0688736Y0225396D01*
X0688068Y0226064D02*
X0730096Y0226064D01*
X0730096Y0226732D02*
X0665096Y0226732D01*
X0665096Y0227399D02*
X0730096Y0227399D01*
X0730096Y0228067D02*
X0665096Y0228067D01*
X0665096Y0228735D02*
X0730096Y0228735D01*
X0730096Y0229403D02*
X0665096Y0229403D01*
X0665096Y0230071D02*
X0730096Y0230071D01*
X0730096Y0230738D02*
X0665096Y0230738D01*
X0665096Y0231406D02*
X0730096Y0231406D01*
X0730096Y0232074D02*
X0665096Y0232074D01*
X0665096Y0232742D02*
X0681584Y0232742D01*
X0682062Y0232264D02*
X0683657Y0232264D01*
X0684784Y0233392D01*
X0684784Y0234987D01*
X0683657Y0236115D01*
X0682062Y0236115D01*
X0680934Y0234987D01*
X0680934Y0233392D01*
X0682062Y0232264D01*
X0680934Y0233410D02*
X0665096Y0233410D01*
X0665096Y0234078D02*
X0680934Y0234078D01*
X0680934Y0234745D02*
X0665096Y0234745D01*
X0665096Y0235413D02*
X0681360Y0235413D01*
X0682028Y0236081D02*
X0665096Y0236081D01*
X0665096Y0236749D02*
X0727473Y0236749D01*
X0726806Y0237417D02*
X0665096Y0237417D01*
X0665096Y0238084D02*
X0726138Y0238084D01*
X0725470Y0238752D02*
X0670841Y0238752D01*
X0671166Y0238804D02*
X0671815Y0239014D01*
X0672423Y0239324D01*
X0672975Y0239725D01*
X0673458Y0240208D01*
X0673859Y0240760D01*
X0674168Y0241368D01*
X0674379Y0242016D01*
X0674486Y0242690D01*
X0674486Y0242697D01*
X0670486Y0242697D01*
X0670486Y0243366D01*
X0674486Y0243366D01*
X0674486Y0243373D01*
X0674379Y0244047D01*
X0674168Y0244695D01*
X0673859Y0245303D01*
X0673458Y0245855D01*
X0672975Y0246338D01*
X0672423Y0246739D01*
X0671815Y0247049D01*
X0671166Y0247259D01*
X0670492Y0247366D01*
X0670486Y0247366D01*
X0670486Y0243366D01*
X0669817Y0243366D01*
X0669817Y0247366D01*
X0669810Y0247366D01*
X0669136Y0247259D01*
X0668487Y0247049D01*
X0667879Y0246739D01*
X0667327Y0246338D01*
X0666845Y0245855D01*
X0666444Y0245303D01*
X0666134Y0244695D01*
X0665923Y0244047D01*
X0665817Y0243373D01*
X0665817Y0243366D01*
X0669817Y0243366D01*
X0669817Y0242697D01*
X0670486Y0242697D01*
X0670486Y0238697D01*
X0670492Y0238697D01*
X0671166Y0238804D01*
X0670486Y0238752D02*
X0669817Y0238752D01*
X0669817Y0238697D02*
X0669817Y0242697D01*
X0665817Y0242697D01*
X0665817Y0242690D01*
X0665923Y0242016D01*
X0666134Y0241368D01*
X0666444Y0240760D01*
X0666845Y0240208D01*
X0667327Y0239725D01*
X0667879Y0239324D01*
X0668487Y0239014D01*
X0669136Y0238804D01*
X0669810Y0238697D01*
X0669817Y0238697D01*
X0669461Y0238752D02*
X0665096Y0238752D01*
X0665096Y0239420D02*
X0667748Y0239420D01*
X0666965Y0240088D02*
X0665096Y0240088D01*
X0665096Y0240756D02*
X0666447Y0240756D01*
X0666116Y0241423D02*
X0665096Y0241423D01*
X0665096Y0242091D02*
X0665911Y0242091D01*
X0665096Y0242759D02*
X0669817Y0242759D01*
X0669817Y0243427D02*
X0670486Y0243427D01*
X0670486Y0244095D02*
X0669817Y0244095D01*
X0669817Y0244762D02*
X0670486Y0244762D01*
X0670486Y0245430D02*
X0669817Y0245430D01*
X0669817Y0246098D02*
X0670486Y0246098D01*
X0670486Y0246766D02*
X0669817Y0246766D01*
X0667932Y0246766D02*
X0665096Y0246766D01*
X0665096Y0247434D02*
X0724096Y0247434D01*
X0724096Y0248101D02*
X0665096Y0248101D01*
X0665096Y0246098D02*
X0667088Y0246098D01*
X0666536Y0245430D02*
X0665096Y0245430D01*
X0665096Y0244762D02*
X0666168Y0244762D01*
X0665939Y0244095D02*
X0665096Y0244095D01*
X0665096Y0243427D02*
X0665825Y0243427D01*
X0669817Y0242091D02*
X0670486Y0242091D01*
X0670486Y0241423D02*
X0669817Y0241423D01*
X0669817Y0240756D02*
X0670486Y0240756D01*
X0670486Y0240088D02*
X0669817Y0240088D01*
X0669817Y0239420D02*
X0670486Y0239420D01*
X0672555Y0239420D02*
X0678589Y0239420D01*
X0677922Y0239696D02*
X0679369Y0239097D01*
X0680934Y0239097D01*
X0682380Y0239696D01*
X0683487Y0240803D01*
X0684086Y0242249D01*
X0684086Y0243814D01*
X0683487Y0245260D01*
X0682380Y0246367D01*
X0680934Y0246966D01*
X0679369Y0246966D01*
X0677922Y0246367D01*
X0676816Y0245260D01*
X0676217Y0243814D01*
X0676217Y0242249D01*
X0676816Y0240803D01*
X0677922Y0239696D01*
X0677531Y0240088D02*
X0673338Y0240088D01*
X0673856Y0240756D02*
X0676863Y0240756D01*
X0676559Y0241423D02*
X0674186Y0241423D01*
X0674391Y0242091D02*
X0676282Y0242091D01*
X0676217Y0242759D02*
X0670486Y0242759D01*
X0674477Y0243427D02*
X0676217Y0243427D01*
X0676333Y0244095D02*
X0674364Y0244095D01*
X0674134Y0244762D02*
X0676609Y0244762D01*
X0676985Y0245430D02*
X0673766Y0245430D01*
X0673215Y0246098D02*
X0677653Y0246098D01*
X0678885Y0246766D02*
X0672370Y0246766D01*
X0681418Y0246766D02*
X0688885Y0246766D01*
X0689369Y0246966D02*
X0687922Y0246367D01*
X0686816Y0245260D01*
X0686217Y0243814D01*
X0686217Y0242249D01*
X0686816Y0240803D01*
X0687922Y0239696D01*
X0689369Y0239097D01*
X0690934Y0239097D01*
X0692380Y0239696D01*
X0693487Y0240803D01*
X0694086Y0242249D01*
X0694086Y0243814D01*
X0693487Y0245260D01*
X0692380Y0246367D01*
X0690934Y0246966D01*
X0689369Y0246966D01*
X0687653Y0246098D02*
X0682649Y0246098D01*
X0683317Y0245430D02*
X0686985Y0245430D01*
X0686609Y0244762D02*
X0683693Y0244762D01*
X0683970Y0244095D02*
X0686333Y0244095D01*
X0686217Y0243427D02*
X0684086Y0243427D01*
X0684086Y0242759D02*
X0686217Y0242759D01*
X0686282Y0242091D02*
X0684021Y0242091D01*
X0683744Y0241423D02*
X0686559Y0241423D01*
X0686863Y0240756D02*
X0683440Y0240756D01*
X0682772Y0240088D02*
X0687531Y0240088D01*
X0688589Y0239420D02*
X0681714Y0239420D01*
X0683690Y0236081D02*
X0705878Y0236081D01*
X0705393Y0235597D02*
X0705393Y0234002D01*
X0706521Y0232874D01*
X0708116Y0232874D01*
X0709244Y0234002D01*
X0709244Y0235597D01*
X0708116Y0236724D01*
X0706521Y0236724D01*
X0705393Y0235597D01*
X0705393Y0235413D02*
X0684358Y0235413D01*
X0684784Y0234745D02*
X0705393Y0234745D01*
X0705393Y0234078D02*
X0684784Y0234078D01*
X0684784Y0233410D02*
X0705985Y0233410D01*
X0708652Y0233410D02*
X0730096Y0233410D01*
X0730096Y0234078D02*
X0709244Y0234078D01*
X0709244Y0234745D02*
X0729477Y0234745D01*
X0728809Y0235413D02*
X0709244Y0235413D01*
X0708759Y0236081D02*
X0728141Y0236081D01*
X0730096Y0232742D02*
X0684134Y0232742D01*
X0691714Y0239420D02*
X0698589Y0239420D01*
X0697922Y0239696D02*
X0699369Y0239097D01*
X0700934Y0239097D01*
X0702380Y0239696D01*
X0703487Y0240803D01*
X0704086Y0242249D01*
X0704086Y0243814D01*
X0703487Y0245260D01*
X0702380Y0246367D01*
X0700934Y0246966D01*
X0699369Y0246966D01*
X0697922Y0246367D01*
X0696816Y0245260D01*
X0696217Y0243814D01*
X0696217Y0242249D01*
X0696816Y0240803D01*
X0697922Y0239696D01*
X0697531Y0240088D02*
X0692772Y0240088D01*
X0693440Y0240756D02*
X0696863Y0240756D01*
X0696559Y0241423D02*
X0693744Y0241423D01*
X0694021Y0242091D02*
X0696282Y0242091D01*
X0696217Y0242759D02*
X0694086Y0242759D01*
X0694086Y0243427D02*
X0696217Y0243427D01*
X0696333Y0244095D02*
X0693970Y0244095D01*
X0693693Y0244762D02*
X0696609Y0244762D01*
X0696985Y0245430D02*
X0693317Y0245430D01*
X0692649Y0246098D02*
X0697653Y0246098D01*
X0698885Y0246766D02*
X0691418Y0246766D01*
X0701418Y0246766D02*
X0708885Y0246766D01*
X0709369Y0246966D02*
X0707922Y0246367D01*
X0706816Y0245260D01*
X0706217Y0243814D01*
X0706217Y0242249D01*
X0706816Y0240803D01*
X0707922Y0239696D01*
X0709369Y0239097D01*
X0710934Y0239097D01*
X0712380Y0239696D01*
X0713487Y0240803D01*
X0714086Y0242249D01*
X0714086Y0243814D01*
X0713487Y0245260D01*
X0712380Y0246367D01*
X0710934Y0246966D01*
X0709369Y0246966D01*
X0707653Y0246098D02*
X0702649Y0246098D01*
X0703317Y0245430D02*
X0706985Y0245430D01*
X0706609Y0244762D02*
X0703693Y0244762D01*
X0703970Y0244095D02*
X0706333Y0244095D01*
X0706217Y0243427D02*
X0704086Y0243427D01*
X0704086Y0242759D02*
X0706217Y0242759D01*
X0706282Y0242091D02*
X0704021Y0242091D01*
X0703744Y0241423D02*
X0706559Y0241423D01*
X0706863Y0240756D02*
X0703440Y0240756D01*
X0702772Y0240088D02*
X0707531Y0240088D01*
X0708589Y0239420D02*
X0701714Y0239420D01*
X0711714Y0239420D02*
X0718589Y0239420D01*
X0717922Y0239696D02*
X0719369Y0239097D01*
X0720934Y0239097D01*
X0722380Y0239696D01*
X0723487Y0240803D01*
X0724086Y0242249D01*
X0724086Y0243814D01*
X0723487Y0245260D01*
X0722380Y0246367D01*
X0720934Y0246966D01*
X0719369Y0246966D01*
X0717922Y0246367D01*
X0716816Y0245260D01*
X0716217Y0243814D01*
X0716217Y0242249D01*
X0716816Y0240803D01*
X0717922Y0239696D01*
X0717531Y0240088D02*
X0712772Y0240088D01*
X0713440Y0240756D02*
X0716863Y0240756D01*
X0716559Y0241423D02*
X0713744Y0241423D01*
X0714021Y0242091D02*
X0716282Y0242091D01*
X0716217Y0242759D02*
X0714086Y0242759D01*
X0714086Y0243427D02*
X0716217Y0243427D01*
X0716333Y0244095D02*
X0713970Y0244095D01*
X0713693Y0244762D02*
X0716609Y0244762D01*
X0716985Y0245430D02*
X0713317Y0245430D01*
X0712649Y0246098D02*
X0717653Y0246098D01*
X0718885Y0246766D02*
X0711418Y0246766D01*
X0721418Y0246766D02*
X0724096Y0246766D01*
X0724096Y0246098D02*
X0722649Y0246098D01*
X0723317Y0245430D02*
X0724096Y0245430D01*
X0724096Y0244762D02*
X0723693Y0244762D01*
X0723970Y0244095D02*
X0724096Y0244095D01*
X0724086Y0243427D02*
X0724096Y0243427D01*
X0724086Y0242759D02*
X0724096Y0242759D01*
X0724096Y0242091D02*
X0724021Y0242091D01*
X0724096Y0241423D02*
X0723744Y0241423D01*
X0723440Y0240756D02*
X0724096Y0240756D01*
X0724134Y0240088D02*
X0722772Y0240088D01*
X0721714Y0239420D02*
X0724802Y0239420D01*
X0685624Y0226064D02*
X0681375Y0226064D01*
X0680951Y0226488D02*
X0679356Y0226488D01*
X0678228Y0225360D01*
X0678228Y0223766D01*
X0679356Y0222638D01*
X0680951Y0222638D01*
X0682078Y0223766D01*
X0682078Y0225360D01*
X0680951Y0226488D01*
X0682043Y0225396D02*
X0684957Y0225396D01*
X0684921Y0224728D02*
X0682078Y0224728D01*
X0682078Y0224060D02*
X0684921Y0224060D01*
X0685294Y0223393D02*
X0681706Y0223393D01*
X0681038Y0222725D02*
X0685962Y0222725D01*
X0682078Y0221423D02*
X0680951Y0222551D01*
X0679356Y0222551D01*
X0678228Y0221423D01*
X0678228Y0219829D01*
X0679356Y0218701D01*
X0680951Y0218701D01*
X0682078Y0219829D01*
X0682078Y0221423D01*
X0682078Y0221389D02*
X0702830Y0221389D01*
X0702246Y0220721D02*
X0682078Y0220721D01*
X0682078Y0220054D02*
X0701662Y0220054D01*
X0701077Y0219386D02*
X0681636Y0219386D01*
X0681565Y0218718D02*
X0680968Y0218718D01*
X0680897Y0218050D02*
X0665096Y0218050D01*
X0665096Y0217382D02*
X0680576Y0217382D01*
X0680576Y0216715D02*
X0665096Y0216715D01*
X0665096Y0216047D02*
X0680663Y0216047D01*
X0681331Y0215379D02*
X0665096Y0215379D01*
X0665096Y0218718D02*
X0679338Y0218718D01*
X0678671Y0219386D02*
X0665096Y0219386D01*
X0665096Y0220054D02*
X0678228Y0220054D01*
X0678228Y0220721D02*
X0665096Y0220721D01*
X0665096Y0221389D02*
X0678228Y0221389D01*
X0678862Y0222057D02*
X0665096Y0222057D01*
X0665096Y0222725D02*
X0679269Y0222725D01*
X0678601Y0223393D02*
X0665096Y0223393D01*
X0665096Y0224060D02*
X0678228Y0224060D01*
X0678228Y0224728D02*
X0665096Y0224728D01*
X0665096Y0225396D02*
X0678264Y0225396D01*
X0678931Y0226064D02*
X0665096Y0226064D01*
X0681445Y0222057D02*
X0703415Y0222057D01*
X0695331Y0215379D02*
X0694471Y0215379D01*
X0692831Y0215379D02*
X0691971Y0215379D01*
X0690331Y0215379D02*
X0683671Y0215379D01*
X0684339Y0216047D02*
X0689663Y0216047D01*
X0689226Y0216715D02*
X0684426Y0216715D01*
X0684426Y0217382D02*
X0689226Y0217382D01*
X0689226Y0218050D02*
X0684105Y0218050D01*
X0683437Y0218718D02*
X0689865Y0218718D01*
X0720497Y0222725D02*
X0730096Y0222725D01*
X0730096Y0222057D02*
X0721165Y0222057D01*
X0721833Y0221389D02*
X0730096Y0221389D01*
X0730096Y0220721D02*
X0722501Y0220721D01*
X0723168Y0220054D02*
X0730096Y0220054D01*
X0729529Y0219386D02*
X0723836Y0219386D01*
X0724504Y0218718D02*
X0728861Y0218718D01*
D23*
X0757576Y0214386D03*
X0757183Y0206512D03*
X0767419Y0209268D03*
X0778049Y0210449D03*
X0766632Y0215961D03*
X0828246Y0202181D03*
X0784939Y0187417D03*
X0801671Y0181118D03*
X0794781Y0174228D03*
X0804624Y0171276D03*
X0813482Y0173047D03*
X0824506Y0169504D03*
X0818206Y0162417D03*
X0808364Y0162811D03*
X0799702Y0162417D03*
X0804427Y0156512D03*
X0816632Y0152575D03*
X0803246Y0147850D03*
X0791435Y0147850D03*
X0775293Y0148638D03*
X0764466Y0154740D03*
X0748718Y0144504D03*
X0719781Y0135252D03*
X0694978Y0134858D03*
X0691435Y0134858D03*
X0691435Y0138402D03*
X0694978Y0138402D03*
X0693010Y0131315D03*
X0691435Y0127772D03*
X0694978Y0127772D03*
X0694978Y0124228D03*
X0691435Y0124228D03*
X0683561Y0126984D03*
X0662301Y0124228D03*
X0683364Y0119701D03*
X0715057Y0120291D03*
X0714663Y0112024D03*
X0708954Y0100016D03*
X0725687Y0080528D03*
X0692616Y0079740D03*
X0662301Y0133677D03*
X0706789Y0147850D03*
X0715057Y0147850D03*
X0693994Y0158677D03*
X0669387Y0151394D03*
X0756789Y0189583D03*
X0756395Y0195488D03*
X0830017Y0181709D03*
X0869387Y0183283D03*
X0861907Y0163598D03*
X0844978Y0162811D03*
X0856789Y0157299D03*
X0852458Y0148638D03*
X0865057Y0147850D03*
X0836710Y0145488D03*
X0628443Y0225803D03*
X0614663Y0225803D03*
X0592025Y0301591D03*
X0614663Y0306512D03*
X0602852Y0312417D03*
X0564466Y0311433D03*
X0564466Y0301591D03*
D24*
X0820175Y0207693D03*
X0805214Y0204543D03*
X0799309Y0202575D03*
X0802065Y0198244D03*
X0797340Y0194701D03*
X0803639Y0191157D03*
X0807576Y0194701D03*
X0813482Y0194307D03*
X0814269Y0190370D03*
X0808364Y0188402D03*
X0820175Y0188402D03*
X0820175Y0193126D03*
X0820175Y0197063D03*
X0793797Y0201394D03*
X0793797Y0205724D03*
X0601080Y0195685D03*
X0742025Y0124819D03*
D25*
X0728151Y0222531D02*
X0728096Y0225274D01*
X0728143Y0225187D01*
D26*
X0674596Y0242626D02*
X0670596Y0242626D01*
X0670096Y0242626D02*
X0670096Y0239501D01*
D27*
X0713651Y0202031D02*
X0713596Y0196626D01*
X0710151Y0193031D01*
M02*
