G75*
%MOIN*%
%OFA0B0*%
%FSLAX25Y25*%
%IPPOS*%
%LPD*%
%AMOC8*
5,1,8,0,0,1.08239X$1,22.5*
%
%ADD10OC8,0.06000*%
%ADD11R,0.06299X0.05118*%
%ADD12R,0.06299X0.07874*%
%ADD13C,0.07087*%
%ADD14C,0.07000*%
%ADD15C,0.12268*%
%ADD16C,0.05700*%
%ADD17R,0.07400X0.07400*%
%ADD18C,0.07400*%
%ADD19R,0.06000X0.06000*%
%ADD20OC8,0.16205*%
%ADD21OC8,0.13252*%
%ADD22OC8,0.14236*%
%ADD23OC8,0.05906*%
%ADD24C,0.05906*%
%ADD25C,0.01200*%
%ADD26C,0.01981*%
%ADD27C,0.03937*%
%ADD28C,0.00669*%
%ADD29R,0.02375X0.02375*%
%ADD30C,0.02953*%
%ADD31C,0.01969*%
%ADD32C,0.00787*%
%ADD33C,0.02178*%
%ADD34C,0.05906*%
%ADD35C,0.00630*%
%ADD36C,0.02375*%
D10*
X0514269Y0187181D03*
X0514269Y0197181D03*
X0514269Y0207181D03*
X0514269Y0217181D03*
X0670151Y0193031D03*
X0680151Y0193031D03*
X0690151Y0193031D03*
X0700151Y0193031D03*
X0710151Y0193031D03*
X0720151Y0193031D03*
X0730151Y0193031D03*
X0856789Y0228520D03*
X0856789Y0238520D03*
X0856789Y0248520D03*
X0856789Y0258520D03*
X0740151Y0243031D03*
X0730151Y0243031D03*
X0720151Y0243031D03*
X0710151Y0243031D03*
X0700151Y0243031D03*
X0690151Y0243031D03*
X0680151Y0243031D03*
X0709899Y0308480D03*
X0719899Y0308480D03*
X0729899Y0308480D03*
X0739899Y0308480D03*
X1046513Y0308480D03*
X1056513Y0308480D03*
X1066513Y0308480D03*
X1076513Y0308480D03*
D11*
X0597143Y0311512D03*
X0569584Y0311512D03*
X0569584Y0301512D03*
X0597143Y0301512D03*
D12*
X0608561Y0306512D03*
X0581002Y0306512D03*
D13*
X0742616Y0078165D03*
X0752458Y0078165D03*
X0762301Y0078165D03*
D14*
X0760332Y0135252D03*
X0752458Y0135252D03*
X0744584Y0135252D03*
X0736710Y0135252D03*
X0768206Y0135252D03*
D15*
X0774309Y0107693D03*
X0730608Y0107693D03*
D16*
X0645844Y0103323D03*
X0645844Y0113323D03*
X0635844Y0113323D03*
X0635844Y0123323D03*
X0645844Y0123323D03*
X0645844Y0133323D03*
X0645844Y0143323D03*
X0625844Y0143323D03*
X0615844Y0143323D03*
X0615844Y0133323D03*
X0625844Y0133323D03*
X0585844Y0133323D03*
X0585844Y0143323D03*
X0585844Y0153323D03*
X0585844Y0163323D03*
X0585844Y0173323D03*
X0585844Y0183323D03*
X0585844Y0193323D03*
X0585844Y0203323D03*
X0615844Y0193323D03*
X0625844Y0193323D03*
X0645844Y0193323D03*
X0645844Y0203323D03*
X0645844Y0183323D03*
X0645844Y0173323D03*
X0645844Y0163323D03*
X0645844Y0153323D03*
X0625844Y0153323D03*
X0615844Y0153323D03*
X0615844Y0163323D03*
X0625844Y0163323D03*
X0625844Y0173323D03*
X0615844Y0173323D03*
X0615844Y0183323D03*
X0625844Y0183323D03*
X0585844Y0123323D03*
X0585844Y0113323D03*
X0585844Y0103323D03*
X0585844Y0093323D03*
X0585844Y0083323D03*
X0585844Y0073323D03*
X0645844Y0073323D03*
X0645844Y0083323D03*
X0645844Y0093323D03*
D17*
X0559545Y0282890D03*
D18*
X0569545Y0282890D03*
X0579545Y0282890D03*
X0589545Y0282890D03*
X0599545Y0282890D03*
X0609545Y0282890D03*
X0619545Y0282890D03*
X0629545Y0282890D03*
X0639545Y0282890D03*
X0649545Y0282890D03*
X0659545Y0282890D03*
X0669545Y0282890D03*
X0679545Y0282890D03*
X0689545Y0282890D03*
X0699545Y0282890D03*
X0709545Y0282890D03*
D19*
X0670151Y0243031D03*
X0740151Y0193031D03*
D20*
X0776080Y0276984D03*
D21*
X0776080Y0300606D03*
D22*
X0793797Y0304528D03*
X0758364Y0304528D03*
D23*
X0677655Y0094071D03*
X0677655Y0074071D03*
D24*
X0659545Y0076984D03*
D25*
X0527454Y0113968D02*
X0526854Y0113368D01*
X0526854Y0115356D01*
X0528259Y0116761D01*
X0530247Y0116761D01*
X0531652Y0115356D01*
X0531652Y0113368D01*
X0530247Y0111963D01*
X0528259Y0111963D01*
X0526854Y0113368D01*
X0527754Y0113741D01*
X0527754Y0114983D01*
X0528632Y0115861D01*
X0529874Y0115861D01*
X0530752Y0114983D01*
X0530752Y0113741D01*
X0529874Y0112863D01*
X0528632Y0112863D01*
X0527754Y0113741D01*
X0528654Y0114114D01*
X0528654Y0114610D01*
X0529005Y0114961D01*
X0529501Y0114961D01*
X0529852Y0114610D01*
X0529852Y0114114D01*
X0529501Y0113763D01*
X0529005Y0113763D01*
X0528654Y0114114D01*
X0534525Y0106897D02*
X0533925Y0106297D01*
X0533925Y0108285D01*
X0535330Y0109690D01*
X0537318Y0109690D01*
X0538723Y0108285D01*
X0538723Y0106297D01*
X0537318Y0104892D01*
X0535330Y0104892D01*
X0533925Y0106297D01*
X0534825Y0106670D01*
X0534825Y0107912D01*
X0535703Y0108790D01*
X0536945Y0108790D01*
X0537823Y0107912D01*
X0537823Y0106670D01*
X0536945Y0105792D01*
X0535703Y0105792D01*
X0534825Y0106670D01*
X0535725Y0107043D01*
X0535725Y0107539D01*
X0536076Y0107890D01*
X0536572Y0107890D01*
X0536923Y0107539D01*
X0536923Y0107043D01*
X0536572Y0106692D01*
X0536076Y0106692D01*
X0535725Y0107043D01*
X0541596Y0099826D02*
X0540996Y0099226D01*
X0540996Y0101214D01*
X0542401Y0102619D01*
X0544389Y0102619D01*
X0545794Y0101214D01*
X0545794Y0099226D01*
X0544389Y0097821D01*
X0542401Y0097821D01*
X0540996Y0099226D01*
X0541896Y0099599D01*
X0541896Y0100841D01*
X0542774Y0101719D01*
X0544016Y0101719D01*
X0544894Y0100841D01*
X0544894Y0099599D01*
X0544016Y0098721D01*
X0542774Y0098721D01*
X0541896Y0099599D01*
X0542796Y0099972D01*
X0542796Y0100468D01*
X0543147Y0100819D01*
X0543643Y0100819D01*
X0543994Y0100468D01*
X0543994Y0099972D01*
X0543643Y0099621D01*
X0543147Y0099621D01*
X0542796Y0099972D01*
X0548667Y0092755D02*
X0548067Y0092155D01*
X0548067Y0094143D01*
X0549472Y0095548D01*
X0551460Y0095548D01*
X0552865Y0094143D01*
X0552865Y0092155D01*
X0551460Y0090750D01*
X0549472Y0090750D01*
X0548067Y0092155D01*
X0548967Y0092528D01*
X0548967Y0093770D01*
X0549845Y0094648D01*
X0551087Y0094648D01*
X0551965Y0093770D01*
X0551965Y0092528D01*
X0551087Y0091650D01*
X0549845Y0091650D01*
X0548967Y0092528D01*
X0549867Y0092901D01*
X0549867Y0093397D01*
X0550218Y0093748D01*
X0550714Y0093748D01*
X0551065Y0093397D01*
X0551065Y0092901D01*
X0550714Y0092550D01*
X0550218Y0092550D01*
X0549867Y0092901D01*
X0818229Y0094948D02*
X0817629Y0095548D01*
X0819617Y0095548D01*
X0821022Y0094143D01*
X0821022Y0092155D01*
X0819617Y0090750D01*
X0817629Y0090750D01*
X0816224Y0092155D01*
X0816224Y0094143D01*
X0817629Y0095548D01*
X0818002Y0094648D01*
X0819244Y0094648D01*
X0820122Y0093770D01*
X0820122Y0092528D01*
X0819244Y0091650D01*
X0818002Y0091650D01*
X0817124Y0092528D01*
X0817124Y0093770D01*
X0818002Y0094648D01*
X0818375Y0093748D01*
X0818871Y0093748D01*
X0819222Y0093397D01*
X0819222Y0092901D01*
X0818871Y0092550D01*
X0818375Y0092550D01*
X0818024Y0092901D01*
X0818024Y0093397D01*
X0818375Y0093748D01*
X0825300Y0102019D02*
X0824700Y0102619D01*
X0826688Y0102619D01*
X0828093Y0101214D01*
X0828093Y0099226D01*
X0826688Y0097821D01*
X0824700Y0097821D01*
X0823295Y0099226D01*
X0823295Y0101214D01*
X0824700Y0102619D01*
X0825073Y0101719D01*
X0826315Y0101719D01*
X0827193Y0100841D01*
X0827193Y0099599D01*
X0826315Y0098721D01*
X0825073Y0098721D01*
X0824195Y0099599D01*
X0824195Y0100841D01*
X0825073Y0101719D01*
X0825446Y0100819D01*
X0825942Y0100819D01*
X0826293Y0100468D01*
X0826293Y0099972D01*
X0825942Y0099621D01*
X0825446Y0099621D01*
X0825095Y0099972D01*
X0825095Y0100468D01*
X0825446Y0100819D01*
X0832372Y0109090D02*
X0831772Y0109690D01*
X0833760Y0109690D01*
X0835165Y0108285D01*
X0835165Y0106297D01*
X0833760Y0104892D01*
X0831772Y0104892D01*
X0830367Y0106297D01*
X0830367Y0108285D01*
X0831772Y0109690D01*
X0832145Y0108790D01*
X0833387Y0108790D01*
X0834265Y0107912D01*
X0834265Y0106670D01*
X0833387Y0105792D01*
X0832145Y0105792D01*
X0831267Y0106670D01*
X0831267Y0107912D01*
X0832145Y0108790D01*
X0832518Y0107890D01*
X0833014Y0107890D01*
X0833365Y0107539D01*
X0833365Y0107043D01*
X0833014Y0106692D01*
X0832518Y0106692D01*
X0832167Y0107043D01*
X0832167Y0107539D01*
X0832518Y0107890D01*
X0839443Y0116161D02*
X0838843Y0116761D01*
X0840831Y0116761D01*
X0842236Y0115356D01*
X0842236Y0113368D01*
X0840831Y0111963D01*
X0838843Y0111963D01*
X0837438Y0113368D01*
X0837438Y0115356D01*
X0838843Y0116761D01*
X0839216Y0115861D01*
X0840458Y0115861D01*
X0841336Y0114983D01*
X0841336Y0113741D01*
X0840458Y0112863D01*
X0839216Y0112863D01*
X0838338Y0113741D01*
X0838338Y0114983D01*
X0839216Y0115861D01*
X0839589Y0114961D01*
X0840085Y0114961D01*
X0840436Y0114610D01*
X0840436Y0114114D01*
X0840085Y0113763D01*
X0839589Y0113763D01*
X0839238Y0114114D01*
X0839238Y0114610D01*
X0839589Y0114961D01*
D26*
X0730151Y0201031D03*
X0727283Y0202335D03*
X0724151Y0202031D03*
X0720651Y0201281D03*
X0716901Y0201281D03*
X0713651Y0202031D03*
X0707151Y0202031D03*
X0700584Y0204764D03*
X0697651Y0207781D03*
X0695401Y0206281D03*
X0697901Y0211781D03*
X0696151Y0217281D03*
X0693651Y0217281D03*
X0691151Y0217281D03*
X0682501Y0216931D03*
X0680153Y0220626D03*
X0680153Y0224563D03*
X0686846Y0224563D03*
X0682859Y0234189D03*
X0707319Y0234799D03*
X0728143Y0225187D03*
X0728151Y0222531D03*
X0730651Y0217785D03*
X0732901Y0218781D03*
X0735151Y0217785D03*
X0740151Y0218531D03*
X0742651Y0218531D03*
X0742651Y0222531D03*
X0742651Y0207656D03*
X0740151Y0207656D03*
X0734549Y0207232D03*
X0731850Y0207232D03*
X0729100Y0207232D03*
X0688901Y0204531D03*
X0687401Y0206781D03*
X0685901Y0204531D03*
X0684401Y0206781D03*
X0680464Y0204394D03*
X0676921Y0205575D03*
X0673378Y0205181D03*
X0676921Y0200850D03*
X0684401Y0202031D03*
X0687401Y0202031D03*
X0680071Y0212268D03*
X0675346Y0210299D03*
X0744191Y0237614D03*
D27*
X0730151Y0243031D02*
X0730151Y0246803D01*
X0734742Y0251394D01*
X0746553Y0251394D01*
X0750490Y0247457D01*
X0750490Y0186433D01*
X0735726Y0171669D01*
X0676671Y0171669D01*
X0656002Y0151000D01*
X0656002Y0101787D01*
X0647537Y0093323D01*
X0645844Y0093323D01*
D28*
X0711661Y0187539D02*
X0711661Y0189097D01*
X0711781Y0189097D01*
X0714086Y0191402D01*
X0714086Y0194661D01*
X0712861Y0195886D01*
X0717442Y0195886D01*
X0716217Y0194661D01*
X0716217Y0191402D01*
X0718521Y0189097D01*
X0721781Y0189097D01*
X0724086Y0191402D01*
X0724086Y0194661D01*
X0721880Y0196868D01*
X0724669Y0199657D01*
X0725401Y0200389D01*
X0725401Y0200558D01*
X0726076Y0201234D01*
X0726076Y0202829D01*
X0724949Y0203957D01*
X0723354Y0203957D01*
X0722226Y0202829D01*
X0722226Y0202429D01*
X0721449Y0203207D01*
X0719854Y0203207D01*
X0718776Y0202129D01*
X0717699Y0203207D01*
X0716104Y0203207D01*
X0715576Y0202679D01*
X0715576Y0202829D01*
X0714449Y0203957D01*
X0712854Y0203957D01*
X0711726Y0202829D01*
X0711726Y0201234D01*
X0711929Y0201031D01*
X0708873Y0201031D01*
X0709076Y0201234D01*
X0709076Y0202829D01*
X0707949Y0203957D01*
X0706354Y0203957D01*
X0705226Y0202829D01*
X0705226Y0201234D01*
X0705429Y0201031D01*
X0688884Y0201031D01*
X0683300Y0195447D01*
X0681781Y0196966D01*
X0678521Y0196966D01*
X0676217Y0194661D01*
X0676217Y0191402D01*
X0676512Y0191106D01*
X0675136Y0189730D01*
X0672414Y0189730D01*
X0674086Y0191402D01*
X0674086Y0194661D01*
X0671781Y0196966D01*
X0668521Y0196966D01*
X0666217Y0194661D01*
X0666217Y0191876D01*
X0664758Y0193335D01*
X0664758Y0248244D01*
X0683500Y0248195D01*
X0683500Y0248061D01*
X0683500Y0247521D01*
X0683500Y0247520D01*
X0683501Y0245812D01*
X0681947Y0247366D01*
X0680486Y0247366D01*
X0680486Y0243366D01*
X0679817Y0243366D01*
X0679817Y0247366D01*
X0678356Y0247366D01*
X0675817Y0244827D01*
X0675817Y0243366D01*
X0679817Y0243366D01*
X0679817Y0242697D01*
X0680486Y0242697D01*
X0680486Y0238697D01*
X0681947Y0238697D01*
X0683502Y0240252D01*
X0683503Y0236115D01*
X0682062Y0236115D01*
X0680934Y0234987D01*
X0680934Y0233392D01*
X0681252Y0233074D01*
X0681252Y0218405D01*
X0680576Y0217729D01*
X0680576Y0216134D01*
X0681704Y0215006D01*
X0683299Y0215006D01*
X0684426Y0216134D01*
X0684426Y0217729D01*
X0683751Y0218405D01*
X0683751Y0219726D01*
X0683854Y0219623D01*
X0687199Y0215602D01*
X0687199Y0215532D01*
X0687545Y0215186D01*
X0687858Y0214810D01*
X0687928Y0214804D01*
X0687977Y0214754D01*
X0688466Y0214754D01*
X0688954Y0214710D01*
X0689007Y0214754D01*
X0691937Y0214754D01*
X0691937Y0204214D01*
X0692715Y0203435D01*
X0697110Y0203435D01*
X0697631Y0203413D01*
X0697656Y0203435D01*
X0697690Y0203435D01*
X0698058Y0203804D01*
X0703554Y0208841D01*
X0703587Y0208841D01*
X0703956Y0209210D01*
X0704340Y0209562D01*
X0704342Y0209595D01*
X0704365Y0209619D01*
X0704365Y0210140D01*
X0704388Y0210661D01*
X0704365Y0210686D01*
X0704365Y0220938D01*
X0705564Y0222136D01*
X0706342Y0222914D01*
X0706342Y0233251D01*
X0720425Y0220410D01*
X0720425Y0211153D01*
X0720387Y0211108D01*
X0720425Y0210610D01*
X0720425Y0210111D01*
X0720467Y0210070D01*
X0720471Y0210011D01*
X0720850Y0209686D01*
X0721203Y0209333D01*
X0721262Y0209333D01*
X0727732Y0203788D01*
X0728085Y0203435D01*
X0728144Y0203435D01*
X0728189Y0203397D01*
X0728687Y0203435D01*
X0737060Y0203435D01*
X0737838Y0204214D01*
X0737838Y0215517D01*
X0737854Y0215532D01*
X0737854Y0232075D01*
X0737900Y0232131D01*
X0737854Y0232616D01*
X0737854Y0233103D01*
X0737802Y0233155D01*
X0737796Y0233227D01*
X0737420Y0233537D01*
X0737075Y0233881D01*
X0737003Y0233881D01*
X0730692Y0239097D01*
X0731781Y0239097D01*
X0734086Y0241402D01*
X0734086Y0244661D01*
X0733100Y0245647D01*
X0735511Y0248057D01*
X0745151Y0248031D01*
X0745151Y0188031D01*
X0711661Y0187539D01*
X0711661Y0187999D02*
X0742948Y0187999D01*
X0743538Y0189097D02*
X0744086Y0189644D01*
X0744086Y0196419D01*
X0743538Y0196966D01*
X0736764Y0196966D01*
X0736217Y0196419D01*
X0736217Y0189644D01*
X0736764Y0189097D01*
X0743538Y0189097D01*
X0743776Y0189335D02*
X0745151Y0189335D01*
X0745151Y0190003D02*
X0744086Y0190003D01*
X0744086Y0190670D02*
X0745151Y0190670D01*
X0745151Y0191338D02*
X0744086Y0191338D01*
X0744086Y0192006D02*
X0745151Y0192006D01*
X0745151Y0192674D02*
X0744086Y0192674D01*
X0744086Y0193342D02*
X0745151Y0193342D01*
X0745151Y0194009D02*
X0744086Y0194009D01*
X0744086Y0194677D02*
X0745151Y0194677D01*
X0745151Y0195345D02*
X0744086Y0195345D01*
X0744086Y0196013D02*
X0745151Y0196013D01*
X0745151Y0196681D02*
X0743824Y0196681D01*
X0745151Y0197348D02*
X0731480Y0197348D01*
X0731480Y0196966D02*
X0731480Y0199637D01*
X0732076Y0200234D01*
X0732076Y0201829D01*
X0730949Y0202957D01*
X0729354Y0202957D01*
X0728226Y0201829D01*
X0728226Y0200234D01*
X0728823Y0199637D01*
X0728823Y0196966D01*
X0728521Y0196966D01*
X0726217Y0194661D01*
X0726217Y0191402D01*
X0728521Y0189097D01*
X0731781Y0189097D01*
X0734086Y0191402D01*
X0734086Y0194661D01*
X0731781Y0196966D01*
X0731480Y0196966D01*
X0732067Y0196681D02*
X0736479Y0196681D01*
X0736217Y0196013D02*
X0732734Y0196013D01*
X0733402Y0195345D02*
X0736217Y0195345D01*
X0736217Y0194677D02*
X0734070Y0194677D01*
X0734086Y0194009D02*
X0736217Y0194009D01*
X0736217Y0193342D02*
X0734086Y0193342D01*
X0734086Y0192674D02*
X0736217Y0192674D01*
X0736217Y0192006D02*
X0734086Y0192006D01*
X0734022Y0191338D02*
X0736217Y0191338D01*
X0736217Y0190670D02*
X0733355Y0190670D01*
X0732687Y0190003D02*
X0736217Y0190003D01*
X0736526Y0189335D02*
X0732019Y0189335D01*
X0728284Y0189335D02*
X0722019Y0189335D01*
X0722687Y0190003D02*
X0727616Y0190003D01*
X0726948Y0190670D02*
X0723355Y0190670D01*
X0724022Y0191338D02*
X0726280Y0191338D01*
X0726217Y0192006D02*
X0724086Y0192006D01*
X0724086Y0192674D02*
X0726217Y0192674D01*
X0726217Y0193342D02*
X0724086Y0193342D01*
X0724086Y0194009D02*
X0726217Y0194009D01*
X0726232Y0194677D02*
X0724070Y0194677D01*
X0723402Y0195345D02*
X0726900Y0195345D01*
X0727568Y0196013D02*
X0722734Y0196013D01*
X0722067Y0196681D02*
X0728236Y0196681D01*
X0728823Y0197348D02*
X0722360Y0197348D01*
X0723028Y0198016D02*
X0728823Y0198016D01*
X0728823Y0198684D02*
X0723696Y0198684D01*
X0724364Y0199352D02*
X0728823Y0199352D01*
X0728441Y0200020D02*
X0725032Y0200020D01*
X0725530Y0200687D02*
X0728226Y0200687D01*
X0728226Y0201355D02*
X0726076Y0201355D01*
X0726076Y0202023D02*
X0728420Y0202023D01*
X0729088Y0202691D02*
X0726076Y0202691D01*
X0725547Y0203359D02*
X0745151Y0203359D01*
X0745151Y0204026D02*
X0737651Y0204026D01*
X0737838Y0204694D02*
X0745151Y0204694D01*
X0745151Y0205362D02*
X0737838Y0205362D01*
X0737838Y0206030D02*
X0745151Y0206030D01*
X0745151Y0206698D02*
X0737838Y0206698D01*
X0737838Y0207365D02*
X0745151Y0207365D01*
X0745151Y0208033D02*
X0737838Y0208033D01*
X0737838Y0208701D02*
X0745151Y0208701D01*
X0745151Y0209369D02*
X0737838Y0209369D01*
X0737838Y0210037D02*
X0745151Y0210037D01*
X0745151Y0210704D02*
X0737838Y0210704D01*
X0737838Y0211372D02*
X0745151Y0211372D01*
X0745151Y0212040D02*
X0737838Y0212040D01*
X0737838Y0212708D02*
X0745151Y0212708D01*
X0745151Y0213376D02*
X0737838Y0213376D01*
X0737838Y0214043D02*
X0745151Y0214043D01*
X0745151Y0214711D02*
X0737838Y0214711D01*
X0737838Y0215379D02*
X0745151Y0215379D01*
X0745151Y0216047D02*
X0737854Y0216047D01*
X0737854Y0216715D02*
X0745151Y0216715D01*
X0745151Y0217382D02*
X0737854Y0217382D01*
X0737854Y0218050D02*
X0745151Y0218050D01*
X0745151Y0218718D02*
X0737854Y0218718D01*
X0737854Y0219386D02*
X0745151Y0219386D01*
X0745151Y0220054D02*
X0737854Y0220054D01*
X0737854Y0220721D02*
X0745151Y0220721D01*
X0745151Y0221389D02*
X0737854Y0221389D01*
X0737854Y0222057D02*
X0745151Y0222057D01*
X0745151Y0222725D02*
X0737854Y0222725D01*
X0737854Y0223393D02*
X0745151Y0223393D01*
X0745151Y0224060D02*
X0737854Y0224060D01*
X0737854Y0224728D02*
X0745151Y0224728D01*
X0745151Y0225396D02*
X0737854Y0225396D01*
X0737854Y0226064D02*
X0745151Y0226064D01*
X0745151Y0226732D02*
X0737854Y0226732D01*
X0737854Y0227399D02*
X0745151Y0227399D01*
X0745151Y0228067D02*
X0737854Y0228067D01*
X0737854Y0228735D02*
X0745151Y0228735D01*
X0745151Y0229403D02*
X0737854Y0229403D01*
X0737854Y0230071D02*
X0745151Y0230071D01*
X0745151Y0230738D02*
X0737854Y0230738D01*
X0737854Y0231406D02*
X0745151Y0231406D01*
X0745151Y0232074D02*
X0737854Y0232074D01*
X0737854Y0232742D02*
X0745151Y0232742D01*
X0745151Y0233410D02*
X0737574Y0233410D01*
X0736766Y0234078D02*
X0745151Y0234078D01*
X0745151Y0234745D02*
X0735958Y0234745D01*
X0735150Y0235413D02*
X0745151Y0235413D01*
X0745151Y0236081D02*
X0734341Y0236081D01*
X0733533Y0236749D02*
X0745151Y0236749D01*
X0745151Y0237417D02*
X0732725Y0237417D01*
X0731917Y0238084D02*
X0745151Y0238084D01*
X0745151Y0238752D02*
X0742002Y0238752D01*
X0741947Y0238697D02*
X0744486Y0241236D01*
X0744486Y0242697D01*
X0740486Y0242697D01*
X0740486Y0243366D01*
X0744486Y0243366D01*
X0744486Y0244827D01*
X0741947Y0247366D01*
X0740486Y0247366D01*
X0740486Y0243366D01*
X0739817Y0243366D01*
X0739817Y0247366D01*
X0738356Y0247366D01*
X0735817Y0244827D01*
X0735817Y0243366D01*
X0739817Y0243366D01*
X0739817Y0242697D01*
X0740486Y0242697D01*
X0740486Y0238697D01*
X0741947Y0238697D01*
X0742670Y0239420D02*
X0745151Y0239420D01*
X0745151Y0240088D02*
X0743338Y0240088D01*
X0744005Y0240756D02*
X0745151Y0240756D01*
X0745151Y0241423D02*
X0744486Y0241423D01*
X0744486Y0242091D02*
X0745151Y0242091D01*
X0745151Y0242759D02*
X0740486Y0242759D01*
X0740486Y0243427D02*
X0739817Y0243427D01*
X0739817Y0244095D02*
X0740486Y0244095D01*
X0740486Y0244762D02*
X0739817Y0244762D01*
X0739817Y0245430D02*
X0740486Y0245430D01*
X0740486Y0246098D02*
X0739817Y0246098D01*
X0739817Y0246766D02*
X0740486Y0246766D01*
X0742547Y0246766D02*
X0745151Y0246766D01*
X0745151Y0247434D02*
X0734887Y0247434D01*
X0734220Y0246766D02*
X0737755Y0246766D01*
X0737088Y0246098D02*
X0733552Y0246098D01*
X0733317Y0245430D02*
X0736420Y0245430D01*
X0735817Y0244762D02*
X0733985Y0244762D01*
X0734086Y0244095D02*
X0735817Y0244095D01*
X0735817Y0243427D02*
X0734086Y0243427D01*
X0734086Y0242759D02*
X0739817Y0242759D01*
X0739817Y0242697D02*
X0735817Y0242697D01*
X0735817Y0241236D01*
X0738356Y0238697D01*
X0739817Y0238697D01*
X0739817Y0242697D01*
X0739817Y0242091D02*
X0740486Y0242091D01*
X0740486Y0241423D02*
X0739817Y0241423D01*
X0739817Y0240756D02*
X0740486Y0240756D01*
X0740486Y0240088D02*
X0739817Y0240088D01*
X0739817Y0239420D02*
X0740486Y0239420D01*
X0740486Y0238752D02*
X0739817Y0238752D01*
X0738300Y0238752D02*
X0731109Y0238752D01*
X0732104Y0239420D02*
X0737633Y0239420D01*
X0736965Y0240088D02*
X0732772Y0240088D01*
X0733440Y0240756D02*
X0736297Y0240756D01*
X0735817Y0241423D02*
X0734086Y0241423D01*
X0734086Y0242091D02*
X0735817Y0242091D01*
X0743215Y0246098D02*
X0745151Y0246098D01*
X0745151Y0245430D02*
X0743883Y0245430D01*
X0744486Y0244762D02*
X0745151Y0244762D01*
X0745151Y0244095D02*
X0744486Y0244095D01*
X0744486Y0243427D02*
X0745151Y0243427D01*
X0712027Y0228067D02*
X0706342Y0228067D01*
X0706342Y0227399D02*
X0712759Y0227399D01*
X0713492Y0226732D02*
X0706342Y0226732D01*
X0706342Y0226064D02*
X0714224Y0226064D01*
X0714956Y0225396D02*
X0706342Y0225396D01*
X0706342Y0224728D02*
X0715689Y0224728D01*
X0716421Y0224060D02*
X0706342Y0224060D01*
X0706342Y0223393D02*
X0717154Y0223393D01*
X0717886Y0222725D02*
X0706152Y0222725D01*
X0705484Y0222057D02*
X0718618Y0222057D01*
X0719351Y0221389D02*
X0704817Y0221389D01*
X0704365Y0220721D02*
X0720083Y0220721D01*
X0720425Y0220054D02*
X0704365Y0220054D01*
X0704365Y0219386D02*
X0720425Y0219386D01*
X0720425Y0218718D02*
X0704365Y0218718D01*
X0704365Y0218050D02*
X0720425Y0218050D01*
X0720425Y0217382D02*
X0704365Y0217382D01*
X0704365Y0216715D02*
X0720425Y0216715D01*
X0720425Y0216047D02*
X0704365Y0216047D01*
X0704365Y0215379D02*
X0720425Y0215379D01*
X0720425Y0214711D02*
X0704365Y0214711D01*
X0704365Y0214043D02*
X0720425Y0214043D01*
X0720425Y0213376D02*
X0704365Y0213376D01*
X0704365Y0212708D02*
X0720425Y0212708D01*
X0720425Y0212040D02*
X0704365Y0212040D01*
X0704365Y0211372D02*
X0720425Y0211372D01*
X0720418Y0210704D02*
X0704365Y0210704D01*
X0704365Y0210037D02*
X0720469Y0210037D01*
X0721168Y0209369D02*
X0704130Y0209369D01*
X0703401Y0208701D02*
X0722000Y0208701D01*
X0722779Y0208033D02*
X0702672Y0208033D01*
X0701944Y0207365D02*
X0723558Y0207365D01*
X0724338Y0206698D02*
X0701215Y0206698D01*
X0700487Y0206030D02*
X0725117Y0206030D01*
X0725896Y0205362D02*
X0699758Y0205362D01*
X0699029Y0204694D02*
X0726675Y0204694D01*
X0727455Y0204026D02*
X0698301Y0204026D01*
X0692124Y0204026D02*
X0664758Y0204026D01*
X0664758Y0203359D02*
X0705756Y0203359D01*
X0705226Y0202691D02*
X0664758Y0202691D01*
X0664758Y0202023D02*
X0705226Y0202023D01*
X0705226Y0201355D02*
X0664758Y0201355D01*
X0664758Y0200687D02*
X0688540Y0200687D01*
X0687872Y0200020D02*
X0664758Y0200020D01*
X0664758Y0199352D02*
X0687204Y0199352D01*
X0686537Y0198684D02*
X0664758Y0198684D01*
X0664758Y0198016D02*
X0685869Y0198016D01*
X0685201Y0197348D02*
X0664758Y0197348D01*
X0664758Y0196681D02*
X0668236Y0196681D01*
X0667568Y0196013D02*
X0664758Y0196013D01*
X0664758Y0195345D02*
X0666900Y0195345D01*
X0666232Y0194677D02*
X0664758Y0194677D01*
X0664758Y0194009D02*
X0666217Y0194009D01*
X0666217Y0193342D02*
X0664758Y0193342D01*
X0665419Y0192674D02*
X0666217Y0192674D01*
X0666217Y0192006D02*
X0666087Y0192006D01*
X0672687Y0190003D02*
X0675409Y0190003D01*
X0676077Y0190670D02*
X0673354Y0190670D01*
X0674022Y0191338D02*
X0676280Y0191338D01*
X0676217Y0192006D02*
X0674086Y0192006D01*
X0674086Y0192674D02*
X0676217Y0192674D01*
X0676217Y0193342D02*
X0674086Y0193342D01*
X0674086Y0194009D02*
X0676217Y0194009D01*
X0676232Y0194677D02*
X0674070Y0194677D01*
X0673402Y0195345D02*
X0676900Y0195345D01*
X0677568Y0196013D02*
X0672734Y0196013D01*
X0672067Y0196681D02*
X0678236Y0196681D01*
X0682067Y0196681D02*
X0684533Y0196681D01*
X0683865Y0196013D02*
X0682734Y0196013D01*
X0691937Y0204694D02*
X0664758Y0204694D01*
X0664758Y0205362D02*
X0691937Y0205362D01*
X0691937Y0206030D02*
X0664758Y0206030D01*
X0664758Y0206698D02*
X0691937Y0206698D01*
X0691937Y0207365D02*
X0664758Y0207365D01*
X0664758Y0208033D02*
X0691937Y0208033D01*
X0691937Y0208701D02*
X0664758Y0208701D01*
X0664758Y0209369D02*
X0691937Y0209369D01*
X0691937Y0210037D02*
X0664758Y0210037D01*
X0664758Y0210704D02*
X0691937Y0210704D01*
X0691937Y0211372D02*
X0664758Y0211372D01*
X0664758Y0212040D02*
X0691937Y0212040D01*
X0691937Y0212708D02*
X0664758Y0212708D01*
X0664758Y0213376D02*
X0691937Y0213376D01*
X0691937Y0214043D02*
X0664758Y0214043D01*
X0664758Y0214711D02*
X0688936Y0214711D01*
X0688956Y0214711D02*
X0691937Y0214711D01*
X0687352Y0215379D02*
X0683671Y0215379D01*
X0684339Y0216047D02*
X0686829Y0216047D01*
X0686274Y0216715D02*
X0684426Y0216715D01*
X0684426Y0217382D02*
X0685718Y0217382D01*
X0685163Y0218050D02*
X0684105Y0218050D01*
X0683751Y0218718D02*
X0684607Y0218718D01*
X0684052Y0219386D02*
X0683751Y0219386D01*
X0681252Y0219386D02*
X0664758Y0219386D01*
X0664758Y0220054D02*
X0681252Y0220054D01*
X0681252Y0220721D02*
X0664758Y0220721D01*
X0664758Y0221389D02*
X0681252Y0221389D01*
X0681252Y0222057D02*
X0664758Y0222057D01*
X0664758Y0222725D02*
X0681252Y0222725D01*
X0681252Y0223393D02*
X0664758Y0223393D01*
X0664758Y0224060D02*
X0681252Y0224060D01*
X0681252Y0224728D02*
X0664758Y0224728D01*
X0664758Y0225396D02*
X0681252Y0225396D01*
X0681252Y0226064D02*
X0664758Y0226064D01*
X0664758Y0226732D02*
X0681252Y0226732D01*
X0681252Y0227399D02*
X0664758Y0227399D01*
X0664758Y0228067D02*
X0681252Y0228067D01*
X0681252Y0228735D02*
X0664758Y0228735D01*
X0664758Y0229403D02*
X0681252Y0229403D01*
X0681252Y0230071D02*
X0664758Y0230071D01*
X0664758Y0230738D02*
X0681252Y0230738D01*
X0681252Y0231406D02*
X0664758Y0231406D01*
X0664758Y0232074D02*
X0681252Y0232074D01*
X0681252Y0232742D02*
X0664758Y0232742D01*
X0664758Y0233410D02*
X0680934Y0233410D01*
X0680934Y0234078D02*
X0664758Y0234078D01*
X0664758Y0234745D02*
X0680934Y0234745D01*
X0681360Y0235413D02*
X0664758Y0235413D01*
X0664758Y0236081D02*
X0682028Y0236081D01*
X0683503Y0236749D02*
X0664758Y0236749D01*
X0664758Y0237417D02*
X0683503Y0237417D01*
X0683503Y0238084D02*
X0664758Y0238084D01*
X0664758Y0238752D02*
X0678300Y0238752D01*
X0678356Y0238697D02*
X0679817Y0238697D01*
X0679817Y0242697D01*
X0675817Y0242697D01*
X0675817Y0241236D01*
X0678356Y0238697D01*
X0677633Y0239420D02*
X0673861Y0239420D01*
X0674086Y0239644D02*
X0673538Y0239097D01*
X0666764Y0239097D01*
X0666217Y0239644D01*
X0666217Y0246419D01*
X0666764Y0246966D01*
X0673538Y0246966D01*
X0674086Y0246419D01*
X0674086Y0239644D01*
X0674086Y0240088D02*
X0676965Y0240088D01*
X0676297Y0240756D02*
X0674086Y0240756D01*
X0674086Y0241423D02*
X0675817Y0241423D01*
X0675817Y0242091D02*
X0674086Y0242091D01*
X0674086Y0242759D02*
X0679817Y0242759D01*
X0679817Y0243427D02*
X0680486Y0243427D01*
X0680486Y0244095D02*
X0679817Y0244095D01*
X0679817Y0244762D02*
X0680486Y0244762D01*
X0680486Y0245430D02*
X0679817Y0245430D01*
X0679817Y0246098D02*
X0680486Y0246098D01*
X0680486Y0246766D02*
X0679817Y0246766D01*
X0677755Y0246766D02*
X0673739Y0246766D01*
X0674086Y0246098D02*
X0677088Y0246098D01*
X0676420Y0245430D02*
X0674086Y0245430D01*
X0674086Y0244762D02*
X0675817Y0244762D01*
X0675817Y0244095D02*
X0674086Y0244095D01*
X0674086Y0243427D02*
X0675817Y0243427D01*
X0679817Y0242091D02*
X0680486Y0242091D01*
X0680486Y0241423D02*
X0679817Y0241423D01*
X0679817Y0240756D02*
X0680486Y0240756D01*
X0680486Y0240088D02*
X0679817Y0240088D01*
X0679817Y0239420D02*
X0680486Y0239420D01*
X0680486Y0238752D02*
X0679817Y0238752D01*
X0682002Y0238752D02*
X0683503Y0238752D01*
X0683503Y0239420D02*
X0682670Y0239420D01*
X0683338Y0240088D02*
X0683502Y0240088D01*
X0666441Y0239420D02*
X0664758Y0239420D01*
X0664758Y0240088D02*
X0666217Y0240088D01*
X0666217Y0240756D02*
X0664758Y0240756D01*
X0664758Y0241423D02*
X0666217Y0241423D01*
X0666217Y0242091D02*
X0664758Y0242091D01*
X0664758Y0242759D02*
X0666217Y0242759D01*
X0666217Y0243427D02*
X0664758Y0243427D01*
X0664758Y0244095D02*
X0666217Y0244095D01*
X0666217Y0244762D02*
X0664758Y0244762D01*
X0664758Y0245430D02*
X0666217Y0245430D01*
X0666217Y0246098D02*
X0664758Y0246098D01*
X0664758Y0246766D02*
X0666564Y0246766D01*
X0664758Y0247434D02*
X0683500Y0247434D01*
X0683500Y0248101D02*
X0664758Y0248101D01*
X0682547Y0246766D02*
X0683500Y0246766D01*
X0683501Y0246098D02*
X0683215Y0246098D01*
X0706342Y0232742D02*
X0706900Y0232742D01*
X0706342Y0232074D02*
X0707633Y0232074D01*
X0708365Y0231406D02*
X0706342Y0231406D01*
X0706342Y0230738D02*
X0709097Y0230738D01*
X0709830Y0230071D02*
X0706342Y0230071D01*
X0706342Y0229403D02*
X0710562Y0229403D01*
X0711295Y0228735D02*
X0706342Y0228735D01*
X0681252Y0218718D02*
X0664758Y0218718D01*
X0664758Y0218050D02*
X0680897Y0218050D01*
X0680576Y0217382D02*
X0664758Y0217382D01*
X0664758Y0216715D02*
X0680576Y0216715D01*
X0680663Y0216047D02*
X0664758Y0216047D01*
X0664758Y0215379D02*
X0681331Y0215379D01*
X0708547Y0203359D02*
X0712256Y0203359D01*
X0711726Y0202691D02*
X0709076Y0202691D01*
X0709076Y0202023D02*
X0711726Y0202023D01*
X0711726Y0201355D02*
X0709076Y0201355D01*
X0715047Y0203359D02*
X0722756Y0203359D01*
X0722226Y0202691D02*
X0721965Y0202691D01*
X0719338Y0202691D02*
X0718215Y0202691D01*
X0715588Y0202691D02*
X0715576Y0202691D01*
X0731215Y0202691D02*
X0745151Y0202691D01*
X0745151Y0202023D02*
X0731882Y0202023D01*
X0732076Y0201355D02*
X0745151Y0201355D01*
X0745151Y0200687D02*
X0732076Y0200687D01*
X0731862Y0200020D02*
X0745151Y0200020D01*
X0745151Y0199352D02*
X0731480Y0199352D01*
X0731480Y0198684D02*
X0745151Y0198684D01*
X0745151Y0198016D02*
X0731480Y0198016D01*
X0716900Y0195345D02*
X0713402Y0195345D01*
X0714070Y0194677D02*
X0716232Y0194677D01*
X0716217Y0194009D02*
X0714086Y0194009D01*
X0714086Y0193342D02*
X0716217Y0193342D01*
X0716217Y0192674D02*
X0714086Y0192674D01*
X0714086Y0192006D02*
X0716217Y0192006D01*
X0716280Y0191338D02*
X0714022Y0191338D01*
X0713355Y0190670D02*
X0716948Y0190670D01*
X0717616Y0190003D02*
X0712687Y0190003D01*
X0712019Y0189335D02*
X0718284Y0189335D01*
X0711661Y0188667D02*
X0745151Y0188667D01*
D29*
X0719285Y0211177D03*
X0719285Y0214130D03*
X0719285Y0217083D03*
X0719285Y0220035D03*
X0715840Y0220035D03*
X0715840Y0217083D03*
X0715840Y0214130D03*
X0715840Y0211177D03*
X0712395Y0211130D03*
X0712395Y0214130D03*
X0712395Y0217083D03*
X0712395Y0220035D03*
X0708950Y0220035D03*
X0708950Y0217083D03*
X0708950Y0214130D03*
X0708950Y0211177D03*
X0705506Y0211177D03*
X0705506Y0214130D03*
X0705506Y0217083D03*
X0705506Y0220035D03*
D30*
X0757576Y0214386D03*
X0757183Y0206512D03*
X0767419Y0209268D03*
X0778049Y0210449D03*
X0766632Y0215961D03*
X0828246Y0202181D03*
X0784939Y0187417D03*
X0801671Y0181118D03*
X0794781Y0174228D03*
X0804624Y0171276D03*
X0813482Y0173047D03*
X0824506Y0169504D03*
X0818206Y0162417D03*
X0808364Y0162811D03*
X0799702Y0162417D03*
X0804427Y0156512D03*
X0816632Y0152575D03*
X0803246Y0147850D03*
X0791435Y0147850D03*
X0775293Y0148638D03*
X0764466Y0154740D03*
X0748718Y0144504D03*
X0719781Y0135252D03*
X0694978Y0134858D03*
X0691435Y0134858D03*
X0691435Y0138402D03*
X0694978Y0138402D03*
X0693010Y0131315D03*
X0691435Y0127772D03*
X0694978Y0127772D03*
X0694978Y0124228D03*
X0691435Y0124228D03*
X0683561Y0126984D03*
X0662301Y0124228D03*
X0683364Y0119701D03*
X0715057Y0120291D03*
X0714663Y0112024D03*
X0708954Y0100016D03*
X0725687Y0080528D03*
X0692616Y0079740D03*
X0662301Y0133677D03*
X0706789Y0147850D03*
X0715057Y0147850D03*
X0693994Y0158677D03*
X0669387Y0151394D03*
X0756789Y0189583D03*
X0756395Y0195488D03*
X0830017Y0181709D03*
X0869387Y0183283D03*
X0861907Y0163598D03*
X0844978Y0162811D03*
X0856789Y0157299D03*
X0852458Y0148638D03*
X0865057Y0147850D03*
X0836710Y0145488D03*
X0628443Y0225803D03*
X0614663Y0225803D03*
X0592025Y0301591D03*
X0614663Y0306512D03*
X0602852Y0312417D03*
X0564466Y0311433D03*
X0564466Y0301591D03*
D31*
X0564545Y0301512D01*
X0569584Y0301512D01*
X0592025Y0301591D02*
X0592104Y0301512D01*
X0597143Y0301512D01*
X0608561Y0306512D02*
X0614663Y0306512D01*
X0602852Y0312417D02*
X0596238Y0312417D01*
X0597143Y0311512D01*
X0569584Y0311512D02*
X0564545Y0311512D01*
X0564466Y0311433D01*
X0828246Y0202181D02*
X0828246Y0189386D01*
X0823324Y0184465D01*
X0787891Y0184465D01*
X0784939Y0187417D01*
D32*
X0791828Y0187767D02*
X0821356Y0187767D01*
X0821356Y0188553D02*
X0791828Y0188553D01*
X0791828Y0189339D02*
X0821356Y0189339D01*
X0821356Y0190124D02*
X0791828Y0190124D01*
X0791828Y0190910D02*
X0821356Y0190910D01*
X0821356Y0191696D02*
X0791828Y0191696D01*
X0791828Y0192482D02*
X0821356Y0192482D01*
X0821356Y0193268D02*
X0791828Y0193268D01*
X0791828Y0194054D02*
X0821356Y0194054D01*
X0821356Y0194840D02*
X0791828Y0194840D01*
X0791828Y0195626D02*
X0821356Y0195626D01*
X0821356Y0196412D02*
X0791828Y0196412D01*
X0791828Y0197198D02*
X0821356Y0197198D01*
X0821356Y0197984D02*
X0791828Y0197984D01*
X0791828Y0198769D02*
X0821356Y0198769D01*
X0821356Y0199555D02*
X0791828Y0199555D01*
X0791828Y0200341D02*
X0821356Y0200341D01*
X0821356Y0201127D02*
X0791828Y0201127D01*
X0791828Y0201913D02*
X0821356Y0201913D01*
X0821356Y0202699D02*
X0791828Y0202699D01*
X0791828Y0203485D02*
X0821356Y0203485D01*
X0821356Y0204271D02*
X0791828Y0204271D01*
X0791828Y0205057D02*
X0821356Y0205057D01*
X0821356Y0205843D02*
X0791828Y0205843D01*
X0791828Y0206629D02*
X0821356Y0206629D01*
X0821356Y0207415D02*
X0791828Y0207415D01*
X0791828Y0208087D02*
X0791828Y0186827D01*
X0821356Y0186827D01*
X0821356Y0208087D01*
X0791828Y0208087D01*
X0736510Y0208200D02*
X0724625Y0208200D01*
X0725542Y0207415D02*
X0736510Y0207415D01*
X0736510Y0206629D02*
X0726459Y0206629D01*
X0727377Y0205843D02*
X0736510Y0205843D01*
X0736510Y0205057D02*
X0728294Y0205057D01*
X0728635Y0204764D02*
X0721754Y0210661D01*
X0721754Y0220996D01*
X0721466Y0221258D01*
X0721466Y0221634D01*
X0720884Y0222217D01*
X0720415Y0222217D01*
X0708451Y0233125D01*
X0709303Y0233977D01*
X0709303Y0235621D01*
X0708140Y0236783D01*
X0706497Y0236783D01*
X0706401Y0236688D01*
X0706401Y0247517D01*
X0706415Y0247532D01*
X0706401Y0248071D01*
X0715348Y0248071D01*
X0715348Y0237736D01*
X0727834Y0227171D01*
X0727321Y0227171D01*
X0726159Y0226009D01*
X0726159Y0224365D01*
X0726669Y0223855D01*
X0726167Y0223353D01*
X0726167Y0221710D01*
X0727329Y0220547D01*
X0728143Y0220547D01*
X0728143Y0215344D01*
X0736510Y0215344D01*
X0736510Y0204764D01*
X0728635Y0204764D01*
X0730151Y0201031D02*
X0730151Y0193031D01*
X0710332Y0192850D02*
X0710332Y0186827D01*
X0701080Y0177575D01*
X0665057Y0177575D01*
X0654033Y0188598D01*
X0600569Y0188598D01*
X0585844Y0203323D01*
X0580411Y0207299D02*
X0580411Y0188756D01*
X0585844Y0183323D01*
X0576868Y0182299D02*
X0576868Y0210449D01*
X0614368Y0247949D01*
X0644761Y0247949D01*
X0679624Y0282811D01*
X0679545Y0282890D01*
X0689545Y0282890D02*
X0650175Y0243520D01*
X0616632Y0243520D01*
X0580411Y0207299D01*
X0573324Y0213205D02*
X0573324Y0175843D01*
X0585844Y0163323D01*
X0585844Y0153323D02*
X0569781Y0169386D01*
X0569781Y0215961D01*
X0610628Y0256807D01*
X0633462Y0256807D01*
X0659545Y0282890D01*
X0669545Y0282890D02*
X0639033Y0252378D01*
X0612498Y0252378D01*
X0573324Y0213205D01*
X0566238Y0218717D02*
X0566238Y0162929D01*
X0585844Y0143323D01*
X0585844Y0133323D02*
X0562695Y0156472D01*
X0562695Y0221079D01*
X0606297Y0264681D01*
X0621336Y0264681D01*
X0639545Y0282890D01*
X0649545Y0282890D02*
X0627399Y0260744D01*
X0608265Y0260744D01*
X0566238Y0218717D01*
X0559151Y0223835D02*
X0604230Y0268913D01*
X0615569Y0268913D01*
X0629545Y0282890D01*
X0619545Y0282890D02*
X0608324Y0271669D01*
X0601080Y0271669D01*
X0555608Y0226197D01*
X0555608Y0143559D01*
X0585844Y0113323D01*
X0585844Y0103323D02*
X0552065Y0137102D01*
X0552065Y0228953D01*
X0597537Y0274425D01*
X0601080Y0274425D01*
X0609545Y0282890D01*
X0599545Y0282890D02*
X0593836Y0277181D01*
X0548521Y0231866D01*
X0548521Y0130646D01*
X0585844Y0093323D01*
X0585844Y0083323D02*
X0543797Y0125370D01*
X0543797Y0137220D01*
X0526080Y0154937D01*
X0526080Y0168717D01*
X0543797Y0186433D01*
X0543797Y0233677D01*
X0589545Y0279425D01*
X0589545Y0282890D01*
X0581002Y0284346D02*
X0579545Y0282890D01*
X0581002Y0284346D02*
X0581002Y0306512D01*
X0684828Y0248071D02*
X0684832Y0235022D01*
X0684843Y0235011D01*
X0684843Y0233367D01*
X0684833Y0233357D01*
X0684836Y0220520D01*
X0688527Y0216083D01*
X0696772Y0216083D01*
X0696776Y0219406D01*
X0695582Y0219378D01*
X0695555Y0219350D01*
X0693748Y0219350D01*
X0692470Y0220628D01*
X0692470Y0222435D01*
X0693748Y0223713D01*
X0693921Y0223713D01*
X0693921Y0248071D01*
X0684828Y0248071D01*
X0684829Y0247496D02*
X0693921Y0247496D01*
X0693921Y0246710D02*
X0684829Y0246710D01*
X0684829Y0245924D02*
X0693921Y0245924D01*
X0693921Y0245138D02*
X0684829Y0245138D01*
X0684829Y0244352D02*
X0693921Y0244352D01*
X0693921Y0243567D02*
X0684830Y0243567D01*
X0684830Y0242781D02*
X0693921Y0242781D01*
X0693921Y0241995D02*
X0684830Y0241995D01*
X0684830Y0241209D02*
X0693921Y0241209D01*
X0693921Y0240423D02*
X0684831Y0240423D01*
X0684831Y0239637D02*
X0693921Y0239637D01*
X0693921Y0238851D02*
X0684831Y0238851D01*
X0684831Y0238065D02*
X0693921Y0238065D01*
X0693921Y0237279D02*
X0684831Y0237279D01*
X0684832Y0236493D02*
X0693921Y0236493D01*
X0693921Y0235707D02*
X0684832Y0235707D01*
X0684843Y0234921D02*
X0693921Y0234921D01*
X0693921Y0234136D02*
X0684843Y0234136D01*
X0684833Y0233350D02*
X0693921Y0233350D01*
X0693921Y0232564D02*
X0684833Y0232564D01*
X0684833Y0231778D02*
X0693921Y0231778D01*
X0693921Y0230992D02*
X0684833Y0230992D01*
X0684834Y0230206D02*
X0693921Y0230206D01*
X0693921Y0229420D02*
X0684834Y0229420D01*
X0684834Y0228634D02*
X0693921Y0228634D01*
X0693921Y0227848D02*
X0684834Y0227848D01*
X0684834Y0227062D02*
X0693921Y0227062D01*
X0693921Y0226276D02*
X0687939Y0226276D01*
X0687668Y0226547D02*
X0686024Y0226547D01*
X0684862Y0225385D01*
X0684862Y0223741D01*
X0686024Y0222579D01*
X0687668Y0222579D01*
X0688830Y0223741D01*
X0688830Y0225385D01*
X0687668Y0226547D01*
X0688725Y0225491D02*
X0693921Y0225491D01*
X0693921Y0224705D02*
X0688830Y0224705D01*
X0688830Y0223919D02*
X0693921Y0223919D01*
X0693168Y0223133D02*
X0688222Y0223133D01*
X0685470Y0223133D02*
X0684836Y0223133D01*
X0684835Y0223919D02*
X0684862Y0223919D01*
X0684835Y0224705D02*
X0684862Y0224705D01*
X0684835Y0225491D02*
X0684968Y0225491D01*
X0684835Y0226276D02*
X0685753Y0226276D01*
X0684836Y0222347D02*
X0692470Y0222347D01*
X0692470Y0221561D02*
X0684836Y0221561D01*
X0684836Y0220775D02*
X0692470Y0220775D01*
X0693109Y0219989D02*
X0685278Y0219989D01*
X0685931Y0219203D02*
X0696776Y0219203D01*
X0696775Y0218417D02*
X0686585Y0218417D01*
X0687239Y0217631D02*
X0696774Y0217631D01*
X0696773Y0216845D02*
X0687893Y0216845D01*
X0693265Y0214695D02*
X0696771Y0214695D01*
X0697345Y0214695D01*
X0697346Y0214695D01*
X0697347Y0214695D01*
X0697755Y0215103D01*
X0698159Y0215506D01*
X0698159Y0215507D01*
X0698160Y0215508D01*
X0698160Y0216078D01*
X0698163Y0218851D01*
X0698177Y0218866D01*
X0698164Y0219423D01*
X0698164Y0219980D01*
X0698150Y0219994D01*
X0698149Y0220015D01*
X0697746Y0220399D01*
X0697353Y0220793D01*
X0697332Y0220793D01*
X0697317Y0220807D01*
X0697139Y0220803D01*
X0697139Y0220878D01*
X0696832Y0220913D01*
X0696832Y0222435D01*
X0695555Y0223713D01*
X0695308Y0223713D01*
X0695308Y0247825D01*
X0705013Y0248071D01*
X0705013Y0223465D01*
X0703037Y0221488D01*
X0703037Y0210169D01*
X0697139Y0204764D01*
X0693265Y0204764D01*
X0693265Y0214695D01*
X0693265Y0214488D02*
X0703037Y0214488D01*
X0703037Y0215274D02*
X0697926Y0215274D01*
X0698160Y0216060D02*
X0703037Y0216060D01*
X0703037Y0216845D02*
X0698161Y0216845D01*
X0698162Y0217631D02*
X0703037Y0217631D01*
X0703037Y0218417D02*
X0698162Y0218417D01*
X0698169Y0219203D02*
X0703037Y0219203D01*
X0703037Y0219989D02*
X0698155Y0219989D01*
X0697371Y0220775D02*
X0703037Y0220775D01*
X0703110Y0221561D02*
X0696832Y0221561D01*
X0696832Y0222347D02*
X0703896Y0222347D01*
X0704682Y0223133D02*
X0696134Y0223133D01*
X0695308Y0223919D02*
X0705013Y0223919D01*
X0705013Y0224705D02*
X0695308Y0224705D01*
X0695308Y0225491D02*
X0705013Y0225491D01*
X0705013Y0226276D02*
X0695308Y0226276D01*
X0695308Y0227062D02*
X0705013Y0227062D01*
X0705013Y0227848D02*
X0695308Y0227848D01*
X0695308Y0228634D02*
X0705013Y0228634D01*
X0705013Y0229420D02*
X0695308Y0229420D01*
X0695308Y0230206D02*
X0705013Y0230206D01*
X0705013Y0230992D02*
X0695308Y0230992D01*
X0695308Y0231778D02*
X0705013Y0231778D01*
X0705013Y0232564D02*
X0695308Y0232564D01*
X0695308Y0233350D02*
X0705013Y0233350D01*
X0705013Y0234136D02*
X0695308Y0234136D01*
X0695308Y0234921D02*
X0705013Y0234921D01*
X0705013Y0235707D02*
X0695308Y0235707D01*
X0695308Y0236493D02*
X0705013Y0236493D01*
X0705013Y0237279D02*
X0695308Y0237279D01*
X0695308Y0238065D02*
X0705013Y0238065D01*
X0705013Y0238851D02*
X0695308Y0238851D01*
X0695308Y0239637D02*
X0705013Y0239637D01*
X0705013Y0240423D02*
X0695308Y0240423D01*
X0695308Y0241209D02*
X0705013Y0241209D01*
X0705013Y0241995D02*
X0695308Y0241995D01*
X0695308Y0242781D02*
X0705013Y0242781D01*
X0705013Y0243567D02*
X0695308Y0243567D01*
X0695308Y0244352D02*
X0705013Y0244352D01*
X0705013Y0245138D02*
X0695308Y0245138D01*
X0695308Y0245924D02*
X0705013Y0245924D01*
X0705013Y0246710D02*
X0695308Y0246710D01*
X0695308Y0247496D02*
X0705013Y0247496D01*
X0706401Y0247496D02*
X0715348Y0247496D01*
X0715348Y0246710D02*
X0706401Y0246710D01*
X0706401Y0245924D02*
X0715348Y0245924D01*
X0715348Y0245138D02*
X0706401Y0245138D01*
X0706401Y0244352D02*
X0715348Y0244352D01*
X0715348Y0243567D02*
X0706401Y0243567D01*
X0706401Y0242781D02*
X0715348Y0242781D01*
X0715348Y0241995D02*
X0706401Y0241995D01*
X0706401Y0241209D02*
X0715348Y0241209D01*
X0715348Y0240423D02*
X0706401Y0240423D01*
X0706401Y0239637D02*
X0715348Y0239637D01*
X0715348Y0238851D02*
X0706401Y0238851D01*
X0706401Y0238065D02*
X0715348Y0238065D01*
X0715888Y0237279D02*
X0706401Y0237279D01*
X0708431Y0236493D02*
X0716817Y0236493D01*
X0717746Y0235707D02*
X0709217Y0235707D01*
X0709303Y0234921D02*
X0718675Y0234921D01*
X0719603Y0234136D02*
X0709303Y0234136D01*
X0708675Y0233350D02*
X0720532Y0233350D01*
X0721461Y0232564D02*
X0709067Y0232564D01*
X0709929Y0231778D02*
X0722390Y0231778D01*
X0723319Y0230992D02*
X0710791Y0230992D01*
X0711653Y0230206D02*
X0724247Y0230206D01*
X0725176Y0229420D02*
X0712515Y0229420D01*
X0713377Y0228634D02*
X0726105Y0228634D01*
X0727034Y0227848D02*
X0714239Y0227848D01*
X0715101Y0227062D02*
X0727213Y0227062D01*
X0726427Y0226276D02*
X0715962Y0226276D01*
X0716824Y0225491D02*
X0726159Y0225491D01*
X0726159Y0224705D02*
X0717686Y0224705D01*
X0718548Y0223919D02*
X0726606Y0223919D01*
X0726167Y0223133D02*
X0719410Y0223133D01*
X0720272Y0222347D02*
X0726167Y0222347D01*
X0726316Y0221561D02*
X0721466Y0221561D01*
X0721754Y0220775D02*
X0727102Y0220775D01*
X0728143Y0219989D02*
X0721754Y0219989D01*
X0721754Y0219203D02*
X0728143Y0219203D01*
X0728143Y0218417D02*
X0721754Y0218417D01*
X0721754Y0217631D02*
X0728143Y0217631D01*
X0728143Y0216845D02*
X0721754Y0216845D01*
X0721754Y0216060D02*
X0728143Y0216060D01*
X0729531Y0216732D02*
X0729531Y0221105D01*
X0730135Y0221710D01*
X0730135Y0223353D01*
X0729626Y0223863D01*
X0730128Y0224365D01*
X0730128Y0226009D01*
X0729564Y0226573D01*
X0729531Y0226967D01*
X0729531Y0227484D01*
X0729484Y0227531D01*
X0729478Y0227597D01*
X0729084Y0227931D01*
X0728718Y0228297D01*
X0728652Y0228297D01*
X0716735Y0238380D01*
X0716735Y0248071D01*
X0725191Y0248071D01*
X0725191Y0241919D01*
X0727637Y0239898D01*
X0728497Y0239038D01*
X0728678Y0239038D01*
X0736525Y0232553D01*
X0736525Y0216732D01*
X0729531Y0216732D01*
X0729531Y0216845D02*
X0736525Y0216845D01*
X0736525Y0217631D02*
X0729531Y0217631D01*
X0729531Y0218417D02*
X0736525Y0218417D01*
X0736525Y0219203D02*
X0729531Y0219203D01*
X0729531Y0219989D02*
X0736525Y0219989D01*
X0736525Y0220775D02*
X0729531Y0220775D01*
X0729987Y0221561D02*
X0736525Y0221561D01*
X0736525Y0222347D02*
X0730135Y0222347D01*
X0730135Y0223133D02*
X0736525Y0223133D01*
X0736525Y0223919D02*
X0729681Y0223919D01*
X0730128Y0224705D02*
X0736525Y0224705D01*
X0736525Y0225491D02*
X0730128Y0225491D01*
X0729860Y0226276D02*
X0736525Y0226276D01*
X0736525Y0227062D02*
X0729531Y0227062D01*
X0729182Y0227848D02*
X0736525Y0227848D01*
X0736525Y0228634D02*
X0728253Y0228634D01*
X0727324Y0229420D02*
X0736525Y0229420D01*
X0736525Y0230206D02*
X0726395Y0230206D01*
X0725466Y0230992D02*
X0736525Y0230992D01*
X0736525Y0231778D02*
X0724538Y0231778D01*
X0723609Y0232564D02*
X0736512Y0232564D01*
X0735561Y0233350D02*
X0722680Y0233350D01*
X0721751Y0234136D02*
X0734610Y0234136D01*
X0733659Y0234921D02*
X0720822Y0234921D01*
X0719894Y0235707D02*
X0732708Y0235707D01*
X0731757Y0236493D02*
X0718965Y0236493D01*
X0718036Y0237279D02*
X0730806Y0237279D01*
X0729855Y0238065D02*
X0717107Y0238065D01*
X0716735Y0238851D02*
X0728904Y0238851D01*
X0727898Y0239637D02*
X0716735Y0239637D01*
X0716735Y0240423D02*
X0727002Y0240423D01*
X0726050Y0241209D02*
X0716735Y0241209D01*
X0716735Y0241995D02*
X0725191Y0241995D01*
X0725191Y0242781D02*
X0716735Y0242781D01*
X0716735Y0243567D02*
X0725191Y0243567D01*
X0725191Y0244352D02*
X0716735Y0244352D01*
X0716735Y0245138D02*
X0725191Y0245138D01*
X0725191Y0245924D02*
X0716735Y0245924D01*
X0716735Y0246710D02*
X0725191Y0246710D01*
X0725191Y0247496D02*
X0716735Y0247496D01*
X0721754Y0215274D02*
X0736510Y0215274D01*
X0736510Y0214488D02*
X0721754Y0214488D01*
X0721754Y0213702D02*
X0736510Y0213702D01*
X0736510Y0212916D02*
X0721754Y0212916D01*
X0721754Y0212130D02*
X0736510Y0212130D01*
X0736510Y0211344D02*
X0721754Y0211344D01*
X0721874Y0210558D02*
X0736510Y0210558D01*
X0736510Y0209772D02*
X0722791Y0209772D01*
X0723708Y0208986D02*
X0736510Y0208986D01*
X0703037Y0210558D02*
X0693265Y0210558D01*
X0693265Y0209772D02*
X0702604Y0209772D01*
X0701746Y0208986D02*
X0693265Y0208986D01*
X0693265Y0208200D02*
X0700889Y0208200D01*
X0700032Y0207415D02*
X0693265Y0207415D01*
X0693265Y0206629D02*
X0699174Y0206629D01*
X0698317Y0205843D02*
X0693265Y0205843D01*
X0693265Y0205057D02*
X0697459Y0205057D01*
X0693265Y0211344D02*
X0703037Y0211344D01*
X0703037Y0212130D02*
X0693265Y0212130D01*
X0693265Y0212916D02*
X0703037Y0212916D01*
X0703037Y0213702D02*
X0693265Y0213702D01*
X0667813Y0188402D02*
X0648128Y0208087D01*
X0613482Y0208087D01*
X0601080Y0195685D01*
X0585844Y0173323D02*
X0576868Y0182299D01*
X0645844Y0203323D02*
X0666671Y0182496D01*
X0683561Y0182496D01*
X0690254Y0189189D01*
X0690254Y0193134D01*
X0680151Y0193031D02*
X0680151Y0192866D01*
X0675687Y0188402D01*
X0667813Y0188402D01*
X0710151Y0193031D02*
X0710332Y0192850D01*
X0791828Y0186981D02*
X0821356Y0186981D01*
X0752458Y0135252D02*
X0742025Y0124819D01*
X0585844Y0123323D02*
X0559151Y0150016D01*
X0559151Y0223835D01*
D33*
X0601080Y0195685D03*
X0793797Y0201394D03*
X0793797Y0205724D03*
X0799309Y0202575D03*
X0802065Y0198244D03*
X0797340Y0194701D03*
X0803639Y0191157D03*
X0807576Y0194701D03*
X0813482Y0194307D03*
X0814269Y0190370D03*
X0808364Y0188402D03*
X0820175Y0188402D03*
X0820175Y0193126D03*
X0820175Y0197063D03*
X0805214Y0204543D03*
X0820175Y0207693D03*
X0742025Y0124819D03*
D34*
X0720962Y0239976D02*
X0720962Y0247850D01*
X0745765Y0272654D01*
X0745765Y0299031D01*
X0739899Y0304898D01*
X0739899Y0308480D01*
X0729899Y0308480D02*
X0729899Y0303087D01*
X0737498Y0295488D01*
X0737498Y0275803D01*
X0710151Y0248457D01*
X0710151Y0243031D01*
X0700884Y0243764D02*
X0700151Y0243031D01*
X0700884Y0243764D02*
X0700884Y0250213D01*
X0728639Y0277969D01*
X0728639Y0292535D01*
X0719899Y0301276D01*
X0719899Y0308480D01*
X0709899Y0308480D02*
X0709899Y0299858D01*
X0719781Y0289976D01*
X0719781Y0280528D01*
X0690254Y0251000D01*
X0690254Y0243134D01*
X0690151Y0243031D01*
D35*
X0682859Y0234189D02*
X0682501Y0233831D01*
X0682501Y0216931D01*
X0724151Y0202031D02*
X0724151Y0200906D01*
X0720381Y0197136D01*
X0704256Y0197136D01*
X0700151Y0193031D01*
X0695647Y0198528D02*
X0690254Y0193134D01*
X0690151Y0193031D01*
X0689401Y0199781D02*
X0682651Y0193031D01*
X0680151Y0193031D01*
X0689401Y0199781D02*
X0715401Y0199781D01*
X0716901Y0201281D01*
X0717897Y0198528D02*
X0720651Y0201281D01*
X0717897Y0198528D02*
X0695647Y0198528D01*
D36*
X0694651Y0221531D03*
M02*
