G75*
%MOIN*%
%OFA0B0*%
%FSLAX25Y25*%
%IPPOS*%
%LPD*%
%AMOC8*
5,1,8,0,0,1.08239X$1,22.5*
%
%ADD10C,0.00000*%
%ADD11C,0.00197*%
%ADD12C,0.00600*%
D10*
X0498521Y0123441D02*
X0559545Y0062417D01*
X0811513Y0062417D01*
X0872537Y0123441D01*
X0872537Y0261236D01*
X0809545Y0324228D01*
X0561513Y0324228D01*
X0498521Y0261236D01*
X0498521Y0123441D01*
X0514269Y0135252D02*
X0514271Y0135405D01*
X0514277Y0135559D01*
X0514287Y0135712D01*
X0514301Y0135864D01*
X0514319Y0136017D01*
X0514341Y0136168D01*
X0514366Y0136319D01*
X0514396Y0136470D01*
X0514430Y0136620D01*
X0514467Y0136768D01*
X0514508Y0136916D01*
X0514553Y0137062D01*
X0514602Y0137208D01*
X0514655Y0137352D01*
X0514711Y0137494D01*
X0514771Y0137635D01*
X0514835Y0137775D01*
X0514902Y0137913D01*
X0514973Y0138049D01*
X0515048Y0138183D01*
X0515125Y0138315D01*
X0515207Y0138445D01*
X0515291Y0138573D01*
X0515379Y0138699D01*
X0515470Y0138822D01*
X0515564Y0138943D01*
X0515662Y0139061D01*
X0515762Y0139177D01*
X0515866Y0139290D01*
X0515972Y0139401D01*
X0516081Y0139509D01*
X0516193Y0139614D01*
X0516307Y0139715D01*
X0516425Y0139814D01*
X0516544Y0139910D01*
X0516666Y0140003D01*
X0516791Y0140092D01*
X0516918Y0140179D01*
X0517047Y0140261D01*
X0517178Y0140341D01*
X0517311Y0140417D01*
X0517446Y0140490D01*
X0517583Y0140559D01*
X0517722Y0140624D01*
X0517862Y0140686D01*
X0518004Y0140744D01*
X0518147Y0140799D01*
X0518292Y0140850D01*
X0518438Y0140897D01*
X0518585Y0140940D01*
X0518733Y0140979D01*
X0518882Y0141015D01*
X0519032Y0141046D01*
X0519183Y0141074D01*
X0519334Y0141098D01*
X0519487Y0141118D01*
X0519639Y0141134D01*
X0519792Y0141146D01*
X0519945Y0141154D01*
X0520098Y0141158D01*
X0520252Y0141158D01*
X0520405Y0141154D01*
X0520558Y0141146D01*
X0520711Y0141134D01*
X0520863Y0141118D01*
X0521016Y0141098D01*
X0521167Y0141074D01*
X0521318Y0141046D01*
X0521468Y0141015D01*
X0521617Y0140979D01*
X0521765Y0140940D01*
X0521912Y0140897D01*
X0522058Y0140850D01*
X0522203Y0140799D01*
X0522346Y0140744D01*
X0522488Y0140686D01*
X0522628Y0140624D01*
X0522767Y0140559D01*
X0522904Y0140490D01*
X0523039Y0140417D01*
X0523172Y0140341D01*
X0523303Y0140261D01*
X0523432Y0140179D01*
X0523559Y0140092D01*
X0523684Y0140003D01*
X0523806Y0139910D01*
X0523925Y0139814D01*
X0524043Y0139715D01*
X0524157Y0139614D01*
X0524269Y0139509D01*
X0524378Y0139401D01*
X0524484Y0139290D01*
X0524588Y0139177D01*
X0524688Y0139061D01*
X0524786Y0138943D01*
X0524880Y0138822D01*
X0524971Y0138699D01*
X0525059Y0138573D01*
X0525143Y0138445D01*
X0525225Y0138315D01*
X0525302Y0138183D01*
X0525377Y0138049D01*
X0525448Y0137913D01*
X0525515Y0137775D01*
X0525579Y0137635D01*
X0525639Y0137494D01*
X0525695Y0137352D01*
X0525748Y0137208D01*
X0525797Y0137062D01*
X0525842Y0136916D01*
X0525883Y0136768D01*
X0525920Y0136620D01*
X0525954Y0136470D01*
X0525984Y0136319D01*
X0526009Y0136168D01*
X0526031Y0136017D01*
X0526049Y0135864D01*
X0526063Y0135712D01*
X0526073Y0135559D01*
X0526079Y0135405D01*
X0526081Y0135252D01*
X0526079Y0135099D01*
X0526073Y0134945D01*
X0526063Y0134792D01*
X0526049Y0134640D01*
X0526031Y0134487D01*
X0526009Y0134336D01*
X0525984Y0134185D01*
X0525954Y0134034D01*
X0525920Y0133884D01*
X0525883Y0133736D01*
X0525842Y0133588D01*
X0525797Y0133442D01*
X0525748Y0133296D01*
X0525695Y0133152D01*
X0525639Y0133010D01*
X0525579Y0132869D01*
X0525515Y0132729D01*
X0525448Y0132591D01*
X0525377Y0132455D01*
X0525302Y0132321D01*
X0525225Y0132189D01*
X0525143Y0132059D01*
X0525059Y0131931D01*
X0524971Y0131805D01*
X0524880Y0131682D01*
X0524786Y0131561D01*
X0524688Y0131443D01*
X0524588Y0131327D01*
X0524484Y0131214D01*
X0524378Y0131103D01*
X0524269Y0130995D01*
X0524157Y0130890D01*
X0524043Y0130789D01*
X0523925Y0130690D01*
X0523806Y0130594D01*
X0523684Y0130501D01*
X0523559Y0130412D01*
X0523432Y0130325D01*
X0523303Y0130243D01*
X0523172Y0130163D01*
X0523039Y0130087D01*
X0522904Y0130014D01*
X0522767Y0129945D01*
X0522628Y0129880D01*
X0522488Y0129818D01*
X0522346Y0129760D01*
X0522203Y0129705D01*
X0522058Y0129654D01*
X0521912Y0129607D01*
X0521765Y0129564D01*
X0521617Y0129525D01*
X0521468Y0129489D01*
X0521318Y0129458D01*
X0521167Y0129430D01*
X0521016Y0129406D01*
X0520863Y0129386D01*
X0520711Y0129370D01*
X0520558Y0129358D01*
X0520405Y0129350D01*
X0520252Y0129346D01*
X0520098Y0129346D01*
X0519945Y0129350D01*
X0519792Y0129358D01*
X0519639Y0129370D01*
X0519487Y0129386D01*
X0519334Y0129406D01*
X0519183Y0129430D01*
X0519032Y0129458D01*
X0518882Y0129489D01*
X0518733Y0129525D01*
X0518585Y0129564D01*
X0518438Y0129607D01*
X0518292Y0129654D01*
X0518147Y0129705D01*
X0518004Y0129760D01*
X0517862Y0129818D01*
X0517722Y0129880D01*
X0517583Y0129945D01*
X0517446Y0130014D01*
X0517311Y0130087D01*
X0517178Y0130163D01*
X0517047Y0130243D01*
X0516918Y0130325D01*
X0516791Y0130412D01*
X0516666Y0130501D01*
X0516544Y0130594D01*
X0516425Y0130690D01*
X0516307Y0130789D01*
X0516193Y0130890D01*
X0516081Y0130995D01*
X0515972Y0131103D01*
X0515866Y0131214D01*
X0515762Y0131327D01*
X0515662Y0131443D01*
X0515564Y0131561D01*
X0515470Y0131682D01*
X0515379Y0131805D01*
X0515291Y0131931D01*
X0515207Y0132059D01*
X0515125Y0132189D01*
X0515048Y0132321D01*
X0514973Y0132455D01*
X0514902Y0132591D01*
X0514835Y0132729D01*
X0514771Y0132869D01*
X0514711Y0133010D01*
X0514655Y0133152D01*
X0514602Y0133296D01*
X0514553Y0133442D01*
X0514508Y0133588D01*
X0514467Y0133736D01*
X0514430Y0133884D01*
X0514396Y0134034D01*
X0514366Y0134185D01*
X0514341Y0134336D01*
X0514319Y0134487D01*
X0514301Y0134640D01*
X0514287Y0134792D01*
X0514277Y0134945D01*
X0514271Y0135099D01*
X0514269Y0135252D01*
X0530017Y0160843D02*
X0530019Y0161036D01*
X0530026Y0161229D01*
X0530038Y0161422D01*
X0530055Y0161615D01*
X0530076Y0161807D01*
X0530102Y0161998D01*
X0530133Y0162189D01*
X0530168Y0162379D01*
X0530208Y0162568D01*
X0530253Y0162756D01*
X0530302Y0162943D01*
X0530356Y0163129D01*
X0530414Y0163313D01*
X0530477Y0163496D01*
X0530545Y0163677D01*
X0530616Y0163856D01*
X0530693Y0164034D01*
X0530773Y0164210D01*
X0530858Y0164383D01*
X0530947Y0164555D01*
X0531040Y0164724D01*
X0531137Y0164891D01*
X0531239Y0165056D01*
X0531344Y0165218D01*
X0531453Y0165377D01*
X0531567Y0165534D01*
X0531684Y0165687D01*
X0531804Y0165838D01*
X0531929Y0165986D01*
X0532057Y0166131D01*
X0532188Y0166272D01*
X0532323Y0166411D01*
X0532462Y0166546D01*
X0532603Y0166677D01*
X0532748Y0166805D01*
X0532896Y0166930D01*
X0533047Y0167050D01*
X0533200Y0167167D01*
X0533357Y0167281D01*
X0533516Y0167390D01*
X0533678Y0167495D01*
X0533843Y0167597D01*
X0534010Y0167694D01*
X0534179Y0167787D01*
X0534351Y0167876D01*
X0534524Y0167961D01*
X0534700Y0168041D01*
X0534878Y0168118D01*
X0535057Y0168189D01*
X0535238Y0168257D01*
X0535421Y0168320D01*
X0535605Y0168378D01*
X0535791Y0168432D01*
X0535978Y0168481D01*
X0536166Y0168526D01*
X0536355Y0168566D01*
X0536545Y0168601D01*
X0536736Y0168632D01*
X0536927Y0168658D01*
X0537119Y0168679D01*
X0537312Y0168696D01*
X0537505Y0168708D01*
X0537698Y0168715D01*
X0537891Y0168717D01*
X0538084Y0168715D01*
X0538277Y0168708D01*
X0538470Y0168696D01*
X0538663Y0168679D01*
X0538855Y0168658D01*
X0539046Y0168632D01*
X0539237Y0168601D01*
X0539427Y0168566D01*
X0539616Y0168526D01*
X0539804Y0168481D01*
X0539991Y0168432D01*
X0540177Y0168378D01*
X0540361Y0168320D01*
X0540544Y0168257D01*
X0540725Y0168189D01*
X0540904Y0168118D01*
X0541082Y0168041D01*
X0541258Y0167961D01*
X0541431Y0167876D01*
X0541603Y0167787D01*
X0541772Y0167694D01*
X0541939Y0167597D01*
X0542104Y0167495D01*
X0542266Y0167390D01*
X0542425Y0167281D01*
X0542582Y0167167D01*
X0542735Y0167050D01*
X0542886Y0166930D01*
X0543034Y0166805D01*
X0543179Y0166677D01*
X0543320Y0166546D01*
X0543459Y0166411D01*
X0543594Y0166272D01*
X0543725Y0166131D01*
X0543853Y0165986D01*
X0543978Y0165838D01*
X0544098Y0165687D01*
X0544215Y0165534D01*
X0544329Y0165377D01*
X0544438Y0165218D01*
X0544543Y0165056D01*
X0544645Y0164891D01*
X0544742Y0164724D01*
X0544835Y0164555D01*
X0544924Y0164383D01*
X0545009Y0164210D01*
X0545089Y0164034D01*
X0545166Y0163856D01*
X0545237Y0163677D01*
X0545305Y0163496D01*
X0545368Y0163313D01*
X0545426Y0163129D01*
X0545480Y0162943D01*
X0545529Y0162756D01*
X0545574Y0162568D01*
X0545614Y0162379D01*
X0545649Y0162189D01*
X0545680Y0161998D01*
X0545706Y0161807D01*
X0545727Y0161615D01*
X0545744Y0161422D01*
X0545756Y0161229D01*
X0545763Y0161036D01*
X0545765Y0160843D01*
X0545763Y0160650D01*
X0545756Y0160457D01*
X0545744Y0160264D01*
X0545727Y0160071D01*
X0545706Y0159879D01*
X0545680Y0159688D01*
X0545649Y0159497D01*
X0545614Y0159307D01*
X0545574Y0159118D01*
X0545529Y0158930D01*
X0545480Y0158743D01*
X0545426Y0158557D01*
X0545368Y0158373D01*
X0545305Y0158190D01*
X0545237Y0158009D01*
X0545166Y0157830D01*
X0545089Y0157652D01*
X0545009Y0157476D01*
X0544924Y0157303D01*
X0544835Y0157131D01*
X0544742Y0156962D01*
X0544645Y0156795D01*
X0544543Y0156630D01*
X0544438Y0156468D01*
X0544329Y0156309D01*
X0544215Y0156152D01*
X0544098Y0155999D01*
X0543978Y0155848D01*
X0543853Y0155700D01*
X0543725Y0155555D01*
X0543594Y0155414D01*
X0543459Y0155275D01*
X0543320Y0155140D01*
X0543179Y0155009D01*
X0543034Y0154881D01*
X0542886Y0154756D01*
X0542735Y0154636D01*
X0542582Y0154519D01*
X0542425Y0154405D01*
X0542266Y0154296D01*
X0542104Y0154191D01*
X0541939Y0154089D01*
X0541772Y0153992D01*
X0541603Y0153899D01*
X0541431Y0153810D01*
X0541258Y0153725D01*
X0541082Y0153645D01*
X0540904Y0153568D01*
X0540725Y0153497D01*
X0540544Y0153429D01*
X0540361Y0153366D01*
X0540177Y0153308D01*
X0539991Y0153254D01*
X0539804Y0153205D01*
X0539616Y0153160D01*
X0539427Y0153120D01*
X0539237Y0153085D01*
X0539046Y0153054D01*
X0538855Y0153028D01*
X0538663Y0153007D01*
X0538470Y0152990D01*
X0538277Y0152978D01*
X0538084Y0152971D01*
X0537891Y0152969D01*
X0537698Y0152971D01*
X0537505Y0152978D01*
X0537312Y0152990D01*
X0537119Y0153007D01*
X0536927Y0153028D01*
X0536736Y0153054D01*
X0536545Y0153085D01*
X0536355Y0153120D01*
X0536166Y0153160D01*
X0535978Y0153205D01*
X0535791Y0153254D01*
X0535605Y0153308D01*
X0535421Y0153366D01*
X0535238Y0153429D01*
X0535057Y0153497D01*
X0534878Y0153568D01*
X0534700Y0153645D01*
X0534524Y0153725D01*
X0534351Y0153810D01*
X0534179Y0153899D01*
X0534010Y0153992D01*
X0533843Y0154089D01*
X0533678Y0154191D01*
X0533516Y0154296D01*
X0533357Y0154405D01*
X0533200Y0154519D01*
X0533047Y0154636D01*
X0532896Y0154756D01*
X0532748Y0154881D01*
X0532603Y0155009D01*
X0532462Y0155140D01*
X0532323Y0155275D01*
X0532188Y0155414D01*
X0532057Y0155555D01*
X0531929Y0155700D01*
X0531804Y0155848D01*
X0531684Y0155999D01*
X0531567Y0156152D01*
X0531453Y0156309D01*
X0531344Y0156468D01*
X0531239Y0156630D01*
X0531137Y0156795D01*
X0531040Y0156962D01*
X0530947Y0157131D01*
X0530858Y0157303D01*
X0530773Y0157476D01*
X0530693Y0157652D01*
X0530616Y0157830D01*
X0530545Y0158009D01*
X0530477Y0158190D01*
X0530414Y0158373D01*
X0530356Y0158557D01*
X0530302Y0158743D01*
X0530253Y0158930D01*
X0530208Y0159118D01*
X0530168Y0159307D01*
X0530133Y0159497D01*
X0530102Y0159688D01*
X0530076Y0159879D01*
X0530055Y0160071D01*
X0530038Y0160264D01*
X0530026Y0160457D01*
X0530019Y0160650D01*
X0530017Y0160843D01*
X0797733Y0113598D02*
X0797735Y0113751D01*
X0797741Y0113905D01*
X0797751Y0114058D01*
X0797765Y0114210D01*
X0797783Y0114363D01*
X0797805Y0114514D01*
X0797830Y0114665D01*
X0797860Y0114816D01*
X0797894Y0114966D01*
X0797931Y0115114D01*
X0797972Y0115262D01*
X0798017Y0115408D01*
X0798066Y0115554D01*
X0798119Y0115698D01*
X0798175Y0115840D01*
X0798235Y0115981D01*
X0798299Y0116121D01*
X0798366Y0116259D01*
X0798437Y0116395D01*
X0798512Y0116529D01*
X0798589Y0116661D01*
X0798671Y0116791D01*
X0798755Y0116919D01*
X0798843Y0117045D01*
X0798934Y0117168D01*
X0799028Y0117289D01*
X0799126Y0117407D01*
X0799226Y0117523D01*
X0799330Y0117636D01*
X0799436Y0117747D01*
X0799545Y0117855D01*
X0799657Y0117960D01*
X0799771Y0118061D01*
X0799889Y0118160D01*
X0800008Y0118256D01*
X0800130Y0118349D01*
X0800255Y0118438D01*
X0800382Y0118525D01*
X0800511Y0118607D01*
X0800642Y0118687D01*
X0800775Y0118763D01*
X0800910Y0118836D01*
X0801047Y0118905D01*
X0801186Y0118970D01*
X0801326Y0119032D01*
X0801468Y0119090D01*
X0801611Y0119145D01*
X0801756Y0119196D01*
X0801902Y0119243D01*
X0802049Y0119286D01*
X0802197Y0119325D01*
X0802346Y0119361D01*
X0802496Y0119392D01*
X0802647Y0119420D01*
X0802798Y0119444D01*
X0802951Y0119464D01*
X0803103Y0119480D01*
X0803256Y0119492D01*
X0803409Y0119500D01*
X0803562Y0119504D01*
X0803716Y0119504D01*
X0803869Y0119500D01*
X0804022Y0119492D01*
X0804175Y0119480D01*
X0804327Y0119464D01*
X0804480Y0119444D01*
X0804631Y0119420D01*
X0804782Y0119392D01*
X0804932Y0119361D01*
X0805081Y0119325D01*
X0805229Y0119286D01*
X0805376Y0119243D01*
X0805522Y0119196D01*
X0805667Y0119145D01*
X0805810Y0119090D01*
X0805952Y0119032D01*
X0806092Y0118970D01*
X0806231Y0118905D01*
X0806368Y0118836D01*
X0806503Y0118763D01*
X0806636Y0118687D01*
X0806767Y0118607D01*
X0806896Y0118525D01*
X0807023Y0118438D01*
X0807148Y0118349D01*
X0807270Y0118256D01*
X0807389Y0118160D01*
X0807507Y0118061D01*
X0807621Y0117960D01*
X0807733Y0117855D01*
X0807842Y0117747D01*
X0807948Y0117636D01*
X0808052Y0117523D01*
X0808152Y0117407D01*
X0808250Y0117289D01*
X0808344Y0117168D01*
X0808435Y0117045D01*
X0808523Y0116919D01*
X0808607Y0116791D01*
X0808689Y0116661D01*
X0808766Y0116529D01*
X0808841Y0116395D01*
X0808912Y0116259D01*
X0808979Y0116121D01*
X0809043Y0115981D01*
X0809103Y0115840D01*
X0809159Y0115698D01*
X0809212Y0115554D01*
X0809261Y0115408D01*
X0809306Y0115262D01*
X0809347Y0115114D01*
X0809384Y0114966D01*
X0809418Y0114816D01*
X0809448Y0114665D01*
X0809473Y0114514D01*
X0809495Y0114363D01*
X0809513Y0114210D01*
X0809527Y0114058D01*
X0809537Y0113905D01*
X0809543Y0113751D01*
X0809545Y0113598D01*
X0809543Y0113445D01*
X0809537Y0113291D01*
X0809527Y0113138D01*
X0809513Y0112986D01*
X0809495Y0112833D01*
X0809473Y0112682D01*
X0809448Y0112531D01*
X0809418Y0112380D01*
X0809384Y0112230D01*
X0809347Y0112082D01*
X0809306Y0111934D01*
X0809261Y0111788D01*
X0809212Y0111642D01*
X0809159Y0111498D01*
X0809103Y0111356D01*
X0809043Y0111215D01*
X0808979Y0111075D01*
X0808912Y0110937D01*
X0808841Y0110801D01*
X0808766Y0110667D01*
X0808689Y0110535D01*
X0808607Y0110405D01*
X0808523Y0110277D01*
X0808435Y0110151D01*
X0808344Y0110028D01*
X0808250Y0109907D01*
X0808152Y0109789D01*
X0808052Y0109673D01*
X0807948Y0109560D01*
X0807842Y0109449D01*
X0807733Y0109341D01*
X0807621Y0109236D01*
X0807507Y0109135D01*
X0807389Y0109036D01*
X0807270Y0108940D01*
X0807148Y0108847D01*
X0807023Y0108758D01*
X0806896Y0108671D01*
X0806767Y0108589D01*
X0806636Y0108509D01*
X0806503Y0108433D01*
X0806368Y0108360D01*
X0806231Y0108291D01*
X0806092Y0108226D01*
X0805952Y0108164D01*
X0805810Y0108106D01*
X0805667Y0108051D01*
X0805522Y0108000D01*
X0805376Y0107953D01*
X0805229Y0107910D01*
X0805081Y0107871D01*
X0804932Y0107835D01*
X0804782Y0107804D01*
X0804631Y0107776D01*
X0804480Y0107752D01*
X0804327Y0107732D01*
X0804175Y0107716D01*
X0804022Y0107704D01*
X0803869Y0107696D01*
X0803716Y0107692D01*
X0803562Y0107692D01*
X0803409Y0107696D01*
X0803256Y0107704D01*
X0803103Y0107716D01*
X0802951Y0107732D01*
X0802798Y0107752D01*
X0802647Y0107776D01*
X0802496Y0107804D01*
X0802346Y0107835D01*
X0802197Y0107871D01*
X0802049Y0107910D01*
X0801902Y0107953D01*
X0801756Y0108000D01*
X0801611Y0108051D01*
X0801468Y0108106D01*
X0801326Y0108164D01*
X0801186Y0108226D01*
X0801047Y0108291D01*
X0800910Y0108360D01*
X0800775Y0108433D01*
X0800642Y0108509D01*
X0800511Y0108589D01*
X0800382Y0108671D01*
X0800255Y0108758D01*
X0800130Y0108847D01*
X0800008Y0108940D01*
X0799889Y0109036D01*
X0799771Y0109135D01*
X0799657Y0109236D01*
X0799545Y0109341D01*
X0799436Y0109449D01*
X0799330Y0109560D01*
X0799226Y0109673D01*
X0799126Y0109789D01*
X0799028Y0109907D01*
X0798934Y0110028D01*
X0798843Y0110151D01*
X0798755Y0110277D01*
X0798671Y0110405D01*
X0798589Y0110535D01*
X0798512Y0110667D01*
X0798437Y0110801D01*
X0798366Y0110937D01*
X0798299Y0111075D01*
X0798235Y0111215D01*
X0798175Y0111356D01*
X0798119Y0111498D01*
X0798066Y0111642D01*
X0798017Y0111788D01*
X0797972Y0111934D01*
X0797931Y0112082D01*
X0797894Y0112230D01*
X0797860Y0112380D01*
X0797830Y0112531D01*
X0797805Y0112682D01*
X0797783Y0112833D01*
X0797765Y0112986D01*
X0797751Y0113138D01*
X0797741Y0113291D01*
X0797735Y0113445D01*
X0797733Y0113598D01*
X0882222Y0075606D02*
X0882224Y0075759D01*
X0882230Y0075913D01*
X0882240Y0076066D01*
X0882254Y0076218D01*
X0882272Y0076371D01*
X0882294Y0076522D01*
X0882319Y0076673D01*
X0882349Y0076824D01*
X0882383Y0076974D01*
X0882420Y0077122D01*
X0882461Y0077270D01*
X0882506Y0077416D01*
X0882555Y0077562D01*
X0882608Y0077706D01*
X0882664Y0077848D01*
X0882724Y0077989D01*
X0882788Y0078129D01*
X0882855Y0078267D01*
X0882926Y0078403D01*
X0883001Y0078537D01*
X0883078Y0078669D01*
X0883160Y0078799D01*
X0883244Y0078927D01*
X0883332Y0079053D01*
X0883423Y0079176D01*
X0883517Y0079297D01*
X0883615Y0079415D01*
X0883715Y0079531D01*
X0883819Y0079644D01*
X0883925Y0079755D01*
X0884034Y0079863D01*
X0884146Y0079968D01*
X0884260Y0080069D01*
X0884378Y0080168D01*
X0884497Y0080264D01*
X0884619Y0080357D01*
X0884744Y0080446D01*
X0884871Y0080533D01*
X0885000Y0080615D01*
X0885131Y0080695D01*
X0885264Y0080771D01*
X0885399Y0080844D01*
X0885536Y0080913D01*
X0885675Y0080978D01*
X0885815Y0081040D01*
X0885957Y0081098D01*
X0886100Y0081153D01*
X0886245Y0081204D01*
X0886391Y0081251D01*
X0886538Y0081294D01*
X0886686Y0081333D01*
X0886835Y0081369D01*
X0886985Y0081400D01*
X0887136Y0081428D01*
X0887287Y0081452D01*
X0887440Y0081472D01*
X0887592Y0081488D01*
X0887745Y0081500D01*
X0887898Y0081508D01*
X0888051Y0081512D01*
X0888205Y0081512D01*
X0888358Y0081508D01*
X0888511Y0081500D01*
X0888664Y0081488D01*
X0888816Y0081472D01*
X0888969Y0081452D01*
X0889120Y0081428D01*
X0889271Y0081400D01*
X0889421Y0081369D01*
X0889570Y0081333D01*
X0889718Y0081294D01*
X0889865Y0081251D01*
X0890011Y0081204D01*
X0890156Y0081153D01*
X0890299Y0081098D01*
X0890441Y0081040D01*
X0890581Y0080978D01*
X0890720Y0080913D01*
X0890857Y0080844D01*
X0890992Y0080771D01*
X0891125Y0080695D01*
X0891256Y0080615D01*
X0891385Y0080533D01*
X0891512Y0080446D01*
X0891637Y0080357D01*
X0891759Y0080264D01*
X0891878Y0080168D01*
X0891996Y0080069D01*
X0892110Y0079968D01*
X0892222Y0079863D01*
X0892331Y0079755D01*
X0892437Y0079644D01*
X0892541Y0079531D01*
X0892641Y0079415D01*
X0892739Y0079297D01*
X0892833Y0079176D01*
X0892924Y0079053D01*
X0893012Y0078927D01*
X0893096Y0078799D01*
X0893178Y0078669D01*
X0893255Y0078537D01*
X0893330Y0078403D01*
X0893401Y0078267D01*
X0893468Y0078129D01*
X0893532Y0077989D01*
X0893592Y0077848D01*
X0893648Y0077706D01*
X0893701Y0077562D01*
X0893750Y0077416D01*
X0893795Y0077270D01*
X0893836Y0077122D01*
X0893873Y0076974D01*
X0893907Y0076824D01*
X0893937Y0076673D01*
X0893962Y0076522D01*
X0893984Y0076371D01*
X0894002Y0076218D01*
X0894016Y0076066D01*
X0894026Y0075913D01*
X0894032Y0075759D01*
X0894034Y0075606D01*
X0894032Y0075453D01*
X0894026Y0075299D01*
X0894016Y0075146D01*
X0894002Y0074994D01*
X0893984Y0074841D01*
X0893962Y0074690D01*
X0893937Y0074539D01*
X0893907Y0074388D01*
X0893873Y0074238D01*
X0893836Y0074090D01*
X0893795Y0073942D01*
X0893750Y0073796D01*
X0893701Y0073650D01*
X0893648Y0073506D01*
X0893592Y0073364D01*
X0893532Y0073223D01*
X0893468Y0073083D01*
X0893401Y0072945D01*
X0893330Y0072809D01*
X0893255Y0072675D01*
X0893178Y0072543D01*
X0893096Y0072413D01*
X0893012Y0072285D01*
X0892924Y0072159D01*
X0892833Y0072036D01*
X0892739Y0071915D01*
X0892641Y0071797D01*
X0892541Y0071681D01*
X0892437Y0071568D01*
X0892331Y0071457D01*
X0892222Y0071349D01*
X0892110Y0071244D01*
X0891996Y0071143D01*
X0891878Y0071044D01*
X0891759Y0070948D01*
X0891637Y0070855D01*
X0891512Y0070766D01*
X0891385Y0070679D01*
X0891256Y0070597D01*
X0891125Y0070517D01*
X0890992Y0070441D01*
X0890857Y0070368D01*
X0890720Y0070299D01*
X0890581Y0070234D01*
X0890441Y0070172D01*
X0890299Y0070114D01*
X0890156Y0070059D01*
X0890011Y0070008D01*
X0889865Y0069961D01*
X0889718Y0069918D01*
X0889570Y0069879D01*
X0889421Y0069843D01*
X0889271Y0069812D01*
X0889120Y0069784D01*
X0888969Y0069760D01*
X0888816Y0069740D01*
X0888664Y0069724D01*
X0888511Y0069712D01*
X0888358Y0069704D01*
X0888205Y0069700D01*
X0888051Y0069700D01*
X0887898Y0069704D01*
X0887745Y0069712D01*
X0887592Y0069724D01*
X0887440Y0069740D01*
X0887287Y0069760D01*
X0887136Y0069784D01*
X0886985Y0069812D01*
X0886835Y0069843D01*
X0886686Y0069879D01*
X0886538Y0069918D01*
X0886391Y0069961D01*
X0886245Y0070008D01*
X0886100Y0070059D01*
X0885957Y0070114D01*
X0885815Y0070172D01*
X0885675Y0070234D01*
X0885536Y0070299D01*
X0885399Y0070368D01*
X0885264Y0070441D01*
X0885131Y0070517D01*
X0885000Y0070597D01*
X0884871Y0070679D01*
X0884744Y0070766D01*
X0884619Y0070855D01*
X0884497Y0070948D01*
X0884378Y0071044D01*
X0884260Y0071143D01*
X0884146Y0071244D01*
X0884034Y0071349D01*
X0883925Y0071457D01*
X0883819Y0071568D01*
X0883715Y0071681D01*
X0883615Y0071797D01*
X0883517Y0071915D01*
X0883423Y0072036D01*
X0883332Y0072159D01*
X0883244Y0072285D01*
X0883160Y0072413D01*
X0883078Y0072543D01*
X0883001Y0072675D01*
X0882926Y0072809D01*
X0882855Y0072945D01*
X0882788Y0073083D01*
X0882724Y0073223D01*
X0882664Y0073364D01*
X0882608Y0073506D01*
X0882555Y0073650D01*
X0882506Y0073796D01*
X0882461Y0073942D01*
X0882420Y0074090D01*
X0882383Y0074238D01*
X0882349Y0074388D01*
X0882319Y0074539D01*
X0882294Y0074690D01*
X0882272Y0074841D01*
X0882254Y0074994D01*
X0882240Y0075146D01*
X0882230Y0075299D01*
X0882224Y0075453D01*
X0882222Y0075606D01*
X0872537Y0060449D02*
X0872537Y0326039D01*
X1250647Y0326039D01*
X1250647Y0060449D01*
X0872537Y0060449D01*
X0872537Y0023047D02*
X0872537Y0379346D01*
X0772930Y0312417D02*
X0772932Y0312529D01*
X0772938Y0312640D01*
X0772948Y0312752D01*
X0772962Y0312863D01*
X0772979Y0312973D01*
X0773001Y0313083D01*
X0773027Y0313192D01*
X0773056Y0313300D01*
X0773089Y0313406D01*
X0773126Y0313512D01*
X0773167Y0313616D01*
X0773212Y0313719D01*
X0773260Y0313820D01*
X0773311Y0313919D01*
X0773366Y0314016D01*
X0773425Y0314111D01*
X0773486Y0314205D01*
X0773551Y0314296D01*
X0773620Y0314384D01*
X0773691Y0314470D01*
X0773765Y0314554D01*
X0773843Y0314634D01*
X0773923Y0314712D01*
X0774006Y0314788D01*
X0774091Y0314860D01*
X0774179Y0314929D01*
X0774269Y0314995D01*
X0774362Y0315057D01*
X0774457Y0315117D01*
X0774554Y0315173D01*
X0774652Y0315225D01*
X0774753Y0315274D01*
X0774855Y0315319D01*
X0774959Y0315361D01*
X0775064Y0315399D01*
X0775171Y0315433D01*
X0775278Y0315463D01*
X0775387Y0315490D01*
X0775496Y0315512D01*
X0775607Y0315531D01*
X0775717Y0315546D01*
X0775829Y0315557D01*
X0775940Y0315564D01*
X0776052Y0315567D01*
X0776164Y0315566D01*
X0776276Y0315561D01*
X0776387Y0315552D01*
X0776498Y0315539D01*
X0776609Y0315522D01*
X0776719Y0315502D01*
X0776828Y0315477D01*
X0776936Y0315449D01*
X0777043Y0315416D01*
X0777149Y0315380D01*
X0777253Y0315340D01*
X0777356Y0315297D01*
X0777458Y0315250D01*
X0777557Y0315199D01*
X0777655Y0315145D01*
X0777751Y0315087D01*
X0777845Y0315026D01*
X0777936Y0314962D01*
X0778025Y0314895D01*
X0778112Y0314824D01*
X0778196Y0314750D01*
X0778278Y0314674D01*
X0778356Y0314594D01*
X0778432Y0314512D01*
X0778505Y0314427D01*
X0778575Y0314340D01*
X0778641Y0314250D01*
X0778705Y0314158D01*
X0778765Y0314064D01*
X0778822Y0313968D01*
X0778875Y0313869D01*
X0778925Y0313769D01*
X0778971Y0313668D01*
X0779014Y0313564D01*
X0779053Y0313459D01*
X0779088Y0313353D01*
X0779119Y0313246D01*
X0779147Y0313137D01*
X0779170Y0313028D01*
X0779190Y0312918D01*
X0779206Y0312807D01*
X0779218Y0312696D01*
X0779226Y0312585D01*
X0779230Y0312473D01*
X0779230Y0312361D01*
X0779226Y0312249D01*
X0779218Y0312138D01*
X0779206Y0312027D01*
X0779190Y0311916D01*
X0779170Y0311806D01*
X0779147Y0311697D01*
X0779119Y0311588D01*
X0779088Y0311481D01*
X0779053Y0311375D01*
X0779014Y0311270D01*
X0778971Y0311166D01*
X0778925Y0311065D01*
X0778875Y0310965D01*
X0778822Y0310866D01*
X0778765Y0310770D01*
X0778705Y0310676D01*
X0778641Y0310584D01*
X0778575Y0310494D01*
X0778505Y0310407D01*
X0778432Y0310322D01*
X0778356Y0310240D01*
X0778278Y0310160D01*
X0778196Y0310084D01*
X0778112Y0310010D01*
X0778025Y0309939D01*
X0777936Y0309872D01*
X0777845Y0309808D01*
X0777751Y0309747D01*
X0777655Y0309689D01*
X0777557Y0309635D01*
X0777458Y0309584D01*
X0777356Y0309537D01*
X0777253Y0309494D01*
X0777149Y0309454D01*
X0777043Y0309418D01*
X0776936Y0309385D01*
X0776828Y0309357D01*
X0776719Y0309332D01*
X0776609Y0309312D01*
X0776498Y0309295D01*
X0776387Y0309282D01*
X0776276Y0309273D01*
X0776164Y0309268D01*
X0776052Y0309267D01*
X0775940Y0309270D01*
X0775829Y0309277D01*
X0775717Y0309288D01*
X0775607Y0309303D01*
X0775496Y0309322D01*
X0775387Y0309344D01*
X0775278Y0309371D01*
X0775171Y0309401D01*
X0775064Y0309435D01*
X0774959Y0309473D01*
X0774855Y0309515D01*
X0774753Y0309560D01*
X0774652Y0309609D01*
X0774554Y0309661D01*
X0774457Y0309717D01*
X0774362Y0309777D01*
X0774269Y0309839D01*
X0774179Y0309905D01*
X0774091Y0309974D01*
X0774006Y0310046D01*
X0773923Y0310122D01*
X0773843Y0310200D01*
X0773765Y0310280D01*
X0773691Y0310364D01*
X0773620Y0310450D01*
X0773551Y0310538D01*
X0773486Y0310629D01*
X0773425Y0310723D01*
X0773366Y0310818D01*
X0773311Y0310915D01*
X0773260Y0311014D01*
X0773212Y0311115D01*
X0773167Y0311218D01*
X0773126Y0311322D01*
X0773089Y0311428D01*
X0773056Y0311534D01*
X0773027Y0311642D01*
X0773001Y0311751D01*
X0772979Y0311861D01*
X0772962Y0311971D01*
X0772948Y0312082D01*
X0772938Y0312194D01*
X0772932Y0312305D01*
X0772930Y0312417D01*
X0825293Y0282890D02*
X0825295Y0283083D01*
X0825302Y0283276D01*
X0825314Y0283469D01*
X0825331Y0283662D01*
X0825352Y0283854D01*
X0825378Y0284045D01*
X0825409Y0284236D01*
X0825444Y0284426D01*
X0825484Y0284615D01*
X0825529Y0284803D01*
X0825578Y0284990D01*
X0825632Y0285176D01*
X0825690Y0285360D01*
X0825753Y0285543D01*
X0825821Y0285724D01*
X0825892Y0285903D01*
X0825969Y0286081D01*
X0826049Y0286257D01*
X0826134Y0286430D01*
X0826223Y0286602D01*
X0826316Y0286771D01*
X0826413Y0286938D01*
X0826515Y0287103D01*
X0826620Y0287265D01*
X0826729Y0287424D01*
X0826843Y0287581D01*
X0826960Y0287734D01*
X0827080Y0287885D01*
X0827205Y0288033D01*
X0827333Y0288178D01*
X0827464Y0288319D01*
X0827599Y0288458D01*
X0827738Y0288593D01*
X0827879Y0288724D01*
X0828024Y0288852D01*
X0828172Y0288977D01*
X0828323Y0289097D01*
X0828476Y0289214D01*
X0828633Y0289328D01*
X0828792Y0289437D01*
X0828954Y0289542D01*
X0829119Y0289644D01*
X0829286Y0289741D01*
X0829455Y0289834D01*
X0829627Y0289923D01*
X0829800Y0290008D01*
X0829976Y0290088D01*
X0830154Y0290165D01*
X0830333Y0290236D01*
X0830514Y0290304D01*
X0830697Y0290367D01*
X0830881Y0290425D01*
X0831067Y0290479D01*
X0831254Y0290528D01*
X0831442Y0290573D01*
X0831631Y0290613D01*
X0831821Y0290648D01*
X0832012Y0290679D01*
X0832203Y0290705D01*
X0832395Y0290726D01*
X0832588Y0290743D01*
X0832781Y0290755D01*
X0832974Y0290762D01*
X0833167Y0290764D01*
X0833360Y0290762D01*
X0833553Y0290755D01*
X0833746Y0290743D01*
X0833939Y0290726D01*
X0834131Y0290705D01*
X0834322Y0290679D01*
X0834513Y0290648D01*
X0834703Y0290613D01*
X0834892Y0290573D01*
X0835080Y0290528D01*
X0835267Y0290479D01*
X0835453Y0290425D01*
X0835637Y0290367D01*
X0835820Y0290304D01*
X0836001Y0290236D01*
X0836180Y0290165D01*
X0836358Y0290088D01*
X0836534Y0290008D01*
X0836707Y0289923D01*
X0836879Y0289834D01*
X0837048Y0289741D01*
X0837215Y0289644D01*
X0837380Y0289542D01*
X0837542Y0289437D01*
X0837701Y0289328D01*
X0837858Y0289214D01*
X0838011Y0289097D01*
X0838162Y0288977D01*
X0838310Y0288852D01*
X0838455Y0288724D01*
X0838596Y0288593D01*
X0838735Y0288458D01*
X0838870Y0288319D01*
X0839001Y0288178D01*
X0839129Y0288033D01*
X0839254Y0287885D01*
X0839374Y0287734D01*
X0839491Y0287581D01*
X0839605Y0287424D01*
X0839714Y0287265D01*
X0839819Y0287103D01*
X0839921Y0286938D01*
X0840018Y0286771D01*
X0840111Y0286602D01*
X0840200Y0286430D01*
X0840285Y0286257D01*
X0840365Y0286081D01*
X0840442Y0285903D01*
X0840513Y0285724D01*
X0840581Y0285543D01*
X0840644Y0285360D01*
X0840702Y0285176D01*
X0840756Y0284990D01*
X0840805Y0284803D01*
X0840850Y0284615D01*
X0840890Y0284426D01*
X0840925Y0284236D01*
X0840956Y0284045D01*
X0840982Y0283854D01*
X0841003Y0283662D01*
X0841020Y0283469D01*
X0841032Y0283276D01*
X0841039Y0283083D01*
X0841041Y0282890D01*
X0841039Y0282697D01*
X0841032Y0282504D01*
X0841020Y0282311D01*
X0841003Y0282118D01*
X0840982Y0281926D01*
X0840956Y0281735D01*
X0840925Y0281544D01*
X0840890Y0281354D01*
X0840850Y0281165D01*
X0840805Y0280977D01*
X0840756Y0280790D01*
X0840702Y0280604D01*
X0840644Y0280420D01*
X0840581Y0280237D01*
X0840513Y0280056D01*
X0840442Y0279877D01*
X0840365Y0279699D01*
X0840285Y0279523D01*
X0840200Y0279350D01*
X0840111Y0279178D01*
X0840018Y0279009D01*
X0839921Y0278842D01*
X0839819Y0278677D01*
X0839714Y0278515D01*
X0839605Y0278356D01*
X0839491Y0278199D01*
X0839374Y0278046D01*
X0839254Y0277895D01*
X0839129Y0277747D01*
X0839001Y0277602D01*
X0838870Y0277461D01*
X0838735Y0277322D01*
X0838596Y0277187D01*
X0838455Y0277056D01*
X0838310Y0276928D01*
X0838162Y0276803D01*
X0838011Y0276683D01*
X0837858Y0276566D01*
X0837701Y0276452D01*
X0837542Y0276343D01*
X0837380Y0276238D01*
X0837215Y0276136D01*
X0837048Y0276039D01*
X0836879Y0275946D01*
X0836707Y0275857D01*
X0836534Y0275772D01*
X0836358Y0275692D01*
X0836180Y0275615D01*
X0836001Y0275544D01*
X0835820Y0275476D01*
X0835637Y0275413D01*
X0835453Y0275355D01*
X0835267Y0275301D01*
X0835080Y0275252D01*
X0834892Y0275207D01*
X0834703Y0275167D01*
X0834513Y0275132D01*
X0834322Y0275101D01*
X0834131Y0275075D01*
X0833939Y0275054D01*
X0833746Y0275037D01*
X0833553Y0275025D01*
X0833360Y0275018D01*
X0833167Y0275016D01*
X0832974Y0275018D01*
X0832781Y0275025D01*
X0832588Y0275037D01*
X0832395Y0275054D01*
X0832203Y0275075D01*
X0832012Y0275101D01*
X0831821Y0275132D01*
X0831631Y0275167D01*
X0831442Y0275207D01*
X0831254Y0275252D01*
X0831067Y0275301D01*
X0830881Y0275355D01*
X0830697Y0275413D01*
X0830514Y0275476D01*
X0830333Y0275544D01*
X0830154Y0275615D01*
X0829976Y0275692D01*
X0829800Y0275772D01*
X0829627Y0275857D01*
X0829455Y0275946D01*
X0829286Y0276039D01*
X0829119Y0276136D01*
X0828954Y0276238D01*
X0828792Y0276343D01*
X0828633Y0276452D01*
X0828476Y0276566D01*
X0828323Y0276683D01*
X0828172Y0276803D01*
X0828024Y0276928D01*
X0827879Y0277056D01*
X0827738Y0277187D01*
X0827599Y0277322D01*
X0827464Y0277461D01*
X0827333Y0277602D01*
X0827205Y0277747D01*
X0827080Y0277895D01*
X0826960Y0278046D01*
X0826843Y0278199D01*
X0826729Y0278356D01*
X0826620Y0278515D01*
X0826515Y0278677D01*
X0826413Y0278842D01*
X0826316Y0279009D01*
X0826223Y0279178D01*
X0826134Y0279350D01*
X0826049Y0279523D01*
X0825969Y0279699D01*
X0825892Y0279877D01*
X0825821Y0280056D01*
X0825753Y0280237D01*
X0825690Y0280420D01*
X0825632Y0280604D01*
X0825578Y0280790D01*
X0825529Y0280977D01*
X0825484Y0281165D01*
X0825444Y0281354D01*
X0825409Y0281544D01*
X0825378Y0281735D01*
X0825352Y0281926D01*
X0825331Y0282118D01*
X0825314Y0282311D01*
X0825302Y0282504D01*
X0825295Y0282697D01*
X0825293Y0282890D01*
X0882222Y0310016D02*
X0882224Y0310169D01*
X0882230Y0310323D01*
X0882240Y0310476D01*
X0882254Y0310628D01*
X0882272Y0310781D01*
X0882294Y0310932D01*
X0882319Y0311083D01*
X0882349Y0311234D01*
X0882383Y0311384D01*
X0882420Y0311532D01*
X0882461Y0311680D01*
X0882506Y0311826D01*
X0882555Y0311972D01*
X0882608Y0312116D01*
X0882664Y0312258D01*
X0882724Y0312399D01*
X0882788Y0312539D01*
X0882855Y0312677D01*
X0882926Y0312813D01*
X0883001Y0312947D01*
X0883078Y0313079D01*
X0883160Y0313209D01*
X0883244Y0313337D01*
X0883332Y0313463D01*
X0883423Y0313586D01*
X0883517Y0313707D01*
X0883615Y0313825D01*
X0883715Y0313941D01*
X0883819Y0314054D01*
X0883925Y0314165D01*
X0884034Y0314273D01*
X0884146Y0314378D01*
X0884260Y0314479D01*
X0884378Y0314578D01*
X0884497Y0314674D01*
X0884619Y0314767D01*
X0884744Y0314856D01*
X0884871Y0314943D01*
X0885000Y0315025D01*
X0885131Y0315105D01*
X0885264Y0315181D01*
X0885399Y0315254D01*
X0885536Y0315323D01*
X0885675Y0315388D01*
X0885815Y0315450D01*
X0885957Y0315508D01*
X0886100Y0315563D01*
X0886245Y0315614D01*
X0886391Y0315661D01*
X0886538Y0315704D01*
X0886686Y0315743D01*
X0886835Y0315779D01*
X0886985Y0315810D01*
X0887136Y0315838D01*
X0887287Y0315862D01*
X0887440Y0315882D01*
X0887592Y0315898D01*
X0887745Y0315910D01*
X0887898Y0315918D01*
X0888051Y0315922D01*
X0888205Y0315922D01*
X0888358Y0315918D01*
X0888511Y0315910D01*
X0888664Y0315898D01*
X0888816Y0315882D01*
X0888969Y0315862D01*
X0889120Y0315838D01*
X0889271Y0315810D01*
X0889421Y0315779D01*
X0889570Y0315743D01*
X0889718Y0315704D01*
X0889865Y0315661D01*
X0890011Y0315614D01*
X0890156Y0315563D01*
X0890299Y0315508D01*
X0890441Y0315450D01*
X0890581Y0315388D01*
X0890720Y0315323D01*
X0890857Y0315254D01*
X0890992Y0315181D01*
X0891125Y0315105D01*
X0891256Y0315025D01*
X0891385Y0314943D01*
X0891512Y0314856D01*
X0891637Y0314767D01*
X0891759Y0314674D01*
X0891878Y0314578D01*
X0891996Y0314479D01*
X0892110Y0314378D01*
X0892222Y0314273D01*
X0892331Y0314165D01*
X0892437Y0314054D01*
X0892541Y0313941D01*
X0892641Y0313825D01*
X0892739Y0313707D01*
X0892833Y0313586D01*
X0892924Y0313463D01*
X0893012Y0313337D01*
X0893096Y0313209D01*
X0893178Y0313079D01*
X0893255Y0312947D01*
X0893330Y0312813D01*
X0893401Y0312677D01*
X0893468Y0312539D01*
X0893532Y0312399D01*
X0893592Y0312258D01*
X0893648Y0312116D01*
X0893701Y0311972D01*
X0893750Y0311826D01*
X0893795Y0311680D01*
X0893836Y0311532D01*
X0893873Y0311384D01*
X0893907Y0311234D01*
X0893937Y0311083D01*
X0893962Y0310932D01*
X0893984Y0310781D01*
X0894002Y0310628D01*
X0894016Y0310476D01*
X0894026Y0310323D01*
X0894032Y0310169D01*
X0894034Y0310016D01*
X0894032Y0309863D01*
X0894026Y0309709D01*
X0894016Y0309556D01*
X0894002Y0309404D01*
X0893984Y0309251D01*
X0893962Y0309100D01*
X0893937Y0308949D01*
X0893907Y0308798D01*
X0893873Y0308648D01*
X0893836Y0308500D01*
X0893795Y0308352D01*
X0893750Y0308206D01*
X0893701Y0308060D01*
X0893648Y0307916D01*
X0893592Y0307774D01*
X0893532Y0307633D01*
X0893468Y0307493D01*
X0893401Y0307355D01*
X0893330Y0307219D01*
X0893255Y0307085D01*
X0893178Y0306953D01*
X0893096Y0306823D01*
X0893012Y0306695D01*
X0892924Y0306569D01*
X0892833Y0306446D01*
X0892739Y0306325D01*
X0892641Y0306207D01*
X0892541Y0306091D01*
X0892437Y0305978D01*
X0892331Y0305867D01*
X0892222Y0305759D01*
X0892110Y0305654D01*
X0891996Y0305553D01*
X0891878Y0305454D01*
X0891759Y0305358D01*
X0891637Y0305265D01*
X0891512Y0305176D01*
X0891385Y0305089D01*
X0891256Y0305007D01*
X0891125Y0304927D01*
X0890992Y0304851D01*
X0890857Y0304778D01*
X0890720Y0304709D01*
X0890581Y0304644D01*
X0890441Y0304582D01*
X0890299Y0304524D01*
X0890156Y0304469D01*
X0890011Y0304418D01*
X0889865Y0304371D01*
X0889718Y0304328D01*
X0889570Y0304289D01*
X0889421Y0304253D01*
X0889271Y0304222D01*
X0889120Y0304194D01*
X0888969Y0304170D01*
X0888816Y0304150D01*
X0888664Y0304134D01*
X0888511Y0304122D01*
X0888358Y0304114D01*
X0888205Y0304110D01*
X0888051Y0304110D01*
X0887898Y0304114D01*
X0887745Y0304122D01*
X0887592Y0304134D01*
X0887440Y0304150D01*
X0887287Y0304170D01*
X0887136Y0304194D01*
X0886985Y0304222D01*
X0886835Y0304253D01*
X0886686Y0304289D01*
X0886538Y0304328D01*
X0886391Y0304371D01*
X0886245Y0304418D01*
X0886100Y0304469D01*
X0885957Y0304524D01*
X0885815Y0304582D01*
X0885675Y0304644D01*
X0885536Y0304709D01*
X0885399Y0304778D01*
X0885264Y0304851D01*
X0885131Y0304927D01*
X0885000Y0305007D01*
X0884871Y0305089D01*
X0884744Y0305176D01*
X0884619Y0305265D01*
X0884497Y0305358D01*
X0884378Y0305454D01*
X0884260Y0305553D01*
X0884146Y0305654D01*
X0884034Y0305759D01*
X0883925Y0305867D01*
X0883819Y0305978D01*
X0883715Y0306091D01*
X0883615Y0306207D01*
X0883517Y0306325D01*
X0883423Y0306446D01*
X0883332Y0306569D01*
X0883244Y0306695D01*
X0883160Y0306823D01*
X0883078Y0306953D01*
X0883001Y0307085D01*
X0882926Y0307219D01*
X0882855Y0307355D01*
X0882788Y0307493D01*
X0882724Y0307633D01*
X0882664Y0307774D01*
X0882608Y0307916D01*
X0882555Y0308060D01*
X0882506Y0308206D01*
X0882461Y0308352D01*
X0882420Y0308500D01*
X0882383Y0308648D01*
X0882349Y0308798D01*
X0882319Y0308949D01*
X0882294Y0309100D01*
X0882272Y0309251D01*
X0882254Y0309404D01*
X0882240Y0309556D01*
X0882230Y0309709D01*
X0882224Y0309863D01*
X0882222Y0310016D01*
X0952852Y0301787D02*
X0952854Y0301940D01*
X0952860Y0302094D01*
X0952870Y0302247D01*
X0952884Y0302399D01*
X0952902Y0302552D01*
X0952924Y0302703D01*
X0952949Y0302854D01*
X0952979Y0303005D01*
X0953013Y0303155D01*
X0953050Y0303303D01*
X0953091Y0303451D01*
X0953136Y0303597D01*
X0953185Y0303743D01*
X0953238Y0303887D01*
X0953294Y0304029D01*
X0953354Y0304170D01*
X0953418Y0304310D01*
X0953485Y0304448D01*
X0953556Y0304584D01*
X0953631Y0304718D01*
X0953708Y0304850D01*
X0953790Y0304980D01*
X0953874Y0305108D01*
X0953962Y0305234D01*
X0954053Y0305357D01*
X0954147Y0305478D01*
X0954245Y0305596D01*
X0954345Y0305712D01*
X0954449Y0305825D01*
X0954555Y0305936D01*
X0954664Y0306044D01*
X0954776Y0306149D01*
X0954890Y0306250D01*
X0955008Y0306349D01*
X0955127Y0306445D01*
X0955249Y0306538D01*
X0955374Y0306627D01*
X0955501Y0306714D01*
X0955630Y0306796D01*
X0955761Y0306876D01*
X0955894Y0306952D01*
X0956029Y0307025D01*
X0956166Y0307094D01*
X0956305Y0307159D01*
X0956445Y0307221D01*
X0956587Y0307279D01*
X0956730Y0307334D01*
X0956875Y0307385D01*
X0957021Y0307432D01*
X0957168Y0307475D01*
X0957316Y0307514D01*
X0957465Y0307550D01*
X0957615Y0307581D01*
X0957766Y0307609D01*
X0957917Y0307633D01*
X0958070Y0307653D01*
X0958222Y0307669D01*
X0958375Y0307681D01*
X0958528Y0307689D01*
X0958681Y0307693D01*
X0958835Y0307693D01*
X0958988Y0307689D01*
X0959141Y0307681D01*
X0959294Y0307669D01*
X0959446Y0307653D01*
X0959599Y0307633D01*
X0959750Y0307609D01*
X0959901Y0307581D01*
X0960051Y0307550D01*
X0960200Y0307514D01*
X0960348Y0307475D01*
X0960495Y0307432D01*
X0960641Y0307385D01*
X0960786Y0307334D01*
X0960929Y0307279D01*
X0961071Y0307221D01*
X0961211Y0307159D01*
X0961350Y0307094D01*
X0961487Y0307025D01*
X0961622Y0306952D01*
X0961755Y0306876D01*
X0961886Y0306796D01*
X0962015Y0306714D01*
X0962142Y0306627D01*
X0962267Y0306538D01*
X0962389Y0306445D01*
X0962508Y0306349D01*
X0962626Y0306250D01*
X0962740Y0306149D01*
X0962852Y0306044D01*
X0962961Y0305936D01*
X0963067Y0305825D01*
X0963171Y0305712D01*
X0963271Y0305596D01*
X0963369Y0305478D01*
X0963463Y0305357D01*
X0963554Y0305234D01*
X0963642Y0305108D01*
X0963726Y0304980D01*
X0963808Y0304850D01*
X0963885Y0304718D01*
X0963960Y0304584D01*
X0964031Y0304448D01*
X0964098Y0304310D01*
X0964162Y0304170D01*
X0964222Y0304029D01*
X0964278Y0303887D01*
X0964331Y0303743D01*
X0964380Y0303597D01*
X0964425Y0303451D01*
X0964466Y0303303D01*
X0964503Y0303155D01*
X0964537Y0303005D01*
X0964567Y0302854D01*
X0964592Y0302703D01*
X0964614Y0302552D01*
X0964632Y0302399D01*
X0964646Y0302247D01*
X0964656Y0302094D01*
X0964662Y0301940D01*
X0964664Y0301787D01*
X0964662Y0301634D01*
X0964656Y0301480D01*
X0964646Y0301327D01*
X0964632Y0301175D01*
X0964614Y0301022D01*
X0964592Y0300871D01*
X0964567Y0300720D01*
X0964537Y0300569D01*
X0964503Y0300419D01*
X0964466Y0300271D01*
X0964425Y0300123D01*
X0964380Y0299977D01*
X0964331Y0299831D01*
X0964278Y0299687D01*
X0964222Y0299545D01*
X0964162Y0299404D01*
X0964098Y0299264D01*
X0964031Y0299126D01*
X0963960Y0298990D01*
X0963885Y0298856D01*
X0963808Y0298724D01*
X0963726Y0298594D01*
X0963642Y0298466D01*
X0963554Y0298340D01*
X0963463Y0298217D01*
X0963369Y0298096D01*
X0963271Y0297978D01*
X0963171Y0297862D01*
X0963067Y0297749D01*
X0962961Y0297638D01*
X0962852Y0297530D01*
X0962740Y0297425D01*
X0962626Y0297324D01*
X0962508Y0297225D01*
X0962389Y0297129D01*
X0962267Y0297036D01*
X0962142Y0296947D01*
X0962015Y0296860D01*
X0961886Y0296778D01*
X0961755Y0296698D01*
X0961622Y0296622D01*
X0961487Y0296549D01*
X0961350Y0296480D01*
X0961211Y0296415D01*
X0961071Y0296353D01*
X0960929Y0296295D01*
X0960786Y0296240D01*
X0960641Y0296189D01*
X0960495Y0296142D01*
X0960348Y0296099D01*
X0960200Y0296060D01*
X0960051Y0296024D01*
X0959901Y0295993D01*
X0959750Y0295965D01*
X0959599Y0295941D01*
X0959446Y0295921D01*
X0959294Y0295905D01*
X0959141Y0295893D01*
X0958988Y0295885D01*
X0958835Y0295881D01*
X0958681Y0295881D01*
X0958528Y0295885D01*
X0958375Y0295893D01*
X0958222Y0295905D01*
X0958070Y0295921D01*
X0957917Y0295941D01*
X0957766Y0295965D01*
X0957615Y0295993D01*
X0957465Y0296024D01*
X0957316Y0296060D01*
X0957168Y0296099D01*
X0957021Y0296142D01*
X0956875Y0296189D01*
X0956730Y0296240D01*
X0956587Y0296295D01*
X0956445Y0296353D01*
X0956305Y0296415D01*
X0956166Y0296480D01*
X0956029Y0296549D01*
X0955894Y0296622D01*
X0955761Y0296698D01*
X0955630Y0296778D01*
X0955501Y0296860D01*
X0955374Y0296947D01*
X0955249Y0297036D01*
X0955127Y0297129D01*
X0955008Y0297225D01*
X0954890Y0297324D01*
X0954776Y0297425D01*
X0954664Y0297530D01*
X0954555Y0297638D01*
X0954449Y0297749D01*
X0954345Y0297862D01*
X0954245Y0297978D01*
X0954147Y0298096D01*
X0954053Y0298217D01*
X0953962Y0298340D01*
X0953874Y0298466D01*
X0953790Y0298594D01*
X0953708Y0298724D01*
X0953631Y0298856D01*
X0953556Y0298990D01*
X0953485Y0299126D01*
X0953418Y0299264D01*
X0953354Y0299404D01*
X0953294Y0299545D01*
X0953238Y0299687D01*
X0953185Y0299831D01*
X0953136Y0299977D01*
X0953091Y0300123D01*
X0953050Y0300271D01*
X0953013Y0300419D01*
X0952979Y0300569D01*
X0952949Y0300720D01*
X0952924Y0300871D01*
X0952902Y0301022D01*
X0952884Y0301175D01*
X0952870Y0301327D01*
X0952860Y0301480D01*
X0952854Y0301634D01*
X0952852Y0301787D01*
X0980411Y0301787D02*
X0980413Y0301940D01*
X0980419Y0302094D01*
X0980429Y0302247D01*
X0980443Y0302399D01*
X0980461Y0302552D01*
X0980483Y0302703D01*
X0980508Y0302854D01*
X0980538Y0303005D01*
X0980572Y0303155D01*
X0980609Y0303303D01*
X0980650Y0303451D01*
X0980695Y0303597D01*
X0980744Y0303743D01*
X0980797Y0303887D01*
X0980853Y0304029D01*
X0980913Y0304170D01*
X0980977Y0304310D01*
X0981044Y0304448D01*
X0981115Y0304584D01*
X0981190Y0304718D01*
X0981267Y0304850D01*
X0981349Y0304980D01*
X0981433Y0305108D01*
X0981521Y0305234D01*
X0981612Y0305357D01*
X0981706Y0305478D01*
X0981804Y0305596D01*
X0981904Y0305712D01*
X0982008Y0305825D01*
X0982114Y0305936D01*
X0982223Y0306044D01*
X0982335Y0306149D01*
X0982449Y0306250D01*
X0982567Y0306349D01*
X0982686Y0306445D01*
X0982808Y0306538D01*
X0982933Y0306627D01*
X0983060Y0306714D01*
X0983189Y0306796D01*
X0983320Y0306876D01*
X0983453Y0306952D01*
X0983588Y0307025D01*
X0983725Y0307094D01*
X0983864Y0307159D01*
X0984004Y0307221D01*
X0984146Y0307279D01*
X0984289Y0307334D01*
X0984434Y0307385D01*
X0984580Y0307432D01*
X0984727Y0307475D01*
X0984875Y0307514D01*
X0985024Y0307550D01*
X0985174Y0307581D01*
X0985325Y0307609D01*
X0985476Y0307633D01*
X0985629Y0307653D01*
X0985781Y0307669D01*
X0985934Y0307681D01*
X0986087Y0307689D01*
X0986240Y0307693D01*
X0986394Y0307693D01*
X0986547Y0307689D01*
X0986700Y0307681D01*
X0986853Y0307669D01*
X0987005Y0307653D01*
X0987158Y0307633D01*
X0987309Y0307609D01*
X0987460Y0307581D01*
X0987610Y0307550D01*
X0987759Y0307514D01*
X0987907Y0307475D01*
X0988054Y0307432D01*
X0988200Y0307385D01*
X0988345Y0307334D01*
X0988488Y0307279D01*
X0988630Y0307221D01*
X0988770Y0307159D01*
X0988909Y0307094D01*
X0989046Y0307025D01*
X0989181Y0306952D01*
X0989314Y0306876D01*
X0989445Y0306796D01*
X0989574Y0306714D01*
X0989701Y0306627D01*
X0989826Y0306538D01*
X0989948Y0306445D01*
X0990067Y0306349D01*
X0990185Y0306250D01*
X0990299Y0306149D01*
X0990411Y0306044D01*
X0990520Y0305936D01*
X0990626Y0305825D01*
X0990730Y0305712D01*
X0990830Y0305596D01*
X0990928Y0305478D01*
X0991022Y0305357D01*
X0991113Y0305234D01*
X0991201Y0305108D01*
X0991285Y0304980D01*
X0991367Y0304850D01*
X0991444Y0304718D01*
X0991519Y0304584D01*
X0991590Y0304448D01*
X0991657Y0304310D01*
X0991721Y0304170D01*
X0991781Y0304029D01*
X0991837Y0303887D01*
X0991890Y0303743D01*
X0991939Y0303597D01*
X0991984Y0303451D01*
X0992025Y0303303D01*
X0992062Y0303155D01*
X0992096Y0303005D01*
X0992126Y0302854D01*
X0992151Y0302703D01*
X0992173Y0302552D01*
X0992191Y0302399D01*
X0992205Y0302247D01*
X0992215Y0302094D01*
X0992221Y0301940D01*
X0992223Y0301787D01*
X0992221Y0301634D01*
X0992215Y0301480D01*
X0992205Y0301327D01*
X0992191Y0301175D01*
X0992173Y0301022D01*
X0992151Y0300871D01*
X0992126Y0300720D01*
X0992096Y0300569D01*
X0992062Y0300419D01*
X0992025Y0300271D01*
X0991984Y0300123D01*
X0991939Y0299977D01*
X0991890Y0299831D01*
X0991837Y0299687D01*
X0991781Y0299545D01*
X0991721Y0299404D01*
X0991657Y0299264D01*
X0991590Y0299126D01*
X0991519Y0298990D01*
X0991444Y0298856D01*
X0991367Y0298724D01*
X0991285Y0298594D01*
X0991201Y0298466D01*
X0991113Y0298340D01*
X0991022Y0298217D01*
X0990928Y0298096D01*
X0990830Y0297978D01*
X0990730Y0297862D01*
X0990626Y0297749D01*
X0990520Y0297638D01*
X0990411Y0297530D01*
X0990299Y0297425D01*
X0990185Y0297324D01*
X0990067Y0297225D01*
X0989948Y0297129D01*
X0989826Y0297036D01*
X0989701Y0296947D01*
X0989574Y0296860D01*
X0989445Y0296778D01*
X0989314Y0296698D01*
X0989181Y0296622D01*
X0989046Y0296549D01*
X0988909Y0296480D01*
X0988770Y0296415D01*
X0988630Y0296353D01*
X0988488Y0296295D01*
X0988345Y0296240D01*
X0988200Y0296189D01*
X0988054Y0296142D01*
X0987907Y0296099D01*
X0987759Y0296060D01*
X0987610Y0296024D01*
X0987460Y0295993D01*
X0987309Y0295965D01*
X0987158Y0295941D01*
X0987005Y0295921D01*
X0986853Y0295905D01*
X0986700Y0295893D01*
X0986547Y0295885D01*
X0986394Y0295881D01*
X0986240Y0295881D01*
X0986087Y0295885D01*
X0985934Y0295893D01*
X0985781Y0295905D01*
X0985629Y0295921D01*
X0985476Y0295941D01*
X0985325Y0295965D01*
X0985174Y0295993D01*
X0985024Y0296024D01*
X0984875Y0296060D01*
X0984727Y0296099D01*
X0984580Y0296142D01*
X0984434Y0296189D01*
X0984289Y0296240D01*
X0984146Y0296295D01*
X0984004Y0296353D01*
X0983864Y0296415D01*
X0983725Y0296480D01*
X0983588Y0296549D01*
X0983453Y0296622D01*
X0983320Y0296698D01*
X0983189Y0296778D01*
X0983060Y0296860D01*
X0982933Y0296947D01*
X0982808Y0297036D01*
X0982686Y0297129D01*
X0982567Y0297225D01*
X0982449Y0297324D01*
X0982335Y0297425D01*
X0982223Y0297530D01*
X0982114Y0297638D01*
X0982008Y0297749D01*
X0981904Y0297862D01*
X0981804Y0297978D01*
X0981706Y0298096D01*
X0981612Y0298217D01*
X0981521Y0298340D01*
X0981433Y0298466D01*
X0981349Y0298594D01*
X0981267Y0298724D01*
X0981190Y0298856D01*
X0981115Y0298990D01*
X0981044Y0299126D01*
X0980977Y0299264D01*
X0980913Y0299404D01*
X0980853Y0299545D01*
X0980797Y0299687D01*
X0980744Y0299831D01*
X0980695Y0299977D01*
X0980650Y0300123D01*
X0980609Y0300271D01*
X0980572Y0300419D01*
X0980538Y0300569D01*
X0980508Y0300720D01*
X0980483Y0300871D01*
X0980461Y0301022D01*
X0980443Y0301175D01*
X0980429Y0301327D01*
X0980419Y0301480D01*
X0980413Y0301634D01*
X0980411Y0301787D01*
X0923718Y0275016D02*
X1199309Y0275016D01*
X1199309Y0275015D02*
X1199346Y0275120D01*
X1199386Y0275223D01*
X1199431Y0275325D01*
X1199479Y0275425D01*
X1199530Y0275524D01*
X1199585Y0275620D01*
X1199644Y0275715D01*
X1199705Y0275807D01*
X1199770Y0275897D01*
X1199839Y0275985D01*
X1199910Y0276070D01*
X1199984Y0276152D01*
X1200061Y0276232D01*
X1200141Y0276309D01*
X1200224Y0276384D01*
X1200309Y0276455D01*
X1200397Y0276523D01*
X1200487Y0276588D01*
X1200579Y0276649D01*
X1200674Y0276708D01*
X1200770Y0276763D01*
X1200869Y0276814D01*
X1200969Y0276862D01*
X1201071Y0276906D01*
X1201174Y0276947D01*
X1201279Y0276984D01*
X1201385Y0277017D01*
X1201492Y0277047D01*
X1201600Y0277072D01*
X1201709Y0277094D01*
X1201819Y0277111D01*
X1201929Y0277125D01*
X1202040Y0277135D01*
X1202150Y0277141D01*
X1202262Y0277143D01*
X1202373Y0277141D01*
X1202483Y0277135D01*
X1202594Y0277125D01*
X1202704Y0277111D01*
X1202814Y0277093D01*
X1202923Y0277072D01*
X1203031Y0277046D01*
X1203138Y0277017D01*
X1203244Y0276984D01*
X1203349Y0276947D01*
X1203452Y0276906D01*
X1203554Y0276862D01*
X1203654Y0276814D01*
X1203753Y0276762D01*
X1203849Y0276707D01*
X1203944Y0276649D01*
X1204036Y0276587D01*
X1204126Y0276522D01*
X1204214Y0276454D01*
X1204299Y0276383D01*
X1204382Y0276309D01*
X1204462Y0276232D01*
X1204539Y0276152D01*
X1204613Y0276069D01*
X1204684Y0275984D01*
X1204752Y0275896D01*
X1204817Y0275806D01*
X1204879Y0275714D01*
X1204937Y0275619D01*
X1204992Y0275523D01*
X1205044Y0275424D01*
X1205092Y0275324D01*
X1205136Y0275222D01*
X1205177Y0275119D01*
X1205214Y0275014D01*
X1205247Y0274908D01*
X1205276Y0274801D01*
X1205302Y0274693D01*
X1205323Y0274584D01*
X1205341Y0274474D01*
X1205355Y0274364D01*
X1205365Y0274253D01*
X1205371Y0274143D01*
X1205373Y0274032D01*
X1205371Y0273920D01*
X1205365Y0273810D01*
X1205355Y0273699D01*
X1205341Y0273589D01*
X1205324Y0273479D01*
X1205302Y0273370D01*
X1205277Y0273262D01*
X1205247Y0273155D01*
X1205214Y0273049D01*
X1205177Y0272944D01*
X1205136Y0272841D01*
X1205092Y0272739D01*
X1205044Y0272639D01*
X1204993Y0272540D01*
X1204938Y0272444D01*
X1204879Y0272349D01*
X1204818Y0272257D01*
X1204753Y0272167D01*
X1204685Y0272079D01*
X1204614Y0271994D01*
X1204539Y0271911D01*
X1204462Y0271831D01*
X1204382Y0271754D01*
X1204300Y0271680D01*
X1204215Y0271609D01*
X1204127Y0271540D01*
X1204037Y0271475D01*
X1203945Y0271414D01*
X1203850Y0271355D01*
X1203754Y0271300D01*
X1203655Y0271249D01*
X1203555Y0271201D01*
X1203453Y0271156D01*
X1203350Y0271116D01*
X1203245Y0271079D01*
X1203246Y0271079D02*
X1203246Y0172654D01*
X1203245Y0172653D02*
X1203350Y0172616D01*
X1203453Y0172576D01*
X1203555Y0172531D01*
X1203655Y0172483D01*
X1203754Y0172432D01*
X1203850Y0172377D01*
X1203945Y0172318D01*
X1204037Y0172257D01*
X1204127Y0172192D01*
X1204215Y0172123D01*
X1204300Y0172052D01*
X1204382Y0171978D01*
X1204462Y0171901D01*
X1204539Y0171821D01*
X1204614Y0171738D01*
X1204685Y0171653D01*
X1204753Y0171565D01*
X1204818Y0171475D01*
X1204879Y0171383D01*
X1204938Y0171288D01*
X1204993Y0171192D01*
X1205044Y0171093D01*
X1205092Y0170993D01*
X1205136Y0170891D01*
X1205177Y0170788D01*
X1205214Y0170683D01*
X1205247Y0170577D01*
X1205277Y0170470D01*
X1205302Y0170362D01*
X1205324Y0170253D01*
X1205341Y0170143D01*
X1205355Y0170033D01*
X1205365Y0169922D01*
X1205371Y0169812D01*
X1205373Y0169700D01*
X1205371Y0169589D01*
X1205365Y0169479D01*
X1205355Y0169368D01*
X1205341Y0169258D01*
X1205323Y0169148D01*
X1205302Y0169039D01*
X1205276Y0168931D01*
X1205247Y0168824D01*
X1205214Y0168718D01*
X1205177Y0168613D01*
X1205136Y0168510D01*
X1205092Y0168408D01*
X1205044Y0168308D01*
X1204992Y0168209D01*
X1204937Y0168113D01*
X1204879Y0168018D01*
X1204817Y0167926D01*
X1204752Y0167836D01*
X1204684Y0167748D01*
X1204613Y0167663D01*
X1204539Y0167580D01*
X1204462Y0167500D01*
X1204382Y0167423D01*
X1204299Y0167349D01*
X1204214Y0167278D01*
X1204126Y0167210D01*
X1204036Y0167145D01*
X1203944Y0167083D01*
X1203849Y0167025D01*
X1203753Y0166970D01*
X1203654Y0166918D01*
X1203554Y0166870D01*
X1203452Y0166826D01*
X1203349Y0166785D01*
X1203244Y0166748D01*
X1203138Y0166715D01*
X1203031Y0166686D01*
X1202923Y0166660D01*
X1202814Y0166639D01*
X1202704Y0166621D01*
X1202594Y0166607D01*
X1202483Y0166597D01*
X1202373Y0166591D01*
X1202262Y0166589D01*
X1202150Y0166591D01*
X1202040Y0166597D01*
X1201929Y0166607D01*
X1201819Y0166621D01*
X1201709Y0166638D01*
X1201600Y0166660D01*
X1201492Y0166685D01*
X1201385Y0166715D01*
X1201279Y0166748D01*
X1201174Y0166785D01*
X1201071Y0166826D01*
X1200969Y0166870D01*
X1200869Y0166918D01*
X1200770Y0166969D01*
X1200674Y0167024D01*
X1200579Y0167083D01*
X1200487Y0167144D01*
X1200397Y0167209D01*
X1200309Y0167277D01*
X1200224Y0167348D01*
X1200141Y0167423D01*
X1200061Y0167500D01*
X1199984Y0167580D01*
X1199910Y0167662D01*
X1199839Y0167747D01*
X1199770Y0167835D01*
X1199705Y0167925D01*
X1199644Y0168017D01*
X1199585Y0168112D01*
X1199530Y0168208D01*
X1199479Y0168307D01*
X1199431Y0168407D01*
X1199386Y0168509D01*
X1199346Y0168612D01*
X1199309Y0168717D01*
X0923718Y0168717D01*
X0923717Y0168717D02*
X0923680Y0168612D01*
X0923640Y0168509D01*
X0923595Y0168407D01*
X0923547Y0168307D01*
X0923496Y0168208D01*
X0923441Y0168112D01*
X0923382Y0168017D01*
X0923321Y0167925D01*
X0923256Y0167835D01*
X0923187Y0167747D01*
X0923116Y0167662D01*
X0923042Y0167580D01*
X0922965Y0167500D01*
X0922885Y0167423D01*
X0922802Y0167348D01*
X0922717Y0167277D01*
X0922629Y0167209D01*
X0922539Y0167144D01*
X0922447Y0167083D01*
X0922352Y0167024D01*
X0922256Y0166969D01*
X0922157Y0166918D01*
X0922057Y0166870D01*
X0921955Y0166826D01*
X0921852Y0166785D01*
X0921747Y0166748D01*
X0921641Y0166715D01*
X0921534Y0166685D01*
X0921426Y0166660D01*
X0921317Y0166638D01*
X0921207Y0166621D01*
X0921097Y0166607D01*
X0920986Y0166597D01*
X0920876Y0166591D01*
X0920764Y0166589D01*
X0920653Y0166591D01*
X0920543Y0166597D01*
X0920432Y0166607D01*
X0920322Y0166621D01*
X0920212Y0166639D01*
X0920103Y0166660D01*
X0919995Y0166686D01*
X0919888Y0166715D01*
X0919782Y0166748D01*
X0919677Y0166785D01*
X0919574Y0166826D01*
X0919472Y0166870D01*
X0919372Y0166918D01*
X0919273Y0166970D01*
X0919177Y0167025D01*
X0919082Y0167083D01*
X0918990Y0167145D01*
X0918900Y0167210D01*
X0918812Y0167278D01*
X0918727Y0167349D01*
X0918644Y0167423D01*
X0918564Y0167500D01*
X0918487Y0167580D01*
X0918413Y0167663D01*
X0918342Y0167748D01*
X0918274Y0167836D01*
X0918209Y0167926D01*
X0918147Y0168018D01*
X0918089Y0168113D01*
X0918034Y0168209D01*
X0917982Y0168308D01*
X0917934Y0168408D01*
X0917890Y0168510D01*
X0917849Y0168613D01*
X0917812Y0168718D01*
X0917779Y0168824D01*
X0917750Y0168931D01*
X0917724Y0169039D01*
X0917703Y0169148D01*
X0917685Y0169258D01*
X0917671Y0169368D01*
X0917661Y0169479D01*
X0917655Y0169589D01*
X0917653Y0169700D01*
X0917655Y0169812D01*
X0917661Y0169922D01*
X0917671Y0170033D01*
X0917685Y0170143D01*
X0917702Y0170253D01*
X0917724Y0170362D01*
X0917749Y0170470D01*
X0917779Y0170577D01*
X0917812Y0170683D01*
X0917849Y0170788D01*
X0917890Y0170891D01*
X0917934Y0170993D01*
X0917982Y0171093D01*
X0918033Y0171192D01*
X0918088Y0171288D01*
X0918147Y0171383D01*
X0918208Y0171475D01*
X0918273Y0171565D01*
X0918341Y0171653D01*
X0918412Y0171738D01*
X0918487Y0171821D01*
X0918564Y0171901D01*
X0918644Y0171978D01*
X0918726Y0172052D01*
X0918811Y0172123D01*
X0918899Y0172192D01*
X0918989Y0172257D01*
X0919081Y0172318D01*
X0919176Y0172377D01*
X0919272Y0172432D01*
X0919371Y0172483D01*
X0919471Y0172531D01*
X0919573Y0172576D01*
X0919676Y0172616D01*
X0919781Y0172653D01*
X0919781Y0172654D02*
X0919781Y0271079D01*
X0919676Y0271116D01*
X0919573Y0271156D01*
X0919471Y0271201D01*
X0919371Y0271249D01*
X0919272Y0271300D01*
X0919176Y0271355D01*
X0919081Y0271414D01*
X0918989Y0271475D01*
X0918899Y0271540D01*
X0918811Y0271609D01*
X0918726Y0271680D01*
X0918644Y0271754D01*
X0918564Y0271831D01*
X0918487Y0271911D01*
X0918412Y0271994D01*
X0918341Y0272079D01*
X0918273Y0272167D01*
X0918208Y0272257D01*
X0918147Y0272349D01*
X0918088Y0272444D01*
X0918033Y0272540D01*
X0917982Y0272639D01*
X0917934Y0272739D01*
X0917890Y0272841D01*
X0917849Y0272944D01*
X0917812Y0273049D01*
X0917779Y0273155D01*
X0917749Y0273262D01*
X0917724Y0273370D01*
X0917702Y0273479D01*
X0917685Y0273589D01*
X0917671Y0273699D01*
X0917661Y0273810D01*
X0917655Y0273920D01*
X0917653Y0274032D01*
X0917655Y0274143D01*
X0917661Y0274253D01*
X0917671Y0274364D01*
X0917685Y0274474D01*
X0917703Y0274584D01*
X0917724Y0274693D01*
X0917750Y0274801D01*
X0917779Y0274908D01*
X0917812Y0275014D01*
X0917849Y0275119D01*
X0917890Y0275222D01*
X0917934Y0275324D01*
X0917982Y0275424D01*
X0918034Y0275523D01*
X0918089Y0275619D01*
X0918147Y0275714D01*
X0918209Y0275806D01*
X0918274Y0275896D01*
X0918342Y0275984D01*
X0918413Y0276069D01*
X0918487Y0276152D01*
X0918564Y0276232D01*
X0918644Y0276309D01*
X0918727Y0276383D01*
X0918812Y0276454D01*
X0918900Y0276522D01*
X0918990Y0276587D01*
X0919082Y0276649D01*
X0919177Y0276707D01*
X0919273Y0276762D01*
X0919372Y0276814D01*
X0919472Y0276862D01*
X0919574Y0276906D01*
X0919677Y0276947D01*
X0919782Y0276984D01*
X0919888Y0277017D01*
X0919995Y0277046D01*
X0920103Y0277072D01*
X0920212Y0277093D01*
X0920322Y0277111D01*
X0920432Y0277125D01*
X0920543Y0277135D01*
X0920653Y0277141D01*
X0920764Y0277143D01*
X0920876Y0277141D01*
X0920986Y0277135D01*
X0921097Y0277125D01*
X0921207Y0277111D01*
X0921317Y0277094D01*
X0921426Y0277072D01*
X0921534Y0277047D01*
X0921641Y0277017D01*
X0921747Y0276984D01*
X0921852Y0276947D01*
X0921955Y0276906D01*
X0922057Y0276862D01*
X0922157Y0276814D01*
X0922256Y0276763D01*
X0922352Y0276708D01*
X0922447Y0276649D01*
X0922539Y0276588D01*
X0922629Y0276523D01*
X0922717Y0276455D01*
X0922802Y0276384D01*
X0922885Y0276309D01*
X0922965Y0276232D01*
X0923042Y0276152D01*
X0923116Y0276070D01*
X0923187Y0275985D01*
X0923256Y0275897D01*
X0923321Y0275807D01*
X0923382Y0275715D01*
X0923441Y0275620D01*
X0923496Y0275524D01*
X0923547Y0275425D01*
X0923595Y0275325D01*
X0923640Y0275223D01*
X0923680Y0275120D01*
X0923717Y0275015D01*
X0825292Y0243520D02*
X0825294Y0243673D01*
X0825300Y0243827D01*
X0825310Y0243980D01*
X0825324Y0244132D01*
X0825342Y0244285D01*
X0825364Y0244436D01*
X0825389Y0244587D01*
X0825419Y0244738D01*
X0825453Y0244888D01*
X0825490Y0245036D01*
X0825531Y0245184D01*
X0825576Y0245330D01*
X0825625Y0245476D01*
X0825678Y0245620D01*
X0825734Y0245762D01*
X0825794Y0245903D01*
X0825858Y0246043D01*
X0825925Y0246181D01*
X0825996Y0246317D01*
X0826071Y0246451D01*
X0826148Y0246583D01*
X0826230Y0246713D01*
X0826314Y0246841D01*
X0826402Y0246967D01*
X0826493Y0247090D01*
X0826587Y0247211D01*
X0826685Y0247329D01*
X0826785Y0247445D01*
X0826889Y0247558D01*
X0826995Y0247669D01*
X0827104Y0247777D01*
X0827216Y0247882D01*
X0827330Y0247983D01*
X0827448Y0248082D01*
X0827567Y0248178D01*
X0827689Y0248271D01*
X0827814Y0248360D01*
X0827941Y0248447D01*
X0828070Y0248529D01*
X0828201Y0248609D01*
X0828334Y0248685D01*
X0828469Y0248758D01*
X0828606Y0248827D01*
X0828745Y0248892D01*
X0828885Y0248954D01*
X0829027Y0249012D01*
X0829170Y0249067D01*
X0829315Y0249118D01*
X0829461Y0249165D01*
X0829608Y0249208D01*
X0829756Y0249247D01*
X0829905Y0249283D01*
X0830055Y0249314D01*
X0830206Y0249342D01*
X0830357Y0249366D01*
X0830510Y0249386D01*
X0830662Y0249402D01*
X0830815Y0249414D01*
X0830968Y0249422D01*
X0831121Y0249426D01*
X0831275Y0249426D01*
X0831428Y0249422D01*
X0831581Y0249414D01*
X0831734Y0249402D01*
X0831886Y0249386D01*
X0832039Y0249366D01*
X0832190Y0249342D01*
X0832341Y0249314D01*
X0832491Y0249283D01*
X0832640Y0249247D01*
X0832788Y0249208D01*
X0832935Y0249165D01*
X0833081Y0249118D01*
X0833226Y0249067D01*
X0833369Y0249012D01*
X0833511Y0248954D01*
X0833651Y0248892D01*
X0833790Y0248827D01*
X0833927Y0248758D01*
X0834062Y0248685D01*
X0834195Y0248609D01*
X0834326Y0248529D01*
X0834455Y0248447D01*
X0834582Y0248360D01*
X0834707Y0248271D01*
X0834829Y0248178D01*
X0834948Y0248082D01*
X0835066Y0247983D01*
X0835180Y0247882D01*
X0835292Y0247777D01*
X0835401Y0247669D01*
X0835507Y0247558D01*
X0835611Y0247445D01*
X0835711Y0247329D01*
X0835809Y0247211D01*
X0835903Y0247090D01*
X0835994Y0246967D01*
X0836082Y0246841D01*
X0836166Y0246713D01*
X0836248Y0246583D01*
X0836325Y0246451D01*
X0836400Y0246317D01*
X0836471Y0246181D01*
X0836538Y0246043D01*
X0836602Y0245903D01*
X0836662Y0245762D01*
X0836718Y0245620D01*
X0836771Y0245476D01*
X0836820Y0245330D01*
X0836865Y0245184D01*
X0836906Y0245036D01*
X0836943Y0244888D01*
X0836977Y0244738D01*
X0837007Y0244587D01*
X0837032Y0244436D01*
X0837054Y0244285D01*
X0837072Y0244132D01*
X0837086Y0243980D01*
X0837096Y0243827D01*
X0837102Y0243673D01*
X0837104Y0243520D01*
X0837102Y0243367D01*
X0837096Y0243213D01*
X0837086Y0243060D01*
X0837072Y0242908D01*
X0837054Y0242755D01*
X0837032Y0242604D01*
X0837007Y0242453D01*
X0836977Y0242302D01*
X0836943Y0242152D01*
X0836906Y0242004D01*
X0836865Y0241856D01*
X0836820Y0241710D01*
X0836771Y0241564D01*
X0836718Y0241420D01*
X0836662Y0241278D01*
X0836602Y0241137D01*
X0836538Y0240997D01*
X0836471Y0240859D01*
X0836400Y0240723D01*
X0836325Y0240589D01*
X0836248Y0240457D01*
X0836166Y0240327D01*
X0836082Y0240199D01*
X0835994Y0240073D01*
X0835903Y0239950D01*
X0835809Y0239829D01*
X0835711Y0239711D01*
X0835611Y0239595D01*
X0835507Y0239482D01*
X0835401Y0239371D01*
X0835292Y0239263D01*
X0835180Y0239158D01*
X0835066Y0239057D01*
X0834948Y0238958D01*
X0834829Y0238862D01*
X0834707Y0238769D01*
X0834582Y0238680D01*
X0834455Y0238593D01*
X0834326Y0238511D01*
X0834195Y0238431D01*
X0834062Y0238355D01*
X0833927Y0238282D01*
X0833790Y0238213D01*
X0833651Y0238148D01*
X0833511Y0238086D01*
X0833369Y0238028D01*
X0833226Y0237973D01*
X0833081Y0237922D01*
X0832935Y0237875D01*
X0832788Y0237832D01*
X0832640Y0237793D01*
X0832491Y0237757D01*
X0832341Y0237726D01*
X0832190Y0237698D01*
X0832039Y0237674D01*
X0831886Y0237654D01*
X0831734Y0237638D01*
X0831581Y0237626D01*
X0831428Y0237618D01*
X0831275Y0237614D01*
X0831121Y0237614D01*
X0830968Y0237618D01*
X0830815Y0237626D01*
X0830662Y0237638D01*
X0830510Y0237654D01*
X0830357Y0237674D01*
X0830206Y0237698D01*
X0830055Y0237726D01*
X0829905Y0237757D01*
X0829756Y0237793D01*
X0829608Y0237832D01*
X0829461Y0237875D01*
X0829315Y0237922D01*
X0829170Y0237973D01*
X0829027Y0238028D01*
X0828885Y0238086D01*
X0828745Y0238148D01*
X0828606Y0238213D01*
X0828469Y0238282D01*
X0828334Y0238355D01*
X0828201Y0238431D01*
X0828070Y0238511D01*
X0827941Y0238593D01*
X0827814Y0238680D01*
X0827689Y0238769D01*
X0827567Y0238862D01*
X0827448Y0238958D01*
X0827330Y0239057D01*
X0827216Y0239158D01*
X0827104Y0239263D01*
X0826995Y0239371D01*
X0826889Y0239482D01*
X0826785Y0239595D01*
X0826685Y0239711D01*
X0826587Y0239829D01*
X0826493Y0239950D01*
X0826402Y0240073D01*
X0826314Y0240199D01*
X0826230Y0240327D01*
X0826148Y0240457D01*
X0826071Y0240589D01*
X0825996Y0240723D01*
X0825925Y0240859D01*
X0825858Y0240997D01*
X0825794Y0241137D01*
X0825734Y0241278D01*
X0825678Y0241420D01*
X0825625Y0241564D01*
X0825576Y0241710D01*
X0825531Y0241856D01*
X0825490Y0242004D01*
X0825453Y0242152D01*
X0825419Y0242302D01*
X0825389Y0242453D01*
X0825364Y0242604D01*
X0825342Y0242755D01*
X0825324Y0242908D01*
X0825310Y0243060D01*
X0825300Y0243213D01*
X0825294Y0243367D01*
X0825292Y0243520D01*
X0669781Y0308480D02*
X0669783Y0308633D01*
X0669789Y0308787D01*
X0669799Y0308940D01*
X0669813Y0309092D01*
X0669831Y0309245D01*
X0669853Y0309396D01*
X0669878Y0309547D01*
X0669908Y0309698D01*
X0669942Y0309848D01*
X0669979Y0309996D01*
X0670020Y0310144D01*
X0670065Y0310290D01*
X0670114Y0310436D01*
X0670167Y0310580D01*
X0670223Y0310722D01*
X0670283Y0310863D01*
X0670347Y0311003D01*
X0670414Y0311141D01*
X0670485Y0311277D01*
X0670560Y0311411D01*
X0670637Y0311543D01*
X0670719Y0311673D01*
X0670803Y0311801D01*
X0670891Y0311927D01*
X0670982Y0312050D01*
X0671076Y0312171D01*
X0671174Y0312289D01*
X0671274Y0312405D01*
X0671378Y0312518D01*
X0671484Y0312629D01*
X0671593Y0312737D01*
X0671705Y0312842D01*
X0671819Y0312943D01*
X0671937Y0313042D01*
X0672056Y0313138D01*
X0672178Y0313231D01*
X0672303Y0313320D01*
X0672430Y0313407D01*
X0672559Y0313489D01*
X0672690Y0313569D01*
X0672823Y0313645D01*
X0672958Y0313718D01*
X0673095Y0313787D01*
X0673234Y0313852D01*
X0673374Y0313914D01*
X0673516Y0313972D01*
X0673659Y0314027D01*
X0673804Y0314078D01*
X0673950Y0314125D01*
X0674097Y0314168D01*
X0674245Y0314207D01*
X0674394Y0314243D01*
X0674544Y0314274D01*
X0674695Y0314302D01*
X0674846Y0314326D01*
X0674999Y0314346D01*
X0675151Y0314362D01*
X0675304Y0314374D01*
X0675457Y0314382D01*
X0675610Y0314386D01*
X0675764Y0314386D01*
X0675917Y0314382D01*
X0676070Y0314374D01*
X0676223Y0314362D01*
X0676375Y0314346D01*
X0676528Y0314326D01*
X0676679Y0314302D01*
X0676830Y0314274D01*
X0676980Y0314243D01*
X0677129Y0314207D01*
X0677277Y0314168D01*
X0677424Y0314125D01*
X0677570Y0314078D01*
X0677715Y0314027D01*
X0677858Y0313972D01*
X0678000Y0313914D01*
X0678140Y0313852D01*
X0678279Y0313787D01*
X0678416Y0313718D01*
X0678551Y0313645D01*
X0678684Y0313569D01*
X0678815Y0313489D01*
X0678944Y0313407D01*
X0679071Y0313320D01*
X0679196Y0313231D01*
X0679318Y0313138D01*
X0679437Y0313042D01*
X0679555Y0312943D01*
X0679669Y0312842D01*
X0679781Y0312737D01*
X0679890Y0312629D01*
X0679996Y0312518D01*
X0680100Y0312405D01*
X0680200Y0312289D01*
X0680298Y0312171D01*
X0680392Y0312050D01*
X0680483Y0311927D01*
X0680571Y0311801D01*
X0680655Y0311673D01*
X0680737Y0311543D01*
X0680814Y0311411D01*
X0680889Y0311277D01*
X0680960Y0311141D01*
X0681027Y0311003D01*
X0681091Y0310863D01*
X0681151Y0310722D01*
X0681207Y0310580D01*
X0681260Y0310436D01*
X0681309Y0310290D01*
X0681354Y0310144D01*
X0681395Y0309996D01*
X0681432Y0309848D01*
X0681466Y0309698D01*
X0681496Y0309547D01*
X0681521Y0309396D01*
X0681543Y0309245D01*
X0681561Y0309092D01*
X0681575Y0308940D01*
X0681585Y0308787D01*
X0681591Y0308633D01*
X0681593Y0308480D01*
X0681591Y0308327D01*
X0681585Y0308173D01*
X0681575Y0308020D01*
X0681561Y0307868D01*
X0681543Y0307715D01*
X0681521Y0307564D01*
X0681496Y0307413D01*
X0681466Y0307262D01*
X0681432Y0307112D01*
X0681395Y0306964D01*
X0681354Y0306816D01*
X0681309Y0306670D01*
X0681260Y0306524D01*
X0681207Y0306380D01*
X0681151Y0306238D01*
X0681091Y0306097D01*
X0681027Y0305957D01*
X0680960Y0305819D01*
X0680889Y0305683D01*
X0680814Y0305549D01*
X0680737Y0305417D01*
X0680655Y0305287D01*
X0680571Y0305159D01*
X0680483Y0305033D01*
X0680392Y0304910D01*
X0680298Y0304789D01*
X0680200Y0304671D01*
X0680100Y0304555D01*
X0679996Y0304442D01*
X0679890Y0304331D01*
X0679781Y0304223D01*
X0679669Y0304118D01*
X0679555Y0304017D01*
X0679437Y0303918D01*
X0679318Y0303822D01*
X0679196Y0303729D01*
X0679071Y0303640D01*
X0678944Y0303553D01*
X0678815Y0303471D01*
X0678684Y0303391D01*
X0678551Y0303315D01*
X0678416Y0303242D01*
X0678279Y0303173D01*
X0678140Y0303108D01*
X0678000Y0303046D01*
X0677858Y0302988D01*
X0677715Y0302933D01*
X0677570Y0302882D01*
X0677424Y0302835D01*
X0677277Y0302792D01*
X0677129Y0302753D01*
X0676980Y0302717D01*
X0676830Y0302686D01*
X0676679Y0302658D01*
X0676528Y0302634D01*
X0676375Y0302614D01*
X0676223Y0302598D01*
X0676070Y0302586D01*
X0675917Y0302578D01*
X0675764Y0302574D01*
X0675610Y0302574D01*
X0675457Y0302578D01*
X0675304Y0302586D01*
X0675151Y0302598D01*
X0674999Y0302614D01*
X0674846Y0302634D01*
X0674695Y0302658D01*
X0674544Y0302686D01*
X0674394Y0302717D01*
X0674245Y0302753D01*
X0674097Y0302792D01*
X0673950Y0302835D01*
X0673804Y0302882D01*
X0673659Y0302933D01*
X0673516Y0302988D01*
X0673374Y0303046D01*
X0673234Y0303108D01*
X0673095Y0303173D01*
X0672958Y0303242D01*
X0672823Y0303315D01*
X0672690Y0303391D01*
X0672559Y0303471D01*
X0672430Y0303553D01*
X0672303Y0303640D01*
X0672178Y0303729D01*
X0672056Y0303822D01*
X0671937Y0303918D01*
X0671819Y0304017D01*
X0671705Y0304118D01*
X0671593Y0304223D01*
X0671484Y0304331D01*
X0671378Y0304442D01*
X0671274Y0304555D01*
X0671174Y0304671D01*
X0671076Y0304789D01*
X0670982Y0304910D01*
X0670891Y0305033D01*
X0670803Y0305159D01*
X0670719Y0305287D01*
X0670637Y0305417D01*
X0670560Y0305549D01*
X0670485Y0305683D01*
X0670414Y0305819D01*
X0670347Y0305957D01*
X0670283Y0306097D01*
X0670223Y0306238D01*
X0670167Y0306380D01*
X0670114Y0306524D01*
X0670065Y0306670D01*
X0670020Y0306816D01*
X0669979Y0306964D01*
X0669942Y0307112D01*
X0669908Y0307262D01*
X0669878Y0307413D01*
X0669853Y0307564D01*
X0669831Y0307715D01*
X0669813Y0307868D01*
X0669799Y0308020D01*
X0669789Y0308173D01*
X0669783Y0308327D01*
X0669781Y0308480D01*
X0530017Y0282890D02*
X0530019Y0283083D01*
X0530026Y0283276D01*
X0530038Y0283469D01*
X0530055Y0283662D01*
X0530076Y0283854D01*
X0530102Y0284045D01*
X0530133Y0284236D01*
X0530168Y0284426D01*
X0530208Y0284615D01*
X0530253Y0284803D01*
X0530302Y0284990D01*
X0530356Y0285176D01*
X0530414Y0285360D01*
X0530477Y0285543D01*
X0530545Y0285724D01*
X0530616Y0285903D01*
X0530693Y0286081D01*
X0530773Y0286257D01*
X0530858Y0286430D01*
X0530947Y0286602D01*
X0531040Y0286771D01*
X0531137Y0286938D01*
X0531239Y0287103D01*
X0531344Y0287265D01*
X0531453Y0287424D01*
X0531567Y0287581D01*
X0531684Y0287734D01*
X0531804Y0287885D01*
X0531929Y0288033D01*
X0532057Y0288178D01*
X0532188Y0288319D01*
X0532323Y0288458D01*
X0532462Y0288593D01*
X0532603Y0288724D01*
X0532748Y0288852D01*
X0532896Y0288977D01*
X0533047Y0289097D01*
X0533200Y0289214D01*
X0533357Y0289328D01*
X0533516Y0289437D01*
X0533678Y0289542D01*
X0533843Y0289644D01*
X0534010Y0289741D01*
X0534179Y0289834D01*
X0534351Y0289923D01*
X0534524Y0290008D01*
X0534700Y0290088D01*
X0534878Y0290165D01*
X0535057Y0290236D01*
X0535238Y0290304D01*
X0535421Y0290367D01*
X0535605Y0290425D01*
X0535791Y0290479D01*
X0535978Y0290528D01*
X0536166Y0290573D01*
X0536355Y0290613D01*
X0536545Y0290648D01*
X0536736Y0290679D01*
X0536927Y0290705D01*
X0537119Y0290726D01*
X0537312Y0290743D01*
X0537505Y0290755D01*
X0537698Y0290762D01*
X0537891Y0290764D01*
X0538084Y0290762D01*
X0538277Y0290755D01*
X0538470Y0290743D01*
X0538663Y0290726D01*
X0538855Y0290705D01*
X0539046Y0290679D01*
X0539237Y0290648D01*
X0539427Y0290613D01*
X0539616Y0290573D01*
X0539804Y0290528D01*
X0539991Y0290479D01*
X0540177Y0290425D01*
X0540361Y0290367D01*
X0540544Y0290304D01*
X0540725Y0290236D01*
X0540904Y0290165D01*
X0541082Y0290088D01*
X0541258Y0290008D01*
X0541431Y0289923D01*
X0541603Y0289834D01*
X0541772Y0289741D01*
X0541939Y0289644D01*
X0542104Y0289542D01*
X0542266Y0289437D01*
X0542425Y0289328D01*
X0542582Y0289214D01*
X0542735Y0289097D01*
X0542886Y0288977D01*
X0543034Y0288852D01*
X0543179Y0288724D01*
X0543320Y0288593D01*
X0543459Y0288458D01*
X0543594Y0288319D01*
X0543725Y0288178D01*
X0543853Y0288033D01*
X0543978Y0287885D01*
X0544098Y0287734D01*
X0544215Y0287581D01*
X0544329Y0287424D01*
X0544438Y0287265D01*
X0544543Y0287103D01*
X0544645Y0286938D01*
X0544742Y0286771D01*
X0544835Y0286602D01*
X0544924Y0286430D01*
X0545009Y0286257D01*
X0545089Y0286081D01*
X0545166Y0285903D01*
X0545237Y0285724D01*
X0545305Y0285543D01*
X0545368Y0285360D01*
X0545426Y0285176D01*
X0545480Y0284990D01*
X0545529Y0284803D01*
X0545574Y0284615D01*
X0545614Y0284426D01*
X0545649Y0284236D01*
X0545680Y0284045D01*
X0545706Y0283854D01*
X0545727Y0283662D01*
X0545744Y0283469D01*
X0545756Y0283276D01*
X0545763Y0283083D01*
X0545765Y0282890D01*
X0545763Y0282697D01*
X0545756Y0282504D01*
X0545744Y0282311D01*
X0545727Y0282118D01*
X0545706Y0281926D01*
X0545680Y0281735D01*
X0545649Y0281544D01*
X0545614Y0281354D01*
X0545574Y0281165D01*
X0545529Y0280977D01*
X0545480Y0280790D01*
X0545426Y0280604D01*
X0545368Y0280420D01*
X0545305Y0280237D01*
X0545237Y0280056D01*
X0545166Y0279877D01*
X0545089Y0279699D01*
X0545009Y0279523D01*
X0544924Y0279350D01*
X0544835Y0279178D01*
X0544742Y0279009D01*
X0544645Y0278842D01*
X0544543Y0278677D01*
X0544438Y0278515D01*
X0544329Y0278356D01*
X0544215Y0278199D01*
X0544098Y0278046D01*
X0543978Y0277895D01*
X0543853Y0277747D01*
X0543725Y0277602D01*
X0543594Y0277461D01*
X0543459Y0277322D01*
X0543320Y0277187D01*
X0543179Y0277056D01*
X0543034Y0276928D01*
X0542886Y0276803D01*
X0542735Y0276683D01*
X0542582Y0276566D01*
X0542425Y0276452D01*
X0542266Y0276343D01*
X0542104Y0276238D01*
X0541939Y0276136D01*
X0541772Y0276039D01*
X0541603Y0275946D01*
X0541431Y0275857D01*
X0541258Y0275772D01*
X0541082Y0275692D01*
X0540904Y0275615D01*
X0540725Y0275544D01*
X0540544Y0275476D01*
X0540361Y0275413D01*
X0540177Y0275355D01*
X0539991Y0275301D01*
X0539804Y0275252D01*
X0539616Y0275207D01*
X0539427Y0275167D01*
X0539237Y0275132D01*
X0539046Y0275101D01*
X0538855Y0275075D01*
X0538663Y0275054D01*
X0538470Y0275037D01*
X0538277Y0275025D01*
X0538084Y0275018D01*
X0537891Y0275016D01*
X0537698Y0275018D01*
X0537505Y0275025D01*
X0537312Y0275037D01*
X0537119Y0275054D01*
X0536927Y0275075D01*
X0536736Y0275101D01*
X0536545Y0275132D01*
X0536355Y0275167D01*
X0536166Y0275207D01*
X0535978Y0275252D01*
X0535791Y0275301D01*
X0535605Y0275355D01*
X0535421Y0275413D01*
X0535238Y0275476D01*
X0535057Y0275544D01*
X0534878Y0275615D01*
X0534700Y0275692D01*
X0534524Y0275772D01*
X0534351Y0275857D01*
X0534179Y0275946D01*
X0534010Y0276039D01*
X0533843Y0276136D01*
X0533678Y0276238D01*
X0533516Y0276343D01*
X0533357Y0276452D01*
X0533200Y0276566D01*
X0533047Y0276683D01*
X0532896Y0276803D01*
X0532748Y0276928D01*
X0532603Y0277056D01*
X0532462Y0277187D01*
X0532323Y0277322D01*
X0532188Y0277461D01*
X0532057Y0277602D01*
X0531929Y0277747D01*
X0531804Y0277895D01*
X0531684Y0278046D01*
X0531567Y0278199D01*
X0531453Y0278356D01*
X0531344Y0278515D01*
X0531239Y0278677D01*
X0531137Y0278842D01*
X0531040Y0279009D01*
X0530947Y0279178D01*
X0530858Y0279350D01*
X0530773Y0279523D01*
X0530693Y0279699D01*
X0530616Y0279877D01*
X0530545Y0280056D01*
X0530477Y0280237D01*
X0530414Y0280420D01*
X0530356Y0280604D01*
X0530302Y0280790D01*
X0530253Y0280977D01*
X0530208Y0281165D01*
X0530168Y0281354D01*
X0530133Y0281544D01*
X0530102Y0281735D01*
X0530076Y0281926D01*
X0530055Y0282118D01*
X0530038Y0282311D01*
X0530026Y0282504D01*
X0530019Y0282697D01*
X0530017Y0282890D01*
X0516237Y0249425D02*
X0516239Y0249578D01*
X0516245Y0249732D01*
X0516255Y0249885D01*
X0516269Y0250037D01*
X0516287Y0250190D01*
X0516309Y0250341D01*
X0516334Y0250492D01*
X0516364Y0250643D01*
X0516398Y0250793D01*
X0516435Y0250941D01*
X0516476Y0251089D01*
X0516521Y0251235D01*
X0516570Y0251381D01*
X0516623Y0251525D01*
X0516679Y0251667D01*
X0516739Y0251808D01*
X0516803Y0251948D01*
X0516870Y0252086D01*
X0516941Y0252222D01*
X0517016Y0252356D01*
X0517093Y0252488D01*
X0517175Y0252618D01*
X0517259Y0252746D01*
X0517347Y0252872D01*
X0517438Y0252995D01*
X0517532Y0253116D01*
X0517630Y0253234D01*
X0517730Y0253350D01*
X0517834Y0253463D01*
X0517940Y0253574D01*
X0518049Y0253682D01*
X0518161Y0253787D01*
X0518275Y0253888D01*
X0518393Y0253987D01*
X0518512Y0254083D01*
X0518634Y0254176D01*
X0518759Y0254265D01*
X0518886Y0254352D01*
X0519015Y0254434D01*
X0519146Y0254514D01*
X0519279Y0254590D01*
X0519414Y0254663D01*
X0519551Y0254732D01*
X0519690Y0254797D01*
X0519830Y0254859D01*
X0519972Y0254917D01*
X0520115Y0254972D01*
X0520260Y0255023D01*
X0520406Y0255070D01*
X0520553Y0255113D01*
X0520701Y0255152D01*
X0520850Y0255188D01*
X0521000Y0255219D01*
X0521151Y0255247D01*
X0521302Y0255271D01*
X0521455Y0255291D01*
X0521607Y0255307D01*
X0521760Y0255319D01*
X0521913Y0255327D01*
X0522066Y0255331D01*
X0522220Y0255331D01*
X0522373Y0255327D01*
X0522526Y0255319D01*
X0522679Y0255307D01*
X0522831Y0255291D01*
X0522984Y0255271D01*
X0523135Y0255247D01*
X0523286Y0255219D01*
X0523436Y0255188D01*
X0523585Y0255152D01*
X0523733Y0255113D01*
X0523880Y0255070D01*
X0524026Y0255023D01*
X0524171Y0254972D01*
X0524314Y0254917D01*
X0524456Y0254859D01*
X0524596Y0254797D01*
X0524735Y0254732D01*
X0524872Y0254663D01*
X0525007Y0254590D01*
X0525140Y0254514D01*
X0525271Y0254434D01*
X0525400Y0254352D01*
X0525527Y0254265D01*
X0525652Y0254176D01*
X0525774Y0254083D01*
X0525893Y0253987D01*
X0526011Y0253888D01*
X0526125Y0253787D01*
X0526237Y0253682D01*
X0526346Y0253574D01*
X0526452Y0253463D01*
X0526556Y0253350D01*
X0526656Y0253234D01*
X0526754Y0253116D01*
X0526848Y0252995D01*
X0526939Y0252872D01*
X0527027Y0252746D01*
X0527111Y0252618D01*
X0527193Y0252488D01*
X0527270Y0252356D01*
X0527345Y0252222D01*
X0527416Y0252086D01*
X0527483Y0251948D01*
X0527547Y0251808D01*
X0527607Y0251667D01*
X0527663Y0251525D01*
X0527716Y0251381D01*
X0527765Y0251235D01*
X0527810Y0251089D01*
X0527851Y0250941D01*
X0527888Y0250793D01*
X0527922Y0250643D01*
X0527952Y0250492D01*
X0527977Y0250341D01*
X0527999Y0250190D01*
X0528017Y0250037D01*
X0528031Y0249885D01*
X0528041Y0249732D01*
X0528047Y0249578D01*
X0528049Y0249425D01*
X0528047Y0249272D01*
X0528041Y0249118D01*
X0528031Y0248965D01*
X0528017Y0248813D01*
X0527999Y0248660D01*
X0527977Y0248509D01*
X0527952Y0248358D01*
X0527922Y0248207D01*
X0527888Y0248057D01*
X0527851Y0247909D01*
X0527810Y0247761D01*
X0527765Y0247615D01*
X0527716Y0247469D01*
X0527663Y0247325D01*
X0527607Y0247183D01*
X0527547Y0247042D01*
X0527483Y0246902D01*
X0527416Y0246764D01*
X0527345Y0246628D01*
X0527270Y0246494D01*
X0527193Y0246362D01*
X0527111Y0246232D01*
X0527027Y0246104D01*
X0526939Y0245978D01*
X0526848Y0245855D01*
X0526754Y0245734D01*
X0526656Y0245616D01*
X0526556Y0245500D01*
X0526452Y0245387D01*
X0526346Y0245276D01*
X0526237Y0245168D01*
X0526125Y0245063D01*
X0526011Y0244962D01*
X0525893Y0244863D01*
X0525774Y0244767D01*
X0525652Y0244674D01*
X0525527Y0244585D01*
X0525400Y0244498D01*
X0525271Y0244416D01*
X0525140Y0244336D01*
X0525007Y0244260D01*
X0524872Y0244187D01*
X0524735Y0244118D01*
X0524596Y0244053D01*
X0524456Y0243991D01*
X0524314Y0243933D01*
X0524171Y0243878D01*
X0524026Y0243827D01*
X0523880Y0243780D01*
X0523733Y0243737D01*
X0523585Y0243698D01*
X0523436Y0243662D01*
X0523286Y0243631D01*
X0523135Y0243603D01*
X0522984Y0243579D01*
X0522831Y0243559D01*
X0522679Y0243543D01*
X0522526Y0243531D01*
X0522373Y0243523D01*
X0522220Y0243519D01*
X0522066Y0243519D01*
X0521913Y0243523D01*
X0521760Y0243531D01*
X0521607Y0243543D01*
X0521455Y0243559D01*
X0521302Y0243579D01*
X0521151Y0243603D01*
X0521000Y0243631D01*
X0520850Y0243662D01*
X0520701Y0243698D01*
X0520553Y0243737D01*
X0520406Y0243780D01*
X0520260Y0243827D01*
X0520115Y0243878D01*
X0519972Y0243933D01*
X0519830Y0243991D01*
X0519690Y0244053D01*
X0519551Y0244118D01*
X0519414Y0244187D01*
X0519279Y0244260D01*
X0519146Y0244336D01*
X0519015Y0244416D01*
X0518886Y0244498D01*
X0518759Y0244585D01*
X0518634Y0244674D01*
X0518512Y0244767D01*
X0518393Y0244863D01*
X0518275Y0244962D01*
X0518161Y0245063D01*
X0518049Y0245168D01*
X0517940Y0245276D01*
X0517834Y0245387D01*
X0517730Y0245500D01*
X0517630Y0245616D01*
X0517532Y0245734D01*
X0517438Y0245855D01*
X0517347Y0245978D01*
X0517259Y0246104D01*
X0517175Y0246232D01*
X0517093Y0246362D01*
X0517016Y0246494D01*
X0516941Y0246628D01*
X0516870Y0246764D01*
X0516803Y0246902D01*
X0516739Y0247042D01*
X0516679Y0247183D01*
X0516623Y0247325D01*
X0516570Y0247469D01*
X0516521Y0247615D01*
X0516476Y0247761D01*
X0516435Y0247909D01*
X0516398Y0248057D01*
X0516364Y0248207D01*
X0516334Y0248358D01*
X0516309Y0248509D01*
X0516287Y0248660D01*
X0516269Y0248813D01*
X0516255Y0248965D01*
X0516245Y0249118D01*
X0516239Y0249272D01*
X0516237Y0249425D01*
X0825293Y0160843D02*
X0825295Y0161036D01*
X0825302Y0161229D01*
X0825314Y0161422D01*
X0825331Y0161615D01*
X0825352Y0161807D01*
X0825378Y0161998D01*
X0825409Y0162189D01*
X0825444Y0162379D01*
X0825484Y0162568D01*
X0825529Y0162756D01*
X0825578Y0162943D01*
X0825632Y0163129D01*
X0825690Y0163313D01*
X0825753Y0163496D01*
X0825821Y0163677D01*
X0825892Y0163856D01*
X0825969Y0164034D01*
X0826049Y0164210D01*
X0826134Y0164383D01*
X0826223Y0164555D01*
X0826316Y0164724D01*
X0826413Y0164891D01*
X0826515Y0165056D01*
X0826620Y0165218D01*
X0826729Y0165377D01*
X0826843Y0165534D01*
X0826960Y0165687D01*
X0827080Y0165838D01*
X0827205Y0165986D01*
X0827333Y0166131D01*
X0827464Y0166272D01*
X0827599Y0166411D01*
X0827738Y0166546D01*
X0827879Y0166677D01*
X0828024Y0166805D01*
X0828172Y0166930D01*
X0828323Y0167050D01*
X0828476Y0167167D01*
X0828633Y0167281D01*
X0828792Y0167390D01*
X0828954Y0167495D01*
X0829119Y0167597D01*
X0829286Y0167694D01*
X0829455Y0167787D01*
X0829627Y0167876D01*
X0829800Y0167961D01*
X0829976Y0168041D01*
X0830154Y0168118D01*
X0830333Y0168189D01*
X0830514Y0168257D01*
X0830697Y0168320D01*
X0830881Y0168378D01*
X0831067Y0168432D01*
X0831254Y0168481D01*
X0831442Y0168526D01*
X0831631Y0168566D01*
X0831821Y0168601D01*
X0832012Y0168632D01*
X0832203Y0168658D01*
X0832395Y0168679D01*
X0832588Y0168696D01*
X0832781Y0168708D01*
X0832974Y0168715D01*
X0833167Y0168717D01*
X0833360Y0168715D01*
X0833553Y0168708D01*
X0833746Y0168696D01*
X0833939Y0168679D01*
X0834131Y0168658D01*
X0834322Y0168632D01*
X0834513Y0168601D01*
X0834703Y0168566D01*
X0834892Y0168526D01*
X0835080Y0168481D01*
X0835267Y0168432D01*
X0835453Y0168378D01*
X0835637Y0168320D01*
X0835820Y0168257D01*
X0836001Y0168189D01*
X0836180Y0168118D01*
X0836358Y0168041D01*
X0836534Y0167961D01*
X0836707Y0167876D01*
X0836879Y0167787D01*
X0837048Y0167694D01*
X0837215Y0167597D01*
X0837380Y0167495D01*
X0837542Y0167390D01*
X0837701Y0167281D01*
X0837858Y0167167D01*
X0838011Y0167050D01*
X0838162Y0166930D01*
X0838310Y0166805D01*
X0838455Y0166677D01*
X0838596Y0166546D01*
X0838735Y0166411D01*
X0838870Y0166272D01*
X0839001Y0166131D01*
X0839129Y0165986D01*
X0839254Y0165838D01*
X0839374Y0165687D01*
X0839491Y0165534D01*
X0839605Y0165377D01*
X0839714Y0165218D01*
X0839819Y0165056D01*
X0839921Y0164891D01*
X0840018Y0164724D01*
X0840111Y0164555D01*
X0840200Y0164383D01*
X0840285Y0164210D01*
X0840365Y0164034D01*
X0840442Y0163856D01*
X0840513Y0163677D01*
X0840581Y0163496D01*
X0840644Y0163313D01*
X0840702Y0163129D01*
X0840756Y0162943D01*
X0840805Y0162756D01*
X0840850Y0162568D01*
X0840890Y0162379D01*
X0840925Y0162189D01*
X0840956Y0161998D01*
X0840982Y0161807D01*
X0841003Y0161615D01*
X0841020Y0161422D01*
X0841032Y0161229D01*
X0841039Y0161036D01*
X0841041Y0160843D01*
X0841039Y0160650D01*
X0841032Y0160457D01*
X0841020Y0160264D01*
X0841003Y0160071D01*
X0840982Y0159879D01*
X0840956Y0159688D01*
X0840925Y0159497D01*
X0840890Y0159307D01*
X0840850Y0159118D01*
X0840805Y0158930D01*
X0840756Y0158743D01*
X0840702Y0158557D01*
X0840644Y0158373D01*
X0840581Y0158190D01*
X0840513Y0158009D01*
X0840442Y0157830D01*
X0840365Y0157652D01*
X0840285Y0157476D01*
X0840200Y0157303D01*
X0840111Y0157131D01*
X0840018Y0156962D01*
X0839921Y0156795D01*
X0839819Y0156630D01*
X0839714Y0156468D01*
X0839605Y0156309D01*
X0839491Y0156152D01*
X0839374Y0155999D01*
X0839254Y0155848D01*
X0839129Y0155700D01*
X0839001Y0155555D01*
X0838870Y0155414D01*
X0838735Y0155275D01*
X0838596Y0155140D01*
X0838455Y0155009D01*
X0838310Y0154881D01*
X0838162Y0154756D01*
X0838011Y0154636D01*
X0837858Y0154519D01*
X0837701Y0154405D01*
X0837542Y0154296D01*
X0837380Y0154191D01*
X0837215Y0154089D01*
X0837048Y0153992D01*
X0836879Y0153899D01*
X0836707Y0153810D01*
X0836534Y0153725D01*
X0836358Y0153645D01*
X0836180Y0153568D01*
X0836001Y0153497D01*
X0835820Y0153429D01*
X0835637Y0153366D01*
X0835453Y0153308D01*
X0835267Y0153254D01*
X0835080Y0153205D01*
X0834892Y0153160D01*
X0834703Y0153120D01*
X0834513Y0153085D01*
X0834322Y0153054D01*
X0834131Y0153028D01*
X0833939Y0153007D01*
X0833746Y0152990D01*
X0833553Y0152978D01*
X0833360Y0152971D01*
X0833167Y0152969D01*
X0832974Y0152971D01*
X0832781Y0152978D01*
X0832588Y0152990D01*
X0832395Y0153007D01*
X0832203Y0153028D01*
X0832012Y0153054D01*
X0831821Y0153085D01*
X0831631Y0153120D01*
X0831442Y0153160D01*
X0831254Y0153205D01*
X0831067Y0153254D01*
X0830881Y0153308D01*
X0830697Y0153366D01*
X0830514Y0153429D01*
X0830333Y0153497D01*
X0830154Y0153568D01*
X0829976Y0153645D01*
X0829800Y0153725D01*
X0829627Y0153810D01*
X0829455Y0153899D01*
X0829286Y0153992D01*
X0829119Y0154089D01*
X0828954Y0154191D01*
X0828792Y0154296D01*
X0828633Y0154405D01*
X0828476Y0154519D01*
X0828323Y0154636D01*
X0828172Y0154756D01*
X0828024Y0154881D01*
X0827879Y0155009D01*
X0827738Y0155140D01*
X0827599Y0155275D01*
X0827464Y0155414D01*
X0827333Y0155555D01*
X0827205Y0155700D01*
X0827080Y0155848D01*
X0826960Y0155999D01*
X0826843Y0156152D01*
X0826729Y0156309D01*
X0826620Y0156468D01*
X0826515Y0156630D01*
X0826413Y0156795D01*
X0826316Y0156962D01*
X0826223Y0157131D01*
X0826134Y0157303D01*
X0826049Y0157476D01*
X0825969Y0157652D01*
X0825892Y0157830D01*
X0825821Y0158009D01*
X0825753Y0158190D01*
X0825690Y0158373D01*
X0825632Y0158557D01*
X0825578Y0158743D01*
X0825529Y0158930D01*
X0825484Y0159118D01*
X0825444Y0159307D01*
X0825409Y0159497D01*
X0825378Y0159688D01*
X0825352Y0159879D01*
X0825331Y0160071D01*
X0825314Y0160264D01*
X0825302Y0160457D01*
X0825295Y0160650D01*
X0825293Y0160843D01*
X1230017Y0075606D02*
X1230019Y0075759D01*
X1230025Y0075913D01*
X1230035Y0076066D01*
X1230049Y0076218D01*
X1230067Y0076371D01*
X1230089Y0076522D01*
X1230114Y0076673D01*
X1230144Y0076824D01*
X1230178Y0076974D01*
X1230215Y0077122D01*
X1230256Y0077270D01*
X1230301Y0077416D01*
X1230350Y0077562D01*
X1230403Y0077706D01*
X1230459Y0077848D01*
X1230519Y0077989D01*
X1230583Y0078129D01*
X1230650Y0078267D01*
X1230721Y0078403D01*
X1230796Y0078537D01*
X1230873Y0078669D01*
X1230955Y0078799D01*
X1231039Y0078927D01*
X1231127Y0079053D01*
X1231218Y0079176D01*
X1231312Y0079297D01*
X1231410Y0079415D01*
X1231510Y0079531D01*
X1231614Y0079644D01*
X1231720Y0079755D01*
X1231829Y0079863D01*
X1231941Y0079968D01*
X1232055Y0080069D01*
X1232173Y0080168D01*
X1232292Y0080264D01*
X1232414Y0080357D01*
X1232539Y0080446D01*
X1232666Y0080533D01*
X1232795Y0080615D01*
X1232926Y0080695D01*
X1233059Y0080771D01*
X1233194Y0080844D01*
X1233331Y0080913D01*
X1233470Y0080978D01*
X1233610Y0081040D01*
X1233752Y0081098D01*
X1233895Y0081153D01*
X1234040Y0081204D01*
X1234186Y0081251D01*
X1234333Y0081294D01*
X1234481Y0081333D01*
X1234630Y0081369D01*
X1234780Y0081400D01*
X1234931Y0081428D01*
X1235082Y0081452D01*
X1235235Y0081472D01*
X1235387Y0081488D01*
X1235540Y0081500D01*
X1235693Y0081508D01*
X1235846Y0081512D01*
X1236000Y0081512D01*
X1236153Y0081508D01*
X1236306Y0081500D01*
X1236459Y0081488D01*
X1236611Y0081472D01*
X1236764Y0081452D01*
X1236915Y0081428D01*
X1237066Y0081400D01*
X1237216Y0081369D01*
X1237365Y0081333D01*
X1237513Y0081294D01*
X1237660Y0081251D01*
X1237806Y0081204D01*
X1237951Y0081153D01*
X1238094Y0081098D01*
X1238236Y0081040D01*
X1238376Y0080978D01*
X1238515Y0080913D01*
X1238652Y0080844D01*
X1238787Y0080771D01*
X1238920Y0080695D01*
X1239051Y0080615D01*
X1239180Y0080533D01*
X1239307Y0080446D01*
X1239432Y0080357D01*
X1239554Y0080264D01*
X1239673Y0080168D01*
X1239791Y0080069D01*
X1239905Y0079968D01*
X1240017Y0079863D01*
X1240126Y0079755D01*
X1240232Y0079644D01*
X1240336Y0079531D01*
X1240436Y0079415D01*
X1240534Y0079297D01*
X1240628Y0079176D01*
X1240719Y0079053D01*
X1240807Y0078927D01*
X1240891Y0078799D01*
X1240973Y0078669D01*
X1241050Y0078537D01*
X1241125Y0078403D01*
X1241196Y0078267D01*
X1241263Y0078129D01*
X1241327Y0077989D01*
X1241387Y0077848D01*
X1241443Y0077706D01*
X1241496Y0077562D01*
X1241545Y0077416D01*
X1241590Y0077270D01*
X1241631Y0077122D01*
X1241668Y0076974D01*
X1241702Y0076824D01*
X1241732Y0076673D01*
X1241757Y0076522D01*
X1241779Y0076371D01*
X1241797Y0076218D01*
X1241811Y0076066D01*
X1241821Y0075913D01*
X1241827Y0075759D01*
X1241829Y0075606D01*
X1241827Y0075453D01*
X1241821Y0075299D01*
X1241811Y0075146D01*
X1241797Y0074994D01*
X1241779Y0074841D01*
X1241757Y0074690D01*
X1241732Y0074539D01*
X1241702Y0074388D01*
X1241668Y0074238D01*
X1241631Y0074090D01*
X1241590Y0073942D01*
X1241545Y0073796D01*
X1241496Y0073650D01*
X1241443Y0073506D01*
X1241387Y0073364D01*
X1241327Y0073223D01*
X1241263Y0073083D01*
X1241196Y0072945D01*
X1241125Y0072809D01*
X1241050Y0072675D01*
X1240973Y0072543D01*
X1240891Y0072413D01*
X1240807Y0072285D01*
X1240719Y0072159D01*
X1240628Y0072036D01*
X1240534Y0071915D01*
X1240436Y0071797D01*
X1240336Y0071681D01*
X1240232Y0071568D01*
X1240126Y0071457D01*
X1240017Y0071349D01*
X1239905Y0071244D01*
X1239791Y0071143D01*
X1239673Y0071044D01*
X1239554Y0070948D01*
X1239432Y0070855D01*
X1239307Y0070766D01*
X1239180Y0070679D01*
X1239051Y0070597D01*
X1238920Y0070517D01*
X1238787Y0070441D01*
X1238652Y0070368D01*
X1238515Y0070299D01*
X1238376Y0070234D01*
X1238236Y0070172D01*
X1238094Y0070114D01*
X1237951Y0070059D01*
X1237806Y0070008D01*
X1237660Y0069961D01*
X1237513Y0069918D01*
X1237365Y0069879D01*
X1237216Y0069843D01*
X1237066Y0069812D01*
X1236915Y0069784D01*
X1236764Y0069760D01*
X1236611Y0069740D01*
X1236459Y0069724D01*
X1236306Y0069712D01*
X1236153Y0069704D01*
X1236000Y0069700D01*
X1235846Y0069700D01*
X1235693Y0069704D01*
X1235540Y0069712D01*
X1235387Y0069724D01*
X1235235Y0069740D01*
X1235082Y0069760D01*
X1234931Y0069784D01*
X1234780Y0069812D01*
X1234630Y0069843D01*
X1234481Y0069879D01*
X1234333Y0069918D01*
X1234186Y0069961D01*
X1234040Y0070008D01*
X1233895Y0070059D01*
X1233752Y0070114D01*
X1233610Y0070172D01*
X1233470Y0070234D01*
X1233331Y0070299D01*
X1233194Y0070368D01*
X1233059Y0070441D01*
X1232926Y0070517D01*
X1232795Y0070597D01*
X1232666Y0070679D01*
X1232539Y0070766D01*
X1232414Y0070855D01*
X1232292Y0070948D01*
X1232173Y0071044D01*
X1232055Y0071143D01*
X1231941Y0071244D01*
X1231829Y0071349D01*
X1231720Y0071457D01*
X1231614Y0071568D01*
X1231510Y0071681D01*
X1231410Y0071797D01*
X1231312Y0071915D01*
X1231218Y0072036D01*
X1231127Y0072159D01*
X1231039Y0072285D01*
X1230955Y0072413D01*
X1230873Y0072543D01*
X1230796Y0072675D01*
X1230721Y0072809D01*
X1230650Y0072945D01*
X1230583Y0073083D01*
X1230519Y0073223D01*
X1230459Y0073364D01*
X1230403Y0073506D01*
X1230350Y0073650D01*
X1230301Y0073796D01*
X1230256Y0073942D01*
X1230215Y0074090D01*
X1230178Y0074238D01*
X1230144Y0074388D01*
X1230114Y0074539D01*
X1230089Y0074690D01*
X1230067Y0074841D01*
X1230049Y0074994D01*
X1230035Y0075146D01*
X1230025Y0075299D01*
X1230019Y0075453D01*
X1230017Y0075606D01*
X1230017Y0310016D02*
X1230019Y0310169D01*
X1230025Y0310323D01*
X1230035Y0310476D01*
X1230049Y0310628D01*
X1230067Y0310781D01*
X1230089Y0310932D01*
X1230114Y0311083D01*
X1230144Y0311234D01*
X1230178Y0311384D01*
X1230215Y0311532D01*
X1230256Y0311680D01*
X1230301Y0311826D01*
X1230350Y0311972D01*
X1230403Y0312116D01*
X1230459Y0312258D01*
X1230519Y0312399D01*
X1230583Y0312539D01*
X1230650Y0312677D01*
X1230721Y0312813D01*
X1230796Y0312947D01*
X1230873Y0313079D01*
X1230955Y0313209D01*
X1231039Y0313337D01*
X1231127Y0313463D01*
X1231218Y0313586D01*
X1231312Y0313707D01*
X1231410Y0313825D01*
X1231510Y0313941D01*
X1231614Y0314054D01*
X1231720Y0314165D01*
X1231829Y0314273D01*
X1231941Y0314378D01*
X1232055Y0314479D01*
X1232173Y0314578D01*
X1232292Y0314674D01*
X1232414Y0314767D01*
X1232539Y0314856D01*
X1232666Y0314943D01*
X1232795Y0315025D01*
X1232926Y0315105D01*
X1233059Y0315181D01*
X1233194Y0315254D01*
X1233331Y0315323D01*
X1233470Y0315388D01*
X1233610Y0315450D01*
X1233752Y0315508D01*
X1233895Y0315563D01*
X1234040Y0315614D01*
X1234186Y0315661D01*
X1234333Y0315704D01*
X1234481Y0315743D01*
X1234630Y0315779D01*
X1234780Y0315810D01*
X1234931Y0315838D01*
X1235082Y0315862D01*
X1235235Y0315882D01*
X1235387Y0315898D01*
X1235540Y0315910D01*
X1235693Y0315918D01*
X1235846Y0315922D01*
X1236000Y0315922D01*
X1236153Y0315918D01*
X1236306Y0315910D01*
X1236459Y0315898D01*
X1236611Y0315882D01*
X1236764Y0315862D01*
X1236915Y0315838D01*
X1237066Y0315810D01*
X1237216Y0315779D01*
X1237365Y0315743D01*
X1237513Y0315704D01*
X1237660Y0315661D01*
X1237806Y0315614D01*
X1237951Y0315563D01*
X1238094Y0315508D01*
X1238236Y0315450D01*
X1238376Y0315388D01*
X1238515Y0315323D01*
X1238652Y0315254D01*
X1238787Y0315181D01*
X1238920Y0315105D01*
X1239051Y0315025D01*
X1239180Y0314943D01*
X1239307Y0314856D01*
X1239432Y0314767D01*
X1239554Y0314674D01*
X1239673Y0314578D01*
X1239791Y0314479D01*
X1239905Y0314378D01*
X1240017Y0314273D01*
X1240126Y0314165D01*
X1240232Y0314054D01*
X1240336Y0313941D01*
X1240436Y0313825D01*
X1240534Y0313707D01*
X1240628Y0313586D01*
X1240719Y0313463D01*
X1240807Y0313337D01*
X1240891Y0313209D01*
X1240973Y0313079D01*
X1241050Y0312947D01*
X1241125Y0312813D01*
X1241196Y0312677D01*
X1241263Y0312539D01*
X1241327Y0312399D01*
X1241387Y0312258D01*
X1241443Y0312116D01*
X1241496Y0311972D01*
X1241545Y0311826D01*
X1241590Y0311680D01*
X1241631Y0311532D01*
X1241668Y0311384D01*
X1241702Y0311234D01*
X1241732Y0311083D01*
X1241757Y0310932D01*
X1241779Y0310781D01*
X1241797Y0310628D01*
X1241811Y0310476D01*
X1241821Y0310323D01*
X1241827Y0310169D01*
X1241829Y0310016D01*
X1241827Y0309863D01*
X1241821Y0309709D01*
X1241811Y0309556D01*
X1241797Y0309404D01*
X1241779Y0309251D01*
X1241757Y0309100D01*
X1241732Y0308949D01*
X1241702Y0308798D01*
X1241668Y0308648D01*
X1241631Y0308500D01*
X1241590Y0308352D01*
X1241545Y0308206D01*
X1241496Y0308060D01*
X1241443Y0307916D01*
X1241387Y0307774D01*
X1241327Y0307633D01*
X1241263Y0307493D01*
X1241196Y0307355D01*
X1241125Y0307219D01*
X1241050Y0307085D01*
X1240973Y0306953D01*
X1240891Y0306823D01*
X1240807Y0306695D01*
X1240719Y0306569D01*
X1240628Y0306446D01*
X1240534Y0306325D01*
X1240436Y0306207D01*
X1240336Y0306091D01*
X1240232Y0305978D01*
X1240126Y0305867D01*
X1240017Y0305759D01*
X1239905Y0305654D01*
X1239791Y0305553D01*
X1239673Y0305454D01*
X1239554Y0305358D01*
X1239432Y0305265D01*
X1239307Y0305176D01*
X1239180Y0305089D01*
X1239051Y0305007D01*
X1238920Y0304927D01*
X1238787Y0304851D01*
X1238652Y0304778D01*
X1238515Y0304709D01*
X1238376Y0304644D01*
X1238236Y0304582D01*
X1238094Y0304524D01*
X1237951Y0304469D01*
X1237806Y0304418D01*
X1237660Y0304371D01*
X1237513Y0304328D01*
X1237365Y0304289D01*
X1237216Y0304253D01*
X1237066Y0304222D01*
X1236915Y0304194D01*
X1236764Y0304170D01*
X1236611Y0304150D01*
X1236459Y0304134D01*
X1236306Y0304122D01*
X1236153Y0304114D01*
X1236000Y0304110D01*
X1235846Y0304110D01*
X1235693Y0304114D01*
X1235540Y0304122D01*
X1235387Y0304134D01*
X1235235Y0304150D01*
X1235082Y0304170D01*
X1234931Y0304194D01*
X1234780Y0304222D01*
X1234630Y0304253D01*
X1234481Y0304289D01*
X1234333Y0304328D01*
X1234186Y0304371D01*
X1234040Y0304418D01*
X1233895Y0304469D01*
X1233752Y0304524D01*
X1233610Y0304582D01*
X1233470Y0304644D01*
X1233331Y0304709D01*
X1233194Y0304778D01*
X1233059Y0304851D01*
X1232926Y0304927D01*
X1232795Y0305007D01*
X1232666Y0305089D01*
X1232539Y0305176D01*
X1232414Y0305265D01*
X1232292Y0305358D01*
X1232173Y0305454D01*
X1232055Y0305553D01*
X1231941Y0305654D01*
X1231829Y0305759D01*
X1231720Y0305867D01*
X1231614Y0305978D01*
X1231510Y0306091D01*
X1231410Y0306207D01*
X1231312Y0306325D01*
X1231218Y0306446D01*
X1231127Y0306569D01*
X1231039Y0306695D01*
X1230955Y0306823D01*
X1230873Y0306953D01*
X1230796Y0307085D01*
X1230721Y0307219D01*
X1230650Y0307355D01*
X1230583Y0307493D01*
X1230519Y0307633D01*
X1230459Y0307774D01*
X1230403Y0307916D01*
X1230350Y0308060D01*
X1230301Y0308206D01*
X1230256Y0308352D01*
X1230215Y0308500D01*
X1230178Y0308648D01*
X1230144Y0308798D01*
X1230114Y0308949D01*
X1230089Y0309100D01*
X1230067Y0309251D01*
X1230049Y0309404D01*
X1230035Y0309556D01*
X1230025Y0309709D01*
X1230019Y0309863D01*
X1230017Y0310016D01*
D11*
X1109742Y0107693D02*
X1109748Y0108152D01*
X1109765Y0108611D01*
X1109793Y0109069D01*
X1109832Y0109526D01*
X1109883Y0109982D01*
X1109944Y0110437D01*
X1110017Y0110890D01*
X1110101Y0111341D01*
X1110196Y0111790D01*
X1110302Y0112237D01*
X1110419Y0112681D01*
X1110547Y0113122D01*
X1110686Y0113559D01*
X1110835Y0113993D01*
X1110995Y0114423D01*
X1111166Y0114850D01*
X1111346Y0115271D01*
X1111537Y0115689D01*
X1111739Y0116101D01*
X1111950Y0116509D01*
X1112172Y0116911D01*
X1112403Y0117307D01*
X1112643Y0117698D01*
X1112894Y0118083D01*
X1113153Y0118461D01*
X1113422Y0118833D01*
X1113700Y0119198D01*
X1113987Y0119557D01*
X1114282Y0119908D01*
X1114586Y0120252D01*
X1114899Y0120588D01*
X1115219Y0120917D01*
X1115548Y0121237D01*
X1115884Y0121550D01*
X1116228Y0121854D01*
X1116579Y0122149D01*
X1116938Y0122436D01*
X1117303Y0122714D01*
X1117675Y0122983D01*
X1118053Y0123242D01*
X1118438Y0123493D01*
X1118829Y0123733D01*
X1119225Y0123964D01*
X1119627Y0124186D01*
X1120035Y0124397D01*
X1120447Y0124599D01*
X1120865Y0124790D01*
X1121286Y0124970D01*
X1121713Y0125141D01*
X1122143Y0125301D01*
X1122577Y0125450D01*
X1123014Y0125589D01*
X1123455Y0125717D01*
X1123899Y0125834D01*
X1124346Y0125940D01*
X1124795Y0126035D01*
X1125246Y0126119D01*
X1125699Y0126192D01*
X1126154Y0126253D01*
X1126610Y0126304D01*
X1127067Y0126343D01*
X1127525Y0126371D01*
X1127984Y0126388D01*
X1128443Y0126394D01*
X1128902Y0126388D01*
X1129361Y0126371D01*
X1129819Y0126343D01*
X1130276Y0126304D01*
X1130732Y0126253D01*
X1131187Y0126192D01*
X1131640Y0126119D01*
X1132091Y0126035D01*
X1132540Y0125940D01*
X1132987Y0125834D01*
X1133431Y0125717D01*
X1133872Y0125589D01*
X1134309Y0125450D01*
X1134743Y0125301D01*
X1135173Y0125141D01*
X1135600Y0124970D01*
X1136021Y0124790D01*
X1136439Y0124599D01*
X1136851Y0124397D01*
X1137259Y0124186D01*
X1137661Y0123964D01*
X1138057Y0123733D01*
X1138448Y0123493D01*
X1138833Y0123242D01*
X1139211Y0122983D01*
X1139583Y0122714D01*
X1139948Y0122436D01*
X1140307Y0122149D01*
X1140658Y0121854D01*
X1141002Y0121550D01*
X1141338Y0121237D01*
X1141667Y0120917D01*
X1141987Y0120588D01*
X1142300Y0120252D01*
X1142604Y0119908D01*
X1142899Y0119557D01*
X1143186Y0119198D01*
X1143464Y0118833D01*
X1143733Y0118461D01*
X1143992Y0118083D01*
X1144243Y0117698D01*
X1144483Y0117307D01*
X1144714Y0116911D01*
X1144936Y0116509D01*
X1145147Y0116101D01*
X1145349Y0115689D01*
X1145540Y0115271D01*
X1145720Y0114850D01*
X1145891Y0114423D01*
X1146051Y0113993D01*
X1146200Y0113559D01*
X1146339Y0113122D01*
X1146467Y0112681D01*
X1146584Y0112237D01*
X1146690Y0111790D01*
X1146785Y0111341D01*
X1146869Y0110890D01*
X1146942Y0110437D01*
X1147003Y0109982D01*
X1147054Y0109526D01*
X1147093Y0109069D01*
X1147121Y0108611D01*
X1147138Y0108152D01*
X1147144Y0107693D01*
X1147138Y0107234D01*
X1147121Y0106775D01*
X1147093Y0106317D01*
X1147054Y0105860D01*
X1147003Y0105404D01*
X1146942Y0104949D01*
X1146869Y0104496D01*
X1146785Y0104045D01*
X1146690Y0103596D01*
X1146584Y0103149D01*
X1146467Y0102705D01*
X1146339Y0102264D01*
X1146200Y0101827D01*
X1146051Y0101393D01*
X1145891Y0100963D01*
X1145720Y0100536D01*
X1145540Y0100115D01*
X1145349Y0099697D01*
X1145147Y0099285D01*
X1144936Y0098877D01*
X1144714Y0098475D01*
X1144483Y0098079D01*
X1144243Y0097688D01*
X1143992Y0097303D01*
X1143733Y0096925D01*
X1143464Y0096553D01*
X1143186Y0096188D01*
X1142899Y0095829D01*
X1142604Y0095478D01*
X1142300Y0095134D01*
X1141987Y0094798D01*
X1141667Y0094469D01*
X1141338Y0094149D01*
X1141002Y0093836D01*
X1140658Y0093532D01*
X1140307Y0093237D01*
X1139948Y0092950D01*
X1139583Y0092672D01*
X1139211Y0092403D01*
X1138833Y0092144D01*
X1138448Y0091893D01*
X1138057Y0091653D01*
X1137661Y0091422D01*
X1137259Y0091200D01*
X1136851Y0090989D01*
X1136439Y0090787D01*
X1136021Y0090596D01*
X1135600Y0090416D01*
X1135173Y0090245D01*
X1134743Y0090085D01*
X1134309Y0089936D01*
X1133872Y0089797D01*
X1133431Y0089669D01*
X1132987Y0089552D01*
X1132540Y0089446D01*
X1132091Y0089351D01*
X1131640Y0089267D01*
X1131187Y0089194D01*
X1130732Y0089133D01*
X1130276Y0089082D01*
X1129819Y0089043D01*
X1129361Y0089015D01*
X1128902Y0088998D01*
X1128443Y0088992D01*
X1127984Y0088998D01*
X1127525Y0089015D01*
X1127067Y0089043D01*
X1126610Y0089082D01*
X1126154Y0089133D01*
X1125699Y0089194D01*
X1125246Y0089267D01*
X1124795Y0089351D01*
X1124346Y0089446D01*
X1123899Y0089552D01*
X1123455Y0089669D01*
X1123014Y0089797D01*
X1122577Y0089936D01*
X1122143Y0090085D01*
X1121713Y0090245D01*
X1121286Y0090416D01*
X1120865Y0090596D01*
X1120447Y0090787D01*
X1120035Y0090989D01*
X1119627Y0091200D01*
X1119225Y0091422D01*
X1118829Y0091653D01*
X1118438Y0091893D01*
X1118053Y0092144D01*
X1117675Y0092403D01*
X1117303Y0092672D01*
X1116938Y0092950D01*
X1116579Y0093237D01*
X1116228Y0093532D01*
X1115884Y0093836D01*
X1115548Y0094149D01*
X1115219Y0094469D01*
X1114899Y0094798D01*
X1114586Y0095134D01*
X1114282Y0095478D01*
X1113987Y0095829D01*
X1113700Y0096188D01*
X1113422Y0096553D01*
X1113153Y0096925D01*
X1112894Y0097303D01*
X1112643Y0097688D01*
X1112403Y0098079D01*
X1112172Y0098475D01*
X1111950Y0098877D01*
X1111739Y0099285D01*
X1111537Y0099697D01*
X1111346Y0100115D01*
X1111166Y0100536D01*
X1110995Y0100963D01*
X1110835Y0101393D01*
X1110686Y0101827D01*
X1110547Y0102264D01*
X1110419Y0102705D01*
X1110302Y0103149D01*
X1110196Y0103596D01*
X1110101Y0104045D01*
X1110017Y0104496D01*
X1109944Y0104949D01*
X1109883Y0105404D01*
X1109832Y0105860D01*
X1109793Y0106317D01*
X1109765Y0106775D01*
X1109748Y0107234D01*
X1109742Y0107693D01*
X1042812Y0084071D02*
X1042815Y0084337D01*
X1042825Y0084602D01*
X1042841Y0084867D01*
X1042864Y0085132D01*
X1042893Y0085396D01*
X1042929Y0085660D01*
X1042971Y0085922D01*
X1043020Y0086183D01*
X1043075Y0086443D01*
X1043136Y0086702D01*
X1043204Y0086959D01*
X1043278Y0087214D01*
X1043358Y0087467D01*
X1043445Y0087719D01*
X1043537Y0087968D01*
X1043636Y0088214D01*
X1043741Y0088459D01*
X1043852Y0088700D01*
X1043968Y0088939D01*
X1044090Y0089175D01*
X1044219Y0089408D01*
X1044352Y0089637D01*
X1044492Y0089863D01*
X1044637Y0090086D01*
X1044787Y0090305D01*
X1044943Y0090521D01*
X1045104Y0090732D01*
X1045270Y0090940D01*
X1045441Y0091143D01*
X1045617Y0091342D01*
X1045798Y0091537D01*
X1045983Y0091727D01*
X1046173Y0091912D01*
X1046368Y0092093D01*
X1046567Y0092269D01*
X1046770Y0092440D01*
X1046978Y0092606D01*
X1047189Y0092767D01*
X1047405Y0092923D01*
X1047624Y0093073D01*
X1047847Y0093218D01*
X1048073Y0093358D01*
X1048302Y0093491D01*
X1048535Y0093620D01*
X1048771Y0093742D01*
X1049010Y0093858D01*
X1049251Y0093969D01*
X1049496Y0094074D01*
X1049742Y0094173D01*
X1049991Y0094265D01*
X1050243Y0094352D01*
X1050496Y0094432D01*
X1050751Y0094506D01*
X1051008Y0094574D01*
X1051267Y0094635D01*
X1051527Y0094690D01*
X1051788Y0094739D01*
X1052050Y0094781D01*
X1052314Y0094817D01*
X1052578Y0094846D01*
X1052843Y0094869D01*
X1053108Y0094885D01*
X1053373Y0094895D01*
X1053639Y0094898D01*
X1053905Y0094895D01*
X1054170Y0094885D01*
X1054435Y0094869D01*
X1054700Y0094846D01*
X1054964Y0094817D01*
X1055228Y0094781D01*
X1055490Y0094739D01*
X1055751Y0094690D01*
X1056011Y0094635D01*
X1056270Y0094574D01*
X1056527Y0094506D01*
X1056782Y0094432D01*
X1057035Y0094352D01*
X1057287Y0094265D01*
X1057536Y0094173D01*
X1057782Y0094074D01*
X1058027Y0093969D01*
X1058268Y0093858D01*
X1058507Y0093742D01*
X1058743Y0093620D01*
X1058976Y0093491D01*
X1059205Y0093358D01*
X1059431Y0093218D01*
X1059654Y0093073D01*
X1059873Y0092923D01*
X1060089Y0092767D01*
X1060300Y0092606D01*
X1060508Y0092440D01*
X1060711Y0092269D01*
X1060910Y0092093D01*
X1061105Y0091912D01*
X1061295Y0091727D01*
X1061480Y0091537D01*
X1061661Y0091342D01*
X1061837Y0091143D01*
X1062008Y0090940D01*
X1062174Y0090732D01*
X1062335Y0090521D01*
X1062491Y0090305D01*
X1062641Y0090086D01*
X1062786Y0089863D01*
X1062926Y0089637D01*
X1063059Y0089408D01*
X1063188Y0089175D01*
X1063310Y0088939D01*
X1063426Y0088700D01*
X1063537Y0088459D01*
X1063642Y0088214D01*
X1063741Y0087968D01*
X1063833Y0087719D01*
X1063920Y0087467D01*
X1064000Y0087214D01*
X1064074Y0086959D01*
X1064142Y0086702D01*
X1064203Y0086443D01*
X1064258Y0086183D01*
X1064307Y0085922D01*
X1064349Y0085660D01*
X1064385Y0085396D01*
X1064414Y0085132D01*
X1064437Y0084867D01*
X1064453Y0084602D01*
X1064463Y0084337D01*
X1064466Y0084071D01*
X1064463Y0083805D01*
X1064453Y0083540D01*
X1064437Y0083275D01*
X1064414Y0083010D01*
X1064385Y0082746D01*
X1064349Y0082482D01*
X1064307Y0082220D01*
X1064258Y0081959D01*
X1064203Y0081699D01*
X1064142Y0081440D01*
X1064074Y0081183D01*
X1064000Y0080928D01*
X1063920Y0080675D01*
X1063833Y0080423D01*
X1063741Y0080174D01*
X1063642Y0079928D01*
X1063537Y0079683D01*
X1063426Y0079442D01*
X1063310Y0079203D01*
X1063188Y0078967D01*
X1063059Y0078734D01*
X1062926Y0078505D01*
X1062786Y0078279D01*
X1062641Y0078056D01*
X1062491Y0077837D01*
X1062335Y0077621D01*
X1062174Y0077410D01*
X1062008Y0077202D01*
X1061837Y0076999D01*
X1061661Y0076800D01*
X1061480Y0076605D01*
X1061295Y0076415D01*
X1061105Y0076230D01*
X1060910Y0076049D01*
X1060711Y0075873D01*
X1060508Y0075702D01*
X1060300Y0075536D01*
X1060089Y0075375D01*
X1059873Y0075219D01*
X1059654Y0075069D01*
X1059431Y0074924D01*
X1059205Y0074784D01*
X1058976Y0074651D01*
X1058743Y0074522D01*
X1058507Y0074400D01*
X1058268Y0074284D01*
X1058027Y0074173D01*
X1057782Y0074068D01*
X1057536Y0073969D01*
X1057287Y0073877D01*
X1057035Y0073790D01*
X1056782Y0073710D01*
X1056527Y0073636D01*
X1056270Y0073568D01*
X1056011Y0073507D01*
X1055751Y0073452D01*
X1055490Y0073403D01*
X1055228Y0073361D01*
X1054964Y0073325D01*
X1054700Y0073296D01*
X1054435Y0073273D01*
X1054170Y0073257D01*
X1053905Y0073247D01*
X1053639Y0073244D01*
X1053373Y0073247D01*
X1053108Y0073257D01*
X1052843Y0073273D01*
X1052578Y0073296D01*
X1052314Y0073325D01*
X1052050Y0073361D01*
X1051788Y0073403D01*
X1051527Y0073452D01*
X1051267Y0073507D01*
X1051008Y0073568D01*
X1050751Y0073636D01*
X1050496Y0073710D01*
X1050243Y0073790D01*
X1049991Y0073877D01*
X1049742Y0073969D01*
X1049496Y0074068D01*
X1049251Y0074173D01*
X1049010Y0074284D01*
X1048771Y0074400D01*
X1048535Y0074522D01*
X1048302Y0074651D01*
X1048073Y0074784D01*
X1047847Y0074924D01*
X1047624Y0075069D01*
X1047405Y0075219D01*
X1047189Y0075375D01*
X1046978Y0075536D01*
X1046770Y0075702D01*
X1046567Y0075873D01*
X1046368Y0076049D01*
X1046173Y0076230D01*
X1045983Y0076415D01*
X1045798Y0076605D01*
X1045617Y0076800D01*
X1045441Y0076999D01*
X1045270Y0077202D01*
X1045104Y0077410D01*
X1044943Y0077621D01*
X1044787Y0077837D01*
X1044637Y0078056D01*
X1044492Y0078279D01*
X1044352Y0078505D01*
X1044219Y0078734D01*
X1044090Y0078967D01*
X1043968Y0079203D01*
X1043852Y0079442D01*
X1043741Y0079683D01*
X1043636Y0079928D01*
X1043537Y0080174D01*
X1043445Y0080423D01*
X1043358Y0080675D01*
X1043278Y0080928D01*
X1043204Y0081183D01*
X1043136Y0081440D01*
X1043075Y0081699D01*
X1043020Y0081959D01*
X1042971Y0082220D01*
X1042929Y0082482D01*
X1042893Y0082746D01*
X1042864Y0083010D01*
X1042841Y0083275D01*
X1042825Y0083540D01*
X1042815Y0083805D01*
X1042812Y0084071D01*
D12*
X0889348Y0019905D02*
X0885793Y0019905D01*
X0887570Y0019905D02*
X0887570Y0013505D01*
X0883399Y0015282D02*
X0883399Y0019905D01*
X0879844Y0019905D02*
X0879844Y0015282D01*
X0879843Y0015282D02*
X0879845Y0015199D01*
X0879851Y0015116D01*
X0879861Y0015033D01*
X0879874Y0014950D01*
X0879892Y0014869D01*
X0879913Y0014788D01*
X0879938Y0014709D01*
X0879967Y0014631D01*
X0879999Y0014554D01*
X0880035Y0014479D01*
X0880074Y0014405D01*
X0880117Y0014334D01*
X0880163Y0014264D01*
X0880213Y0014197D01*
X0880265Y0014132D01*
X0880320Y0014070D01*
X0880379Y0014010D01*
X0880440Y0013953D01*
X0880503Y0013899D01*
X0880569Y0013848D01*
X0880638Y0013801D01*
X0880708Y0013756D01*
X0880781Y0013715D01*
X0880855Y0013678D01*
X0880931Y0013643D01*
X0881009Y0013613D01*
X0881087Y0013586D01*
X0881168Y0013563D01*
X0881249Y0013543D01*
X0881331Y0013528D01*
X0881413Y0013516D01*
X0881496Y0013508D01*
X0881579Y0013504D01*
X0881663Y0013504D01*
X0881746Y0013508D01*
X0881829Y0013516D01*
X0881911Y0013528D01*
X0881993Y0013543D01*
X0882074Y0013563D01*
X0882155Y0013586D01*
X0882233Y0013613D01*
X0882311Y0013643D01*
X0882387Y0013678D01*
X0882461Y0013715D01*
X0882534Y0013756D01*
X0882604Y0013801D01*
X0882673Y0013848D01*
X0882739Y0013899D01*
X0882802Y0013953D01*
X0882863Y0014010D01*
X0882922Y0014070D01*
X0882977Y0014132D01*
X0883029Y0014197D01*
X0883079Y0014264D01*
X0883125Y0014334D01*
X0883168Y0014405D01*
X0883207Y0014479D01*
X0883243Y0014554D01*
X0883275Y0014631D01*
X0883304Y0014709D01*
X0883329Y0014788D01*
X0883350Y0014869D01*
X0883368Y0014950D01*
X0883381Y0015033D01*
X0883391Y0015116D01*
X0883397Y0015199D01*
X0883399Y0015282D01*
X0877339Y0013505D02*
X0875917Y0013505D01*
X0875843Y0013507D01*
X0875768Y0013513D01*
X0875695Y0013523D01*
X0875621Y0013536D01*
X0875549Y0013553D01*
X0875478Y0013575D01*
X0875407Y0013599D01*
X0875339Y0013628D01*
X0875271Y0013660D01*
X0875206Y0013696D01*
X0875143Y0013734D01*
X0875081Y0013777D01*
X0875022Y0013822D01*
X0874965Y0013870D01*
X0874911Y0013921D01*
X0874860Y0013975D01*
X0874812Y0014032D01*
X0874767Y0014091D01*
X0874724Y0014153D01*
X0874686Y0014216D01*
X0874650Y0014281D01*
X0874618Y0014349D01*
X0874589Y0014417D01*
X0874565Y0014488D01*
X0874543Y0014559D01*
X0874526Y0014631D01*
X0874513Y0014705D01*
X0874503Y0014778D01*
X0874497Y0014853D01*
X0874495Y0014927D01*
X0874495Y0018482D01*
X0874497Y0018556D01*
X0874503Y0018631D01*
X0874513Y0018704D01*
X0874526Y0018778D01*
X0874543Y0018850D01*
X0874565Y0018921D01*
X0874589Y0018992D01*
X0874618Y0019060D01*
X0874650Y0019128D01*
X0874686Y0019193D01*
X0874724Y0019256D01*
X0874767Y0019318D01*
X0874812Y0019377D01*
X0874860Y0019433D01*
X0874911Y0019488D01*
X0874965Y0019539D01*
X0875022Y0019587D01*
X0875081Y0019632D01*
X0875143Y0019675D01*
X0875206Y0019713D01*
X0875271Y0019749D01*
X0875339Y0019781D01*
X0875407Y0019810D01*
X0875478Y0019834D01*
X0875549Y0019856D01*
X0875621Y0019873D01*
X0875695Y0019886D01*
X0875768Y0019896D01*
X0875843Y0019902D01*
X0875917Y0019904D01*
X0875917Y0019905D02*
X0877339Y0019905D01*
X0871857Y0015994D02*
X0867590Y0015994D01*
X0865293Y0019905D02*
X0863159Y0013505D01*
X0861026Y0019905D01*
X0863159Y0383583D02*
X0865293Y0389983D01*
X0861026Y0389983D02*
X0863159Y0383583D01*
X0867590Y0386072D02*
X0871857Y0386072D01*
X0874495Y0385006D02*
X0874495Y0388561D01*
X0874497Y0388635D01*
X0874503Y0388710D01*
X0874513Y0388783D01*
X0874526Y0388857D01*
X0874543Y0388929D01*
X0874565Y0389000D01*
X0874589Y0389071D01*
X0874618Y0389139D01*
X0874650Y0389207D01*
X0874686Y0389272D01*
X0874724Y0389335D01*
X0874767Y0389397D01*
X0874812Y0389456D01*
X0874860Y0389512D01*
X0874911Y0389567D01*
X0874965Y0389618D01*
X0875022Y0389666D01*
X0875081Y0389711D01*
X0875143Y0389754D01*
X0875206Y0389792D01*
X0875271Y0389828D01*
X0875339Y0389860D01*
X0875407Y0389889D01*
X0875478Y0389913D01*
X0875549Y0389935D01*
X0875621Y0389952D01*
X0875695Y0389965D01*
X0875768Y0389975D01*
X0875843Y0389981D01*
X0875917Y0389983D01*
X0877339Y0389983D01*
X0879844Y0389983D02*
X0879844Y0385361D01*
X0879843Y0385361D02*
X0879845Y0385278D01*
X0879851Y0385195D01*
X0879861Y0385112D01*
X0879874Y0385029D01*
X0879892Y0384948D01*
X0879913Y0384867D01*
X0879938Y0384788D01*
X0879967Y0384710D01*
X0879999Y0384633D01*
X0880035Y0384558D01*
X0880074Y0384484D01*
X0880117Y0384413D01*
X0880163Y0384343D01*
X0880213Y0384276D01*
X0880265Y0384211D01*
X0880320Y0384149D01*
X0880379Y0384089D01*
X0880440Y0384032D01*
X0880503Y0383978D01*
X0880569Y0383927D01*
X0880638Y0383880D01*
X0880708Y0383835D01*
X0880781Y0383794D01*
X0880855Y0383757D01*
X0880931Y0383722D01*
X0881009Y0383692D01*
X0881087Y0383665D01*
X0881168Y0383642D01*
X0881249Y0383622D01*
X0881331Y0383607D01*
X0881413Y0383595D01*
X0881496Y0383587D01*
X0881579Y0383583D01*
X0881663Y0383583D01*
X0881746Y0383587D01*
X0881829Y0383595D01*
X0881911Y0383607D01*
X0881993Y0383622D01*
X0882074Y0383642D01*
X0882155Y0383665D01*
X0882233Y0383692D01*
X0882311Y0383722D01*
X0882387Y0383757D01*
X0882461Y0383794D01*
X0882534Y0383835D01*
X0882604Y0383880D01*
X0882673Y0383927D01*
X0882739Y0383978D01*
X0882802Y0384032D01*
X0882863Y0384089D01*
X0882922Y0384149D01*
X0882977Y0384211D01*
X0883029Y0384276D01*
X0883079Y0384343D01*
X0883125Y0384413D01*
X0883168Y0384484D01*
X0883207Y0384558D01*
X0883243Y0384633D01*
X0883275Y0384710D01*
X0883304Y0384788D01*
X0883329Y0384867D01*
X0883350Y0384948D01*
X0883368Y0385029D01*
X0883381Y0385112D01*
X0883391Y0385195D01*
X0883397Y0385278D01*
X0883399Y0385361D01*
X0883399Y0389983D01*
X0885793Y0389983D02*
X0889348Y0389983D01*
X0887570Y0389983D02*
X0887570Y0383583D01*
X0877339Y0383583D02*
X0875917Y0383583D01*
X0875917Y0383584D02*
X0875843Y0383586D01*
X0875768Y0383592D01*
X0875695Y0383602D01*
X0875621Y0383615D01*
X0875549Y0383632D01*
X0875478Y0383654D01*
X0875407Y0383678D01*
X0875339Y0383707D01*
X0875271Y0383739D01*
X0875206Y0383775D01*
X0875143Y0383813D01*
X0875081Y0383856D01*
X0875022Y0383901D01*
X0874965Y0383949D01*
X0874911Y0384000D01*
X0874860Y0384054D01*
X0874812Y0384111D01*
X0874767Y0384170D01*
X0874724Y0384232D01*
X0874686Y0384295D01*
X0874650Y0384360D01*
X0874618Y0384428D01*
X0874589Y0384496D01*
X0874565Y0384567D01*
X0874543Y0384638D01*
X0874526Y0384710D01*
X0874513Y0384784D01*
X0874503Y0384857D01*
X0874497Y0384932D01*
X0874495Y0385006D01*
M02*
