G75*
%MOIN*%
%OFA0B0*%
%FSLAX25Y25*%
%IPPOS*%
%LPD*%
%AMOC8*
5,1,8,0,0,1.08239X$1,22.5*
%
%ADD10C,0.12611*%
%ADD11OC8,0.06800*%
%ADD12R,0.07099X0.05918*%
%ADD13R,0.07099X0.08674*%
%ADD14C,0.07887*%
%ADD15C,0.07800*%
%ADD16C,0.13068*%
%ADD17C,0.06500*%
%ADD18R,0.08200X0.08200*%
%ADD19C,0.08200*%
%ADD20C,0.16548*%
%ADD21R,0.06800X0.06800*%
%ADD22OC8,0.17005*%
%ADD23OC8,0.14052*%
%ADD24C,0.07099*%
%ADD25OC8,0.15036*%
%ADD26OC8,0.06706*%
%ADD27C,0.06706*%
%ADD28C,0.01360*%
D10*
X0520175Y0135252D03*
X0803639Y0113598D03*
X0888128Y0075606D03*
X1235923Y0075606D03*
X0831198Y0243520D03*
X0958758Y0301787D03*
X0986317Y0301787D03*
X0888128Y0310016D03*
X0675687Y0308480D03*
X0522143Y0249425D03*
X1235923Y0310016D03*
D11*
X1076513Y0308480D03*
X1066513Y0308480D03*
X1056513Y0308480D03*
X1046513Y0308480D03*
X0856789Y0258520D03*
X0856789Y0248520D03*
X0856789Y0238520D03*
X0856789Y0228520D03*
X0740151Y0243031D03*
X0730151Y0243031D03*
X0720151Y0243031D03*
X0710151Y0243031D03*
X0700151Y0243031D03*
X0690151Y0243031D03*
X0680151Y0243031D03*
X0680151Y0193031D03*
X0670151Y0193031D03*
X0690151Y0193031D03*
X0700151Y0193031D03*
X0710151Y0193031D03*
X0720151Y0193031D03*
X0730151Y0193031D03*
X0514269Y0197181D03*
X0514269Y0207181D03*
X0514269Y0217181D03*
X0514269Y0187181D03*
X0709899Y0308480D03*
X0719899Y0308480D03*
X0729899Y0308480D03*
X0739899Y0308480D03*
D12*
X0597143Y0311512D03*
X0569584Y0311512D03*
X0569584Y0301512D03*
X0597143Y0301512D03*
D13*
X0608561Y0306512D03*
X0581002Y0306512D03*
D14*
X0742616Y0078165D03*
X0752458Y0078165D03*
X0762301Y0078165D03*
D15*
X0760332Y0135252D03*
X0752458Y0135252D03*
X0744584Y0135252D03*
X0736710Y0135252D03*
X0768206Y0135252D03*
D16*
X0774309Y0107693D03*
X0730608Y0107693D03*
D17*
X0645844Y0103323D03*
X0645844Y0113323D03*
X0635844Y0113323D03*
X0635844Y0123323D03*
X0645844Y0123323D03*
X0645844Y0133323D03*
X0645844Y0143323D03*
X0625844Y0143323D03*
X0615844Y0143323D03*
X0615844Y0133323D03*
X0625844Y0133323D03*
X0585844Y0133323D03*
X0585844Y0143323D03*
X0585844Y0153323D03*
X0585844Y0163323D03*
X0585844Y0173323D03*
X0585844Y0183323D03*
X0585844Y0193323D03*
X0585844Y0203323D03*
X0615844Y0193323D03*
X0625844Y0193323D03*
X0645844Y0193323D03*
X0645844Y0203323D03*
X0645844Y0183323D03*
X0645844Y0173323D03*
X0645844Y0163323D03*
X0645844Y0153323D03*
X0625844Y0153323D03*
X0615844Y0153323D03*
X0615844Y0163323D03*
X0625844Y0163323D03*
X0625844Y0173323D03*
X0615844Y0173323D03*
X0615844Y0183323D03*
X0625844Y0183323D03*
X0585844Y0123323D03*
X0585844Y0113323D03*
X0585844Y0103323D03*
X0585844Y0093323D03*
X0585844Y0083323D03*
X0585844Y0073323D03*
X0645844Y0073323D03*
X0645844Y0083323D03*
X0645844Y0093323D03*
D18*
X0559545Y0282890D03*
D19*
X0569545Y0282890D03*
X0579545Y0282890D03*
X0589545Y0282890D03*
X0599545Y0282890D03*
X0609545Y0282890D03*
X0619545Y0282890D03*
X0629545Y0282890D03*
X0639545Y0282890D03*
X0649545Y0282890D03*
X0659545Y0282890D03*
X0669545Y0282890D03*
X0679545Y0282890D03*
X0689545Y0282890D03*
X0699545Y0282890D03*
X0709545Y0282890D03*
D20*
X0833167Y0282890D03*
X0537891Y0282890D03*
X0537891Y0160843D03*
X0833167Y0160843D03*
D21*
X0740151Y0193031D03*
X0670151Y0243031D03*
D22*
X0776080Y0276984D03*
D23*
X0776080Y0300606D03*
D24*
X0776080Y0312417D03*
D25*
X0758364Y0304528D03*
X0793797Y0304528D03*
D26*
X0677655Y0094071D03*
X0677655Y0074071D03*
D27*
X0659545Y0076984D03*
D28*
X0548427Y0092702D02*
X0547747Y0092022D01*
X0547747Y0094276D01*
X0549339Y0095868D01*
X0551593Y0095868D01*
X0553185Y0094276D01*
X0553185Y0092022D01*
X0551593Y0090430D01*
X0549339Y0090430D01*
X0547747Y0092022D01*
X0548767Y0092445D01*
X0548767Y0093853D01*
X0549762Y0094848D01*
X0551170Y0094848D01*
X0552165Y0093853D01*
X0552165Y0092445D01*
X0551170Y0091450D01*
X0549762Y0091450D01*
X0548767Y0092445D01*
X0549787Y0092867D01*
X0549787Y0093431D01*
X0550184Y0093828D01*
X0550748Y0093828D01*
X0551145Y0093431D01*
X0551145Y0092867D01*
X0550748Y0092470D01*
X0550184Y0092470D01*
X0549787Y0092867D01*
X0541356Y0099773D02*
X0540676Y0099093D01*
X0540676Y0101347D01*
X0542268Y0102939D01*
X0544522Y0102939D01*
X0546114Y0101347D01*
X0546114Y0099093D01*
X0544522Y0097501D01*
X0542268Y0097501D01*
X0540676Y0099093D01*
X0541696Y0099516D01*
X0541696Y0100924D01*
X0542691Y0101919D01*
X0544099Y0101919D01*
X0545094Y0100924D01*
X0545094Y0099516D01*
X0544099Y0098521D01*
X0542691Y0098521D01*
X0541696Y0099516D01*
X0542716Y0099938D01*
X0542716Y0100502D01*
X0543113Y0100899D01*
X0543677Y0100899D01*
X0544074Y0100502D01*
X0544074Y0099938D01*
X0543677Y0099541D01*
X0543113Y0099541D01*
X0542716Y0099938D01*
X0534285Y0106844D02*
X0533605Y0106164D01*
X0533605Y0108418D01*
X0535197Y0110010D01*
X0537451Y0110010D01*
X0539043Y0108418D01*
X0539043Y0106164D01*
X0537451Y0104572D01*
X0535197Y0104572D01*
X0533605Y0106164D01*
X0534625Y0106587D01*
X0534625Y0107995D01*
X0535620Y0108990D01*
X0537028Y0108990D01*
X0538023Y0107995D01*
X0538023Y0106587D01*
X0537028Y0105592D01*
X0535620Y0105592D01*
X0534625Y0106587D01*
X0535645Y0107009D01*
X0535645Y0107573D01*
X0536042Y0107970D01*
X0536606Y0107970D01*
X0537003Y0107573D01*
X0537003Y0107009D01*
X0536606Y0106612D01*
X0536042Y0106612D01*
X0535645Y0107009D01*
X0527214Y0113915D02*
X0526534Y0113235D01*
X0526534Y0115489D01*
X0528126Y0117081D01*
X0530380Y0117081D01*
X0531972Y0115489D01*
X0531972Y0113235D01*
X0530380Y0111643D01*
X0528126Y0111643D01*
X0526534Y0113235D01*
X0527554Y0113658D01*
X0527554Y0115066D01*
X0528549Y0116061D01*
X0529957Y0116061D01*
X0530952Y0115066D01*
X0530952Y0113658D01*
X0529957Y0112663D01*
X0528549Y0112663D01*
X0527554Y0113658D01*
X0528574Y0114080D01*
X0528574Y0114644D01*
X0528971Y0115041D01*
X0529535Y0115041D01*
X0529932Y0114644D01*
X0529932Y0114080D01*
X0529535Y0113683D01*
X0528971Y0113683D01*
X0528574Y0114080D01*
X0818176Y0095188D02*
X0817496Y0095868D01*
X0819750Y0095868D01*
X0821342Y0094276D01*
X0821342Y0092022D01*
X0819750Y0090430D01*
X0817496Y0090430D01*
X0815904Y0092022D01*
X0815904Y0094276D01*
X0817496Y0095868D01*
X0817919Y0094848D01*
X0819327Y0094848D01*
X0820322Y0093853D01*
X0820322Y0092445D01*
X0819327Y0091450D01*
X0817919Y0091450D01*
X0816924Y0092445D01*
X0816924Y0093853D01*
X0817919Y0094848D01*
X0818341Y0093828D01*
X0818905Y0093828D01*
X0819302Y0093431D01*
X0819302Y0092867D01*
X0818905Y0092470D01*
X0818341Y0092470D01*
X0817944Y0092867D01*
X0817944Y0093431D01*
X0818341Y0093828D01*
X0825247Y0102259D02*
X0824567Y0102939D01*
X0826821Y0102939D01*
X0828413Y0101347D01*
X0828413Y0099093D01*
X0826821Y0097501D01*
X0824567Y0097501D01*
X0822975Y0099093D01*
X0822975Y0101347D01*
X0824567Y0102939D01*
X0824990Y0101919D01*
X0826398Y0101919D01*
X0827393Y0100924D01*
X0827393Y0099516D01*
X0826398Y0098521D01*
X0824990Y0098521D01*
X0823995Y0099516D01*
X0823995Y0100924D01*
X0824990Y0101919D01*
X0825412Y0100899D01*
X0825976Y0100899D01*
X0826373Y0100502D01*
X0826373Y0099938D01*
X0825976Y0099541D01*
X0825412Y0099541D01*
X0825015Y0099938D01*
X0825015Y0100502D01*
X0825412Y0100899D01*
X0832319Y0109330D02*
X0831639Y0110010D01*
X0833893Y0110010D01*
X0835485Y0108418D01*
X0835485Y0106164D01*
X0833893Y0104572D01*
X0831639Y0104572D01*
X0830047Y0106164D01*
X0830047Y0108418D01*
X0831639Y0110010D01*
X0832062Y0108990D01*
X0833470Y0108990D01*
X0834465Y0107995D01*
X0834465Y0106587D01*
X0833470Y0105592D01*
X0832062Y0105592D01*
X0831067Y0106587D01*
X0831067Y0107995D01*
X0832062Y0108990D01*
X0832484Y0107970D01*
X0833048Y0107970D01*
X0833445Y0107573D01*
X0833445Y0107009D01*
X0833048Y0106612D01*
X0832484Y0106612D01*
X0832087Y0107009D01*
X0832087Y0107573D01*
X0832484Y0107970D01*
X0839390Y0116401D02*
X0838710Y0117081D01*
X0840964Y0117081D01*
X0842556Y0115489D01*
X0842556Y0113235D01*
X0840964Y0111643D01*
X0838710Y0111643D01*
X0837118Y0113235D01*
X0837118Y0115489D01*
X0838710Y0117081D01*
X0839133Y0116061D01*
X0840541Y0116061D01*
X0841536Y0115066D01*
X0841536Y0113658D01*
X0840541Y0112663D01*
X0839133Y0112663D01*
X0838138Y0113658D01*
X0838138Y0115066D01*
X0839133Y0116061D01*
X0839555Y0115041D01*
X0840119Y0115041D01*
X0840516Y0114644D01*
X0840516Y0114080D01*
X0840119Y0113683D01*
X0839555Y0113683D01*
X0839158Y0114080D01*
X0839158Y0114644D01*
X0839555Y0115041D01*
M02*
