%
M48
M72
T01C0.01181
T02C0.01378
T03C0.01575
T04C0.01969
T05C0.03800
T06C0.03937
T07C0.04000
T08C0.04331
T09C0.06299
T10C0.07874
T11C0.08268
T12C0.09252
T13C0.10236
T14C0.11811
T15C0.12205
T16C0.15748
%
T01
X234124Y200850
X234124Y205575
X230581Y205181
X237667Y204394
X241604Y202031
X243104Y204531
X241604Y206781
X244604Y206781
X246104Y204531
X244604Y202031
X252604Y206281
X254854Y207781
X255104Y211781
X253354Y217281
X250854Y217281
X248354Y217281
X239704Y216931
X237356Y220626
X237356Y224563
X244049Y224563
X240062Y234189
X264522Y234799
X285346Y225187
X285354Y222531
X287854Y217785
X290104Y218781
X292354Y217785
X297354Y218531
X299854Y218531
X299854Y222531
X299854Y207656
X297354Y207656
X291752Y207232
X289053Y207232
X286303Y207232
X284486Y202335
X281354Y202031
X277854Y201281
X274104Y201281
X270854Y202031
X264354Y202031
X257787Y204764
X237274Y212268
X232549Y210299
X287354Y201031
X301394Y237614
T02
X351000Y205724
X351000Y201394
X356512Y202575
X359268Y198244
X354543Y194701
X360843Y191157
X364780Y194701
X370685Y194307
X371472Y190370
X365567Y188402
X377378Y188402
X377378Y193126
X377378Y197063
X377378Y207693
X362417Y204543
X299228Y124819
X158283Y195685
T03
X251854Y221531
X262709Y220035
X262709Y217083
X262709Y214130
X262709Y211177
X266154Y211177
X266154Y214130
X266154Y217083
X266154Y220035
X269598Y220035
X269598Y217083
X269598Y214130
X269598Y211130
X273043Y211177
X273043Y214130
X273043Y217083
X273043Y220035
X276488Y220035
X276488Y217083
X276488Y214130
X276488Y211177
T04
X314386Y206512
X314780Y214386
X323835Y215961
X335252Y210449
X324622Y209268
X313598Y195488
X313992Y189583
X342142Y187417
X358874Y181118
X351984Y174228
X361827Y171276
X370685Y173047
X381709Y169504
X375409Y162417
X365567Y162811
X356906Y162417
X361630Y156512
X373835Y152575
X360449Y147850
X348638Y147850
X332496Y148638
X321669Y154740
X305921Y144504
X276984Y135252
X272260Y147850
X263992Y147850
X252181Y138402
X248638Y138402
X248638Y134858
X252181Y134858
X250213Y131315
X248638Y127772
X252181Y127772
X252181Y124228
X248638Y124228
X240764Y126984
X240567Y119701
X219504Y124228
X219504Y133677
X226591Y151394
X251197Y158677
X272260Y120291
X271866Y112024
X266157Y100016
X282890Y80528
X249819Y79740
X393913Y145488
X409661Y148638
X422260Y147850
X413992Y157299
X419110Y163598
X402181Y162811
X387220Y181709
X426591Y183283
X385449Y202181
X185646Y225803
X171866Y225803
X175803Y298638
X161039Y301591
X163992Y312417
X129543Y311433
X129543Y301591
T05
X143047Y73323
X143047Y83323
X143047Y93323
X143047Y103323
X143047Y113323
X143047Y123323
X143047Y133323
X143047Y143323
X143047Y153323
X143047Y163323
X143047Y173323
X143047Y183323
X143047Y193323
X143047Y203323
X173047Y193323
X183047Y193323
X203047Y193323
X203047Y203323
X203047Y183323
X203047Y173323
X203047Y163323
X203047Y153323
X183047Y153323
X173047Y153323
X173047Y163323
X183047Y163323
X183047Y173323
X173047Y173323
X173047Y183323
X183047Y183323
X183047Y143323
X173047Y143323
X173047Y133323
X183047Y133323
X193047Y123323
X203047Y123323
X203047Y133323
X203047Y143323
X203047Y113323
X193047Y113323
X203047Y103323
X203047Y93323
X203047Y83323
X203047Y73323
T06
X216748Y76984
X234858Y74071
X234858Y94071
T07
X107670Y93149
X100599Y100220
X93527Y107291
X86456Y114362
X227354Y193031
X237354Y193031
X247354Y193031
X257354Y193031
X267354Y193031
X277354Y193031
X287354Y193031
X297354Y193031
X297354Y243031
X287354Y243031
X277354Y243031
X267354Y243031
X257354Y243031
X247354Y243031
X237354Y243031
X227354Y243031
X226748Y282890
X216748Y282890
X206748Y282890
X196748Y282890
X186748Y282890
X176748Y282890
X166748Y282890
X156748Y282890
X146748Y282890
X136748Y282890
X126748Y282890
X116748Y282890
X236748Y282890
X246748Y282890
X256748Y282890
X266748Y282890
X267102Y308480
X277102Y308480
X287102Y308480
X297102Y308480
X603717Y308480
X613717Y308480
X623717Y308480
X633717Y308480
X397040Y110425
X389969Y103354
X382898Y96283
X375826Y89212
T08
X319504Y78165
X309661Y78165
X299819Y78165
X301787Y135252
X293913Y135252
X309661Y135252
X317535Y135252
X325409Y135252
T09
X333283Y312417
T10
X410449Y260055
X410055Y237614
X288795Y162417
X206118Y232102
T11
X287811Y107693
X331512Y107693
T12
X333283Y300606
T13
X315567Y304528
X351000Y304528
T14
X445331Y310016
X508480Y306512
X539976Y306512
X793126Y310016
X360843Y113598
X445331Y75606
X793126Y75606
X203362Y308480
X77378Y135252
T15
X333283Y276984
T16
X390370Y282890
X390370Y160843
X95094Y160843
X95094Y282890
M30
