%
M48
M72
T01C0.01181
T02C0.01378
T03C0.01575
T04C0.01969
T05C0.03800
T06C0.03937
T07C0.04000
T08C0.04331
T09C0.06299
T10C0.08268
T11C0.09252
T12C0.10236
T13C0.11811
T14C0.12205
T15C0.15748
%
T01
X676921Y200850
X676921Y205575
X673378Y205181
X680464Y204394
X684401Y202031
X685901Y204531
X684401Y206781
X687401Y206781
X688901Y204531
X687401Y202031
X695401Y206281
X697651Y207781
X697901Y211781
X696151Y217281
X693651Y217281
X691151Y217281
X682501Y216931
X680153Y220626
X680153Y224563
X686846Y224563
X682859Y234189
X707319Y234799
X728143Y225187
X728151Y222531
X730651Y217785
X732901Y218781
X735151Y217785
X740151Y218531
X742651Y218531
X742651Y222531
X742651Y207656
X740151Y207656
X734549Y207232
X731850Y207232
X729100Y207232
X727283Y202335
X724151Y202031
X720651Y201281
X716901Y201281
X713651Y202031
X707151Y202031
X700584Y204764
X680071Y212268
X675346Y210299
X730151Y201031
X744191Y237614
T02
X820175Y207693
X805214Y204543
X799309Y202575
X802065Y198244
X797340Y194701
X803639Y191157
X807576Y194701
X813482Y194307
X814269Y190370
X808364Y188402
X820175Y188402
X820175Y193126
X820175Y197063
X793797Y201394
X793797Y205724
X601080Y195685
X742025Y124819
T03
X719285Y211177
X719285Y214130
X719285Y217083
X719285Y220035
X715840Y220035
X715840Y217083
X715840Y214130
X715840Y211177
X712395Y211130
X712395Y214130
X712395Y217083
X712395Y220035
X708950Y220035
X708950Y217083
X708950Y214130
X708950Y211177
X705506Y211177
X705506Y214130
X705506Y217083
X705506Y220035
X694651Y221531
T04
X757576Y214386
X757183Y206512
X767419Y209268
X778049Y210449
X766632Y215961
X828246Y202181
X784939Y187417
X801671Y181118
X794781Y174228
X804624Y171276
X813482Y173047
X824506Y169504
X818206Y162417
X808364Y162811
X799702Y162417
X804427Y156512
X816632Y152575
X803246Y147850
X791435Y147850
X775293Y148638
X764466Y154740
X748718Y144504
X719781Y135252
X694978Y134858
X691435Y134858
X691435Y138402
X694978Y138402
X693010Y131315
X691435Y127772
X694978Y127772
X694978Y124228
X691435Y124228
X683561Y126984
X662301Y124228
X683364Y119701
X715057Y120291
X714663Y112024
X708954Y100016
X725687Y80528
X692616Y79740
X662301Y133677
X706789Y147850
X715057Y147850
X693994Y158677
X669387Y151394
X756789Y189583
X756395Y195488
X830017Y181709
X869387Y183283
X861907Y163598
X844978Y162811
X856789Y157299
X852458Y148638
X865057Y147850
X836710Y145488
X628443Y225803
X614663Y225803
X592025Y301591
X614663Y306512
X602852Y312417
X564466Y311433
X564466Y301591
T05
X585844Y203323
X585844Y193323
X585844Y183323
X585844Y173323
X585844Y163323
X585844Y153323
X585844Y143323
X585844Y133323
X585844Y123323
X585844Y113323
X585844Y103323
X585844Y93323
X585844Y83323
X585844Y73323
X645844Y73323
X645844Y83323
X645844Y93323
X645844Y103323
X645844Y113323
X635844Y113323
X635844Y123323
X645844Y123323
X645844Y133323
X645844Y143323
X625844Y143323
X615844Y143323
X615844Y133323
X625844Y133323
X625844Y153323
X615844Y153323
X615844Y163323
X625844Y163323
X625844Y173323
X615844Y173323
X615844Y183323
X625844Y183323
X645844Y183323
X645844Y173323
X645844Y163323
X645844Y153323
X645844Y193323
X645844Y203323
X625844Y193323
X615844Y193323
T06
X677655Y94071
X659545Y76984
X677655Y74071
T07
X550466Y93149
X543395Y100220
X536324Y107291
X529253Y114362
X514269Y187181
X514269Y197181
X514269Y207181
X514269Y217181
X670151Y193031
X680151Y193031
X690151Y193031
X700151Y193031
X710151Y193031
X720151Y193031
X730151Y193031
X740151Y193031
X856789Y228520
X856789Y238520
X856789Y248520
X856789Y258520
X740151Y243031
X730151Y243031
X720151Y243031
X710151Y243031
X700151Y243031
X690151Y243031
X680151Y243031
X670151Y243031
X669545Y282890
X679545Y282890
X689545Y282890
X699545Y282890
X709545Y282890
X659545Y282890
X649545Y282890
X639545Y282890
X629545Y282890
X619545Y282890
X609545Y282890
X599545Y282890
X589545Y282890
X579545Y282890
X569545Y282890
X559545Y282890
X709899Y308480
X719899Y308480
X729899Y308480
X739899Y308480
X1046513Y308480
X1056513Y308480
X1066513Y308480
X1076513Y308480
X839837Y114362
X832766Y107291
X825694Y100220
X818623Y93149
T08
X762301Y78165
X752458Y78165
X742616Y78165
X744584Y135252
X736710Y135252
X752458Y135252
X760332Y135252
X768206Y135252
T09
X776080Y312417
T10
X774309Y107693
X730608Y107693
T11
X776080Y300606
T12
X793797Y304528
X758364Y304528
T13
X520175Y135252
X803639Y113598
X888128Y75606
X1235923Y75606
X831198Y243520
X958758Y301787
X986317Y301787
X888128Y310016
X675687Y308480
X522143Y249425
X1235923Y310016
T14
X776080Y276984
T15
X833167Y282890
X537891Y282890
X537891Y160843
X833167Y160843
M30
