G75*
%MOIN*%
%OFA0B0*%
%FSLAX25Y25*%
%IPPOS*%
%LPD*%
%AMOC8*
5,1,8,0,0,1.08239X$1,22.5*
%
%ADD10R,0.03500X0.04200*%
%ADD11R,0.04200X0.03500*%
%ADD12OC8,0.06000*%
%ADD13C,0.07087*%
%ADD14C,0.07000*%
%ADD15C,0.12268*%
%ADD16C,0.05700*%
%ADD17R,0.02165X0.05157*%
%ADD18R,0.03701X0.05157*%
%ADD19R,0.07400X0.07400*%
%ADD20C,0.07400*%
%ADD21R,0.06000X0.06000*%
%ADD22R,0.03800X0.06000*%
%ADD23R,0.02700X0.03000*%
%ADD24C,0.00205*%
%ADD25R,0.01024X0.02756*%
%ADD26C,0.00472*%
%ADD27R,0.18110X0.14173*%
%ADD28R,0.06496X0.09449*%
%ADD29R,0.03150X0.01102*%
%ADD30R,0.02500X0.07000*%
%ADD31R,0.15157X0.21654*%
%ADD32R,0.04800X0.03600*%
%ADD33R,0.10039X0.10906*%
%ADD34R,0.05000X0.13386*%
%ADD35OC8,0.16205*%
%ADD36OC8,0.13252*%
%ADD37OC8,0.14236*%
%ADD38OC8,0.05906*%
%ADD39C,0.05906*%
%ADD40C,0.01200*%
%ADD41OC8,0.11811*%
%ADD42C,0.00787*%
%ADD43C,0.00709*%
%ADD44C,0.01981*%
%ADD45C,0.03937*%
%ADD46C,0.01181*%
%ADD47C,0.00669*%
%ADD48R,0.02375X0.02375*%
%ADD49C,0.00984*%
%ADD50C,0.02953*%
%ADD51C,0.01969*%
%ADD52C,0.02178*%
%ADD53C,0.00630*%
%ADD54C,0.01000*%
%ADD55C,0.01600*%
%ADD56C,0.05906*%
%ADD57C,0.02375*%
%ADD58C,0.11811*%
%ADD59C,0.07874*%
D10*
X0255080Y0080134D03*
X0261880Y0080134D03*
X0270828Y0080134D03*
X0277628Y0080134D03*
X0277628Y0089976D03*
X0270828Y0089976D03*
X0261880Y0089976D03*
X0255080Y0089976D03*
X0255080Y0099819D03*
X0261880Y0099819D03*
X0270828Y0099819D03*
X0277628Y0099819D03*
X0231959Y0124228D03*
X0225159Y0124228D03*
X0225159Y0133677D03*
X0231959Y0133677D03*
X0310631Y0145449D03*
X0317431Y0145449D03*
X0294557Y0221472D03*
X0287757Y0221472D03*
X0286183Y0227772D03*
X0286183Y0234465D03*
X0292983Y0234465D03*
X0292983Y0227772D03*
X0249367Y0221551D03*
X0242567Y0221551D03*
X0182337Y0317413D03*
X0175537Y0317413D03*
D11*
X0189583Y0317392D03*
X0189583Y0310592D03*
X0299425Y0234321D03*
X0299425Y0227521D03*
X0185646Y0221329D03*
X0171866Y0221329D03*
X0171866Y0214529D03*
X0185646Y0214529D03*
X0251000Y0153613D03*
X0251000Y0146813D03*
X0263598Y0142589D03*
X0263598Y0135789D03*
X0272654Y0135789D03*
X0272654Y0142589D03*
X0232496Y0143663D03*
X0232496Y0150463D03*
X0245094Y0118967D03*
X0245094Y0112167D03*
X0266748Y0112954D03*
X0266748Y0119754D03*
D12*
X0267354Y0193031D03*
X0257354Y0193031D03*
X0247354Y0193031D03*
X0237354Y0193031D03*
X0227354Y0193031D03*
X0277354Y0193031D03*
X0287354Y0193031D03*
X0287354Y0243031D03*
X0277354Y0243031D03*
X0267354Y0243031D03*
X0257354Y0243031D03*
X0247354Y0243031D03*
X0237354Y0243031D03*
X0297354Y0243031D03*
X0297102Y0308480D03*
X0287102Y0308480D03*
X0277102Y0308480D03*
X0267102Y0308480D03*
X0603717Y0308480D03*
X0613717Y0308480D03*
X0623717Y0308480D03*
X0633717Y0308480D03*
D13*
X0319504Y0078165D03*
X0309661Y0078165D03*
X0299819Y0078165D03*
D14*
X0301787Y0135252D03*
X0293913Y0135252D03*
X0309661Y0135252D03*
X0317535Y0135252D03*
X0325409Y0135252D03*
D15*
X0331512Y0107693D03*
X0287811Y0107693D03*
D16*
X0143047Y0073323D03*
X0143047Y0083323D03*
X0143047Y0093323D03*
X0143047Y0103323D03*
X0143047Y0113323D03*
X0143047Y0123323D03*
X0143047Y0133323D03*
X0143047Y0143323D03*
X0143047Y0153323D03*
X0143047Y0163323D03*
X0143047Y0173323D03*
X0143047Y0183323D03*
X0143047Y0193323D03*
X0143047Y0203323D03*
X0173047Y0193323D03*
X0183047Y0193323D03*
X0203047Y0193323D03*
X0203047Y0203323D03*
X0203047Y0183323D03*
X0203047Y0173323D03*
X0203047Y0163323D03*
X0203047Y0153323D03*
X0183047Y0153323D03*
X0173047Y0153323D03*
X0173047Y0163323D03*
X0183047Y0163323D03*
X0183047Y0173323D03*
X0173047Y0173323D03*
X0173047Y0183323D03*
X0183047Y0183323D03*
X0183047Y0143323D03*
X0173047Y0143323D03*
X0173047Y0133323D03*
X0183047Y0133323D03*
X0193047Y0123323D03*
X0203047Y0123323D03*
X0203047Y0133323D03*
X0203047Y0143323D03*
X0203047Y0113323D03*
X0193047Y0113323D03*
X0203047Y0103323D03*
X0203047Y0093323D03*
X0203047Y0083323D03*
X0203047Y0073323D03*
D17*
X0251551Y0111630D03*
X0251551Y0119504D03*
X0259110Y0119504D03*
D18*
X0258362Y0111630D03*
D19*
X0116748Y0282890D03*
D20*
X0126748Y0282890D03*
X0136748Y0282890D03*
X0146748Y0282890D03*
X0156748Y0282890D03*
X0166748Y0282890D03*
X0176748Y0282890D03*
X0186748Y0282890D03*
X0196748Y0282890D03*
X0206748Y0282890D03*
X0216748Y0282890D03*
X0226748Y0282890D03*
X0236748Y0282890D03*
X0246748Y0282890D03*
X0256748Y0282890D03*
X0266748Y0282890D03*
D21*
X0227354Y0243031D03*
X0297354Y0193031D03*
D22*
X0296582Y0212638D03*
X0288382Y0212638D03*
X0251061Y0212146D03*
X0242861Y0212146D03*
D23*
X0276065Y0230134D03*
X0280265Y0230134D03*
X0280265Y0234858D03*
X0276065Y0234858D03*
X0270817Y0234858D03*
X0266617Y0234858D03*
D24*
X0267056Y0226331D02*
X0267056Y0223779D01*
X0266236Y0223779D01*
X0266236Y0226331D01*
X0267056Y0226331D01*
X0267056Y0223983D02*
X0266236Y0223983D01*
X0266236Y0224187D02*
X0267056Y0224187D01*
X0267056Y0224391D02*
X0266236Y0224391D01*
X0266236Y0224595D02*
X0267056Y0224595D01*
X0267056Y0224799D02*
X0266236Y0224799D01*
X0266236Y0225003D02*
X0267056Y0225003D01*
X0267056Y0225207D02*
X0266236Y0225207D01*
X0266236Y0225411D02*
X0267056Y0225411D01*
X0267056Y0225615D02*
X0266236Y0225615D01*
X0266236Y0225819D02*
X0267056Y0225819D01*
X0267056Y0226023D02*
X0266236Y0226023D01*
X0266236Y0226227D02*
X0267056Y0226227D01*
X0269024Y0226331D02*
X0269024Y0223779D01*
X0268204Y0223779D01*
X0268204Y0226331D01*
X0269024Y0226331D01*
X0269024Y0223983D02*
X0268204Y0223983D01*
X0268204Y0224187D02*
X0269024Y0224187D01*
X0269024Y0224391D02*
X0268204Y0224391D01*
X0268204Y0224595D02*
X0269024Y0224595D01*
X0269024Y0224799D02*
X0268204Y0224799D01*
X0268204Y0225003D02*
X0269024Y0225003D01*
X0269024Y0225207D02*
X0268204Y0225207D01*
X0268204Y0225411D02*
X0269024Y0225411D01*
X0269024Y0225615D02*
X0268204Y0225615D01*
X0268204Y0225819D02*
X0269024Y0225819D01*
X0269024Y0226023D02*
X0268204Y0226023D01*
X0268204Y0226227D02*
X0269024Y0226227D01*
X0270993Y0226331D02*
X0270993Y0221811D01*
X0270173Y0221811D01*
X0270173Y0226331D01*
X0270993Y0226331D01*
X0270993Y0222015D02*
X0270173Y0222015D01*
X0270173Y0222219D02*
X0270993Y0222219D01*
X0270993Y0222423D02*
X0270173Y0222423D01*
X0270173Y0222627D02*
X0270993Y0222627D01*
X0270993Y0222831D02*
X0270173Y0222831D01*
X0270173Y0223035D02*
X0270993Y0223035D01*
X0270993Y0223239D02*
X0270173Y0223239D01*
X0270173Y0223443D02*
X0270993Y0223443D01*
X0270993Y0223647D02*
X0270173Y0223647D01*
X0270173Y0223851D02*
X0270993Y0223851D01*
X0270993Y0224055D02*
X0270173Y0224055D01*
X0270173Y0224259D02*
X0270993Y0224259D01*
X0270993Y0224463D02*
X0270173Y0224463D01*
X0270173Y0224667D02*
X0270993Y0224667D01*
X0270993Y0224871D02*
X0270173Y0224871D01*
X0270173Y0225075D02*
X0270993Y0225075D01*
X0270993Y0225279D02*
X0270173Y0225279D01*
X0270173Y0225483D02*
X0270993Y0225483D01*
X0270993Y0225687D02*
X0270173Y0225687D01*
X0270173Y0225891D02*
X0270993Y0225891D01*
X0270993Y0226095D02*
X0270173Y0226095D01*
X0270173Y0226299D02*
X0270993Y0226299D01*
X0272961Y0226331D02*
X0272961Y0223779D01*
X0272141Y0223779D01*
X0272141Y0226331D01*
X0272961Y0226331D01*
X0272961Y0223983D02*
X0272141Y0223983D01*
X0272141Y0224187D02*
X0272961Y0224187D01*
X0272961Y0224391D02*
X0272141Y0224391D01*
X0272141Y0224595D02*
X0272961Y0224595D01*
X0272961Y0224799D02*
X0272141Y0224799D01*
X0272141Y0225003D02*
X0272961Y0225003D01*
X0272961Y0225207D02*
X0272141Y0225207D01*
X0272141Y0225411D02*
X0272961Y0225411D01*
X0272961Y0225615D02*
X0272141Y0225615D01*
X0272141Y0225819D02*
X0272961Y0225819D01*
X0272961Y0226023D02*
X0272141Y0226023D01*
X0272141Y0226227D02*
X0272961Y0226227D01*
X0274930Y0226331D02*
X0274930Y0223779D01*
X0274110Y0223779D01*
X0274110Y0226331D01*
X0274930Y0226331D01*
X0274930Y0223983D02*
X0274110Y0223983D01*
X0274110Y0224187D02*
X0274930Y0224187D01*
X0274930Y0224391D02*
X0274110Y0224391D01*
X0274110Y0224595D02*
X0274930Y0224595D01*
X0274930Y0224799D02*
X0274110Y0224799D01*
X0274110Y0225003D02*
X0274930Y0225003D01*
X0274930Y0225207D02*
X0274110Y0225207D01*
X0274110Y0225411D02*
X0274930Y0225411D01*
X0274930Y0225615D02*
X0274110Y0225615D01*
X0274110Y0225819D02*
X0274930Y0225819D01*
X0274930Y0226023D02*
X0274110Y0226023D01*
X0274110Y0226227D02*
X0274930Y0226227D01*
X0276898Y0226331D02*
X0276898Y0223779D01*
X0276078Y0223779D01*
X0276078Y0226331D01*
X0276898Y0226331D01*
X0276898Y0223983D02*
X0276078Y0223983D01*
X0276078Y0224187D02*
X0276898Y0224187D01*
X0276898Y0224391D02*
X0276078Y0224391D01*
X0276078Y0224595D02*
X0276898Y0224595D01*
X0276898Y0224799D02*
X0276078Y0224799D01*
X0276078Y0225003D02*
X0276898Y0225003D01*
X0276898Y0225207D02*
X0276078Y0225207D01*
X0276078Y0225411D02*
X0276898Y0225411D01*
X0276898Y0225615D02*
X0276078Y0225615D01*
X0276078Y0225819D02*
X0276898Y0225819D01*
X0276898Y0226023D02*
X0276078Y0226023D01*
X0276078Y0226227D02*
X0276898Y0226227D01*
X0279740Y0222086D02*
X0282292Y0222086D01*
X0279740Y0222086D02*
X0279740Y0222906D01*
X0282292Y0222906D01*
X0282292Y0222086D01*
X0282292Y0222290D02*
X0279740Y0222290D01*
X0279740Y0222494D02*
X0282292Y0222494D01*
X0282292Y0222698D02*
X0279740Y0222698D01*
X0279740Y0222902D02*
X0282292Y0222902D01*
X0282292Y0220118D02*
X0279740Y0220118D01*
X0279740Y0220938D01*
X0282292Y0220938D01*
X0282292Y0220118D01*
X0282292Y0220322D02*
X0279740Y0220322D01*
X0279740Y0220526D02*
X0282292Y0220526D01*
X0282292Y0220730D02*
X0279740Y0220730D01*
X0279740Y0220934D02*
X0282292Y0220934D01*
X0282292Y0218149D02*
X0279740Y0218149D01*
X0279740Y0218969D01*
X0282292Y0218969D01*
X0282292Y0218149D01*
X0282292Y0218353D02*
X0279740Y0218353D01*
X0279740Y0218557D02*
X0282292Y0218557D01*
X0282292Y0218761D02*
X0279740Y0218761D01*
X0279740Y0218965D02*
X0282292Y0218965D01*
X0282292Y0216181D02*
X0279740Y0216181D01*
X0279740Y0217001D01*
X0282292Y0217001D01*
X0282292Y0216181D01*
X0282292Y0216385D02*
X0279740Y0216385D01*
X0279740Y0216589D02*
X0282292Y0216589D01*
X0282292Y0216793D02*
X0279740Y0216793D01*
X0279740Y0216997D02*
X0282292Y0216997D01*
X0282292Y0214212D02*
X0279740Y0214212D01*
X0279740Y0215032D01*
X0282292Y0215032D01*
X0282292Y0214212D01*
X0282292Y0214416D02*
X0279740Y0214416D01*
X0279740Y0214620D02*
X0282292Y0214620D01*
X0282292Y0214824D02*
X0279740Y0214824D01*
X0279740Y0215028D02*
X0282292Y0215028D01*
X0282292Y0212244D02*
X0279740Y0212244D01*
X0279740Y0213064D01*
X0282292Y0213064D01*
X0282292Y0212244D01*
X0282292Y0212448D02*
X0279740Y0212448D01*
X0279740Y0212652D02*
X0282292Y0212652D01*
X0282292Y0212856D02*
X0279740Y0212856D01*
X0279740Y0213060D02*
X0282292Y0213060D01*
X0282291Y0210275D02*
X0277771Y0210275D01*
X0277771Y0211095D01*
X0282291Y0211095D01*
X0282291Y0210275D01*
X0282291Y0210479D02*
X0277771Y0210479D01*
X0277771Y0210683D02*
X0282291Y0210683D01*
X0282291Y0210887D02*
X0277771Y0210887D01*
X0277771Y0211091D02*
X0282291Y0211091D01*
X0282292Y0208307D02*
X0279740Y0208307D01*
X0279740Y0209127D01*
X0282292Y0209127D01*
X0282292Y0208307D01*
X0282292Y0208511D02*
X0279740Y0208511D01*
X0279740Y0208715D02*
X0282292Y0208715D01*
X0282292Y0208919D02*
X0279740Y0208919D01*
X0279740Y0209123D02*
X0282292Y0209123D01*
X0278047Y0207433D02*
X0278047Y0204881D01*
X0278047Y0207433D02*
X0278867Y0207433D01*
X0278867Y0204881D01*
X0278047Y0204881D01*
X0278047Y0205085D02*
X0278867Y0205085D01*
X0278867Y0205289D02*
X0278047Y0205289D01*
X0278047Y0205493D02*
X0278867Y0205493D01*
X0278867Y0205697D02*
X0278047Y0205697D01*
X0278047Y0205901D02*
X0278867Y0205901D01*
X0278867Y0206105D02*
X0278047Y0206105D01*
X0278047Y0206309D02*
X0278867Y0206309D01*
X0278867Y0206513D02*
X0278047Y0206513D01*
X0278047Y0206717D02*
X0278867Y0206717D01*
X0278867Y0206921D02*
X0278047Y0206921D01*
X0278047Y0207125D02*
X0278867Y0207125D01*
X0278867Y0207329D02*
X0278047Y0207329D01*
X0276078Y0207433D02*
X0276078Y0204881D01*
X0276078Y0207433D02*
X0276898Y0207433D01*
X0276898Y0204881D01*
X0276078Y0204881D01*
X0276078Y0205085D02*
X0276898Y0205085D01*
X0276898Y0205289D02*
X0276078Y0205289D01*
X0276078Y0205493D02*
X0276898Y0205493D01*
X0276898Y0205697D02*
X0276078Y0205697D01*
X0276078Y0205901D02*
X0276898Y0205901D01*
X0276898Y0206105D02*
X0276078Y0206105D01*
X0276078Y0206309D02*
X0276898Y0206309D01*
X0276898Y0206513D02*
X0276078Y0206513D01*
X0276078Y0206717D02*
X0276898Y0206717D01*
X0276898Y0206921D02*
X0276078Y0206921D01*
X0276078Y0207125D02*
X0276898Y0207125D01*
X0276898Y0207329D02*
X0276078Y0207329D01*
X0274110Y0207433D02*
X0274110Y0204881D01*
X0274110Y0207433D02*
X0274930Y0207433D01*
X0274930Y0204881D01*
X0274110Y0204881D01*
X0274110Y0205085D02*
X0274930Y0205085D01*
X0274930Y0205289D02*
X0274110Y0205289D01*
X0274110Y0205493D02*
X0274930Y0205493D01*
X0274930Y0205697D02*
X0274110Y0205697D01*
X0274110Y0205901D02*
X0274930Y0205901D01*
X0274930Y0206105D02*
X0274110Y0206105D01*
X0274110Y0206309D02*
X0274930Y0206309D01*
X0274930Y0206513D02*
X0274110Y0206513D01*
X0274110Y0206717D02*
X0274930Y0206717D01*
X0274930Y0206921D02*
X0274110Y0206921D01*
X0274110Y0207125D02*
X0274930Y0207125D01*
X0274930Y0207329D02*
X0274110Y0207329D01*
X0272141Y0207433D02*
X0272141Y0204881D01*
X0272141Y0207433D02*
X0272961Y0207433D01*
X0272961Y0204881D01*
X0272141Y0204881D01*
X0272141Y0205085D02*
X0272961Y0205085D01*
X0272961Y0205289D02*
X0272141Y0205289D01*
X0272141Y0205493D02*
X0272961Y0205493D01*
X0272961Y0205697D02*
X0272141Y0205697D01*
X0272141Y0205901D02*
X0272961Y0205901D01*
X0272961Y0206105D02*
X0272141Y0206105D01*
X0272141Y0206309D02*
X0272961Y0206309D01*
X0272961Y0206513D02*
X0272141Y0206513D01*
X0272141Y0206717D02*
X0272961Y0206717D01*
X0272961Y0206921D02*
X0272141Y0206921D01*
X0272141Y0207125D02*
X0272961Y0207125D01*
X0272961Y0207329D02*
X0272141Y0207329D01*
X0270173Y0207433D02*
X0270173Y0204881D01*
X0270173Y0207433D02*
X0270993Y0207433D01*
X0270993Y0204881D01*
X0270173Y0204881D01*
X0270173Y0205085D02*
X0270993Y0205085D01*
X0270993Y0205289D02*
X0270173Y0205289D01*
X0270173Y0205493D02*
X0270993Y0205493D01*
X0270993Y0205697D02*
X0270173Y0205697D01*
X0270173Y0205901D02*
X0270993Y0205901D01*
X0270993Y0206105D02*
X0270173Y0206105D01*
X0270173Y0206309D02*
X0270993Y0206309D01*
X0270993Y0206513D02*
X0270173Y0206513D01*
X0270173Y0206717D02*
X0270993Y0206717D01*
X0270993Y0206921D02*
X0270173Y0206921D01*
X0270173Y0207125D02*
X0270993Y0207125D01*
X0270993Y0207329D02*
X0270173Y0207329D01*
X0268204Y0207433D02*
X0268204Y0204881D01*
X0268204Y0207433D02*
X0269024Y0207433D01*
X0269024Y0204881D01*
X0268204Y0204881D01*
X0268204Y0205085D02*
X0269024Y0205085D01*
X0269024Y0205289D02*
X0268204Y0205289D01*
X0268204Y0205493D02*
X0269024Y0205493D01*
X0269024Y0205697D02*
X0268204Y0205697D01*
X0268204Y0205901D02*
X0269024Y0205901D01*
X0269024Y0206105D02*
X0268204Y0206105D01*
X0268204Y0206309D02*
X0269024Y0206309D01*
X0269024Y0206513D02*
X0268204Y0206513D01*
X0268204Y0206717D02*
X0269024Y0206717D01*
X0269024Y0206921D02*
X0268204Y0206921D01*
X0268204Y0207125D02*
X0269024Y0207125D01*
X0269024Y0207329D02*
X0268204Y0207329D01*
X0266236Y0207433D02*
X0266236Y0204881D01*
X0266236Y0207433D02*
X0267056Y0207433D01*
X0267056Y0204881D01*
X0266236Y0204881D01*
X0266236Y0205085D02*
X0267056Y0205085D01*
X0267056Y0205289D02*
X0266236Y0205289D01*
X0266236Y0205493D02*
X0267056Y0205493D01*
X0267056Y0205697D02*
X0266236Y0205697D01*
X0266236Y0205901D02*
X0267056Y0205901D01*
X0267056Y0206105D02*
X0266236Y0206105D01*
X0266236Y0206309D02*
X0267056Y0206309D01*
X0267056Y0206513D02*
X0266236Y0206513D01*
X0266236Y0206717D02*
X0267056Y0206717D01*
X0267056Y0206921D02*
X0266236Y0206921D01*
X0266236Y0207125D02*
X0267056Y0207125D01*
X0267056Y0207329D02*
X0266236Y0207329D01*
X0264267Y0207433D02*
X0264267Y0204881D01*
X0264267Y0207433D02*
X0265087Y0207433D01*
X0265087Y0204881D01*
X0264267Y0204881D01*
X0264267Y0205085D02*
X0265087Y0205085D01*
X0265087Y0205289D02*
X0264267Y0205289D01*
X0264267Y0205493D02*
X0265087Y0205493D01*
X0265087Y0205697D02*
X0264267Y0205697D01*
X0264267Y0205901D02*
X0265087Y0205901D01*
X0265087Y0206105D02*
X0264267Y0206105D01*
X0264267Y0206309D02*
X0265087Y0206309D01*
X0265087Y0206513D02*
X0264267Y0206513D01*
X0264267Y0206717D02*
X0265087Y0206717D01*
X0265087Y0206921D02*
X0264267Y0206921D01*
X0264267Y0207125D02*
X0265087Y0207125D01*
X0265087Y0207329D02*
X0264267Y0207329D01*
X0262299Y0207433D02*
X0262299Y0204881D01*
X0262299Y0207433D02*
X0263119Y0207433D01*
X0263119Y0204881D01*
X0262299Y0204881D01*
X0262299Y0205085D02*
X0263119Y0205085D01*
X0263119Y0205289D02*
X0262299Y0205289D01*
X0262299Y0205493D02*
X0263119Y0205493D01*
X0263119Y0205697D02*
X0262299Y0205697D01*
X0262299Y0205901D02*
X0263119Y0205901D01*
X0263119Y0206105D02*
X0262299Y0206105D01*
X0262299Y0206309D02*
X0263119Y0206309D01*
X0263119Y0206513D02*
X0262299Y0206513D01*
X0262299Y0206717D02*
X0263119Y0206717D01*
X0263119Y0206921D02*
X0262299Y0206921D01*
X0262299Y0207125D02*
X0263119Y0207125D01*
X0263119Y0207329D02*
X0262299Y0207329D01*
X0260330Y0207433D02*
X0260330Y0204881D01*
X0260330Y0207433D02*
X0261150Y0207433D01*
X0261150Y0204881D01*
X0260330Y0204881D01*
X0260330Y0205085D02*
X0261150Y0205085D01*
X0261150Y0205289D02*
X0260330Y0205289D01*
X0260330Y0205493D02*
X0261150Y0205493D01*
X0261150Y0205697D02*
X0260330Y0205697D01*
X0260330Y0205901D02*
X0261150Y0205901D01*
X0261150Y0206105D02*
X0260330Y0206105D01*
X0260330Y0206309D02*
X0261150Y0206309D01*
X0261150Y0206513D02*
X0260330Y0206513D01*
X0260330Y0206717D02*
X0261150Y0206717D01*
X0261150Y0206921D02*
X0260330Y0206921D01*
X0260330Y0207125D02*
X0261150Y0207125D01*
X0261150Y0207329D02*
X0260330Y0207329D01*
X0259457Y0209127D02*
X0256905Y0209127D01*
X0259457Y0209127D02*
X0259457Y0208307D01*
X0256905Y0208307D01*
X0256905Y0209127D01*
X0256905Y0208511D02*
X0259457Y0208511D01*
X0259457Y0208715D02*
X0256905Y0208715D01*
X0256905Y0208919D02*
X0259457Y0208919D01*
X0259457Y0209123D02*
X0256905Y0209123D01*
X0256905Y0211095D02*
X0261425Y0211095D01*
X0261425Y0210275D01*
X0256905Y0210275D01*
X0256905Y0211095D01*
X0256905Y0210479D02*
X0261425Y0210479D01*
X0261425Y0210683D02*
X0256905Y0210683D01*
X0256905Y0210887D02*
X0261425Y0210887D01*
X0261425Y0211091D02*
X0256905Y0211091D01*
X0256905Y0213064D02*
X0259457Y0213064D01*
X0259457Y0212244D01*
X0256905Y0212244D01*
X0256905Y0213064D01*
X0256905Y0212448D02*
X0259457Y0212448D01*
X0259457Y0212652D02*
X0256905Y0212652D01*
X0256905Y0212856D02*
X0259457Y0212856D01*
X0259457Y0213060D02*
X0256905Y0213060D01*
X0256905Y0215032D02*
X0259457Y0215032D01*
X0259457Y0214212D01*
X0256905Y0214212D01*
X0256905Y0215032D01*
X0256905Y0214416D02*
X0259457Y0214416D01*
X0259457Y0214620D02*
X0256905Y0214620D01*
X0256905Y0214824D02*
X0259457Y0214824D01*
X0259457Y0215028D02*
X0256905Y0215028D01*
X0256905Y0217001D02*
X0259457Y0217001D01*
X0259457Y0216181D01*
X0256905Y0216181D01*
X0256905Y0217001D01*
X0256905Y0216385D02*
X0259457Y0216385D01*
X0259457Y0216589D02*
X0256905Y0216589D01*
X0256905Y0216793D02*
X0259457Y0216793D01*
X0259457Y0216997D02*
X0256905Y0216997D01*
X0256905Y0218969D02*
X0259457Y0218969D01*
X0259457Y0218149D01*
X0256905Y0218149D01*
X0256905Y0218969D01*
X0256905Y0218353D02*
X0259457Y0218353D01*
X0259457Y0218557D02*
X0256905Y0218557D01*
X0256905Y0218761D02*
X0259457Y0218761D01*
X0259457Y0218965D02*
X0256905Y0218965D01*
X0256905Y0220938D02*
X0259457Y0220938D01*
X0259457Y0220118D01*
X0256905Y0220118D01*
X0256905Y0220938D01*
X0256905Y0220322D02*
X0259457Y0220322D01*
X0259457Y0220526D02*
X0256905Y0220526D01*
X0256905Y0220730D02*
X0259457Y0220730D01*
X0259457Y0220934D02*
X0256905Y0220934D01*
X0256905Y0222906D02*
X0259457Y0222906D01*
X0259457Y0222086D01*
X0256905Y0222086D01*
X0256905Y0222906D01*
X0256905Y0222290D02*
X0259457Y0222290D01*
X0259457Y0222494D02*
X0256905Y0222494D01*
X0256905Y0222698D02*
X0259457Y0222698D01*
X0259457Y0222902D02*
X0256905Y0222902D01*
X0261150Y0223779D02*
X0261150Y0226331D01*
X0261150Y0223779D02*
X0260330Y0223779D01*
X0260330Y0226331D01*
X0261150Y0226331D01*
X0261150Y0223983D02*
X0260330Y0223983D01*
X0260330Y0224187D02*
X0261150Y0224187D01*
X0261150Y0224391D02*
X0260330Y0224391D01*
X0260330Y0224595D02*
X0261150Y0224595D01*
X0261150Y0224799D02*
X0260330Y0224799D01*
X0260330Y0225003D02*
X0261150Y0225003D01*
X0261150Y0225207D02*
X0260330Y0225207D01*
X0260330Y0225411D02*
X0261150Y0225411D01*
X0261150Y0225615D02*
X0260330Y0225615D01*
X0260330Y0225819D02*
X0261150Y0225819D01*
X0261150Y0226023D02*
X0260330Y0226023D01*
X0260330Y0226227D02*
X0261150Y0226227D01*
X0263119Y0226331D02*
X0263119Y0223779D01*
X0262299Y0223779D01*
X0262299Y0226331D01*
X0263119Y0226331D01*
X0263119Y0223983D02*
X0262299Y0223983D01*
X0262299Y0224187D02*
X0263119Y0224187D01*
X0263119Y0224391D02*
X0262299Y0224391D01*
X0262299Y0224595D02*
X0263119Y0224595D01*
X0263119Y0224799D02*
X0262299Y0224799D01*
X0262299Y0225003D02*
X0263119Y0225003D01*
X0263119Y0225207D02*
X0262299Y0225207D01*
X0262299Y0225411D02*
X0263119Y0225411D01*
X0263119Y0225615D02*
X0262299Y0225615D01*
X0262299Y0225819D02*
X0263119Y0225819D01*
X0263119Y0226023D02*
X0262299Y0226023D01*
X0262299Y0226227D02*
X0263119Y0226227D01*
X0265087Y0226331D02*
X0265087Y0223779D01*
X0264267Y0223779D01*
X0264267Y0226331D01*
X0265087Y0226331D01*
X0265087Y0223983D02*
X0264267Y0223983D01*
X0264267Y0224187D02*
X0265087Y0224187D01*
X0265087Y0224391D02*
X0264267Y0224391D01*
X0264267Y0224595D02*
X0265087Y0224595D01*
X0265087Y0224799D02*
X0264267Y0224799D01*
X0264267Y0225003D02*
X0265087Y0225003D01*
X0265087Y0225207D02*
X0264267Y0225207D01*
X0264267Y0225411D02*
X0265087Y0225411D01*
X0265087Y0225615D02*
X0264267Y0225615D01*
X0264267Y0225819D02*
X0265087Y0225819D01*
X0265087Y0226023D02*
X0264267Y0226023D01*
X0264267Y0226227D02*
X0265087Y0226227D01*
D25*
X0278457Y0225055D03*
D26*
X0270543Y0216551D02*
X0270543Y0214661D01*
X0268653Y0214661D01*
X0268653Y0216551D01*
X0270543Y0216551D01*
X0270543Y0215132D02*
X0268653Y0215132D01*
X0268653Y0215603D02*
X0270543Y0215603D01*
X0270543Y0216074D02*
X0268653Y0216074D01*
X0268653Y0216545D02*
X0270543Y0216545D01*
D27*
X0269598Y0215606D03*
D28*
X0250252Y0131630D03*
D29*
X0256059Y0131630D03*
X0256059Y0133598D03*
X0256059Y0135567D03*
X0256059Y0129661D03*
X0256059Y0127693D03*
X0244445Y0127693D03*
X0244445Y0129661D03*
X0244445Y0131630D03*
X0244445Y0133598D03*
X0244445Y0135567D03*
D30*
X0367437Y0180472D03*
X0372437Y0180372D03*
X0377437Y0180372D03*
X0382437Y0180372D03*
X0382437Y0202572D03*
X0377437Y0202572D03*
X0372437Y0202572D03*
X0367437Y0202572D03*
D31*
X0359661Y0236039D03*
X0320291Y0236039D03*
D32*
X0355134Y0203362D03*
X0355134Y0189189D03*
D33*
X0330677Y0194016D03*
X0330677Y0168661D03*
X0406701Y0182496D03*
X0406701Y0207850D03*
D34*
G36*
X0461591Y0117049D02*
X0465127Y0113513D01*
X0455663Y0104049D01*
X0452127Y0107585D01*
X0461591Y0117049D01*
G37*
G36*
X0476290Y0117605D02*
X0479826Y0114069D01*
X0470362Y0104605D01*
X0466826Y0108141D01*
X0476290Y0117605D01*
G37*
G36*
X0475733Y0102906D02*
X0479269Y0099370D01*
X0469805Y0089906D01*
X0466269Y0093442D01*
X0475733Y0102906D01*
G37*
G36*
X0490432Y0103463D02*
X0493968Y0099927D01*
X0484504Y0090463D01*
X0480968Y0093999D01*
X0490432Y0103463D01*
G37*
G36*
X0761568Y0097133D02*
X0758032Y0093597D01*
X0748568Y0103061D01*
X0752104Y0106597D01*
X0761568Y0097133D01*
G37*
G36*
X0776267Y0096577D02*
X0772731Y0093041D01*
X0763267Y0102505D01*
X0766803Y0106041D01*
X0776267Y0096577D01*
G37*
G36*
X0762125Y0082434D02*
X0758589Y0078898D01*
X0749125Y0088362D01*
X0752661Y0091898D01*
X0762125Y0082434D01*
G37*
G36*
X0775710Y0111275D02*
X0772174Y0107739D01*
X0762710Y0117203D01*
X0766246Y0120739D01*
X0775710Y0111275D01*
G37*
X0663087Y0303087D03*
X0673087Y0313874D03*
X0653087Y0313874D03*
X0643087Y0303087D03*
D35*
X0333283Y0276984D03*
D36*
X0333283Y0300606D03*
D37*
X0315567Y0304528D03*
X0351000Y0304528D03*
D38*
X0234858Y0094071D03*
X0234858Y0074071D03*
D39*
X0216748Y0076984D03*
D40*
X0105871Y0092755D02*
X0105271Y0092155D01*
X0105271Y0094143D01*
X0106676Y0095548D01*
X0108664Y0095548D01*
X0110069Y0094143D01*
X0110069Y0092155D01*
X0108664Y0090750D01*
X0106676Y0090750D01*
X0105271Y0092155D01*
X0106171Y0092528D01*
X0106171Y0093770D01*
X0107049Y0094648D01*
X0108291Y0094648D01*
X0109169Y0093770D01*
X0109169Y0092528D01*
X0108291Y0091650D01*
X0107049Y0091650D01*
X0106171Y0092528D01*
X0107071Y0092901D01*
X0107071Y0093397D01*
X0107422Y0093748D01*
X0107918Y0093748D01*
X0108269Y0093397D01*
X0108269Y0092901D01*
X0107918Y0092550D01*
X0107422Y0092550D01*
X0107071Y0092901D01*
X0098800Y0099826D02*
X0098200Y0099226D01*
X0098200Y0101214D01*
X0099605Y0102619D01*
X0101593Y0102619D01*
X0102998Y0101214D01*
X0102998Y0099226D01*
X0101593Y0097821D01*
X0099605Y0097821D01*
X0098200Y0099226D01*
X0099100Y0099599D01*
X0099100Y0100841D01*
X0099978Y0101719D01*
X0101220Y0101719D01*
X0102098Y0100841D01*
X0102098Y0099599D01*
X0101220Y0098721D01*
X0099978Y0098721D01*
X0099100Y0099599D01*
X0100000Y0099972D01*
X0100000Y0100468D01*
X0100351Y0100819D01*
X0100847Y0100819D01*
X0101198Y0100468D01*
X0101198Y0099972D01*
X0100847Y0099621D01*
X0100351Y0099621D01*
X0100000Y0099972D01*
X0091728Y0106897D02*
X0091128Y0106297D01*
X0091128Y0108285D01*
X0092533Y0109690D01*
X0094521Y0109690D01*
X0095926Y0108285D01*
X0095926Y0106297D01*
X0094521Y0104892D01*
X0092533Y0104892D01*
X0091128Y0106297D01*
X0092028Y0106670D01*
X0092028Y0107912D01*
X0092906Y0108790D01*
X0094148Y0108790D01*
X0095026Y0107912D01*
X0095026Y0106670D01*
X0094148Y0105792D01*
X0092906Y0105792D01*
X0092028Y0106670D01*
X0092928Y0107043D01*
X0092928Y0107539D01*
X0093279Y0107890D01*
X0093775Y0107890D01*
X0094126Y0107539D01*
X0094126Y0107043D01*
X0093775Y0106692D01*
X0093279Y0106692D01*
X0092928Y0107043D01*
X0084657Y0113968D02*
X0084057Y0113368D01*
X0084057Y0115356D01*
X0085462Y0116761D01*
X0087450Y0116761D01*
X0088855Y0115356D01*
X0088855Y0113368D01*
X0087450Y0111963D01*
X0085462Y0111963D01*
X0084057Y0113368D01*
X0084957Y0113741D01*
X0084957Y0114983D01*
X0085835Y0115861D01*
X0087077Y0115861D01*
X0087955Y0114983D01*
X0087955Y0113741D01*
X0087077Y0112863D01*
X0085835Y0112863D01*
X0084957Y0113741D01*
X0085857Y0114114D01*
X0085857Y0114610D01*
X0086208Y0114961D01*
X0086704Y0114961D01*
X0087055Y0114610D01*
X0087055Y0114114D01*
X0086704Y0113763D01*
X0086208Y0113763D01*
X0085857Y0114114D01*
X0375432Y0091011D02*
X0374832Y0091611D01*
X0376820Y0091611D01*
X0378225Y0090206D01*
X0378225Y0088218D01*
X0376820Y0086813D01*
X0374832Y0086813D01*
X0373427Y0088218D01*
X0373427Y0090206D01*
X0374832Y0091611D01*
X0375205Y0090711D01*
X0376447Y0090711D01*
X0377325Y0089833D01*
X0377325Y0088591D01*
X0376447Y0087713D01*
X0375205Y0087713D01*
X0374327Y0088591D01*
X0374327Y0089833D01*
X0375205Y0090711D01*
X0375578Y0089811D01*
X0376074Y0089811D01*
X0376425Y0089460D01*
X0376425Y0088964D01*
X0376074Y0088613D01*
X0375578Y0088613D01*
X0375227Y0088964D01*
X0375227Y0089460D01*
X0375578Y0089811D01*
X0382504Y0098082D02*
X0381904Y0098682D01*
X0383892Y0098682D01*
X0385297Y0097277D01*
X0385297Y0095289D01*
X0383892Y0093884D01*
X0381904Y0093884D01*
X0380499Y0095289D01*
X0380499Y0097277D01*
X0381904Y0098682D01*
X0382277Y0097782D01*
X0383519Y0097782D01*
X0384397Y0096904D01*
X0384397Y0095662D01*
X0383519Y0094784D01*
X0382277Y0094784D01*
X0381399Y0095662D01*
X0381399Y0096904D01*
X0382277Y0097782D01*
X0382650Y0096882D01*
X0383146Y0096882D01*
X0383497Y0096531D01*
X0383497Y0096035D01*
X0383146Y0095684D01*
X0382650Y0095684D01*
X0382299Y0096035D01*
X0382299Y0096531D01*
X0382650Y0096882D01*
X0389575Y0105153D02*
X0388975Y0105753D01*
X0390963Y0105753D01*
X0392368Y0104348D01*
X0392368Y0102360D01*
X0390963Y0100955D01*
X0388975Y0100955D01*
X0387570Y0102360D01*
X0387570Y0104348D01*
X0388975Y0105753D01*
X0389348Y0104853D01*
X0390590Y0104853D01*
X0391468Y0103975D01*
X0391468Y0102733D01*
X0390590Y0101855D01*
X0389348Y0101855D01*
X0388470Y0102733D01*
X0388470Y0103975D01*
X0389348Y0104853D01*
X0389721Y0103953D01*
X0390217Y0103953D01*
X0390568Y0103602D01*
X0390568Y0103106D01*
X0390217Y0102755D01*
X0389721Y0102755D01*
X0389370Y0103106D01*
X0389370Y0103602D01*
X0389721Y0103953D01*
X0396646Y0112224D02*
X0396046Y0112824D01*
X0398034Y0112824D01*
X0399439Y0111419D01*
X0399439Y0109431D01*
X0398034Y0108026D01*
X0396046Y0108026D01*
X0394641Y0109431D01*
X0394641Y0111419D01*
X0396046Y0112824D01*
X0396419Y0111924D01*
X0397661Y0111924D01*
X0398539Y0111046D01*
X0398539Y0109804D01*
X0397661Y0108926D01*
X0396419Y0108926D01*
X0395541Y0109804D01*
X0395541Y0111046D01*
X0396419Y0111924D01*
X0396792Y0111024D01*
X0397288Y0111024D01*
X0397639Y0110673D01*
X0397639Y0110177D01*
X0397288Y0109826D01*
X0396792Y0109826D01*
X0396441Y0110177D01*
X0396441Y0110673D01*
X0396792Y0111024D01*
D41*
X0288795Y0162417D03*
X0206118Y0232102D03*
X0410055Y0237614D03*
X0410449Y0260055D03*
D42*
X0417348Y0260071D02*
X0423835Y0260071D01*
X0423835Y0260857D02*
X0417348Y0260857D01*
X0417348Y0261643D02*
X0423835Y0261643D01*
X0423835Y0262428D02*
X0417348Y0262428D01*
X0417348Y0262913D02*
X0413307Y0266954D01*
X0407591Y0266954D01*
X0403550Y0262913D01*
X0403550Y0257197D01*
X0407591Y0253156D01*
X0413307Y0253156D01*
X0417348Y0257197D01*
X0417348Y0262913D01*
X0417047Y0263214D02*
X0423835Y0263214D01*
X0423835Y0264000D02*
X0416261Y0264000D01*
X0415475Y0264786D02*
X0423406Y0264786D01*
X0423835Y0264358D02*
X0423835Y0200213D01*
X0388402Y0200213D01*
X0388402Y0208087D01*
X0379461Y0208087D01*
X0379461Y0208556D01*
X0378241Y0209776D01*
X0376515Y0209776D01*
X0375295Y0208556D01*
X0375295Y0208087D01*
X0372260Y0208087D01*
X0372260Y0221866D01*
X0381709Y0221866D01*
X0381709Y0265173D01*
X0321472Y0265173D01*
X0321472Y0288795D01*
X0382356Y0288795D01*
X0382026Y0288465D01*
X0380528Y0284848D01*
X0380528Y0280932D01*
X0382026Y0277314D01*
X0384795Y0274546D01*
X0388412Y0273047D01*
X0392328Y0273047D01*
X0395945Y0274546D01*
X0398714Y0277314D01*
X0400213Y0280932D01*
X0400213Y0284848D01*
X0398714Y0288465D01*
X0398384Y0288795D01*
X0399397Y0288795D01*
X0423835Y0264358D01*
X0422620Y0265572D02*
X0414689Y0265572D01*
X0413903Y0266358D02*
X0421834Y0266358D01*
X0421049Y0267144D02*
X0321472Y0267144D01*
X0321472Y0267930D02*
X0420263Y0267930D01*
X0419477Y0268716D02*
X0321472Y0268716D01*
X0321472Y0269502D02*
X0418691Y0269502D01*
X0417905Y0270288D02*
X0321472Y0270288D01*
X0321472Y0271073D02*
X0417119Y0271073D01*
X0416333Y0271859D02*
X0321472Y0271859D01*
X0321472Y0272645D02*
X0415547Y0272645D01*
X0414761Y0273431D02*
X0393255Y0273431D01*
X0395152Y0274217D02*
X0413975Y0274217D01*
X0413189Y0275003D02*
X0396403Y0275003D01*
X0397189Y0275789D02*
X0412404Y0275789D01*
X0411618Y0276575D02*
X0397975Y0276575D01*
X0398733Y0277361D02*
X0410832Y0277361D01*
X0410046Y0278147D02*
X0399059Y0278147D01*
X0399384Y0278933D02*
X0409260Y0278933D01*
X0408474Y0279719D02*
X0399710Y0279719D01*
X0400035Y0280504D02*
X0407688Y0280504D01*
X0406902Y0281290D02*
X0400213Y0281290D01*
X0400213Y0282076D02*
X0406116Y0282076D01*
X0405330Y0282862D02*
X0400213Y0282862D01*
X0400213Y0283648D02*
X0404544Y0283648D01*
X0403759Y0284434D02*
X0400213Y0284434D01*
X0400058Y0285220D02*
X0402973Y0285220D01*
X0402187Y0286006D02*
X0399733Y0286006D01*
X0399407Y0286792D02*
X0401401Y0286792D01*
X0400615Y0287578D02*
X0399082Y0287578D01*
X0398756Y0288364D02*
X0399829Y0288364D01*
X0381984Y0288364D02*
X0321472Y0288364D01*
X0321472Y0287578D02*
X0381658Y0287578D01*
X0381333Y0286792D02*
X0321472Y0286792D01*
X0321472Y0286006D02*
X0381007Y0286006D01*
X0380682Y0285220D02*
X0321472Y0285220D01*
X0321472Y0284434D02*
X0380528Y0284434D01*
X0380528Y0283648D02*
X0321472Y0283648D01*
X0321472Y0282862D02*
X0380528Y0282862D01*
X0380528Y0282076D02*
X0321472Y0282076D01*
X0321472Y0281290D02*
X0380528Y0281290D01*
X0380705Y0280504D02*
X0321472Y0280504D01*
X0321472Y0279719D02*
X0381030Y0279719D01*
X0381356Y0278933D02*
X0321472Y0278933D01*
X0321472Y0278147D02*
X0381681Y0278147D01*
X0382007Y0277361D02*
X0321472Y0277361D01*
X0321472Y0276575D02*
X0382766Y0276575D01*
X0383551Y0275789D02*
X0321472Y0275789D01*
X0321472Y0275003D02*
X0384337Y0275003D01*
X0385588Y0274217D02*
X0321472Y0274217D01*
X0321472Y0273431D02*
X0387485Y0273431D01*
X0381709Y0264786D02*
X0405423Y0264786D01*
X0404637Y0264000D02*
X0381709Y0264000D01*
X0381709Y0263214D02*
X0403851Y0263214D01*
X0403550Y0262428D02*
X0381709Y0262428D01*
X0381709Y0261643D02*
X0403550Y0261643D01*
X0403550Y0260857D02*
X0381709Y0260857D01*
X0381709Y0260071D02*
X0403550Y0260071D01*
X0403550Y0259285D02*
X0381709Y0259285D01*
X0381709Y0258499D02*
X0403550Y0258499D01*
X0403550Y0257713D02*
X0381709Y0257713D01*
X0381709Y0256927D02*
X0403820Y0256927D01*
X0404606Y0256141D02*
X0381709Y0256141D01*
X0381709Y0255355D02*
X0405392Y0255355D01*
X0406178Y0254569D02*
X0381709Y0254569D01*
X0381709Y0253783D02*
X0406964Y0253783D01*
X0413934Y0253783D02*
X0423835Y0253783D01*
X0423835Y0252997D02*
X0381709Y0252997D01*
X0381709Y0252212D02*
X0423835Y0252212D01*
X0423835Y0251426D02*
X0381709Y0251426D01*
X0381709Y0250640D02*
X0423835Y0250640D01*
X0423835Y0249854D02*
X0381709Y0249854D01*
X0381709Y0249068D02*
X0423835Y0249068D01*
X0423835Y0248282D02*
X0381709Y0248282D01*
X0381709Y0247496D02*
X0423835Y0247496D01*
X0423835Y0246710D02*
X0381709Y0246710D01*
X0381709Y0245924D02*
X0423835Y0245924D01*
X0423835Y0245138D02*
X0381709Y0245138D01*
X0381709Y0244352D02*
X0407036Y0244352D01*
X0407197Y0244513D02*
X0403156Y0240472D01*
X0403156Y0234756D01*
X0407197Y0230715D01*
X0412913Y0230715D01*
X0416954Y0234756D01*
X0416954Y0240472D01*
X0412913Y0244513D01*
X0407197Y0244513D01*
X0406251Y0243567D02*
X0381709Y0243567D01*
X0381709Y0242781D02*
X0405465Y0242781D01*
X0404679Y0241995D02*
X0381709Y0241995D01*
X0381709Y0241209D02*
X0403893Y0241209D01*
X0403156Y0240423D02*
X0381709Y0240423D01*
X0381709Y0239637D02*
X0403156Y0239637D01*
X0403156Y0238851D02*
X0381709Y0238851D01*
X0381709Y0238065D02*
X0403156Y0238065D01*
X0403156Y0237279D02*
X0381709Y0237279D01*
X0381709Y0236493D02*
X0403156Y0236493D01*
X0403156Y0235707D02*
X0381709Y0235707D01*
X0381709Y0234921D02*
X0403156Y0234921D01*
X0403777Y0234136D02*
X0381709Y0234136D01*
X0381709Y0233350D02*
X0404563Y0233350D01*
X0405349Y0232564D02*
X0381709Y0232564D01*
X0381709Y0231778D02*
X0406134Y0231778D01*
X0406920Y0230992D02*
X0381709Y0230992D01*
X0381709Y0230206D02*
X0423835Y0230206D01*
X0423835Y0230992D02*
X0413190Y0230992D01*
X0413976Y0231778D02*
X0423835Y0231778D01*
X0423835Y0232564D02*
X0414762Y0232564D01*
X0415548Y0233350D02*
X0423835Y0233350D01*
X0423835Y0234136D02*
X0416333Y0234136D01*
X0416954Y0234921D02*
X0423835Y0234921D01*
X0423835Y0235707D02*
X0416954Y0235707D01*
X0416954Y0236493D02*
X0423835Y0236493D01*
X0423835Y0237279D02*
X0416954Y0237279D01*
X0416954Y0238065D02*
X0423835Y0238065D01*
X0423835Y0238851D02*
X0416954Y0238851D01*
X0416954Y0239637D02*
X0423835Y0239637D01*
X0423835Y0240423D02*
X0416954Y0240423D01*
X0416217Y0241209D02*
X0423835Y0241209D01*
X0423835Y0241995D02*
X0415432Y0241995D01*
X0414646Y0242781D02*
X0423835Y0242781D01*
X0423835Y0243567D02*
X0413860Y0243567D01*
X0413074Y0244352D02*
X0423835Y0244352D01*
X0423835Y0254569D02*
X0414720Y0254569D01*
X0415506Y0255355D02*
X0423835Y0255355D01*
X0423835Y0256141D02*
X0416292Y0256141D01*
X0417078Y0256927D02*
X0423835Y0256927D01*
X0423835Y0257713D02*
X0417348Y0257713D01*
X0417348Y0258499D02*
X0423835Y0258499D01*
X0423835Y0259285D02*
X0417348Y0259285D01*
X0406995Y0266358D02*
X0321472Y0266358D01*
X0321472Y0265572D02*
X0406209Y0265572D01*
X0369110Y0250213D02*
X0369110Y0208087D01*
X0363992Y0208087D01*
X0363992Y0199031D01*
X0349031Y0199031D01*
X0349031Y0250213D01*
X0369110Y0250213D01*
X0369110Y0249854D02*
X0349031Y0249854D01*
X0349031Y0249068D02*
X0369110Y0249068D01*
X0369110Y0248282D02*
X0349031Y0248282D01*
X0349031Y0247496D02*
X0369110Y0247496D01*
X0369110Y0246710D02*
X0349031Y0246710D01*
X0349031Y0245924D02*
X0369110Y0245924D01*
X0369110Y0245138D02*
X0349031Y0245138D01*
X0349031Y0244352D02*
X0369110Y0244352D01*
X0369110Y0243567D02*
X0349031Y0243567D01*
X0349031Y0242781D02*
X0369110Y0242781D01*
X0369110Y0241995D02*
X0349031Y0241995D01*
X0349031Y0241209D02*
X0369110Y0241209D01*
X0369110Y0240423D02*
X0349031Y0240423D01*
X0349031Y0239637D02*
X0369110Y0239637D01*
X0369110Y0238851D02*
X0349031Y0238851D01*
X0349031Y0238065D02*
X0369110Y0238065D01*
X0369110Y0237279D02*
X0349031Y0237279D01*
X0349031Y0236493D02*
X0369110Y0236493D01*
X0369110Y0235707D02*
X0349031Y0235707D01*
X0349031Y0234921D02*
X0369110Y0234921D01*
X0369110Y0234136D02*
X0349031Y0234136D01*
X0349031Y0233350D02*
X0369110Y0233350D01*
X0369110Y0232564D02*
X0349031Y0232564D01*
X0349031Y0231778D02*
X0369110Y0231778D01*
X0369110Y0230992D02*
X0349031Y0230992D01*
X0349031Y0230206D02*
X0369110Y0230206D01*
X0369110Y0229420D02*
X0349031Y0229420D01*
X0349031Y0228634D02*
X0369110Y0228634D01*
X0369110Y0227848D02*
X0349031Y0227848D01*
X0349031Y0227062D02*
X0369110Y0227062D01*
X0369110Y0226276D02*
X0349031Y0226276D01*
X0349031Y0225491D02*
X0369110Y0225491D01*
X0369110Y0224705D02*
X0349031Y0224705D01*
X0349031Y0223919D02*
X0369110Y0223919D01*
X0369110Y0223133D02*
X0349031Y0223133D01*
X0349031Y0222347D02*
X0369110Y0222347D01*
X0369110Y0221561D02*
X0349031Y0221561D01*
X0349031Y0220775D02*
X0369110Y0220775D01*
X0369110Y0219989D02*
X0349031Y0219989D01*
X0349031Y0219203D02*
X0369110Y0219203D01*
X0369110Y0218417D02*
X0349031Y0218417D01*
X0349031Y0217631D02*
X0369110Y0217631D01*
X0369110Y0216845D02*
X0349031Y0216845D01*
X0349031Y0216060D02*
X0369110Y0216060D01*
X0369110Y0215274D02*
X0349031Y0215274D01*
X0349031Y0214488D02*
X0369110Y0214488D01*
X0369110Y0213702D02*
X0349031Y0213702D01*
X0349031Y0212916D02*
X0369110Y0212916D01*
X0369110Y0212130D02*
X0349031Y0212130D01*
X0349031Y0211344D02*
X0369110Y0211344D01*
X0369110Y0210558D02*
X0349031Y0210558D01*
X0349031Y0209772D02*
X0369110Y0209772D01*
X0369110Y0208986D02*
X0349031Y0208986D01*
X0349031Y0208200D02*
X0369110Y0208200D01*
X0372260Y0208200D02*
X0375295Y0208200D01*
X0375726Y0208986D02*
X0372260Y0208986D01*
X0372260Y0209772D02*
X0376512Y0209772D01*
X0378244Y0209772D02*
X0423835Y0209772D01*
X0423835Y0208986D02*
X0379030Y0208986D01*
X0379461Y0208200D02*
X0423835Y0208200D01*
X0423835Y0207415D02*
X0388402Y0207415D01*
X0388402Y0206629D02*
X0423835Y0206629D01*
X0423835Y0205843D02*
X0388402Y0205843D01*
X0388402Y0205057D02*
X0423835Y0205057D01*
X0423835Y0204271D02*
X0388402Y0204271D01*
X0388402Y0203485D02*
X0423835Y0203485D01*
X0423835Y0202699D02*
X0388402Y0202699D01*
X0388402Y0201913D02*
X0423835Y0201913D01*
X0423835Y0201127D02*
X0388402Y0201127D01*
X0388402Y0200341D02*
X0423835Y0200341D01*
X0426197Y0195685D02*
X0426197Y0142732D01*
X0331709Y0142732D01*
X0314386Y0160055D01*
X0314386Y0182496D01*
X0347063Y0182496D01*
X0347063Y0195685D01*
X0352582Y0195685D01*
X0352461Y0195563D01*
X0352461Y0193838D01*
X0353681Y0192618D01*
X0355406Y0192618D01*
X0356626Y0193838D01*
X0356626Y0195563D01*
X0356504Y0195685D01*
X0362818Y0195685D01*
X0362697Y0195563D01*
X0362697Y0193838D01*
X0363917Y0192618D01*
X0365642Y0192618D01*
X0366862Y0193838D01*
X0366862Y0195563D01*
X0366741Y0195685D01*
X0369118Y0195685D01*
X0368602Y0195170D01*
X0368602Y0193444D01*
X0369822Y0192224D01*
X0370381Y0192224D01*
X0369390Y0191233D01*
X0369390Y0189507D01*
X0370610Y0188287D01*
X0372335Y0188287D01*
X0373555Y0189507D01*
X0373555Y0191233D01*
X0372335Y0192453D01*
X0371776Y0192453D01*
X0372768Y0193444D01*
X0372768Y0195170D01*
X0372252Y0195685D01*
X0375400Y0195685D01*
X0375400Y0194093D01*
X0375295Y0193989D01*
X0375295Y0192263D01*
X0375400Y0192159D01*
X0375400Y0189369D01*
X0375295Y0189264D01*
X0375295Y0187539D01*
X0376515Y0186319D01*
X0378241Y0186319D01*
X0379461Y0187539D01*
X0379461Y0189264D01*
X0379356Y0189369D01*
X0379356Y0192159D01*
X0379461Y0192263D01*
X0379461Y0193989D01*
X0379356Y0194093D01*
X0379356Y0195685D01*
X0426197Y0195685D01*
X0426197Y0195626D02*
X0379356Y0195626D01*
X0379356Y0194840D02*
X0426197Y0194840D01*
X0426197Y0194054D02*
X0379395Y0194054D01*
X0379461Y0193268D02*
X0426197Y0193268D01*
X0426197Y0192482D02*
X0379461Y0192482D01*
X0379356Y0191696D02*
X0426197Y0191696D01*
X0426197Y0190910D02*
X0379356Y0190910D01*
X0379356Y0190124D02*
X0426197Y0190124D01*
X0426197Y0189339D02*
X0379386Y0189339D01*
X0379461Y0188553D02*
X0426197Y0188553D01*
X0426197Y0187767D02*
X0379461Y0187767D01*
X0378903Y0186981D02*
X0426197Y0186981D01*
X0426197Y0186195D02*
X0347063Y0186195D01*
X0347063Y0186981D02*
X0364042Y0186981D01*
X0363484Y0187539D02*
X0364704Y0186319D01*
X0366430Y0186319D01*
X0367650Y0187539D01*
X0367650Y0189264D01*
X0366430Y0190484D01*
X0364704Y0190484D01*
X0363484Y0189264D01*
X0363484Y0187539D01*
X0363484Y0187767D02*
X0347063Y0187767D01*
X0347063Y0188553D02*
X0363484Y0188553D01*
X0363559Y0189339D02*
X0361969Y0189339D01*
X0361705Y0189075D02*
X0362925Y0190295D01*
X0362925Y0192020D01*
X0361705Y0193240D01*
X0359980Y0193240D01*
X0358760Y0192020D01*
X0358760Y0190295D01*
X0359980Y0189075D01*
X0361705Y0189075D01*
X0362755Y0190124D02*
X0364344Y0190124D01*
X0362925Y0190910D02*
X0369390Y0190910D01*
X0369390Y0190124D02*
X0366789Y0190124D01*
X0367575Y0189339D02*
X0369559Y0189339D01*
X0370345Y0188553D02*
X0367650Y0188553D01*
X0367650Y0187767D02*
X0375295Y0187767D01*
X0375295Y0188553D02*
X0372600Y0188553D01*
X0373386Y0189339D02*
X0375370Y0189339D01*
X0375400Y0190124D02*
X0373555Y0190124D01*
X0373555Y0190910D02*
X0375400Y0190910D01*
X0375400Y0191696D02*
X0373092Y0191696D01*
X0371805Y0192482D02*
X0375295Y0192482D01*
X0375295Y0193268D02*
X0372591Y0193268D01*
X0372768Y0194054D02*
X0375361Y0194054D01*
X0375400Y0194840D02*
X0372768Y0194840D01*
X0372312Y0195626D02*
X0375400Y0195626D01*
X0369058Y0195626D02*
X0366800Y0195626D01*
X0366862Y0194840D02*
X0368602Y0194840D01*
X0368602Y0194054D02*
X0366862Y0194054D01*
X0366292Y0193268D02*
X0368779Y0193268D01*
X0369565Y0192482D02*
X0362463Y0192482D01*
X0362925Y0191696D02*
X0369853Y0191696D01*
X0367091Y0186981D02*
X0375853Y0186981D01*
X0363267Y0193268D02*
X0356056Y0193268D01*
X0356626Y0194054D02*
X0362697Y0194054D01*
X0362697Y0194840D02*
X0356626Y0194840D01*
X0356564Y0195626D02*
X0362759Y0195626D01*
X0363992Y0199555D02*
X0349031Y0199555D01*
X0349031Y0200341D02*
X0363992Y0200341D01*
X0363992Y0201127D02*
X0349031Y0201127D01*
X0349031Y0201913D02*
X0363992Y0201913D01*
X0363992Y0202699D02*
X0349031Y0202699D01*
X0349031Y0203485D02*
X0363992Y0203485D01*
X0363992Y0204271D02*
X0349031Y0204271D01*
X0349031Y0205057D02*
X0363992Y0205057D01*
X0363992Y0205843D02*
X0349031Y0205843D01*
X0349031Y0206629D02*
X0363992Y0206629D01*
X0363992Y0207415D02*
X0349031Y0207415D01*
X0344110Y0204150D02*
X0344110Y0185449D01*
X0306709Y0185449D01*
X0306709Y0250409D01*
X0333283Y0250409D01*
X0333283Y0214976D01*
X0344110Y0204150D01*
X0343989Y0204271D02*
X0306709Y0204271D01*
X0306709Y0205057D02*
X0343203Y0205057D01*
X0342417Y0205843D02*
X0306709Y0205843D01*
X0306709Y0206629D02*
X0341631Y0206629D01*
X0340845Y0207415D02*
X0306709Y0207415D01*
X0306709Y0208200D02*
X0340059Y0208200D01*
X0339273Y0208986D02*
X0306709Y0208986D01*
X0306709Y0209772D02*
X0338488Y0209772D01*
X0337702Y0210558D02*
X0306709Y0210558D01*
X0306709Y0211344D02*
X0336916Y0211344D01*
X0336130Y0212130D02*
X0306709Y0212130D01*
X0306709Y0212916D02*
X0335344Y0212916D01*
X0334558Y0213702D02*
X0306709Y0213702D01*
X0306709Y0214488D02*
X0333772Y0214488D01*
X0333283Y0215274D02*
X0306709Y0215274D01*
X0306709Y0216060D02*
X0333283Y0216060D01*
X0333283Y0216845D02*
X0306709Y0216845D01*
X0306709Y0217631D02*
X0333283Y0217631D01*
X0333283Y0218417D02*
X0306709Y0218417D01*
X0306709Y0219203D02*
X0333283Y0219203D01*
X0333283Y0219989D02*
X0306709Y0219989D01*
X0306709Y0220775D02*
X0333283Y0220775D01*
X0333283Y0221561D02*
X0306709Y0221561D01*
X0306709Y0222347D02*
X0333283Y0222347D01*
X0333283Y0223133D02*
X0306709Y0223133D01*
X0306709Y0223919D02*
X0333283Y0223919D01*
X0333283Y0224705D02*
X0306709Y0224705D01*
X0306709Y0225491D02*
X0333283Y0225491D01*
X0333283Y0226276D02*
X0306709Y0226276D01*
X0306709Y0227062D02*
X0333283Y0227062D01*
X0333283Y0227848D02*
X0306709Y0227848D01*
X0306709Y0228634D02*
X0333283Y0228634D01*
X0333283Y0229420D02*
X0306709Y0229420D01*
X0306709Y0230206D02*
X0333283Y0230206D01*
X0333283Y0230992D02*
X0306709Y0230992D01*
X0306709Y0231778D02*
X0333283Y0231778D01*
X0333283Y0232564D02*
X0306709Y0232564D01*
X0306709Y0233350D02*
X0333283Y0233350D01*
X0333283Y0234136D02*
X0306709Y0234136D01*
X0306709Y0234921D02*
X0333283Y0234921D01*
X0333283Y0235707D02*
X0306709Y0235707D01*
X0306709Y0236493D02*
X0333283Y0236493D01*
X0333283Y0237279D02*
X0306709Y0237279D01*
X0306709Y0238065D02*
X0333283Y0238065D01*
X0333283Y0238851D02*
X0306709Y0238851D01*
X0306709Y0239637D02*
X0333283Y0239637D01*
X0333283Y0240423D02*
X0306709Y0240423D01*
X0306709Y0241209D02*
X0333283Y0241209D01*
X0333283Y0241995D02*
X0306709Y0241995D01*
X0306709Y0242781D02*
X0333283Y0242781D01*
X0333283Y0243567D02*
X0306709Y0243567D01*
X0306709Y0244352D02*
X0333283Y0244352D01*
X0333283Y0245138D02*
X0306709Y0245138D01*
X0306709Y0245924D02*
X0333283Y0245924D01*
X0333283Y0246710D02*
X0306709Y0246710D01*
X0306709Y0247496D02*
X0333283Y0247496D01*
X0333283Y0248282D02*
X0306709Y0248282D01*
X0306709Y0249068D02*
X0333283Y0249068D01*
X0333283Y0249854D02*
X0306709Y0249854D01*
X0282323Y0235031D02*
X0280265Y0234858D01*
X0276065Y0234858D02*
X0275803Y0234858D01*
X0275916Y0234745D01*
X0275803Y0234858D02*
X0273441Y0234858D01*
X0273441Y0228165D01*
X0274520Y0227087D01*
X0274520Y0225055D01*
X0276488Y0225055D02*
X0276488Y0230134D01*
X0276065Y0230134D01*
X0272054Y0229366D02*
X0268473Y0232947D01*
X0268473Y0233002D01*
X0268473Y0232947D01*
X0268473Y0233002D02*
X0266617Y0234858D01*
X0266506Y0234969D01*
X0266506Y0235621D01*
X0264361Y0237766D01*
X0224076Y0237766D01*
X0219110Y0242732D01*
X0219110Y0245488D01*
X0215961Y0242732D02*
X0216551Y0242142D01*
X0206790Y0232381D01*
X0206748Y0232342D01*
X0206704Y0232305D01*
X0206658Y0232271D01*
X0206609Y0232240D01*
X0206559Y0232212D01*
X0206508Y0232187D01*
X0206455Y0232165D01*
X0206401Y0232146D01*
X0206345Y0232131D01*
X0206289Y0232119D01*
X0206233Y0232110D01*
X0206175Y0232105D01*
X0206118Y0232103D01*
X0216551Y0242142D02*
X0222519Y0236174D01*
X0237614Y0236174D01*
X0258762Y0236174D01*
X0258756Y0234189D02*
X0240062Y0234189D01*
X0237614Y0236039D02*
X0237614Y0236174D01*
X0231906Y0232284D02*
X0225409Y0232284D01*
X0211055Y0217929D01*
X0175266Y0217929D01*
X0171866Y0214529D01*
X0171866Y0194504D01*
X0171868Y0194438D01*
X0171873Y0194372D01*
X0171883Y0194306D01*
X0171896Y0194241D01*
X0171912Y0194177D01*
X0171932Y0194114D01*
X0171956Y0194052D01*
X0171983Y0193992D01*
X0172013Y0193933D01*
X0172047Y0193876D01*
X0172084Y0193821D01*
X0172124Y0193768D01*
X0172166Y0193717D01*
X0172212Y0193669D01*
X0172260Y0193623D01*
X0172311Y0193581D01*
X0172364Y0193541D01*
X0172419Y0193504D01*
X0172476Y0193470D01*
X0172535Y0193440D01*
X0172595Y0193413D01*
X0172657Y0193389D01*
X0172720Y0193369D01*
X0172784Y0193353D01*
X0172849Y0193340D01*
X0172915Y0193330D01*
X0172981Y0193325D01*
X0173047Y0193323D01*
X0183047Y0193323D02*
X0183147Y0193325D01*
X0183246Y0193331D01*
X0183345Y0193340D01*
X0183444Y0193353D01*
X0183542Y0193371D01*
X0183639Y0193391D01*
X0183735Y0193416D01*
X0183831Y0193444D01*
X0183925Y0193476D01*
X0184018Y0193511D01*
X0184110Y0193550D01*
X0184200Y0193593D01*
X0184288Y0193639D01*
X0184375Y0193688D01*
X0184459Y0193740D01*
X0184542Y0193796D01*
X0184622Y0193855D01*
X0184700Y0193917D01*
X0184776Y0193981D01*
X0184849Y0194049D01*
X0184919Y0194119D01*
X0184987Y0194192D01*
X0185051Y0194268D01*
X0185113Y0194346D01*
X0185172Y0194426D01*
X0185228Y0194509D01*
X0185280Y0194593D01*
X0185329Y0194680D01*
X0185375Y0194768D01*
X0185418Y0194858D01*
X0185457Y0194950D01*
X0185492Y0195043D01*
X0185524Y0195137D01*
X0185552Y0195233D01*
X0185577Y0195329D01*
X0185597Y0195426D01*
X0185615Y0195524D01*
X0185628Y0195623D01*
X0185637Y0195722D01*
X0185643Y0195821D01*
X0185645Y0195921D01*
X0185646Y0195921D02*
X0185646Y0214529D01*
X0212694Y0214529D01*
X0228953Y0230788D01*
X0232473Y0228781D02*
X0254937Y0228781D01*
X0258663Y0225055D01*
X0260740Y0225055D01*
X0258181Y0222496D02*
X0253772Y0226906D01*
X0236748Y0226906D01*
X0203165Y0193323D01*
X0203047Y0193323D01*
X0191807Y0192083D02*
X0191807Y0204406D01*
X0198441Y0211039D01*
X0214731Y0211039D01*
X0232473Y0228781D01*
X0242732Y0223246D02*
X0244049Y0224563D01*
X0242732Y0223246D02*
X0242732Y0221551D01*
X0242567Y0221551D01*
X0242732Y0221551D02*
X0242732Y0220685D01*
X0245258Y0220325D02*
X0245258Y0216878D01*
X0246604Y0215531D01*
X0246604Y0207781D01*
X0239104Y0207781D01*
X0239104Y0214947D01*
X0240526Y0214947D01*
X0241689Y0216110D01*
X0241689Y0217753D01*
X0240526Y0218916D01*
X0239104Y0218916D01*
X0239104Y0220281D01*
X0245258Y0220325D01*
X0245258Y0219989D02*
X0239104Y0219989D01*
X0239104Y0219203D02*
X0245258Y0219203D01*
X0245258Y0218417D02*
X0241025Y0218417D01*
X0241689Y0217631D02*
X0245258Y0217631D01*
X0245290Y0216845D02*
X0241689Y0216845D01*
X0241639Y0216060D02*
X0246076Y0216060D01*
X0246604Y0215274D02*
X0240853Y0215274D01*
X0239104Y0214488D02*
X0246604Y0214488D01*
X0246604Y0213702D02*
X0239104Y0213702D01*
X0239104Y0212916D02*
X0246604Y0212916D01*
X0246604Y0212130D02*
X0239104Y0212130D01*
X0239104Y0211344D02*
X0246604Y0211344D01*
X0246604Y0210558D02*
X0239104Y0210558D01*
X0239104Y0209772D02*
X0246604Y0209772D01*
X0246604Y0208986D02*
X0239104Y0208986D01*
X0239104Y0208200D02*
X0246604Y0208200D01*
X0251104Y0208152D02*
X0251104Y0204906D01*
X0254229Y0204906D01*
X0256104Y0206781D01*
X0256104Y0207558D01*
X0255809Y0207853D01*
X0255809Y0209580D01*
X0255930Y0209701D01*
X0255809Y0209822D01*
X0255809Y0211548D01*
X0256452Y0212191D01*
X0256513Y0212191D01*
X0256729Y0212406D01*
X0259229Y0212406D01*
X0259229Y0213031D01*
X0257391Y0213031D01*
X0257097Y0212738D01*
X0253954Y0212738D01*
X0253954Y0208734D01*
X0253372Y0208152D01*
X0251104Y0208152D01*
X0251104Y0207415D02*
X0256104Y0207415D01*
X0255951Y0206629D02*
X0251104Y0206629D01*
X0251104Y0205843D02*
X0255166Y0205843D01*
X0254380Y0205057D02*
X0251104Y0205057D01*
X0253421Y0208200D02*
X0255809Y0208200D01*
X0255809Y0208986D02*
X0253954Y0208986D01*
X0253954Y0209772D02*
X0255859Y0209772D01*
X0255809Y0210558D02*
X0253954Y0210558D01*
X0253954Y0211344D02*
X0255809Y0211344D01*
X0256391Y0212130D02*
X0253954Y0212130D01*
X0257275Y0212916D02*
X0259229Y0212916D01*
X0259014Y0216372D02*
X0256195Y0216372D01*
X0256148Y0216325D01*
X0252344Y0216325D01*
X0252158Y0216139D01*
X0248749Y0216139D01*
X0248253Y0215644D01*
X0247992Y0215639D01*
X0247992Y0216106D01*
X0247179Y0216919D01*
X0247094Y0217004D01*
X0247094Y0218569D01*
X0247205Y0218457D01*
X0251528Y0218457D01*
X0251933Y0218863D01*
X0253045Y0218863D01*
X0254986Y0216922D01*
X0256136Y0216922D01*
X0256214Y0216922D01*
X0256374Y0216762D01*
X0259014Y0216762D01*
X0259014Y0216372D01*
X0259014Y0218309D02*
X0255561Y0218309D01*
X0253620Y0220250D01*
X0247699Y0220250D01*
X0247699Y0223711D01*
X0252112Y0223711D01*
X0255809Y0220019D01*
X0255809Y0219664D01*
X0256452Y0219022D01*
X0256808Y0219022D01*
X0257045Y0218785D01*
X0259014Y0218785D01*
X0259014Y0218309D01*
X0259014Y0218417D02*
X0255453Y0218417D01*
X0254667Y0219203D02*
X0256270Y0219203D01*
X0255809Y0219989D02*
X0253881Y0219989D01*
X0255052Y0220775D02*
X0247699Y0220775D01*
X0247699Y0221561D02*
X0254265Y0221561D01*
X0253478Y0222347D02*
X0247699Y0222347D01*
X0247699Y0223133D02*
X0252691Y0223133D01*
X0253491Y0218417D02*
X0247094Y0218417D01*
X0247094Y0217631D02*
X0254277Y0217631D01*
X0256290Y0216845D02*
X0247252Y0216845D01*
X0247992Y0216060D02*
X0248669Y0216060D01*
X0239704Y0216931D02*
X0231498Y0216931D01*
X0227354Y0212787D01*
X0227354Y0193031D01*
X0222331Y0188008D01*
X0199031Y0188008D01*
X0189583Y0178559D01*
X0178283Y0178559D01*
X0173047Y0173323D01*
X0183047Y0173323D02*
X0193674Y0173323D01*
X0198911Y0178559D01*
X0248638Y0178559D01*
X0257354Y0187276D01*
X0257354Y0193031D01*
X0258677Y0197260D02*
X0253953Y0197260D01*
X0252181Y0195488D01*
X0252181Y0188402D01*
X0247102Y0183323D01*
X0203047Y0183323D01*
X0203559Y0173835D02*
X0250213Y0173835D01*
X0262811Y0186433D01*
X0262811Y0200769D01*
X0262370Y0201210D01*
X0262370Y0202853D01*
X0262709Y0203192D01*
X0262709Y0206157D01*
X0260740Y0206157D02*
X0260740Y0199323D01*
X0258677Y0197260D01*
X0270583Y0202303D02*
X0270854Y0202031D01*
X0270583Y0202303D02*
X0270583Y0206157D01*
X0272551Y0206157D02*
X0272551Y0203585D01*
X0274520Y0204116D02*
X0274520Y0206157D01*
X0276488Y0206157D02*
X0276488Y0204398D01*
X0283261Y0207588D02*
X0283261Y0207727D01*
X0283387Y0207853D01*
X0283387Y0209580D01*
X0283267Y0209701D01*
X0283387Y0209822D01*
X0283387Y0211548D01*
X0283261Y0211675D01*
X0283261Y0212411D01*
X0280183Y0212411D01*
X0280183Y0212888D01*
X0281961Y0212888D01*
X0282111Y0212738D01*
X0285489Y0212738D01*
X0285489Y0209226D01*
X0285839Y0208876D01*
X0285839Y0208693D01*
X0286022Y0208693D01*
X0286071Y0208644D01*
X0290694Y0208644D01*
X0290743Y0208693D01*
X0292974Y0208693D01*
X0292974Y0205014D01*
X0286081Y0205014D01*
X0283261Y0207588D01*
X0283450Y0207415D02*
X0292974Y0207415D01*
X0292974Y0208200D02*
X0283387Y0208200D01*
X0283387Y0208986D02*
X0285728Y0208986D01*
X0285489Y0209772D02*
X0283338Y0209772D01*
X0283387Y0210558D02*
X0285489Y0210558D01*
X0285489Y0211344D02*
X0283387Y0211344D01*
X0283261Y0212130D02*
X0285489Y0212130D01*
X0285795Y0216356D02*
X0280183Y0216356D01*
X0280354Y0216781D01*
X0281604Y0216781D01*
X0281721Y0216904D01*
X0282178Y0216922D01*
X0282726Y0216922D01*
X0282748Y0216943D01*
X0282778Y0216944D01*
X0283151Y0217347D01*
X0283539Y0217734D01*
X0283539Y0217761D01*
X0285014Y0219311D01*
X0285014Y0218961D01*
X0285596Y0218379D01*
X0289919Y0218379D01*
X0290501Y0218961D01*
X0290501Y0219769D01*
X0291354Y0219769D01*
X0291605Y0220020D01*
X0291814Y0220020D01*
X0291814Y0218961D01*
X0292396Y0218379D01*
X0293713Y0218379D01*
X0293713Y0216977D01*
X0293467Y0216731D01*
X0293467Y0216583D01*
X0290743Y0216583D01*
X0290694Y0216631D01*
X0286071Y0216631D01*
X0286022Y0216583D01*
X0285839Y0216583D01*
X0285845Y0216406D01*
X0285795Y0216356D01*
X0285557Y0218417D02*
X0284163Y0218417D01*
X0283436Y0217631D02*
X0293713Y0217631D01*
X0293581Y0216845D02*
X0281665Y0216845D01*
X0282152Y0218309D02*
X0282402Y0218579D01*
X0284854Y0221156D01*
X0290780Y0221156D01*
X0290780Y0225856D01*
X0299904Y0225925D01*
X0299904Y0229050D01*
X0292979Y0229281D01*
X0291729Y0229281D01*
X0290479Y0228031D01*
X0288926Y0228031D01*
X0288926Y0225260D01*
X0288344Y0224678D01*
X0284021Y0224678D01*
X0283604Y0225095D01*
X0283604Y0221781D01*
X0282514Y0220691D01*
X0280183Y0220691D01*
X0280183Y0218309D01*
X0282152Y0218309D01*
X0282252Y0218417D02*
X0280183Y0218417D01*
X0280183Y0219203D02*
X0282996Y0219203D01*
X0283744Y0219989D02*
X0280183Y0219989D01*
X0282598Y0220775D02*
X0284491Y0220775D01*
X0283384Y0221561D02*
X0290780Y0221561D01*
X0290780Y0222347D02*
X0283604Y0222347D01*
X0283604Y0223133D02*
X0290780Y0223133D01*
X0290780Y0223919D02*
X0283604Y0223919D01*
X0283604Y0224705D02*
X0283994Y0224705D01*
X0281016Y0225110D02*
X0281016Y0222496D01*
X0281016Y0225110D02*
X0283677Y0227772D01*
X0286183Y0227772D01*
X0288926Y0227848D02*
X0299904Y0227848D01*
X0299904Y0227062D02*
X0288926Y0227062D01*
X0288926Y0226276D02*
X0299904Y0226276D01*
X0299904Y0228634D02*
X0291082Y0228634D01*
X0290780Y0225491D02*
X0288926Y0225491D01*
X0288371Y0224705D02*
X0290780Y0224705D01*
X0291574Y0219989D02*
X0291814Y0219989D01*
X0291814Y0219203D02*
X0290501Y0219203D01*
X0289958Y0218417D02*
X0292357Y0218417D01*
X0294854Y0216156D02*
X0296104Y0217406D01*
X0301104Y0217406D01*
X0301104Y0208031D01*
X0294854Y0208031D01*
X0294854Y0216156D01*
X0294854Y0216060D02*
X0301104Y0216060D01*
X0301104Y0216845D02*
X0295543Y0216845D01*
X0294854Y0215274D02*
X0301104Y0215274D01*
X0301104Y0214488D02*
X0294854Y0214488D01*
X0294854Y0213702D02*
X0301104Y0213702D01*
X0301104Y0212916D02*
X0294854Y0212916D01*
X0294854Y0212130D02*
X0301104Y0212130D01*
X0301104Y0211344D02*
X0294854Y0211344D01*
X0294854Y0210558D02*
X0301104Y0210558D01*
X0301104Y0209772D02*
X0294854Y0209772D01*
X0294854Y0208986D02*
X0301104Y0208986D01*
X0301104Y0208200D02*
X0294854Y0208200D01*
X0292974Y0206629D02*
X0284311Y0206629D01*
X0285173Y0205843D02*
X0292974Y0205843D01*
X0292974Y0205057D02*
X0286034Y0205057D01*
X0287354Y0193031D02*
X0262646Y0168323D01*
X0188047Y0168323D01*
X0183047Y0163323D01*
X0188205Y0158480D02*
X0237614Y0158480D01*
X0250606Y0145488D01*
X0251000Y0145488D01*
X0251000Y0146813D01*
X0251278Y0146391D01*
X0251278Y0145488D01*
X0251000Y0145488D01*
X0251278Y0145488D02*
X0256059Y0140707D01*
X0256059Y0135567D01*
X0253362Y0135896D02*
X0247457Y0135896D01*
X0247457Y0135111D02*
X0253362Y0135111D01*
X0253362Y0134325D02*
X0247457Y0134325D01*
X0247457Y0133539D02*
X0253362Y0133539D01*
X0253362Y0132753D02*
X0247457Y0132753D01*
X0247457Y0131967D02*
X0253362Y0131967D01*
X0253362Y0131181D02*
X0247457Y0131181D01*
X0247457Y0130395D02*
X0253362Y0130395D01*
X0253362Y0129609D02*
X0241157Y0129609D01*
X0241157Y0129740D02*
X0247457Y0129740D01*
X0247457Y0139583D01*
X0253362Y0139583D01*
X0253362Y0123047D01*
X0253075Y0123047D01*
X0253045Y0123076D01*
X0250057Y0123076D01*
X0250028Y0123047D01*
X0241157Y0123047D01*
X0241157Y0129740D01*
X0241157Y0128823D02*
X0253362Y0128823D01*
X0253362Y0128037D02*
X0241157Y0128037D01*
X0241157Y0127251D02*
X0253362Y0127251D01*
X0253362Y0126466D02*
X0241157Y0126466D01*
X0241157Y0125680D02*
X0253362Y0125680D01*
X0253362Y0124894D02*
X0241157Y0124894D01*
X0241157Y0124108D02*
X0253362Y0124108D01*
X0253362Y0123322D02*
X0241157Y0123322D01*
X0240061Y0131630D02*
X0231959Y0124228D01*
X0227235Y0128953D01*
X0217417Y0128953D01*
X0203047Y0143323D01*
X0203047Y0153323D02*
X0217969Y0138402D01*
X0227235Y0138402D01*
X0231959Y0133677D01*
X0232738Y0133598D01*
X0244445Y0133598D01*
X0244445Y0131630D02*
X0240061Y0131630D01*
X0239892Y0135567D02*
X0232496Y0143663D01*
X0239892Y0135567D02*
X0244445Y0135567D01*
X0247457Y0136682D02*
X0253362Y0136682D01*
X0253362Y0137468D02*
X0247457Y0137468D01*
X0247457Y0138254D02*
X0253362Y0138254D01*
X0253362Y0139040D02*
X0247457Y0139040D01*
X0256059Y0131630D02*
X0290291Y0131630D01*
X0293913Y0135252D01*
X0296197Y0129661D02*
X0256059Y0129661D01*
X0256059Y0127693D02*
X0309976Y0127693D01*
X0317535Y0135252D01*
X0330685Y0143756D02*
X0426197Y0143756D01*
X0426197Y0144541D02*
X0329899Y0144541D01*
X0329114Y0145327D02*
X0426197Y0145327D01*
X0426197Y0146113D02*
X0328328Y0146113D01*
X0327542Y0146899D02*
X0426197Y0146899D01*
X0426197Y0147685D02*
X0326756Y0147685D01*
X0325970Y0148471D02*
X0426197Y0148471D01*
X0426197Y0149257D02*
X0325184Y0149257D01*
X0324398Y0150043D02*
X0426197Y0150043D01*
X0426197Y0150829D02*
X0323612Y0150829D01*
X0322826Y0151615D02*
X0386928Y0151615D01*
X0388412Y0151000D02*
X0392328Y0151000D01*
X0395945Y0152498D01*
X0398714Y0155267D01*
X0400213Y0158885D01*
X0400213Y0162800D01*
X0398714Y0166418D01*
X0395945Y0169187D01*
X0392328Y0170685D01*
X0388412Y0170685D01*
X0384795Y0169187D01*
X0382026Y0166418D01*
X0380528Y0162800D01*
X0380528Y0158885D01*
X0382026Y0155267D01*
X0384795Y0152498D01*
X0388412Y0151000D01*
X0385031Y0152401D02*
X0322040Y0152401D01*
X0321254Y0153187D02*
X0384107Y0153187D01*
X0383321Y0153972D02*
X0320468Y0153972D01*
X0319683Y0154758D02*
X0382535Y0154758D01*
X0381911Y0155544D02*
X0318897Y0155544D01*
X0318111Y0156330D02*
X0381586Y0156330D01*
X0381260Y0157116D02*
X0317325Y0157116D01*
X0316539Y0157902D02*
X0380935Y0157902D01*
X0380609Y0158688D02*
X0315753Y0158688D01*
X0314967Y0159474D02*
X0380528Y0159474D01*
X0380528Y0160260D02*
X0314386Y0160260D01*
X0314386Y0161046D02*
X0380528Y0161046D01*
X0380528Y0161832D02*
X0314386Y0161832D01*
X0314386Y0162617D02*
X0380528Y0162617D01*
X0380777Y0163403D02*
X0314386Y0163403D01*
X0314386Y0164189D02*
X0381103Y0164189D01*
X0381428Y0164975D02*
X0314386Y0164975D01*
X0314386Y0165761D02*
X0381754Y0165761D01*
X0382155Y0166547D02*
X0314386Y0166547D01*
X0314386Y0167333D02*
X0382941Y0167333D01*
X0383727Y0168119D02*
X0314386Y0168119D01*
X0314386Y0168905D02*
X0384513Y0168905D01*
X0386012Y0169691D02*
X0314386Y0169691D01*
X0314386Y0170477D02*
X0387909Y0170477D01*
X0392831Y0170477D02*
X0426197Y0170477D01*
X0426197Y0171263D02*
X0314386Y0171263D01*
X0314386Y0172048D02*
X0426197Y0172048D01*
X0426197Y0172834D02*
X0314386Y0172834D01*
X0314386Y0173620D02*
X0426197Y0173620D01*
X0426197Y0174406D02*
X0314386Y0174406D01*
X0314386Y0175192D02*
X0426197Y0175192D01*
X0426197Y0175978D02*
X0314386Y0175978D01*
X0314386Y0176764D02*
X0426197Y0176764D01*
X0426197Y0177550D02*
X0314386Y0177550D01*
X0314386Y0178336D02*
X0426197Y0178336D01*
X0426197Y0179122D02*
X0314386Y0179122D01*
X0314386Y0179908D02*
X0426197Y0179908D01*
X0426197Y0180693D02*
X0314386Y0180693D01*
X0314386Y0181479D02*
X0426197Y0181479D01*
X0426197Y0182265D02*
X0314386Y0182265D01*
X0306709Y0186195D02*
X0344110Y0186195D01*
X0344110Y0186981D02*
X0306709Y0186981D01*
X0306709Y0187767D02*
X0344110Y0187767D01*
X0344110Y0188553D02*
X0306709Y0188553D01*
X0306709Y0189339D02*
X0344110Y0189339D01*
X0344110Y0190124D02*
X0306709Y0190124D01*
X0306709Y0190910D02*
X0344110Y0190910D01*
X0344110Y0191696D02*
X0306709Y0191696D01*
X0306709Y0192482D02*
X0344110Y0192482D01*
X0344110Y0193268D02*
X0306709Y0193268D01*
X0306709Y0194054D02*
X0344110Y0194054D01*
X0344110Y0194840D02*
X0306709Y0194840D01*
X0306709Y0195626D02*
X0344110Y0195626D01*
X0344110Y0196412D02*
X0306709Y0196412D01*
X0306709Y0197198D02*
X0344110Y0197198D01*
X0344110Y0197984D02*
X0306709Y0197984D01*
X0306709Y0198769D02*
X0344110Y0198769D01*
X0344110Y0199555D02*
X0306709Y0199555D01*
X0306709Y0200341D02*
X0344110Y0200341D01*
X0344110Y0201127D02*
X0306709Y0201127D01*
X0306709Y0201913D02*
X0344110Y0201913D01*
X0344110Y0202699D02*
X0306709Y0202699D01*
X0306709Y0203485D02*
X0344110Y0203485D01*
X0347063Y0195626D02*
X0352523Y0195626D01*
X0352461Y0194840D02*
X0347063Y0194840D01*
X0347063Y0194054D02*
X0352461Y0194054D01*
X0353031Y0193268D02*
X0347063Y0193268D01*
X0347063Y0192482D02*
X0359222Y0192482D01*
X0358760Y0191696D02*
X0347063Y0191696D01*
X0347063Y0190910D02*
X0358760Y0190910D01*
X0358930Y0190124D02*
X0347063Y0190124D01*
X0347063Y0189339D02*
X0359716Y0189339D01*
X0347063Y0185409D02*
X0426197Y0185409D01*
X0426197Y0184623D02*
X0347063Y0184623D01*
X0347063Y0183837D02*
X0426197Y0183837D01*
X0426197Y0183051D02*
X0347063Y0183051D01*
X0394728Y0169691D02*
X0426197Y0169691D01*
X0426197Y0168905D02*
X0396227Y0168905D01*
X0397013Y0168119D02*
X0426197Y0168119D01*
X0426197Y0167333D02*
X0397799Y0167333D01*
X0398585Y0166547D02*
X0426197Y0166547D01*
X0426197Y0165761D02*
X0398986Y0165761D01*
X0399312Y0164975D02*
X0426197Y0164975D01*
X0426197Y0164189D02*
X0399637Y0164189D01*
X0399963Y0163403D02*
X0426197Y0163403D01*
X0426197Y0162617D02*
X0400213Y0162617D01*
X0400213Y0161832D02*
X0426197Y0161832D01*
X0426197Y0161046D02*
X0400213Y0161046D01*
X0400213Y0160260D02*
X0426197Y0160260D01*
X0426197Y0159474D02*
X0400213Y0159474D01*
X0400131Y0158688D02*
X0426197Y0158688D01*
X0426197Y0157902D02*
X0399806Y0157902D01*
X0399480Y0157116D02*
X0426197Y0157116D01*
X0426197Y0156330D02*
X0399154Y0156330D01*
X0398829Y0155544D02*
X0426197Y0155544D01*
X0426197Y0154758D02*
X0398205Y0154758D01*
X0397419Y0153972D02*
X0426197Y0153972D01*
X0426197Y0153187D02*
X0396634Y0153187D01*
X0395709Y0152401D02*
X0426197Y0152401D01*
X0426197Y0151615D02*
X0393812Y0151615D01*
X0426197Y0142970D02*
X0331471Y0142970D01*
X0301787Y0135252D02*
X0296197Y0129661D01*
X0299228Y0124819D02*
X0257890Y0124819D01*
X0255331Y0122260D01*
X0255331Y0115409D01*
X0251551Y0111630D01*
X0245631Y0111630D01*
X0245094Y0112167D01*
X0247614Y0115567D02*
X0210803Y0115567D01*
X0203047Y0123323D01*
X0203047Y0113323D02*
X0211433Y0104937D01*
X0273210Y0104937D01*
X0277628Y0099819D01*
X0277628Y0089976D01*
X0270828Y0089976D02*
X0270828Y0080134D01*
X0270291Y0079971D01*
X0270291Y0076984D01*
X0273047Y0074228D01*
X0295882Y0074228D01*
X0299819Y0078165D01*
X0312811Y0071472D02*
X0267929Y0071472D01*
X0262580Y0076821D01*
X0261880Y0080134D01*
X0261880Y0089976D01*
X0255080Y0089976D02*
X0255080Y0099819D01*
X0206551Y0099819D01*
X0203047Y0103323D01*
X0217772Y0076984D02*
X0234858Y0094071D01*
X0217772Y0076984D02*
X0216748Y0076984D01*
X0247614Y0115567D02*
X0251551Y0119504D01*
X0188205Y0158480D02*
X0183047Y0153323D01*
X0203047Y0163323D02*
X0203165Y0163205D01*
X0267528Y0163205D01*
X0297354Y0193031D01*
X0269598Y0215606D02*
X0269598Y0220035D01*
X0272551Y0225055D02*
X0272551Y0227093D01*
X0272054Y0227591D01*
X0272054Y0229366D01*
X0270817Y0234858D02*
X0273441Y0234858D01*
X0280265Y0230134D02*
X0280265Y0226864D01*
X0278457Y0225055D01*
X0284911Y0219203D02*
X0285014Y0219203D01*
X0372260Y0219203D02*
X0423835Y0219203D01*
X0423835Y0218417D02*
X0372260Y0218417D01*
X0372260Y0217631D02*
X0423835Y0217631D01*
X0423835Y0216845D02*
X0372260Y0216845D01*
X0372260Y0216060D02*
X0423835Y0216060D01*
X0423835Y0215274D02*
X0372260Y0215274D01*
X0372260Y0214488D02*
X0423835Y0214488D01*
X0423835Y0213702D02*
X0372260Y0213702D01*
X0372260Y0212916D02*
X0423835Y0212916D01*
X0423835Y0212130D02*
X0372260Y0212130D01*
X0372260Y0211344D02*
X0423835Y0211344D01*
X0423835Y0210558D02*
X0372260Y0210558D01*
X0372260Y0219989D02*
X0423835Y0219989D01*
X0423835Y0220775D02*
X0372260Y0220775D01*
X0372260Y0221561D02*
X0423835Y0221561D01*
X0423835Y0222347D02*
X0381709Y0222347D01*
X0381709Y0223133D02*
X0423835Y0223133D01*
X0423835Y0223919D02*
X0381709Y0223919D01*
X0381709Y0224705D02*
X0423835Y0224705D01*
X0423835Y0225491D02*
X0381709Y0225491D01*
X0381709Y0226276D02*
X0423835Y0226276D01*
X0423835Y0227062D02*
X0381709Y0227062D01*
X0381709Y0227848D02*
X0423835Y0227848D01*
X0423835Y0228634D02*
X0381709Y0228634D01*
X0381709Y0229420D02*
X0423835Y0229420D01*
X0549819Y0276984D02*
X0549819Y0324071D01*
X0597063Y0324071D01*
X0597063Y0276984D01*
X0549819Y0276984D01*
X0549819Y0277361D02*
X0597063Y0277361D01*
X0597063Y0278147D02*
X0549819Y0278147D01*
X0549819Y0278933D02*
X0597063Y0278933D01*
X0597063Y0279719D02*
X0549819Y0279719D01*
X0549819Y0280504D02*
X0597063Y0280504D01*
X0597063Y0281290D02*
X0549819Y0281290D01*
X0549819Y0282076D02*
X0597063Y0282076D01*
X0597063Y0282862D02*
X0549819Y0282862D01*
X0549819Y0283648D02*
X0597063Y0283648D01*
X0597063Y0284434D02*
X0549819Y0284434D01*
X0549819Y0285220D02*
X0597063Y0285220D01*
X0597063Y0286006D02*
X0549819Y0286006D01*
X0549819Y0286792D02*
X0597063Y0286792D01*
X0597063Y0287578D02*
X0549819Y0287578D01*
X0549819Y0288364D02*
X0597063Y0288364D01*
X0597063Y0289149D02*
X0549819Y0289149D01*
X0549819Y0289935D02*
X0597063Y0289935D01*
X0597063Y0290721D02*
X0549819Y0290721D01*
X0549819Y0291507D02*
X0597063Y0291507D01*
X0597063Y0292293D02*
X0549819Y0292293D01*
X0549819Y0293079D02*
X0597063Y0293079D01*
X0597063Y0293865D02*
X0549819Y0293865D01*
X0549819Y0294651D02*
X0597063Y0294651D01*
X0597063Y0295437D02*
X0549819Y0295437D01*
X0549819Y0296223D02*
X0597063Y0296223D01*
X0597063Y0297009D02*
X0549819Y0297009D01*
X0549819Y0297795D02*
X0597063Y0297795D01*
X0597063Y0298580D02*
X0549819Y0298580D01*
X0549819Y0299366D02*
X0597063Y0299366D01*
X0597063Y0300152D02*
X0549819Y0300152D01*
X0549819Y0300938D02*
X0597063Y0300938D01*
X0597063Y0301724D02*
X0549819Y0301724D01*
X0549819Y0302510D02*
X0597063Y0302510D01*
X0597063Y0303296D02*
X0549819Y0303296D01*
X0549819Y0304082D02*
X0597063Y0304082D01*
X0597063Y0304868D02*
X0549819Y0304868D01*
X0549819Y0305654D02*
X0597063Y0305654D01*
X0597063Y0306440D02*
X0549819Y0306440D01*
X0549819Y0307225D02*
X0597063Y0307225D01*
X0597063Y0308011D02*
X0549819Y0308011D01*
X0549819Y0308797D02*
X0597063Y0308797D01*
X0597063Y0309583D02*
X0549819Y0309583D01*
X0549819Y0310369D02*
X0597063Y0310369D01*
X0597063Y0311155D02*
X0549819Y0311155D01*
X0549819Y0311941D02*
X0597063Y0311941D01*
X0597063Y0312727D02*
X0549819Y0312727D01*
X0549819Y0313513D02*
X0597063Y0313513D01*
X0597063Y0314299D02*
X0549819Y0314299D01*
X0549819Y0315085D02*
X0597063Y0315085D01*
X0597063Y0315871D02*
X0549819Y0315871D01*
X0549819Y0316656D02*
X0597063Y0316656D01*
X0597063Y0317442D02*
X0549819Y0317442D01*
X0549819Y0318228D02*
X0597063Y0318228D01*
X0597063Y0319014D02*
X0549819Y0319014D01*
X0549819Y0319800D02*
X0597063Y0319800D01*
X0597063Y0320586D02*
X0549819Y0320586D01*
X0549819Y0321372D02*
X0597063Y0321372D01*
X0597063Y0322158D02*
X0549819Y0322158D01*
X0549819Y0322944D02*
X0597063Y0322944D01*
X0597063Y0323730D02*
X0549819Y0323730D01*
X0476507Y0168717D02*
X0431709Y0168717D01*
X0431709Y0062417D01*
X0805882Y0062417D01*
X0805882Y0168717D01*
X0760926Y0168717D01*
X0759857Y0167647D01*
X0759857Y0167647D01*
X0757686Y0166748D01*
X0479747Y0166748D01*
X0477576Y0167647D01*
X0477576Y0167647D01*
X0476507Y0168717D01*
X0477104Y0168119D02*
X0431709Y0168119D01*
X0431709Y0167333D02*
X0478334Y0167333D01*
X0431709Y0166547D02*
X0805882Y0166547D01*
X0805882Y0165761D02*
X0431709Y0165761D01*
X0431709Y0164975D02*
X0805882Y0164975D01*
X0805882Y0164189D02*
X0431709Y0164189D01*
X0431709Y0163403D02*
X0805882Y0163403D01*
X0805882Y0162617D02*
X0431709Y0162617D01*
X0431709Y0161832D02*
X0805882Y0161832D01*
X0805882Y0161046D02*
X0431709Y0161046D01*
X0431709Y0160260D02*
X0805882Y0160260D01*
X0805882Y0159474D02*
X0431709Y0159474D01*
X0431709Y0158688D02*
X0805882Y0158688D01*
X0805882Y0157902D02*
X0431709Y0157902D01*
X0431709Y0157116D02*
X0805882Y0157116D01*
X0805882Y0156330D02*
X0431709Y0156330D01*
X0431709Y0155544D02*
X0805882Y0155544D01*
X0805882Y0154758D02*
X0431709Y0154758D01*
X0431709Y0153972D02*
X0805882Y0153972D01*
X0805882Y0153187D02*
X0431709Y0153187D01*
X0431709Y0152401D02*
X0805882Y0152401D01*
X0805882Y0151615D02*
X0431709Y0151615D01*
X0431709Y0150829D02*
X0805882Y0150829D01*
X0805882Y0150043D02*
X0431709Y0150043D01*
X0431709Y0149257D02*
X0805882Y0149257D01*
X0805882Y0148471D02*
X0431709Y0148471D01*
X0431709Y0147685D02*
X0805882Y0147685D01*
X0805882Y0146899D02*
X0431709Y0146899D01*
X0431709Y0146113D02*
X0805882Y0146113D01*
X0805882Y0145327D02*
X0431709Y0145327D01*
X0431709Y0144541D02*
X0805882Y0144541D01*
X0805882Y0143756D02*
X0431709Y0143756D01*
X0431709Y0142970D02*
X0805882Y0142970D01*
X0805882Y0142184D02*
X0431709Y0142184D01*
X0431709Y0141398D02*
X0805882Y0141398D01*
X0805882Y0140612D02*
X0431709Y0140612D01*
X0431709Y0139826D02*
X0805882Y0139826D01*
X0805882Y0139040D02*
X0431709Y0139040D01*
X0431709Y0138254D02*
X0805882Y0138254D01*
X0805882Y0137468D02*
X0431709Y0137468D01*
X0431709Y0136682D02*
X0805882Y0136682D01*
X0805882Y0135896D02*
X0431709Y0135896D01*
X0431709Y0135111D02*
X0805882Y0135111D01*
X0805882Y0134325D02*
X0431709Y0134325D01*
X0431709Y0133539D02*
X0805882Y0133539D01*
X0805882Y0132753D02*
X0431709Y0132753D01*
X0431709Y0131967D02*
X0805882Y0131967D01*
X0805882Y0131181D02*
X0431709Y0131181D01*
X0431709Y0130395D02*
X0805882Y0130395D01*
X0805882Y0129609D02*
X0431709Y0129609D01*
X0431709Y0128823D02*
X0805882Y0128823D01*
X0805882Y0128037D02*
X0431709Y0128037D01*
X0431709Y0127251D02*
X0805882Y0127251D01*
X0805882Y0126466D02*
X0431709Y0126466D01*
X0431709Y0125680D02*
X0805882Y0125680D01*
X0805882Y0124894D02*
X0431709Y0124894D01*
X0431709Y0124108D02*
X0805882Y0124108D01*
X0805882Y0123322D02*
X0431709Y0123322D01*
X0431709Y0122536D02*
X0684282Y0122536D01*
X0685646Y0122752D02*
X0680992Y0122015D01*
X0676794Y0119876D01*
X0673463Y0116544D01*
X0671324Y0112346D01*
X0670587Y0107693D01*
X0670587Y0107693D01*
X0671324Y0103039D01*
X0673463Y0098841D01*
X0676794Y0095510D01*
X0680992Y0093371D01*
X0685646Y0092634D01*
X0690299Y0093371D01*
X0694497Y0095510D01*
X0694497Y0095510D01*
X0697829Y0098841D01*
X0697829Y0098841D01*
X0699968Y0103039D01*
X0699968Y0103039D01*
X0700705Y0107693D01*
X0699968Y0112346D01*
X0699968Y0112346D01*
X0697829Y0116544D01*
X0697829Y0116544D01*
X0694497Y0119876D01*
X0690299Y0122015D01*
X0685646Y0122752D01*
X0685646Y0122752D01*
X0687010Y0122536D02*
X0805882Y0122536D01*
X0805882Y0121750D02*
X0690819Y0121750D01*
X0690299Y0122015D02*
X0690299Y0122015D01*
X0692361Y0120964D02*
X0805882Y0120964D01*
X0805882Y0120178D02*
X0693904Y0120178D01*
X0694497Y0119876D02*
X0694497Y0119876D01*
X0694981Y0119392D02*
X0805882Y0119392D01*
X0805882Y0118606D02*
X0695767Y0118606D01*
X0696553Y0117820D02*
X0805882Y0117820D01*
X0805882Y0117035D02*
X0697339Y0117035D01*
X0697979Y0116249D02*
X0805882Y0116249D01*
X0805882Y0115463D02*
X0698380Y0115463D01*
X0698780Y0114677D02*
X0805882Y0114677D01*
X0805882Y0113891D02*
X0699181Y0113891D01*
X0699581Y0113105D02*
X0805882Y0113105D01*
X0805882Y0112319D02*
X0699972Y0112319D01*
X0700096Y0111533D02*
X0805882Y0111533D01*
X0805882Y0110747D02*
X0700221Y0110747D01*
X0700345Y0109961D02*
X0805882Y0109961D01*
X0805882Y0109175D02*
X0700470Y0109175D01*
X0700594Y0108390D02*
X0805882Y0108390D01*
X0805882Y0107604D02*
X0700691Y0107604D01*
X0700566Y0106818D02*
X0805882Y0106818D01*
X0805882Y0106032D02*
X0700442Y0106032D01*
X0700317Y0105246D02*
X0805882Y0105246D01*
X0805882Y0104460D02*
X0700193Y0104460D01*
X0700068Y0103674D02*
X0805882Y0103674D01*
X0805882Y0102888D02*
X0699891Y0102888D01*
X0699490Y0102102D02*
X0805882Y0102102D01*
X0805882Y0101316D02*
X0699090Y0101316D01*
X0698689Y0100530D02*
X0805882Y0100530D01*
X0805882Y0099744D02*
X0698289Y0099744D01*
X0697888Y0098959D02*
X0805882Y0098959D01*
X0805882Y0098173D02*
X0697160Y0098173D01*
X0696374Y0097387D02*
X0805882Y0097387D01*
X0805882Y0096601D02*
X0695588Y0096601D01*
X0694802Y0095815D02*
X0805882Y0095815D01*
X0805882Y0095029D02*
X0693553Y0095029D01*
X0692011Y0094243D02*
X0805882Y0094243D01*
X0805882Y0093457D02*
X0690468Y0093457D01*
X0685882Y0092671D02*
X0805882Y0092671D01*
X0805882Y0091885D02*
X0431709Y0091885D01*
X0431709Y0091099D02*
X0608408Y0091099D01*
X0609156Y0091460D02*
X0606117Y0089996D01*
X0604014Y0087359D01*
X0603264Y0084071D01*
X0604014Y0080783D01*
X0604014Y0080783D01*
X0606117Y0078146D01*
X0609156Y0076682D01*
X0612529Y0076682D01*
X0615568Y0078146D01*
X0617671Y0080783D01*
X0618421Y0084071D01*
X0617671Y0087359D01*
X0615568Y0089996D01*
X0615568Y0089996D01*
X0612529Y0091460D01*
X0609156Y0091460D01*
X0606776Y0090314D02*
X0431709Y0090314D01*
X0431709Y0089528D02*
X0605744Y0089528D01*
X0606117Y0089996D02*
X0606117Y0089996D01*
X0606117Y0089996D01*
X0605117Y0088742D02*
X0431709Y0088742D01*
X0431709Y0087956D02*
X0604490Y0087956D01*
X0604014Y0087359D02*
X0604014Y0087359D01*
X0603971Y0087170D02*
X0431709Y0087170D01*
X0431709Y0086384D02*
X0603792Y0086384D01*
X0603612Y0085598D02*
X0431709Y0085598D01*
X0431709Y0084812D02*
X0603433Y0084812D01*
X0603264Y0084071D02*
X0603264Y0084071D01*
X0603274Y0084026D02*
X0431709Y0084026D01*
X0431709Y0083240D02*
X0443185Y0083240D01*
X0443764Y0083480D02*
X0440870Y0082282D01*
X0438655Y0080067D01*
X0437457Y0077173D01*
X0437457Y0074040D01*
X0438655Y0071146D01*
X0440870Y0068931D01*
X0443764Y0067732D01*
X0446897Y0067732D01*
X0449791Y0068931D01*
X0452006Y0071146D01*
X0453205Y0074040D01*
X0453205Y0077173D01*
X0452006Y0080067D01*
X0449791Y0082282D01*
X0446897Y0083480D01*
X0443764Y0083480D01*
X0441288Y0082454D02*
X0431709Y0082454D01*
X0431709Y0081668D02*
X0440257Y0081668D01*
X0439471Y0080883D02*
X0431709Y0080883D01*
X0431709Y0080097D02*
X0438686Y0080097D01*
X0438342Y0079311D02*
X0431709Y0079311D01*
X0431709Y0078525D02*
X0438017Y0078525D01*
X0437691Y0077739D02*
X0431709Y0077739D01*
X0431709Y0076953D02*
X0437457Y0076953D01*
X0437457Y0076167D02*
X0431709Y0076167D01*
X0431709Y0075381D02*
X0437457Y0075381D01*
X0437457Y0074595D02*
X0431709Y0074595D01*
X0431709Y0073809D02*
X0437552Y0073809D01*
X0437878Y0073023D02*
X0431709Y0073023D01*
X0431709Y0072238D02*
X0438203Y0072238D01*
X0438529Y0071452D02*
X0431709Y0071452D01*
X0431709Y0070666D02*
X0439136Y0070666D01*
X0439922Y0069880D02*
X0431709Y0069880D01*
X0431709Y0069094D02*
X0440708Y0069094D01*
X0442375Y0068308D02*
X0431709Y0068308D01*
X0431709Y0067522D02*
X0805882Y0067522D01*
X0805882Y0066736D02*
X0431709Y0066736D01*
X0431709Y0065950D02*
X0805882Y0065950D01*
X0805882Y0065164D02*
X0431709Y0065164D01*
X0431709Y0064378D02*
X0805882Y0064378D01*
X0805882Y0063592D02*
X0431709Y0063592D01*
X0431709Y0062807D02*
X0805882Y0062807D01*
X0805882Y0068308D02*
X0796082Y0068308D01*
X0794692Y0067732D02*
X0797586Y0068931D01*
X0799801Y0071146D01*
X0801000Y0074040D01*
X0801000Y0077173D01*
X0799801Y0080067D01*
X0797586Y0082282D01*
X0794692Y0083480D01*
X0791560Y0083480D01*
X0788666Y0082282D01*
X0786451Y0080067D01*
X0785252Y0077173D01*
X0785252Y0074040D01*
X0786451Y0071146D01*
X0788666Y0068931D01*
X0791560Y0067732D01*
X0794692Y0067732D01*
X0797749Y0069094D02*
X0805882Y0069094D01*
X0805882Y0069880D02*
X0798535Y0069880D01*
X0799321Y0070666D02*
X0805882Y0070666D01*
X0805882Y0071452D02*
X0799928Y0071452D01*
X0800253Y0072238D02*
X0805882Y0072238D01*
X0805882Y0073023D02*
X0800579Y0073023D01*
X0800904Y0073809D02*
X0805882Y0073809D01*
X0805882Y0074595D02*
X0801000Y0074595D01*
X0801000Y0075381D02*
X0805882Y0075381D01*
X0805882Y0076167D02*
X0801000Y0076167D01*
X0801000Y0076953D02*
X0805882Y0076953D01*
X0805882Y0077739D02*
X0800765Y0077739D01*
X0800440Y0078525D02*
X0805882Y0078525D01*
X0805882Y0079311D02*
X0800114Y0079311D01*
X0799771Y0080097D02*
X0805882Y0080097D01*
X0805882Y0080883D02*
X0798985Y0080883D01*
X0798199Y0081668D02*
X0805882Y0081668D01*
X0805882Y0082454D02*
X0797169Y0082454D01*
X0795272Y0083240D02*
X0805882Y0083240D01*
X0805882Y0084026D02*
X0618411Y0084026D01*
X0618252Y0084812D02*
X0805882Y0084812D01*
X0805882Y0085598D02*
X0618073Y0085598D01*
X0617893Y0086384D02*
X0805882Y0086384D01*
X0805882Y0087170D02*
X0617714Y0087170D01*
X0617671Y0087359D02*
X0617671Y0087359D01*
X0617195Y0087956D02*
X0805882Y0087956D01*
X0805882Y0088742D02*
X0616568Y0088742D01*
X0615941Y0089528D02*
X0805882Y0089528D01*
X0805882Y0090314D02*
X0614909Y0090314D01*
X0613277Y0091099D02*
X0805882Y0091099D01*
X0790980Y0083240D02*
X0618232Y0083240D01*
X0618052Y0082454D02*
X0789083Y0082454D01*
X0788053Y0081668D02*
X0617873Y0081668D01*
X0617694Y0080883D02*
X0787267Y0080883D01*
X0786481Y0080097D02*
X0617124Y0080097D01*
X0617671Y0080783D02*
X0617671Y0080783D01*
X0616497Y0079311D02*
X0786138Y0079311D01*
X0785812Y0078525D02*
X0615870Y0078525D01*
X0615568Y0078146D02*
X0615568Y0078146D01*
X0615568Y0078146D01*
X0614723Y0077739D02*
X0785487Y0077739D01*
X0785252Y0076953D02*
X0613091Y0076953D01*
X0608594Y0076953D02*
X0453205Y0076953D01*
X0453205Y0076167D02*
X0785252Y0076167D01*
X0785252Y0075381D02*
X0453205Y0075381D01*
X0453205Y0074595D02*
X0785252Y0074595D01*
X0785348Y0073809D02*
X0453109Y0073809D01*
X0452784Y0073023D02*
X0785673Y0073023D01*
X0785999Y0072238D02*
X0452458Y0072238D01*
X0452133Y0071452D02*
X0786324Y0071452D01*
X0786931Y0070666D02*
X0451526Y0070666D01*
X0450740Y0069880D02*
X0787717Y0069880D01*
X0788503Y0069094D02*
X0449954Y0069094D01*
X0448287Y0068308D02*
X0790170Y0068308D01*
X0685410Y0092671D02*
X0431709Y0092671D01*
X0431709Y0093457D02*
X0680823Y0093457D01*
X0679280Y0094243D02*
X0431709Y0094243D01*
X0431709Y0095029D02*
X0677738Y0095029D01*
X0676489Y0095815D02*
X0431709Y0095815D01*
X0431709Y0096601D02*
X0675703Y0096601D01*
X0674917Y0097387D02*
X0431709Y0097387D01*
X0431709Y0098173D02*
X0674131Y0098173D01*
X0673463Y0098841D02*
X0673463Y0098841D01*
X0673463Y0098841D01*
X0673403Y0098959D02*
X0431709Y0098959D01*
X0431709Y0099744D02*
X0673003Y0099744D01*
X0672602Y0100530D02*
X0431709Y0100530D01*
X0431709Y0101316D02*
X0672202Y0101316D01*
X0671801Y0102102D02*
X0431709Y0102102D01*
X0431709Y0102888D02*
X0671401Y0102888D01*
X0671324Y0103039D02*
X0671324Y0103039D01*
X0671223Y0103674D02*
X0431709Y0103674D01*
X0431709Y0104460D02*
X0671099Y0104460D01*
X0670974Y0105246D02*
X0431709Y0105246D01*
X0431709Y0106032D02*
X0670850Y0106032D01*
X0670725Y0106818D02*
X0431709Y0106818D01*
X0431709Y0107604D02*
X0670601Y0107604D01*
X0670697Y0108390D02*
X0431709Y0108390D01*
X0431709Y0109175D02*
X0670821Y0109175D01*
X0670946Y0109961D02*
X0431709Y0109961D01*
X0431709Y0110747D02*
X0671070Y0110747D01*
X0671195Y0111533D02*
X0431709Y0111533D01*
X0431709Y0112319D02*
X0671319Y0112319D01*
X0671324Y0112346D02*
X0671324Y0112346D01*
X0671710Y0113105D02*
X0431709Y0113105D01*
X0431709Y0113891D02*
X0672111Y0113891D01*
X0672511Y0114677D02*
X0431709Y0114677D01*
X0431709Y0115463D02*
X0672912Y0115463D01*
X0673312Y0116249D02*
X0431709Y0116249D01*
X0431709Y0117035D02*
X0673953Y0117035D01*
X0673463Y0116544D02*
X0673463Y0116544D01*
X0674739Y0117820D02*
X0431709Y0117820D01*
X0431709Y0118606D02*
X0675525Y0118606D01*
X0676311Y0119392D02*
X0431709Y0119392D01*
X0431709Y0120178D02*
X0677387Y0120178D01*
X0676794Y0119876D02*
X0676794Y0119876D01*
X0678930Y0120964D02*
X0431709Y0120964D01*
X0431709Y0121750D02*
X0680472Y0121750D01*
X0680992Y0122015D02*
X0680992Y0122015D01*
X0603453Y0083240D02*
X0447476Y0083240D01*
X0449374Y0082454D02*
X0603633Y0082454D01*
X0603812Y0081668D02*
X0450404Y0081668D01*
X0451190Y0080883D02*
X0603991Y0080883D01*
X0604561Y0080097D02*
X0451976Y0080097D01*
X0452319Y0079311D02*
X0605188Y0079311D01*
X0605815Y0078525D02*
X0452645Y0078525D01*
X0452970Y0077739D02*
X0606962Y0077739D01*
X0606117Y0078146D02*
X0606117Y0078146D01*
X0759099Y0167333D02*
X0805882Y0167333D01*
X0805882Y0168119D02*
X0760329Y0168119D01*
X0319504Y0078165D02*
X0312811Y0071472D01*
X0203559Y0173835D02*
X0203517Y0173833D01*
X0203475Y0173828D01*
X0203433Y0173819D01*
X0203393Y0173807D01*
X0203353Y0173792D01*
X0203315Y0173773D01*
X0203279Y0173752D01*
X0203245Y0173727D01*
X0203212Y0173700D01*
X0203182Y0173670D01*
X0203155Y0173637D01*
X0203130Y0173603D01*
X0203109Y0173567D01*
X0203090Y0173529D01*
X0203075Y0173489D01*
X0203063Y0173449D01*
X0203054Y0173407D01*
X0203049Y0173365D01*
X0203047Y0173323D01*
X0191807Y0192083D02*
X0183047Y0183323D01*
X0158283Y0195685D02*
X0155921Y0193323D01*
X0143047Y0193323D01*
X0181709Y0276984D02*
X0181709Y0286827D01*
X0191551Y0286827D02*
X0191551Y0278953D01*
D43*
X0260615Y0225646D02*
X0260740Y0225646D01*
X0260740Y0225055D01*
X0258272Y0210685D02*
X0258181Y0210594D01*
X0264677Y0206157D02*
X0264677Y0202354D01*
X0264354Y0202031D01*
X0266646Y0200240D02*
X0269354Y0197531D01*
X0292854Y0197531D01*
X0297354Y0193031D01*
X0287354Y0201031D02*
X0285354Y0199031D01*
X0270354Y0199031D01*
X0268614Y0200772D01*
X0268614Y0206157D01*
X0266646Y0206157D02*
X0266646Y0200240D01*
X0272551Y0203585D02*
X0274104Y0202031D01*
X0274104Y0201281D01*
X0274520Y0204116D02*
X0277354Y0201281D01*
X0277854Y0201281D01*
X0277354Y0203531D02*
X0276488Y0204398D01*
X0277354Y0203531D02*
X0279854Y0203531D01*
X0281354Y0202031D01*
D44*
X0281354Y0202031D03*
X0284486Y0202335D03*
X0287354Y0201031D03*
X0277854Y0201281D03*
X0274104Y0201281D03*
X0270854Y0202031D03*
X0264354Y0202031D03*
X0257787Y0204764D03*
X0254854Y0207781D03*
X0252604Y0206281D03*
X0255104Y0211781D03*
X0253354Y0217281D03*
X0250854Y0217281D03*
X0248354Y0217281D03*
X0239704Y0216931D03*
X0237356Y0220626D03*
X0237356Y0224563D03*
X0244049Y0224563D03*
X0240062Y0234189D03*
X0262947Y0235193D03*
X0267278Y0230862D03*
X0284567Y0222531D03*
X0284705Y0217392D03*
X0288136Y0217600D03*
X0291173Y0217785D03*
X0297354Y0218531D03*
X0299854Y0218531D03*
X0299854Y0222531D03*
X0289677Y0224006D03*
X0301394Y0237614D03*
X0237274Y0212268D03*
X0232549Y0210299D03*
X0241604Y0206781D03*
X0243104Y0204531D03*
X0244604Y0206781D03*
X0246104Y0204531D03*
X0244604Y0202031D03*
X0241604Y0202031D03*
X0237667Y0204394D03*
X0234124Y0205575D03*
X0230581Y0205181D03*
X0234124Y0200850D03*
X0286303Y0207232D03*
X0289053Y0207232D03*
X0291752Y0207232D03*
X0297354Y0207656D03*
X0299854Y0207656D03*
D45*
X0227354Y0243031D02*
X0227354Y0253362D01*
X0226984Y0253362D01*
X0317431Y0145449D02*
X0325409Y0138171D01*
X0325409Y0135252D01*
X0203047Y0093323D02*
X0200016Y0093323D01*
X0185646Y0107693D01*
X0185646Y0125606D01*
X0191157Y0131118D01*
X0191157Y0138402D01*
X0186236Y0143323D01*
X0183047Y0143323D01*
D46*
X0256059Y0133598D02*
X0261408Y0133598D01*
X0263598Y0135789D01*
X0266748Y0119754D02*
X0259361Y0119754D01*
X0259110Y0119504D01*
X0270583Y0224071D02*
X0270583Y0226821D01*
X0270469Y0226934D01*
X0270469Y0227670D01*
X0267278Y0230862D01*
X0286183Y0234465D02*
X0286183Y0243031D01*
X0287354Y0243031D01*
D47*
X0284657Y0240164D02*
X0284657Y0237499D01*
X0284046Y0237499D01*
X0283498Y0236952D01*
X0283498Y0231977D01*
X0284046Y0231430D01*
X0288320Y0231430D01*
X0288867Y0231977D01*
X0288867Y0236952D01*
X0288320Y0237499D01*
X0287708Y0237499D01*
X0287708Y0239097D01*
X0288984Y0239097D01*
X0291289Y0241402D01*
X0291289Y0244661D01*
X0288984Y0246966D01*
X0285725Y0246966D01*
X0283420Y0244661D01*
X0283420Y0241402D01*
X0284657Y0240164D01*
X0284657Y0240088D02*
X0279975Y0240088D01*
X0280643Y0240756D02*
X0284066Y0240756D01*
X0283420Y0241423D02*
X0281289Y0241423D01*
X0281289Y0241402D02*
X0278984Y0239097D01*
X0275725Y0239097D01*
X0273420Y0241402D01*
X0273420Y0244661D01*
X0275725Y0246966D01*
X0278984Y0246966D01*
X0281289Y0244661D01*
X0281289Y0241402D01*
X0281289Y0242091D02*
X0283420Y0242091D01*
X0283420Y0242759D02*
X0281289Y0242759D01*
X0281289Y0243427D02*
X0283420Y0243427D01*
X0283420Y0244095D02*
X0281289Y0244095D01*
X0281188Y0244762D02*
X0283521Y0244762D01*
X0284189Y0245430D02*
X0280520Y0245430D01*
X0279852Y0246098D02*
X0284856Y0246098D01*
X0285524Y0246766D02*
X0279184Y0246766D01*
X0276031Y0248101D02*
X0230257Y0248101D01*
X0230257Y0248223D02*
X0302354Y0248031D01*
X0302354Y0237130D01*
X0302345Y0237139D01*
X0302040Y0237315D01*
X0301701Y0237406D01*
X0299760Y0237406D01*
X0299760Y0234656D01*
X0299091Y0234656D01*
X0299091Y0237406D01*
X0297149Y0237406D01*
X0296810Y0237315D01*
X0296506Y0237139D01*
X0296257Y0236891D01*
X0296082Y0236586D01*
X0296067Y0236533D01*
X0296067Y0236740D01*
X0295976Y0237080D01*
X0295801Y0237384D01*
X0295552Y0237633D01*
X0295248Y0237808D01*
X0294908Y0237899D01*
X0293317Y0237899D01*
X0293317Y0234799D01*
X0292648Y0234799D01*
X0292648Y0234130D01*
X0289898Y0234130D01*
X0289898Y0232189D01*
X0289989Y0231849D01*
X0290165Y0231545D01*
X0290413Y0231297D01*
X0290718Y0231121D01*
X0291057Y0231030D01*
X0292648Y0231030D01*
X0292648Y0234130D01*
X0293317Y0234130D01*
X0293317Y0231030D01*
X0294908Y0231030D01*
X0295248Y0231121D01*
X0295552Y0231297D01*
X0295801Y0231545D01*
X0295976Y0231849D01*
X0296057Y0232149D01*
X0296082Y0232056D01*
X0296257Y0231752D01*
X0296506Y0231503D01*
X0296810Y0231328D01*
X0297149Y0231237D01*
X0299091Y0231237D01*
X0299091Y0233987D01*
X0299760Y0233987D01*
X0299760Y0231237D01*
X0301701Y0231237D01*
X0302040Y0231328D01*
X0302345Y0231503D01*
X0302354Y0231513D01*
X0302354Y0229764D01*
X0301912Y0230206D01*
X0300641Y0230206D01*
X0300498Y0230359D01*
X0300472Y0230360D01*
X0300454Y0230379D01*
X0299926Y0230379D01*
X0295396Y0230530D01*
X0295120Y0230806D01*
X0290846Y0230806D01*
X0290298Y0230259D01*
X0290298Y0229729D01*
X0289929Y0229360D01*
X0288867Y0229360D01*
X0288867Y0230259D01*
X0288320Y0230806D01*
X0284046Y0230806D01*
X0283498Y0230259D01*
X0283498Y0229100D01*
X0283127Y0229100D01*
X0282550Y0228523D01*
X0282550Y0232021D01*
X0282337Y0232234D01*
X0282435Y0232290D01*
X0282683Y0232539D01*
X0282859Y0232843D01*
X0282950Y0233183D01*
X0282950Y0234524D01*
X0280600Y0234524D01*
X0280600Y0235193D01*
X0279931Y0235193D01*
X0279931Y0237693D01*
X0278740Y0237693D01*
X0278400Y0237602D01*
X0278096Y0237426D01*
X0277883Y0237213D01*
X0277802Y0237293D01*
X0274328Y0237293D01*
X0273781Y0236745D01*
X0273781Y0236187D01*
X0273101Y0236187D01*
X0273101Y0236745D01*
X0272554Y0237293D01*
X0269079Y0237293D01*
X0268717Y0236930D01*
X0268354Y0237293D01*
X0266713Y0237293D01*
X0265689Y0238316D01*
X0265689Y0238316D01*
X0264911Y0239095D01*
X0239548Y0239095D01*
X0241689Y0241236D01*
X0241689Y0242697D01*
X0237689Y0242697D01*
X0237689Y0243366D01*
X0241689Y0243366D01*
X0241689Y0244827D01*
X0239150Y0247366D01*
X0237689Y0247366D01*
X0237689Y0243366D01*
X0237020Y0243366D01*
X0237020Y0247366D01*
X0235559Y0247366D01*
X0233020Y0244827D01*
X0233020Y0243366D01*
X0237020Y0243366D01*
X0237020Y0242697D01*
X0233020Y0242697D01*
X0233020Y0241236D01*
X0235161Y0239095D01*
X0224626Y0239095D01*
X0224624Y0239097D01*
X0230741Y0239097D01*
X0231289Y0239644D01*
X0231289Y0246419D01*
X0230741Y0246966D01*
X0230257Y0246966D01*
X0230257Y0248223D01*
X0230257Y0247434D02*
X0302354Y0247434D01*
X0302354Y0246766D02*
X0299750Y0246766D01*
X0299150Y0247366D02*
X0297689Y0247366D01*
X0297689Y0243366D01*
X0301689Y0243366D01*
X0301689Y0244827D01*
X0299150Y0247366D01*
X0297689Y0246766D02*
X0297020Y0246766D01*
X0297020Y0247366D02*
X0295559Y0247366D01*
X0293020Y0244827D01*
X0293020Y0243366D01*
X0297020Y0243366D01*
X0297020Y0247366D01*
X0297020Y0246098D02*
X0297689Y0246098D01*
X0297689Y0245430D02*
X0297020Y0245430D01*
X0297020Y0244762D02*
X0297689Y0244762D01*
X0297689Y0244095D02*
X0297020Y0244095D01*
X0297020Y0243427D02*
X0297689Y0243427D01*
X0297689Y0243366D02*
X0297020Y0243366D01*
X0297020Y0242697D01*
X0297689Y0242697D01*
X0297689Y0243366D01*
X0297689Y0242759D02*
X0302354Y0242759D01*
X0302354Y0243427D02*
X0301689Y0243427D01*
X0301689Y0244095D02*
X0302354Y0244095D01*
X0302354Y0244762D02*
X0301689Y0244762D01*
X0301086Y0245430D02*
X0302354Y0245430D01*
X0302354Y0246098D02*
X0300418Y0246098D01*
X0301689Y0242697D02*
X0297689Y0242697D01*
X0297689Y0238697D01*
X0299150Y0238697D01*
X0301689Y0241236D01*
X0301689Y0242697D01*
X0301689Y0242091D02*
X0302354Y0242091D01*
X0302354Y0241423D02*
X0301689Y0241423D01*
X0301208Y0240756D02*
X0302354Y0240756D01*
X0302354Y0240088D02*
X0300541Y0240088D01*
X0299873Y0239420D02*
X0302354Y0239420D01*
X0302354Y0238752D02*
X0299205Y0238752D01*
X0297689Y0238752D02*
X0297020Y0238752D01*
X0297020Y0238697D02*
X0297020Y0242697D01*
X0293020Y0242697D01*
X0293020Y0241236D01*
X0295559Y0238697D01*
X0297020Y0238697D01*
X0297020Y0239420D02*
X0297689Y0239420D01*
X0297689Y0240088D02*
X0297020Y0240088D01*
X0297020Y0240756D02*
X0297689Y0240756D01*
X0297689Y0241423D02*
X0297020Y0241423D01*
X0297020Y0242091D02*
X0297689Y0242091D01*
X0297020Y0242759D02*
X0291289Y0242759D01*
X0291289Y0243427D02*
X0293020Y0243427D01*
X0293020Y0244095D02*
X0291289Y0244095D01*
X0291188Y0244762D02*
X0293020Y0244762D01*
X0293623Y0245430D02*
X0290520Y0245430D01*
X0289852Y0246098D02*
X0294291Y0246098D01*
X0294958Y0246766D02*
X0289184Y0246766D01*
X0291289Y0242091D02*
X0293020Y0242091D01*
X0293020Y0241423D02*
X0291289Y0241423D01*
X0290643Y0240756D02*
X0293500Y0240756D01*
X0294168Y0240088D02*
X0289975Y0240088D01*
X0289307Y0239420D02*
X0294836Y0239420D01*
X0295504Y0238752D02*
X0287708Y0238752D01*
X0287708Y0238084D02*
X0302354Y0238084D01*
X0302354Y0237417D02*
X0295768Y0237417D01*
X0296065Y0236749D02*
X0296175Y0236749D01*
X0295991Y0234799D02*
X0293317Y0234799D01*
X0293317Y0234130D01*
X0296067Y0234130D01*
X0296067Y0233987D01*
X0299091Y0233987D01*
X0299091Y0234656D01*
X0295991Y0234656D01*
X0295991Y0234799D01*
X0295991Y0234745D02*
X0293317Y0234745D01*
X0293317Y0234078D02*
X0292648Y0234078D01*
X0292648Y0234745D02*
X0288867Y0234745D01*
X0288867Y0234078D02*
X0289898Y0234078D01*
X0289898Y0233410D02*
X0288867Y0233410D01*
X0288867Y0232742D02*
X0289898Y0232742D01*
X0289929Y0232074D02*
X0288867Y0232074D01*
X0288388Y0230738D02*
X0290778Y0230738D01*
X0290303Y0231406D02*
X0282550Y0231406D01*
X0282550Y0230738D02*
X0283978Y0230738D01*
X0283498Y0230071D02*
X0282550Y0230071D01*
X0282550Y0229403D02*
X0283498Y0229403D01*
X0282762Y0228735D02*
X0282550Y0228735D01*
X0282497Y0232074D02*
X0283498Y0232074D01*
X0283498Y0232742D02*
X0282801Y0232742D01*
X0282950Y0233410D02*
X0283498Y0233410D01*
X0283498Y0234078D02*
X0282950Y0234078D01*
X0283498Y0234745D02*
X0280600Y0234745D01*
X0280600Y0235193D02*
X0282950Y0235193D01*
X0282950Y0236534D01*
X0282859Y0236873D01*
X0282683Y0237178D01*
X0282435Y0237426D01*
X0282130Y0237602D01*
X0281791Y0237693D01*
X0280600Y0237693D01*
X0280600Y0235193D01*
X0280600Y0235413D02*
X0279931Y0235413D01*
X0279931Y0236081D02*
X0280600Y0236081D01*
X0280600Y0236749D02*
X0279931Y0236749D01*
X0279931Y0237417D02*
X0280600Y0237417D01*
X0282445Y0237417D02*
X0283963Y0237417D01*
X0283498Y0236749D02*
X0282892Y0236749D01*
X0282950Y0236081D02*
X0283498Y0236081D01*
X0283498Y0235413D02*
X0282950Y0235413D01*
X0284657Y0238084D02*
X0265921Y0238084D01*
X0266589Y0237417D02*
X0278086Y0237417D01*
X0279307Y0239420D02*
X0284657Y0239420D01*
X0284657Y0238752D02*
X0265253Y0238752D01*
X0265725Y0239097D02*
X0268984Y0239097D01*
X0271289Y0241402D01*
X0271289Y0244661D01*
X0268984Y0246966D01*
X0265725Y0246966D01*
X0263420Y0244661D01*
X0263420Y0241402D01*
X0265725Y0239097D01*
X0265401Y0239420D02*
X0259307Y0239420D01*
X0258984Y0239097D02*
X0261289Y0241402D01*
X0261289Y0244661D01*
X0258984Y0246966D01*
X0255725Y0246966D01*
X0253420Y0244661D01*
X0253420Y0241402D01*
X0255725Y0239097D01*
X0258984Y0239097D01*
X0259975Y0240088D02*
X0264734Y0240088D01*
X0264066Y0240756D02*
X0260643Y0240756D01*
X0261289Y0241423D02*
X0263420Y0241423D01*
X0263420Y0242091D02*
X0261289Y0242091D01*
X0261289Y0242759D02*
X0263420Y0242759D01*
X0263420Y0243427D02*
X0261289Y0243427D01*
X0261289Y0244095D02*
X0263420Y0244095D01*
X0263521Y0244762D02*
X0261188Y0244762D01*
X0260520Y0245430D02*
X0264189Y0245430D01*
X0264856Y0246098D02*
X0259852Y0246098D01*
X0259184Y0246766D02*
X0265524Y0246766D01*
X0269184Y0246766D02*
X0275524Y0246766D01*
X0274856Y0246098D02*
X0269852Y0246098D01*
X0270520Y0245430D02*
X0274189Y0245430D01*
X0273521Y0244762D02*
X0271188Y0244762D01*
X0271289Y0244095D02*
X0273420Y0244095D01*
X0273420Y0243427D02*
X0271289Y0243427D01*
X0271289Y0242759D02*
X0273420Y0242759D01*
X0273420Y0242091D02*
X0271289Y0242091D01*
X0271289Y0241423D02*
X0273420Y0241423D01*
X0274066Y0240756D02*
X0270643Y0240756D01*
X0269975Y0240088D02*
X0274734Y0240088D01*
X0275401Y0239420D02*
X0269307Y0239420D01*
X0273098Y0236749D02*
X0273784Y0236749D01*
X0267467Y0232074D02*
X0264629Y0232074D01*
X0264879Y0232424D02*
X0267144Y0232424D01*
X0267144Y0232396D01*
X0270725Y0228816D01*
X0270725Y0227768D01*
X0270583Y0227768D01*
X0270583Y0224071D01*
X0270583Y0224071D01*
X0270583Y0227768D01*
X0269984Y0227768D01*
X0269619Y0227670D01*
X0269291Y0227481D01*
X0269257Y0227446D01*
X0260265Y0236438D01*
X0263811Y0236438D01*
X0264332Y0235917D01*
X0264332Y0232971D01*
X0264879Y0232424D01*
X0264561Y0232742D02*
X0263961Y0232742D01*
X0264332Y0233410D02*
X0263293Y0233410D01*
X0262626Y0234078D02*
X0264332Y0234078D01*
X0264332Y0234745D02*
X0261958Y0234745D01*
X0261290Y0235413D02*
X0264332Y0235413D01*
X0264168Y0236081D02*
X0260622Y0236081D01*
X0255401Y0239420D02*
X0249307Y0239420D01*
X0248984Y0239097D02*
X0251289Y0241402D01*
X0251289Y0244661D01*
X0248984Y0246966D01*
X0245725Y0246966D01*
X0243420Y0244661D01*
X0243420Y0241402D01*
X0245725Y0239097D01*
X0248984Y0239097D01*
X0249975Y0240088D02*
X0254734Y0240088D01*
X0254066Y0240756D02*
X0250643Y0240756D01*
X0251289Y0241423D02*
X0253420Y0241423D01*
X0253420Y0242091D02*
X0251289Y0242091D01*
X0251289Y0242759D02*
X0253420Y0242759D01*
X0253420Y0243427D02*
X0251289Y0243427D01*
X0251289Y0244095D02*
X0253420Y0244095D01*
X0253521Y0244762D02*
X0251188Y0244762D01*
X0250520Y0245430D02*
X0254189Y0245430D01*
X0254856Y0246098D02*
X0249852Y0246098D01*
X0249184Y0246766D02*
X0255524Y0246766D01*
X0245524Y0246766D02*
X0239750Y0246766D01*
X0240418Y0246098D02*
X0244856Y0246098D01*
X0244189Y0245430D02*
X0241086Y0245430D01*
X0241689Y0244762D02*
X0243521Y0244762D01*
X0243420Y0244095D02*
X0241689Y0244095D01*
X0241689Y0243427D02*
X0243420Y0243427D01*
X0243420Y0242759D02*
X0237689Y0242759D01*
X0237689Y0243427D02*
X0237020Y0243427D01*
X0237020Y0244095D02*
X0237689Y0244095D01*
X0237689Y0244762D02*
X0237020Y0244762D01*
X0237020Y0245430D02*
X0237689Y0245430D01*
X0237689Y0246098D02*
X0237020Y0246098D01*
X0237020Y0246766D02*
X0237689Y0246766D01*
X0234958Y0246766D02*
X0230942Y0246766D01*
X0231289Y0246098D02*
X0234291Y0246098D01*
X0233623Y0245430D02*
X0231289Y0245430D01*
X0231289Y0244762D02*
X0233020Y0244762D01*
X0233020Y0244095D02*
X0231289Y0244095D01*
X0231289Y0243427D02*
X0233020Y0243427D01*
X0233020Y0242091D02*
X0231289Y0242091D01*
X0231289Y0241423D02*
X0233020Y0241423D01*
X0233500Y0240756D02*
X0231289Y0240756D01*
X0231289Y0240088D02*
X0234168Y0240088D01*
X0234836Y0239420D02*
X0231065Y0239420D01*
X0231289Y0242759D02*
X0237020Y0242759D01*
X0239873Y0239420D02*
X0245401Y0239420D01*
X0244734Y0240088D02*
X0240541Y0240088D01*
X0241208Y0240756D02*
X0244066Y0240756D01*
X0243420Y0241423D02*
X0241689Y0241423D01*
X0241689Y0242091D02*
X0243420Y0242091D01*
X0265297Y0231406D02*
X0268135Y0231406D01*
X0268802Y0230738D02*
X0265965Y0230738D01*
X0266632Y0230071D02*
X0269470Y0230071D01*
X0270138Y0229403D02*
X0267300Y0229403D01*
X0267968Y0228735D02*
X0270725Y0228735D01*
X0270725Y0228067D02*
X0268636Y0228067D01*
X0270583Y0227399D02*
X0270583Y0227399D01*
X0270583Y0226732D02*
X0270583Y0226732D01*
X0270583Y0226064D02*
X0270583Y0226064D01*
X0270583Y0225396D02*
X0270583Y0225396D01*
X0270583Y0224728D02*
X0270583Y0224728D01*
X0255869Y0222930D02*
X0255869Y0221837D01*
X0253047Y0224655D01*
X0252662Y0225039D01*
X0252661Y0225039D01*
X0252111Y0225039D01*
X0247149Y0225039D01*
X0246370Y0224261D01*
X0246370Y0220669D01*
X0246152Y0220448D01*
X0245765Y0220062D01*
X0245765Y0220060D01*
X0245763Y0220058D01*
X0245765Y0219510D01*
X0245765Y0216158D01*
X0245755Y0216147D01*
X0245757Y0216037D01*
X0245580Y0216214D01*
X0245276Y0216389D01*
X0244936Y0216480D01*
X0243195Y0216480D01*
X0243195Y0212480D01*
X0246095Y0212480D01*
X0246095Y0214739D01*
X0246163Y0214674D01*
X0246543Y0214294D01*
X0246558Y0214294D01*
X0246568Y0214284D01*
X0247106Y0214294D01*
X0247644Y0214294D01*
X0247654Y0214304D01*
X0248226Y0214315D01*
X0248226Y0208759D01*
X0248773Y0208211D01*
X0249776Y0208211D01*
X0249776Y0204356D01*
X0250554Y0203578D01*
X0254780Y0203578D01*
X0255558Y0204356D01*
X0257433Y0206231D01*
X0257433Y0206870D01*
X0258181Y0206870D01*
X0258181Y0208716D01*
X0258181Y0208716D01*
X0258181Y0206870D01*
X0259294Y0206870D01*
X0259294Y0204452D01*
X0259412Y0204334D01*
X0259412Y0199873D01*
X0258127Y0198588D01*
X0253403Y0198588D01*
X0252624Y0197810D01*
X0251631Y0196817D01*
X0250853Y0196038D01*
X0250853Y0195097D01*
X0248984Y0196966D01*
X0245725Y0196966D01*
X0243420Y0194661D01*
X0243420Y0191402D01*
X0245725Y0189097D01*
X0248984Y0189097D01*
X0250853Y0190966D01*
X0250853Y0188952D01*
X0249932Y0188031D01*
X0224233Y0188031D01*
X0225511Y0189310D01*
X0225725Y0189097D01*
X0228984Y0189097D01*
X0231289Y0191402D01*
X0231289Y0194661D01*
X0228984Y0196966D01*
X0228683Y0196966D01*
X0228683Y0212237D01*
X0232049Y0215603D01*
X0238310Y0215603D01*
X0238907Y0215006D01*
X0239626Y0215006D01*
X0239626Y0212480D01*
X0242526Y0212480D01*
X0242526Y0211811D01*
X0243195Y0211811D01*
X0243195Y0207811D01*
X0244936Y0207811D01*
X0245276Y0207902D01*
X0245580Y0208078D01*
X0245829Y0208326D01*
X0246004Y0208631D01*
X0246095Y0208970D01*
X0246095Y0211811D01*
X0243195Y0211811D01*
X0243195Y0212480D01*
X0242526Y0212480D01*
X0242526Y0216480D01*
X0241630Y0216480D01*
X0241630Y0217729D01*
X0241242Y0218117D01*
X0242232Y0218117D01*
X0242232Y0221216D01*
X0242901Y0221216D01*
X0242901Y0218117D01*
X0244492Y0218117D01*
X0244832Y0218207D01*
X0245136Y0218383D01*
X0245385Y0218632D01*
X0245560Y0218936D01*
X0245651Y0219275D01*
X0245651Y0221217D01*
X0242901Y0221217D01*
X0242901Y0221886D01*
X0242232Y0221886D01*
X0242232Y0224986D01*
X0240641Y0224986D01*
X0240301Y0224895D01*
X0239997Y0224719D01*
X0239749Y0224471D01*
X0239573Y0224166D01*
X0239482Y0223827D01*
X0239482Y0221886D01*
X0242232Y0221886D01*
X0242232Y0221217D01*
X0239482Y0221217D01*
X0239482Y0219275D01*
X0239573Y0218936D01*
X0239619Y0218857D01*
X0238907Y0218857D01*
X0238310Y0218260D01*
X0230948Y0218260D01*
X0230170Y0217482D01*
X0230170Y0217482D01*
X0226804Y0214116D01*
X0226026Y0213338D01*
X0226026Y0196966D01*
X0225725Y0196966D01*
X0223420Y0194661D01*
X0223420Y0191402D01*
X0223633Y0191189D01*
X0222260Y0189816D01*
X0222260Y0210539D01*
X0237298Y0225577D01*
X0253221Y0225577D01*
X0255869Y0222930D01*
X0255869Y0222725D02*
X0254980Y0222725D01*
X0255406Y0223393D02*
X0254311Y0223393D01*
X0254738Y0224060D02*
X0253642Y0224060D01*
X0254070Y0224728D02*
X0252973Y0224728D01*
X0252662Y0225039D02*
X0252662Y0225039D01*
X0253403Y0225396D02*
X0237117Y0225396D01*
X0236449Y0224728D02*
X0240013Y0224728D01*
X0239544Y0224060D02*
X0235782Y0224060D01*
X0235114Y0223393D02*
X0239482Y0223393D01*
X0239482Y0222725D02*
X0234446Y0222725D01*
X0233778Y0222057D02*
X0239482Y0222057D01*
X0239482Y0220721D02*
X0232443Y0220721D01*
X0233110Y0221389D02*
X0242232Y0221389D01*
X0242232Y0220721D02*
X0242901Y0220721D01*
X0242901Y0220054D02*
X0242232Y0220054D01*
X0242232Y0219386D02*
X0242901Y0219386D01*
X0242901Y0218718D02*
X0242232Y0218718D01*
X0241308Y0218050D02*
X0245765Y0218050D01*
X0245765Y0217382D02*
X0241630Y0217382D01*
X0241630Y0216715D02*
X0245765Y0216715D01*
X0245747Y0216047D02*
X0245757Y0216047D01*
X0246095Y0214711D02*
X0246124Y0214711D01*
X0246095Y0214043D02*
X0248226Y0214043D01*
X0248226Y0213376D02*
X0246095Y0213376D01*
X0246095Y0212708D02*
X0248226Y0212708D01*
X0248226Y0212040D02*
X0243195Y0212040D01*
X0243195Y0211372D02*
X0242526Y0211372D01*
X0242526Y0211811D02*
X0242526Y0207811D01*
X0240785Y0207811D01*
X0240445Y0207902D01*
X0240141Y0208078D01*
X0239893Y0208326D01*
X0239717Y0208631D01*
X0239626Y0208970D01*
X0239626Y0211811D01*
X0242526Y0211811D01*
X0242526Y0212040D02*
X0228683Y0212040D01*
X0228683Y0211372D02*
X0239626Y0211372D01*
X0239626Y0210704D02*
X0228683Y0210704D01*
X0228683Y0210037D02*
X0239626Y0210037D01*
X0239626Y0209369D02*
X0228683Y0209369D01*
X0228683Y0208701D02*
X0239698Y0208701D01*
X0240218Y0208033D02*
X0228683Y0208033D01*
X0228683Y0207365D02*
X0249776Y0207365D01*
X0249776Y0206698D02*
X0228683Y0206698D01*
X0228683Y0206030D02*
X0249776Y0206030D01*
X0249776Y0205362D02*
X0228683Y0205362D01*
X0228683Y0204694D02*
X0249776Y0204694D01*
X0250106Y0204026D02*
X0228683Y0204026D01*
X0228683Y0203359D02*
X0259412Y0203359D01*
X0259412Y0204026D02*
X0255228Y0204026D01*
X0255896Y0204694D02*
X0259294Y0204694D01*
X0259294Y0205362D02*
X0256563Y0205362D01*
X0257231Y0206030D02*
X0259294Y0206030D01*
X0259294Y0206698D02*
X0257433Y0206698D01*
X0258181Y0207365D02*
X0258181Y0207365D01*
X0258181Y0208033D02*
X0258181Y0208033D01*
X0258181Y0208701D02*
X0258181Y0208701D01*
X0257433Y0210685D02*
X0257433Y0210685D01*
X0259165Y0210685D01*
X0257433Y0210685D01*
X0259165Y0210685D02*
X0259165Y0210685D01*
X0249776Y0208033D02*
X0245503Y0208033D01*
X0246023Y0208701D02*
X0248283Y0208701D01*
X0248226Y0209369D02*
X0246095Y0209369D01*
X0246095Y0210037D02*
X0248226Y0210037D01*
X0248226Y0210704D02*
X0246095Y0210704D01*
X0246095Y0211372D02*
X0248226Y0211372D01*
X0243195Y0210704D02*
X0242526Y0210704D01*
X0242526Y0210037D02*
X0243195Y0210037D01*
X0243195Y0209369D02*
X0242526Y0209369D01*
X0242526Y0208701D02*
X0243195Y0208701D01*
X0243195Y0208033D02*
X0242526Y0208033D01*
X0242526Y0212708D02*
X0243195Y0212708D01*
X0243195Y0213376D02*
X0242526Y0213376D01*
X0242526Y0214043D02*
X0243195Y0214043D01*
X0243195Y0214711D02*
X0242526Y0214711D01*
X0242526Y0215379D02*
X0243195Y0215379D01*
X0243195Y0216047D02*
X0242526Y0216047D01*
X0239626Y0214711D02*
X0231157Y0214711D01*
X0231825Y0215379D02*
X0238534Y0215379D01*
X0239626Y0214043D02*
X0230489Y0214043D01*
X0229821Y0213376D02*
X0239626Y0213376D01*
X0239626Y0212708D02*
X0229153Y0212708D01*
X0227400Y0214711D02*
X0226432Y0214711D01*
X0226804Y0214116D02*
X0226804Y0214116D01*
X0226732Y0214043D02*
X0225764Y0214043D01*
X0226064Y0213376D02*
X0225097Y0213376D01*
X0224429Y0212708D02*
X0226026Y0212708D01*
X0226026Y0212040D02*
X0223761Y0212040D01*
X0223093Y0211372D02*
X0226026Y0211372D01*
X0226026Y0210704D02*
X0222425Y0210704D01*
X0222260Y0210037D02*
X0226026Y0210037D01*
X0226026Y0209369D02*
X0222260Y0209369D01*
X0222260Y0208701D02*
X0226026Y0208701D01*
X0226026Y0208033D02*
X0222260Y0208033D01*
X0222260Y0207365D02*
X0226026Y0207365D01*
X0226026Y0206698D02*
X0222260Y0206698D01*
X0222260Y0206030D02*
X0226026Y0206030D01*
X0226026Y0205362D02*
X0222260Y0205362D01*
X0222260Y0204694D02*
X0226026Y0204694D01*
X0226026Y0204026D02*
X0222260Y0204026D01*
X0222260Y0203359D02*
X0226026Y0203359D01*
X0226026Y0202691D02*
X0222260Y0202691D01*
X0222260Y0202023D02*
X0226026Y0202023D01*
X0226026Y0201355D02*
X0222260Y0201355D01*
X0222260Y0200687D02*
X0226026Y0200687D01*
X0226026Y0200020D02*
X0222260Y0200020D01*
X0222260Y0199352D02*
X0226026Y0199352D01*
X0226026Y0198684D02*
X0222260Y0198684D01*
X0222260Y0198016D02*
X0226026Y0198016D01*
X0226026Y0197348D02*
X0222260Y0197348D01*
X0222260Y0196681D02*
X0225439Y0196681D01*
X0224771Y0196013D02*
X0222260Y0196013D01*
X0222260Y0195345D02*
X0224103Y0195345D01*
X0223436Y0194677D02*
X0222260Y0194677D01*
X0222260Y0194009D02*
X0223420Y0194009D01*
X0223420Y0193342D02*
X0222260Y0193342D01*
X0222260Y0192674D02*
X0223420Y0192674D01*
X0223420Y0192006D02*
X0222260Y0192006D01*
X0222260Y0191338D02*
X0223483Y0191338D01*
X0223115Y0190670D02*
X0222260Y0190670D01*
X0222260Y0190003D02*
X0222447Y0190003D01*
X0224868Y0188667D02*
X0250568Y0188667D01*
X0250853Y0189335D02*
X0249222Y0189335D01*
X0249890Y0190003D02*
X0250853Y0190003D01*
X0250853Y0190670D02*
X0250558Y0190670D01*
X0250605Y0195345D02*
X0250853Y0195345D01*
X0250853Y0196013D02*
X0249937Y0196013D01*
X0249270Y0196681D02*
X0251495Y0196681D01*
X0251631Y0196817D02*
X0251631Y0196817D01*
X0252163Y0197348D02*
X0228683Y0197348D01*
X0228683Y0198016D02*
X0252831Y0198016D01*
X0252624Y0197810D02*
X0252624Y0197810D01*
X0258223Y0198684D02*
X0228683Y0198684D01*
X0228683Y0199352D02*
X0258891Y0199352D01*
X0259412Y0200020D02*
X0228683Y0200020D01*
X0228683Y0200687D02*
X0259412Y0200687D01*
X0259412Y0201355D02*
X0228683Y0201355D01*
X0228683Y0202023D02*
X0259412Y0202023D01*
X0259412Y0202691D02*
X0228683Y0202691D01*
X0229270Y0196681D02*
X0235439Y0196681D01*
X0235725Y0196966D02*
X0233420Y0194661D01*
X0233420Y0191402D01*
X0235725Y0189097D01*
X0238984Y0189097D01*
X0241289Y0191402D01*
X0241289Y0194661D01*
X0238984Y0196966D01*
X0235725Y0196966D01*
X0234771Y0196013D02*
X0229937Y0196013D01*
X0230605Y0195345D02*
X0234103Y0195345D01*
X0233436Y0194677D02*
X0231273Y0194677D01*
X0231289Y0194009D02*
X0233420Y0194009D01*
X0233420Y0193342D02*
X0231289Y0193342D01*
X0231289Y0192674D02*
X0233420Y0192674D01*
X0233420Y0192006D02*
X0231289Y0192006D01*
X0231225Y0191338D02*
X0233483Y0191338D01*
X0234151Y0190670D02*
X0230558Y0190670D01*
X0229890Y0190003D02*
X0234819Y0190003D01*
X0235487Y0189335D02*
X0229222Y0189335D01*
X0239222Y0189335D02*
X0245487Y0189335D01*
X0244819Y0190003D02*
X0239890Y0190003D01*
X0240558Y0190670D02*
X0244151Y0190670D01*
X0243483Y0191338D02*
X0241225Y0191338D01*
X0241289Y0192006D02*
X0243420Y0192006D01*
X0243420Y0192674D02*
X0241289Y0192674D01*
X0241289Y0193342D02*
X0243420Y0193342D01*
X0243420Y0194009D02*
X0241289Y0194009D01*
X0241273Y0194677D02*
X0243436Y0194677D01*
X0244103Y0195345D02*
X0240605Y0195345D01*
X0239937Y0196013D02*
X0244771Y0196013D01*
X0245439Y0196681D02*
X0239270Y0196681D01*
X0278457Y0206157D02*
X0278457Y0206158D01*
X0280303Y0206158D01*
X0280303Y0206870D01*
X0281016Y0206870D01*
X0282077Y0206870D01*
X0282343Y0206627D01*
X0282711Y0206259D01*
X0282746Y0206259D01*
X0285163Y0204053D01*
X0285530Y0203685D01*
X0285566Y0203685D01*
X0285592Y0203662D01*
X0286111Y0203685D01*
X0293525Y0203685D01*
X0294303Y0204464D01*
X0294303Y0208358D01*
X0294507Y0208303D01*
X0296248Y0208303D01*
X0296248Y0212303D01*
X0296917Y0212303D01*
X0296917Y0208303D01*
X0298658Y0208303D01*
X0298997Y0208394D01*
X0299302Y0208570D01*
X0299550Y0208818D01*
X0299726Y0209123D01*
X0299817Y0209462D01*
X0299817Y0212303D01*
X0296917Y0212303D01*
X0296917Y0212972D01*
X0299817Y0212972D01*
X0299817Y0215814D01*
X0299726Y0216153D01*
X0299550Y0216457D01*
X0299302Y0216706D01*
X0298997Y0216881D01*
X0298658Y0216972D01*
X0296917Y0216972D01*
X0296917Y0212972D01*
X0296248Y0212972D01*
X0296248Y0212303D01*
X0293348Y0212303D01*
X0293348Y0210021D01*
X0291217Y0210021D01*
X0291217Y0215254D01*
X0293348Y0215254D01*
X0293348Y0212972D01*
X0296248Y0212972D01*
X0296248Y0216972D01*
X0295041Y0216972D01*
X0295041Y0218038D01*
X0296483Y0218038D01*
X0296823Y0218129D01*
X0297127Y0218304D01*
X0297375Y0218553D01*
X0297551Y0218857D01*
X0297642Y0219197D01*
X0297642Y0221138D01*
X0294892Y0221138D01*
X0294892Y0221807D01*
X0297642Y0221807D01*
X0297642Y0223748D01*
X0297551Y0224088D01*
X0297375Y0224392D01*
X0297191Y0224576D01*
X0299908Y0224597D01*
X0300454Y0224597D01*
X0300458Y0224601D01*
X0300464Y0224601D01*
X0300696Y0224837D01*
X0301912Y0224837D01*
X0302354Y0225279D01*
X0302354Y0188031D01*
X0294233Y0188031D01*
X0295298Y0189097D01*
X0300741Y0189097D01*
X0301289Y0189644D01*
X0301289Y0196419D01*
X0300741Y0196966D01*
X0295243Y0196966D01*
X0293388Y0198820D01*
X0286966Y0198820D01*
X0287252Y0199106D01*
X0288152Y0199106D01*
X0289280Y0200234D01*
X0289280Y0201829D01*
X0288152Y0202957D01*
X0286557Y0202957D01*
X0285429Y0201829D01*
X0285429Y0200929D01*
X0284820Y0200320D01*
X0282366Y0200320D01*
X0283280Y0201234D01*
X0283280Y0202829D01*
X0282152Y0203957D01*
X0281252Y0203957D01*
X0280388Y0204820D01*
X0280303Y0204820D01*
X0280303Y0206157D01*
X0278457Y0206157D01*
X0280303Y0206030D02*
X0282997Y0206030D01*
X0282266Y0206698D02*
X0280303Y0206698D01*
X0281016Y0206870D02*
X0281016Y0208716D01*
X0281016Y0206870D01*
X0281016Y0207365D02*
X0281016Y0207365D01*
X0281016Y0208033D02*
X0281016Y0208033D01*
X0281016Y0208701D02*
X0281016Y0208701D01*
X0281016Y0208716D02*
X0281016Y0208716D01*
X0281932Y0210685D02*
X0280032Y0210685D01*
X0281932Y0210685D01*
X0281932Y0210685D01*
X0280032Y0210685D02*
X0280032Y0210685D01*
X0291217Y0210704D02*
X0293348Y0210704D01*
X0293348Y0210037D02*
X0291217Y0210037D01*
X0291217Y0211372D02*
X0293348Y0211372D01*
X0293348Y0212040D02*
X0291217Y0212040D01*
X0291217Y0212708D02*
X0296248Y0212708D01*
X0296248Y0213376D02*
X0296917Y0213376D01*
X0296917Y0214043D02*
X0296248Y0214043D01*
X0296248Y0214711D02*
X0296917Y0214711D01*
X0296917Y0215379D02*
X0296248Y0215379D01*
X0296248Y0216047D02*
X0296917Y0216047D01*
X0296917Y0216715D02*
X0296248Y0216715D01*
X0296530Y0218050D02*
X0302354Y0218050D01*
X0302354Y0217382D02*
X0295041Y0217382D01*
X0297471Y0218718D02*
X0302354Y0218718D01*
X0302354Y0219386D02*
X0297642Y0219386D01*
X0297642Y0220054D02*
X0302354Y0220054D01*
X0302354Y0220721D02*
X0297642Y0220721D01*
X0297642Y0222057D02*
X0302354Y0222057D01*
X0302354Y0221389D02*
X0294892Y0221389D01*
X0297642Y0222725D02*
X0302354Y0222725D01*
X0302354Y0223393D02*
X0297642Y0223393D01*
X0297558Y0224060D02*
X0302354Y0224060D01*
X0302354Y0224728D02*
X0300589Y0224728D01*
X0302048Y0230071D02*
X0302354Y0230071D01*
X0302354Y0230738D02*
X0295188Y0230738D01*
X0295662Y0231406D02*
X0296674Y0231406D01*
X0296077Y0232074D02*
X0296037Y0232074D01*
X0296067Y0234078D02*
X0299091Y0234078D01*
X0299091Y0234745D02*
X0299760Y0234745D01*
X0299760Y0235413D02*
X0299091Y0235413D01*
X0299091Y0236081D02*
X0299760Y0236081D01*
X0299760Y0236749D02*
X0299091Y0236749D01*
X0299091Y0233410D02*
X0299760Y0233410D01*
X0299760Y0232742D02*
X0299091Y0232742D01*
X0299091Y0232074D02*
X0299760Y0232074D01*
X0299760Y0231406D02*
X0299091Y0231406D01*
X0302177Y0231406D02*
X0302354Y0231406D01*
X0293317Y0231406D02*
X0292648Y0231406D01*
X0292648Y0232074D02*
X0293317Y0232074D01*
X0293317Y0232742D02*
X0292648Y0232742D01*
X0292648Y0233410D02*
X0293317Y0233410D01*
X0292648Y0234799D02*
X0289898Y0234799D01*
X0289898Y0236740D01*
X0289989Y0237080D01*
X0290165Y0237384D01*
X0290413Y0237633D01*
X0290718Y0237808D01*
X0291057Y0237899D01*
X0292648Y0237899D01*
X0292648Y0234799D01*
X0292648Y0235413D02*
X0293317Y0235413D01*
X0293317Y0236081D02*
X0292648Y0236081D01*
X0292648Y0236749D02*
X0293317Y0236749D01*
X0293317Y0237417D02*
X0292648Y0237417D01*
X0290197Y0237417D02*
X0288402Y0237417D01*
X0288867Y0236749D02*
X0289900Y0236749D01*
X0289898Y0236081D02*
X0288867Y0236081D01*
X0288867Y0235413D02*
X0289898Y0235413D01*
X0290298Y0230071D02*
X0288867Y0230071D01*
X0288867Y0229403D02*
X0289972Y0229403D01*
X0291217Y0214711D02*
X0293348Y0214711D01*
X0293348Y0214043D02*
X0291217Y0214043D01*
X0291217Y0213376D02*
X0293348Y0213376D01*
X0296248Y0212040D02*
X0296917Y0212040D01*
X0296917Y0211372D02*
X0296248Y0211372D01*
X0296248Y0210704D02*
X0296917Y0210704D01*
X0296917Y0210037D02*
X0296248Y0210037D01*
X0296248Y0209369D02*
X0296917Y0209369D01*
X0296917Y0208701D02*
X0296248Y0208701D01*
X0294303Y0208033D02*
X0302354Y0208033D01*
X0302354Y0207365D02*
X0294303Y0207365D01*
X0294303Y0206698D02*
X0302354Y0206698D01*
X0302354Y0206030D02*
X0294303Y0206030D01*
X0294303Y0205362D02*
X0302354Y0205362D01*
X0302354Y0204694D02*
X0294303Y0204694D01*
X0293866Y0204026D02*
X0302354Y0204026D01*
X0302354Y0203359D02*
X0282750Y0203359D01*
X0283280Y0202691D02*
X0286291Y0202691D01*
X0285623Y0202023D02*
X0283280Y0202023D01*
X0283280Y0201355D02*
X0285429Y0201355D01*
X0285187Y0200687D02*
X0282733Y0200687D01*
X0281182Y0204026D02*
X0285190Y0204026D01*
X0284460Y0204694D02*
X0280515Y0204694D01*
X0280303Y0205362D02*
X0283729Y0205362D01*
X0288418Y0202691D02*
X0302354Y0202691D01*
X0302354Y0202023D02*
X0289085Y0202023D01*
X0289280Y0201355D02*
X0302354Y0201355D01*
X0302354Y0200687D02*
X0289280Y0200687D01*
X0289065Y0200020D02*
X0302354Y0200020D01*
X0302354Y0199352D02*
X0288397Y0199352D01*
X0293525Y0198684D02*
X0302354Y0198684D01*
X0302354Y0198016D02*
X0294193Y0198016D01*
X0294860Y0197348D02*
X0302354Y0197348D01*
X0302354Y0196681D02*
X0301027Y0196681D01*
X0301289Y0196013D02*
X0302354Y0196013D01*
X0302354Y0195345D02*
X0301289Y0195345D01*
X0301289Y0194677D02*
X0302354Y0194677D01*
X0302354Y0194009D02*
X0301289Y0194009D01*
X0301289Y0193342D02*
X0302354Y0193342D01*
X0302354Y0192674D02*
X0301289Y0192674D01*
X0301289Y0192006D02*
X0302354Y0192006D01*
X0302354Y0191338D02*
X0301289Y0191338D01*
X0301289Y0190670D02*
X0302354Y0190670D01*
X0302354Y0190003D02*
X0301289Y0190003D01*
X0300979Y0189335D02*
X0302354Y0189335D01*
X0302354Y0188667D02*
X0294868Y0188667D01*
X0299433Y0208701D02*
X0302354Y0208701D01*
X0302354Y0209369D02*
X0299792Y0209369D01*
X0299817Y0210037D02*
X0302354Y0210037D01*
X0302354Y0210704D02*
X0299817Y0210704D01*
X0299817Y0211372D02*
X0302354Y0211372D01*
X0302354Y0212040D02*
X0299817Y0212040D01*
X0299817Y0213376D02*
X0302354Y0213376D01*
X0302354Y0214043D02*
X0299817Y0214043D01*
X0299817Y0214711D02*
X0302354Y0214711D01*
X0302354Y0215379D02*
X0299817Y0215379D01*
X0299754Y0216047D02*
X0302354Y0216047D01*
X0302354Y0216715D02*
X0299286Y0216715D01*
X0296917Y0212708D02*
X0302354Y0212708D01*
X0255869Y0222057D02*
X0255648Y0222057D01*
X0246838Y0224728D02*
X0245120Y0224728D01*
X0245136Y0224719D02*
X0244832Y0224895D01*
X0244492Y0224986D01*
X0242901Y0224986D01*
X0242901Y0221886D01*
X0245651Y0221886D01*
X0245651Y0223827D01*
X0245560Y0224166D01*
X0245385Y0224471D01*
X0245136Y0224719D01*
X0245589Y0224060D02*
X0246370Y0224060D01*
X0246370Y0223393D02*
X0245651Y0223393D01*
X0245651Y0222725D02*
X0246370Y0222725D01*
X0246370Y0222057D02*
X0245651Y0222057D01*
X0246370Y0221389D02*
X0242901Y0221389D01*
X0242901Y0222057D02*
X0242232Y0222057D01*
X0242232Y0222725D02*
X0242901Y0222725D01*
X0242901Y0223393D02*
X0242232Y0223393D01*
X0242232Y0224060D02*
X0242901Y0224060D01*
X0242901Y0224728D02*
X0242232Y0224728D01*
X0245651Y0220721D02*
X0246370Y0220721D01*
X0245764Y0220054D02*
X0245651Y0220054D01*
X0245651Y0219386D02*
X0245765Y0219386D01*
X0245765Y0218718D02*
X0245434Y0218718D01*
X0239482Y0219386D02*
X0231107Y0219386D01*
X0231775Y0220054D02*
X0239482Y0220054D01*
X0238768Y0218718D02*
X0230439Y0218718D01*
X0230739Y0218050D02*
X0229771Y0218050D01*
X0230071Y0217382D02*
X0229104Y0217382D01*
X0229403Y0216715D02*
X0228436Y0216715D01*
X0228735Y0216047D02*
X0227768Y0216047D01*
X0228067Y0215379D02*
X0227100Y0215379D01*
D48*
X0262709Y0214130D03*
X0262709Y0217083D03*
X0262709Y0220035D03*
X0266154Y0220035D03*
X0266154Y0217083D03*
X0266154Y0214130D03*
X0266154Y0211177D03*
X0269598Y0211130D03*
X0269598Y0214130D03*
X0269598Y0217083D03*
X0269598Y0220035D03*
X0273043Y0220035D03*
X0273043Y0217083D03*
X0273043Y0214130D03*
X0273043Y0211177D03*
X0276488Y0211177D03*
X0276488Y0214130D03*
X0276488Y0217083D03*
X0276488Y0220035D03*
X0262709Y0211177D03*
D49*
X0258181Y0210594D02*
X0258181Y0208717D01*
X0258181Y0206842D01*
X0281016Y0206842D02*
X0281016Y0208717D01*
X0281016Y0210685D01*
X0270583Y0220035D02*
X0269598Y0220035D01*
X0270583Y0220035D02*
X0270583Y0224071D01*
D50*
X0314780Y0214386D03*
X0314386Y0206512D03*
X0324622Y0209268D03*
X0335252Y0210449D03*
X0323835Y0215961D03*
X0313598Y0195488D03*
X0313992Y0189583D03*
X0342142Y0187417D03*
X0358874Y0181118D03*
X0351984Y0174228D03*
X0361827Y0171276D03*
X0370685Y0173047D03*
X0381709Y0169504D03*
X0375409Y0162417D03*
X0365567Y0162811D03*
X0356906Y0162417D03*
X0361630Y0156512D03*
X0373835Y0152575D03*
X0360449Y0147850D03*
X0348638Y0147850D03*
X0332496Y0148638D03*
X0321669Y0154740D03*
X0305921Y0144504D03*
X0276984Y0135252D03*
X0272260Y0147850D03*
X0263992Y0147850D03*
X0252181Y0138402D03*
X0248638Y0138402D03*
X0248638Y0134858D03*
X0252181Y0134858D03*
X0250213Y0131315D03*
X0248638Y0127772D03*
X0252181Y0127772D03*
X0252181Y0124228D03*
X0248638Y0124228D03*
X0240764Y0126984D03*
X0240567Y0119701D03*
X0219504Y0124228D03*
X0219504Y0133677D03*
X0226591Y0151394D03*
X0251197Y0158677D03*
X0272260Y0120291D03*
X0271866Y0112024D03*
X0266157Y0100016D03*
X0282890Y0080528D03*
X0249819Y0079740D03*
X0393913Y0145488D03*
X0409661Y0148638D03*
X0422260Y0147850D03*
X0413992Y0157299D03*
X0419110Y0163598D03*
X0402181Y0162811D03*
X0387220Y0181709D03*
X0426591Y0183283D03*
X0385449Y0202181D03*
X0185646Y0225803D03*
X0171866Y0225803D03*
X0175803Y0298638D03*
X0161039Y0301591D03*
X0163992Y0312417D03*
X0189386Y0306709D03*
X0129543Y0311433D03*
X0129543Y0301591D03*
D51*
X0163992Y0312417D02*
X0168988Y0317413D01*
X0175537Y0317413D01*
X0182337Y0317413D02*
X0189561Y0317413D01*
X0189583Y0317392D01*
X0182337Y0317413D02*
X0182337Y0305883D01*
X0191551Y0296669D01*
X0191551Y0286827D01*
X0181709Y0286827D02*
X0181709Y0292732D01*
X0175803Y0298638D01*
X0189386Y0306709D02*
X0189386Y0310395D01*
X0189583Y0310592D01*
X0191551Y0278953D02*
X0191551Y0273047D01*
X0219110Y0245488D01*
X0215961Y0242732D02*
X0181709Y0276984D01*
X0185646Y0225803D02*
X0185646Y0221329D01*
X0171866Y0221329D02*
X0171866Y0225803D01*
X0251000Y0158480D02*
X0251000Y0153613D01*
X0251000Y0158480D02*
X0251197Y0158677D01*
X0232265Y0151394D02*
X0232496Y0150463D01*
X0232265Y0151394D02*
X0226591Y0151394D01*
X0225159Y0133677D02*
X0219504Y0133677D01*
X0219504Y0124228D02*
X0225159Y0124228D01*
X0240567Y0119701D02*
X0241301Y0118967D01*
X0245094Y0118967D01*
X0258362Y0111630D02*
X0266124Y0111630D01*
X0266748Y0112954D01*
X0271635Y0112254D01*
X0271866Y0112024D01*
X0272260Y0120291D02*
X0272097Y0120454D01*
X0266748Y0119754D01*
X0272654Y0135789D02*
X0276821Y0135089D01*
X0276984Y0135252D01*
X0272654Y0135789D02*
X0263598Y0135789D01*
X0263598Y0142589D02*
X0263598Y0147457D01*
X0263992Y0147850D01*
X0272260Y0147850D02*
X0272654Y0147457D01*
X0272654Y0142589D01*
X0305921Y0144504D02*
X0309931Y0144504D01*
X0310631Y0145449D01*
X0317431Y0145449D02*
X0318131Y0144898D01*
X0367453Y0192028D02*
X0367453Y0195808D01*
X0367437Y0195824D01*
X0367437Y0202572D01*
X0372437Y0202572D02*
X0372654Y0202572D01*
X0372654Y0210055D01*
X0377378Y0207693D02*
X0377378Y0202631D01*
X0377437Y0202572D01*
X0377378Y0202513D01*
X0377378Y0197063D01*
X0377378Y0193126D01*
X0377378Y0188402D01*
X0367535Y0191945D02*
X0367453Y0192028D01*
X0382437Y0202572D02*
X0385057Y0202572D01*
X0385449Y0202181D01*
X0270828Y0099819D02*
X0266354Y0099819D01*
X0266157Y0100016D01*
X0262777Y0100016D01*
X0261880Y0099819D01*
X0255080Y0080134D02*
X0253987Y0079740D01*
X0249819Y0079740D01*
X0277628Y0080134D02*
X0278722Y0080528D01*
X0282890Y0080528D01*
D52*
X0299228Y0124819D03*
X0360843Y0191157D03*
X0364780Y0194701D03*
X0370685Y0194307D03*
X0371472Y0190370D03*
X0365567Y0188402D03*
X0354543Y0194701D03*
X0359268Y0198244D03*
X0356512Y0202575D03*
X0351000Y0201394D03*
X0351000Y0205724D03*
X0362417Y0204543D03*
X0377378Y0207693D03*
X0377378Y0197063D03*
X0377378Y0193126D03*
X0377378Y0188402D03*
X0158283Y0195685D03*
D53*
X0228953Y0230788D02*
X0258087Y0230788D01*
X0261527Y0227348D01*
X0261571Y0227348D01*
X0262709Y0226210D01*
X0262709Y0225055D01*
X0264677Y0225055D02*
X0264677Y0226210D01*
X0258633Y0232255D01*
X0240399Y0232255D01*
X0240370Y0232284D01*
X0231906Y0232284D01*
X0230526Y0232284D01*
X0258087Y0230788D02*
X0258347Y0230788D01*
X0258756Y0234189D02*
X0266646Y0226299D01*
X0266646Y0225055D01*
X0268604Y0225065D02*
X0268604Y0225281D01*
X0268604Y0225065D02*
X0268614Y0225055D01*
X0268614Y0226322D01*
X0258762Y0236174D01*
X0268604Y0225065D02*
X0268604Y0224065D01*
X0253087Y0214531D02*
X0251061Y0212146D01*
D54*
X0256354Y0214531D02*
X0256445Y0214622D01*
X0258181Y0214622D01*
X0281016Y0214622D02*
X0282764Y0214622D01*
X0282854Y0214531D01*
X0287758Y0213622D02*
X0288382Y0212638D01*
D55*
X0286848Y0214531D01*
X0282854Y0214531D01*
X0256354Y0214531D02*
X0253087Y0214531D01*
D56*
X0330677Y0194016D02*
X0331638Y0193323D01*
X0603717Y0299858D02*
X0621177Y0282398D01*
X0661531Y0282398D01*
X0672850Y0293717D01*
X0672850Y0313638D01*
X0673087Y0313874D01*
X0663087Y0303087D02*
X0650980Y0290980D01*
X0626374Y0290980D01*
X0613717Y0303638D01*
X0613717Y0308480D01*
X0623717Y0308480D02*
X0623717Y0313480D01*
X0629543Y0319307D01*
X0647654Y0319307D01*
X0653087Y0313874D01*
X0643087Y0303087D02*
X0639110Y0303087D01*
X0633717Y0308480D01*
X0603717Y0308480D02*
X0603717Y0299858D01*
D57*
X0251854Y0221531D03*
D58*
X0236827Y0263205D02*
X0319504Y0263205D01*
X0333283Y0276984D01*
D59*
X0236827Y0263205D02*
X0226984Y0253362D01*
M02*
