G75*
%MOIN*%
%OFA0B0*%
%FSLAX25Y25*%
%IPPOS*%
%LPD*%
%AMOC8*
5,1,8,0,0,1.08239X$1,22.5*
%
%ADD10C,0.12611*%
%ADD11C,0.16548*%
%ADD12OC8,0.06800*%
%ADD13R,0.08280X0.05918*%
%ADD14R,0.08280X0.08674*%
%ADD15C,0.07887*%
%ADD16C,0.07800*%
%ADD17C,0.13068*%
%ADD18C,0.06500*%
%ADD19R,0.08200X0.08200*%
%ADD20C,0.08200*%
%ADD21R,0.06800X0.06800*%
%ADD22OC8,0.17005*%
%ADD23OC8,0.14052*%
%ADD24C,0.07099*%
%ADD25OC8,0.15036*%
%ADD26C,0.01360*%
%ADD27OC8,0.12611*%
D10*
X0445331Y0075606D03*
X0793126Y0075606D03*
X0793126Y0310016D03*
X0445331Y0310016D03*
D11*
X0390370Y0282890D03*
X0203362Y0308480D03*
X0095094Y0282890D03*
X0095094Y0160843D03*
X0077378Y0135252D03*
X0360843Y0113598D03*
X0390370Y0160843D03*
D12*
X0287354Y0193031D03*
X0277354Y0193031D03*
X0267354Y0193031D03*
X0257354Y0193031D03*
X0247354Y0193031D03*
X0237354Y0193031D03*
X0227354Y0193031D03*
X0237354Y0243031D03*
X0247354Y0243031D03*
X0257354Y0243031D03*
X0267354Y0243031D03*
X0277354Y0243031D03*
X0287354Y0243031D03*
X0297354Y0243031D03*
X0297102Y0308480D03*
X0287102Y0308480D03*
X0277102Y0308480D03*
X0267102Y0308480D03*
X0603717Y0308480D03*
X0613717Y0308480D03*
X0623717Y0308480D03*
X0633717Y0308480D03*
D13*
X0153953Y0311512D03*
X0153953Y0301512D03*
X0122457Y0301512D03*
X0122457Y0311512D03*
D14*
X0142535Y0306512D03*
X0174031Y0306512D03*
D15*
X0299819Y0078165D03*
X0309661Y0078165D03*
X0319504Y0078165D03*
D16*
X0317535Y0135252D03*
X0309661Y0135252D03*
X0301787Y0135252D03*
X0293913Y0135252D03*
X0325409Y0135252D03*
D17*
X0331512Y0107693D03*
X0287811Y0107693D03*
D18*
X0143047Y0073323D03*
X0143047Y0083323D03*
X0143047Y0093323D03*
X0143047Y0103323D03*
X0143047Y0113323D03*
X0143047Y0123323D03*
X0143047Y0133323D03*
X0143047Y0143323D03*
X0143047Y0153323D03*
X0143047Y0163323D03*
X0143047Y0173323D03*
X0143047Y0183323D03*
X0143047Y0193323D03*
X0143047Y0203323D03*
X0173047Y0193323D03*
X0183047Y0193323D03*
X0203047Y0193323D03*
X0203047Y0203323D03*
X0203047Y0183323D03*
X0203047Y0173323D03*
X0203047Y0163323D03*
X0203047Y0153323D03*
X0183047Y0153323D03*
X0173047Y0153323D03*
X0173047Y0163323D03*
X0183047Y0163323D03*
X0183047Y0173323D03*
X0173047Y0173323D03*
X0173047Y0183323D03*
X0183047Y0183323D03*
X0183047Y0143323D03*
X0173047Y0143323D03*
X0173047Y0133323D03*
X0183047Y0133323D03*
X0193047Y0123323D03*
X0203047Y0123323D03*
X0203047Y0133323D03*
X0203047Y0143323D03*
X0203047Y0113323D03*
X0193047Y0113323D03*
X0203047Y0103323D03*
X0203047Y0093323D03*
X0203047Y0083323D03*
X0203047Y0073323D03*
D19*
X0116748Y0282890D03*
D20*
X0126748Y0282890D03*
X0136748Y0282890D03*
X0146748Y0282890D03*
X0156748Y0282890D03*
X0166748Y0282890D03*
X0176748Y0282890D03*
X0186748Y0282890D03*
X0196748Y0282890D03*
X0206748Y0282890D03*
X0216748Y0282890D03*
X0226748Y0282890D03*
X0236748Y0282890D03*
X0246748Y0282890D03*
X0256748Y0282890D03*
X0266748Y0282890D03*
D21*
X0227354Y0243031D03*
X0297354Y0193031D03*
D22*
X0333283Y0276984D03*
D23*
X0333283Y0300606D03*
D24*
X0333283Y0312417D03*
D25*
X0315567Y0304528D03*
X0351000Y0304528D03*
D26*
X0084417Y0113915D02*
X0083737Y0113235D01*
X0083737Y0115489D01*
X0085329Y0117081D01*
X0087583Y0117081D01*
X0089175Y0115489D01*
X0089175Y0113235D01*
X0087583Y0111643D01*
X0085329Y0111643D01*
X0083737Y0113235D01*
X0084757Y0113658D01*
X0084757Y0115066D01*
X0085752Y0116061D01*
X0087160Y0116061D01*
X0088155Y0115066D01*
X0088155Y0113658D01*
X0087160Y0112663D01*
X0085752Y0112663D01*
X0084757Y0113658D01*
X0085777Y0114080D01*
X0085777Y0114644D01*
X0086174Y0115041D01*
X0086738Y0115041D01*
X0087135Y0114644D01*
X0087135Y0114080D01*
X0086738Y0113683D01*
X0086174Y0113683D01*
X0085777Y0114080D01*
X0091488Y0106844D02*
X0090808Y0106164D01*
X0090808Y0108418D01*
X0092400Y0110010D01*
X0094654Y0110010D01*
X0096246Y0108418D01*
X0096246Y0106164D01*
X0094654Y0104572D01*
X0092400Y0104572D01*
X0090808Y0106164D01*
X0091828Y0106587D01*
X0091828Y0107995D01*
X0092823Y0108990D01*
X0094231Y0108990D01*
X0095226Y0107995D01*
X0095226Y0106587D01*
X0094231Y0105592D01*
X0092823Y0105592D01*
X0091828Y0106587D01*
X0092848Y0107009D01*
X0092848Y0107573D01*
X0093245Y0107970D01*
X0093809Y0107970D01*
X0094206Y0107573D01*
X0094206Y0107009D01*
X0093809Y0106612D01*
X0093245Y0106612D01*
X0092848Y0107009D01*
X0098560Y0099773D02*
X0097880Y0099093D01*
X0097880Y0101347D01*
X0099472Y0102939D01*
X0101726Y0102939D01*
X0103318Y0101347D01*
X0103318Y0099093D01*
X0101726Y0097501D01*
X0099472Y0097501D01*
X0097880Y0099093D01*
X0098900Y0099516D01*
X0098900Y0100924D01*
X0099895Y0101919D01*
X0101303Y0101919D01*
X0102298Y0100924D01*
X0102298Y0099516D01*
X0101303Y0098521D01*
X0099895Y0098521D01*
X0098900Y0099516D01*
X0099920Y0099938D01*
X0099920Y0100502D01*
X0100317Y0100899D01*
X0100881Y0100899D01*
X0101278Y0100502D01*
X0101278Y0099938D01*
X0100881Y0099541D01*
X0100317Y0099541D01*
X0099920Y0099938D01*
X0105631Y0092702D02*
X0104951Y0092022D01*
X0104951Y0094276D01*
X0106543Y0095868D01*
X0108797Y0095868D01*
X0110389Y0094276D01*
X0110389Y0092022D01*
X0108797Y0090430D01*
X0106543Y0090430D01*
X0104951Y0092022D01*
X0105971Y0092445D01*
X0105971Y0093853D01*
X0106966Y0094848D01*
X0108374Y0094848D01*
X0109369Y0093853D01*
X0109369Y0092445D01*
X0108374Y0091450D01*
X0106966Y0091450D01*
X0105971Y0092445D01*
X0106991Y0092867D01*
X0106991Y0093431D01*
X0107388Y0093828D01*
X0107952Y0093828D01*
X0108349Y0093431D01*
X0108349Y0092867D01*
X0107952Y0092470D01*
X0107388Y0092470D01*
X0106991Y0092867D01*
X0375379Y0091251D02*
X0374699Y0091931D01*
X0376953Y0091931D01*
X0378545Y0090339D01*
X0378545Y0088085D01*
X0376953Y0086493D01*
X0374699Y0086493D01*
X0373107Y0088085D01*
X0373107Y0090339D01*
X0374699Y0091931D01*
X0375122Y0090911D01*
X0376530Y0090911D01*
X0377525Y0089916D01*
X0377525Y0088508D01*
X0376530Y0087513D01*
X0375122Y0087513D01*
X0374127Y0088508D01*
X0374127Y0089916D01*
X0375122Y0090911D01*
X0375544Y0089891D01*
X0376108Y0089891D01*
X0376505Y0089494D01*
X0376505Y0088930D01*
X0376108Y0088533D01*
X0375544Y0088533D01*
X0375147Y0088930D01*
X0375147Y0089494D01*
X0375544Y0089891D01*
X0382451Y0098322D02*
X0381771Y0099002D01*
X0384025Y0099002D01*
X0385617Y0097410D01*
X0385617Y0095156D01*
X0384025Y0093564D01*
X0381771Y0093564D01*
X0380179Y0095156D01*
X0380179Y0097410D01*
X0381771Y0099002D01*
X0382194Y0097982D01*
X0383602Y0097982D01*
X0384597Y0096987D01*
X0384597Y0095579D01*
X0383602Y0094584D01*
X0382194Y0094584D01*
X0381199Y0095579D01*
X0381199Y0096987D01*
X0382194Y0097982D01*
X0382616Y0096962D01*
X0383180Y0096962D01*
X0383577Y0096565D01*
X0383577Y0096001D01*
X0383180Y0095604D01*
X0382616Y0095604D01*
X0382219Y0096001D01*
X0382219Y0096565D01*
X0382616Y0096962D01*
X0389522Y0105393D02*
X0388842Y0106073D01*
X0391096Y0106073D01*
X0392688Y0104481D01*
X0392688Y0102227D01*
X0391096Y0100635D01*
X0388842Y0100635D01*
X0387250Y0102227D01*
X0387250Y0104481D01*
X0388842Y0106073D01*
X0389265Y0105053D01*
X0390673Y0105053D01*
X0391668Y0104058D01*
X0391668Y0102650D01*
X0390673Y0101655D01*
X0389265Y0101655D01*
X0388270Y0102650D01*
X0388270Y0104058D01*
X0389265Y0105053D01*
X0389687Y0104033D01*
X0390251Y0104033D01*
X0390648Y0103636D01*
X0390648Y0103072D01*
X0390251Y0102675D01*
X0389687Y0102675D01*
X0389290Y0103072D01*
X0389290Y0103636D01*
X0389687Y0104033D01*
X0396593Y0112464D02*
X0395913Y0113144D01*
X0398167Y0113144D01*
X0399759Y0111552D01*
X0399759Y0109298D01*
X0398167Y0107706D01*
X0395913Y0107706D01*
X0394321Y0109298D01*
X0394321Y0111552D01*
X0395913Y0113144D01*
X0396336Y0112124D01*
X0397744Y0112124D01*
X0398739Y0111129D01*
X0398739Y0109721D01*
X0397744Y0108726D01*
X0396336Y0108726D01*
X0395341Y0109721D01*
X0395341Y0111129D01*
X0396336Y0112124D01*
X0396758Y0111104D01*
X0397322Y0111104D01*
X0397719Y0110707D01*
X0397719Y0110143D01*
X0397322Y0109746D01*
X0396758Y0109746D01*
X0396361Y0110143D01*
X0396361Y0110707D01*
X0396758Y0111104D01*
D27*
X0288795Y0162417D03*
X0206118Y0232102D03*
X0410055Y0237614D03*
X0410449Y0260055D03*
M02*
